%TF.GenerationSoftware,KiCad,Pcbnew,10.0.5*%
%TF.CreationDate,2026-08-16T22:59:12+03:00*%
%TF.ProjectId,Nixie,4e697869-652e-46b6-9963-61645f706362,rev?*%
%TF.SameCoordinates,Original*%
%TF.FileFunction,Legend,Top*%
%TF.FilePolarity,Positive*%
%FSLAX46Y46*%
G04 Gerber Fmt 4.6, Leading zero omitted, Abs format (unit mm)*
G04 Created by KiCad (PCBNEW 10.0.5) date 2026-08-16 22:59:12*
%MOMM*%
%LPD*%
G01*
G04 APERTURE LIST*
%ADD10C,0.101600*%
%ADD11C,0.150000*%
%ADD12C,0.254000*%
%ADD13C,0.125000*%
%ADD14C,0.120000*%
%ADD15C,0.200000*%
%ADD16C,0.400000*%
G04 APERTURE END LIST*
D10*
X175684722Y-54081709D02*
X174414722Y-54081709D01*
X174414722Y-54081709D02*
X175684722Y-53355994D01*
X175684722Y-53355994D02*
X174414722Y-53355994D01*
X174838055Y-52206947D02*
X175684722Y-52206947D01*
X174354246Y-52509328D02*
X175261388Y-52811709D01*
X175261388Y-52811709D02*
X175261388Y-52025518D01*
X162003095Y-47028832D02*
X162728809Y-47028832D01*
X162365952Y-48298832D02*
X162365952Y-47028832D01*
X163333571Y-48298832D02*
X163212619Y-48238356D01*
X163212619Y-48238356D02*
X163152142Y-48177879D01*
X163152142Y-48177879D02*
X163091666Y-48056927D01*
X163091666Y-48056927D02*
X163091666Y-47694070D01*
X163091666Y-47694070D02*
X163152142Y-47573117D01*
X163152142Y-47573117D02*
X163212619Y-47512641D01*
X163212619Y-47512641D02*
X163333571Y-47452165D01*
X163333571Y-47452165D02*
X163515000Y-47452165D01*
X163515000Y-47452165D02*
X163635952Y-47512641D01*
X163635952Y-47512641D02*
X163696428Y-47573117D01*
X163696428Y-47573117D02*
X163756904Y-47694070D01*
X163756904Y-47694070D02*
X163756904Y-48056927D01*
X163756904Y-48056927D02*
X163696428Y-48177879D01*
X163696428Y-48177879D02*
X163635952Y-48238356D01*
X163635952Y-48238356D02*
X163515000Y-48298832D01*
X163515000Y-48298832D02*
X163333571Y-48298832D01*
X164301190Y-47452165D02*
X164301190Y-48722165D01*
X164301190Y-47512641D02*
X164422143Y-47452165D01*
X164422143Y-47452165D02*
X164664048Y-47452165D01*
X164664048Y-47452165D02*
X164785000Y-47512641D01*
X164785000Y-47512641D02*
X164845476Y-47573117D01*
X164845476Y-47573117D02*
X164905952Y-47694070D01*
X164905952Y-47694070D02*
X164905952Y-48056927D01*
X164905952Y-48056927D02*
X164845476Y-48177879D01*
X164845476Y-48177879D02*
X164785000Y-48238356D01*
X164785000Y-48238356D02*
X164664048Y-48298832D01*
X164664048Y-48298832D02*
X164422143Y-48298832D01*
X164422143Y-48298832D02*
X164301190Y-48238356D01*
X162668333Y-57793594D02*
X162849761Y-57854070D01*
X162849761Y-57854070D02*
X162910238Y-57914546D01*
X162910238Y-57914546D02*
X162970714Y-58035498D01*
X162970714Y-58035498D02*
X162970714Y-58216927D01*
X162970714Y-58216927D02*
X162910238Y-58337879D01*
X162910238Y-58337879D02*
X162849761Y-58398356D01*
X162849761Y-58398356D02*
X162728809Y-58458832D01*
X162728809Y-58458832D02*
X162244999Y-58458832D01*
X162244999Y-58458832D02*
X162244999Y-57188832D01*
X162244999Y-57188832D02*
X162668333Y-57188832D01*
X162668333Y-57188832D02*
X162789285Y-57249308D01*
X162789285Y-57249308D02*
X162849761Y-57309784D01*
X162849761Y-57309784D02*
X162910238Y-57430736D01*
X162910238Y-57430736D02*
X162910238Y-57551689D01*
X162910238Y-57551689D02*
X162849761Y-57672641D01*
X162849761Y-57672641D02*
X162789285Y-57733117D01*
X162789285Y-57733117D02*
X162668333Y-57793594D01*
X162668333Y-57793594D02*
X162244999Y-57793594D01*
X163696428Y-58458832D02*
X163575476Y-58398356D01*
X163575476Y-58398356D02*
X163514999Y-58337879D01*
X163514999Y-58337879D02*
X163454523Y-58216927D01*
X163454523Y-58216927D02*
X163454523Y-57854070D01*
X163454523Y-57854070D02*
X163514999Y-57733117D01*
X163514999Y-57733117D02*
X163575476Y-57672641D01*
X163575476Y-57672641D02*
X163696428Y-57612165D01*
X163696428Y-57612165D02*
X163877857Y-57612165D01*
X163877857Y-57612165D02*
X163998809Y-57672641D01*
X163998809Y-57672641D02*
X164059285Y-57733117D01*
X164059285Y-57733117D02*
X164119761Y-57854070D01*
X164119761Y-57854070D02*
X164119761Y-58216927D01*
X164119761Y-58216927D02*
X164059285Y-58337879D01*
X164059285Y-58337879D02*
X163998809Y-58398356D01*
X163998809Y-58398356D02*
X163877857Y-58458832D01*
X163877857Y-58458832D02*
X163696428Y-58458832D01*
X164482619Y-57612165D02*
X164966428Y-57612165D01*
X164664047Y-57188832D02*
X164664047Y-58277403D01*
X164664047Y-58277403D02*
X164724524Y-58398356D01*
X164724524Y-58398356D02*
X164845476Y-58458832D01*
X164845476Y-58458832D02*
X164966428Y-58458832D01*
X152804722Y-54081709D02*
X151534722Y-54081709D01*
X151534722Y-54081709D02*
X152804722Y-53355994D01*
X152804722Y-53355994D02*
X151534722Y-53355994D01*
X151534722Y-52872185D02*
X151534722Y-52085994D01*
X151534722Y-52085994D02*
X152018531Y-52509328D01*
X152018531Y-52509328D02*
X152018531Y-52327899D01*
X152018531Y-52327899D02*
X152079007Y-52206947D01*
X152079007Y-52206947D02*
X152139484Y-52146471D01*
X152139484Y-52146471D02*
X152260436Y-52085994D01*
X152260436Y-52085994D02*
X152562817Y-52085994D01*
X152562817Y-52085994D02*
X152683769Y-52146471D01*
X152683769Y-52146471D02*
X152744246Y-52206947D01*
X152744246Y-52206947D02*
X152804722Y-52327899D01*
X152804722Y-52327899D02*
X152804722Y-52690756D01*
X152804722Y-52690756D02*
X152744246Y-52811709D01*
X152744246Y-52811709D02*
X152683769Y-52872185D01*
X139123095Y-47028832D02*
X139848809Y-47028832D01*
X139485952Y-48298832D02*
X139485952Y-47028832D01*
X140453571Y-48298832D02*
X140332619Y-48238356D01*
X140332619Y-48238356D02*
X140272142Y-48177879D01*
X140272142Y-48177879D02*
X140211666Y-48056927D01*
X140211666Y-48056927D02*
X140211666Y-47694070D01*
X140211666Y-47694070D02*
X140272142Y-47573117D01*
X140272142Y-47573117D02*
X140332619Y-47512641D01*
X140332619Y-47512641D02*
X140453571Y-47452165D01*
X140453571Y-47452165D02*
X140635000Y-47452165D01*
X140635000Y-47452165D02*
X140755952Y-47512641D01*
X140755952Y-47512641D02*
X140816428Y-47573117D01*
X140816428Y-47573117D02*
X140876904Y-47694070D01*
X140876904Y-47694070D02*
X140876904Y-48056927D01*
X140876904Y-48056927D02*
X140816428Y-48177879D01*
X140816428Y-48177879D02*
X140755952Y-48238356D01*
X140755952Y-48238356D02*
X140635000Y-48298832D01*
X140635000Y-48298832D02*
X140453571Y-48298832D01*
X141421190Y-47452165D02*
X141421190Y-48722165D01*
X141421190Y-47512641D02*
X141542143Y-47452165D01*
X141542143Y-47452165D02*
X141784048Y-47452165D01*
X141784048Y-47452165D02*
X141905000Y-47512641D01*
X141905000Y-47512641D02*
X141965476Y-47573117D01*
X141965476Y-47573117D02*
X142025952Y-47694070D01*
X142025952Y-47694070D02*
X142025952Y-48056927D01*
X142025952Y-48056927D02*
X141965476Y-48177879D01*
X141965476Y-48177879D02*
X141905000Y-48238356D01*
X141905000Y-48238356D02*
X141784048Y-48298832D01*
X141784048Y-48298832D02*
X141542143Y-48298832D01*
X141542143Y-48298832D02*
X141421190Y-48238356D01*
X139788333Y-57793594D02*
X139969761Y-57854070D01*
X139969761Y-57854070D02*
X140030238Y-57914546D01*
X140030238Y-57914546D02*
X140090714Y-58035498D01*
X140090714Y-58035498D02*
X140090714Y-58216927D01*
X140090714Y-58216927D02*
X140030238Y-58337879D01*
X140030238Y-58337879D02*
X139969761Y-58398356D01*
X139969761Y-58398356D02*
X139848809Y-58458832D01*
X139848809Y-58458832D02*
X139364999Y-58458832D01*
X139364999Y-58458832D02*
X139364999Y-57188832D01*
X139364999Y-57188832D02*
X139788333Y-57188832D01*
X139788333Y-57188832D02*
X139909285Y-57249308D01*
X139909285Y-57249308D02*
X139969761Y-57309784D01*
X139969761Y-57309784D02*
X140030238Y-57430736D01*
X140030238Y-57430736D02*
X140030238Y-57551689D01*
X140030238Y-57551689D02*
X139969761Y-57672641D01*
X139969761Y-57672641D02*
X139909285Y-57733117D01*
X139909285Y-57733117D02*
X139788333Y-57793594D01*
X139788333Y-57793594D02*
X139364999Y-57793594D01*
X140816428Y-58458832D02*
X140695476Y-58398356D01*
X140695476Y-58398356D02*
X140634999Y-58337879D01*
X140634999Y-58337879D02*
X140574523Y-58216927D01*
X140574523Y-58216927D02*
X140574523Y-57854070D01*
X140574523Y-57854070D02*
X140634999Y-57733117D01*
X140634999Y-57733117D02*
X140695476Y-57672641D01*
X140695476Y-57672641D02*
X140816428Y-57612165D01*
X140816428Y-57612165D02*
X140997857Y-57612165D01*
X140997857Y-57612165D02*
X141118809Y-57672641D01*
X141118809Y-57672641D02*
X141179285Y-57733117D01*
X141179285Y-57733117D02*
X141239761Y-57854070D01*
X141239761Y-57854070D02*
X141239761Y-58216927D01*
X141239761Y-58216927D02*
X141179285Y-58337879D01*
X141179285Y-58337879D02*
X141118809Y-58398356D01*
X141118809Y-58398356D02*
X140997857Y-58458832D01*
X140997857Y-58458832D02*
X140816428Y-58458832D01*
X141602619Y-57612165D02*
X142086428Y-57612165D01*
X141784047Y-57188832D02*
X141784047Y-58277403D01*
X141784047Y-58277403D02*
X141844524Y-58398356D01*
X141844524Y-58398356D02*
X141965476Y-58458832D01*
X141965476Y-58458832D02*
X142086428Y-58458832D01*
D11*
X246974819Y-44567857D02*
X246498628Y-44901190D01*
X246974819Y-45139285D02*
X245974819Y-45139285D01*
X245974819Y-45139285D02*
X245974819Y-44758333D01*
X245974819Y-44758333D02*
X246022438Y-44663095D01*
X246022438Y-44663095D02*
X246070057Y-44615476D01*
X246070057Y-44615476D02*
X246165295Y-44567857D01*
X246165295Y-44567857D02*
X246308152Y-44567857D01*
X246308152Y-44567857D02*
X246403390Y-44615476D01*
X246403390Y-44615476D02*
X246451009Y-44663095D01*
X246451009Y-44663095D02*
X246498628Y-44758333D01*
X246498628Y-44758333D02*
X246498628Y-45139285D01*
X246070057Y-44186904D02*
X246022438Y-44139285D01*
X246022438Y-44139285D02*
X245974819Y-44044047D01*
X245974819Y-44044047D02*
X245974819Y-43805952D01*
X245974819Y-43805952D02*
X246022438Y-43710714D01*
X246022438Y-43710714D02*
X246070057Y-43663095D01*
X246070057Y-43663095D02*
X246165295Y-43615476D01*
X246165295Y-43615476D02*
X246260533Y-43615476D01*
X246260533Y-43615476D02*
X246403390Y-43663095D01*
X246403390Y-43663095D02*
X246974819Y-44234523D01*
X246974819Y-44234523D02*
X246974819Y-43615476D01*
X245974819Y-43282142D02*
X245974819Y-42615476D01*
X245974819Y-42615476D02*
X246974819Y-43044047D01*
X142882142Y-115334819D02*
X142548809Y-114858628D01*
X142310714Y-115334819D02*
X142310714Y-114334819D01*
X142310714Y-114334819D02*
X142691666Y-114334819D01*
X142691666Y-114334819D02*
X142786904Y-114382438D01*
X142786904Y-114382438D02*
X142834523Y-114430057D01*
X142834523Y-114430057D02*
X142882142Y-114525295D01*
X142882142Y-114525295D02*
X142882142Y-114668152D01*
X142882142Y-114668152D02*
X142834523Y-114763390D01*
X142834523Y-114763390D02*
X142786904Y-114811009D01*
X142786904Y-114811009D02*
X142691666Y-114858628D01*
X142691666Y-114858628D02*
X142310714Y-114858628D01*
X143834523Y-115334819D02*
X143263095Y-115334819D01*
X143548809Y-115334819D02*
X143548809Y-114334819D01*
X143548809Y-114334819D02*
X143453571Y-114477676D01*
X143453571Y-114477676D02*
X143358333Y-114572914D01*
X143358333Y-114572914D02*
X143263095Y-114620533D01*
X144215476Y-114430057D02*
X144263095Y-114382438D01*
X144263095Y-114382438D02*
X144358333Y-114334819D01*
X144358333Y-114334819D02*
X144596428Y-114334819D01*
X144596428Y-114334819D02*
X144691666Y-114382438D01*
X144691666Y-114382438D02*
X144739285Y-114430057D01*
X144739285Y-114430057D02*
X144786904Y-114525295D01*
X144786904Y-114525295D02*
X144786904Y-114620533D01*
X144786904Y-114620533D02*
X144739285Y-114763390D01*
X144739285Y-114763390D02*
X144167857Y-115334819D01*
X144167857Y-115334819D02*
X144786904Y-115334819D01*
X101248333Y-118834819D02*
X100915000Y-118358628D01*
X100676905Y-118834819D02*
X100676905Y-117834819D01*
X100676905Y-117834819D02*
X101057857Y-117834819D01*
X101057857Y-117834819D02*
X101153095Y-117882438D01*
X101153095Y-117882438D02*
X101200714Y-117930057D01*
X101200714Y-117930057D02*
X101248333Y-118025295D01*
X101248333Y-118025295D02*
X101248333Y-118168152D01*
X101248333Y-118168152D02*
X101200714Y-118263390D01*
X101200714Y-118263390D02*
X101153095Y-118311009D01*
X101153095Y-118311009D02*
X101057857Y-118358628D01*
X101057857Y-118358628D02*
X100676905Y-118358628D01*
X101629286Y-117930057D02*
X101676905Y-117882438D01*
X101676905Y-117882438D02*
X101772143Y-117834819D01*
X101772143Y-117834819D02*
X102010238Y-117834819D01*
X102010238Y-117834819D02*
X102105476Y-117882438D01*
X102105476Y-117882438D02*
X102153095Y-117930057D01*
X102153095Y-117930057D02*
X102200714Y-118025295D01*
X102200714Y-118025295D02*
X102200714Y-118120533D01*
X102200714Y-118120533D02*
X102153095Y-118263390D01*
X102153095Y-118263390D02*
X101581667Y-118834819D01*
X101581667Y-118834819D02*
X102200714Y-118834819D01*
X76056666Y-117819819D02*
X76056666Y-118534104D01*
X76056666Y-118534104D02*
X76009047Y-118676961D01*
X76009047Y-118676961D02*
X75913809Y-118772200D01*
X75913809Y-118772200D02*
X75770952Y-118819819D01*
X75770952Y-118819819D02*
X75675714Y-118819819D01*
X76437619Y-117819819D02*
X77056666Y-117819819D01*
X77056666Y-117819819D02*
X76723333Y-118200771D01*
X76723333Y-118200771D02*
X76866190Y-118200771D01*
X76866190Y-118200771D02*
X76961428Y-118248390D01*
X76961428Y-118248390D02*
X77009047Y-118296009D01*
X77009047Y-118296009D02*
X77056666Y-118391247D01*
X77056666Y-118391247D02*
X77056666Y-118629342D01*
X77056666Y-118629342D02*
X77009047Y-118724580D01*
X77009047Y-118724580D02*
X76961428Y-118772200D01*
X76961428Y-118772200D02*
X76866190Y-118819819D01*
X76866190Y-118819819D02*
X76580476Y-118819819D01*
X76580476Y-118819819D02*
X76485238Y-118772200D01*
X76485238Y-118772200D02*
X76437619Y-118724580D01*
X211982142Y-116634819D02*
X211648809Y-116158628D01*
X211410714Y-116634819D02*
X211410714Y-115634819D01*
X211410714Y-115634819D02*
X211791666Y-115634819D01*
X211791666Y-115634819D02*
X211886904Y-115682438D01*
X211886904Y-115682438D02*
X211934523Y-115730057D01*
X211934523Y-115730057D02*
X211982142Y-115825295D01*
X211982142Y-115825295D02*
X211982142Y-115968152D01*
X211982142Y-115968152D02*
X211934523Y-116063390D01*
X211934523Y-116063390D02*
X211886904Y-116111009D01*
X211886904Y-116111009D02*
X211791666Y-116158628D01*
X211791666Y-116158628D02*
X211410714Y-116158628D01*
X212363095Y-115730057D02*
X212410714Y-115682438D01*
X212410714Y-115682438D02*
X212505952Y-115634819D01*
X212505952Y-115634819D02*
X212744047Y-115634819D01*
X212744047Y-115634819D02*
X212839285Y-115682438D01*
X212839285Y-115682438D02*
X212886904Y-115730057D01*
X212886904Y-115730057D02*
X212934523Y-115825295D01*
X212934523Y-115825295D02*
X212934523Y-115920533D01*
X212934523Y-115920533D02*
X212886904Y-116063390D01*
X212886904Y-116063390D02*
X212315476Y-116634819D01*
X212315476Y-116634819D02*
X212934523Y-116634819D01*
X213886904Y-116634819D02*
X213315476Y-116634819D01*
X213601190Y-116634819D02*
X213601190Y-115634819D01*
X213601190Y-115634819D02*
X213505952Y-115777676D01*
X213505952Y-115777676D02*
X213410714Y-115872914D01*
X213410714Y-115872914D02*
X213315476Y-115920533D01*
X162811905Y-53229819D02*
X162811905Y-52229819D01*
X162811905Y-52229819D02*
X163050000Y-52229819D01*
X163050000Y-52229819D02*
X163192857Y-52277438D01*
X163192857Y-52277438D02*
X163288095Y-52372676D01*
X163288095Y-52372676D02*
X163335714Y-52467914D01*
X163335714Y-52467914D02*
X163383333Y-52658390D01*
X163383333Y-52658390D02*
X163383333Y-52801247D01*
X163383333Y-52801247D02*
X163335714Y-52991723D01*
X163335714Y-52991723D02*
X163288095Y-53086961D01*
X163288095Y-53086961D02*
X163192857Y-53182200D01*
X163192857Y-53182200D02*
X163050000Y-53229819D01*
X163050000Y-53229819D02*
X162811905Y-53229819D01*
X164240476Y-52563152D02*
X164240476Y-53229819D01*
X164002381Y-52182200D02*
X163764286Y-52896485D01*
X163764286Y-52896485D02*
X164383333Y-52896485D01*
X106592142Y-139634819D02*
X106258809Y-139158628D01*
X106020714Y-139634819D02*
X106020714Y-138634819D01*
X106020714Y-138634819D02*
X106401666Y-138634819D01*
X106401666Y-138634819D02*
X106496904Y-138682438D01*
X106496904Y-138682438D02*
X106544523Y-138730057D01*
X106544523Y-138730057D02*
X106592142Y-138825295D01*
X106592142Y-138825295D02*
X106592142Y-138968152D01*
X106592142Y-138968152D02*
X106544523Y-139063390D01*
X106544523Y-139063390D02*
X106496904Y-139111009D01*
X106496904Y-139111009D02*
X106401666Y-139158628D01*
X106401666Y-139158628D02*
X106020714Y-139158628D01*
X107544523Y-139634819D02*
X106973095Y-139634819D01*
X107258809Y-139634819D02*
X107258809Y-138634819D01*
X107258809Y-138634819D02*
X107163571Y-138777676D01*
X107163571Y-138777676D02*
X107068333Y-138872914D01*
X107068333Y-138872914D02*
X106973095Y-138920533D01*
X108163571Y-138634819D02*
X108258809Y-138634819D01*
X108258809Y-138634819D02*
X108354047Y-138682438D01*
X108354047Y-138682438D02*
X108401666Y-138730057D01*
X108401666Y-138730057D02*
X108449285Y-138825295D01*
X108449285Y-138825295D02*
X108496904Y-139015771D01*
X108496904Y-139015771D02*
X108496904Y-139253866D01*
X108496904Y-139253866D02*
X108449285Y-139444342D01*
X108449285Y-139444342D02*
X108401666Y-139539580D01*
X108401666Y-139539580D02*
X108354047Y-139587200D01*
X108354047Y-139587200D02*
X108258809Y-139634819D01*
X108258809Y-139634819D02*
X108163571Y-139634819D01*
X108163571Y-139634819D02*
X108068333Y-139587200D01*
X108068333Y-139587200D02*
X108020714Y-139539580D01*
X108020714Y-139539580D02*
X107973095Y-139444342D01*
X107973095Y-139444342D02*
X107925476Y-139253866D01*
X107925476Y-139253866D02*
X107925476Y-139015771D01*
X107925476Y-139015771D02*
X107973095Y-138825295D01*
X107973095Y-138825295D02*
X108020714Y-138730057D01*
X108020714Y-138730057D02*
X108068333Y-138682438D01*
X108068333Y-138682438D02*
X108163571Y-138634819D01*
X248292261Y-65287557D02*
X248197023Y-65239938D01*
X248197023Y-65239938D02*
X248101785Y-65144700D01*
X248101785Y-65144700D02*
X247958928Y-65001842D01*
X247958928Y-65001842D02*
X247863690Y-64954223D01*
X247863690Y-64954223D02*
X247768452Y-64954223D01*
X247816071Y-65192319D02*
X247720833Y-65144700D01*
X247720833Y-65144700D02*
X247625595Y-65049461D01*
X247625595Y-65049461D02*
X247577976Y-64858985D01*
X247577976Y-64858985D02*
X247577976Y-64525652D01*
X247577976Y-64525652D02*
X247625595Y-64335176D01*
X247625595Y-64335176D02*
X247720833Y-64239938D01*
X247720833Y-64239938D02*
X247816071Y-64192319D01*
X247816071Y-64192319D02*
X248006547Y-64192319D01*
X248006547Y-64192319D02*
X248101785Y-64239938D01*
X248101785Y-64239938D02*
X248197023Y-64335176D01*
X248197023Y-64335176D02*
X248244642Y-64525652D01*
X248244642Y-64525652D02*
X248244642Y-64858985D01*
X248244642Y-64858985D02*
X248197023Y-65049461D01*
X248197023Y-65049461D02*
X248101785Y-65144700D01*
X248101785Y-65144700D02*
X248006547Y-65192319D01*
X248006547Y-65192319D02*
X247816071Y-65192319D01*
X249197023Y-65192319D02*
X248625595Y-65192319D01*
X248911309Y-65192319D02*
X248911309Y-64192319D01*
X248911309Y-64192319D02*
X248816071Y-64335176D01*
X248816071Y-64335176D02*
X248720833Y-64430414D01*
X248720833Y-64430414D02*
X248625595Y-64478033D01*
X185656905Y-56751409D02*
X185656905Y-55751409D01*
X185656905Y-55751409D02*
X185895000Y-55751409D01*
X185895000Y-55751409D02*
X186037857Y-55799028D01*
X186037857Y-55799028D02*
X186133095Y-55894266D01*
X186133095Y-55894266D02*
X186180714Y-55989504D01*
X186180714Y-55989504D02*
X186228333Y-56179980D01*
X186228333Y-56179980D02*
X186228333Y-56322837D01*
X186228333Y-56322837D02*
X186180714Y-56513313D01*
X186180714Y-56513313D02*
X186133095Y-56608551D01*
X186133095Y-56608551D02*
X186037857Y-56703790D01*
X186037857Y-56703790D02*
X185895000Y-56751409D01*
X185895000Y-56751409D02*
X185656905Y-56751409D01*
X187085476Y-55751409D02*
X186895000Y-55751409D01*
X186895000Y-55751409D02*
X186799762Y-55799028D01*
X186799762Y-55799028D02*
X186752143Y-55846647D01*
X186752143Y-55846647D02*
X186656905Y-55989504D01*
X186656905Y-55989504D02*
X186609286Y-56179980D01*
X186609286Y-56179980D02*
X186609286Y-56560932D01*
X186609286Y-56560932D02*
X186656905Y-56656170D01*
X186656905Y-56656170D02*
X186704524Y-56703790D01*
X186704524Y-56703790D02*
X186799762Y-56751409D01*
X186799762Y-56751409D02*
X186990238Y-56751409D01*
X186990238Y-56751409D02*
X187085476Y-56703790D01*
X187085476Y-56703790D02*
X187133095Y-56656170D01*
X187133095Y-56656170D02*
X187180714Y-56560932D01*
X187180714Y-56560932D02*
X187180714Y-56322837D01*
X187180714Y-56322837D02*
X187133095Y-56227599D01*
X187133095Y-56227599D02*
X187085476Y-56179980D01*
X187085476Y-56179980D02*
X186990238Y-56132361D01*
X186990238Y-56132361D02*
X186799762Y-56132361D01*
X186799762Y-56132361D02*
X186704524Y-56179980D01*
X186704524Y-56179980D02*
X186656905Y-56227599D01*
X186656905Y-56227599D02*
X186609286Y-56322837D01*
X50636905Y-39804819D02*
X50636905Y-38804819D01*
X50636905Y-38804819D02*
X50875000Y-38804819D01*
X50875000Y-38804819D02*
X51017857Y-38852438D01*
X51017857Y-38852438D02*
X51113095Y-38947676D01*
X51113095Y-38947676D02*
X51160714Y-39042914D01*
X51160714Y-39042914D02*
X51208333Y-39233390D01*
X51208333Y-39233390D02*
X51208333Y-39376247D01*
X51208333Y-39376247D02*
X51160714Y-39566723D01*
X51160714Y-39566723D02*
X51113095Y-39661961D01*
X51113095Y-39661961D02*
X51017857Y-39757200D01*
X51017857Y-39757200D02*
X50875000Y-39804819D01*
X50875000Y-39804819D02*
X50636905Y-39804819D01*
X52113095Y-38804819D02*
X51636905Y-38804819D01*
X51636905Y-38804819D02*
X51589286Y-39281009D01*
X51589286Y-39281009D02*
X51636905Y-39233390D01*
X51636905Y-39233390D02*
X51732143Y-39185771D01*
X51732143Y-39185771D02*
X51970238Y-39185771D01*
X51970238Y-39185771D02*
X52065476Y-39233390D01*
X52065476Y-39233390D02*
X52113095Y-39281009D01*
X52113095Y-39281009D02*
X52160714Y-39376247D01*
X52160714Y-39376247D02*
X52160714Y-39614342D01*
X52160714Y-39614342D02*
X52113095Y-39709580D01*
X52113095Y-39709580D02*
X52065476Y-39757200D01*
X52065476Y-39757200D02*
X51970238Y-39804819D01*
X51970238Y-39804819D02*
X51732143Y-39804819D01*
X51732143Y-39804819D02*
X51636905Y-39757200D01*
X51636905Y-39757200D02*
X51589286Y-39709580D01*
X165982142Y-112034819D02*
X165648809Y-111558628D01*
X165410714Y-112034819D02*
X165410714Y-111034819D01*
X165410714Y-111034819D02*
X165791666Y-111034819D01*
X165791666Y-111034819D02*
X165886904Y-111082438D01*
X165886904Y-111082438D02*
X165934523Y-111130057D01*
X165934523Y-111130057D02*
X165982142Y-111225295D01*
X165982142Y-111225295D02*
X165982142Y-111368152D01*
X165982142Y-111368152D02*
X165934523Y-111463390D01*
X165934523Y-111463390D02*
X165886904Y-111511009D01*
X165886904Y-111511009D02*
X165791666Y-111558628D01*
X165791666Y-111558628D02*
X165410714Y-111558628D01*
X166934523Y-112034819D02*
X166363095Y-112034819D01*
X166648809Y-112034819D02*
X166648809Y-111034819D01*
X166648809Y-111034819D02*
X166553571Y-111177676D01*
X166553571Y-111177676D02*
X166458333Y-111272914D01*
X166458333Y-111272914D02*
X166363095Y-111320533D01*
X167791666Y-111368152D02*
X167791666Y-112034819D01*
X167553571Y-110987200D02*
X167315476Y-111701485D01*
X167315476Y-111701485D02*
X167934523Y-111701485D01*
X163328333Y-34384819D02*
X162995000Y-33908628D01*
X162756905Y-34384819D02*
X162756905Y-33384819D01*
X162756905Y-33384819D02*
X163137857Y-33384819D01*
X163137857Y-33384819D02*
X163233095Y-33432438D01*
X163233095Y-33432438D02*
X163280714Y-33480057D01*
X163280714Y-33480057D02*
X163328333Y-33575295D01*
X163328333Y-33575295D02*
X163328333Y-33718152D01*
X163328333Y-33718152D02*
X163280714Y-33813390D01*
X163280714Y-33813390D02*
X163233095Y-33861009D01*
X163233095Y-33861009D02*
X163137857Y-33908628D01*
X163137857Y-33908628D02*
X162756905Y-33908628D01*
X163661667Y-33384819D02*
X164328333Y-33384819D01*
X164328333Y-33384819D02*
X163899762Y-34384819D01*
X85182142Y-100034819D02*
X84848809Y-99558628D01*
X84610714Y-100034819D02*
X84610714Y-99034819D01*
X84610714Y-99034819D02*
X84991666Y-99034819D01*
X84991666Y-99034819D02*
X85086904Y-99082438D01*
X85086904Y-99082438D02*
X85134523Y-99130057D01*
X85134523Y-99130057D02*
X85182142Y-99225295D01*
X85182142Y-99225295D02*
X85182142Y-99368152D01*
X85182142Y-99368152D02*
X85134523Y-99463390D01*
X85134523Y-99463390D02*
X85086904Y-99511009D01*
X85086904Y-99511009D02*
X84991666Y-99558628D01*
X84991666Y-99558628D02*
X84610714Y-99558628D01*
X85563095Y-99130057D02*
X85610714Y-99082438D01*
X85610714Y-99082438D02*
X85705952Y-99034819D01*
X85705952Y-99034819D02*
X85944047Y-99034819D01*
X85944047Y-99034819D02*
X86039285Y-99082438D01*
X86039285Y-99082438D02*
X86086904Y-99130057D01*
X86086904Y-99130057D02*
X86134523Y-99225295D01*
X86134523Y-99225295D02*
X86134523Y-99320533D01*
X86134523Y-99320533D02*
X86086904Y-99463390D01*
X86086904Y-99463390D02*
X85515476Y-100034819D01*
X85515476Y-100034819D02*
X86134523Y-100034819D01*
X87039285Y-99034819D02*
X86563095Y-99034819D01*
X86563095Y-99034819D02*
X86515476Y-99511009D01*
X86515476Y-99511009D02*
X86563095Y-99463390D01*
X86563095Y-99463390D02*
X86658333Y-99415771D01*
X86658333Y-99415771D02*
X86896428Y-99415771D01*
X86896428Y-99415771D02*
X86991666Y-99463390D01*
X86991666Y-99463390D02*
X87039285Y-99511009D01*
X87039285Y-99511009D02*
X87086904Y-99606247D01*
X87086904Y-99606247D02*
X87086904Y-99844342D01*
X87086904Y-99844342D02*
X87039285Y-99939580D01*
X87039285Y-99939580D02*
X86991666Y-99987200D01*
X86991666Y-99987200D02*
X86896428Y-100034819D01*
X86896428Y-100034819D02*
X86658333Y-100034819D01*
X86658333Y-100034819D02*
X86563095Y-99987200D01*
X86563095Y-99987200D02*
X86515476Y-99939580D01*
X198182142Y-139734819D02*
X197848809Y-139258628D01*
X197610714Y-139734819D02*
X197610714Y-138734819D01*
X197610714Y-138734819D02*
X197991666Y-138734819D01*
X197991666Y-138734819D02*
X198086904Y-138782438D01*
X198086904Y-138782438D02*
X198134523Y-138830057D01*
X198134523Y-138830057D02*
X198182142Y-138925295D01*
X198182142Y-138925295D02*
X198182142Y-139068152D01*
X198182142Y-139068152D02*
X198134523Y-139163390D01*
X198134523Y-139163390D02*
X198086904Y-139211009D01*
X198086904Y-139211009D02*
X197991666Y-139258628D01*
X197991666Y-139258628D02*
X197610714Y-139258628D01*
X198563095Y-138830057D02*
X198610714Y-138782438D01*
X198610714Y-138782438D02*
X198705952Y-138734819D01*
X198705952Y-138734819D02*
X198944047Y-138734819D01*
X198944047Y-138734819D02*
X199039285Y-138782438D01*
X199039285Y-138782438D02*
X199086904Y-138830057D01*
X199086904Y-138830057D02*
X199134523Y-138925295D01*
X199134523Y-138925295D02*
X199134523Y-139020533D01*
X199134523Y-139020533D02*
X199086904Y-139163390D01*
X199086904Y-139163390D02*
X198515476Y-139734819D01*
X198515476Y-139734819D02*
X199134523Y-139734819D01*
X199467857Y-138734819D02*
X200086904Y-138734819D01*
X200086904Y-138734819D02*
X199753571Y-139115771D01*
X199753571Y-139115771D02*
X199896428Y-139115771D01*
X199896428Y-139115771D02*
X199991666Y-139163390D01*
X199991666Y-139163390D02*
X200039285Y-139211009D01*
X200039285Y-139211009D02*
X200086904Y-139306247D01*
X200086904Y-139306247D02*
X200086904Y-139544342D01*
X200086904Y-139544342D02*
X200039285Y-139639580D01*
X200039285Y-139639580D02*
X199991666Y-139687200D01*
X199991666Y-139687200D02*
X199896428Y-139734819D01*
X199896428Y-139734819D02*
X199610714Y-139734819D01*
X199610714Y-139734819D02*
X199515476Y-139687200D01*
X199515476Y-139687200D02*
X199467857Y-139639580D01*
X142692142Y-111734819D02*
X142358809Y-111258628D01*
X142120714Y-111734819D02*
X142120714Y-110734819D01*
X142120714Y-110734819D02*
X142501666Y-110734819D01*
X142501666Y-110734819D02*
X142596904Y-110782438D01*
X142596904Y-110782438D02*
X142644523Y-110830057D01*
X142644523Y-110830057D02*
X142692142Y-110925295D01*
X142692142Y-110925295D02*
X142692142Y-111068152D01*
X142692142Y-111068152D02*
X142644523Y-111163390D01*
X142644523Y-111163390D02*
X142596904Y-111211009D01*
X142596904Y-111211009D02*
X142501666Y-111258628D01*
X142501666Y-111258628D02*
X142120714Y-111258628D01*
X143644523Y-111734819D02*
X143073095Y-111734819D01*
X143358809Y-111734819D02*
X143358809Y-110734819D01*
X143358809Y-110734819D02*
X143263571Y-110877676D01*
X143263571Y-110877676D02*
X143168333Y-110972914D01*
X143168333Y-110972914D02*
X143073095Y-111020533D01*
X144596904Y-111734819D02*
X144025476Y-111734819D01*
X144311190Y-111734819D02*
X144311190Y-110734819D01*
X144311190Y-110734819D02*
X144215952Y-110877676D01*
X144215952Y-110877676D02*
X144120714Y-110972914D01*
X144120714Y-110972914D02*
X144025476Y-111020533D01*
X116888333Y-34384819D02*
X116555000Y-33908628D01*
X116316905Y-34384819D02*
X116316905Y-33384819D01*
X116316905Y-33384819D02*
X116697857Y-33384819D01*
X116697857Y-33384819D02*
X116793095Y-33432438D01*
X116793095Y-33432438D02*
X116840714Y-33480057D01*
X116840714Y-33480057D02*
X116888333Y-33575295D01*
X116888333Y-33575295D02*
X116888333Y-33718152D01*
X116888333Y-33718152D02*
X116840714Y-33813390D01*
X116840714Y-33813390D02*
X116793095Y-33861009D01*
X116793095Y-33861009D02*
X116697857Y-33908628D01*
X116697857Y-33908628D02*
X116316905Y-33908628D01*
X117793095Y-33384819D02*
X117316905Y-33384819D01*
X117316905Y-33384819D02*
X117269286Y-33861009D01*
X117269286Y-33861009D02*
X117316905Y-33813390D01*
X117316905Y-33813390D02*
X117412143Y-33765771D01*
X117412143Y-33765771D02*
X117650238Y-33765771D01*
X117650238Y-33765771D02*
X117745476Y-33813390D01*
X117745476Y-33813390D02*
X117793095Y-33861009D01*
X117793095Y-33861009D02*
X117840714Y-33956247D01*
X117840714Y-33956247D02*
X117840714Y-34194342D01*
X117840714Y-34194342D02*
X117793095Y-34289580D01*
X117793095Y-34289580D02*
X117745476Y-34337200D01*
X117745476Y-34337200D02*
X117650238Y-34384819D01*
X117650238Y-34384819D02*
X117412143Y-34384819D01*
X117412143Y-34384819D02*
X117316905Y-34337200D01*
X117316905Y-34337200D02*
X117269286Y-34289580D01*
X140448333Y-34384819D02*
X140115000Y-33908628D01*
X139876905Y-34384819D02*
X139876905Y-33384819D01*
X139876905Y-33384819D02*
X140257857Y-33384819D01*
X140257857Y-33384819D02*
X140353095Y-33432438D01*
X140353095Y-33432438D02*
X140400714Y-33480057D01*
X140400714Y-33480057D02*
X140448333Y-33575295D01*
X140448333Y-33575295D02*
X140448333Y-33718152D01*
X140448333Y-33718152D02*
X140400714Y-33813390D01*
X140400714Y-33813390D02*
X140353095Y-33861009D01*
X140353095Y-33861009D02*
X140257857Y-33908628D01*
X140257857Y-33908628D02*
X139876905Y-33908628D01*
X141305476Y-33384819D02*
X141115000Y-33384819D01*
X141115000Y-33384819D02*
X141019762Y-33432438D01*
X141019762Y-33432438D02*
X140972143Y-33480057D01*
X140972143Y-33480057D02*
X140876905Y-33622914D01*
X140876905Y-33622914D02*
X140829286Y-33813390D01*
X140829286Y-33813390D02*
X140829286Y-34194342D01*
X140829286Y-34194342D02*
X140876905Y-34289580D01*
X140876905Y-34289580D02*
X140924524Y-34337200D01*
X140924524Y-34337200D02*
X141019762Y-34384819D01*
X141019762Y-34384819D02*
X141210238Y-34384819D01*
X141210238Y-34384819D02*
X141305476Y-34337200D01*
X141305476Y-34337200D02*
X141353095Y-34289580D01*
X141353095Y-34289580D02*
X141400714Y-34194342D01*
X141400714Y-34194342D02*
X141400714Y-33956247D01*
X141400714Y-33956247D02*
X141353095Y-33861009D01*
X141353095Y-33861009D02*
X141305476Y-33813390D01*
X141305476Y-33813390D02*
X141210238Y-33765771D01*
X141210238Y-33765771D02*
X141019762Y-33765771D01*
X141019762Y-33765771D02*
X140924524Y-33813390D01*
X140924524Y-33813390D02*
X140876905Y-33861009D01*
X140876905Y-33861009D02*
X140829286Y-33956247D01*
D10*
X221444722Y-54081709D02*
X220174722Y-54081709D01*
X220174722Y-54081709D02*
X221444722Y-53355994D01*
X221444722Y-53355994D02*
X220174722Y-53355994D01*
X220174722Y-52206947D02*
X220174722Y-52448852D01*
X220174722Y-52448852D02*
X220235198Y-52569804D01*
X220235198Y-52569804D02*
X220295674Y-52630280D01*
X220295674Y-52630280D02*
X220477103Y-52751233D01*
X220477103Y-52751233D02*
X220719007Y-52811709D01*
X220719007Y-52811709D02*
X221202817Y-52811709D01*
X221202817Y-52811709D02*
X221323769Y-52751233D01*
X221323769Y-52751233D02*
X221384246Y-52690756D01*
X221384246Y-52690756D02*
X221444722Y-52569804D01*
X221444722Y-52569804D02*
X221444722Y-52327899D01*
X221444722Y-52327899D02*
X221384246Y-52206947D01*
X221384246Y-52206947D02*
X221323769Y-52146471D01*
X221323769Y-52146471D02*
X221202817Y-52085994D01*
X221202817Y-52085994D02*
X220900436Y-52085994D01*
X220900436Y-52085994D02*
X220779484Y-52146471D01*
X220779484Y-52146471D02*
X220719007Y-52206947D01*
X220719007Y-52206947D02*
X220658531Y-52327899D01*
X220658531Y-52327899D02*
X220658531Y-52569804D01*
X220658531Y-52569804D02*
X220719007Y-52690756D01*
X220719007Y-52690756D02*
X220779484Y-52751233D01*
X220779484Y-52751233D02*
X220900436Y-52811709D01*
X207763095Y-47028832D02*
X208488809Y-47028832D01*
X208125952Y-48298832D02*
X208125952Y-47028832D01*
X209093571Y-48298832D02*
X208972619Y-48238356D01*
X208972619Y-48238356D02*
X208912142Y-48177879D01*
X208912142Y-48177879D02*
X208851666Y-48056927D01*
X208851666Y-48056927D02*
X208851666Y-47694070D01*
X208851666Y-47694070D02*
X208912142Y-47573117D01*
X208912142Y-47573117D02*
X208972619Y-47512641D01*
X208972619Y-47512641D02*
X209093571Y-47452165D01*
X209093571Y-47452165D02*
X209275000Y-47452165D01*
X209275000Y-47452165D02*
X209395952Y-47512641D01*
X209395952Y-47512641D02*
X209456428Y-47573117D01*
X209456428Y-47573117D02*
X209516904Y-47694070D01*
X209516904Y-47694070D02*
X209516904Y-48056927D01*
X209516904Y-48056927D02*
X209456428Y-48177879D01*
X209456428Y-48177879D02*
X209395952Y-48238356D01*
X209395952Y-48238356D02*
X209275000Y-48298832D01*
X209275000Y-48298832D02*
X209093571Y-48298832D01*
X210061190Y-47452165D02*
X210061190Y-48722165D01*
X210061190Y-47512641D02*
X210182143Y-47452165D01*
X210182143Y-47452165D02*
X210424048Y-47452165D01*
X210424048Y-47452165D02*
X210545000Y-47512641D01*
X210545000Y-47512641D02*
X210605476Y-47573117D01*
X210605476Y-47573117D02*
X210665952Y-47694070D01*
X210665952Y-47694070D02*
X210665952Y-48056927D01*
X210665952Y-48056927D02*
X210605476Y-48177879D01*
X210605476Y-48177879D02*
X210545000Y-48238356D01*
X210545000Y-48238356D02*
X210424048Y-48298832D01*
X210424048Y-48298832D02*
X210182143Y-48298832D01*
X210182143Y-48298832D02*
X210061190Y-48238356D01*
X208428333Y-57793594D02*
X208609761Y-57854070D01*
X208609761Y-57854070D02*
X208670238Y-57914546D01*
X208670238Y-57914546D02*
X208730714Y-58035498D01*
X208730714Y-58035498D02*
X208730714Y-58216927D01*
X208730714Y-58216927D02*
X208670238Y-58337879D01*
X208670238Y-58337879D02*
X208609761Y-58398356D01*
X208609761Y-58398356D02*
X208488809Y-58458832D01*
X208488809Y-58458832D02*
X208004999Y-58458832D01*
X208004999Y-58458832D02*
X208004999Y-57188832D01*
X208004999Y-57188832D02*
X208428333Y-57188832D01*
X208428333Y-57188832D02*
X208549285Y-57249308D01*
X208549285Y-57249308D02*
X208609761Y-57309784D01*
X208609761Y-57309784D02*
X208670238Y-57430736D01*
X208670238Y-57430736D02*
X208670238Y-57551689D01*
X208670238Y-57551689D02*
X208609761Y-57672641D01*
X208609761Y-57672641D02*
X208549285Y-57733117D01*
X208549285Y-57733117D02*
X208428333Y-57793594D01*
X208428333Y-57793594D02*
X208004999Y-57793594D01*
X209456428Y-58458832D02*
X209335476Y-58398356D01*
X209335476Y-58398356D02*
X209274999Y-58337879D01*
X209274999Y-58337879D02*
X209214523Y-58216927D01*
X209214523Y-58216927D02*
X209214523Y-57854070D01*
X209214523Y-57854070D02*
X209274999Y-57733117D01*
X209274999Y-57733117D02*
X209335476Y-57672641D01*
X209335476Y-57672641D02*
X209456428Y-57612165D01*
X209456428Y-57612165D02*
X209637857Y-57612165D01*
X209637857Y-57612165D02*
X209758809Y-57672641D01*
X209758809Y-57672641D02*
X209819285Y-57733117D01*
X209819285Y-57733117D02*
X209879761Y-57854070D01*
X209879761Y-57854070D02*
X209879761Y-58216927D01*
X209879761Y-58216927D02*
X209819285Y-58337879D01*
X209819285Y-58337879D02*
X209758809Y-58398356D01*
X209758809Y-58398356D02*
X209637857Y-58458832D01*
X209637857Y-58458832D02*
X209456428Y-58458832D01*
X210242619Y-57612165D02*
X210726428Y-57612165D01*
X210424047Y-57188832D02*
X210424047Y-58277403D01*
X210424047Y-58277403D02*
X210484524Y-58398356D01*
X210484524Y-58398356D02*
X210605476Y-58458832D01*
X210605476Y-58458832D02*
X210726428Y-58458832D01*
D12*
X231107380Y-52100908D02*
X231107380Y-53129003D01*
X231107380Y-53129003D02*
X231167857Y-53249955D01*
X231167857Y-53249955D02*
X231228333Y-53310432D01*
X231228333Y-53310432D02*
X231349285Y-53370908D01*
X231349285Y-53370908D02*
X231591190Y-53370908D01*
X231591190Y-53370908D02*
X231712142Y-53310432D01*
X231712142Y-53310432D02*
X231772619Y-53249955D01*
X231772619Y-53249955D02*
X231833095Y-53129003D01*
X231833095Y-53129003D02*
X231833095Y-52100908D01*
X232316904Y-52100908D02*
X233103095Y-52100908D01*
X233103095Y-52100908D02*
X232679761Y-52584717D01*
X232679761Y-52584717D02*
X232861190Y-52584717D01*
X232861190Y-52584717D02*
X232982142Y-52645193D01*
X232982142Y-52645193D02*
X233042618Y-52705670D01*
X233042618Y-52705670D02*
X233103095Y-52826622D01*
X233103095Y-52826622D02*
X233103095Y-53129003D01*
X233103095Y-53129003D02*
X233042618Y-53249955D01*
X233042618Y-53249955D02*
X232982142Y-53310432D01*
X232982142Y-53310432D02*
X232861190Y-53370908D01*
X232861190Y-53370908D02*
X232498333Y-53370908D01*
X232498333Y-53370908D02*
X232377380Y-53310432D01*
X232377380Y-53310432D02*
X232316904Y-53249955D01*
D11*
X188982142Y-112034819D02*
X188648809Y-111558628D01*
X188410714Y-112034819D02*
X188410714Y-111034819D01*
X188410714Y-111034819D02*
X188791666Y-111034819D01*
X188791666Y-111034819D02*
X188886904Y-111082438D01*
X188886904Y-111082438D02*
X188934523Y-111130057D01*
X188934523Y-111130057D02*
X188982142Y-111225295D01*
X188982142Y-111225295D02*
X188982142Y-111368152D01*
X188982142Y-111368152D02*
X188934523Y-111463390D01*
X188934523Y-111463390D02*
X188886904Y-111511009D01*
X188886904Y-111511009D02*
X188791666Y-111558628D01*
X188791666Y-111558628D02*
X188410714Y-111558628D01*
X189934523Y-112034819D02*
X189363095Y-112034819D01*
X189648809Y-112034819D02*
X189648809Y-111034819D01*
X189648809Y-111034819D02*
X189553571Y-111177676D01*
X189553571Y-111177676D02*
X189458333Y-111272914D01*
X189458333Y-111272914D02*
X189363095Y-111320533D01*
X190267857Y-111034819D02*
X190934523Y-111034819D01*
X190934523Y-111034819D02*
X190505952Y-112034819D01*
X186208333Y-34384819D02*
X185875000Y-33908628D01*
X185636905Y-34384819D02*
X185636905Y-33384819D01*
X185636905Y-33384819D02*
X186017857Y-33384819D01*
X186017857Y-33384819D02*
X186113095Y-33432438D01*
X186113095Y-33432438D02*
X186160714Y-33480057D01*
X186160714Y-33480057D02*
X186208333Y-33575295D01*
X186208333Y-33575295D02*
X186208333Y-33718152D01*
X186208333Y-33718152D02*
X186160714Y-33813390D01*
X186160714Y-33813390D02*
X186113095Y-33861009D01*
X186113095Y-33861009D02*
X186017857Y-33908628D01*
X186017857Y-33908628D02*
X185636905Y-33908628D01*
X186779762Y-33813390D02*
X186684524Y-33765771D01*
X186684524Y-33765771D02*
X186636905Y-33718152D01*
X186636905Y-33718152D02*
X186589286Y-33622914D01*
X186589286Y-33622914D02*
X186589286Y-33575295D01*
X186589286Y-33575295D02*
X186636905Y-33480057D01*
X186636905Y-33480057D02*
X186684524Y-33432438D01*
X186684524Y-33432438D02*
X186779762Y-33384819D01*
X186779762Y-33384819D02*
X186970238Y-33384819D01*
X186970238Y-33384819D02*
X187065476Y-33432438D01*
X187065476Y-33432438D02*
X187113095Y-33480057D01*
X187113095Y-33480057D02*
X187160714Y-33575295D01*
X187160714Y-33575295D02*
X187160714Y-33622914D01*
X187160714Y-33622914D02*
X187113095Y-33718152D01*
X187113095Y-33718152D02*
X187065476Y-33765771D01*
X187065476Y-33765771D02*
X186970238Y-33813390D01*
X186970238Y-33813390D02*
X186779762Y-33813390D01*
X186779762Y-33813390D02*
X186684524Y-33861009D01*
X186684524Y-33861009D02*
X186636905Y-33908628D01*
X186636905Y-33908628D02*
X186589286Y-34003866D01*
X186589286Y-34003866D02*
X186589286Y-34194342D01*
X186589286Y-34194342D02*
X186636905Y-34289580D01*
X186636905Y-34289580D02*
X186684524Y-34337200D01*
X186684524Y-34337200D02*
X186779762Y-34384819D01*
X186779762Y-34384819D02*
X186970238Y-34384819D01*
X186970238Y-34384819D02*
X187065476Y-34337200D01*
X187065476Y-34337200D02*
X187113095Y-34289580D01*
X187113095Y-34289580D02*
X187160714Y-34194342D01*
X187160714Y-34194342D02*
X187160714Y-34003866D01*
X187160714Y-34003866D02*
X187113095Y-33908628D01*
X187113095Y-33908628D02*
X187065476Y-33861009D01*
X187065476Y-33861009D02*
X186970238Y-33813390D01*
X175682142Y-139204819D02*
X175348809Y-138728628D01*
X175110714Y-139204819D02*
X175110714Y-138204819D01*
X175110714Y-138204819D02*
X175491666Y-138204819D01*
X175491666Y-138204819D02*
X175586904Y-138252438D01*
X175586904Y-138252438D02*
X175634523Y-138300057D01*
X175634523Y-138300057D02*
X175682142Y-138395295D01*
X175682142Y-138395295D02*
X175682142Y-138538152D01*
X175682142Y-138538152D02*
X175634523Y-138633390D01*
X175634523Y-138633390D02*
X175586904Y-138681009D01*
X175586904Y-138681009D02*
X175491666Y-138728628D01*
X175491666Y-138728628D02*
X175110714Y-138728628D01*
X176634523Y-139204819D02*
X176063095Y-139204819D01*
X176348809Y-139204819D02*
X176348809Y-138204819D01*
X176348809Y-138204819D02*
X176253571Y-138347676D01*
X176253571Y-138347676D02*
X176158333Y-138442914D01*
X176158333Y-138442914D02*
X176063095Y-138490533D01*
X177110714Y-139204819D02*
X177301190Y-139204819D01*
X177301190Y-139204819D02*
X177396428Y-139157200D01*
X177396428Y-139157200D02*
X177444047Y-139109580D01*
X177444047Y-139109580D02*
X177539285Y-138966723D01*
X177539285Y-138966723D02*
X177586904Y-138776247D01*
X177586904Y-138776247D02*
X177586904Y-138395295D01*
X177586904Y-138395295D02*
X177539285Y-138300057D01*
X177539285Y-138300057D02*
X177491666Y-138252438D01*
X177491666Y-138252438D02*
X177396428Y-138204819D01*
X177396428Y-138204819D02*
X177205952Y-138204819D01*
X177205952Y-138204819D02*
X177110714Y-138252438D01*
X177110714Y-138252438D02*
X177063095Y-138300057D01*
X177063095Y-138300057D02*
X177015476Y-138395295D01*
X177015476Y-138395295D02*
X177015476Y-138633390D01*
X177015476Y-138633390D02*
X177063095Y-138728628D01*
X177063095Y-138728628D02*
X177110714Y-138776247D01*
X177110714Y-138776247D02*
X177205952Y-138823866D01*
X177205952Y-138823866D02*
X177396428Y-138823866D01*
X177396428Y-138823866D02*
X177491666Y-138776247D01*
X177491666Y-138776247D02*
X177539285Y-138728628D01*
X177539285Y-138728628D02*
X177586904Y-138633390D01*
D10*
X93363095Y-47028832D02*
X94088809Y-47028832D01*
X93725952Y-48298832D02*
X93725952Y-47028832D01*
X94693571Y-48298832D02*
X94572619Y-48238356D01*
X94572619Y-48238356D02*
X94512142Y-48177879D01*
X94512142Y-48177879D02*
X94451666Y-48056927D01*
X94451666Y-48056927D02*
X94451666Y-47694070D01*
X94451666Y-47694070D02*
X94512142Y-47573117D01*
X94512142Y-47573117D02*
X94572619Y-47512641D01*
X94572619Y-47512641D02*
X94693571Y-47452165D01*
X94693571Y-47452165D02*
X94875000Y-47452165D01*
X94875000Y-47452165D02*
X94995952Y-47512641D01*
X94995952Y-47512641D02*
X95056428Y-47573117D01*
X95056428Y-47573117D02*
X95116904Y-47694070D01*
X95116904Y-47694070D02*
X95116904Y-48056927D01*
X95116904Y-48056927D02*
X95056428Y-48177879D01*
X95056428Y-48177879D02*
X94995952Y-48238356D01*
X94995952Y-48238356D02*
X94875000Y-48298832D01*
X94875000Y-48298832D02*
X94693571Y-48298832D01*
X95661190Y-47452165D02*
X95661190Y-48722165D01*
X95661190Y-47512641D02*
X95782143Y-47452165D01*
X95782143Y-47452165D02*
X96024048Y-47452165D01*
X96024048Y-47452165D02*
X96145000Y-47512641D01*
X96145000Y-47512641D02*
X96205476Y-47573117D01*
X96205476Y-47573117D02*
X96265952Y-47694070D01*
X96265952Y-47694070D02*
X96265952Y-48056927D01*
X96265952Y-48056927D02*
X96205476Y-48177879D01*
X96205476Y-48177879D02*
X96145000Y-48238356D01*
X96145000Y-48238356D02*
X96024048Y-48298832D01*
X96024048Y-48298832D02*
X95782143Y-48298832D01*
X95782143Y-48298832D02*
X95661190Y-48238356D01*
X94028333Y-57793594D02*
X94209761Y-57854070D01*
X94209761Y-57854070D02*
X94270238Y-57914546D01*
X94270238Y-57914546D02*
X94330714Y-58035498D01*
X94330714Y-58035498D02*
X94330714Y-58216927D01*
X94330714Y-58216927D02*
X94270238Y-58337879D01*
X94270238Y-58337879D02*
X94209761Y-58398356D01*
X94209761Y-58398356D02*
X94088809Y-58458832D01*
X94088809Y-58458832D02*
X93604999Y-58458832D01*
X93604999Y-58458832D02*
X93604999Y-57188832D01*
X93604999Y-57188832D02*
X94028333Y-57188832D01*
X94028333Y-57188832D02*
X94149285Y-57249308D01*
X94149285Y-57249308D02*
X94209761Y-57309784D01*
X94209761Y-57309784D02*
X94270238Y-57430736D01*
X94270238Y-57430736D02*
X94270238Y-57551689D01*
X94270238Y-57551689D02*
X94209761Y-57672641D01*
X94209761Y-57672641D02*
X94149285Y-57733117D01*
X94149285Y-57733117D02*
X94028333Y-57793594D01*
X94028333Y-57793594D02*
X93604999Y-57793594D01*
X95056428Y-58458832D02*
X94935476Y-58398356D01*
X94935476Y-58398356D02*
X94874999Y-58337879D01*
X94874999Y-58337879D02*
X94814523Y-58216927D01*
X94814523Y-58216927D02*
X94814523Y-57854070D01*
X94814523Y-57854070D02*
X94874999Y-57733117D01*
X94874999Y-57733117D02*
X94935476Y-57672641D01*
X94935476Y-57672641D02*
X95056428Y-57612165D01*
X95056428Y-57612165D02*
X95237857Y-57612165D01*
X95237857Y-57612165D02*
X95358809Y-57672641D01*
X95358809Y-57672641D02*
X95419285Y-57733117D01*
X95419285Y-57733117D02*
X95479761Y-57854070D01*
X95479761Y-57854070D02*
X95479761Y-58216927D01*
X95479761Y-58216927D02*
X95419285Y-58337879D01*
X95419285Y-58337879D02*
X95358809Y-58398356D01*
X95358809Y-58398356D02*
X95237857Y-58458832D01*
X95237857Y-58458832D02*
X95056428Y-58458832D01*
X95842619Y-57612165D02*
X96326428Y-57612165D01*
X96024047Y-57188832D02*
X96024047Y-58277403D01*
X96024047Y-58277403D02*
X96084524Y-58398356D01*
X96084524Y-58398356D02*
X96205476Y-58458832D01*
X96205476Y-58458832D02*
X96326428Y-58458832D01*
D13*
X62341667Y-56012404D02*
X62303571Y-56050500D01*
X62303571Y-56050500D02*
X62189286Y-56088595D01*
X62189286Y-56088595D02*
X62113095Y-56088595D01*
X62113095Y-56088595D02*
X61998809Y-56050500D01*
X61998809Y-56050500D02*
X61922619Y-55974309D01*
X61922619Y-55974309D02*
X61884524Y-55898119D01*
X61884524Y-55898119D02*
X61846428Y-55745738D01*
X61846428Y-55745738D02*
X61846428Y-55631452D01*
X61846428Y-55631452D02*
X61884524Y-55479071D01*
X61884524Y-55479071D02*
X61922619Y-55402880D01*
X61922619Y-55402880D02*
X61998809Y-55326690D01*
X61998809Y-55326690D02*
X62113095Y-55288595D01*
X62113095Y-55288595D02*
X62189286Y-55288595D01*
X62189286Y-55288595D02*
X62303571Y-55326690D01*
X62303571Y-55326690D02*
X62341667Y-55364785D01*
X63027381Y-55288595D02*
X62875000Y-55288595D01*
X62875000Y-55288595D02*
X62798809Y-55326690D01*
X62798809Y-55326690D02*
X62760714Y-55364785D01*
X62760714Y-55364785D02*
X62684524Y-55479071D01*
X62684524Y-55479071D02*
X62646428Y-55631452D01*
X62646428Y-55631452D02*
X62646428Y-55936214D01*
X62646428Y-55936214D02*
X62684524Y-56012404D01*
X62684524Y-56012404D02*
X62722619Y-56050500D01*
X62722619Y-56050500D02*
X62798809Y-56088595D01*
X62798809Y-56088595D02*
X62951190Y-56088595D01*
X62951190Y-56088595D02*
X63027381Y-56050500D01*
X63027381Y-56050500D02*
X63065476Y-56012404D01*
X63065476Y-56012404D02*
X63103571Y-55936214D01*
X63103571Y-55936214D02*
X63103571Y-55745738D01*
X63103571Y-55745738D02*
X63065476Y-55669547D01*
X63065476Y-55669547D02*
X63027381Y-55631452D01*
X63027381Y-55631452D02*
X62951190Y-55593357D01*
X62951190Y-55593357D02*
X62798809Y-55593357D01*
X62798809Y-55593357D02*
X62722619Y-55631452D01*
X62722619Y-55631452D02*
X62684524Y-55669547D01*
X62684524Y-55669547D02*
X62646428Y-55745738D01*
D11*
X242766667Y-52736104D02*
X242728571Y-52774200D01*
X242728571Y-52774200D02*
X242614286Y-52812295D01*
X242614286Y-52812295D02*
X242538095Y-52812295D01*
X242538095Y-52812295D02*
X242423809Y-52774200D01*
X242423809Y-52774200D02*
X242347619Y-52698009D01*
X242347619Y-52698009D02*
X242309524Y-52621819D01*
X242309524Y-52621819D02*
X242271428Y-52469438D01*
X242271428Y-52469438D02*
X242271428Y-52355152D01*
X242271428Y-52355152D02*
X242309524Y-52202771D01*
X242309524Y-52202771D02*
X242347619Y-52126580D01*
X242347619Y-52126580D02*
X242423809Y-52050390D01*
X242423809Y-52050390D02*
X242538095Y-52012295D01*
X242538095Y-52012295D02*
X242614286Y-52012295D01*
X242614286Y-52012295D02*
X242728571Y-52050390D01*
X242728571Y-52050390D02*
X242766667Y-52088485D01*
X243147619Y-52812295D02*
X243300000Y-52812295D01*
X243300000Y-52812295D02*
X243376190Y-52774200D01*
X243376190Y-52774200D02*
X243414286Y-52736104D01*
X243414286Y-52736104D02*
X243490476Y-52621819D01*
X243490476Y-52621819D02*
X243528571Y-52469438D01*
X243528571Y-52469438D02*
X243528571Y-52164676D01*
X243528571Y-52164676D02*
X243490476Y-52088485D01*
X243490476Y-52088485D02*
X243452381Y-52050390D01*
X243452381Y-52050390D02*
X243376190Y-52012295D01*
X243376190Y-52012295D02*
X243223809Y-52012295D01*
X243223809Y-52012295D02*
X243147619Y-52050390D01*
X243147619Y-52050390D02*
X243109524Y-52088485D01*
X243109524Y-52088485D02*
X243071428Y-52164676D01*
X243071428Y-52164676D02*
X243071428Y-52355152D01*
X243071428Y-52355152D02*
X243109524Y-52431342D01*
X243109524Y-52431342D02*
X243147619Y-52469438D01*
X243147619Y-52469438D02*
X243223809Y-52507533D01*
X243223809Y-52507533D02*
X243376190Y-52507533D01*
X243376190Y-52507533D02*
X243452381Y-52469438D01*
X243452381Y-52469438D02*
X243490476Y-52431342D01*
X243490476Y-52431342D02*
X243528571Y-52355152D01*
X226292142Y-39599819D02*
X225958809Y-39123628D01*
X225720714Y-39599819D02*
X225720714Y-38599819D01*
X225720714Y-38599819D02*
X226101666Y-38599819D01*
X226101666Y-38599819D02*
X226196904Y-38647438D01*
X226196904Y-38647438D02*
X226244523Y-38695057D01*
X226244523Y-38695057D02*
X226292142Y-38790295D01*
X226292142Y-38790295D02*
X226292142Y-38933152D01*
X226292142Y-38933152D02*
X226244523Y-39028390D01*
X226244523Y-39028390D02*
X226196904Y-39076009D01*
X226196904Y-39076009D02*
X226101666Y-39123628D01*
X226101666Y-39123628D02*
X225720714Y-39123628D01*
X226673095Y-38695057D02*
X226720714Y-38647438D01*
X226720714Y-38647438D02*
X226815952Y-38599819D01*
X226815952Y-38599819D02*
X227054047Y-38599819D01*
X227054047Y-38599819D02*
X227149285Y-38647438D01*
X227149285Y-38647438D02*
X227196904Y-38695057D01*
X227196904Y-38695057D02*
X227244523Y-38790295D01*
X227244523Y-38790295D02*
X227244523Y-38885533D01*
X227244523Y-38885533D02*
X227196904Y-39028390D01*
X227196904Y-39028390D02*
X226625476Y-39599819D01*
X226625476Y-39599819D02*
X227244523Y-39599819D01*
X228101666Y-38599819D02*
X227911190Y-38599819D01*
X227911190Y-38599819D02*
X227815952Y-38647438D01*
X227815952Y-38647438D02*
X227768333Y-38695057D01*
X227768333Y-38695057D02*
X227673095Y-38837914D01*
X227673095Y-38837914D02*
X227625476Y-39028390D01*
X227625476Y-39028390D02*
X227625476Y-39409342D01*
X227625476Y-39409342D02*
X227673095Y-39504580D01*
X227673095Y-39504580D02*
X227720714Y-39552200D01*
X227720714Y-39552200D02*
X227815952Y-39599819D01*
X227815952Y-39599819D02*
X228006428Y-39599819D01*
X228006428Y-39599819D02*
X228101666Y-39552200D01*
X228101666Y-39552200D02*
X228149285Y-39504580D01*
X228149285Y-39504580D02*
X228196904Y-39409342D01*
X228196904Y-39409342D02*
X228196904Y-39171247D01*
X228196904Y-39171247D02*
X228149285Y-39076009D01*
X228149285Y-39076009D02*
X228101666Y-39028390D01*
X228101666Y-39028390D02*
X228006428Y-38980771D01*
X228006428Y-38980771D02*
X227815952Y-38980771D01*
X227815952Y-38980771D02*
X227720714Y-39028390D01*
X227720714Y-39028390D02*
X227673095Y-39076009D01*
X227673095Y-39076009D02*
X227625476Y-39171247D01*
X101248333Y-115534819D02*
X100915000Y-115058628D01*
X100676905Y-115534819D02*
X100676905Y-114534819D01*
X100676905Y-114534819D02*
X101057857Y-114534819D01*
X101057857Y-114534819D02*
X101153095Y-114582438D01*
X101153095Y-114582438D02*
X101200714Y-114630057D01*
X101200714Y-114630057D02*
X101248333Y-114725295D01*
X101248333Y-114725295D02*
X101248333Y-114868152D01*
X101248333Y-114868152D02*
X101200714Y-114963390D01*
X101200714Y-114963390D02*
X101153095Y-115011009D01*
X101153095Y-115011009D02*
X101057857Y-115058628D01*
X101057857Y-115058628D02*
X100676905Y-115058628D01*
X102200714Y-115534819D02*
X101629286Y-115534819D01*
X101915000Y-115534819D02*
X101915000Y-114534819D01*
X101915000Y-114534819D02*
X101819762Y-114677676D01*
X101819762Y-114677676D02*
X101724524Y-114772914D01*
X101724524Y-114772914D02*
X101629286Y-114820533D01*
X139896905Y-56751409D02*
X139896905Y-55751409D01*
X139896905Y-55751409D02*
X140135000Y-55751409D01*
X140135000Y-55751409D02*
X140277857Y-55799028D01*
X140277857Y-55799028D02*
X140373095Y-55894266D01*
X140373095Y-55894266D02*
X140420714Y-55989504D01*
X140420714Y-55989504D02*
X140468333Y-56179980D01*
X140468333Y-56179980D02*
X140468333Y-56322837D01*
X140468333Y-56322837D02*
X140420714Y-56513313D01*
X140420714Y-56513313D02*
X140373095Y-56608551D01*
X140373095Y-56608551D02*
X140277857Y-56703790D01*
X140277857Y-56703790D02*
X140135000Y-56751409D01*
X140135000Y-56751409D02*
X139896905Y-56751409D01*
X140801667Y-55751409D02*
X141420714Y-55751409D01*
X141420714Y-55751409D02*
X141087381Y-56132361D01*
X141087381Y-56132361D02*
X141230238Y-56132361D01*
X141230238Y-56132361D02*
X141325476Y-56179980D01*
X141325476Y-56179980D02*
X141373095Y-56227599D01*
X141373095Y-56227599D02*
X141420714Y-56322837D01*
X141420714Y-56322837D02*
X141420714Y-56560932D01*
X141420714Y-56560932D02*
X141373095Y-56656170D01*
X141373095Y-56656170D02*
X141325476Y-56703790D01*
X141325476Y-56703790D02*
X141230238Y-56751409D01*
X141230238Y-56751409D02*
X140944524Y-56751409D01*
X140944524Y-56751409D02*
X140849286Y-56703790D01*
X140849286Y-56703790D02*
X140801667Y-56656170D01*
X245316667Y-52766104D02*
X245278571Y-52804200D01*
X245278571Y-52804200D02*
X245164286Y-52842295D01*
X245164286Y-52842295D02*
X245088095Y-52842295D01*
X245088095Y-52842295D02*
X244973809Y-52804200D01*
X244973809Y-52804200D02*
X244897619Y-52728009D01*
X244897619Y-52728009D02*
X244859524Y-52651819D01*
X244859524Y-52651819D02*
X244821428Y-52499438D01*
X244821428Y-52499438D02*
X244821428Y-52385152D01*
X244821428Y-52385152D02*
X244859524Y-52232771D01*
X244859524Y-52232771D02*
X244897619Y-52156580D01*
X244897619Y-52156580D02*
X244973809Y-52080390D01*
X244973809Y-52080390D02*
X245088095Y-52042295D01*
X245088095Y-52042295D02*
X245164286Y-52042295D01*
X245164286Y-52042295D02*
X245278571Y-52080390D01*
X245278571Y-52080390D02*
X245316667Y-52118485D01*
X245583333Y-52042295D02*
X246116667Y-52042295D01*
X246116667Y-52042295D02*
X245773809Y-52842295D01*
D12*
X71107380Y-52100908D02*
X71107380Y-53129003D01*
X71107380Y-53129003D02*
X71167857Y-53249955D01*
X71167857Y-53249955D02*
X71228333Y-53310432D01*
X71228333Y-53310432D02*
X71349285Y-53370908D01*
X71349285Y-53370908D02*
X71591190Y-53370908D01*
X71591190Y-53370908D02*
X71712142Y-53310432D01*
X71712142Y-53310432D02*
X71772619Y-53249955D01*
X71772619Y-53249955D02*
X71833095Y-53129003D01*
X71833095Y-53129003D02*
X71833095Y-52100908D01*
X72377380Y-52221860D02*
X72437856Y-52161384D01*
X72437856Y-52161384D02*
X72558809Y-52100908D01*
X72558809Y-52100908D02*
X72861190Y-52100908D01*
X72861190Y-52100908D02*
X72982142Y-52161384D01*
X72982142Y-52161384D02*
X73042618Y-52221860D01*
X73042618Y-52221860D02*
X73103095Y-52342812D01*
X73103095Y-52342812D02*
X73103095Y-52463765D01*
X73103095Y-52463765D02*
X73042618Y-52645193D01*
X73042618Y-52645193D02*
X72316904Y-53370908D01*
X72316904Y-53370908D02*
X73103095Y-53370908D01*
D10*
X129924722Y-54081709D02*
X128654722Y-54081709D01*
X128654722Y-54081709D02*
X129924722Y-53355994D01*
X129924722Y-53355994D02*
X128654722Y-53355994D01*
X128775674Y-52811709D02*
X128715198Y-52751233D01*
X128715198Y-52751233D02*
X128654722Y-52630280D01*
X128654722Y-52630280D02*
X128654722Y-52327899D01*
X128654722Y-52327899D02*
X128715198Y-52206947D01*
X128715198Y-52206947D02*
X128775674Y-52146471D01*
X128775674Y-52146471D02*
X128896626Y-52085994D01*
X128896626Y-52085994D02*
X129017579Y-52085994D01*
X129017579Y-52085994D02*
X129199007Y-52146471D01*
X129199007Y-52146471D02*
X129924722Y-52872185D01*
X129924722Y-52872185D02*
X129924722Y-52085994D01*
X116243095Y-47028832D02*
X116968809Y-47028832D01*
X116605952Y-48298832D02*
X116605952Y-47028832D01*
X117573571Y-48298832D02*
X117452619Y-48238356D01*
X117452619Y-48238356D02*
X117392142Y-48177879D01*
X117392142Y-48177879D02*
X117331666Y-48056927D01*
X117331666Y-48056927D02*
X117331666Y-47694070D01*
X117331666Y-47694070D02*
X117392142Y-47573117D01*
X117392142Y-47573117D02*
X117452619Y-47512641D01*
X117452619Y-47512641D02*
X117573571Y-47452165D01*
X117573571Y-47452165D02*
X117755000Y-47452165D01*
X117755000Y-47452165D02*
X117875952Y-47512641D01*
X117875952Y-47512641D02*
X117936428Y-47573117D01*
X117936428Y-47573117D02*
X117996904Y-47694070D01*
X117996904Y-47694070D02*
X117996904Y-48056927D01*
X117996904Y-48056927D02*
X117936428Y-48177879D01*
X117936428Y-48177879D02*
X117875952Y-48238356D01*
X117875952Y-48238356D02*
X117755000Y-48298832D01*
X117755000Y-48298832D02*
X117573571Y-48298832D01*
X118541190Y-47452165D02*
X118541190Y-48722165D01*
X118541190Y-47512641D02*
X118662143Y-47452165D01*
X118662143Y-47452165D02*
X118904048Y-47452165D01*
X118904048Y-47452165D02*
X119025000Y-47512641D01*
X119025000Y-47512641D02*
X119085476Y-47573117D01*
X119085476Y-47573117D02*
X119145952Y-47694070D01*
X119145952Y-47694070D02*
X119145952Y-48056927D01*
X119145952Y-48056927D02*
X119085476Y-48177879D01*
X119085476Y-48177879D02*
X119025000Y-48238356D01*
X119025000Y-48238356D02*
X118904048Y-48298832D01*
X118904048Y-48298832D02*
X118662143Y-48298832D01*
X118662143Y-48298832D02*
X118541190Y-48238356D01*
X116908333Y-57793594D02*
X117089761Y-57854070D01*
X117089761Y-57854070D02*
X117150238Y-57914546D01*
X117150238Y-57914546D02*
X117210714Y-58035498D01*
X117210714Y-58035498D02*
X117210714Y-58216927D01*
X117210714Y-58216927D02*
X117150238Y-58337879D01*
X117150238Y-58337879D02*
X117089761Y-58398356D01*
X117089761Y-58398356D02*
X116968809Y-58458832D01*
X116968809Y-58458832D02*
X116484999Y-58458832D01*
X116484999Y-58458832D02*
X116484999Y-57188832D01*
X116484999Y-57188832D02*
X116908333Y-57188832D01*
X116908333Y-57188832D02*
X117029285Y-57249308D01*
X117029285Y-57249308D02*
X117089761Y-57309784D01*
X117089761Y-57309784D02*
X117150238Y-57430736D01*
X117150238Y-57430736D02*
X117150238Y-57551689D01*
X117150238Y-57551689D02*
X117089761Y-57672641D01*
X117089761Y-57672641D02*
X117029285Y-57733117D01*
X117029285Y-57733117D02*
X116908333Y-57793594D01*
X116908333Y-57793594D02*
X116484999Y-57793594D01*
X117936428Y-58458832D02*
X117815476Y-58398356D01*
X117815476Y-58398356D02*
X117754999Y-58337879D01*
X117754999Y-58337879D02*
X117694523Y-58216927D01*
X117694523Y-58216927D02*
X117694523Y-57854070D01*
X117694523Y-57854070D02*
X117754999Y-57733117D01*
X117754999Y-57733117D02*
X117815476Y-57672641D01*
X117815476Y-57672641D02*
X117936428Y-57612165D01*
X117936428Y-57612165D02*
X118117857Y-57612165D01*
X118117857Y-57612165D02*
X118238809Y-57672641D01*
X118238809Y-57672641D02*
X118299285Y-57733117D01*
X118299285Y-57733117D02*
X118359761Y-57854070D01*
X118359761Y-57854070D02*
X118359761Y-58216927D01*
X118359761Y-58216927D02*
X118299285Y-58337879D01*
X118299285Y-58337879D02*
X118238809Y-58398356D01*
X118238809Y-58398356D02*
X118117857Y-58458832D01*
X118117857Y-58458832D02*
X117936428Y-58458832D01*
X118722619Y-57612165D02*
X119206428Y-57612165D01*
X118904047Y-57188832D02*
X118904047Y-58277403D01*
X118904047Y-58277403D02*
X118964524Y-58398356D01*
X118964524Y-58398356D02*
X119085476Y-58458832D01*
X119085476Y-58458832D02*
X119206428Y-58458832D01*
D11*
X234992142Y-116634819D02*
X234658809Y-116158628D01*
X234420714Y-116634819D02*
X234420714Y-115634819D01*
X234420714Y-115634819D02*
X234801666Y-115634819D01*
X234801666Y-115634819D02*
X234896904Y-115682438D01*
X234896904Y-115682438D02*
X234944523Y-115730057D01*
X234944523Y-115730057D02*
X234992142Y-115825295D01*
X234992142Y-115825295D02*
X234992142Y-115968152D01*
X234992142Y-115968152D02*
X234944523Y-116063390D01*
X234944523Y-116063390D02*
X234896904Y-116111009D01*
X234896904Y-116111009D02*
X234801666Y-116158628D01*
X234801666Y-116158628D02*
X234420714Y-116158628D01*
X235373095Y-115730057D02*
X235420714Y-115682438D01*
X235420714Y-115682438D02*
X235515952Y-115634819D01*
X235515952Y-115634819D02*
X235754047Y-115634819D01*
X235754047Y-115634819D02*
X235849285Y-115682438D01*
X235849285Y-115682438D02*
X235896904Y-115730057D01*
X235896904Y-115730057D02*
X235944523Y-115825295D01*
X235944523Y-115825295D02*
X235944523Y-115920533D01*
X235944523Y-115920533D02*
X235896904Y-116063390D01*
X235896904Y-116063390D02*
X235325476Y-116634819D01*
X235325476Y-116634819D02*
X235944523Y-116634819D01*
X236801666Y-115968152D02*
X236801666Y-116634819D01*
X236563571Y-115587200D02*
X236325476Y-116301485D01*
X236325476Y-116301485D02*
X236944523Y-116301485D01*
X94688333Y-34384819D02*
X94355000Y-33908628D01*
X94116905Y-34384819D02*
X94116905Y-33384819D01*
X94116905Y-33384819D02*
X94497857Y-33384819D01*
X94497857Y-33384819D02*
X94593095Y-33432438D01*
X94593095Y-33432438D02*
X94640714Y-33480057D01*
X94640714Y-33480057D02*
X94688333Y-33575295D01*
X94688333Y-33575295D02*
X94688333Y-33718152D01*
X94688333Y-33718152D02*
X94640714Y-33813390D01*
X94640714Y-33813390D02*
X94593095Y-33861009D01*
X94593095Y-33861009D02*
X94497857Y-33908628D01*
X94497857Y-33908628D02*
X94116905Y-33908628D01*
X95545476Y-33718152D02*
X95545476Y-34384819D01*
X95307381Y-33337200D02*
X95069286Y-34051485D01*
X95069286Y-34051485D02*
X95688333Y-34051485D01*
X129492142Y-139534819D02*
X129158809Y-139058628D01*
X128920714Y-139534819D02*
X128920714Y-138534819D01*
X128920714Y-138534819D02*
X129301666Y-138534819D01*
X129301666Y-138534819D02*
X129396904Y-138582438D01*
X129396904Y-138582438D02*
X129444523Y-138630057D01*
X129444523Y-138630057D02*
X129492142Y-138725295D01*
X129492142Y-138725295D02*
X129492142Y-138868152D01*
X129492142Y-138868152D02*
X129444523Y-138963390D01*
X129444523Y-138963390D02*
X129396904Y-139011009D01*
X129396904Y-139011009D02*
X129301666Y-139058628D01*
X129301666Y-139058628D02*
X128920714Y-139058628D01*
X130444523Y-139534819D02*
X129873095Y-139534819D01*
X130158809Y-139534819D02*
X130158809Y-138534819D01*
X130158809Y-138534819D02*
X130063571Y-138677676D01*
X130063571Y-138677676D02*
X129968333Y-138772914D01*
X129968333Y-138772914D02*
X129873095Y-138820533D01*
X130777857Y-138534819D02*
X131396904Y-138534819D01*
X131396904Y-138534819D02*
X131063571Y-138915771D01*
X131063571Y-138915771D02*
X131206428Y-138915771D01*
X131206428Y-138915771D02*
X131301666Y-138963390D01*
X131301666Y-138963390D02*
X131349285Y-139011009D01*
X131349285Y-139011009D02*
X131396904Y-139106247D01*
X131396904Y-139106247D02*
X131396904Y-139344342D01*
X131396904Y-139344342D02*
X131349285Y-139439580D01*
X131349285Y-139439580D02*
X131301666Y-139487200D01*
X131301666Y-139487200D02*
X131206428Y-139534819D01*
X131206428Y-139534819D02*
X130920714Y-139534819D01*
X130920714Y-139534819D02*
X130825476Y-139487200D01*
X130825476Y-139487200D02*
X130777857Y-139439580D01*
X153682142Y-138934819D02*
X153348809Y-138458628D01*
X153110714Y-138934819D02*
X153110714Y-137934819D01*
X153110714Y-137934819D02*
X153491666Y-137934819D01*
X153491666Y-137934819D02*
X153586904Y-137982438D01*
X153586904Y-137982438D02*
X153634523Y-138030057D01*
X153634523Y-138030057D02*
X153682142Y-138125295D01*
X153682142Y-138125295D02*
X153682142Y-138268152D01*
X153682142Y-138268152D02*
X153634523Y-138363390D01*
X153634523Y-138363390D02*
X153586904Y-138411009D01*
X153586904Y-138411009D02*
X153491666Y-138458628D01*
X153491666Y-138458628D02*
X153110714Y-138458628D01*
X154634523Y-138934819D02*
X154063095Y-138934819D01*
X154348809Y-138934819D02*
X154348809Y-137934819D01*
X154348809Y-137934819D02*
X154253571Y-138077676D01*
X154253571Y-138077676D02*
X154158333Y-138172914D01*
X154158333Y-138172914D02*
X154063095Y-138220533D01*
X155491666Y-137934819D02*
X155301190Y-137934819D01*
X155301190Y-137934819D02*
X155205952Y-137982438D01*
X155205952Y-137982438D02*
X155158333Y-138030057D01*
X155158333Y-138030057D02*
X155063095Y-138172914D01*
X155063095Y-138172914D02*
X155015476Y-138363390D01*
X155015476Y-138363390D02*
X155015476Y-138744342D01*
X155015476Y-138744342D02*
X155063095Y-138839580D01*
X155063095Y-138839580D02*
X155110714Y-138887200D01*
X155110714Y-138887200D02*
X155205952Y-138934819D01*
X155205952Y-138934819D02*
X155396428Y-138934819D01*
X155396428Y-138934819D02*
X155491666Y-138887200D01*
X155491666Y-138887200D02*
X155539285Y-138839580D01*
X155539285Y-138839580D02*
X155586904Y-138744342D01*
X155586904Y-138744342D02*
X155586904Y-138506247D01*
X155586904Y-138506247D02*
X155539285Y-138411009D01*
X155539285Y-138411009D02*
X155491666Y-138363390D01*
X155491666Y-138363390D02*
X155396428Y-138315771D01*
X155396428Y-138315771D02*
X155205952Y-138315771D01*
X155205952Y-138315771D02*
X155110714Y-138363390D01*
X155110714Y-138363390D02*
X155063095Y-138411009D01*
X155063095Y-138411009D02*
X155015476Y-138506247D01*
D10*
X198564722Y-54081709D02*
X197294722Y-54081709D01*
X197294722Y-54081709D02*
X198564722Y-53355994D01*
X198564722Y-53355994D02*
X197294722Y-53355994D01*
X197294722Y-52146471D02*
X197294722Y-52751233D01*
X197294722Y-52751233D02*
X197899484Y-52811709D01*
X197899484Y-52811709D02*
X197839007Y-52751233D01*
X197839007Y-52751233D02*
X197778531Y-52630280D01*
X197778531Y-52630280D02*
X197778531Y-52327899D01*
X197778531Y-52327899D02*
X197839007Y-52206947D01*
X197839007Y-52206947D02*
X197899484Y-52146471D01*
X197899484Y-52146471D02*
X198020436Y-52085994D01*
X198020436Y-52085994D02*
X198322817Y-52085994D01*
X198322817Y-52085994D02*
X198443769Y-52146471D01*
X198443769Y-52146471D02*
X198504246Y-52206947D01*
X198504246Y-52206947D02*
X198564722Y-52327899D01*
X198564722Y-52327899D02*
X198564722Y-52630280D01*
X198564722Y-52630280D02*
X198504246Y-52751233D01*
X198504246Y-52751233D02*
X198443769Y-52811709D01*
X184883095Y-47028832D02*
X185608809Y-47028832D01*
X185245952Y-48298832D02*
X185245952Y-47028832D01*
X186213571Y-48298832D02*
X186092619Y-48238356D01*
X186092619Y-48238356D02*
X186032142Y-48177879D01*
X186032142Y-48177879D02*
X185971666Y-48056927D01*
X185971666Y-48056927D02*
X185971666Y-47694070D01*
X185971666Y-47694070D02*
X186032142Y-47573117D01*
X186032142Y-47573117D02*
X186092619Y-47512641D01*
X186092619Y-47512641D02*
X186213571Y-47452165D01*
X186213571Y-47452165D02*
X186395000Y-47452165D01*
X186395000Y-47452165D02*
X186515952Y-47512641D01*
X186515952Y-47512641D02*
X186576428Y-47573117D01*
X186576428Y-47573117D02*
X186636904Y-47694070D01*
X186636904Y-47694070D02*
X186636904Y-48056927D01*
X186636904Y-48056927D02*
X186576428Y-48177879D01*
X186576428Y-48177879D02*
X186515952Y-48238356D01*
X186515952Y-48238356D02*
X186395000Y-48298832D01*
X186395000Y-48298832D02*
X186213571Y-48298832D01*
X187181190Y-47452165D02*
X187181190Y-48722165D01*
X187181190Y-47512641D02*
X187302143Y-47452165D01*
X187302143Y-47452165D02*
X187544048Y-47452165D01*
X187544048Y-47452165D02*
X187665000Y-47512641D01*
X187665000Y-47512641D02*
X187725476Y-47573117D01*
X187725476Y-47573117D02*
X187785952Y-47694070D01*
X187785952Y-47694070D02*
X187785952Y-48056927D01*
X187785952Y-48056927D02*
X187725476Y-48177879D01*
X187725476Y-48177879D02*
X187665000Y-48238356D01*
X187665000Y-48238356D02*
X187544048Y-48298832D01*
X187544048Y-48298832D02*
X187302143Y-48298832D01*
X187302143Y-48298832D02*
X187181190Y-48238356D01*
X185548333Y-57793594D02*
X185729761Y-57854070D01*
X185729761Y-57854070D02*
X185790238Y-57914546D01*
X185790238Y-57914546D02*
X185850714Y-58035498D01*
X185850714Y-58035498D02*
X185850714Y-58216927D01*
X185850714Y-58216927D02*
X185790238Y-58337879D01*
X185790238Y-58337879D02*
X185729761Y-58398356D01*
X185729761Y-58398356D02*
X185608809Y-58458832D01*
X185608809Y-58458832D02*
X185124999Y-58458832D01*
X185124999Y-58458832D02*
X185124999Y-57188832D01*
X185124999Y-57188832D02*
X185548333Y-57188832D01*
X185548333Y-57188832D02*
X185669285Y-57249308D01*
X185669285Y-57249308D02*
X185729761Y-57309784D01*
X185729761Y-57309784D02*
X185790238Y-57430736D01*
X185790238Y-57430736D02*
X185790238Y-57551689D01*
X185790238Y-57551689D02*
X185729761Y-57672641D01*
X185729761Y-57672641D02*
X185669285Y-57733117D01*
X185669285Y-57733117D02*
X185548333Y-57793594D01*
X185548333Y-57793594D02*
X185124999Y-57793594D01*
X186576428Y-58458832D02*
X186455476Y-58398356D01*
X186455476Y-58398356D02*
X186394999Y-58337879D01*
X186394999Y-58337879D02*
X186334523Y-58216927D01*
X186334523Y-58216927D02*
X186334523Y-57854070D01*
X186334523Y-57854070D02*
X186394999Y-57733117D01*
X186394999Y-57733117D02*
X186455476Y-57672641D01*
X186455476Y-57672641D02*
X186576428Y-57612165D01*
X186576428Y-57612165D02*
X186757857Y-57612165D01*
X186757857Y-57612165D02*
X186878809Y-57672641D01*
X186878809Y-57672641D02*
X186939285Y-57733117D01*
X186939285Y-57733117D02*
X186999761Y-57854070D01*
X186999761Y-57854070D02*
X186999761Y-58216927D01*
X186999761Y-58216927D02*
X186939285Y-58337879D01*
X186939285Y-58337879D02*
X186878809Y-58398356D01*
X186878809Y-58398356D02*
X186757857Y-58458832D01*
X186757857Y-58458832D02*
X186576428Y-58458832D01*
X187362619Y-57612165D02*
X187846428Y-57612165D01*
X187544047Y-57188832D02*
X187544047Y-58277403D01*
X187544047Y-58277403D02*
X187604524Y-58398356D01*
X187604524Y-58398356D02*
X187725476Y-58458832D01*
X187725476Y-58458832D02*
X187846428Y-58458832D01*
D11*
X208536905Y-56751409D02*
X208536905Y-55751409D01*
X208536905Y-55751409D02*
X208775000Y-55751409D01*
X208775000Y-55751409D02*
X208917857Y-55799028D01*
X208917857Y-55799028D02*
X209013095Y-55894266D01*
X209013095Y-55894266D02*
X209060714Y-55989504D01*
X209060714Y-55989504D02*
X209108333Y-56179980D01*
X209108333Y-56179980D02*
X209108333Y-56322837D01*
X209108333Y-56322837D02*
X209060714Y-56513313D01*
X209060714Y-56513313D02*
X209013095Y-56608551D01*
X209013095Y-56608551D02*
X208917857Y-56703790D01*
X208917857Y-56703790D02*
X208775000Y-56751409D01*
X208775000Y-56751409D02*
X208536905Y-56751409D01*
X209441667Y-55751409D02*
X210108333Y-55751409D01*
X210108333Y-55751409D02*
X209679762Y-56751409D01*
X165982142Y-115934819D02*
X165648809Y-115458628D01*
X165410714Y-115934819D02*
X165410714Y-114934819D01*
X165410714Y-114934819D02*
X165791666Y-114934819D01*
X165791666Y-114934819D02*
X165886904Y-114982438D01*
X165886904Y-114982438D02*
X165934523Y-115030057D01*
X165934523Y-115030057D02*
X165982142Y-115125295D01*
X165982142Y-115125295D02*
X165982142Y-115268152D01*
X165982142Y-115268152D02*
X165934523Y-115363390D01*
X165934523Y-115363390D02*
X165886904Y-115411009D01*
X165886904Y-115411009D02*
X165791666Y-115458628D01*
X165791666Y-115458628D02*
X165410714Y-115458628D01*
X166934523Y-115934819D02*
X166363095Y-115934819D01*
X166648809Y-115934819D02*
X166648809Y-114934819D01*
X166648809Y-114934819D02*
X166553571Y-115077676D01*
X166553571Y-115077676D02*
X166458333Y-115172914D01*
X166458333Y-115172914D02*
X166363095Y-115220533D01*
X167839285Y-114934819D02*
X167363095Y-114934819D01*
X167363095Y-114934819D02*
X167315476Y-115411009D01*
X167315476Y-115411009D02*
X167363095Y-115363390D01*
X167363095Y-115363390D02*
X167458333Y-115315771D01*
X167458333Y-115315771D02*
X167696428Y-115315771D01*
X167696428Y-115315771D02*
X167791666Y-115363390D01*
X167791666Y-115363390D02*
X167839285Y-115411009D01*
X167839285Y-115411009D02*
X167886904Y-115506247D01*
X167886904Y-115506247D02*
X167886904Y-115744342D01*
X167886904Y-115744342D02*
X167839285Y-115839580D01*
X167839285Y-115839580D02*
X167791666Y-115887200D01*
X167791666Y-115887200D02*
X167696428Y-115934819D01*
X167696428Y-115934819D02*
X167458333Y-115934819D01*
X167458333Y-115934819D02*
X167363095Y-115887200D01*
X167363095Y-115887200D02*
X167315476Y-115839580D01*
X117016905Y-56751409D02*
X117016905Y-55751409D01*
X117016905Y-55751409D02*
X117255000Y-55751409D01*
X117255000Y-55751409D02*
X117397857Y-55799028D01*
X117397857Y-55799028D02*
X117493095Y-55894266D01*
X117493095Y-55894266D02*
X117540714Y-55989504D01*
X117540714Y-55989504D02*
X117588333Y-56179980D01*
X117588333Y-56179980D02*
X117588333Y-56322837D01*
X117588333Y-56322837D02*
X117540714Y-56513313D01*
X117540714Y-56513313D02*
X117493095Y-56608551D01*
X117493095Y-56608551D02*
X117397857Y-56703790D01*
X117397857Y-56703790D02*
X117255000Y-56751409D01*
X117255000Y-56751409D02*
X117016905Y-56751409D01*
X117969286Y-55846647D02*
X118016905Y-55799028D01*
X118016905Y-55799028D02*
X118112143Y-55751409D01*
X118112143Y-55751409D02*
X118350238Y-55751409D01*
X118350238Y-55751409D02*
X118445476Y-55799028D01*
X118445476Y-55799028D02*
X118493095Y-55846647D01*
X118493095Y-55846647D02*
X118540714Y-55941885D01*
X118540714Y-55941885D02*
X118540714Y-56037123D01*
X118540714Y-56037123D02*
X118493095Y-56179980D01*
X118493095Y-56179980D02*
X117921667Y-56751409D01*
X117921667Y-56751409D02*
X118540714Y-56751409D01*
X212082142Y-112034819D02*
X211748809Y-111558628D01*
X211510714Y-112034819D02*
X211510714Y-111034819D01*
X211510714Y-111034819D02*
X211891666Y-111034819D01*
X211891666Y-111034819D02*
X211986904Y-111082438D01*
X211986904Y-111082438D02*
X212034523Y-111130057D01*
X212034523Y-111130057D02*
X212082142Y-111225295D01*
X212082142Y-111225295D02*
X212082142Y-111368152D01*
X212082142Y-111368152D02*
X212034523Y-111463390D01*
X212034523Y-111463390D02*
X211986904Y-111511009D01*
X211986904Y-111511009D02*
X211891666Y-111558628D01*
X211891666Y-111558628D02*
X211510714Y-111558628D01*
X212463095Y-111130057D02*
X212510714Y-111082438D01*
X212510714Y-111082438D02*
X212605952Y-111034819D01*
X212605952Y-111034819D02*
X212844047Y-111034819D01*
X212844047Y-111034819D02*
X212939285Y-111082438D01*
X212939285Y-111082438D02*
X212986904Y-111130057D01*
X212986904Y-111130057D02*
X213034523Y-111225295D01*
X213034523Y-111225295D02*
X213034523Y-111320533D01*
X213034523Y-111320533D02*
X212986904Y-111463390D01*
X212986904Y-111463390D02*
X212415476Y-112034819D01*
X212415476Y-112034819D02*
X213034523Y-112034819D01*
X213415476Y-111130057D02*
X213463095Y-111082438D01*
X213463095Y-111082438D02*
X213558333Y-111034819D01*
X213558333Y-111034819D02*
X213796428Y-111034819D01*
X213796428Y-111034819D02*
X213891666Y-111082438D01*
X213891666Y-111082438D02*
X213939285Y-111130057D01*
X213939285Y-111130057D02*
X213986904Y-111225295D01*
X213986904Y-111225295D02*
X213986904Y-111320533D01*
X213986904Y-111320533D02*
X213939285Y-111463390D01*
X213939285Y-111463390D02*
X213367857Y-112034819D01*
X213367857Y-112034819D02*
X213986904Y-112034819D01*
X241438095Y-63754819D02*
X241438095Y-64564342D01*
X241438095Y-64564342D02*
X241485714Y-64659580D01*
X241485714Y-64659580D02*
X241533333Y-64707200D01*
X241533333Y-64707200D02*
X241628571Y-64754819D01*
X241628571Y-64754819D02*
X241819047Y-64754819D01*
X241819047Y-64754819D02*
X241914285Y-64707200D01*
X241914285Y-64707200D02*
X241961904Y-64659580D01*
X241961904Y-64659580D02*
X242009523Y-64564342D01*
X242009523Y-64564342D02*
X242009523Y-63754819D01*
X243009523Y-64754819D02*
X242438095Y-64754819D01*
X242723809Y-64754819D02*
X242723809Y-63754819D01*
X242723809Y-63754819D02*
X242628571Y-63897676D01*
X242628571Y-63897676D02*
X242533333Y-63992914D01*
X242533333Y-63992914D02*
X242438095Y-64040533D01*
X101248333Y-122234819D02*
X100915000Y-121758628D01*
X100676905Y-122234819D02*
X100676905Y-121234819D01*
X100676905Y-121234819D02*
X101057857Y-121234819D01*
X101057857Y-121234819D02*
X101153095Y-121282438D01*
X101153095Y-121282438D02*
X101200714Y-121330057D01*
X101200714Y-121330057D02*
X101248333Y-121425295D01*
X101248333Y-121425295D02*
X101248333Y-121568152D01*
X101248333Y-121568152D02*
X101200714Y-121663390D01*
X101200714Y-121663390D02*
X101153095Y-121711009D01*
X101153095Y-121711009D02*
X101057857Y-121758628D01*
X101057857Y-121758628D02*
X100676905Y-121758628D01*
X101581667Y-121234819D02*
X102200714Y-121234819D01*
X102200714Y-121234819D02*
X101867381Y-121615771D01*
X101867381Y-121615771D02*
X102010238Y-121615771D01*
X102010238Y-121615771D02*
X102105476Y-121663390D01*
X102105476Y-121663390D02*
X102153095Y-121711009D01*
X102153095Y-121711009D02*
X102200714Y-121806247D01*
X102200714Y-121806247D02*
X102200714Y-122044342D01*
X102200714Y-122044342D02*
X102153095Y-122139580D01*
X102153095Y-122139580D02*
X102105476Y-122187200D01*
X102105476Y-122187200D02*
X102010238Y-122234819D01*
X102010238Y-122234819D02*
X101724524Y-122234819D01*
X101724524Y-122234819D02*
X101629286Y-122187200D01*
X101629286Y-122187200D02*
X101581667Y-122139580D01*
X94136905Y-56751409D02*
X94136905Y-55751409D01*
X94136905Y-55751409D02*
X94375000Y-55751409D01*
X94375000Y-55751409D02*
X94517857Y-55799028D01*
X94517857Y-55799028D02*
X94613095Y-55894266D01*
X94613095Y-55894266D02*
X94660714Y-55989504D01*
X94660714Y-55989504D02*
X94708333Y-56179980D01*
X94708333Y-56179980D02*
X94708333Y-56322837D01*
X94708333Y-56322837D02*
X94660714Y-56513313D01*
X94660714Y-56513313D02*
X94613095Y-56608551D01*
X94613095Y-56608551D02*
X94517857Y-56703790D01*
X94517857Y-56703790D02*
X94375000Y-56751409D01*
X94375000Y-56751409D02*
X94136905Y-56751409D01*
X95660714Y-56751409D02*
X95089286Y-56751409D01*
X95375000Y-56751409D02*
X95375000Y-55751409D01*
X95375000Y-55751409D02*
X95279762Y-55894266D01*
X95279762Y-55894266D02*
X95184524Y-55989504D01*
X95184524Y-55989504D02*
X95089286Y-56037123D01*
X235282142Y-111234819D02*
X234948809Y-110758628D01*
X234710714Y-111234819D02*
X234710714Y-110234819D01*
X234710714Y-110234819D02*
X235091666Y-110234819D01*
X235091666Y-110234819D02*
X235186904Y-110282438D01*
X235186904Y-110282438D02*
X235234523Y-110330057D01*
X235234523Y-110330057D02*
X235282142Y-110425295D01*
X235282142Y-110425295D02*
X235282142Y-110568152D01*
X235282142Y-110568152D02*
X235234523Y-110663390D01*
X235234523Y-110663390D02*
X235186904Y-110711009D01*
X235186904Y-110711009D02*
X235091666Y-110758628D01*
X235091666Y-110758628D02*
X234710714Y-110758628D01*
X235663095Y-110330057D02*
X235710714Y-110282438D01*
X235710714Y-110282438D02*
X235805952Y-110234819D01*
X235805952Y-110234819D02*
X236044047Y-110234819D01*
X236044047Y-110234819D02*
X236139285Y-110282438D01*
X236139285Y-110282438D02*
X236186904Y-110330057D01*
X236186904Y-110330057D02*
X236234523Y-110425295D01*
X236234523Y-110425295D02*
X236234523Y-110520533D01*
X236234523Y-110520533D02*
X236186904Y-110663390D01*
X236186904Y-110663390D02*
X235615476Y-111234819D01*
X235615476Y-111234819D02*
X236234523Y-111234819D01*
X236853571Y-110234819D02*
X236948809Y-110234819D01*
X236948809Y-110234819D02*
X237044047Y-110282438D01*
X237044047Y-110282438D02*
X237091666Y-110330057D01*
X237091666Y-110330057D02*
X237139285Y-110425295D01*
X237139285Y-110425295D02*
X237186904Y-110615771D01*
X237186904Y-110615771D02*
X237186904Y-110853866D01*
X237186904Y-110853866D02*
X237139285Y-111044342D01*
X237139285Y-111044342D02*
X237091666Y-111139580D01*
X237091666Y-111139580D02*
X237044047Y-111187200D01*
X237044047Y-111187200D02*
X236948809Y-111234819D01*
X236948809Y-111234819D02*
X236853571Y-111234819D01*
X236853571Y-111234819D02*
X236758333Y-111187200D01*
X236758333Y-111187200D02*
X236710714Y-111139580D01*
X236710714Y-111139580D02*
X236663095Y-111044342D01*
X236663095Y-111044342D02*
X236615476Y-110853866D01*
X236615476Y-110853866D02*
X236615476Y-110615771D01*
X236615476Y-110615771D02*
X236663095Y-110425295D01*
X236663095Y-110425295D02*
X236710714Y-110330057D01*
X236710714Y-110330057D02*
X236758333Y-110282438D01*
X236758333Y-110282438D02*
X236853571Y-110234819D01*
X75891666Y-126094819D02*
X75891666Y-126809104D01*
X75891666Y-126809104D02*
X75844047Y-126951961D01*
X75844047Y-126951961D02*
X75748809Y-127047200D01*
X75748809Y-127047200D02*
X75605952Y-127094819D01*
X75605952Y-127094819D02*
X75510714Y-127094819D01*
X76891666Y-127094819D02*
X76320238Y-127094819D01*
X76605952Y-127094819D02*
X76605952Y-126094819D01*
X76605952Y-126094819D02*
X76510714Y-126237676D01*
X76510714Y-126237676D02*
X76415476Y-126332914D01*
X76415476Y-126332914D02*
X76320238Y-126380533D01*
D13*
X59691667Y-56012404D02*
X59653571Y-56050500D01*
X59653571Y-56050500D02*
X59539286Y-56088595D01*
X59539286Y-56088595D02*
X59463095Y-56088595D01*
X59463095Y-56088595D02*
X59348809Y-56050500D01*
X59348809Y-56050500D02*
X59272619Y-55974309D01*
X59272619Y-55974309D02*
X59234524Y-55898119D01*
X59234524Y-55898119D02*
X59196428Y-55745738D01*
X59196428Y-55745738D02*
X59196428Y-55631452D01*
X59196428Y-55631452D02*
X59234524Y-55479071D01*
X59234524Y-55479071D02*
X59272619Y-55402880D01*
X59272619Y-55402880D02*
X59348809Y-55326690D01*
X59348809Y-55326690D02*
X59463095Y-55288595D01*
X59463095Y-55288595D02*
X59539286Y-55288595D01*
X59539286Y-55288595D02*
X59653571Y-55326690D01*
X59653571Y-55326690D02*
X59691667Y-55364785D01*
X60148809Y-55631452D02*
X60072619Y-55593357D01*
X60072619Y-55593357D02*
X60034524Y-55555261D01*
X60034524Y-55555261D02*
X59996428Y-55479071D01*
X59996428Y-55479071D02*
X59996428Y-55440976D01*
X59996428Y-55440976D02*
X60034524Y-55364785D01*
X60034524Y-55364785D02*
X60072619Y-55326690D01*
X60072619Y-55326690D02*
X60148809Y-55288595D01*
X60148809Y-55288595D02*
X60301190Y-55288595D01*
X60301190Y-55288595D02*
X60377381Y-55326690D01*
X60377381Y-55326690D02*
X60415476Y-55364785D01*
X60415476Y-55364785D02*
X60453571Y-55440976D01*
X60453571Y-55440976D02*
X60453571Y-55479071D01*
X60453571Y-55479071D02*
X60415476Y-55555261D01*
X60415476Y-55555261D02*
X60377381Y-55593357D01*
X60377381Y-55593357D02*
X60301190Y-55631452D01*
X60301190Y-55631452D02*
X60148809Y-55631452D01*
X60148809Y-55631452D02*
X60072619Y-55669547D01*
X60072619Y-55669547D02*
X60034524Y-55707642D01*
X60034524Y-55707642D02*
X59996428Y-55783833D01*
X59996428Y-55783833D02*
X59996428Y-55936214D01*
X59996428Y-55936214D02*
X60034524Y-56012404D01*
X60034524Y-56012404D02*
X60072619Y-56050500D01*
X60072619Y-56050500D02*
X60148809Y-56088595D01*
X60148809Y-56088595D02*
X60301190Y-56088595D01*
X60301190Y-56088595D02*
X60377381Y-56050500D01*
X60377381Y-56050500D02*
X60415476Y-56012404D01*
X60415476Y-56012404D02*
X60453571Y-55936214D01*
X60453571Y-55936214D02*
X60453571Y-55783833D01*
X60453571Y-55783833D02*
X60415476Y-55707642D01*
X60415476Y-55707642D02*
X60377381Y-55669547D01*
X60377381Y-55669547D02*
X60301190Y-55631452D01*
D11*
X209088333Y-34384819D02*
X208755000Y-33908628D01*
X208516905Y-34384819D02*
X208516905Y-33384819D01*
X208516905Y-33384819D02*
X208897857Y-33384819D01*
X208897857Y-33384819D02*
X208993095Y-33432438D01*
X208993095Y-33432438D02*
X209040714Y-33480057D01*
X209040714Y-33480057D02*
X209088333Y-33575295D01*
X209088333Y-33575295D02*
X209088333Y-33718152D01*
X209088333Y-33718152D02*
X209040714Y-33813390D01*
X209040714Y-33813390D02*
X208993095Y-33861009D01*
X208993095Y-33861009D02*
X208897857Y-33908628D01*
X208897857Y-33908628D02*
X208516905Y-33908628D01*
X209564524Y-34384819D02*
X209755000Y-34384819D01*
X209755000Y-34384819D02*
X209850238Y-34337200D01*
X209850238Y-34337200D02*
X209897857Y-34289580D01*
X209897857Y-34289580D02*
X209993095Y-34146723D01*
X209993095Y-34146723D02*
X210040714Y-33956247D01*
X210040714Y-33956247D02*
X210040714Y-33575295D01*
X210040714Y-33575295D02*
X209993095Y-33480057D01*
X209993095Y-33480057D02*
X209945476Y-33432438D01*
X209945476Y-33432438D02*
X209850238Y-33384819D01*
X209850238Y-33384819D02*
X209659762Y-33384819D01*
X209659762Y-33384819D02*
X209564524Y-33432438D01*
X209564524Y-33432438D02*
X209516905Y-33480057D01*
X209516905Y-33480057D02*
X209469286Y-33575295D01*
X209469286Y-33575295D02*
X209469286Y-33813390D01*
X209469286Y-33813390D02*
X209516905Y-33908628D01*
X209516905Y-33908628D02*
X209564524Y-33956247D01*
X209564524Y-33956247D02*
X209659762Y-34003866D01*
X209659762Y-34003866D02*
X209850238Y-34003866D01*
X209850238Y-34003866D02*
X209945476Y-33956247D01*
X209945476Y-33956247D02*
X209993095Y-33908628D01*
X209993095Y-33908628D02*
X210040714Y-33813390D01*
X58297142Y-40284819D02*
X57963809Y-39808628D01*
X57725714Y-40284819D02*
X57725714Y-39284819D01*
X57725714Y-39284819D02*
X58106666Y-39284819D01*
X58106666Y-39284819D02*
X58201904Y-39332438D01*
X58201904Y-39332438D02*
X58249523Y-39380057D01*
X58249523Y-39380057D02*
X58297142Y-39475295D01*
X58297142Y-39475295D02*
X58297142Y-39618152D01*
X58297142Y-39618152D02*
X58249523Y-39713390D01*
X58249523Y-39713390D02*
X58201904Y-39761009D01*
X58201904Y-39761009D02*
X58106666Y-39808628D01*
X58106666Y-39808628D02*
X57725714Y-39808628D01*
X59249523Y-40284819D02*
X58678095Y-40284819D01*
X58963809Y-40284819D02*
X58963809Y-39284819D01*
X58963809Y-39284819D02*
X58868571Y-39427676D01*
X58868571Y-39427676D02*
X58773333Y-39522914D01*
X58773333Y-39522914D02*
X58678095Y-39570533D01*
X59820952Y-39713390D02*
X59725714Y-39665771D01*
X59725714Y-39665771D02*
X59678095Y-39618152D01*
X59678095Y-39618152D02*
X59630476Y-39522914D01*
X59630476Y-39522914D02*
X59630476Y-39475295D01*
X59630476Y-39475295D02*
X59678095Y-39380057D01*
X59678095Y-39380057D02*
X59725714Y-39332438D01*
X59725714Y-39332438D02*
X59820952Y-39284819D01*
X59820952Y-39284819D02*
X60011428Y-39284819D01*
X60011428Y-39284819D02*
X60106666Y-39332438D01*
X60106666Y-39332438D02*
X60154285Y-39380057D01*
X60154285Y-39380057D02*
X60201904Y-39475295D01*
X60201904Y-39475295D02*
X60201904Y-39522914D01*
X60201904Y-39522914D02*
X60154285Y-39618152D01*
X60154285Y-39618152D02*
X60106666Y-39665771D01*
X60106666Y-39665771D02*
X60011428Y-39713390D01*
X60011428Y-39713390D02*
X59820952Y-39713390D01*
X59820952Y-39713390D02*
X59725714Y-39761009D01*
X59725714Y-39761009D02*
X59678095Y-39808628D01*
X59678095Y-39808628D02*
X59630476Y-39903866D01*
X59630476Y-39903866D02*
X59630476Y-40094342D01*
X59630476Y-40094342D02*
X59678095Y-40189580D01*
X59678095Y-40189580D02*
X59725714Y-40237200D01*
X59725714Y-40237200D02*
X59820952Y-40284819D01*
X59820952Y-40284819D02*
X60011428Y-40284819D01*
X60011428Y-40284819D02*
X60106666Y-40237200D01*
X60106666Y-40237200D02*
X60154285Y-40189580D01*
X60154285Y-40189580D02*
X60201904Y-40094342D01*
X60201904Y-40094342D02*
X60201904Y-39903866D01*
X60201904Y-39903866D02*
X60154285Y-39808628D01*
X60154285Y-39808628D02*
X60106666Y-39761009D01*
X60106666Y-39761009D02*
X60011428Y-39713390D01*
X141649471Y-69658333D02*
X142363756Y-69658333D01*
X142363756Y-69658333D02*
X142506613Y-69705952D01*
X142506613Y-69705952D02*
X142601852Y-69801190D01*
X142601852Y-69801190D02*
X142649471Y-69944047D01*
X142649471Y-69944047D02*
X142649471Y-70039285D01*
X141744709Y-69229761D02*
X141697090Y-69182142D01*
X141697090Y-69182142D02*
X141649471Y-69086904D01*
X141649471Y-69086904D02*
X141649471Y-68848809D01*
X141649471Y-68848809D02*
X141697090Y-68753571D01*
X141697090Y-68753571D02*
X141744709Y-68705952D01*
X141744709Y-68705952D02*
X141839947Y-68658333D01*
X141839947Y-68658333D02*
X141935185Y-68658333D01*
X141935185Y-68658333D02*
X142078042Y-68705952D01*
X142078042Y-68705952D02*
X142649471Y-69277380D01*
X142649471Y-69277380D02*
X142649471Y-68658333D01*
X49291666Y-58361409D02*
X49291666Y-59075694D01*
X49291666Y-59075694D02*
X49244047Y-59218551D01*
X49244047Y-59218551D02*
X49148809Y-59313790D01*
X49148809Y-59313790D02*
X49005952Y-59361409D01*
X49005952Y-59361409D02*
X48910714Y-59361409D01*
X49767857Y-59361409D02*
X49767857Y-58361409D01*
X49767857Y-58361409D02*
X50148809Y-58361409D01*
X50148809Y-58361409D02*
X50244047Y-58409028D01*
X50244047Y-58409028D02*
X50291666Y-58456647D01*
X50291666Y-58456647D02*
X50339285Y-58551885D01*
X50339285Y-58551885D02*
X50339285Y-58694742D01*
X50339285Y-58694742D02*
X50291666Y-58789980D01*
X50291666Y-58789980D02*
X50244047Y-58837599D01*
X50244047Y-58837599D02*
X50148809Y-58885218D01*
X50148809Y-58885218D02*
X49767857Y-58885218D01*
X51291666Y-59361409D02*
X50720238Y-59361409D01*
X51005952Y-59361409D02*
X51005952Y-58361409D01*
X51005952Y-58361409D02*
X50910714Y-58504266D01*
X50910714Y-58504266D02*
X50815476Y-58599504D01*
X50815476Y-58599504D02*
X50720238Y-58647123D01*
%TO.C,N4*%
D12*
X153593760Y-62717830D02*
X153593760Y-42875350D01*
X173436240Y-42875350D02*
X173436240Y-62717830D01*
X153593760Y-42875350D02*
G75*
G02*
X173437433Y-42876771I9921240J-8326120D01*
G01*
X173436240Y-62717830D02*
G75*
G02*
X153592567Y-62716409I-9921240J8326119D01*
G01*
%TO.C,N3*%
X130713760Y-62717830D02*
X130713760Y-42875350D01*
X150556240Y-42875350D02*
X150556240Y-62717830D01*
X130713760Y-42875350D02*
G75*
G02*
X150557433Y-42876771I9921240J-8326120D01*
G01*
X150556240Y-62717830D02*
G75*
G02*
X130712567Y-62716409I-9921240J8326119D01*
G01*
%TO.C,R27*%
D14*
X242780000Y-40655000D02*
X242780000Y-47195000D01*
X242780000Y-47195000D02*
X243110000Y-47195000D01*
X243110000Y-40655000D02*
X242780000Y-40655000D01*
X245190000Y-40655000D02*
X245520000Y-40655000D01*
X245520000Y-40655000D02*
X245520000Y-47195000D01*
X245520000Y-47195000D02*
X245190000Y-47195000D01*
%TO.C,R12*%
X140255000Y-115880000D02*
X146795000Y-115880000D01*
X140255000Y-116210000D02*
X140255000Y-115880000D01*
X140255000Y-118290000D02*
X140255000Y-118620000D01*
X140255000Y-118620000D02*
X146795000Y-118620000D01*
X146795000Y-115880000D02*
X146795000Y-116210000D01*
X146795000Y-118620000D02*
X146795000Y-118290000D01*
%TO.C,R2*%
X98255000Y-119380000D02*
X104795000Y-119380000D01*
X98255000Y-119710000D02*
X98255000Y-119380000D01*
X98255000Y-121790000D02*
X98255000Y-122120000D01*
X98255000Y-122120000D02*
X104795000Y-122120000D01*
X104795000Y-119380000D02*
X104795000Y-119710000D01*
X104795000Y-122120000D02*
X104795000Y-121790000D01*
%TO.C,J3*%
X75645000Y-119240000D02*
X76390000Y-119240000D01*
X75645000Y-119975000D02*
X75645000Y-119240000D01*
X75645000Y-120710000D02*
X75645000Y-122585000D01*
X75645000Y-120710000D02*
X75704435Y-120710000D01*
X75645000Y-122585000D02*
X75979970Y-122585000D01*
X76800030Y-122585000D02*
X77135000Y-122585000D01*
X77075565Y-120710000D02*
X77135000Y-120710000D01*
X77135000Y-120710000D02*
X77135000Y-122585000D01*
%TO.C,R21*%
X209355000Y-117180000D02*
X215895000Y-117180000D01*
X209355000Y-117510000D02*
X209355000Y-117180000D01*
X209355000Y-119590000D02*
X209355000Y-119920000D01*
X209355000Y-119920000D02*
X215895000Y-119920000D01*
X215895000Y-117180000D02*
X215895000Y-117510000D01*
X215895000Y-119920000D02*
X215895000Y-119590000D01*
%TO.C,D4*%
X160015000Y-50046590D02*
X160015000Y-55546590D01*
X160015000Y-50046590D02*
X167015000Y-50046590D01*
X160015000Y-55546590D02*
X166565000Y-55546590D01*
X160815000Y-53696590D02*
X160815000Y-51896590D01*
X166215000Y-53696590D02*
X166215000Y-51896590D01*
X166565000Y-55546590D02*
X167015000Y-55096590D01*
X167015000Y-55096590D02*
X167015000Y-50046590D01*
%TO.C,R10*%
X103965000Y-140180000D02*
X110505000Y-140180000D01*
X103965000Y-140510000D02*
X103965000Y-140180000D01*
X103965000Y-142590000D02*
X103965000Y-142920000D01*
X103965000Y-142920000D02*
X110505000Y-142920000D01*
X110505000Y-140180000D02*
X110505000Y-140510000D01*
X110505000Y-142920000D02*
X110505000Y-142590000D01*
%TO.C,Q1*%
X247627500Y-65577500D02*
X249147500Y-65577500D01*
X247627500Y-65627500D02*
X247627500Y-65577500D01*
X247627500Y-67527500D02*
X247627500Y-66747500D01*
X247627500Y-68697500D02*
X247627500Y-68647500D01*
X249147500Y-65577500D02*
X249147500Y-66577500D01*
X249147500Y-67697500D02*
X249147500Y-68697500D01*
X249147500Y-68697500D02*
X247627500Y-68697500D01*
X247087500Y-66757500D02*
X247327500Y-67087500D01*
X246847500Y-67087500D01*
X247087500Y-66757500D01*
G36*
X247327500Y-67087500D02*
G01*
X246847500Y-67087500D01*
X247087500Y-66757500D01*
X247327500Y-67087500D01*
G37*
%TO.C,D6*%
X182895000Y-50046590D02*
X182895000Y-55546590D01*
X182895000Y-50046590D02*
X189895000Y-50046590D01*
X182895000Y-55546590D02*
X189445000Y-55546590D01*
X183695000Y-53696590D02*
X183695000Y-51896590D01*
X189095000Y-53696590D02*
X189095000Y-51896590D01*
X189445000Y-55546590D02*
X189895000Y-55096590D01*
X189895000Y-55096590D02*
X189895000Y-50046590D01*
%TO.C,D5*%
X49765000Y-40964000D02*
X49765000Y-41120000D01*
X49765000Y-43280000D02*
X49765000Y-43436000D01*
X49765000Y-40964484D02*
G75*
G02*
X52996437Y-41120000I1560000J-1235516D01*
G01*
X50284039Y-41120000D02*
G75*
G02*
X52365961Y-41120000I1040961J-1080000D01*
G01*
X52365961Y-43280000D02*
G75*
G02*
X50284039Y-43280000I-1040961J1080000D01*
G01*
X52996437Y-43280000D02*
G75*
G02*
X49765000Y-43435516I-1671437J1080000D01*
G01*
%TO.C,R14*%
X163355000Y-112580000D02*
X169895000Y-112580000D01*
X163355000Y-112910000D02*
X163355000Y-112580000D01*
X163355000Y-114990000D02*
X163355000Y-115320000D01*
X163355000Y-115320000D02*
X169895000Y-115320000D01*
X169895000Y-112580000D02*
X169895000Y-112910000D01*
X169895000Y-115320000D02*
X169895000Y-114990000D01*
%TO.C,R7*%
X160225000Y-34930000D02*
X166765000Y-34930000D01*
X160225000Y-35260000D02*
X160225000Y-34930000D01*
X160225000Y-37340000D02*
X160225000Y-37670000D01*
X160225000Y-37670000D02*
X166765000Y-37670000D01*
X166765000Y-34930000D02*
X166765000Y-35260000D01*
X166765000Y-37670000D02*
X166765000Y-37340000D01*
%TO.C,R25*%
X82555000Y-100580000D02*
X89095000Y-100580000D01*
X82555000Y-100910000D02*
X82555000Y-100580000D01*
X82555000Y-102990000D02*
X82555000Y-103320000D01*
X82555000Y-103320000D02*
X89095000Y-103320000D01*
X89095000Y-100580000D02*
X89095000Y-100910000D01*
X89095000Y-103320000D02*
X89095000Y-102990000D01*
%TO.C,R23*%
X195555000Y-140280000D02*
X202095000Y-140280000D01*
X195555000Y-140610000D02*
X195555000Y-140280000D01*
X195555000Y-142690000D02*
X195555000Y-143020000D01*
X195555000Y-143020000D02*
X202095000Y-143020000D01*
X202095000Y-140280000D02*
X202095000Y-140610000D01*
X202095000Y-143020000D02*
X202095000Y-142690000D01*
%TO.C,R11*%
X140065000Y-112280000D02*
X146605000Y-112280000D01*
X140065000Y-112610000D02*
X140065000Y-112280000D01*
X140065000Y-114690000D02*
X140065000Y-115020000D01*
X140065000Y-115020000D02*
X146605000Y-115020000D01*
X146605000Y-112280000D02*
X146605000Y-112610000D01*
X146605000Y-115020000D02*
X146605000Y-114690000D01*
%TO.C,R5*%
X113785000Y-34930000D02*
X120325000Y-34930000D01*
X113785000Y-35260000D02*
X113785000Y-34930000D01*
X113785000Y-37340000D02*
X113785000Y-37670000D01*
X113785000Y-37670000D02*
X120325000Y-37670000D01*
X120325000Y-34930000D02*
X120325000Y-35260000D01*
X120325000Y-37670000D02*
X120325000Y-37340000D01*
%TO.C,R6*%
X137345000Y-34930000D02*
X143885000Y-34930000D01*
X137345000Y-35260000D02*
X137345000Y-34930000D01*
X137345000Y-37340000D02*
X137345000Y-37670000D01*
X137345000Y-37670000D02*
X143885000Y-37670000D01*
X143885000Y-34930000D02*
X143885000Y-35260000D01*
X143885000Y-37670000D02*
X143885000Y-37340000D01*
%TO.C,N6*%
D12*
X199353760Y-62717830D02*
X199353760Y-42875350D01*
X219196240Y-42875350D02*
X219196240Y-62717830D01*
X199353760Y-42875350D02*
G75*
G02*
X219197433Y-42876771I9921240J-8326120D01*
G01*
X219196240Y-62717830D02*
G75*
G02*
X199352567Y-62716409I-9921240J8326119D01*
G01*
%TO.C,U3*%
D15*
X226875000Y-47596590D02*
X237275000Y-47596590D01*
X226875000Y-57996590D02*
X226875000Y-47596590D01*
X237275000Y-47596590D02*
X237275000Y-57996590D01*
X237275000Y-57996590D02*
X226875000Y-57996590D01*
D16*
X225225000Y-47596590D02*
G75*
G02*
X224825000Y-47596590I-200000J0D01*
G01*
X224825000Y-47596590D02*
G75*
G02*
X225225000Y-47596590I200000J0D01*
G01*
%TO.C,R17*%
D14*
X186355000Y-112580000D02*
X192895000Y-112580000D01*
X186355000Y-112910000D02*
X186355000Y-112580000D01*
X186355000Y-114990000D02*
X186355000Y-115320000D01*
X186355000Y-115320000D02*
X192895000Y-115320000D01*
X192895000Y-112580000D02*
X192895000Y-112910000D01*
X192895000Y-115320000D02*
X192895000Y-114990000D01*
%TO.C,R8*%
X183105000Y-34930000D02*
X189645000Y-34930000D01*
X183105000Y-35260000D02*
X183105000Y-34930000D01*
X183105000Y-37340000D02*
X183105000Y-37670000D01*
X183105000Y-37670000D02*
X189645000Y-37670000D01*
X189645000Y-34930000D02*
X189645000Y-35260000D01*
X189645000Y-37670000D02*
X189645000Y-37340000D01*
%TO.C,R19*%
X172955000Y-139680000D02*
X179495000Y-139680000D01*
X172955000Y-140010000D02*
X172955000Y-139680000D01*
X172955000Y-142090000D02*
X172955000Y-142420000D01*
X172955000Y-142420000D02*
X179495000Y-142420000D01*
X179495000Y-139680000D02*
X179495000Y-140010000D01*
X179495000Y-142420000D02*
X179495000Y-142090000D01*
%TO.C,N1*%
D12*
X84953760Y-62717830D02*
X84953760Y-42875350D01*
X104796240Y-42875350D02*
X104796240Y-62717830D01*
X84953760Y-42875350D02*
G75*
G02*
X104797433Y-42876771I9921240J-8326120D01*
G01*
X104796240Y-62717830D02*
G75*
G02*
X84952567Y-62716409I-9921240J8326119D01*
G01*
%TO.C,C6*%
D14*
X58755000Y-54055000D02*
X58903000Y-54055000D01*
X58755000Y-57295000D02*
X58755000Y-54055000D01*
X58903000Y-57295000D02*
X58755000Y-57295000D01*
X60847000Y-54055000D02*
X60995000Y-54055000D01*
X60995000Y-54055000D02*
X60995000Y-57295000D01*
X60995000Y-57295000D02*
X60847000Y-57295000D01*
%TO.C,C9*%
X241805000Y-50805000D02*
X241953000Y-50805000D01*
X241805000Y-54045000D02*
X241805000Y-50805000D01*
X241953000Y-54045000D02*
X241805000Y-54045000D01*
X243897000Y-50805000D02*
X244045000Y-50805000D01*
X244045000Y-50805000D02*
X244045000Y-54045000D01*
X244045000Y-54045000D02*
X243897000Y-54045000D01*
%TO.C,R26*%
X223665000Y-35405000D02*
X223665000Y-35735000D01*
X223665000Y-38145000D02*
X223665000Y-37815000D01*
X230205000Y-35405000D02*
X223665000Y-35405000D01*
X230205000Y-35735000D02*
X230205000Y-35405000D01*
X230205000Y-37815000D02*
X230205000Y-38145000D01*
X230205000Y-38145000D02*
X223665000Y-38145000D01*
%TO.C,R1*%
X98255000Y-116080000D02*
X104795000Y-116080000D01*
X98255000Y-116410000D02*
X98255000Y-116080000D01*
X98255000Y-118490000D02*
X98255000Y-118820000D01*
X98255000Y-118820000D02*
X104795000Y-118820000D01*
X104795000Y-116080000D02*
X104795000Y-116410000D01*
X104795000Y-118820000D02*
X104795000Y-118490000D01*
%TO.C,D3*%
X137135000Y-50046590D02*
X137135000Y-55546590D01*
X137135000Y-50046590D02*
X144135000Y-50046590D01*
X137135000Y-55546590D02*
X143685000Y-55546590D01*
X137935000Y-53696590D02*
X137935000Y-51896590D01*
X143335000Y-53696590D02*
X143335000Y-51896590D01*
X143685000Y-55546590D02*
X144135000Y-55096590D01*
X144135000Y-55096590D02*
X144135000Y-50046590D01*
%TO.C,C7*%
X244330000Y-50805000D02*
X244478000Y-50805000D01*
X244330000Y-54045000D02*
X244330000Y-50805000D01*
X244478000Y-54045000D02*
X244330000Y-54045000D01*
X246422000Y-50805000D02*
X246570000Y-50805000D01*
X246570000Y-50805000D02*
X246570000Y-54045000D01*
X246570000Y-54045000D02*
X246422000Y-54045000D01*
%TO.C,U2*%
D15*
X66875000Y-47596590D02*
X77275000Y-47596590D01*
X66875000Y-57996590D02*
X66875000Y-47596590D01*
X77275000Y-47596590D02*
X77275000Y-57996590D01*
X77275000Y-57996590D02*
X66875000Y-57996590D01*
D16*
X79325000Y-57996590D02*
G75*
G02*
X78925000Y-57996590I-200000J0D01*
G01*
X78925000Y-57996590D02*
G75*
G02*
X79325000Y-57996590I200000J0D01*
G01*
%TO.C,N2*%
D12*
X107833760Y-62717830D02*
X107833760Y-42875350D01*
X127676240Y-42875350D02*
X127676240Y-62717830D01*
X107833760Y-42875350D02*
G75*
G02*
X127677433Y-42876771I9921240J-8326120D01*
G01*
X127676240Y-62717830D02*
G75*
G02*
X107832567Y-62716409I-9921240J8326119D01*
G01*
%TO.C,R24*%
D14*
X232365000Y-117180000D02*
X238905000Y-117180000D01*
X232365000Y-117510000D02*
X232365000Y-117180000D01*
X232365000Y-119590000D02*
X232365000Y-119920000D01*
X232365000Y-119920000D02*
X238905000Y-119920000D01*
X238905000Y-117180000D02*
X238905000Y-117510000D01*
X238905000Y-119920000D02*
X238905000Y-119590000D01*
%TO.C,R4*%
X91585000Y-34930000D02*
X98125000Y-34930000D01*
X91585000Y-35260000D02*
X91585000Y-34930000D01*
X91585000Y-37340000D02*
X91585000Y-37670000D01*
X91585000Y-37670000D02*
X98125000Y-37670000D01*
X98125000Y-34930000D02*
X98125000Y-35260000D01*
X98125000Y-37670000D02*
X98125000Y-37340000D01*
%TO.C,R13*%
X126865000Y-140080000D02*
X133405000Y-140080000D01*
X126865000Y-140410000D02*
X126865000Y-140080000D01*
X126865000Y-142490000D02*
X126865000Y-142820000D01*
X126865000Y-142820000D02*
X133405000Y-142820000D01*
X133405000Y-140080000D02*
X133405000Y-140410000D01*
X133405000Y-142820000D02*
X133405000Y-142490000D01*
%TO.C,R16*%
X151055000Y-139480000D02*
X157595000Y-139480000D01*
X151055000Y-139810000D02*
X151055000Y-139480000D01*
X151055000Y-141890000D02*
X151055000Y-142220000D01*
X151055000Y-142220000D02*
X157595000Y-142220000D01*
X157595000Y-139480000D02*
X157595000Y-139810000D01*
X157595000Y-142220000D02*
X157595000Y-141890000D01*
%TO.C,N5*%
D12*
X176473760Y-62717830D02*
X176473760Y-42875350D01*
X196316240Y-42875350D02*
X196316240Y-62717830D01*
X176473760Y-42875350D02*
G75*
G02*
X196317433Y-42876771I9921240J-8326120D01*
G01*
X196316240Y-62717830D02*
G75*
G02*
X176472567Y-62716409I-9921240J8326119D01*
G01*
%TO.C,D7*%
D14*
X205775000Y-50046590D02*
X205775000Y-55546590D01*
X205775000Y-50046590D02*
X212775000Y-50046590D01*
X205775000Y-55546590D02*
X212325000Y-55546590D01*
X206575000Y-53696590D02*
X206575000Y-51896590D01*
X211975000Y-53696590D02*
X211975000Y-51896590D01*
X212325000Y-55546590D02*
X212775000Y-55096590D01*
X212775000Y-55096590D02*
X212775000Y-50046590D01*
%TO.C,R15*%
X163355000Y-116480000D02*
X169895000Y-116480000D01*
X163355000Y-116810000D02*
X163355000Y-116480000D01*
X163355000Y-118890000D02*
X163355000Y-119220000D01*
X163355000Y-119220000D02*
X169895000Y-119220000D01*
X169895000Y-116480000D02*
X169895000Y-116810000D01*
X169895000Y-119220000D02*
X169895000Y-118890000D01*
%TO.C,D2*%
X114255000Y-50046590D02*
X114255000Y-55546590D01*
X114255000Y-50046590D02*
X121255000Y-50046590D01*
X114255000Y-55546590D02*
X120805000Y-55546590D01*
X115055000Y-53696590D02*
X115055000Y-51896590D01*
X120455000Y-53696590D02*
X120455000Y-51896590D01*
X120805000Y-55546590D02*
X121255000Y-55096590D01*
X121255000Y-55096590D02*
X121255000Y-50046590D01*
%TO.C,R22*%
X209455000Y-112580000D02*
X215995000Y-112580000D01*
X209455000Y-112910000D02*
X209455000Y-112580000D01*
X209455000Y-114990000D02*
X209455000Y-115320000D01*
X209455000Y-115320000D02*
X215995000Y-115320000D01*
X215995000Y-112580000D02*
X215995000Y-112910000D01*
X215995000Y-115320000D02*
X215995000Y-114990000D01*
%TO.C,U1*%
X241300000Y-68810000D02*
X243100000Y-68810000D01*
X242300000Y-65590000D02*
X241500000Y-65590000D01*
X242300000Y-65590000D02*
X243100000Y-65590000D01*
X241000000Y-65640000D02*
X240760000Y-65310000D01*
X241240000Y-65310000D01*
X241000000Y-65640000D01*
G36*
X241000000Y-65640000D02*
G01*
X240760000Y-65310000D01*
X241240000Y-65310000D01*
X241000000Y-65640000D01*
G37*
%TO.C,R3*%
X98145000Y-122780000D02*
X104685000Y-122780000D01*
X98145000Y-123110000D02*
X98145000Y-122780000D01*
X98145000Y-125190000D02*
X98145000Y-125520000D01*
X98145000Y-125520000D02*
X104685000Y-125520000D01*
X104685000Y-122780000D02*
X104685000Y-123110000D01*
X104685000Y-125520000D02*
X104685000Y-125190000D01*
%TO.C,D1*%
X91375000Y-50046590D02*
X91375000Y-55546590D01*
X91375000Y-50046590D02*
X98375000Y-50046590D01*
X91375000Y-55546590D02*
X97925000Y-55546590D01*
X92175000Y-53696590D02*
X92175000Y-51896590D01*
X97575000Y-53696590D02*
X97575000Y-51896590D01*
X97925000Y-55546590D02*
X98375000Y-55096590D01*
X98375000Y-55096590D02*
X98375000Y-50046590D01*
%TO.C,R20*%
X232655000Y-111780000D02*
X239195000Y-111780000D01*
X232655000Y-112110000D02*
X232655000Y-111780000D01*
X232655000Y-114190000D02*
X232655000Y-114520000D01*
X232655000Y-114520000D02*
X239195000Y-114520000D01*
X239195000Y-111780000D02*
X239195000Y-112110000D01*
X239195000Y-114520000D02*
X239195000Y-114190000D01*
%TO.C,J1*%
X75480000Y-127515000D02*
X76225000Y-127515000D01*
X75480000Y-128250000D02*
X75480000Y-127515000D01*
X75480000Y-128985000D02*
X75480000Y-147860000D01*
X75480000Y-128985000D02*
X75539435Y-128985000D01*
X75480000Y-147860000D02*
X75814970Y-147860000D01*
X76635030Y-147860000D02*
X76970000Y-147860000D01*
X76910565Y-128985000D02*
X76970000Y-128985000D01*
X76970000Y-128985000D02*
X76970000Y-147860000D01*
%TO.C,C8*%
X61355000Y-54055000D02*
X61503000Y-54055000D01*
X61355000Y-57295000D02*
X61355000Y-54055000D01*
X61503000Y-57295000D02*
X61355000Y-57295000D01*
X63447000Y-54055000D02*
X63595000Y-54055000D01*
X63595000Y-54055000D02*
X63595000Y-57295000D01*
X63595000Y-57295000D02*
X63447000Y-57295000D01*
%TO.C,R9*%
X205985000Y-34930000D02*
X212525000Y-34930000D01*
X205985000Y-35260000D02*
X205985000Y-34930000D01*
X205985000Y-37340000D02*
X205985000Y-37670000D01*
X205985000Y-37670000D02*
X212525000Y-37670000D01*
X212525000Y-34930000D02*
X212525000Y-35260000D01*
X212525000Y-37670000D02*
X212525000Y-37340000D01*
%TO.C,R18*%
X55670000Y-40830000D02*
X62210000Y-40830000D01*
X55670000Y-41160000D02*
X55670000Y-40830000D01*
X55670000Y-43240000D02*
X55670000Y-43570000D01*
X55670000Y-43570000D02*
X62210000Y-43570000D01*
X62210000Y-40830000D02*
X62210000Y-41160000D01*
X62210000Y-43570000D02*
X62210000Y-43240000D01*
%TO.C,J2*%
X143069652Y-70070000D02*
X143069652Y-69325000D01*
X143804652Y-70070000D02*
X143069652Y-70070000D01*
X144539652Y-68580000D02*
X163414652Y-68580000D01*
X144539652Y-68639435D02*
X144539652Y-68580000D01*
X144539652Y-70070000D02*
X144539652Y-70010565D01*
X144539652Y-70070000D02*
X163414652Y-70070000D01*
X163414652Y-68914970D02*
X163414652Y-68580000D01*
X163414652Y-70070000D02*
X163414652Y-69735030D01*
%TO.C,JP1*%
X49380000Y-56561590D02*
X49380000Y-47686590D01*
X49439435Y-56561590D02*
X49380000Y-56561590D01*
X49714970Y-47686590D02*
X49380000Y-47686590D01*
X50870000Y-47686590D02*
X50535030Y-47686590D01*
X50870000Y-56561590D02*
X50810565Y-56561590D01*
X50870000Y-56561590D02*
X50870000Y-47686590D01*
X50870000Y-57296590D02*
X50870000Y-58031590D01*
X50870000Y-58031590D02*
X50125000Y-58031590D01*
%TD*%
M02*
