%TF.GenerationSoftware,KiCad,Pcbnew,10.0.5*%
%TF.CreationDate,2026-08-21T15:51:31+03:00*%
%TF.ProjectId,Nixie,4e697869-652e-46b6-9963-61645f706362,rev?*%
%TF.SameCoordinates,Original*%
%TF.FileFunction,Paste,Top*%
%TF.FilePolarity,Positive*%
%FSLAX46Y46*%
G04 Gerber Fmt 4.6, Leading zero omitted, Abs format (unit mm)*
G04 Created by KiCad (PCBNEW 10.0.5) date 2026-08-21 15:51:31*
%MOMM*%
%LPD*%
G01*
G04 APERTURE LIST*
G04 Aperture macros list*
%AMRoundRect*
0 Rectangle with rounded corners*
0 $1 Rounding radius*
0 $2 $3 $4 $5 $6 $7 $8 $9 X,Y pos of 4 corners*
0 Add a 4 corners polygon primitive as box body*
4,1,4,$2,$3,$4,$5,$6,$7,$8,$9,$2,$3,0*
0 Add four circle primitives for the rounded corners*
1,1,$1+$1,$2,$3*
1,1,$1+$1,$4,$5*
1,1,$1+$1,$6,$7*
1,1,$1+$1,$8,$9*
0 Add four rect primitives between the rounded corners*
20,1,$1+$1,$2,$3,$4,$5,0*
20,1,$1+$1,$4,$5,$6,$7,0*
20,1,$1+$1,$6,$7,$8,$9,0*
20,1,$1+$1,$8,$9,$2,$3,0*%
G04 Aperture macros list end*
%ADD10R,1.600000X1.000000*%
%ADD11RoundRect,0.150000X-0.587500X-0.150000X0.587500X-0.150000X0.587500X0.150000X-0.587500X0.150000X0*%
%ADD12R,1.900000X0.600000*%
%ADD13R,0.600000X1.900000*%
%ADD14RoundRect,0.162500X-0.617500X-0.162500X0.617500X-0.162500X0.617500X0.162500X-0.617500X0.162500X0*%
G04 APERTURE END LIST*
D10*
%TO.C,D4*%
X165965000Y-53771590D03*
X160965000Y-53771590D03*
X160965000Y-50571590D03*
X165965000Y-50571590D03*
%TD*%
D11*
%TO.C,Q1*%
X247400000Y-65562500D03*
X247400000Y-67462500D03*
X249275000Y-66512500D03*
%TD*%
D10*
%TO.C,D6*%
X188845000Y-53771590D03*
X183845000Y-53771590D03*
X183845000Y-50571590D03*
X188845000Y-50571590D03*
%TD*%
D12*
%TO.C,U3*%
X225525000Y-48171590D03*
X225525000Y-48971590D03*
X225525000Y-49771590D03*
X225525000Y-50571590D03*
X225525000Y-51371590D03*
X225525000Y-52171590D03*
X225525000Y-52971590D03*
X225525000Y-53771590D03*
X225525000Y-54571590D03*
X225525000Y-55371590D03*
X225525000Y-56171590D03*
D13*
X228025000Y-58671590D03*
X228825000Y-58671590D03*
X229625000Y-58671590D03*
X230425000Y-58671590D03*
X231225000Y-58671590D03*
X232025000Y-58671590D03*
X232825000Y-58671590D03*
X233625000Y-58671590D03*
X234425000Y-58671590D03*
X235225000Y-58671590D03*
X236025000Y-58671590D03*
D12*
X238525000Y-56171590D03*
X238525000Y-55371590D03*
X238525000Y-54571590D03*
X238525000Y-53771590D03*
X238525000Y-52971590D03*
X238525000Y-52171590D03*
X238525000Y-51371590D03*
X238525000Y-50571590D03*
X238525000Y-49771590D03*
X238525000Y-48971590D03*
X238525000Y-48171590D03*
D13*
X236025000Y-45671590D03*
X235225000Y-45671590D03*
X234425000Y-45671590D03*
X233625000Y-45671590D03*
X232825000Y-45671590D03*
X232025000Y-45671590D03*
X231225000Y-45671590D03*
X230425000Y-45671590D03*
X229625000Y-45671590D03*
X228825000Y-45671590D03*
X228025000Y-45671590D03*
%TD*%
D10*
%TO.C,D3*%
X143085000Y-53771590D03*
X138085000Y-53771590D03*
X138085000Y-50571590D03*
X143085000Y-50571590D03*
%TD*%
D12*
%TO.C,U2*%
X78525000Y-56171590D03*
X78525000Y-55371590D03*
X78525000Y-54571590D03*
X78525000Y-53771590D03*
X78525000Y-52971590D03*
X78525000Y-52171590D03*
X78525000Y-51371590D03*
X78525000Y-50571590D03*
X78525000Y-49771590D03*
X78525000Y-48971590D03*
X78525000Y-48171590D03*
D13*
X76025000Y-45671590D03*
X75225000Y-45671590D03*
X74425000Y-45671590D03*
X73625000Y-45671590D03*
X72825000Y-45671590D03*
X72025000Y-45671590D03*
X71225000Y-45671590D03*
X70425000Y-45671590D03*
X69625000Y-45671590D03*
X68825000Y-45671590D03*
X68025000Y-45671590D03*
D12*
X65525000Y-48171590D03*
X65525000Y-48971590D03*
X65525000Y-49771590D03*
X65525000Y-50571590D03*
X65525000Y-51371590D03*
X65525000Y-52171590D03*
X65525000Y-52971590D03*
X65525000Y-53771590D03*
X65525000Y-54571590D03*
X65525000Y-55371590D03*
X65525000Y-56171590D03*
D13*
X68025000Y-58671590D03*
X68825000Y-58671590D03*
X69625000Y-58671590D03*
X70425000Y-58671590D03*
X71225000Y-58671590D03*
X72025000Y-58671590D03*
X72825000Y-58671590D03*
X73625000Y-58671590D03*
X74425000Y-58671590D03*
X75225000Y-58671590D03*
X76025000Y-58671590D03*
%TD*%
D10*
%TO.C,D7*%
X211725000Y-53771590D03*
X206725000Y-53771590D03*
X206725000Y-50571590D03*
X211725000Y-50571590D03*
%TD*%
%TO.C,D2*%
X120205000Y-53771590D03*
X115205000Y-53771590D03*
X115205000Y-50571590D03*
X120205000Y-50571590D03*
%TD*%
D14*
%TO.C,U1*%
X240800000Y-65625000D03*
X240800000Y-66575000D03*
X240800000Y-67525000D03*
X243500000Y-67525000D03*
X243500000Y-65625000D03*
%TD*%
D10*
%TO.C,D1*%
X97325000Y-53771590D03*
X92325000Y-53771590D03*
X92325000Y-50571590D03*
X97325000Y-50571590D03*
%TD*%
M02*
