%TF.GenerationSoftware,KiCad,Pcbnew,10.0.5*%
%TF.CreationDate,2026-08-17T23:43:38+03:00*%
%TF.ProjectId,Nixie,4e697869-652e-46b6-9963-61645f706362,rev?*%
%TF.SameCoordinates,Original*%
%TF.FileFunction,Copper,L1,Top*%
%TF.FilePolarity,Positive*%
%FSLAX46Y46*%
G04 Gerber Fmt 4.6, Leading zero omitted, Abs format (unit mm)*
G04 Created by KiCad (PCBNEW 10.0.5) date 2026-08-17 23:43:38*
%MOMM*%
%LPD*%
G01*
G04 APERTURE LIST*
G04 Aperture macros list*
%AMRoundRect*
0 Rectangle with rounded corners*
0 $1 Rounding radius*
0 $2 $3 $4 $5 $6 $7 $8 $9 X,Y pos of 4 corners*
0 Add a 4 corners polygon primitive as box body*
4,1,4,$2,$3,$4,$5,$6,$7,$8,$9,$2,$3,0*
0 Add four circle primitives for the rounded corners*
1,1,$1+$1,$2,$3*
1,1,$1+$1,$4,$5*
1,1,$1+$1,$6,$7*
1,1,$1+$1,$8,$9*
0 Add four rect primitives between the rounded corners*
20,1,$1+$1,$2,$3,$4,$5,0*
20,1,$1+$1,$4,$5,$6,$7,0*
20,1,$1+$1,$6,$7,$8,$9,0*
20,1,$1+$1,$8,$9,$2,$3,0*%
G04 Aperture macros list end*
%TA.AperFunction,ComponentPad*%
%ADD10C,2.397760*%
%TD*%
%TA.AperFunction,ComponentPad*%
%ADD11C,1.600000*%
%TD*%
%TA.AperFunction,SMDPad,CuDef*%
%ADD12R,1.600000X1.000000*%
%TD*%
%TA.AperFunction,SMDPad,CuDef*%
%ADD13RoundRect,0.150000X-0.587500X-0.150000X0.587500X-0.150000X0.587500X0.150000X-0.587500X0.150000X0*%
%TD*%
%TA.AperFunction,ComponentPad*%
%ADD14R,1.800000X1.800000*%
%TD*%
%TA.AperFunction,ComponentPad*%
%ADD15C,1.800000*%
%TD*%
%TA.AperFunction,SMDPad,CuDef*%
%ADD16R,1.900000X0.600000*%
%TD*%
%TA.AperFunction,SMDPad,CuDef*%
%ADD17R,0.600000X1.900000*%
%TD*%
%TA.AperFunction,ComponentPad*%
%ADD18R,0.850000X0.850000*%
%TD*%
%TA.AperFunction,ComponentPad*%
%ADD19C,0.850000*%
%TD*%
%TA.AperFunction,SMDPad,CuDef*%
%ADD20RoundRect,0.162500X-0.617500X-0.162500X0.617500X-0.162500X0.617500X0.162500X-0.617500X0.162500X0*%
%TD*%
%TA.AperFunction,ViaPad*%
%ADD21C,0.508000*%
%TD*%
%TA.AperFunction,Conductor*%
%ADD22C,0.254000*%
%TD*%
%TA.AperFunction,Conductor*%
%ADD23C,0.152400*%
%TD*%
%TA.AperFunction,Conductor*%
%ADD24C,0.500000*%
%TD*%
G04 APERTURE END LIST*
D10*
%TO.P,N4,0,0_0*%
%TO.N,/40*%
X169263020Y-57294930D03*
%TO.P,N4,1,1_1*%
%TO.N,/31*%
X159517040Y-60795050D03*
%TO.P,N4,2,2_2*%
%TO.N,/32*%
X157766980Y-57294930D03*
%TO.P,N4,3,3_3*%
%TO.N,/33*%
X157766980Y-52796590D03*
%TO.P,N4,4,4_4*%
%TO.N,/34*%
X157766980Y-48298250D03*
%TO.P,N4,5,5_5*%
%TO.N,/35*%
X159517040Y-44798130D03*
%TO.P,N4,6,6_6*%
%TO.N,/36*%
X163515000Y-43797370D03*
%TO.P,N4,7,7_7*%
%TO.N,/37*%
X167512960Y-44798130D03*
%TO.P,N4,8,8_8*%
%TO.N,/38*%
X169263020Y-48298250D03*
%TO.P,N4,9,9_9*%
%TO.N,/39*%
X169263020Y-52796590D03*
%TO.P,N4,A,A_A*%
%TO.N,Net-(N4-PadA)*%
X167512960Y-60795050D03*
%TO.P,N4,LHDP,LHDP_LHDP*%
%TO.N,/DP3*%
X163515000Y-61795810D03*
%TD*%
%TO.P,N3,0,0_0*%
%TO.N,/30*%
X146383020Y-57294930D03*
%TO.P,N3,1,1_1*%
%TO.N,/21*%
X136637040Y-60795050D03*
%TO.P,N3,2,2_2*%
%TO.N,/22*%
X134886980Y-57294930D03*
%TO.P,N3,3,3_3*%
%TO.N,/23*%
X134886980Y-52796590D03*
%TO.P,N3,4,4_4*%
%TO.N,/24*%
X134886980Y-48298250D03*
%TO.P,N3,5,5_5*%
%TO.N,/25*%
X136637040Y-44798130D03*
%TO.P,N3,6,6_6*%
%TO.N,/26*%
X140635000Y-43797370D03*
%TO.P,N3,7,7_7*%
%TO.N,/27*%
X144632960Y-44798130D03*
%TO.P,N3,8,8_8*%
%TO.N,/28*%
X146383020Y-48298250D03*
%TO.P,N3,9,9_9*%
%TO.N,/29*%
X146383020Y-52796590D03*
%TO.P,N3,A,A_A*%
%TO.N,Net-(N3-PadA)*%
X144632960Y-60795050D03*
%TO.P,N3,LHDP,LHDP_LHDP*%
%TO.N,/DP2*%
X140635000Y-61795810D03*
%TD*%
D11*
%TO.P,R27,1*%
%TO.N,/OE*%
X244150000Y-40115000D03*
%TO.P,R27,2*%
%TO.N,GND*%
X244150000Y-47735000D03*
%TD*%
%TO.P,R12,1*%
%TO.N,Net-(J1-Pin_6)*%
X130116200Y-92846200D03*
%TO.P,R12,2*%
%TO.N,/B*%
X137736200Y-92846200D03*
%TD*%
%TO.P,R2,1*%
%TO.N,Net-(J1-Pin_2)*%
X130116200Y-101526200D03*
%TO.P,R2,2*%
%TO.N,/G*%
X137736200Y-101526200D03*
%TD*%
%TO.P,R21,1*%
%TO.N,Net-(J1-Pin_14)*%
X156406200Y-89326200D03*
%TO.P,R21,2*%
%TO.N,/G*%
X164026200Y-89326200D03*
%TD*%
D12*
%TO.P,D4,1,A_1*%
%TO.N,+5V*%
X166015000Y-54396590D03*
%TO.P,D4,2,RK_2*%
%TO.N,Net-(D4-RK)*%
X161015000Y-54396590D03*
%TO.P,D4,3,GK_3*%
%TO.N,Net-(D4-GK)*%
X161015000Y-51196590D03*
%TO.P,D4,4,BK_4*%
%TO.N,Net-(D4-BK)*%
X166015000Y-51196590D03*
%TD*%
D11*
%TO.P,R10,1*%
%TO.N,Net-(J1-Pin_4)*%
X130116200Y-85736200D03*
%TO.P,R10,2*%
%TO.N,/R*%
X137736200Y-85736200D03*
%TD*%
D13*
%TO.P,Q1,1,G_1*%
%TO.N,Net-(Q1-G)*%
X247450000Y-66187500D03*
%TO.P,Q1,2,S_2*%
%TO.N,GND*%
X247450000Y-68087500D03*
%TO.P,Q1,3,D_3*%
%TO.N,/DP5*%
X249325000Y-67137500D03*
%TD*%
D12*
%TO.P,D6,1,A_1*%
%TO.N,+5V*%
X188895000Y-54396590D03*
%TO.P,D6,2,RK_2*%
%TO.N,Net-(D6-RK)*%
X183895000Y-54396590D03*
%TO.P,D6,3,GK_3*%
%TO.N,Net-(D6-GK)*%
X183895000Y-51196590D03*
%TO.P,D6,4,BK_4*%
%TO.N,Net-(D6-BK)*%
X188895000Y-51196590D03*
%TD*%
D14*
%TO.P,D5,1,K_1*%
%TO.N,GND*%
X50055000Y-42200000D03*
D15*
%TO.P,D5,2,A_2*%
%TO.N,Net-(D5-A)*%
X52595000Y-42200000D03*
%TD*%
D11*
%TO.P,R14,1*%
%TO.N,Net-(J1-Pin_8)*%
X143616200Y-89326200D03*
%TO.P,R14,2*%
%TO.N,/G*%
X151236200Y-89326200D03*
%TD*%
%TO.P,R7,1*%
%TO.N,VPP*%
X159685000Y-36300000D03*
%TO.P,R7,2*%
%TO.N,Net-(N4-PadA)*%
X167305000Y-36300000D03*
%TD*%
%TO.P,R25,1*%
%TO.N,Net-(J1-Pin_18)*%
X156406200Y-105046200D03*
%TO.P,R25,2*%
%TO.N,/B*%
X164026200Y-105046200D03*
%TD*%
%TO.P,R23,1*%
%TO.N,Net-(J1-Pin_16)*%
X156406200Y-97936200D03*
%TO.P,R23,2*%
%TO.N,/R*%
X164026200Y-97936200D03*
%TD*%
%TO.P,R11,1*%
%TO.N,Net-(J1-Pin_5)*%
X130116200Y-89326200D03*
%TO.P,R11,2*%
%TO.N,/G*%
X137736200Y-89326200D03*
%TD*%
%TO.P,R5,1*%
%TO.N,VPP*%
X113245000Y-36300000D03*
%TO.P,R5,2*%
%TO.N,Net-(N2-PadA)*%
X120865000Y-36300000D03*
%TD*%
%TO.P,R6,1*%
%TO.N,VPP*%
X136805000Y-36300000D03*
%TO.P,R6,2*%
%TO.N,Net-(N3-PadA)*%
X144425000Y-36300000D03*
%TD*%
D10*
%TO.P,N6,0,0_0*%
%TO.N,/60*%
X215023020Y-57294930D03*
%TO.P,N6,1,1_1*%
%TO.N,/51*%
X205277040Y-60795050D03*
%TO.P,N6,2,2_2*%
%TO.N,/52*%
X203526980Y-57294930D03*
%TO.P,N6,3,3_3*%
%TO.N,/53*%
X203526980Y-52796590D03*
%TO.P,N6,4,4_4*%
%TO.N,/54*%
X203526980Y-48298250D03*
%TO.P,N6,5,5_5*%
%TO.N,/55*%
X205277040Y-44798130D03*
%TO.P,N6,6,6_6*%
%TO.N,/56*%
X209275000Y-43797370D03*
%TO.P,N6,7,7_7*%
%TO.N,/57*%
X213272960Y-44798130D03*
%TO.P,N6,8,8_8*%
%TO.N,/58*%
X215023020Y-48298250D03*
%TO.P,N6,9,9_9*%
%TO.N,/59*%
X215023020Y-52796590D03*
%TO.P,N6,A,A_A*%
%TO.N,Net-(N6-PadA)*%
X213272960Y-60795050D03*
%TO.P,N6,LHDP,LHDP_LHDP*%
%TO.N,/DP5*%
X209275000Y-61795810D03*
%TD*%
D16*
%TO.P,U3,1,HV_11_1*%
%TO.N,/43*%
X225575000Y-48796590D03*
%TO.P,U3,2,HV_12_2*%
%TO.N,/44*%
X225575000Y-49596590D03*
%TO.P,U3,3,HV_13_3*%
%TO.N,/45*%
X225575000Y-50396590D03*
%TO.P,U3,4,HV_14_4*%
%TO.N,/46*%
X225575000Y-51196590D03*
%TO.P,U3,5,HV_15_5*%
%TO.N,/47*%
X225575000Y-51996590D03*
%TO.P,U3,6,HV_16_6*%
%TO.N,/48*%
X225575000Y-52796590D03*
%TO.P,U3,7,HV_17_7*%
%TO.N,/49*%
X225575000Y-53596590D03*
%TO.P,U3,8,HV_18_8*%
%TO.N,/50*%
X225575000Y-54396590D03*
%TO.P,U3,9,HV_19_9*%
%TO.N,/51*%
X225575000Y-55196590D03*
%TO.P,U3,10,HV_20_10*%
%TO.N,/52*%
X225575000Y-55996590D03*
%TO.P,U3,11,HV_21_11*%
%TO.N,/53*%
X225575000Y-56796590D03*
D17*
%TO.P,U3,12,HV_22_12*%
%TO.N,/54*%
X228075000Y-59296590D03*
%TO.P,U3,13,HV_23_13*%
%TO.N,/55*%
X228875000Y-59296590D03*
%TO.P,U3,14,HV_24_14*%
%TO.N,/56*%
X229675000Y-59296590D03*
%TO.P,U3,15,HV_25_15*%
%TO.N,/57*%
X230475000Y-59296590D03*
%TO.P,U3,16,HV_26_16*%
%TO.N,/58*%
X231275000Y-59296590D03*
%TO.P,U3,17,HV_27_17*%
%TO.N,/59*%
X232075000Y-59296590D03*
%TO.P,U3,18,HV_28_18*%
%TO.N,/60*%
X232875000Y-59296590D03*
%TO.P,U3,19,HV_29_19*%
%TO.N,/DP1*%
X233675000Y-59296590D03*
%TO.P,U3,20,HV_30_20*%
%TO.N,/DP2*%
X234475000Y-59296590D03*
%TO.P,U3,21,HV_31_21*%
%TO.N,/DP3*%
X235275000Y-59296590D03*
%TO.P,U3,22,HV_32_22*%
%TO.N,/DP4*%
X236075000Y-59296590D03*
D16*
%TO.P,U3,23,Data_Out_23*%
%TO.N,Net-(U1-D)*%
X238575000Y-56796590D03*
%TO.P,U3,24,NC_24*%
%TO.N,unconnected-(U3-NC-Pad24)*%
X238575000Y-55996590D03*
%TO.P,U3,25,NC_25*%
%TO.N,unconnected-(U3-NC-Pad25)*%
X238575000Y-55196590D03*
%TO.P,U3,26,NC_26*%
%TO.N,unconnected-(U3-NC-Pad26)*%
X238575000Y-54396590D03*
%TO.P,U3,27,NC_27*%
%TO.N,unconnected-(U3-NC-Pad27)*%
X238575000Y-53596590D03*
%TO.P,U3,28,Output_Enable_28*%
%TO.N,/OE*%
X238575000Y-52796590D03*
%TO.P,U3,29,Clock_29*%
%TO.N,/CLK*%
X238575000Y-51996590D03*
%TO.P,U3,30,GND_30*%
%TO.N,GND*%
X238575000Y-51196590D03*
%TO.P,U3,31,VDD_31*%
%TO.N,+5V*%
X238575000Y-50396590D03*
%TO.P,U3,32,Strobe_32*%
%TO.N,/SRB*%
X238575000Y-49596590D03*
%TO.P,U3,33,Data_In_33*%
%TO.N,Net-(U2-Data_Out)*%
X238575000Y-48796590D03*
D17*
%TO.P,U3,34*%
%TO.N,unconnected-(U3-Pad34)*%
X236075000Y-46296590D03*
%TO.P,U3,35,HV_1_35*%
%TO.N,/33*%
X235275000Y-46296590D03*
%TO.P,U3,36,HV_2_36*%
%TO.N,/34*%
X234475000Y-46296590D03*
%TO.P,U3,37,HV_3_37*%
%TO.N,/35*%
X233675000Y-46296590D03*
%TO.P,U3,38,HV_4_38*%
%TO.N,/36*%
X232875000Y-46296590D03*
%TO.P,U3,39,HV_5_39*%
%TO.N,/37*%
X232075000Y-46296590D03*
%TO.P,U3,40,HV_6_40*%
%TO.N,/38*%
X231275000Y-46296590D03*
%TO.P,U3,41,HV_7_41*%
%TO.N,/39*%
X230475000Y-46296590D03*
%TO.P,U3,42,HV_8_42*%
%TO.N,/40*%
X229675000Y-46296590D03*
%TO.P,U3,43,HV_9_43*%
%TO.N,/41*%
X228875000Y-46296590D03*
%TO.P,U3,44,HV_10_44*%
%TO.N,/42*%
X228075000Y-46296590D03*
%TD*%
D11*
%TO.P,R17,1*%
%TO.N,Net-(J1-Pin_11)*%
X143616200Y-101456200D03*
%TO.P,R17,2*%
%TO.N,/G*%
X151236200Y-101456200D03*
%TD*%
%TO.P,R8,1*%
%TO.N,VPP*%
X182565000Y-36300000D03*
%TO.P,R8,2*%
%TO.N,Net-(N5-PadA)*%
X190185000Y-36300000D03*
%TD*%
%TO.P,R19,1*%
%TO.N,Net-(J1-Pin_12)*%
X143616200Y-105046200D03*
%TO.P,R19,2*%
%TO.N,/B*%
X151236200Y-105046200D03*
%TD*%
D10*
%TO.P,N1,0,0_0*%
%TO.N,/10*%
X100623020Y-57294930D03*
%TO.P,N1,1,1_1*%
%TO.N,/1*%
X90877040Y-60795050D03*
%TO.P,N1,2,2_2*%
%TO.N,/2*%
X89126980Y-57294930D03*
%TO.P,N1,3,3_3*%
%TO.N,/3*%
X89126980Y-52796590D03*
%TO.P,N1,4,4_4*%
%TO.N,/4*%
X89126980Y-48298250D03*
%TO.P,N1,5,5_5*%
%TO.N,/5*%
X90877040Y-44798130D03*
%TO.P,N1,6,6_6*%
%TO.N,/6*%
X94875000Y-43797370D03*
%TO.P,N1,7,7_7*%
%TO.N,/7*%
X98872960Y-44798130D03*
%TO.P,N1,8,8_8*%
%TO.N,/8*%
X100623020Y-48298250D03*
%TO.P,N1,9,9_9*%
%TO.N,/9*%
X100623020Y-52796590D03*
%TO.P,N1,A,A_A*%
%TO.N,Net-(N1-PadA)*%
X98872960Y-60795050D03*
%TO.P,N1,LHDP,LHDP_LHDP*%
%TO.N,unconnected-(N1-PadLHDP)*%
X94875000Y-61795810D03*
%TD*%
D18*
%TO.P,J3,1,Pin_1_1*%
%TO.N,/R*%
X147770600Y-81436200D03*
D19*
%TO.P,J3,2,Pin_2_2*%
%TO.N,/G*%
X146770600Y-81436200D03*
%TO.P,J3,3,Pin_3_3*%
%TO.N,/B*%
X145770600Y-81436200D03*
%TD*%
D11*
%TO.P,C6,1*%
%TO.N,+5V*%
X59875000Y-56925000D03*
%TO.P,C6,2*%
%TO.N,GND*%
X59875000Y-54425000D03*
%TD*%
%TO.P,C9,1*%
%TO.N,+5V*%
X242925000Y-51175000D03*
%TO.P,C9,2*%
%TO.N,GND*%
X242925000Y-53675000D03*
%TD*%
%TO.P,R26,1*%
%TO.N,+5V*%
X230745000Y-36775000D03*
%TO.P,R26,2*%
%TO.N,/SRB*%
X223125000Y-36775000D03*
%TD*%
%TO.P,R1,1*%
%TO.N,Net-(J1-Pin_1)*%
X130116200Y-97936200D03*
%TO.P,R1,2*%
%TO.N,/R*%
X137736200Y-97936200D03*
%TD*%
D12*
%TO.P,D3,1,A_1*%
%TO.N,+5V*%
X143135000Y-54396590D03*
%TO.P,D3,2,RK_2*%
%TO.N,Net-(D3-RK)*%
X138135000Y-54396590D03*
%TO.P,D3,3,GK_3*%
%TO.N,Net-(D3-GK)*%
X138135000Y-51196590D03*
%TO.P,D3,4,BK_4*%
%TO.N,Net-(D3-BK)*%
X143135000Y-51196590D03*
%TD*%
D11*
%TO.P,C7,1*%
%TO.N,+5V*%
X245450000Y-51175000D03*
%TO.P,C7,2*%
%TO.N,GND*%
X245450000Y-53675000D03*
%TD*%
D16*
%TO.P,U2,1,HV_11_1*%
%TO.N,/11*%
X78575000Y-56796590D03*
%TO.P,U2,2,HV_12_2*%
%TO.N,/12*%
X78575000Y-55996590D03*
%TO.P,U2,3,HV_13_3*%
%TO.N,/13*%
X78575000Y-55196590D03*
%TO.P,U2,4,HV_14_4*%
%TO.N,/14*%
X78575000Y-54396590D03*
%TO.P,U2,5,HV_15_5*%
%TO.N,/15*%
X78575000Y-53596590D03*
%TO.P,U2,6,HV_16_6*%
%TO.N,/16*%
X78575000Y-52796590D03*
%TO.P,U2,7,HV_17_7*%
%TO.N,/17*%
X78575000Y-51996590D03*
%TO.P,U2,8,HV_18_8*%
%TO.N,/18*%
X78575000Y-51196590D03*
%TO.P,U2,9,HV_19_9*%
%TO.N,/19*%
X78575000Y-50396590D03*
%TO.P,U2,10,HV_20_10*%
%TO.N,/20*%
X78575000Y-49596590D03*
%TO.P,U2,11,HV_21_11*%
%TO.N,/21*%
X78575000Y-48796590D03*
D17*
%TO.P,U2,12,HV_22_12*%
%TO.N,/22*%
X76075000Y-46296590D03*
%TO.P,U2,13,HV_23_13*%
%TO.N,/23*%
X75275000Y-46296590D03*
%TO.P,U2,14,HV_24_14*%
%TO.N,/24*%
X74475000Y-46296590D03*
%TO.P,U2,15,HV_25_15*%
%TO.N,/25*%
X73675000Y-46296590D03*
%TO.P,U2,16,HV_26_16*%
%TO.N,/26*%
X72875000Y-46296590D03*
%TO.P,U2,17,HV_27_17*%
%TO.N,/27*%
X72075000Y-46296590D03*
%TO.P,U2,18,HV_28_18*%
%TO.N,/28*%
X71275000Y-46296590D03*
%TO.P,U2,19,HV_29_19*%
%TO.N,/29*%
X70475000Y-46296590D03*
%TO.P,U2,20,HV_30_20*%
%TO.N,/30*%
X69675000Y-46296590D03*
%TO.P,U2,21,HV_31_21*%
%TO.N,/31*%
X68875000Y-46296590D03*
%TO.P,U2,22,HV_32_22*%
%TO.N,/32*%
X68075000Y-46296590D03*
D16*
%TO.P,U2,23,Data_Out_23*%
%TO.N,Net-(U2-Data_Out)*%
X65575000Y-48796590D03*
%TO.P,U2,24,NC_24*%
%TO.N,unconnected-(U2-NC-Pad24)*%
X65575000Y-49596590D03*
%TO.P,U2,25,NC_25*%
%TO.N,unconnected-(U2-NC-Pad25)*%
X65575000Y-50396590D03*
%TO.P,U2,26,NC_26*%
%TO.N,unconnected-(U2-NC-Pad26)*%
X65575000Y-51196590D03*
%TO.P,U2,27,NC_27*%
%TO.N,unconnected-(U2-NC-Pad27)*%
X65575000Y-51996590D03*
%TO.P,U2,28,Output_Enable_28*%
%TO.N,/OE*%
X65575000Y-52796590D03*
%TO.P,U2,29,Clock_29*%
%TO.N,/CLK*%
X65575000Y-53596590D03*
%TO.P,U2,30,GND_30*%
%TO.N,GND*%
X65575000Y-54396590D03*
%TO.P,U2,31,VDD_31*%
%TO.N,+5V*%
X65575000Y-55196590D03*
%TO.P,U2,32,Strobe_32*%
%TO.N,/SRB*%
X65575000Y-55996590D03*
%TO.P,U2,33,Data_In_33*%
%TO.N,/DIN*%
X65575000Y-56796590D03*
D17*
%TO.P,U2,34*%
%TO.N,unconnected-(U2-Pad34)*%
X68075000Y-59296590D03*
%TO.P,U2,35,HV_1_35*%
%TO.N,/1*%
X68875000Y-59296590D03*
%TO.P,U2,36,HV_2_36*%
%TO.N,/2*%
X69675000Y-59296590D03*
%TO.P,U2,37,HV_3_37*%
%TO.N,/3*%
X70475000Y-59296590D03*
%TO.P,U2,38,HV_4_38*%
%TO.N,/4*%
X71275000Y-59296590D03*
%TO.P,U2,39,HV_5_39*%
%TO.N,/5*%
X72075000Y-59296590D03*
%TO.P,U2,40,HV_6_40*%
%TO.N,/6*%
X72875000Y-59296590D03*
%TO.P,U2,41,HV_7_41*%
%TO.N,/7*%
X73675000Y-59296590D03*
%TO.P,U2,42,HV_8_42*%
%TO.N,/8*%
X74475000Y-59296590D03*
%TO.P,U2,43,HV_9_43*%
%TO.N,/9*%
X75275000Y-59296590D03*
%TO.P,U2,44,HV_10_44*%
%TO.N,/10*%
X76075000Y-59296590D03*
%TD*%
D10*
%TO.P,N2,0,0_0*%
%TO.N,/20*%
X123503020Y-57294930D03*
%TO.P,N2,1,1_1*%
%TO.N,/11*%
X113757040Y-60795050D03*
%TO.P,N2,2,2_2*%
%TO.N,/12*%
X112006980Y-57294930D03*
%TO.P,N2,3,3_3*%
%TO.N,/13*%
X112006980Y-52796590D03*
%TO.P,N2,4,4_4*%
%TO.N,/14*%
X112006980Y-48298250D03*
%TO.P,N2,5,5_5*%
%TO.N,/15*%
X113757040Y-44798130D03*
%TO.P,N2,6,6_6*%
%TO.N,/16*%
X117755000Y-43797370D03*
%TO.P,N2,7,7_7*%
%TO.N,/17*%
X121752960Y-44798130D03*
%TO.P,N2,8,8_8*%
%TO.N,/18*%
X123503020Y-48298250D03*
%TO.P,N2,9,9_9*%
%TO.N,/19*%
X123503020Y-52796590D03*
%TO.P,N2,A,A_A*%
%TO.N,Net-(N2-PadA)*%
X121752960Y-60795050D03*
%TO.P,N2,LHDP,LHDP_LHDP*%
%TO.N,/DP1*%
X117755000Y-61795810D03*
%TD*%
D11*
%TO.P,R24,1*%
%TO.N,Net-(J1-Pin_17)*%
X156406200Y-101526200D03*
%TO.P,R24,2*%
%TO.N,/G*%
X164026200Y-101526200D03*
%TD*%
%TO.P,R4,1*%
%TO.N,VPP*%
X91045000Y-36300000D03*
%TO.P,R4,2*%
%TO.N,Net-(N1-PadA)*%
X98665000Y-36300000D03*
%TD*%
%TO.P,R13,1*%
%TO.N,Net-(J1-Pin_7)*%
X143616200Y-85736200D03*
%TO.P,R13,2*%
%TO.N,/R*%
X151236200Y-85736200D03*
%TD*%
%TO.P,R16,1*%
%TO.N,Net-(J1-Pin_10)*%
X143616200Y-97936200D03*
%TO.P,R16,2*%
%TO.N,/R*%
X151236200Y-97936200D03*
%TD*%
D10*
%TO.P,N5,0,0_0*%
%TO.N,/50*%
X192143020Y-57294930D03*
%TO.P,N5,1,1_1*%
%TO.N,/41*%
X182397040Y-60795050D03*
%TO.P,N5,2,2_2*%
%TO.N,/42*%
X180646980Y-57294930D03*
%TO.P,N5,3,3_3*%
%TO.N,/43*%
X180646980Y-52796590D03*
%TO.P,N5,4,4_4*%
%TO.N,/44*%
X180646980Y-48298250D03*
%TO.P,N5,5,5_5*%
%TO.N,/45*%
X182397040Y-44798130D03*
%TO.P,N5,6,6_6*%
%TO.N,/46*%
X186395000Y-43797370D03*
%TO.P,N5,7,7_7*%
%TO.N,/47*%
X190392960Y-44798130D03*
%TO.P,N5,8,8_8*%
%TO.N,/48*%
X192143020Y-48298250D03*
%TO.P,N5,9,9_9*%
%TO.N,/49*%
X192143020Y-52796590D03*
%TO.P,N5,A,A_A*%
%TO.N,Net-(N5-PadA)*%
X190392960Y-60795050D03*
%TO.P,N5,LHDP,LHDP_LHDP*%
%TO.N,/DP4*%
X186395000Y-61795810D03*
%TD*%
D12*
%TO.P,D7,1,A_1*%
%TO.N,+5V*%
X211775000Y-54396590D03*
%TO.P,D7,2,RK_2*%
%TO.N,Net-(D7-RK)*%
X206775000Y-54396590D03*
%TO.P,D7,3,GK_3*%
%TO.N,Net-(D7-GK)*%
X206775000Y-51196590D03*
%TO.P,D7,4,BK_4*%
%TO.N,Net-(D7-BK)*%
X211775000Y-51196590D03*
%TD*%
D11*
%TO.P,R15,1*%
%TO.N,Net-(J1-Pin_9)*%
X143616200Y-92846200D03*
%TO.P,R15,2*%
%TO.N,/B*%
X151236200Y-92846200D03*
%TD*%
D12*
%TO.P,D2,1,A_1*%
%TO.N,+5V*%
X120255000Y-54396590D03*
%TO.P,D2,2,RK_2*%
%TO.N,Net-(D2-RK)*%
X115255000Y-54396590D03*
%TO.P,D2,3,GK_3*%
%TO.N,Net-(D2-GK)*%
X115255000Y-51196590D03*
%TO.P,D2,4,BK_4*%
%TO.N,Net-(D2-BK)*%
X120255000Y-51196590D03*
%TD*%
D11*
%TO.P,R22,1*%
%TO.N,Net-(J1-Pin_15)*%
X156406200Y-92846200D03*
%TO.P,R22,2*%
%TO.N,/B*%
X164026200Y-92846200D03*
%TD*%
D20*
%TO.P,U1,1,D_1*%
%TO.N,Net-(U1-D)*%
X240850000Y-66250000D03*
%TO.P,U1,2,C_2*%
%TO.N,/CLK*%
X240850000Y-67200000D03*
%TO.P,U1,3,GND_3*%
%TO.N,GND*%
X240850000Y-68150000D03*
%TO.P,U1,4,Q_4*%
%TO.N,Net-(Q1-G)*%
X243550000Y-68150000D03*
%TO.P,U1,5,VCC_5*%
%TO.N,+5V*%
X243550000Y-66250000D03*
%TD*%
D11*
%TO.P,R3,1*%
%TO.N,Net-(J1-Pin_3)*%
X130116200Y-105046200D03*
%TO.P,R3,2*%
%TO.N,/B*%
X137736200Y-105046200D03*
%TD*%
D12*
%TO.P,D1,1,A_1*%
%TO.N,+5V*%
X97375000Y-54396590D03*
%TO.P,D1,2,RK_2*%
%TO.N,Net-(D1-RK)*%
X92375000Y-54396590D03*
%TO.P,D1,3,GK_3*%
%TO.N,Net-(D1-GK)*%
X92375000Y-51196590D03*
%TO.P,D1,4,BK_4*%
%TO.N,Net-(D1-BK)*%
X97375000Y-51196590D03*
%TD*%
D11*
%TO.P,R20,1*%
%TO.N,Net-(J1-Pin_13)*%
X156406200Y-85736200D03*
%TO.P,R20,2*%
%TO.N,/R*%
X164026200Y-85736200D03*
%TD*%
D18*
%TO.P,J1,1,Pin_1_1*%
%TO.N,Net-(J1-Pin_1)*%
X138436200Y-111066200D03*
D19*
%TO.P,J1,2,Pin_2_2*%
%TO.N,Net-(J1-Pin_2)*%
X139436200Y-111066200D03*
%TO.P,J1,3,Pin_3_3*%
%TO.N,Net-(J1-Pin_3)*%
X140436200Y-111066200D03*
%TO.P,J1,4,Pin_4_4*%
%TO.N,Net-(J1-Pin_4)*%
X141436200Y-111066200D03*
%TO.P,J1,5,Pin_5_5*%
%TO.N,Net-(J1-Pin_5)*%
X142436200Y-111066200D03*
%TO.P,J1,6,Pin_6_6*%
%TO.N,Net-(J1-Pin_6)*%
X143436200Y-111066200D03*
%TO.P,J1,7,Pin_7_7*%
%TO.N,Net-(J1-Pin_7)*%
X144436200Y-111066200D03*
%TO.P,J1,8,Pin_8_8*%
%TO.N,Net-(J1-Pin_8)*%
X145436200Y-111066200D03*
%TO.P,J1,9,Pin_9_9*%
%TO.N,Net-(J1-Pin_9)*%
X146436200Y-111066200D03*
%TO.P,J1,10,Pin_10_10*%
%TO.N,Net-(J1-Pin_10)*%
X147436200Y-111066200D03*
%TO.P,J1,11,Pin_11_11*%
%TO.N,Net-(J1-Pin_11)*%
X148436200Y-111066200D03*
%TO.P,J1,12,Pin_12_12*%
%TO.N,Net-(J1-Pin_12)*%
X149436200Y-111066200D03*
%TO.P,J1,13,Pin_13_13*%
%TO.N,Net-(J1-Pin_13)*%
X150436200Y-111066200D03*
%TO.P,J1,14,Pin_14_14*%
%TO.N,Net-(J1-Pin_14)*%
X151436200Y-111066200D03*
%TO.P,J1,15,Pin_15_15*%
%TO.N,Net-(J1-Pin_15)*%
X152436200Y-111066200D03*
%TO.P,J1,16,Pin_16_16*%
%TO.N,Net-(J1-Pin_16)*%
X153436200Y-111066200D03*
%TO.P,J1,17,Pin_17_17*%
%TO.N,Net-(J1-Pin_17)*%
X154436200Y-111066200D03*
%TO.P,J1,18,Pin_18_18*%
%TO.N,Net-(J1-Pin_18)*%
X155436200Y-111066200D03*
%TO.P,J1,19,Pin_19_19*%
%TO.N,unconnected-(J1-Pin_19-Pad19)*%
X156436200Y-111066200D03*
%TO.P,J1,20,Pin_20_20*%
%TO.N,unconnected-(J1-Pin_20-Pad20)*%
X157436200Y-111066200D03*
%TD*%
D11*
%TO.P,C8,1*%
%TO.N,+5V*%
X62475000Y-56925000D03*
%TO.P,C8,2*%
%TO.N,GND*%
X62475000Y-54425000D03*
%TD*%
%TO.P,R9,1*%
%TO.N,VPP*%
X205445000Y-36300000D03*
%TO.P,R9,2*%
%TO.N,Net-(N6-PadA)*%
X213065000Y-36300000D03*
%TD*%
%TO.P,R18,1*%
%TO.N,Net-(D5-A)*%
X55130000Y-42200000D03*
%TO.P,R18,2*%
%TO.N,+5V*%
X62750000Y-42200000D03*
%TD*%
D18*
%TO.P,J2,1,Pin_1_1*%
%TO.N,Net-(D1-RK)*%
X143804652Y-69325000D03*
D19*
%TO.P,J2,2,Pin_2_2*%
%TO.N,Net-(D1-GK)*%
X144804652Y-69325000D03*
%TO.P,J2,3,Pin_3_3*%
%TO.N,Net-(D1-BK)*%
X145804652Y-69325000D03*
%TO.P,J2,4,Pin_4_4*%
%TO.N,Net-(D2-RK)*%
X146804652Y-69325000D03*
%TO.P,J2,5,Pin_5_5*%
%TO.N,Net-(D2-GK)*%
X147804652Y-69325000D03*
%TO.P,J2,6,Pin_6_6*%
%TO.N,Net-(D2-BK)*%
X148804652Y-69325000D03*
%TO.P,J2,7,Pin_7_7*%
%TO.N,Net-(D3-RK)*%
X149804652Y-69325000D03*
%TO.P,J2,8,Pin_8_8*%
%TO.N,Net-(D3-GK)*%
X150804652Y-69325000D03*
%TO.P,J2,9,Pin_9_9*%
%TO.N,Net-(D3-BK)*%
X151804652Y-69325000D03*
%TO.P,J2,10,Pin_10_10*%
%TO.N,Net-(D4-RK)*%
X152804652Y-69325000D03*
%TO.P,J2,11,Pin_11_11*%
%TO.N,Net-(D4-GK)*%
X153804652Y-69325000D03*
%TO.P,J2,12,Pin_12_12*%
%TO.N,Net-(D4-BK)*%
X154804652Y-69325000D03*
%TO.P,J2,13,Pin_13_13*%
%TO.N,Net-(D6-RK)*%
X155804652Y-69325000D03*
%TO.P,J2,14,Pin_14_14*%
%TO.N,Net-(D6-GK)*%
X156804652Y-69325000D03*
%TO.P,J2,15,Pin_15_15*%
%TO.N,Net-(D6-BK)*%
X157804652Y-69325000D03*
%TO.P,J2,16,Pin_16_16*%
%TO.N,Net-(D7-RK)*%
X158804652Y-69325000D03*
%TO.P,J2,17,Pin_17_17*%
%TO.N,Net-(D7-GK)*%
X159804652Y-69325000D03*
%TO.P,J2,18,Pin_18_18*%
%TO.N,Net-(D7-BK)*%
X160804652Y-69325000D03*
%TO.P,J2,19,Pin_19_19*%
%TO.N,unconnected-(J2-Pin_19-Pad19)*%
X161804652Y-69325000D03*
%TO.P,J2,20,Pin_20_20*%
%TO.N,unconnected-(J2-Pin_20-Pad20)*%
X162804652Y-69325000D03*
%TD*%
D18*
%TO.P,JP1,1,Pin_1_1*%
%TO.N,+5V*%
X50125000Y-57296590D03*
D19*
%TO.P,JP1,2,Pin_2_2*%
%TO.N,VPP*%
X50125000Y-56296590D03*
%TO.P,JP1,3,Pin_3_3*%
%TO.N,unconnected-(JP1-Pin_3-Pad3)*%
X50125000Y-55296590D03*
%TO.P,JP1,4,Pin_4_4*%
%TO.N,unconnected-(JP1-Pin_4-Pad4)*%
X50125000Y-54296590D03*
%TO.P,JP1,5,Pin_5_5*%
%TO.N,unconnected-(JP1-Pin_5-Pad5)*%
X50125000Y-53296590D03*
%TO.P,JP1,6,Pin_6_6*%
%TO.N,/DIN*%
X50125000Y-52296590D03*
%TO.P,JP1,7,Pin_7_7*%
%TO.N,/CLK*%
X50125000Y-51296590D03*
%TO.P,JP1,8,Pin_8_8*%
%TO.N,/OE*%
X50125000Y-50296590D03*
%TO.P,JP1,9,Pin_9_9*%
%TO.N,/SRB*%
X50125000Y-49296590D03*
%TO.P,JP1,10,Pin_10_10*%
%TO.N,GND*%
X50125000Y-48296590D03*
%TD*%
D21*
%TO.N,/40*%
X229125000Y-44275000D03*
%TO.N,/31*%
X68250000Y-43200000D03*
%TO.N,/32*%
X67350000Y-44025000D03*
%TO.N,/33*%
X236194800Y-42800000D03*
%TO.N,/34*%
X234725000Y-43700000D03*
%TO.N,/35*%
X233710000Y-42864538D03*
%TO.N,/36*%
X232824788Y-42316657D03*
%TO.N,/37*%
X231753581Y-42457818D03*
%TO.N,/38*%
X230825000Y-42850000D03*
%TO.N,/39*%
X229925000Y-43625000D03*
%TO.N,/DP3*%
X235250000Y-69450000D03*
%TO.N,/30*%
X69075000Y-42225000D03*
%TO.N,/21*%
X78275000Y-60675000D03*
X127675000Y-69977000D03*
X110350000Y-70975000D03*
X95975000Y-69000000D03*
%TO.N,/23*%
X76337500Y-44275000D03*
%TO.N,/24*%
X76337500Y-42737500D03*
%TO.N,/25*%
X76225000Y-41050000D03*
%TO.N,/26*%
X76225000Y-39450000D03*
%TO.N,/27*%
X76175000Y-37750000D03*
%TO.N,/28*%
X72525000Y-39550000D03*
%TO.N,/29*%
X70250000Y-41450000D03*
%TO.N,/DP2*%
X144050000Y-71125000D03*
X234475000Y-67650000D03*
X192925000Y-72725000D03*
X140635000Y-65375000D03*
%TO.N,/OE*%
X241050000Y-52775000D03*
X240725000Y-48650000D03*
X45175000Y-50275000D03*
X48253410Y-50296590D03*
%TO.N,GND*%
X238825000Y-70175000D03*
%TO.N,+5V*%
X109000000Y-73425000D03*
X165475000Y-71125000D03*
X188425000Y-73425000D03*
X62725000Y-45525000D03*
X165475000Y-73425000D03*
X165475000Y-69000000D03*
X188400000Y-70925000D03*
X126250000Y-68425000D03*
X165475000Y-66375000D03*
X59875000Y-60175000D03*
X59875000Y-58500000D03*
X109025000Y-69775000D03*
X143175000Y-57675000D03*
%TO.N,/DP5*%
X212450000Y-72225000D03*
X210400000Y-72225000D03*
%TO.N,Net-(N2-PadA)*%
X126431000Y-60795050D03*
%TO.N,/51*%
X222800000Y-63845000D03*
X205450000Y-66854676D03*
%TO.N,/52*%
X203600000Y-66854676D03*
X224250000Y-63050000D03*
%TO.N,/53*%
X225550000Y-62525000D03*
X204100000Y-65275000D03*
%TO.N,Net-(N6-PadA)*%
X200225000Y-50200000D03*
%TO.N,/43*%
X200150000Y-64050000D03*
X222275000Y-48350000D03*
%TO.N,/44*%
X201275000Y-65025000D03*
X220800000Y-48350000D03*
%TO.N,/45*%
X220825000Y-49950000D03*
X202250000Y-65925000D03*
%TO.N,/46*%
X202613525Y-68124362D03*
X220800000Y-51196590D03*
%TO.N,/47*%
X220775000Y-52775000D03*
X203250000Y-68994000D03*
%TO.N,/48*%
X221350000Y-54000000D03*
X204250000Y-69580000D03*
%TO.N,/49*%
X201250000Y-70319000D03*
X221625000Y-57225000D03*
%TO.N,/50*%
X203275000Y-71215000D03*
X222690000Y-55811398D03*
%TO.N,/DP1*%
X137525000Y-70450000D03*
X233725000Y-70475000D03*
%TO.N,/DP4*%
X236075000Y-68950000D03*
%TO.N,/CLK*%
X240375000Y-49225000D03*
X239150000Y-67150000D03*
X46225000Y-51300000D03*
X240375000Y-51950000D03*
X48253410Y-51296590D03*
%TO.N,/SRB*%
X65650000Y-35375000D03*
X65650000Y-37600000D03*
%TO.N,Net-(U2-Data_Out)*%
X46225000Y-46500000D03*
X52300000Y-49975000D03*
%TO.N,Net-(N5-PadA)*%
X174975000Y-58825000D03*
%TO.N,/10*%
X78175000Y-62825000D03*
X100500000Y-63650000D03*
%TO.N,/7*%
X73950000Y-62800000D03*
X105650000Y-57200000D03*
%TO.N,/8*%
X104375000Y-58350000D03*
X75450000Y-62750000D03*
%TO.N,/9*%
X76850000Y-62800000D03*
X103225000Y-62100000D03*
%TO.N,Net-(N1-PadA)*%
X106375000Y-54275000D03*
X106375000Y-37193490D03*
X106375000Y-42900000D03*
%TO.N,/11*%
X79950000Y-62725000D03*
X100940000Y-68173000D03*
%TO.N,/12*%
X81600000Y-62750000D03*
X100940000Y-67150000D03*
%TO.N,/13*%
X100940000Y-66000000D03*
X83125000Y-62750000D03*
%TO.N,/14*%
X83500000Y-61125000D03*
X100940000Y-64991997D03*
%TO.N,/20*%
X124725000Y-66844000D03*
X76125000Y-52050000D03*
%TD*%
%TO.N,/40*%
D22*
X229675000Y-44825000D02*
X229125000Y-44275000D01*
X229675000Y-46296590D02*
X229675000Y-44825000D01*
%TO.N,/31*%
X68875000Y-43825000D02*
X68250000Y-43200000D01*
X68875000Y-46296590D02*
X68875000Y-43825000D01*
%TO.N,/32*%
X68075000Y-44750000D02*
X67350000Y-44025000D01*
X68075000Y-46296590D02*
X68075000Y-44750000D01*
X67350000Y-44025000D02*
X67200000Y-43875000D01*
%TO.N,/33*%
X235275000Y-44395923D02*
X235606000Y-44064923D01*
X235606000Y-44064923D02*
X235606000Y-43131000D01*
X235606000Y-43131000D02*
X235937000Y-42800000D01*
X235275000Y-46296590D02*
X235275000Y-44395923D01*
X235937000Y-42800000D02*
X236225000Y-42800000D01*
%TO.N,/34*%
X234510000Y-43915000D02*
X234725000Y-43700000D01*
X234429000Y-46250590D02*
X234429000Y-44662318D01*
X234429000Y-44662318D02*
X234510000Y-44581317D01*
X234475000Y-46296590D02*
X234429000Y-46250590D01*
X234510000Y-44581317D02*
X234510000Y-43915000D01*
%TO.N,/35*%
X233756000Y-44269000D02*
X233675000Y-44350000D01*
X233756000Y-42910538D02*
X233756000Y-44269000D01*
X233710000Y-42864538D02*
X233756000Y-42910538D01*
X233675000Y-44350000D02*
X233675000Y-46296590D01*
%TO.N,/36*%
X232824788Y-42316657D02*
X232824788Y-42425212D01*
X232875000Y-43525000D02*
X232875000Y-46296590D01*
X232829000Y-42466920D02*
X232829000Y-43479000D01*
X232829000Y-43479000D02*
X232875000Y-43525000D01*
X232806040Y-42443960D02*
X232829000Y-42466920D01*
X232824788Y-42425212D02*
X232806040Y-42443960D01*
%TO.N,/37*%
X232075000Y-46296590D02*
X232075000Y-42779237D01*
X232075000Y-42779237D02*
X231753581Y-42457818D01*
%TO.N,/38*%
X231275000Y-46296590D02*
X231275000Y-43300000D01*
X231275000Y-43300000D02*
X230825000Y-42850000D01*
%TO.N,/39*%
X230475000Y-46296590D02*
X230475000Y-44175000D01*
X230475000Y-44175000D02*
X229925000Y-43625000D01*
%TO.N,Net-(N4-PadA)*%
D23*
X167305000Y-36300000D02*
X172675000Y-41670000D01*
X172675000Y-41670000D02*
X172675000Y-57328482D01*
X169208432Y-60795050D02*
X167512960Y-60795050D01*
X172675000Y-57328482D02*
X169208432Y-60795050D01*
%TO.N,/DP3*%
X235275000Y-59296590D02*
X235275000Y-69425000D01*
X235275000Y-69425000D02*
X235250000Y-69450000D01*
%TO.N,/30*%
D22*
X69675000Y-42825000D02*
X69075000Y-42225000D01*
X69675000Y-46296590D02*
X69675000Y-42825000D01*
%TO.N,/21*%
X97971800Y-71121800D02*
X101321800Y-71121800D01*
X127737682Y-70039682D02*
X127675000Y-69977000D01*
X127675000Y-69977000D02*
X127675000Y-65573228D01*
X101391600Y-71052000D02*
X108988266Y-71052000D01*
X78575000Y-48796590D02*
X77104682Y-48796590D01*
X95975000Y-69125000D02*
X97971800Y-71121800D01*
X75244000Y-50657273D02*
X75244000Y-56761590D01*
X77104682Y-48796590D02*
X75244000Y-50657273D01*
X108988266Y-71052000D02*
X109065265Y-70975000D01*
X78275000Y-59792590D02*
X78275000Y-60675000D01*
X109065265Y-70975000D02*
X110350000Y-70975000D01*
X127675000Y-65573228D02*
X132453178Y-60795050D01*
X75244000Y-56761590D02*
X78275000Y-59792590D01*
X95975000Y-69000000D02*
X95975000Y-69125000D01*
X132453178Y-60795050D02*
X136637040Y-60795050D01*
X101321800Y-71121800D02*
X101391600Y-71052000D01*
%TO.N,/22*%
X126082900Y-51283028D02*
X125550000Y-51815928D01*
X125550000Y-51815928D02*
X125550000Y-64800000D01*
X126082900Y-44413250D02*
X126082900Y-51283028D01*
X88620593Y-38074490D02*
X119744141Y-38074490D01*
X80398492Y-46296590D02*
X88620593Y-38074490D01*
X127206910Y-64975000D02*
X125600000Y-64975000D01*
X76075000Y-46296590D02*
X80398492Y-46296590D01*
X119744141Y-38074490D02*
X126082900Y-44413250D01*
X134886980Y-57294930D02*
X127206910Y-64975000D01*
%TO.N,/23*%
X75275000Y-46296590D02*
X75275000Y-45392590D01*
X75275000Y-45392590D02*
X76392590Y-44275000D01*
X76392590Y-44275000D02*
X76475000Y-44275000D01*
%TO.N,/24*%
X74475000Y-44600000D02*
X76337500Y-42737500D01*
X74475000Y-46296590D02*
X74475000Y-44600000D01*
X76337500Y-42737500D02*
X76375000Y-42700000D01*
%TO.N,/25*%
X73675000Y-43600000D02*
X76225000Y-41050000D01*
X73675000Y-46296590D02*
X73675000Y-43600000D01*
%TO.N,/26*%
X72875000Y-46296590D02*
X72875000Y-42800000D01*
X72875000Y-42800000D02*
X76225000Y-39450000D01*
%TO.N,/27*%
X72075000Y-46296590D02*
X72075000Y-41850000D01*
X72075000Y-41850000D02*
X76175000Y-37750000D01*
%TO.N,/28*%
X71275000Y-46296590D02*
X71275000Y-40800000D01*
X71275000Y-40800000D02*
X72525000Y-39550000D01*
%TO.N,/29*%
X70475000Y-41675000D02*
X70250000Y-41450000D01*
X70475000Y-46296590D02*
X70475000Y-41675000D01*
%TO.N,Net-(N3-PadA)*%
D23*
X144632960Y-60795050D02*
X147929950Y-60795050D01*
X148625000Y-60100000D02*
X148625000Y-40500000D01*
X148625000Y-40500000D02*
X144425000Y-36300000D01*
X147929950Y-60795050D02*
X148625000Y-60100000D01*
%TO.N,/DP2*%
X140635000Y-65375000D02*
X140635000Y-65385000D01*
X145600000Y-72675000D02*
X192875000Y-72675000D01*
X234475000Y-59296590D02*
X234475000Y-67650000D01*
X144050000Y-71125000D02*
X145600000Y-72675000D01*
X140635000Y-61795810D02*
X140635000Y-65375000D01*
X192875000Y-72675000D02*
X192925000Y-72725000D01*
X140635000Y-65385000D02*
X140675000Y-65425000D01*
%TO.N,/OE*%
X45175000Y-50275000D02*
X45175000Y-36700210D01*
X64795390Y-52796590D02*
X64673542Y-52674742D01*
X244150000Y-40115000D02*
X237895316Y-40115000D01*
X65575000Y-52796590D02*
X64795390Y-52796590D01*
X241050000Y-52775000D02*
X241028410Y-52796590D01*
X204055316Y-32525000D02*
X205325516Y-33795200D01*
X91619684Y-32525000D02*
X204055316Y-32525000D01*
X217003163Y-33795200D02*
X217003163Y-33750000D01*
X217003163Y-33750000D02*
X231530316Y-33750000D01*
X240053600Y-42273284D02*
X240053600Y-48475942D01*
X240053600Y-48475942D02*
X240227658Y-48650000D01*
X241028410Y-52796590D02*
X238575000Y-52796590D01*
X64673542Y-52674742D02*
X52602400Y-52674742D01*
X240227658Y-48650000D02*
X240725000Y-48650000D01*
X45175000Y-36700210D02*
X47800210Y-34075000D01*
X52602400Y-52674742D02*
X52602400Y-52622084D01*
X50125000Y-50296590D02*
X48300000Y-50296590D01*
X48146590Y-50296590D02*
X48125000Y-50275000D01*
X231530316Y-33750000D02*
X240053600Y-42273284D01*
X205325516Y-33795200D02*
X217003163Y-33795200D01*
X50276906Y-50296590D02*
X50125000Y-50296590D01*
X90069684Y-34075000D02*
X91619684Y-32525000D01*
X52602400Y-52622084D02*
X50276906Y-50296590D01*
X47800210Y-34075000D02*
X90069684Y-34075000D01*
X48300000Y-50296590D02*
X48146590Y-50296590D01*
%TO.N,GND*%
X240850000Y-68150000D02*
X238825000Y-70175000D01*
X242475000Y-69775000D02*
X240850000Y-68150000D01*
X62475000Y-54425000D02*
X65546590Y-54425000D01*
X241653410Y-51196590D02*
X238575000Y-51196590D01*
X65546590Y-54425000D02*
X65575000Y-54396590D01*
X247450000Y-68087500D02*
X245762500Y-69775000D01*
X242925000Y-53675000D02*
X241750000Y-52500000D01*
X241750000Y-51100000D02*
X241653410Y-51196590D01*
X241750000Y-52500000D02*
X241750000Y-51100000D01*
X245762500Y-69775000D02*
X242475000Y-69775000D01*
%TO.N,Net-(J1-Pin_6)*%
X130116200Y-92846200D02*
X128516200Y-91246200D01*
X140904200Y-85434200D02*
X140904200Y-108534200D01*
X128516200Y-91246200D02*
X128516200Y-83806200D01*
X140904200Y-108534200D02*
X143436200Y-111066200D01*
X139276200Y-83806200D02*
X140904200Y-85434200D01*
X128516200Y-83806200D02*
X139276200Y-83806200D01*
%TO.N,/B*%
X145770600Y-81436200D02*
X145770600Y-87380600D01*
X153469000Y-102813400D02*
X151236200Y-105046200D01*
X145770600Y-87380600D02*
X151236200Y-92846200D01*
X151236200Y-92846200D02*
X153469000Y-95079000D01*
X153469000Y-95079000D02*
X153469000Y-102813400D01*
%TO.N,Net-(J1-Pin_2)*%
X130116200Y-101526200D02*
X128568600Y-103073800D01*
X128568600Y-103073800D02*
X128568600Y-107123800D01*
X136261458Y-107123800D02*
X139436200Y-110298542D01*
X139436200Y-110298542D02*
X139436200Y-111066200D01*
X128568600Y-107123800D02*
X136261458Y-107123800D01*
%TO.N,/G*%
X158056200Y-83356200D02*
X162345900Y-87645900D01*
X146770600Y-81436200D02*
X146770600Y-82037240D01*
X162345900Y-99845900D02*
X164026200Y-101526200D01*
X162345900Y-87645900D02*
X164026200Y-89326200D01*
X146770600Y-82037240D02*
X148089560Y-83356200D01*
X162345900Y-87645900D02*
X162345900Y-99845900D01*
X148089560Y-83356200D02*
X158056200Y-83356200D01*
%TO.N,Net-(J1-Pin_14)*%
X156406200Y-89206200D02*
X154073800Y-91538600D01*
X151436200Y-110258542D02*
X151436200Y-111066200D01*
X154073800Y-107620942D02*
X151436200Y-110258542D01*
X154073800Y-91538600D02*
X154073800Y-107620942D01*
%TO.N,+5V*%
D24*
X97274080Y-64250000D02*
X97274080Y-68924080D01*
X62475000Y-56925000D02*
X59875000Y-56925000D01*
X126250000Y-68425000D02*
X120300000Y-68425000D01*
X109000000Y-73425000D02*
X165475000Y-73425000D01*
X252800000Y-73075000D02*
X252800000Y-63450000D01*
X108625000Y-70175000D02*
X109025000Y-69775000D01*
X166015000Y-54396590D02*
X165475000Y-54936590D01*
X165475000Y-54936590D02*
X165475000Y-66375000D01*
X188400000Y-54891590D02*
X188400000Y-70925000D01*
X188895000Y-54396590D02*
X188400000Y-54891590D01*
X143135000Y-57635000D02*
X143175000Y-57675000D01*
X238575000Y-50396590D02*
X242146590Y-50396590D01*
X143135000Y-54396590D02*
X143135000Y-57635000D01*
X211600000Y-73425000D02*
X252450000Y-73425000D01*
X252375000Y-51175000D02*
X245450000Y-51175000D01*
X97274080Y-54497510D02*
X97274080Y-64250000D01*
X211775000Y-54396590D02*
X211575000Y-54596590D01*
X98525000Y-70175000D02*
X108625000Y-70175000D01*
X49725000Y-73425000D02*
X109000000Y-73425000D01*
X252450000Y-73425000D02*
X252800000Y-73075000D01*
X188425000Y-73425000D02*
X211600000Y-73425000D01*
X62750000Y-42200000D02*
X62750000Y-45500000D01*
X252800000Y-63450000D02*
X246350000Y-63450000D01*
X65575000Y-55196590D02*
X64203410Y-55196590D01*
X120300000Y-68425000D02*
X120154080Y-68279080D01*
X120154080Y-68279080D02*
X120154080Y-54497510D01*
X50125000Y-57296590D02*
X50125000Y-60175000D01*
X245450000Y-51175000D02*
X242925000Y-51175000D01*
X59875000Y-60175000D02*
X50125000Y-60175000D01*
X97274080Y-68924080D02*
X98525000Y-70175000D01*
X165475000Y-73425000D02*
X188425000Y-73425000D01*
X252800000Y-51600000D02*
X252375000Y-51175000D01*
X252800000Y-63450000D02*
X252800000Y-51600000D01*
X97375000Y-54396590D02*
X97274080Y-54497510D01*
X211575000Y-54596590D02*
X211575000Y-73400000D01*
X120154080Y-54497510D02*
X120255000Y-54396590D01*
X64203410Y-55196590D02*
X62475000Y-56925000D01*
X50125000Y-60175000D02*
X50125000Y-73025000D01*
X242146590Y-50396590D02*
X242925000Y-51175000D01*
X246350000Y-63450000D02*
X243550000Y-66250000D01*
X50125000Y-73025000D02*
X49725000Y-73425000D01*
X143135000Y-54396590D02*
X143025000Y-54506590D01*
X211575000Y-73400000D02*
X211600000Y-73425000D01*
X165475000Y-69000000D02*
X165475000Y-71125000D01*
X59875000Y-58500000D02*
X59875000Y-56925000D01*
%TO.N,Net-(D4-RK)*%
D23*
X161292120Y-54673710D02*
X161292120Y-66475000D01*
X155654652Y-66475000D02*
X152804652Y-69325000D01*
X161015000Y-54396590D02*
X161292120Y-54673710D01*
X161292120Y-66475000D02*
X155654652Y-66475000D01*
%TO.N,Net-(D4-GK)*%
X161594520Y-66790400D02*
X156339252Y-66790400D01*
X161594520Y-56275000D02*
X161594520Y-66790400D01*
X156339252Y-66790400D02*
X153804652Y-69325000D01*
X161015000Y-51196590D02*
X162041200Y-52222790D01*
X162041200Y-52222790D02*
X162041200Y-55828320D01*
X162041200Y-55828320D02*
X161594520Y-56275000D01*
%TO.N,Net-(D4-BK)*%
X161896920Y-67092800D02*
X157036852Y-67092800D01*
X162343600Y-53425000D02*
X162343600Y-55953578D01*
X166015000Y-51196590D02*
X164572010Y-51196590D01*
X162343600Y-55953578D02*
X161896920Y-56400258D01*
X164572010Y-51196590D02*
X162343600Y-53425000D01*
X161896920Y-56400258D02*
X161896920Y-67092800D01*
X157036852Y-67092800D02*
X154804652Y-69325000D01*
%TO.N,Net-(J1-Pin_4)*%
X140299400Y-85684716D02*
X140299400Y-109929400D01*
X130116200Y-85736200D02*
X131441400Y-84411000D01*
X131441400Y-84411000D02*
X139025684Y-84411000D01*
X140299400Y-109929400D02*
X141436200Y-111066200D01*
X139025684Y-84411000D02*
X140299400Y-85684716D01*
%TO.N,Net-(Q1-G)*%
X243550000Y-68150000D02*
X245487500Y-68150000D01*
X245487500Y-68150000D02*
X247450000Y-66187500D01*
%TO.N,/DP5*%
X209275000Y-72225000D02*
X209275000Y-61795810D01*
X249325000Y-71600000D02*
X249325000Y-67137500D01*
X210400000Y-72175000D02*
X210350000Y-72225000D01*
X210400000Y-72225000D02*
X210400000Y-72175000D01*
X210350000Y-72225000D02*
X209275000Y-72225000D01*
X212450000Y-72225000D02*
X248700000Y-72225000D01*
X248700000Y-72225000D02*
X249325000Y-71600000D01*
%TO.N,Net-(D6-RK)*%
X184365120Y-58080080D02*
X184365120Y-67395200D01*
X157734452Y-67395200D02*
X155804652Y-69325000D01*
X184365120Y-67395200D02*
X157734452Y-67395200D01*
X183895000Y-57609960D02*
X184365120Y-58080080D01*
X183895000Y-54396590D02*
X183895000Y-57609960D01*
%TO.N,Net-(D6-GK)*%
X184667520Y-67697600D02*
X158432052Y-67697600D01*
X184667520Y-57954822D02*
X184667520Y-67697600D01*
X158432052Y-67697600D02*
X156804652Y-69325000D01*
X183895000Y-51196590D02*
X186172600Y-53474190D01*
X186172600Y-53474190D02*
X186172600Y-56449742D01*
X186172600Y-56449742D02*
X184667520Y-57954822D01*
%TO.N,Net-(D6-BK)*%
X184969920Y-67919920D02*
X185050000Y-68000000D01*
X188895000Y-51196590D02*
X186475000Y-53616590D01*
X186475000Y-53616590D02*
X186475000Y-56575000D01*
X184969920Y-58080080D02*
X184969920Y-67919920D01*
X186475000Y-56575000D02*
X184969920Y-58080080D01*
X159129652Y-68000000D02*
X157804652Y-69325000D01*
X185050000Y-68000000D02*
X159129652Y-68000000D01*
%TO.N,Net-(D5-A)*%
X52595000Y-42200000D02*
X55130000Y-42200000D01*
%TO.N,Net-(J1-Pin_8)*%
X143616200Y-89206200D02*
X141509000Y-91313400D01*
X141509000Y-107139000D02*
X145436200Y-111066200D01*
X141509000Y-91313400D02*
X141509000Y-107139000D01*
%TO.N,VPP*%
D22*
X159685000Y-36300000D02*
X161635000Y-34350000D01*
X180615000Y-34350000D02*
X182565000Y-36300000D01*
X47325000Y-56300000D02*
X47275000Y-56250000D01*
X50125000Y-56296590D02*
X50121590Y-56300000D01*
X161635000Y-34350000D02*
X180615000Y-34350000D01*
X203295000Y-34150000D02*
X205445000Y-36300000D01*
X134680000Y-34175000D02*
X136805000Y-36300000D01*
X138850000Y-34225000D02*
X157610000Y-34225000D01*
X114325000Y-34175000D02*
X134680000Y-34175000D01*
X50121590Y-56300000D02*
X47325000Y-56300000D01*
X157610000Y-34225000D02*
X159685000Y-36300000D01*
X47275000Y-36450000D02*
X47425000Y-36300000D01*
X182565000Y-35635000D02*
X184050000Y-34150000D01*
X136805000Y-36300000D02*
X138850000Y-34255000D01*
X47275000Y-56250000D02*
X47275000Y-36450000D01*
X93023200Y-34321800D02*
X111266800Y-34321800D01*
X182565000Y-36300000D02*
X182565000Y-35635000D01*
X138850000Y-34255000D02*
X138850000Y-34225000D01*
X184050000Y-34150000D02*
X203295000Y-34150000D01*
X91045000Y-36300000D02*
X93023200Y-34321800D01*
X113245000Y-35255000D02*
X114325000Y-34175000D01*
X47425000Y-36300000D02*
X91045000Y-36300000D01*
X113245000Y-36300000D02*
X113245000Y-35255000D01*
X111266800Y-34321800D02*
X113245000Y-36300000D01*
%TO.N,Net-(J1-Pin_18)*%
D23*
X156406200Y-110096200D02*
X155436200Y-111066200D01*
X156406200Y-105046200D02*
X156406200Y-110096200D01*
%TO.N,Net-(J1-Pin_16)*%
X154706200Y-99636200D02*
X154706200Y-109796200D01*
X156406200Y-97936200D02*
X154706200Y-99636200D01*
X154706200Y-109796200D02*
X153436200Y-111066200D01*
%TO.N,Net-(J1-Pin_5)*%
X128818600Y-84108600D02*
X139150942Y-84108600D01*
X140601800Y-85559458D02*
X140601800Y-109231800D01*
X139150942Y-84108600D02*
X140601800Y-85559458D01*
X128984830Y-89326200D02*
X128818600Y-89159970D01*
X130116200Y-89326200D02*
X128984830Y-89326200D01*
X128818600Y-89159970D02*
X128818600Y-84108600D01*
X140601800Y-109231800D02*
X142436200Y-111066200D01*
%TO.N,Net-(N2-PadA)*%
X126729950Y-60795050D02*
X126975000Y-60550000D01*
X120865000Y-38015000D02*
X120865000Y-36300000D01*
X126431000Y-60795050D02*
X126729950Y-60795050D01*
X126975000Y-44125000D02*
X120865000Y-38015000D01*
X126975000Y-60550000D02*
X126975000Y-44125000D01*
%TO.N,/60*%
D22*
X215023020Y-57294930D02*
X215350000Y-57621910D01*
X215350000Y-57621910D02*
X215350000Y-69250000D01*
X232875000Y-68025000D02*
X232875000Y-59296590D01*
X231650000Y-69250000D02*
X232875000Y-68025000D01*
X215350000Y-69250000D02*
X231650000Y-69250000D01*
%TO.N,/51*%
X224104682Y-55196590D02*
X225575000Y-55196590D01*
X205473049Y-63986049D02*
X205277040Y-63790040D01*
X205277040Y-63790040D02*
X205277040Y-60795050D01*
X205450000Y-65853000D02*
X205473049Y-65829951D01*
X205473049Y-65829951D02*
X205473049Y-63986049D01*
X222800000Y-62200000D02*
X223571000Y-61429000D01*
X205450000Y-66854676D02*
X205450000Y-65853000D01*
X223571000Y-55730272D02*
X224104682Y-55196590D01*
X222800000Y-63845000D02*
X222800000Y-62200000D01*
X223571000Y-61429000D02*
X223571000Y-55730272D01*
%TO.N,/52*%
X203131000Y-65560077D02*
X203125000Y-65554077D01*
X203125000Y-65554077D02*
X203125000Y-65425000D01*
X203125000Y-66295923D02*
X203131000Y-66289923D01*
X224325000Y-56042590D02*
X224371000Y-55996590D01*
X224371000Y-55996590D02*
X225575000Y-55996590D01*
X202328100Y-58493810D02*
X203526980Y-57294930D01*
X224250000Y-62902226D02*
X224325000Y-62827226D01*
X224325000Y-62827226D02*
X224325000Y-56042590D01*
X224250000Y-63050000D02*
X224250000Y-62902226D01*
X203125000Y-66379676D02*
X203125000Y-66295923D01*
X203131000Y-66289923D02*
X203131000Y-65560077D01*
X203125000Y-65425000D02*
X202328100Y-64628100D01*
X203600000Y-66854676D02*
X203125000Y-66379676D01*
X202328100Y-64628100D02*
X202328100Y-58493810D01*
%TO.N,/53*%
X203450000Y-64625000D02*
X203450000Y-62923320D01*
X203451160Y-60038745D02*
X205014905Y-58475000D01*
X203451160Y-62922160D02*
X203451160Y-60038745D01*
X206125000Y-56725000D02*
X203526980Y-54126980D01*
X205014905Y-58475000D02*
X206125000Y-58475000D01*
X225550000Y-62525000D02*
X225575000Y-62500000D01*
X203526980Y-54126980D02*
X203526980Y-52796590D01*
X204075000Y-65275000D02*
X204075000Y-65250000D01*
X225575000Y-62500000D02*
X225575000Y-56796590D01*
X206125000Y-58475000D02*
X206125000Y-56725000D01*
X204075000Y-65250000D02*
X203450000Y-64625000D01*
X203450000Y-62923320D02*
X203451160Y-62922160D01*
%TO.N,/54*%
X219874000Y-64726000D02*
X219874000Y-60462318D01*
X228075000Y-59296590D02*
X228075000Y-63551000D01*
X203451160Y-44041825D02*
X202328100Y-45164885D01*
X202328100Y-45164885D02*
X202328100Y-47099370D01*
X228075000Y-63551000D02*
X226900000Y-64726000D01*
X214407140Y-41217490D02*
X206275495Y-41217490D01*
X219874000Y-46684349D02*
X214407140Y-41217490D01*
X206275495Y-41217490D02*
X204520735Y-42972250D01*
X219874000Y-60462318D02*
X220618900Y-59717417D01*
X202328100Y-47099370D02*
X203526980Y-48298250D01*
X226900000Y-64726000D02*
X219874000Y-64726000D01*
X220618900Y-54970264D02*
X219874000Y-54225364D01*
X219874000Y-54225364D02*
X219874000Y-46684349D01*
X204520735Y-42972250D02*
X203451160Y-44041825D01*
X220618900Y-59717417D02*
X220618900Y-54970264D01*
%TO.N,/55*%
X219120000Y-46996667D02*
X214094823Y-41971490D01*
X228875000Y-59296590D02*
X228875000Y-64409000D01*
X219864900Y-59405100D02*
X219864900Y-55282582D01*
X219120000Y-65480000D02*
X219120000Y-60150000D01*
X228775364Y-65480000D02*
X219120000Y-65480000D01*
X219864900Y-55282582D02*
X219120000Y-54537682D01*
X228875000Y-64409000D02*
X228921000Y-64455000D01*
X228921000Y-64455000D02*
X228921000Y-65334364D01*
X219120000Y-54537682D02*
X219120000Y-46996667D01*
X228921000Y-65334364D02*
X228775364Y-65480000D01*
X208103680Y-41971490D02*
X205277040Y-44798130D01*
X214094823Y-41971490D02*
X208103680Y-41971490D01*
X219120000Y-60150000D02*
X219864900Y-59405100D01*
%TO.N,/56*%
X229087682Y-66234000D02*
X218366000Y-66234000D01*
X219110900Y-55594900D02*
X218366000Y-54850000D01*
X219110900Y-58988184D02*
X219110900Y-55594900D01*
X229675000Y-65163000D02*
X229721000Y-65209000D01*
X210100120Y-42972250D02*
X209275000Y-43797370D01*
X214029265Y-42972250D02*
X210100120Y-42972250D01*
X218366000Y-47308985D02*
X214029265Y-42972250D01*
X229721000Y-65600682D02*
X229087682Y-66234000D01*
X229721000Y-65209000D02*
X229721000Y-65600682D01*
X218366000Y-59733087D02*
X219110900Y-58988184D01*
X229675000Y-59296590D02*
X229675000Y-65163000D01*
X218366000Y-54850000D02*
X218366000Y-47308985D01*
X218366000Y-66234000D02*
X218366000Y-59733087D01*
%TO.N,/57*%
X216848900Y-47541945D02*
X215779325Y-46472370D01*
X229400000Y-66988000D02*
X217612000Y-66988000D01*
X214105085Y-44798130D02*
X213272960Y-44798130D01*
X218356900Y-58675868D02*
X218356900Y-55913989D01*
X217612000Y-59420770D02*
X218356900Y-58675868D01*
X217612000Y-55169089D02*
X217612000Y-48305045D01*
X218356900Y-55913989D02*
X217612000Y-55169089D01*
X230475000Y-65913000D02*
X229400000Y-66988000D01*
X217612000Y-48305045D02*
X216848900Y-47541945D01*
X230475000Y-59296590D02*
X230475000Y-65913000D01*
X217612000Y-66988000D02*
X217612000Y-59420770D01*
X215779325Y-46472370D02*
X214105085Y-44798130D01*
%TO.N,/58*%
X216858000Y-67742000D02*
X216858000Y-59108453D01*
X231275000Y-66617000D02*
X230150000Y-67742000D01*
X230150000Y-67742000D02*
X216858000Y-67742000D01*
X217602900Y-56226307D02*
X216850000Y-55473407D01*
X216850000Y-55473407D02*
X216850000Y-50125230D01*
X216850000Y-50125230D02*
X215023020Y-48298250D01*
X216858000Y-59108453D02*
X217602900Y-58363552D01*
X231275000Y-59296590D02*
X231275000Y-66617000D01*
X217602900Y-58363552D02*
X217602900Y-56226307D01*
%TO.N,/59*%
X216104000Y-68496000D02*
X216104000Y-58796135D01*
X216104000Y-58796135D02*
X216848900Y-58051235D01*
X216848900Y-56538625D02*
X216050000Y-55739725D01*
X216848900Y-58051235D02*
X216848900Y-56538625D01*
X232121000Y-67471000D02*
X232121000Y-67712682D01*
X216050000Y-55739725D02*
X216050000Y-53823570D01*
X232121000Y-67712682D02*
X231337682Y-68496000D01*
X216050000Y-53823570D02*
X215023020Y-52796590D01*
X232075000Y-67425000D02*
X232121000Y-67471000D01*
X231337682Y-68496000D02*
X216104000Y-68496000D01*
X232075000Y-59296590D02*
X232075000Y-67425000D01*
%TO.N,Net-(N6-PadA)*%
D23*
X205359584Y-39006291D02*
X200025000Y-44340875D01*
X213125000Y-39006290D02*
X205359584Y-39006291D01*
X213065000Y-36300000D02*
X213065000Y-38946290D01*
X213065000Y-38946290D02*
X213125000Y-39006290D01*
X200025000Y-49975000D02*
X200225000Y-50175000D01*
X200025000Y-44340875D02*
X200025000Y-49975000D01*
X200225000Y-50175000D02*
X200225000Y-50200000D01*
%TO.N,/43*%
D22*
X200150000Y-64050000D02*
X198075000Y-64050000D01*
X225575000Y-48796590D02*
X222721590Y-48796590D01*
X197979000Y-60490267D02*
X198492901Y-59976364D01*
X198492901Y-59976364D02*
X198492900Y-54550365D01*
X198075000Y-64050000D02*
X197979000Y-63954000D01*
X197754000Y-47061774D02*
X197754000Y-46355048D01*
X197770000Y-47077773D02*
X197754000Y-47061774D01*
X178821100Y-44725567D02*
X178821100Y-50970710D01*
X197754000Y-46355048D02*
X191862441Y-40463490D01*
X197770000Y-53827465D02*
X197770000Y-47077773D01*
X183083177Y-40463490D02*
X178821100Y-44725567D01*
X191862441Y-40463490D02*
X183083177Y-40463490D01*
X222721590Y-48796590D02*
X222275000Y-48350000D01*
X198492900Y-54550365D02*
X197770000Y-53827465D01*
X178821100Y-50970710D02*
X180646980Y-52796590D01*
X197979000Y-63954000D02*
X197979000Y-60490267D01*
%TO.N,/44*%
X220800000Y-48650000D02*
X220800000Y-48350000D01*
X184832510Y-41217490D02*
X183077750Y-42972250D01*
X197182863Y-54421000D02*
X197016000Y-54254137D01*
X197738900Y-59664049D02*
X197738900Y-54862683D01*
X180571160Y-45554435D02*
X180571160Y-48222430D01*
X225575000Y-49596590D02*
X221746590Y-49596590D01*
X197097908Y-65025000D02*
X197016000Y-64943092D01*
X197297217Y-54421000D02*
X197182863Y-54421000D01*
X197225000Y-64734092D02*
X197225000Y-60177951D01*
X197225000Y-60177951D02*
X197738900Y-59664049D01*
X183077750Y-42972250D02*
X181640735Y-42972250D01*
X181640735Y-42972250D02*
X180571160Y-44041825D01*
X180571160Y-48222430D02*
X180646980Y-48298250D01*
X180571160Y-44041825D02*
X180571160Y-45554435D01*
X197016000Y-54254137D02*
X197016000Y-47390091D01*
X197016000Y-64943092D02*
X197225000Y-64734092D01*
X197016000Y-47390091D02*
X197000000Y-47374092D01*
X197000000Y-47374092D02*
X197000000Y-46667366D01*
X191550124Y-41217490D02*
X184832510Y-41217490D01*
X221746590Y-49596590D02*
X220800000Y-48650000D01*
X201275000Y-65025000D02*
X197097908Y-65025000D01*
X197000000Y-46667366D02*
X191550124Y-41217490D01*
X197738900Y-54862683D02*
X197297217Y-54421000D01*
%TO.N,/45*%
X225575000Y-50396590D02*
X221171590Y-50396590D01*
X196262000Y-60074635D02*
X196984900Y-59351733D01*
X196262000Y-65255410D02*
X196262000Y-60074635D01*
X196262000Y-47702409D02*
X194817295Y-46257704D01*
X185223680Y-41971490D02*
X182397040Y-44798130D01*
X220825000Y-50050000D02*
X220825000Y-49950000D01*
X191237807Y-41971490D02*
X185223680Y-41971490D01*
X194817295Y-45550978D02*
X191237807Y-41971490D01*
X194817295Y-46257704D02*
X194817295Y-45550978D01*
X196984900Y-55175000D02*
X196870547Y-55175000D01*
X221171590Y-50396590D02*
X220825000Y-50050000D01*
X196984900Y-59351733D02*
X196984900Y-55175000D01*
X202250000Y-65925000D02*
X196931590Y-65925000D01*
X196870547Y-55175000D02*
X196262000Y-54566455D01*
X196262000Y-54566455D02*
X196262000Y-47702409D01*
X196931590Y-65925000D02*
X196262000Y-65255410D01*
%TO.N,/46*%
X202523722Y-68214165D02*
X202239556Y-67930000D01*
X198124272Y-68184000D02*
X195508000Y-65567728D01*
X187220120Y-42972250D02*
X186395000Y-43797370D01*
X200260441Y-67930000D02*
X200006442Y-68184000D01*
X220800000Y-51196590D02*
X220649590Y-51196590D01*
X193975000Y-45775000D02*
X193082121Y-44882121D01*
X193082121Y-44882121D02*
X193059136Y-44882121D01*
X195508000Y-48014727D02*
X193975000Y-46481727D01*
X225575000Y-51196590D02*
X220800000Y-51196590D01*
X195508000Y-54878772D02*
X195508000Y-48014727D01*
X220649590Y-51196590D02*
X220628000Y-51175000D01*
X196230900Y-59039417D02*
X196230900Y-55601671D01*
X196230900Y-55601671D02*
X195508000Y-54878772D01*
X202613525Y-68124362D02*
X202523722Y-68214165D01*
X202239556Y-67930000D02*
X200260441Y-67930000D01*
X195508000Y-59762318D02*
X196230900Y-59039417D01*
X200006442Y-68184000D02*
X198124272Y-68184000D01*
X193059136Y-44882121D02*
X191149265Y-42972250D01*
X191149265Y-42972250D02*
X187220120Y-42972250D01*
X195508000Y-65567728D02*
X195508000Y-59762318D01*
X193975000Y-46481727D02*
X193975000Y-45775000D01*
%TO.N,/47*%
X203250000Y-68994000D02*
X203250000Y-68923600D01*
X200572759Y-68684000D02*
X200318759Y-68938000D01*
X191225085Y-44798130D02*
X190392960Y-44798130D01*
X225575000Y-51996590D02*
X221553410Y-51996590D01*
X201927240Y-68684000D02*
X200572759Y-68684000D01*
X195476900Y-58727100D02*
X195476900Y-55913989D01*
X194754000Y-48327045D02*
X191225085Y-44798130D01*
X202364241Y-69121000D02*
X201927240Y-68684000D01*
X225575000Y-51996590D02*
X225539410Y-51961000D01*
X221553410Y-51996590D02*
X220775000Y-52775000D01*
X195476900Y-55913989D02*
X194754000Y-55191089D01*
X197811954Y-68938000D02*
X194754000Y-65880046D01*
X203052600Y-69121000D02*
X202364241Y-69121000D01*
X194754000Y-65880046D02*
X194754000Y-59450000D01*
X200318759Y-68938000D02*
X197811954Y-68938000D01*
X194754000Y-55191089D02*
X194754000Y-48327045D01*
X194754000Y-59450000D02*
X195476900Y-58727100D01*
X203250000Y-68923600D02*
X203052600Y-69121000D01*
%TO.N,/48*%
X194000000Y-66192364D02*
X194000000Y-59086453D01*
X204250000Y-69580000D02*
X203955000Y-69875000D01*
X225575000Y-52796590D02*
X225529000Y-52842590D01*
X197499636Y-69692000D02*
X194000000Y-66192364D01*
X222553410Y-52796590D02*
X221350000Y-54000000D01*
X200885077Y-69438000D02*
X200631077Y-69692000D01*
X203955000Y-69875000D02*
X202051923Y-69875000D01*
X202051923Y-69875000D02*
X201614923Y-69438000D01*
X225529000Y-52842590D02*
X225262682Y-52842590D01*
X200631077Y-69692000D02*
X197499636Y-69692000D01*
X194722900Y-56226307D02*
X194000000Y-55503407D01*
X201614923Y-69438000D02*
X200885077Y-69438000D01*
X194000000Y-55503407D02*
X194000000Y-50155230D01*
X225262682Y-52842590D02*
X225216682Y-52888590D01*
X225575000Y-52796590D02*
X222553410Y-52796590D01*
X194722900Y-58363552D02*
X194722900Y-56226307D01*
X194000000Y-50155230D02*
X192143020Y-48298250D01*
X194000000Y-59086453D02*
X194722900Y-58363552D01*
%TO.N,/49*%
X201123000Y-70446000D02*
X197187318Y-70446000D01*
X225529000Y-53642590D02*
X225575000Y-53596590D01*
X221625000Y-55543637D02*
X223526047Y-53642590D01*
X221625000Y-57225000D02*
X221625000Y-55543637D01*
X192850000Y-53503570D02*
X192143020Y-52796590D01*
X197187318Y-70446000D02*
X192972840Y-66231522D01*
X192972840Y-59047295D02*
X193968900Y-58051235D01*
X193968900Y-58051235D02*
X193968900Y-56538625D01*
X201250000Y-70319000D02*
X201123000Y-70446000D01*
X192850000Y-55469050D02*
X192850000Y-53503570D01*
X192899325Y-55469050D02*
X192850000Y-55469050D01*
X223526047Y-53642590D02*
X225529000Y-53642590D01*
X192972840Y-66231522D02*
X192972840Y-59047295D01*
X193968900Y-56538625D02*
X192899325Y-55469050D01*
%TO.N,/50*%
X223838364Y-54396590D02*
X225575000Y-54396590D01*
X222690000Y-55811398D02*
X222817000Y-55684398D01*
X192250000Y-66575000D02*
X192218840Y-66606160D01*
X203275000Y-71215000D02*
X203260000Y-71200000D01*
X196875000Y-71200000D02*
X192250000Y-66575000D01*
X192218840Y-57370750D02*
X192143020Y-57294930D01*
X203260000Y-71200000D02*
X196875000Y-71200000D01*
X192218840Y-66606160D02*
X192218840Y-57370750D01*
X222817000Y-55417955D02*
X223838364Y-54396590D01*
X222817000Y-55684398D02*
X222817000Y-55417955D01*
%TO.N,/DP1*%
D23*
X117755000Y-70530000D02*
X118032200Y-70807200D01*
X233725000Y-70475000D02*
X233751200Y-70448800D01*
X118032200Y-70807200D02*
X137167800Y-70807200D01*
X233751200Y-70448800D02*
X233751200Y-59296590D01*
X137167800Y-70807200D02*
X137525000Y-70450000D01*
X117755000Y-61795810D02*
X117755000Y-70530000D01*
%TO.N,/DP4*%
X236075000Y-59296590D02*
X236075000Y-68950000D01*
%TO.N,Net-(U1-D)*%
X240850000Y-66250000D02*
X238575000Y-63975000D01*
X238575000Y-63975000D02*
X238575000Y-56796590D01*
%TO.N,/CLK*%
X90122342Y-34450000D02*
X91744942Y-32827400D01*
X45775000Y-44675000D02*
X45775000Y-36527868D01*
X45743700Y-50818700D02*
X45743700Y-44706300D01*
X239751200Y-42398542D02*
X239751200Y-48601200D01*
X64596590Y-53596590D02*
X65575000Y-53596590D01*
X50125000Y-51296590D02*
X48253410Y-51296590D01*
X240328410Y-51996590D02*
X238575000Y-51996590D01*
X239200000Y-67200000D02*
X240850000Y-67200000D01*
X52300000Y-52800000D02*
X52575000Y-53075000D01*
X50125000Y-51296590D02*
X50849248Y-51296590D01*
X52575000Y-53075000D02*
X64075000Y-53075000D01*
X46225000Y-51300000D02*
X45743700Y-50818700D01*
X91744942Y-32827400D02*
X203930058Y-32827400D01*
X47852868Y-34450000D02*
X90122342Y-34450000D01*
X48253410Y-51296590D02*
X48250000Y-51300000D01*
X50849248Y-51296590D02*
X52300000Y-52747342D01*
X239150000Y-67150000D02*
X239200000Y-67200000D01*
X64075000Y-53075000D02*
X64596590Y-53596590D01*
X52300000Y-52747342D02*
X52300000Y-52800000D01*
X239751200Y-48601200D02*
X240375000Y-49225000D01*
X45775000Y-36527868D02*
X47852868Y-34450000D01*
X45743700Y-44706300D02*
X45775000Y-44675000D01*
X203930058Y-32827400D02*
X205200258Y-34097600D01*
X231450258Y-34097600D02*
X239751200Y-42398542D01*
X205200258Y-34097600D02*
X231450258Y-34097600D01*
X240375000Y-51950000D02*
X240328410Y-51996590D01*
%TO.N,/SRB*%
X65970200Y-35054800D02*
X90372858Y-35054800D01*
X65650000Y-47950000D02*
X67800000Y-47950000D01*
X215922034Y-35302916D02*
X216298116Y-34926834D01*
X50125000Y-49296590D02*
X50128410Y-49300000D01*
X204949742Y-34702400D02*
X215874742Y-34702400D01*
X215922034Y-34749692D02*
X215922034Y-35302916D01*
X215874742Y-34702400D02*
X215922034Y-34749692D01*
X67800000Y-54873990D02*
X66677400Y-55996590D01*
X67800000Y-47950000D02*
X67800000Y-54873990D01*
X223125000Y-34926834D02*
X223125000Y-36775000D01*
X50128410Y-49300000D02*
X63075000Y-49300000D01*
X63075000Y-49300000D02*
X64425000Y-47950000D01*
X65650000Y-47950000D02*
X65650000Y-37600000D01*
X64425000Y-47950000D02*
X65650000Y-47950000D01*
X237025000Y-49575000D02*
X237046590Y-49596590D01*
X231424176Y-34926834D02*
X237025000Y-40527658D01*
X237046590Y-49596590D02*
X238575000Y-49596590D01*
X91995458Y-33432200D02*
X203679542Y-33432200D01*
X65650000Y-35375000D02*
X65970200Y-35054800D01*
X223125000Y-34926834D02*
X231424176Y-34926834D01*
X237025000Y-40527658D02*
X237025000Y-49575000D01*
X90372858Y-35054800D02*
X91995458Y-33432200D01*
X216298116Y-34926834D02*
X223125000Y-34926834D01*
X203679542Y-33432200D02*
X204949742Y-34702400D01*
X66677400Y-55996590D02*
X65575000Y-55996590D01*
%TO.N,Net-(U2-Data_Out)*%
X64150000Y-48800000D02*
X65571590Y-48800000D01*
X47978126Y-34752400D02*
X90247600Y-34752400D01*
X46225000Y-36505526D02*
X47978126Y-34752400D01*
X205075000Y-34400000D02*
X216000000Y-34400000D01*
X52450000Y-49825000D02*
X63125000Y-49825000D01*
X91870200Y-33129800D02*
X203804800Y-33129800D01*
X63125000Y-49825000D02*
X64150000Y-48800000D01*
X52300000Y-49975000D02*
X52450000Y-49825000D01*
X231549434Y-34624434D02*
X238575000Y-41650000D01*
X216224434Y-34624434D02*
X231549434Y-34624434D01*
X203804800Y-33129800D02*
X205075000Y-34400000D01*
X65571590Y-48800000D02*
X65575000Y-48796590D01*
X238575000Y-41650000D02*
X238575000Y-48796590D01*
X216000000Y-34400000D02*
X216224434Y-34624434D01*
X46225000Y-46500000D02*
X46225000Y-36505526D01*
X90247600Y-34752400D02*
X91870200Y-33129800D01*
%TO.N,/41*%
D22*
X200337682Y-56396000D02*
X200000900Y-56396000D01*
X200820100Y-48449100D02*
X200846000Y-48475000D01*
X219611142Y-44288857D02*
X215031774Y-39709490D01*
X201521000Y-49940773D02*
X201521000Y-50550000D01*
X200820100Y-55913582D02*
X200337682Y-56396000D01*
X200000900Y-56396000D02*
X200000900Y-53418582D01*
X180701568Y-60795050D02*
X182397040Y-60795050D01*
X200000900Y-53418582D02*
X199278000Y-52695682D01*
X177313100Y-57406582D02*
X180701568Y-60795050D01*
X201521000Y-50550000D02*
X200820100Y-51250900D01*
X215031774Y-39709490D02*
X205650859Y-39709491D01*
X199278000Y-46453137D02*
X199262000Y-46437138D01*
X199278000Y-52695682D02*
X199278000Y-46453137D01*
X228875000Y-46296590D02*
X228875000Y-45392590D01*
X205650859Y-39709491D02*
X200820100Y-44540251D01*
X200846000Y-49265772D02*
X201521000Y-49940773D01*
X192487075Y-38955490D02*
X182458541Y-38955491D01*
X227771267Y-44288857D02*
X219611142Y-44288857D01*
X200846000Y-48475000D02*
X200846000Y-49265772D01*
X200820100Y-44540251D02*
X200820100Y-48449100D01*
X228875000Y-45392590D02*
X227771267Y-44288857D01*
X199261998Y-45730412D02*
X192487075Y-38955490D01*
X199262000Y-46437138D02*
X199261998Y-45730412D01*
X200820100Y-51250900D02*
X200820100Y-55913582D01*
X182458541Y-38955491D02*
X177313100Y-44100933D01*
X177313100Y-44100933D02*
X177313100Y-57406582D01*
%TO.N,/42*%
X198508000Y-46749455D02*
X198524000Y-46765455D01*
X178067100Y-44413250D02*
X182770859Y-39709490D01*
X214719457Y-40463490D02*
X220552558Y-46296590D01*
X199246900Y-57150000D02*
X200650000Y-57150000D01*
X220552558Y-46296590D02*
X228075000Y-46296590D01*
X205963177Y-40463490D02*
X214719457Y-40463490D01*
X178067100Y-54715050D02*
X178067100Y-44413250D01*
X202275000Y-49628455D02*
X201600000Y-48953455D01*
X199246900Y-53730900D02*
X199246900Y-57150000D01*
X201600000Y-48953455D02*
X201600000Y-47437587D01*
X192174758Y-39709490D02*
X198507999Y-46042730D01*
X201574100Y-47411688D02*
X201574100Y-44852568D01*
X200650000Y-57150000D02*
X201600000Y-56200000D01*
X198524000Y-53008000D02*
X199246900Y-53730900D01*
X198507999Y-46042730D02*
X198508000Y-46749455D01*
X201600000Y-51550000D02*
X202275000Y-50875000D01*
X182770859Y-39709490D02*
X192174758Y-39709490D01*
X201600000Y-47437587D02*
X201574100Y-47411688D01*
X180646980Y-57294930D02*
X178067100Y-54715050D01*
X201574100Y-44852568D02*
X205963177Y-40463490D01*
X201600000Y-56200000D02*
X201600000Y-51550000D01*
X198524000Y-46765455D02*
X198524000Y-53008000D01*
X202275000Y-50875000D02*
X202275000Y-49628455D01*
%TO.N,Net-(J1-Pin_11)*%
D23*
X142416200Y-100256200D02*
X142416200Y-95896200D01*
X145086200Y-98916200D02*
X148436200Y-102266200D01*
X142416200Y-95896200D02*
X144266200Y-95896200D01*
X145086200Y-96716200D02*
X145086200Y-98916200D01*
X143616200Y-101456200D02*
X142416200Y-100256200D01*
X148436200Y-102266200D02*
X148436200Y-111066200D01*
X144266200Y-95896200D02*
X145086200Y-96716200D01*
%TO.N,Net-(N5-PadA)*%
X190185000Y-36300000D02*
X188232709Y-38252291D01*
X174975000Y-45444557D02*
X174975000Y-58825000D01*
X182167266Y-38252291D02*
X174975000Y-45444557D01*
X188232709Y-38252291D02*
X182167266Y-38252291D01*
%TO.N,Net-(J1-Pin_12)*%
X145575029Y-96777371D02*
X145575029Y-98977371D01*
X144391458Y-95593800D02*
X145575029Y-96777371D01*
X142290942Y-95593800D02*
X144391458Y-95593800D01*
X149436200Y-102838542D02*
X149436200Y-111066200D01*
X145575029Y-98977371D02*
X149436200Y-102838542D01*
X142113800Y-100381458D02*
X142113800Y-95770942D01*
X142290942Y-95593800D02*
X142526200Y-95593800D01*
X143616200Y-105046200D02*
X142266200Y-105046200D01*
X142116200Y-100383858D02*
X142113800Y-100381458D01*
X142116200Y-104896200D02*
X142116200Y-100383858D01*
X142266200Y-105046200D02*
X142116200Y-104896200D01*
X142113800Y-95770942D02*
X142290942Y-95593800D01*
%TO.N,/10*%
D22*
X76075000Y-60725000D02*
X78175000Y-62825000D01*
X100983150Y-63166850D02*
X100983150Y-57655060D01*
X76075000Y-59296590D02*
X76075000Y-60725000D01*
X100500000Y-63650000D02*
X100983150Y-63166850D01*
X100983150Y-57655060D02*
X100623020Y-57294930D01*
%TO.N,/1*%
X70475000Y-67925000D02*
X88900000Y-67925000D01*
X88900000Y-67925000D02*
X90877040Y-65947960D01*
X68875000Y-66325000D02*
X70475000Y-67925000D01*
X90877040Y-65947960D02*
X90877040Y-60795050D01*
X68875000Y-59296590D02*
X68875000Y-66325000D01*
%TO.N,/2*%
X87928100Y-61205060D02*
X87928100Y-58493810D01*
X69675000Y-65629000D02*
X69629000Y-65675000D01*
X69675000Y-59296590D02*
X69675000Y-65629000D01*
X71125000Y-67171000D02*
X88587682Y-67171000D01*
X88587682Y-67171000D02*
X90123040Y-65635642D01*
X69629000Y-65675000D02*
X71125000Y-67171000D01*
X90123040Y-65635642D02*
X90123040Y-63400000D01*
X87928100Y-58493810D02*
X89126980Y-57294930D01*
X90123040Y-63400000D02*
X87928100Y-61205060D01*
%TO.N,/3*%
X89369040Y-63875000D02*
X87174100Y-61680060D01*
X89369040Y-65323324D02*
X89369040Y-63875000D01*
X70475000Y-59296590D02*
X70475000Y-65454682D01*
X87174100Y-54749470D02*
X89126980Y-52796590D01*
X70475000Y-65454682D02*
X71437318Y-66417000D01*
X71437318Y-66417000D02*
X88275364Y-66417000D01*
X87174100Y-61680060D02*
X87174100Y-54749470D01*
X88275364Y-66417000D02*
X89369040Y-65323324D01*
%TO.N,/4*%
X88615040Y-64187318D02*
X86420100Y-61992377D01*
X71250000Y-61163000D02*
X71250000Y-65163364D01*
X71275000Y-59296590D02*
X71275000Y-61138000D01*
X71749636Y-65663000D02*
X87963046Y-65663000D01*
X86420100Y-61992377D02*
X86420100Y-51005130D01*
X86420100Y-51005130D02*
X89126980Y-48298250D01*
X88615040Y-65011006D02*
X88615040Y-64187318D01*
X87963046Y-65663000D02*
X88615040Y-65011006D01*
X71250000Y-65163364D02*
X71749636Y-65663000D01*
X71275000Y-61138000D02*
X71250000Y-61163000D01*
%TO.N,/5*%
X87650728Y-64909000D02*
X87861040Y-64698688D01*
X87861040Y-64698688D02*
X85666100Y-62503748D01*
X90044915Y-44798130D02*
X90877040Y-44798130D01*
X85666100Y-49176945D02*
X90044915Y-44798130D01*
X72061954Y-64909000D02*
X87650728Y-64909000D01*
X72075000Y-59296590D02*
X72075000Y-64895954D01*
X72075000Y-64895954D02*
X72061954Y-64909000D01*
X85666100Y-62503748D02*
X85666100Y-49176945D01*
%TO.N,/6*%
X72875000Y-59296590D02*
X72875000Y-64130000D01*
X72875000Y-64130000D02*
X72900000Y-64155000D01*
X84912100Y-62816065D02*
X84912100Y-48180885D01*
X84912100Y-48180885D02*
X90494495Y-42598490D01*
X90494495Y-42598490D02*
X93676120Y-42598490D01*
X86251034Y-64155000D02*
X84912100Y-62816065D01*
X93676120Y-42598490D02*
X94875000Y-43797370D01*
X72900000Y-64155000D02*
X86251034Y-64155000D01*
%TO.N,/7*%
X103429000Y-53469933D02*
X103429000Y-50037912D01*
X73675000Y-59296590D02*
X73675000Y-62525000D01*
X105650000Y-57200000D02*
X104733000Y-56283000D01*
X73675000Y-62525000D02*
X73950000Y-62800000D01*
X103205204Y-48298249D02*
X99705085Y-44798130D01*
X102447271Y-49056183D02*
X103205204Y-48298249D01*
X104733000Y-56283000D02*
X104733000Y-54773934D01*
X104733000Y-54773934D02*
X103429000Y-53469933D01*
X99705085Y-44798130D02*
X98872960Y-44798130D01*
X103429000Y-50037912D02*
X102447271Y-49056183D01*
%TO.N,/8*%
X74450000Y-61750000D02*
X75450000Y-62750000D01*
X74475000Y-59296590D02*
X74475000Y-59500000D01*
X102675000Y-50350230D02*
X100623020Y-48298250D01*
X102675000Y-53782252D02*
X102675000Y-50350230D01*
X104375000Y-58350000D02*
X103979000Y-57954000D01*
X74450000Y-59525000D02*
X74450000Y-61750000D01*
X74475000Y-59500000D02*
X74450000Y-59525000D01*
X103979000Y-57954000D02*
X103979000Y-55086252D01*
X103979000Y-55086252D02*
X102675000Y-53782252D01*
%TO.N,/9*%
X76745923Y-62800000D02*
X76850000Y-62800000D01*
X75275000Y-61329077D02*
X76745923Y-62800000D01*
X103225000Y-55398570D02*
X100623020Y-52796590D01*
X103225000Y-62100000D02*
X103225000Y-55398570D01*
X75275000Y-59296590D02*
X75275000Y-61329077D01*
%TO.N,Net-(N1-PadA)*%
D23*
X106375000Y-54250000D02*
X106400000Y-54275000D01*
X106375000Y-35025000D02*
X106375000Y-37193490D01*
X106375000Y-35025000D02*
X98665000Y-35025000D01*
X106375000Y-42900000D02*
X106375000Y-54250000D01*
X98665000Y-35025000D02*
X98665000Y-36300000D01*
%TO.N,Net-(J1-Pin_1)*%
X138436200Y-109726200D02*
X138436200Y-111066200D01*
X136136200Y-107426200D02*
X138436200Y-109726200D01*
X128266200Y-99786200D02*
X128266200Y-107426200D01*
X130116200Y-97936200D02*
X128266200Y-99786200D01*
X128266200Y-107426200D02*
X136136200Y-107426200D01*
%TO.N,Net-(D3-RK)*%
X149804652Y-69296302D02*
X149804652Y-69325000D01*
X138135000Y-54396590D02*
X138475000Y-54736590D01*
X147670150Y-67161800D02*
X149804652Y-69296302D01*
X142527162Y-67161800D02*
X147670150Y-67161800D01*
X138475000Y-54736590D02*
X138475000Y-70942800D01*
X141145200Y-70942800D02*
X141145200Y-68543762D01*
X138475000Y-70942800D02*
X141145200Y-70942800D01*
X141145200Y-68543762D02*
X142527162Y-67161800D01*
%TO.N,Net-(D3-GK)*%
X140842800Y-70640400D02*
X138777400Y-70640400D01*
X139161200Y-55122790D02*
X139161200Y-53670390D01*
X140842800Y-68418504D02*
X140842800Y-70640400D01*
X148339052Y-66859400D02*
X142401904Y-66859400D01*
X150475000Y-68995348D02*
X148339052Y-66859400D01*
X138600000Y-53670390D02*
X138600000Y-51661590D01*
X138777400Y-65622600D02*
X138800000Y-65600000D01*
X138600000Y-51661590D02*
X138135000Y-51196590D01*
X138777400Y-65577400D02*
X138777400Y-55122790D01*
X142401904Y-66859400D02*
X140842800Y-68418504D01*
X138777400Y-70640400D02*
X138777400Y-65622600D01*
X138800000Y-65600000D02*
X138777400Y-65577400D01*
X150475000Y-69650000D02*
X150475000Y-68995348D01*
X138777400Y-55122790D02*
X139161200Y-55122790D01*
X139161200Y-53670390D02*
X138600000Y-53670390D01*
%TO.N,Net-(D3-BK)*%
X139079800Y-65452142D02*
X139102400Y-65474742D01*
X139079800Y-55425190D02*
X139079800Y-65452142D01*
X143135000Y-51196590D02*
X141856590Y-52475000D01*
X140540400Y-70338000D02*
X140540400Y-68293246D01*
X139463600Y-53545132D02*
X139463600Y-55248048D01*
X139286458Y-55425190D02*
X139079800Y-55425190D01*
X139102400Y-65725258D02*
X139079800Y-65747858D01*
X139079800Y-70338000D02*
X140540400Y-70338000D01*
X142276646Y-66557000D02*
X149036652Y-66557000D01*
X139102400Y-65474742D02*
X139102400Y-65725258D01*
X139463600Y-55248048D02*
X139286458Y-55425190D01*
X140540400Y-68293246D02*
X142276646Y-66557000D01*
X138902400Y-53367990D02*
X139286458Y-53367990D01*
X138902400Y-52475000D02*
X138902400Y-53367990D01*
X149036652Y-66557000D02*
X151804652Y-69325000D01*
X139286458Y-53367990D02*
X139463600Y-53545132D01*
X141856590Y-52475000D02*
X138902400Y-52475000D01*
X139079800Y-65747858D02*
X139079800Y-70338000D01*
%TO.N,/11*%
D22*
X79700000Y-57921590D02*
X79700000Y-62475000D01*
X78575000Y-56796590D02*
X79700000Y-57921590D01*
X101067000Y-68300000D02*
X108744951Y-68300000D01*
X108744951Y-68300000D02*
X113757040Y-63287911D01*
X100940000Y-68173000D02*
X101067000Y-68300000D01*
X113757040Y-63287911D02*
X113757040Y-60795050D01*
X79700000Y-62475000D02*
X79950000Y-62725000D01*
%TO.N,/12*%
X80475000Y-61625000D02*
X81600000Y-62750000D01*
X100940000Y-67150000D02*
X108828634Y-67150000D01*
X79479000Y-55996590D02*
X80475000Y-56992590D01*
X111931160Y-64047474D02*
X111931160Y-57370750D01*
X80475000Y-56992590D02*
X80475000Y-61625000D01*
X108828634Y-67150000D02*
X111931160Y-64047474D01*
X111931160Y-57370750D02*
X112006980Y-57294930D01*
X78575000Y-55996590D02*
X79479000Y-55996590D01*
%TO.N,/13*%
X100940000Y-66000000D02*
X108912317Y-66000000D01*
X79779000Y-55196590D02*
X81750000Y-57167590D01*
X81750000Y-61350000D02*
X83125000Y-62725000D01*
X110181100Y-64731217D02*
X110181100Y-54622470D01*
X78575000Y-55196590D02*
X79779000Y-55196590D01*
X83125000Y-62725000D02*
X83125000Y-62750000D01*
X108912317Y-66000000D02*
X110181100Y-64731217D01*
X110181100Y-54622470D02*
X112006980Y-52796590D01*
X81750000Y-57167590D02*
X81750000Y-61350000D01*
%TO.N,/14*%
X101110997Y-64821000D02*
X109025000Y-64821000D01*
X109025000Y-64821000D02*
X109121000Y-64725000D01*
X109121000Y-64725000D02*
X109121000Y-51184230D01*
X100940000Y-64991997D02*
X101110997Y-64821000D01*
X78575000Y-54396590D02*
X80045317Y-54396590D01*
X83500000Y-57851273D02*
X83500000Y-61125000D01*
X80045317Y-54396590D02*
X83500000Y-57851273D01*
X109121000Y-51184230D02*
X112006980Y-48298250D01*
%TO.N,/15*%
X112937500Y-44787500D02*
X112926870Y-44798130D01*
X84158100Y-53600000D02*
X84158100Y-47868567D01*
X109994490Y-41844490D02*
X112937500Y-44787500D01*
X84158100Y-47868567D02*
X90182178Y-41844490D01*
X84154690Y-53596590D02*
X84158100Y-53600000D01*
X78575000Y-53596590D02*
X84154690Y-53596590D01*
X112926870Y-44798130D02*
X113757040Y-44798130D01*
X90182178Y-41844490D02*
X109994490Y-41844490D01*
%TO.N,/16*%
X115048120Y-41090490D02*
X117755000Y-43797370D01*
X89869861Y-41090490D02*
X115048120Y-41090490D01*
X83404101Y-47556249D02*
X89869861Y-41090490D01*
X83404100Y-52842590D02*
X83404101Y-47556249D01*
X83358100Y-52796590D02*
X83404100Y-52842590D01*
X78575000Y-52796590D02*
X83358100Y-52796590D01*
%TO.N,/17*%
X117291320Y-40336490D02*
X121752960Y-44798130D01*
X82604100Y-51996590D02*
X82650100Y-52042590D01*
X89557544Y-40336490D02*
X117291320Y-40336490D01*
X82650102Y-47243931D02*
X89557544Y-40336490D01*
X82650100Y-52042590D02*
X82650102Y-47243931D01*
X78575000Y-51996590D02*
X82604100Y-51996590D01*
%TO.N,/18*%
X81896103Y-46931613D02*
X89245227Y-39582490D01*
X78575000Y-51196590D02*
X78621000Y-51242590D01*
X123578840Y-44041825D02*
X123578840Y-48222430D01*
X119119505Y-39582490D02*
X123578840Y-44041825D01*
X89245227Y-39582490D02*
X119119505Y-39582490D01*
X81896100Y-51242590D02*
X81896103Y-46931613D01*
X78621000Y-51242590D02*
X81896100Y-51242590D01*
X123578840Y-48222430D02*
X123503020Y-48298250D01*
%TO.N,/19*%
X88932910Y-38828490D02*
X119431823Y-38828490D01*
X125328900Y-50970710D02*
X123503020Y-52796590D01*
X78575000Y-50396590D02*
X81138691Y-50396590D01*
X81142101Y-50400000D02*
X81142104Y-46619295D01*
X125328900Y-44725567D02*
X125328900Y-50970710D01*
X81142104Y-46619295D02*
X88932910Y-38828490D01*
X119431823Y-38828490D02*
X125328900Y-44725567D01*
X81138691Y-50396590D02*
X81142101Y-50400000D01*
%TO.N,/20*%
X124725000Y-66432000D02*
X124706000Y-66413000D01*
X78575000Y-49596590D02*
X77371000Y-49596590D01*
X124706000Y-66413000D02*
X124706000Y-58497910D01*
X124725000Y-66844000D02*
X124725000Y-66432000D01*
X124706000Y-58497910D02*
X123503020Y-57294930D01*
X76125000Y-50842590D02*
X76125000Y-52050000D01*
X77371000Y-49596590D02*
X76125000Y-50842590D01*
%TO.N,/DIN*%
D23*
X65600000Y-59350000D02*
X51550000Y-59350000D01*
X51550000Y-52425000D02*
X51450000Y-52425000D01*
X51321590Y-52296590D02*
X50125000Y-52296590D01*
X51450000Y-52425000D02*
X51321590Y-52296590D01*
X51550000Y-59350000D02*
X51550000Y-52425000D01*
X65575000Y-59325000D02*
X65600000Y-59350000D01*
X65575000Y-56796590D02*
X65575000Y-59325000D01*
%TO.N,Net-(J1-Pin_17)*%
X156406200Y-101526200D02*
X155126200Y-102806200D01*
X155126200Y-110376200D02*
X154436200Y-111066200D01*
X155126200Y-102806200D02*
X155126200Y-110376200D01*
%TO.N,Net-(J1-Pin_7)*%
X143616200Y-85616200D02*
X141206600Y-88025800D01*
X141206600Y-88025800D02*
X141206600Y-107836600D01*
X141206600Y-107836600D02*
X144436200Y-111066200D01*
%TO.N,Net-(J1-Pin_10)*%
X143616200Y-97936200D02*
X147436200Y-101756200D01*
X147436200Y-101756200D02*
X147436200Y-111066200D01*
%TO.N,Net-(D7-RK)*%
X164177142Y-71600000D02*
X164056055Y-71721087D01*
X207050000Y-54671590D02*
X207050000Y-60057667D01*
X207052120Y-60059787D02*
X207052120Y-61530313D01*
X165680661Y-71600000D02*
X165674361Y-71606300D01*
X196280526Y-71600000D02*
X165680661Y-71600000D01*
X206775000Y-54396590D02*
X207050000Y-54671590D01*
X207050000Y-62525516D02*
X207797600Y-63273116D01*
X202789119Y-71903200D02*
X196583726Y-71903200D01*
X207797600Y-72017800D02*
X207679800Y-71900000D01*
X164056055Y-69227809D02*
X163199646Y-68371400D01*
X207050000Y-61532433D02*
X207050000Y-62525516D01*
X207679800Y-71900000D02*
X203764081Y-71900000D01*
X196583726Y-71903200D02*
X196280526Y-71600000D01*
X202931119Y-72045200D02*
X202789119Y-71903200D01*
X163199646Y-68371400D02*
X159758252Y-68371400D01*
X203618881Y-72045200D02*
X202931119Y-72045200D01*
X207052120Y-61530313D02*
X207050000Y-61532433D01*
X207797600Y-63273116D02*
X207797600Y-72017800D01*
X165275639Y-71606300D02*
X165269339Y-71600000D01*
X207050000Y-60057667D02*
X207052120Y-60059787D01*
X164056055Y-71721087D02*
X164056055Y-69227809D01*
X159758252Y-68371400D02*
X158804652Y-69325000D01*
X165674361Y-71606300D02*
X165275639Y-71606300D01*
X203764081Y-71900000D02*
X203618881Y-72045200D01*
X165269339Y-71600000D02*
X164177142Y-71600000D01*
%TO.N,Net-(D7-GK)*%
X207352400Y-61657691D02*
X207354520Y-61655571D01*
X208949248Y-53829162D02*
X208949248Y-56123094D01*
X163753655Y-69353067D02*
X163753655Y-71846345D01*
X159804652Y-69325000D02*
X160455852Y-68673800D01*
X164181313Y-72023487D02*
X164302400Y-71902400D01*
X196458468Y-72205600D02*
X202663861Y-72205600D01*
X208222600Y-60405184D02*
X207354520Y-61273264D01*
X163753655Y-71846345D02*
X163930797Y-72023487D01*
X160455852Y-68673800D02*
X163074388Y-68673800D01*
X208222600Y-72025000D02*
X208222600Y-63186436D01*
X164302400Y-71902400D02*
X165144081Y-71902400D01*
X207922858Y-72320200D02*
X208100000Y-72143058D01*
X208100000Y-72025000D02*
X208222600Y-72025000D01*
X206775000Y-51196590D02*
X209178410Y-53600000D01*
X208100000Y-72143058D02*
X208100000Y-72025000D01*
X165150381Y-71908700D02*
X165799619Y-71908700D01*
X207672342Y-72320200D02*
X207922858Y-72320200D01*
X207352400Y-62400258D02*
X207352400Y-61657691D01*
X165799619Y-71908700D02*
X165805919Y-71902400D01*
X163074388Y-68673800D02*
X163753655Y-69353067D01*
X165805919Y-71902400D02*
X196155268Y-71902400D01*
X207554542Y-72202400D02*
X207672342Y-72320200D01*
X202805861Y-72347600D02*
X203744139Y-72347600D01*
X202663861Y-72205600D02*
X202805861Y-72347600D01*
X196155268Y-71902400D02*
X196458468Y-72205600D01*
X163930797Y-72023487D02*
X164181313Y-72023487D01*
X209178410Y-53600000D02*
X208949248Y-53829162D01*
X208100000Y-63147858D02*
X207352400Y-62400258D01*
X207354520Y-61273264D02*
X207354520Y-61655571D01*
X165144081Y-71902400D02*
X165150381Y-71908700D01*
X208222600Y-56849742D02*
X208222600Y-60405184D01*
X203889339Y-72202400D02*
X207554542Y-72202400D01*
X208949248Y-56123094D02*
X208222600Y-56849742D01*
X203744139Y-72347600D02*
X203889339Y-72202400D01*
%TO.N,Net-(D7-BK)*%
X208525000Y-72625000D02*
X208285358Y-72385358D01*
X208525000Y-60530442D02*
X207849920Y-61205522D01*
X203869397Y-72650000D02*
X202680603Y-72650000D01*
X208525000Y-63061178D02*
X208525000Y-72625000D01*
X196333210Y-72508000D02*
X196030010Y-72204800D01*
X165924877Y-72211100D02*
X165025123Y-72211100D01*
X207849920Y-61205522D02*
X207849920Y-62386098D01*
X207429284Y-72504800D02*
X204014597Y-72504800D01*
X202538603Y-72508000D02*
X196333210Y-72508000D01*
X208048116Y-72622600D02*
X207547084Y-72622600D01*
X165025123Y-72211100D02*
X165018823Y-72204800D01*
X163805539Y-72325887D02*
X160804652Y-69325000D01*
X164427658Y-72204800D02*
X164306571Y-72325887D01*
X196030010Y-72204800D02*
X165931177Y-72204800D01*
X211775000Y-51576648D02*
X209251648Y-54100000D01*
X208285358Y-72385358D02*
X208048116Y-72622600D01*
X165931177Y-72204800D02*
X165924877Y-72211100D01*
X208525000Y-56975000D02*
X208525000Y-60530442D01*
X202680603Y-72650000D02*
X202538603Y-72508000D01*
X209251648Y-54100000D02*
X209251648Y-56248352D01*
X211775000Y-51196590D02*
X211775000Y-51576648D01*
X207547084Y-72622600D02*
X207429284Y-72504800D01*
X164306571Y-72325887D02*
X163805539Y-72325887D01*
X209251648Y-56248352D02*
X208525000Y-56975000D01*
X204014597Y-72504800D02*
X203869397Y-72650000D01*
X207849920Y-62386098D02*
X208525000Y-63061178D01*
X165018823Y-72204800D02*
X164427658Y-72204800D01*
%TO.N,Net-(J1-Pin_9)*%
X146436200Y-111026200D02*
X146436200Y-111066200D01*
X141811400Y-94531000D02*
X141811400Y-106401400D01*
X143616200Y-92726200D02*
X141811400Y-94531000D01*
X141811400Y-106401400D02*
X146436200Y-111026200D01*
%TO.N,Net-(D2-RK)*%
X142275000Y-71825000D02*
X142275000Y-68696936D01*
X115450000Y-71850000D02*
X142250000Y-71850000D01*
X142902936Y-68069000D02*
X146149692Y-68069000D01*
X115255000Y-54396590D02*
X115532120Y-54673710D01*
X115532120Y-71767880D02*
X115450000Y-71850000D01*
X146804652Y-68723960D02*
X146804652Y-69325000D01*
X146149692Y-68069000D02*
X146804652Y-68723960D01*
X142250000Y-71850000D02*
X142275000Y-71825000D01*
X115532120Y-54673710D02*
X115532120Y-71767880D01*
X142275000Y-68696936D02*
X142902936Y-68069000D01*
%TO.N,Net-(D2-GK)*%
X115255000Y-51196590D02*
X115300000Y-51241590D01*
X147804652Y-68723960D02*
X147804652Y-69325000D01*
X116281200Y-53670390D02*
X116281200Y-55122790D01*
X116281200Y-55122790D02*
X115834520Y-55122790D01*
X146847292Y-67766600D02*
X147804652Y-68723960D01*
X115834520Y-55122790D02*
X115834520Y-71547600D01*
X115300000Y-53670390D02*
X116281200Y-53670390D01*
X115300000Y-51241590D02*
X115300000Y-53670390D01*
X141750000Y-68794278D02*
X142777678Y-67766600D01*
X142777678Y-67766600D02*
X146847292Y-67766600D01*
X141750000Y-71547600D02*
X141750000Y-68794278D01*
X115834520Y-71547600D02*
X141750000Y-71547600D01*
%TO.N,Net-(D2-BK)*%
X116583600Y-55248048D02*
X116406458Y-55425190D01*
X141447600Y-71245200D02*
X141447600Y-68669020D01*
X147544892Y-67464200D02*
X148804652Y-68723960D01*
X116136920Y-71245200D02*
X141447600Y-71245200D01*
X148804652Y-68723960D02*
X148804652Y-69325000D01*
X142652420Y-67464200D02*
X147544892Y-67464200D01*
X116136920Y-55425190D02*
X116136920Y-71245200D01*
X116406458Y-55425190D02*
X116136920Y-55425190D01*
X116583600Y-53641400D02*
X116583600Y-55248048D01*
X119028410Y-51196590D02*
X116583600Y-53641400D01*
X141447600Y-68669020D02*
X142652420Y-67464200D01*
X120255000Y-51196590D02*
X119028410Y-51196590D01*
%TO.N,Net-(J1-Pin_15)*%
X156406200Y-92726200D02*
X154376200Y-94756200D01*
X154376200Y-94756200D02*
X154376200Y-107746200D01*
X152436200Y-109686200D02*
X152436200Y-111066200D01*
X154376200Y-107746200D02*
X152436200Y-109686200D01*
%TO.N,Net-(J1-Pin_3)*%
X130186200Y-106806200D02*
X136371516Y-106806200D01*
X130116200Y-105046200D02*
X130116200Y-106736200D01*
X130116200Y-106736200D02*
X130186200Y-106806200D01*
X136371516Y-106806200D02*
X140436200Y-110870884D01*
X140436200Y-110870884D02*
X140436200Y-111066200D01*
%TO.N,Net-(D1-RK)*%
X92375000Y-54396590D02*
X92652120Y-54673710D01*
X93649484Y-72454800D02*
X94150516Y-72454800D01*
X101299010Y-72948800D02*
X108795539Y-72948800D01*
X94150516Y-72454800D02*
X94175516Y-72429800D01*
X143455852Y-69673800D02*
X143804652Y-69325000D01*
X93275942Y-72429800D02*
X93624484Y-72429800D01*
X108800639Y-72943700D02*
X109199361Y-72943700D01*
X143028194Y-72429800D02*
X143050516Y-72429800D01*
X108795539Y-72948800D02*
X108800639Y-72943700D01*
X143455852Y-72024464D02*
X143455852Y-69673800D01*
X109204461Y-72948800D02*
X142509194Y-72948800D01*
X109199361Y-72943700D02*
X109204461Y-72948800D01*
X92652120Y-54673710D02*
X92652120Y-71805978D01*
X93624484Y-72429800D02*
X93649484Y-72454800D01*
X143050516Y-72429800D02*
X143455852Y-72024464D01*
X100780010Y-72429800D02*
X101299010Y-72948800D01*
X142509194Y-72948800D02*
X143028194Y-72429800D01*
X94175516Y-72429800D02*
X100780010Y-72429800D01*
X92652120Y-71805978D02*
X93275942Y-72429800D01*
%TO.N,Net-(D1-GK)*%
X100905268Y-72127400D02*
X101424268Y-72646400D01*
X94025258Y-72152400D02*
X94050258Y-72127400D01*
X108670281Y-72646400D02*
X108675381Y-72641300D01*
X142925258Y-72127400D02*
X143153452Y-71899206D01*
X92954520Y-55122790D02*
X92954520Y-71680720D01*
X93749742Y-72127400D02*
X93774742Y-72152400D01*
X101424268Y-72646400D02*
X108670281Y-72646400D01*
X92954520Y-71680720D02*
X93401200Y-72127400D01*
X142383936Y-72646400D02*
X142902936Y-72127400D01*
X142902936Y-72127400D02*
X142925258Y-72127400D01*
X109324619Y-72641300D02*
X109329719Y-72646400D01*
X109329719Y-72646400D02*
X142383936Y-72646400D01*
X93401200Y-52222790D02*
X93401200Y-53548800D01*
X108675381Y-72641300D02*
X109324619Y-72641300D01*
X93401200Y-55122790D02*
X92954520Y-55122790D01*
X93774742Y-72152400D02*
X94025258Y-72152400D01*
X94050258Y-72127400D02*
X100905268Y-72127400D01*
X144773800Y-68673800D02*
X144804652Y-68704652D01*
X93401200Y-72127400D02*
X93749742Y-72127400D01*
X144804652Y-68704652D02*
X144804652Y-69325000D01*
X92375000Y-51196590D02*
X93401200Y-52222790D01*
X143153452Y-68673800D02*
X144773800Y-68673800D01*
X93401200Y-53400000D02*
X93401200Y-55122790D01*
X143153452Y-71899206D02*
X143153452Y-68673800D01*
%TO.N,Net-(D1-BK)*%
X145452092Y-68371400D02*
X143028194Y-68371400D01*
X142777678Y-71825000D02*
X142258678Y-72344000D01*
X143028194Y-68371400D02*
X142800000Y-68599594D01*
X109449877Y-72338900D02*
X108550123Y-72338900D01*
X94150000Y-52946400D02*
X95625190Y-52946400D01*
X93703600Y-55248048D02*
X93703600Y-52950000D01*
X142258678Y-72344000D02*
X109454977Y-72344000D01*
X93526458Y-55425190D02*
X93703600Y-55248048D01*
X93900000Y-71850000D02*
X93875000Y-71825000D01*
X93256920Y-71555462D02*
X93256920Y-55425190D01*
X95625190Y-52946400D02*
X97375000Y-51196590D01*
X145804652Y-69325000D02*
X145804652Y-68723960D01*
X108545023Y-72344000D02*
X101549525Y-72344000D01*
X145804652Y-68723960D02*
X145452092Y-68371400D01*
X93526458Y-71825000D02*
X93256920Y-71555462D01*
X93703600Y-52950000D02*
X94146400Y-52950000D01*
X93256920Y-55425190D02*
X93526458Y-55425190D01*
X94146400Y-52950000D02*
X94150000Y-52946400D01*
X101030525Y-71825000D02*
X93925000Y-71825000D01*
X142800000Y-68599594D02*
X142800000Y-71825000D01*
X93925000Y-71825000D02*
X93900000Y-71850000D01*
X101549525Y-72344000D02*
X101030525Y-71825000D01*
X108550123Y-72338900D02*
X108545023Y-72344000D01*
X93875000Y-71825000D02*
X93526458Y-71825000D01*
X109454977Y-72344000D02*
X109449877Y-72338900D01*
X142800000Y-71825000D02*
X142777678Y-71825000D01*
%TO.N,Net-(J1-Pin_13)*%
X156406200Y-85616200D02*
X153771400Y-88251000D01*
X153771400Y-107306200D02*
X150436200Y-110641400D01*
X153771400Y-88251000D02*
X153771400Y-107306200D01*
X150436200Y-110641400D02*
X150436200Y-111066200D01*
%TD*%
M02*
