M48
; DRILL file KiCad 10.0.5 date 2026-08-17T23:43:38
; FORMAT={-:-/ absolute / metric / decimal}
; #@! TF.CreationDate,2026-08-17T23:43:38+03:00
; #@! TF.GenerationSoftware,Kicad,Pcbnew,10.0.5
; #@! TF.FileFunction,MixedPlating,1,2
FMAT,2
METRIC
; #@! TA.AperFunction,Plated,PTH,ViaDrill
T1C0.330
; #@! TA.AperFunction,Plated,PTH,ComponentDrill
T2C0.500
; #@! TA.AperFunction,Plated,PTH,ComponentDrill
T3C0.800
; #@! TA.AperFunction,Plated,PTH,ComponentDrill
T4C0.900
; #@! TA.AperFunction,Plated,PTH,ComponentDrill
T5C1.598
%
G90
G05
T1
X45.175Y-50.275
X46.225Y-46.5
X46.225Y-51.3
X48.253Y-50.297
X48.253Y-51.297
X52.3Y-49.975
X59.875Y-58.5
X59.875Y-60.175
X62.725Y-45.525
X65.65Y-35.375
X65.65Y-37.6
X67.35Y-44.025
X68.25Y-43.2
X69.075Y-42.225
X70.25Y-41.45
X72.525Y-39.55
X73.95Y-62.8
X75.45Y-62.75
X76.125Y-52.05
X76.175Y-37.75
X76.225Y-39.45
X76.225Y-41.05
X76.337Y-42.737
X76.337Y-44.275
X76.85Y-62.8
X78.175Y-62.825
X78.275Y-60.675
X79.95Y-62.725
X81.6Y-62.75
X83.125Y-62.75
X83.5Y-61.125
X95.975Y-69.0
X100.5Y-63.65
X100.94Y-64.992
X100.94Y-66.0
X100.94Y-67.15
X100.94Y-68.173
X103.225Y-62.1
X104.375Y-58.35
X105.65Y-57.2
X106.375Y-37.193
X106.375Y-42.9
X106.375Y-54.275
X109.0Y-73.425
X109.025Y-69.775
X110.35Y-70.975
X124.725Y-66.844
X126.25Y-68.425
X126.431Y-60.795
X127.675Y-69.977
X137.525Y-70.45
X140.635Y-65.375
X143.175Y-57.675
X144.05Y-71.125
X165.475Y-66.375
X165.475Y-69.0
X165.475Y-71.125
X165.475Y-73.425
X174.975Y-58.825
X188.4Y-70.925
X188.425Y-73.425
X192.925Y-72.725
X200.15Y-64.05
X200.225Y-50.2
X201.25Y-70.319
X201.275Y-65.025
X202.25Y-65.925
X202.614Y-68.124
X203.25Y-68.994
X203.275Y-71.215
X203.6Y-66.855
X204.1Y-65.275
X204.25Y-69.58
X205.45Y-66.855
X210.4Y-72.225
X212.45Y-72.225
X220.775Y-52.775
X220.8Y-48.35
X220.8Y-51.197
X220.825Y-49.95
X221.35Y-54.0
X221.625Y-57.225
X222.275Y-48.35
X222.69Y-55.811
X222.8Y-63.845
X224.25Y-63.05
X225.55Y-62.525
X229.125Y-44.275
X229.925Y-43.625
X230.825Y-42.85
X231.754Y-42.458
X232.825Y-42.317
X233.71Y-42.865
X233.725Y-70.475
X234.475Y-67.65
X234.725Y-43.7
X235.25Y-69.45
X236.075Y-68.95
X236.195Y-42.8
X238.825Y-70.175
X239.15Y-67.15
X240.375Y-49.225
X240.375Y-51.95
X240.725Y-48.65
X241.05Y-52.775
T2
X50.125Y-48.297
X50.125Y-49.297
X50.125Y-50.297
X50.125Y-51.297
X50.125Y-52.297
X50.125Y-53.297
X50.125Y-54.297
X50.125Y-55.297
X50.125Y-56.297
X50.125Y-57.297
X138.436Y-111.066
X139.436Y-111.066
X140.436Y-111.066
X141.436Y-111.066
X142.436Y-111.066
X143.436Y-111.066
X143.805Y-69.325
X144.436Y-111.066
X144.805Y-69.325
X145.436Y-111.066
X145.771Y-81.436
X145.805Y-69.325
X146.436Y-111.066
X146.771Y-81.436
X146.805Y-69.325
X147.436Y-111.066
X147.771Y-81.436
X147.805Y-69.325
X148.436Y-111.066
X148.805Y-69.325
X149.436Y-111.066
X149.805Y-69.325
X150.436Y-111.066
X150.805Y-69.325
X151.436Y-111.066
X151.805Y-69.325
X152.436Y-111.066
X152.805Y-69.325
X153.436Y-111.066
X153.805Y-69.325
X154.436Y-111.066
X154.805Y-69.325
X155.436Y-111.066
X155.805Y-69.325
X156.436Y-111.066
X156.805Y-69.325
X157.436Y-111.066
X157.805Y-69.325
X158.805Y-69.325
X159.805Y-69.325
X160.805Y-69.325
X161.805Y-69.325
X162.805Y-69.325
T3
X55.13Y-42.2
X59.875Y-54.425
X59.875Y-56.925
X62.475Y-54.425
X62.475Y-56.925
X62.75Y-42.2
X91.045Y-36.3
X98.665Y-36.3
X113.245Y-36.3
X120.865Y-36.3
X130.116Y-85.736
X130.116Y-89.326
X130.116Y-92.846
X130.116Y-97.936
X130.116Y-101.526
X130.116Y-105.046
X136.805Y-36.3
X137.736Y-85.736
X137.736Y-89.326
X137.736Y-92.846
X137.736Y-97.936
X137.736Y-101.526
X137.736Y-105.046
X143.616Y-85.736
X143.616Y-89.326
X143.616Y-92.846
X143.616Y-97.936
X143.616Y-101.456
X143.616Y-105.046
X144.425Y-36.3
X151.236Y-85.736
X151.236Y-89.326
X151.236Y-92.846
X151.236Y-97.936
X151.236Y-101.456
X151.236Y-105.046
X156.406Y-85.736
X156.406Y-89.326
X156.406Y-92.846
X156.406Y-97.936
X156.406Y-101.526
X156.406Y-105.046
X159.685Y-36.3
X164.026Y-85.736
X164.026Y-89.326
X164.026Y-92.846
X164.026Y-97.936
X164.026Y-101.526
X164.026Y-105.046
X167.305Y-36.3
X182.565Y-36.3
X190.185Y-36.3
X205.445Y-36.3
X213.065Y-36.3
X223.125Y-36.775
X230.745Y-36.775
X242.925Y-51.175
X242.925Y-53.675
X244.15Y-40.115
X244.15Y-47.735
X245.45Y-51.175
X245.45Y-53.675
T4
X50.055Y-42.2
X52.595Y-42.2
T5
X89.127Y-48.298
X89.127Y-52.797
X89.127Y-57.295
X90.877Y-44.798
X90.877Y-60.795
X94.875Y-43.797
X94.875Y-61.796
X98.873Y-44.798
X98.873Y-60.795
X100.623Y-48.298
X100.623Y-52.797
X100.623Y-57.295
X112.007Y-48.298
X112.007Y-52.797
X112.007Y-57.295
X113.757Y-44.798
X113.757Y-60.795
X117.755Y-43.797
X117.755Y-61.796
X121.753Y-44.798
X121.753Y-60.795
X123.503Y-48.298
X123.503Y-52.797
X123.503Y-57.295
X134.887Y-48.298
X134.887Y-52.797
X134.887Y-57.295
X136.637Y-44.798
X136.637Y-60.795
X140.635Y-43.797
X140.635Y-61.796
X144.633Y-44.798
X144.633Y-60.795
X146.383Y-48.298
X146.383Y-52.797
X146.383Y-57.295
X157.767Y-48.298
X157.767Y-52.797
X157.767Y-57.295
X159.517Y-44.798
X159.517Y-60.795
X163.515Y-43.797
X163.515Y-61.796
X167.513Y-44.798
X167.513Y-60.795
X169.263Y-48.298
X169.263Y-52.797
X169.263Y-57.295
X180.647Y-48.298
X180.647Y-52.797
X180.647Y-57.295
X182.397Y-44.798
X182.397Y-60.795
X186.395Y-43.797
X186.395Y-61.796
X190.393Y-44.798
X190.393Y-60.795
X192.143Y-48.298
X192.143Y-52.797
X192.143Y-57.295
X203.527Y-48.298
X203.527Y-52.797
X203.527Y-57.295
X205.277Y-44.798
X205.277Y-60.795
X209.275Y-43.797
X209.275Y-61.796
X213.273Y-44.798
X213.273Y-60.795
X215.023Y-48.298
X215.023Y-52.797
X215.023Y-57.295
M30
