%TF.GenerationSoftware,KiCad,Pcbnew,10.0.5*%
%TF.CreationDate,2026-08-16T22:59:12+03:00*%
%TF.ProjectId,Nixie,4e697869-652e-46b6-9963-61645f706362,rev?*%
%TF.SameCoordinates,Original*%
%TF.FileFunction,Soldermask,Bot*%
%TF.FilePolarity,Negative*%
%FSLAX46Y46*%
G04 Gerber Fmt 4.6, Leading zero omitted, Abs format (unit mm)*
G04 Created by KiCad (PCBNEW 10.0.5) date 2026-08-16 22:59:12*
%MOMM*%
%LPD*%
G01*
G04 APERTURE LIST*
%ADD10C,2.397760*%
%ADD11C,1.600000*%
%ADD12R,0.850000X0.850000*%
%ADD13C,0.850000*%
%ADD14R,1.800000X1.800000*%
%ADD15C,1.800000*%
G04 APERTURE END LIST*
D10*
%TO.C,N4*%
X169263020Y-57294930D03*
X159517040Y-60795050D03*
X157766980Y-57294930D03*
X157766980Y-52796590D03*
X157766980Y-48298250D03*
X159517040Y-44798130D03*
X163515000Y-43797370D03*
X167512960Y-44798130D03*
X169263020Y-48298250D03*
X169263020Y-52796590D03*
X167512960Y-60795050D03*
X163515000Y-61795810D03*
%TD*%
%TO.C,N3*%
X146383020Y-57294930D03*
X136637040Y-60795050D03*
X134886980Y-57294930D03*
X134886980Y-52796590D03*
X134886980Y-48298250D03*
X136637040Y-44798130D03*
X140635000Y-43797370D03*
X144632960Y-44798130D03*
X146383020Y-48298250D03*
X146383020Y-52796590D03*
X144632960Y-60795050D03*
X140635000Y-61795810D03*
%TD*%
D11*
%TO.C,R27*%
X244150000Y-40115000D03*
X244150000Y-47735000D03*
%TD*%
%TO.C,R12*%
X139715000Y-117250000D03*
X147335000Y-117250000D03*
%TD*%
%TO.C,R2*%
X97715000Y-120750000D03*
X105335000Y-120750000D03*
%TD*%
D12*
%TO.C,J3*%
X76390000Y-119975000D03*
D13*
X76390000Y-120975000D03*
X76390000Y-121975000D03*
%TD*%
D11*
%TO.C,R21*%
X208815000Y-118550000D03*
X216435000Y-118550000D03*
%TD*%
%TO.C,R10*%
X103425000Y-141550000D03*
X111045000Y-141550000D03*
%TD*%
D14*
%TO.C,D5*%
X50055000Y-42200000D03*
D15*
X52595000Y-42200000D03*
%TD*%
D11*
%TO.C,R14*%
X162815000Y-113950000D03*
X170435000Y-113950000D03*
%TD*%
%TO.C,R7*%
X159685000Y-36300000D03*
X167305000Y-36300000D03*
%TD*%
%TO.C,R25*%
X82015000Y-101950000D03*
X89635000Y-101950000D03*
%TD*%
%TO.C,R23*%
X195015000Y-141650000D03*
X202635000Y-141650000D03*
%TD*%
%TO.C,R11*%
X139525000Y-113650000D03*
X147145000Y-113650000D03*
%TD*%
%TO.C,R5*%
X113245000Y-36300000D03*
X120865000Y-36300000D03*
%TD*%
%TO.C,R6*%
X136805000Y-36300000D03*
X144425000Y-36300000D03*
%TD*%
D10*
%TO.C,N6*%
X215023020Y-57294930D03*
X205277040Y-60795050D03*
X203526980Y-57294930D03*
X203526980Y-52796590D03*
X203526980Y-48298250D03*
X205277040Y-44798130D03*
X209275000Y-43797370D03*
X213272960Y-44798130D03*
X215023020Y-48298250D03*
X215023020Y-52796590D03*
X213272960Y-60795050D03*
X209275000Y-61795810D03*
%TD*%
D11*
%TO.C,R17*%
X185815000Y-113950000D03*
X193435000Y-113950000D03*
%TD*%
%TO.C,R8*%
X182565000Y-36300000D03*
X190185000Y-36300000D03*
%TD*%
%TO.C,R19*%
X172415000Y-141050000D03*
X180035000Y-141050000D03*
%TD*%
D10*
%TO.C,N1*%
X100623020Y-57294930D03*
X90877040Y-60795050D03*
X89126980Y-57294930D03*
X89126980Y-52796590D03*
X89126980Y-48298250D03*
X90877040Y-44798130D03*
X94875000Y-43797370D03*
X98872960Y-44798130D03*
X100623020Y-48298250D03*
X100623020Y-52796590D03*
X98872960Y-60795050D03*
X94875000Y-61795810D03*
%TD*%
D11*
%TO.C,C6*%
X59875000Y-56925000D03*
X59875000Y-54425000D03*
%TD*%
%TO.C,C9*%
X242925000Y-51175000D03*
X242925000Y-53675000D03*
%TD*%
%TO.C,R26*%
X230745000Y-36775000D03*
X223125000Y-36775000D03*
%TD*%
%TO.C,R1*%
X97715000Y-117450000D03*
X105335000Y-117450000D03*
%TD*%
%TO.C,C7*%
X245450000Y-51175000D03*
X245450000Y-53675000D03*
%TD*%
D10*
%TO.C,N2*%
X123503020Y-57294930D03*
X113757040Y-60795050D03*
X112006980Y-57294930D03*
X112006980Y-52796590D03*
X112006980Y-48298250D03*
X113757040Y-44798130D03*
X117755000Y-43797370D03*
X121752960Y-44798130D03*
X123503020Y-48298250D03*
X123503020Y-52796590D03*
X121752960Y-60795050D03*
X117755000Y-61795810D03*
%TD*%
D11*
%TO.C,R24*%
X231825000Y-118550000D03*
X239445000Y-118550000D03*
%TD*%
%TO.C,R4*%
X91045000Y-36300000D03*
X98665000Y-36300000D03*
%TD*%
%TO.C,R13*%
X126325000Y-141450000D03*
X133945000Y-141450000D03*
%TD*%
%TO.C,R16*%
X150515000Y-140850000D03*
X158135000Y-140850000D03*
%TD*%
D10*
%TO.C,N5*%
X192143020Y-57294930D03*
X182397040Y-60795050D03*
X180646980Y-57294930D03*
X180646980Y-52796590D03*
X180646980Y-48298250D03*
X182397040Y-44798130D03*
X186395000Y-43797370D03*
X190392960Y-44798130D03*
X192143020Y-48298250D03*
X192143020Y-52796590D03*
X190392960Y-60795050D03*
X186395000Y-61795810D03*
%TD*%
D11*
%TO.C,R15*%
X162815000Y-117850000D03*
X170435000Y-117850000D03*
%TD*%
%TO.C,R22*%
X208915000Y-113950000D03*
X216535000Y-113950000D03*
%TD*%
%TO.C,R3*%
X97605000Y-124150000D03*
X105225000Y-124150000D03*
%TD*%
%TO.C,R20*%
X232115000Y-113150000D03*
X239735000Y-113150000D03*
%TD*%
D12*
%TO.C,J1*%
X76225000Y-128250000D03*
D13*
X76225000Y-129250000D03*
X76225000Y-130250000D03*
X76225000Y-131250000D03*
X76225000Y-132250000D03*
X76225000Y-133250000D03*
X76225000Y-134250000D03*
X76225000Y-135250000D03*
X76225000Y-136250000D03*
X76225000Y-137250000D03*
X76225000Y-138250000D03*
X76225000Y-139250000D03*
X76225000Y-140250000D03*
X76225000Y-141250000D03*
X76225000Y-142250000D03*
X76225000Y-143250000D03*
X76225000Y-144250000D03*
X76225000Y-145250000D03*
X76225000Y-146250000D03*
X76225000Y-147250000D03*
%TD*%
D11*
%TO.C,C8*%
X62475000Y-56925000D03*
X62475000Y-54425000D03*
%TD*%
%TO.C,R9*%
X205445000Y-36300000D03*
X213065000Y-36300000D03*
%TD*%
%TO.C,R18*%
X55130000Y-42200000D03*
X62750000Y-42200000D03*
%TD*%
D12*
%TO.C,J2*%
X143804652Y-69325000D03*
D13*
X144804652Y-69325000D03*
X145804652Y-69325000D03*
X146804652Y-69325000D03*
X147804652Y-69325000D03*
X148804652Y-69325000D03*
X149804652Y-69325000D03*
X150804652Y-69325000D03*
X151804652Y-69325000D03*
X152804652Y-69325000D03*
X153804652Y-69325000D03*
X154804652Y-69325000D03*
X155804652Y-69325000D03*
X156804652Y-69325000D03*
X157804652Y-69325000D03*
X158804652Y-69325000D03*
X159804652Y-69325000D03*
X160804652Y-69325000D03*
X161804652Y-69325000D03*
X162804652Y-69325000D03*
%TD*%
D12*
%TO.C,JP1*%
X50125000Y-57296590D03*
D13*
X50125000Y-56296590D03*
X50125000Y-55296590D03*
X50125000Y-54296590D03*
X50125000Y-53296590D03*
X50125000Y-52296590D03*
X50125000Y-51296590D03*
X50125000Y-50296590D03*
X50125000Y-49296590D03*
X50125000Y-48296590D03*
%TD*%
M02*
