M48
; DRILL file KiCad 10.0.5 date 2026-08-16T12:42:43
; FORMAT={-:-/ absolute / metric / decimal}
; #@! TF.CreationDate,2026-08-16T12:42:43+03:00
; #@! TF.GenerationSoftware,Kicad,Pcbnew,10.0.5
; #@! TF.FileFunction,MixedPlating,1,2
FMAT,2
METRIC
; #@! TA.AperFunction,Plated,PTH,ViaDrill
T1C0.330
; #@! TA.AperFunction,Plated,PTH,ComponentDrill
T2C0.500
; #@! TA.AperFunction,Plated,PTH,ComponentDrill
T3C0.800
; #@! TA.AperFunction,Plated,PTH,ComponentDrill
T4C0.900
; #@! TA.AperFunction,Plated,PTH,ComponentDrill
T5C1.598
%
G90
G05
T1
X45.175Y-50.275
X46.225Y-46.5
X46.225Y-51.3
X48.253Y-50.297
X48.253Y-51.297
X52.3Y-49.975
X59.875Y-58.5
X59.875Y-60.175
X62.725Y-45.525
X65.65Y-35.375
X65.65Y-37.6
X67.35Y-44.025
X68.25Y-43.2
X69.075Y-42.225
X70.25Y-41.45
X72.525Y-39.55
X73.95Y-62.8
X75.45Y-62.75
X76.125Y-52.05
X76.175Y-37.75
X76.225Y-39.45
X76.225Y-41.05
X76.337Y-42.737
X76.337Y-44.275
X76.85Y-62.8
X78.175Y-62.825
X78.275Y-60.675
X79.95Y-62.725
X81.6Y-62.75
X83.125Y-62.75
X83.5Y-61.125
X95.975Y-69.0
X97.274Y-64.25
X100.5Y-63.65
X100.94Y-64.992
X100.94Y-66.0
X100.94Y-67.15
X100.94Y-68.173
X103.225Y-62.1
X104.375Y-58.35
X105.65Y-57.2
X106.375Y-37.193
X106.375Y-42.9
X106.375Y-42.9
X106.375Y-54.275
X106.4Y-54.275
X109.0Y-73.425
X109.025Y-69.775
X110.35Y-70.975
X124.725Y-66.844
X126.25Y-68.425
X126.431Y-60.795
X127.675Y-69.977
X137.525Y-70.45
X140.635Y-65.375
X143.175Y-57.675
X144.025Y-71.825
X144.05Y-71.125
X230.875Y-70.15
X232.175Y-70.475
X233.725Y-70.475
X233.725Y-71.825
X235.25Y-69.45
X236.075Y-68.95
T2
X35.8Y-165.7
X35.8Y-166.7
X35.8Y-167.7
X35.8Y-168.7
X35.8Y-169.7
X35.8Y-170.7
X35.8Y-171.7
X35.8Y-172.7
X35.8Y-173.7
X35.8Y-174.7
X35.8Y-175.7
X35.8Y-176.7
X35.8Y-177.7
X35.8Y-178.7
X35.8Y-179.7
X35.8Y-180.7
X35.8Y-181.7
X35.8Y-182.7
X35.8Y-183.7
X35.8Y-184.7
X35.965Y-157.425
X35.965Y-158.425
X35.965Y-159.425
X50.125Y-48.297
X50.125Y-49.297
X50.125Y-50.297
X50.125Y-51.297
X50.125Y-52.297
X50.125Y-53.297
X50.125Y-54.297
X50.125Y-55.297
X50.125Y-56.297
X50.125Y-57.297
X143.805Y-69.325
X144.805Y-69.325
X145.805Y-69.325
X146.805Y-69.325
X147.805Y-69.325
X148.805Y-69.325
X149.805Y-69.325
X150.805Y-69.325
X151.805Y-69.325
X152.805Y-69.325
X153.805Y-69.325
X154.805Y-69.325
X155.805Y-69.325
X156.805Y-69.325
X157.805Y-69.325
X158.805Y-69.325
X159.805Y-69.325
X160.805Y-69.325
X161.805Y-69.325
X162.805Y-69.325
T3
X41.59Y-139.4
X49.21Y-139.4
X55.13Y-42.2
X57.18Y-161.6
X57.29Y-154.9
X57.29Y-158.2
X59.875Y-54.425
X59.875Y-56.925
X62.475Y-54.425
X62.475Y-56.925
X62.75Y-42.2
X63.0Y-179.0
X64.8Y-161.6
X64.91Y-154.9
X64.91Y-158.2
X70.62Y-179.0
X85.9Y-178.9
X91.045Y-36.3
X93.52Y-178.9
X98.665Y-36.3
X99.1Y-151.1
X99.29Y-154.7
X106.72Y-151.1
X106.91Y-154.7
X110.09Y-178.3
X113.245Y-36.3
X117.71Y-178.3
X120.865Y-36.3
X122.39Y-151.4
X122.39Y-155.3
X130.01Y-151.4
X130.01Y-155.3
X131.99Y-178.5
X136.805Y-36.3
X139.61Y-178.5
X144.425Y-36.3
X145.39Y-151.4
X153.01Y-151.4
X154.59Y-179.1
X159.685Y-36.3
X162.21Y-179.1
X167.305Y-36.3
X168.39Y-156.0
X168.49Y-151.4
X176.01Y-156.0
X176.11Y-151.4
X182.565Y-36.3
X190.185Y-36.3
X191.4Y-156.0
X191.69Y-150.6
X199.02Y-156.0
X199.31Y-150.6
X205.445Y-36.3
X213.065Y-36.3
X226.3Y-40.25
X233.92Y-40.25
X241.512Y-49.147
X241.512Y-51.647
X242.775Y-53.915
X242.775Y-61.535
X244.037Y-49.147
X244.037Y-51.647
T4
X50.055Y-42.2
X52.595Y-42.2
T5
X89.127Y-48.298
X89.127Y-52.797
X89.127Y-57.295
X90.877Y-44.798
X90.877Y-60.795
X94.875Y-43.797
X94.875Y-61.796
X98.873Y-44.798
X98.873Y-60.795
X100.623Y-48.298
X100.623Y-52.797
X100.623Y-57.295
X112.007Y-48.298
X112.007Y-52.797
X112.007Y-57.295
X113.757Y-44.798
X113.757Y-60.795
X117.755Y-43.797
X117.755Y-61.796
X121.753Y-44.798
X121.753Y-60.795
X123.503Y-48.298
X123.503Y-52.797
X123.503Y-57.295
X134.887Y-48.298
X134.887Y-52.797
X134.887Y-57.295
X136.637Y-44.798
X136.637Y-60.795
X140.635Y-43.797
X140.635Y-61.796
X144.633Y-44.798
X144.633Y-60.795
X146.383Y-48.298
X146.383Y-52.797
X146.383Y-57.295
X157.767Y-48.298
X157.767Y-52.797
X157.767Y-57.295
X159.517Y-44.798
X159.517Y-60.795
X163.515Y-43.797
X163.515Y-61.796
X167.513Y-44.798
X167.513Y-60.795
X169.263Y-48.298
X169.263Y-52.797
X169.263Y-57.295
X180.647Y-48.298
X180.647Y-52.797
X180.647Y-57.295
X182.397Y-44.798
X182.397Y-60.795
X186.395Y-43.797
X186.395Y-61.796
X190.393Y-44.798
X190.393Y-60.795
X192.143Y-48.298
X192.143Y-52.797
X192.143Y-57.295
X203.527Y-48.298
X203.527Y-52.797
X203.527Y-57.295
X205.277Y-44.798
X205.277Y-60.795
X209.275Y-43.797
X209.275Y-61.796
X213.273Y-44.798
X213.273Y-60.795
X215.023Y-48.298
X215.023Y-52.797
X215.023Y-57.295
M30
