%TF.GenerationSoftware,KiCad,Pcbnew,10.0.5*%
%TF.CreationDate,2026-08-17T23:43:38+03:00*%
%TF.ProjectId,Nixie,4e697869-652e-46b6-9963-61645f706362,rev?*%
%TF.SameCoordinates,Original*%
%TF.FileFunction,Soldermask,Top*%
%TF.FilePolarity,Negative*%
%FSLAX46Y46*%
G04 Gerber Fmt 4.6, Leading zero omitted, Abs format (unit mm)*
G04 Created by KiCad (PCBNEW 10.0.5) date 2026-08-17 23:43:38*
%MOMM*%
%LPD*%
G01*
G04 APERTURE LIST*
G04 Aperture macros list*
%AMRoundRect*
0 Rectangle with rounded corners*
0 $1 Rounding radius*
0 $2 $3 $4 $5 $6 $7 $8 $9 X,Y pos of 4 corners*
0 Add a 4 corners polygon primitive as box body*
4,1,4,$2,$3,$4,$5,$6,$7,$8,$9,$2,$3,0*
0 Add four circle primitives for the rounded corners*
1,1,$1+$1,$2,$3*
1,1,$1+$1,$4,$5*
1,1,$1+$1,$6,$7*
1,1,$1+$1,$8,$9*
0 Add four rect primitives between the rounded corners*
20,1,$1+$1,$2,$3,$4,$5,0*
20,1,$1+$1,$4,$5,$6,$7,0*
20,1,$1+$1,$6,$7,$8,$9,0*
20,1,$1+$1,$8,$9,$2,$3,0*%
G04 Aperture macros list end*
%ADD10C,2.397760*%
%ADD11C,1.600000*%
%ADD12R,1.600000X1.000000*%
%ADD13RoundRect,0.150000X-0.587500X-0.150000X0.587500X-0.150000X0.587500X0.150000X-0.587500X0.150000X0*%
%ADD14R,1.800000X1.800000*%
%ADD15C,1.800000*%
%ADD16R,1.900000X0.600000*%
%ADD17R,0.600000X1.900000*%
%ADD18R,0.850000X0.850000*%
%ADD19C,0.850000*%
%ADD20RoundRect,0.162500X-0.617500X-0.162500X0.617500X-0.162500X0.617500X0.162500X-0.617500X0.162500X0*%
G04 APERTURE END LIST*
D10*
%TO.C,N4*%
X169263020Y-57294930D03*
X159517040Y-60795050D03*
X157766980Y-57294930D03*
X157766980Y-52796590D03*
X157766980Y-48298250D03*
X159517040Y-44798130D03*
X163515000Y-43797370D03*
X167512960Y-44798130D03*
X169263020Y-48298250D03*
X169263020Y-52796590D03*
X167512960Y-60795050D03*
X163515000Y-61795810D03*
%TD*%
%TO.C,N3*%
X146383020Y-57294930D03*
X136637040Y-60795050D03*
X134886980Y-57294930D03*
X134886980Y-52796590D03*
X134886980Y-48298250D03*
X136637040Y-44798130D03*
X140635000Y-43797370D03*
X144632960Y-44798130D03*
X146383020Y-48298250D03*
X146383020Y-52796590D03*
X144632960Y-60795050D03*
X140635000Y-61795810D03*
%TD*%
D11*
%TO.C,R27*%
X244150000Y-40115000D03*
X244150000Y-47735000D03*
%TD*%
%TO.C,R12*%
X130116200Y-92846200D03*
X137736200Y-92846200D03*
%TD*%
%TO.C,R2*%
X130116200Y-101526200D03*
X137736200Y-101526200D03*
%TD*%
%TO.C,R21*%
X156406200Y-89326200D03*
X164026200Y-89326200D03*
%TD*%
D12*
%TO.C,D4*%
X166015000Y-54396590D03*
X161015000Y-54396590D03*
X161015000Y-51196590D03*
X166015000Y-51196590D03*
%TD*%
D11*
%TO.C,R10*%
X130116200Y-85736200D03*
X137736200Y-85736200D03*
%TD*%
D13*
%TO.C,Q1*%
X247450000Y-66187500D03*
X247450000Y-68087500D03*
X249325000Y-67137500D03*
%TD*%
D12*
%TO.C,D6*%
X188895000Y-54396590D03*
X183895000Y-54396590D03*
X183895000Y-51196590D03*
X188895000Y-51196590D03*
%TD*%
D14*
%TO.C,D5*%
X50055000Y-42200000D03*
D15*
X52595000Y-42200000D03*
%TD*%
D11*
%TO.C,R14*%
X143616200Y-89326200D03*
X151236200Y-89326200D03*
%TD*%
%TO.C,R7*%
X159685000Y-36300000D03*
X167305000Y-36300000D03*
%TD*%
%TO.C,R25*%
X156406200Y-105046200D03*
X164026200Y-105046200D03*
%TD*%
%TO.C,R23*%
X156406200Y-97936200D03*
X164026200Y-97936200D03*
%TD*%
%TO.C,R11*%
X130116200Y-89326200D03*
X137736200Y-89326200D03*
%TD*%
%TO.C,R5*%
X113245000Y-36300000D03*
X120865000Y-36300000D03*
%TD*%
%TO.C,R6*%
X136805000Y-36300000D03*
X144425000Y-36300000D03*
%TD*%
D10*
%TO.C,N6*%
X215023020Y-57294930D03*
X205277040Y-60795050D03*
X203526980Y-57294930D03*
X203526980Y-52796590D03*
X203526980Y-48298250D03*
X205277040Y-44798130D03*
X209275000Y-43797370D03*
X213272960Y-44798130D03*
X215023020Y-48298250D03*
X215023020Y-52796590D03*
X213272960Y-60795050D03*
X209275000Y-61795810D03*
%TD*%
D16*
%TO.C,U3*%
X225575000Y-48796590D03*
X225575000Y-49596590D03*
X225575000Y-50396590D03*
X225575000Y-51196590D03*
X225575000Y-51996590D03*
X225575000Y-52796590D03*
X225575000Y-53596590D03*
X225575000Y-54396590D03*
X225575000Y-55196590D03*
X225575000Y-55996590D03*
X225575000Y-56796590D03*
D17*
X228075000Y-59296590D03*
X228875000Y-59296590D03*
X229675000Y-59296590D03*
X230475000Y-59296590D03*
X231275000Y-59296590D03*
X232075000Y-59296590D03*
X232875000Y-59296590D03*
X233675000Y-59296590D03*
X234475000Y-59296590D03*
X235275000Y-59296590D03*
X236075000Y-59296590D03*
D16*
X238575000Y-56796590D03*
X238575000Y-55996590D03*
X238575000Y-55196590D03*
X238575000Y-54396590D03*
X238575000Y-53596590D03*
X238575000Y-52796590D03*
X238575000Y-51996590D03*
X238575000Y-51196590D03*
X238575000Y-50396590D03*
X238575000Y-49596590D03*
X238575000Y-48796590D03*
D17*
X236075000Y-46296590D03*
X235275000Y-46296590D03*
X234475000Y-46296590D03*
X233675000Y-46296590D03*
X232875000Y-46296590D03*
X232075000Y-46296590D03*
X231275000Y-46296590D03*
X230475000Y-46296590D03*
X229675000Y-46296590D03*
X228875000Y-46296590D03*
X228075000Y-46296590D03*
%TD*%
D11*
%TO.C,R17*%
X143616200Y-101456200D03*
X151236200Y-101456200D03*
%TD*%
%TO.C,R8*%
X182565000Y-36300000D03*
X190185000Y-36300000D03*
%TD*%
%TO.C,R19*%
X143616200Y-105046200D03*
X151236200Y-105046200D03*
%TD*%
D10*
%TO.C,N1*%
X100623020Y-57294930D03*
X90877040Y-60795050D03*
X89126980Y-57294930D03*
X89126980Y-52796590D03*
X89126980Y-48298250D03*
X90877040Y-44798130D03*
X94875000Y-43797370D03*
X98872960Y-44798130D03*
X100623020Y-48298250D03*
X100623020Y-52796590D03*
X98872960Y-60795050D03*
X94875000Y-61795810D03*
%TD*%
D18*
%TO.C,J3*%
X147770600Y-81436200D03*
D19*
X146770600Y-81436200D03*
X145770600Y-81436200D03*
%TD*%
D11*
%TO.C,C6*%
X59875000Y-56925000D03*
X59875000Y-54425000D03*
%TD*%
%TO.C,C9*%
X242925000Y-51175000D03*
X242925000Y-53675000D03*
%TD*%
%TO.C,R26*%
X230745000Y-36775000D03*
X223125000Y-36775000D03*
%TD*%
%TO.C,R1*%
X130116200Y-97936200D03*
X137736200Y-97936200D03*
%TD*%
D12*
%TO.C,D3*%
X143135000Y-54396590D03*
X138135000Y-54396590D03*
X138135000Y-51196590D03*
X143135000Y-51196590D03*
%TD*%
D11*
%TO.C,C7*%
X245450000Y-51175000D03*
X245450000Y-53675000D03*
%TD*%
D16*
%TO.C,U2*%
X78575000Y-56796590D03*
X78575000Y-55996590D03*
X78575000Y-55196590D03*
X78575000Y-54396590D03*
X78575000Y-53596590D03*
X78575000Y-52796590D03*
X78575000Y-51996590D03*
X78575000Y-51196590D03*
X78575000Y-50396590D03*
X78575000Y-49596590D03*
X78575000Y-48796590D03*
D17*
X76075000Y-46296590D03*
X75275000Y-46296590D03*
X74475000Y-46296590D03*
X73675000Y-46296590D03*
X72875000Y-46296590D03*
X72075000Y-46296590D03*
X71275000Y-46296590D03*
X70475000Y-46296590D03*
X69675000Y-46296590D03*
X68875000Y-46296590D03*
X68075000Y-46296590D03*
D16*
X65575000Y-48796590D03*
X65575000Y-49596590D03*
X65575000Y-50396590D03*
X65575000Y-51196590D03*
X65575000Y-51996590D03*
X65575000Y-52796590D03*
X65575000Y-53596590D03*
X65575000Y-54396590D03*
X65575000Y-55196590D03*
X65575000Y-55996590D03*
X65575000Y-56796590D03*
D17*
X68075000Y-59296590D03*
X68875000Y-59296590D03*
X69675000Y-59296590D03*
X70475000Y-59296590D03*
X71275000Y-59296590D03*
X72075000Y-59296590D03*
X72875000Y-59296590D03*
X73675000Y-59296590D03*
X74475000Y-59296590D03*
X75275000Y-59296590D03*
X76075000Y-59296590D03*
%TD*%
D10*
%TO.C,N2*%
X123503020Y-57294930D03*
X113757040Y-60795050D03*
X112006980Y-57294930D03*
X112006980Y-52796590D03*
X112006980Y-48298250D03*
X113757040Y-44798130D03*
X117755000Y-43797370D03*
X121752960Y-44798130D03*
X123503020Y-48298250D03*
X123503020Y-52796590D03*
X121752960Y-60795050D03*
X117755000Y-61795810D03*
%TD*%
D11*
%TO.C,R24*%
X156406200Y-101526200D03*
X164026200Y-101526200D03*
%TD*%
%TO.C,R4*%
X91045000Y-36300000D03*
X98665000Y-36300000D03*
%TD*%
%TO.C,R13*%
X143616200Y-85736200D03*
X151236200Y-85736200D03*
%TD*%
%TO.C,R16*%
X143616200Y-97936200D03*
X151236200Y-97936200D03*
%TD*%
D10*
%TO.C,N5*%
X192143020Y-57294930D03*
X182397040Y-60795050D03*
X180646980Y-57294930D03*
X180646980Y-52796590D03*
X180646980Y-48298250D03*
X182397040Y-44798130D03*
X186395000Y-43797370D03*
X190392960Y-44798130D03*
X192143020Y-48298250D03*
X192143020Y-52796590D03*
X190392960Y-60795050D03*
X186395000Y-61795810D03*
%TD*%
D12*
%TO.C,D7*%
X211775000Y-54396590D03*
X206775000Y-54396590D03*
X206775000Y-51196590D03*
X211775000Y-51196590D03*
%TD*%
D11*
%TO.C,R15*%
X143616200Y-92846200D03*
X151236200Y-92846200D03*
%TD*%
D12*
%TO.C,D2*%
X120255000Y-54396590D03*
X115255000Y-54396590D03*
X115255000Y-51196590D03*
X120255000Y-51196590D03*
%TD*%
D11*
%TO.C,R22*%
X156406200Y-92846200D03*
X164026200Y-92846200D03*
%TD*%
D20*
%TO.C,U1*%
X240850000Y-66250000D03*
X240850000Y-67200000D03*
X240850000Y-68150000D03*
X243550000Y-68150000D03*
X243550000Y-66250000D03*
%TD*%
D11*
%TO.C,R3*%
X130116200Y-105046200D03*
X137736200Y-105046200D03*
%TD*%
D12*
%TO.C,D1*%
X97375000Y-54396590D03*
X92375000Y-54396590D03*
X92375000Y-51196590D03*
X97375000Y-51196590D03*
%TD*%
D11*
%TO.C,R20*%
X156406200Y-85736200D03*
X164026200Y-85736200D03*
%TD*%
D18*
%TO.C,J1*%
X138436200Y-111066200D03*
D19*
X139436200Y-111066200D03*
X140436200Y-111066200D03*
X141436200Y-111066200D03*
X142436200Y-111066200D03*
X143436200Y-111066200D03*
X144436200Y-111066200D03*
X145436200Y-111066200D03*
X146436200Y-111066200D03*
X147436200Y-111066200D03*
X148436200Y-111066200D03*
X149436200Y-111066200D03*
X150436200Y-111066200D03*
X151436200Y-111066200D03*
X152436200Y-111066200D03*
X153436200Y-111066200D03*
X154436200Y-111066200D03*
X155436200Y-111066200D03*
X156436200Y-111066200D03*
X157436200Y-111066200D03*
%TD*%
D11*
%TO.C,C8*%
X62475000Y-56925000D03*
X62475000Y-54425000D03*
%TD*%
%TO.C,R9*%
X205445000Y-36300000D03*
X213065000Y-36300000D03*
%TD*%
%TO.C,R18*%
X55130000Y-42200000D03*
X62750000Y-42200000D03*
%TD*%
D18*
%TO.C,J2*%
X143804652Y-69325000D03*
D19*
X144804652Y-69325000D03*
X145804652Y-69325000D03*
X146804652Y-69325000D03*
X147804652Y-69325000D03*
X148804652Y-69325000D03*
X149804652Y-69325000D03*
X150804652Y-69325000D03*
X151804652Y-69325000D03*
X152804652Y-69325000D03*
X153804652Y-69325000D03*
X154804652Y-69325000D03*
X155804652Y-69325000D03*
X156804652Y-69325000D03*
X157804652Y-69325000D03*
X158804652Y-69325000D03*
X159804652Y-69325000D03*
X160804652Y-69325000D03*
X161804652Y-69325000D03*
X162804652Y-69325000D03*
%TD*%
D18*
%TO.C,JP1*%
X50125000Y-57296590D03*
D19*
X50125000Y-56296590D03*
X50125000Y-55296590D03*
X50125000Y-54296590D03*
X50125000Y-53296590D03*
X50125000Y-52296590D03*
X50125000Y-51296590D03*
X50125000Y-50296590D03*
X50125000Y-49296590D03*
X50125000Y-48296590D03*
%TD*%
M02*
