%TF.GenerationSoftware,KiCad,Pcbnew,10.0.5*%
%TF.CreationDate,2026-08-16T22:59:12+03:00*%
%TF.ProjectId,Nixie,4e697869-652e-46b6-9963-61645f706362,rev?*%
%TF.SameCoordinates,Original*%
%TF.FileFunction,Copper,L2,Bot*%
%TF.FilePolarity,Positive*%
%FSLAX46Y46*%
G04 Gerber Fmt 4.6, Leading zero omitted, Abs format (unit mm)*
G04 Created by KiCad (PCBNEW 10.0.5) date 2026-08-16 22:59:12*
%MOMM*%
%LPD*%
G01*
G04 APERTURE LIST*
%TA.AperFunction,ComponentPad*%
%ADD10C,2.397760*%
%TD*%
%TA.AperFunction,ComponentPad*%
%ADD11C,1.600000*%
%TD*%
%TA.AperFunction,ComponentPad*%
%ADD12R,0.850000X0.850000*%
%TD*%
%TA.AperFunction,ComponentPad*%
%ADD13C,0.850000*%
%TD*%
%TA.AperFunction,ComponentPad*%
%ADD14R,1.800000X1.800000*%
%TD*%
%TA.AperFunction,ComponentPad*%
%ADD15C,1.800000*%
%TD*%
%TA.AperFunction,ViaPad*%
%ADD16C,0.508000*%
%TD*%
%TA.AperFunction,Conductor*%
%ADD17C,0.254000*%
%TD*%
%TA.AperFunction,Conductor*%
%ADD18C,0.152400*%
%TD*%
%TA.AperFunction,Conductor*%
%ADD19C,0.500000*%
%TD*%
G04 APERTURE END LIST*
D10*
%TO.P,N4,0,0_0*%
%TO.N,/40*%
X169263020Y-57294930D03*
%TO.P,N4,1,1_1*%
%TO.N,/31*%
X159517040Y-60795050D03*
%TO.P,N4,2,2_2*%
%TO.N,/32*%
X157766980Y-57294930D03*
%TO.P,N4,3,3_3*%
%TO.N,/33*%
X157766980Y-52796590D03*
%TO.P,N4,4,4_4*%
%TO.N,/34*%
X157766980Y-48298250D03*
%TO.P,N4,5,5_5*%
%TO.N,/35*%
X159517040Y-44798130D03*
%TO.P,N4,6,6_6*%
%TO.N,/36*%
X163515000Y-43797370D03*
%TO.P,N4,7,7_7*%
%TO.N,/37*%
X167512960Y-44798130D03*
%TO.P,N4,8,8_8*%
%TO.N,/38*%
X169263020Y-48298250D03*
%TO.P,N4,9,9_9*%
%TO.N,/39*%
X169263020Y-52796590D03*
%TO.P,N4,A,A_A*%
%TO.N,Net-(N4-PadA)*%
X167512960Y-60795050D03*
%TO.P,N4,LHDP,LHDP_LHDP*%
%TO.N,/DP3*%
X163515000Y-61795810D03*
%TD*%
%TO.P,N3,0,0_0*%
%TO.N,/30*%
X146383020Y-57294930D03*
%TO.P,N3,1,1_1*%
%TO.N,/21*%
X136637040Y-60795050D03*
%TO.P,N3,2,2_2*%
%TO.N,/22*%
X134886980Y-57294930D03*
%TO.P,N3,3,3_3*%
%TO.N,/23*%
X134886980Y-52796590D03*
%TO.P,N3,4,4_4*%
%TO.N,/24*%
X134886980Y-48298250D03*
%TO.P,N3,5,5_5*%
%TO.N,/25*%
X136637040Y-44798130D03*
%TO.P,N3,6,6_6*%
%TO.N,/26*%
X140635000Y-43797370D03*
%TO.P,N3,7,7_7*%
%TO.N,/27*%
X144632960Y-44798130D03*
%TO.P,N3,8,8_8*%
%TO.N,/28*%
X146383020Y-48298250D03*
%TO.P,N3,9,9_9*%
%TO.N,/29*%
X146383020Y-52796590D03*
%TO.P,N3,A,A_A*%
%TO.N,Net-(N3-PadA)*%
X144632960Y-60795050D03*
%TO.P,N3,LHDP,LHDP_LHDP*%
%TO.N,/DP2*%
X140635000Y-61795810D03*
%TD*%
D11*
%TO.P,R27,1*%
%TO.N,/OE*%
X244150000Y-40115000D03*
%TO.P,R27,2*%
%TO.N,GND*%
X244150000Y-47735000D03*
%TD*%
%TO.P,R12,1*%
%TO.N,Net-(J1-Pin_6)*%
X139715000Y-117250000D03*
%TO.P,R12,2*%
%TO.N,/B*%
X147335000Y-117250000D03*
%TD*%
%TO.P,R2,1*%
%TO.N,Net-(J1-Pin_2)*%
X97715000Y-120750000D03*
%TO.P,R2,2*%
%TO.N,/G*%
X105335000Y-120750000D03*
%TD*%
D12*
%TO.P,J3,1,Pin_1_1*%
%TO.N,/R*%
X76390000Y-119975000D03*
D13*
%TO.P,J3,2,Pin_2_2*%
%TO.N,/G*%
X76390000Y-120975000D03*
%TO.P,J3,3,Pin_3_3*%
%TO.N,/B*%
X76390000Y-121975000D03*
%TD*%
D11*
%TO.P,R21,1*%
%TO.N,Net-(J1-Pin_14)*%
X208815000Y-118550000D03*
%TO.P,R21,2*%
%TO.N,/G*%
X216435000Y-118550000D03*
%TD*%
%TO.P,R10,1*%
%TO.N,Net-(J1-Pin_4)*%
X103425000Y-141550000D03*
%TO.P,R10,2*%
%TO.N,/R*%
X111045000Y-141550000D03*
%TD*%
D14*
%TO.P,D5,1,K_1*%
%TO.N,GND*%
X50055000Y-42200000D03*
D15*
%TO.P,D5,2,A_2*%
%TO.N,Net-(D5-A)*%
X52595000Y-42200000D03*
%TD*%
D11*
%TO.P,R14,1*%
%TO.N,Net-(J1-Pin_8)*%
X162815000Y-113950000D03*
%TO.P,R14,2*%
%TO.N,/G*%
X170435000Y-113950000D03*
%TD*%
%TO.P,R7,1*%
%TO.N,VPP*%
X159685000Y-36300000D03*
%TO.P,R7,2*%
%TO.N,Net-(N4-PadA)*%
X167305000Y-36300000D03*
%TD*%
%TO.P,R25,1*%
%TO.N,Net-(J1-Pin_18)*%
X82015000Y-101950000D03*
%TO.P,R25,2*%
%TO.N,/B*%
X89635000Y-101950000D03*
%TD*%
%TO.P,R23,1*%
%TO.N,Net-(J1-Pin_16)*%
X195015000Y-141650000D03*
%TO.P,R23,2*%
%TO.N,/R*%
X202635000Y-141650000D03*
%TD*%
%TO.P,R11,1*%
%TO.N,Net-(J1-Pin_5)*%
X139525000Y-113650000D03*
%TO.P,R11,2*%
%TO.N,/G*%
X147145000Y-113650000D03*
%TD*%
%TO.P,R5,1*%
%TO.N,VPP*%
X113245000Y-36300000D03*
%TO.P,R5,2*%
%TO.N,Net-(N2-PadA)*%
X120865000Y-36300000D03*
%TD*%
%TO.P,R6,1*%
%TO.N,VPP*%
X136805000Y-36300000D03*
%TO.P,R6,2*%
%TO.N,Net-(N3-PadA)*%
X144425000Y-36300000D03*
%TD*%
D10*
%TO.P,N6,0,0_0*%
%TO.N,/60*%
X215023020Y-57294930D03*
%TO.P,N6,1,1_1*%
%TO.N,/51*%
X205277040Y-60795050D03*
%TO.P,N6,2,2_2*%
%TO.N,/52*%
X203526980Y-57294930D03*
%TO.P,N6,3,3_3*%
%TO.N,/53*%
X203526980Y-52796590D03*
%TO.P,N6,4,4_4*%
%TO.N,/54*%
X203526980Y-48298250D03*
%TO.P,N6,5,5_5*%
%TO.N,/55*%
X205277040Y-44798130D03*
%TO.P,N6,6,6_6*%
%TO.N,/56*%
X209275000Y-43797370D03*
%TO.P,N6,7,7_7*%
%TO.N,/57*%
X213272960Y-44798130D03*
%TO.P,N6,8,8_8*%
%TO.N,/58*%
X215023020Y-48298250D03*
%TO.P,N6,9,9_9*%
%TO.N,/59*%
X215023020Y-52796590D03*
%TO.P,N6,A,A_A*%
%TO.N,Net-(N6-PadA)*%
X213272960Y-60795050D03*
%TO.P,N6,LHDP,LHDP_LHDP*%
%TO.N,/DP5*%
X209275000Y-61795810D03*
%TD*%
D11*
%TO.P,R17,1*%
%TO.N,Net-(J1-Pin_11)*%
X185815000Y-113950000D03*
%TO.P,R17,2*%
%TO.N,/G*%
X193435000Y-113950000D03*
%TD*%
%TO.P,R8,1*%
%TO.N,VPP*%
X182565000Y-36300000D03*
%TO.P,R8,2*%
%TO.N,Net-(N5-PadA)*%
X190185000Y-36300000D03*
%TD*%
%TO.P,R19,1*%
%TO.N,Net-(J1-Pin_12)*%
X172415000Y-141050000D03*
%TO.P,R19,2*%
%TO.N,/B*%
X180035000Y-141050000D03*
%TD*%
D10*
%TO.P,N1,0,0_0*%
%TO.N,/10*%
X100623020Y-57294930D03*
%TO.P,N1,1,1_1*%
%TO.N,/1*%
X90877040Y-60795050D03*
%TO.P,N1,2,2_2*%
%TO.N,/2*%
X89126980Y-57294930D03*
%TO.P,N1,3,3_3*%
%TO.N,/3*%
X89126980Y-52796590D03*
%TO.P,N1,4,4_4*%
%TO.N,/4*%
X89126980Y-48298250D03*
%TO.P,N1,5,5_5*%
%TO.N,/5*%
X90877040Y-44798130D03*
%TO.P,N1,6,6_6*%
%TO.N,/6*%
X94875000Y-43797370D03*
%TO.P,N1,7,7_7*%
%TO.N,/7*%
X98872960Y-44798130D03*
%TO.P,N1,8,8_8*%
%TO.N,/8*%
X100623020Y-48298250D03*
%TO.P,N1,9,9_9*%
%TO.N,/9*%
X100623020Y-52796590D03*
%TO.P,N1,A,A_A*%
%TO.N,Net-(N1-PadA)*%
X98872960Y-60795050D03*
%TO.P,N1,LHDP,LHDP_LHDP*%
%TO.N,unconnected-(N1-PadLHDP)*%
X94875000Y-61795810D03*
%TD*%
D11*
%TO.P,C6,1*%
%TO.N,+5V*%
X59875000Y-56925000D03*
%TO.P,C6,2*%
%TO.N,GND*%
X59875000Y-54425000D03*
%TD*%
%TO.P,C9,1*%
%TO.N,+5V*%
X242925000Y-51175000D03*
%TO.P,C9,2*%
%TO.N,GND*%
X242925000Y-53675000D03*
%TD*%
%TO.P,R26,1*%
%TO.N,+5V*%
X230745000Y-36775000D03*
%TO.P,R26,2*%
%TO.N,/SRB*%
X223125000Y-36775000D03*
%TD*%
%TO.P,R1,1*%
%TO.N,Net-(J1-Pin_1)*%
X97715000Y-117450000D03*
%TO.P,R1,2*%
%TO.N,/R*%
X105335000Y-117450000D03*
%TD*%
%TO.P,C7,1*%
%TO.N,+5V*%
X245450000Y-51175000D03*
%TO.P,C7,2*%
%TO.N,GND*%
X245450000Y-53675000D03*
%TD*%
D10*
%TO.P,N2,0,0_0*%
%TO.N,/20*%
X123503020Y-57294930D03*
%TO.P,N2,1,1_1*%
%TO.N,/11*%
X113757040Y-60795050D03*
%TO.P,N2,2,2_2*%
%TO.N,/12*%
X112006980Y-57294930D03*
%TO.P,N2,3,3_3*%
%TO.N,/13*%
X112006980Y-52796590D03*
%TO.P,N2,4,4_4*%
%TO.N,/14*%
X112006980Y-48298250D03*
%TO.P,N2,5,5_5*%
%TO.N,/15*%
X113757040Y-44798130D03*
%TO.P,N2,6,6_6*%
%TO.N,/16*%
X117755000Y-43797370D03*
%TO.P,N2,7,7_7*%
%TO.N,/17*%
X121752960Y-44798130D03*
%TO.P,N2,8,8_8*%
%TO.N,/18*%
X123503020Y-48298250D03*
%TO.P,N2,9,9_9*%
%TO.N,/19*%
X123503020Y-52796590D03*
%TO.P,N2,A,A_A*%
%TO.N,Net-(N2-PadA)*%
X121752960Y-60795050D03*
%TO.P,N2,LHDP,LHDP_LHDP*%
%TO.N,/DP1*%
X117755000Y-61795810D03*
%TD*%
D11*
%TO.P,R24,1*%
%TO.N,Net-(J1-Pin_17)*%
X231825000Y-118550000D03*
%TO.P,R24,2*%
%TO.N,/G*%
X239445000Y-118550000D03*
%TD*%
%TO.P,R4,1*%
%TO.N,VPP*%
X91045000Y-36300000D03*
%TO.P,R4,2*%
%TO.N,Net-(N1-PadA)*%
X98665000Y-36300000D03*
%TD*%
%TO.P,R13,1*%
%TO.N,Net-(J1-Pin_7)*%
X126325000Y-141450000D03*
%TO.P,R13,2*%
%TO.N,/R*%
X133945000Y-141450000D03*
%TD*%
%TO.P,R16,1*%
%TO.N,Net-(J1-Pin_10)*%
X150515000Y-140850000D03*
%TO.P,R16,2*%
%TO.N,/R*%
X158135000Y-140850000D03*
%TD*%
D10*
%TO.P,N5,0,0_0*%
%TO.N,/50*%
X192143020Y-57294930D03*
%TO.P,N5,1,1_1*%
%TO.N,/41*%
X182397040Y-60795050D03*
%TO.P,N5,2,2_2*%
%TO.N,/42*%
X180646980Y-57294930D03*
%TO.P,N5,3,3_3*%
%TO.N,/43*%
X180646980Y-52796590D03*
%TO.P,N5,4,4_4*%
%TO.N,/44*%
X180646980Y-48298250D03*
%TO.P,N5,5,5_5*%
%TO.N,/45*%
X182397040Y-44798130D03*
%TO.P,N5,6,6_6*%
%TO.N,/46*%
X186395000Y-43797370D03*
%TO.P,N5,7,7_7*%
%TO.N,/47*%
X190392960Y-44798130D03*
%TO.P,N5,8,8_8*%
%TO.N,/48*%
X192143020Y-48298250D03*
%TO.P,N5,9,9_9*%
%TO.N,/49*%
X192143020Y-52796590D03*
%TO.P,N5,A,A_A*%
%TO.N,Net-(N5-PadA)*%
X190392960Y-60795050D03*
%TO.P,N5,LHDP,LHDP_LHDP*%
%TO.N,/DP4*%
X186395000Y-61795810D03*
%TD*%
D11*
%TO.P,R15,1*%
%TO.N,Net-(J1-Pin_9)*%
X162815000Y-117850000D03*
%TO.P,R15,2*%
%TO.N,/B*%
X170435000Y-117850000D03*
%TD*%
%TO.P,R22,1*%
%TO.N,Net-(J1-Pin_15)*%
X208915000Y-113950000D03*
%TO.P,R22,2*%
%TO.N,/B*%
X216535000Y-113950000D03*
%TD*%
%TO.P,R3,1*%
%TO.N,Net-(J1-Pin_3)*%
X97605000Y-124150000D03*
%TO.P,R3,2*%
%TO.N,/B*%
X105225000Y-124150000D03*
%TD*%
%TO.P,R20,1*%
%TO.N,Net-(J1-Pin_13)*%
X232115000Y-113150000D03*
%TO.P,R20,2*%
%TO.N,/R*%
X239735000Y-113150000D03*
%TD*%
D12*
%TO.P,J1,1,Pin_1_1*%
%TO.N,Net-(J1-Pin_1)*%
X76225000Y-128250000D03*
D13*
%TO.P,J1,2,Pin_2_2*%
%TO.N,Net-(J1-Pin_2)*%
X76225000Y-129250000D03*
%TO.P,J1,3,Pin_3_3*%
%TO.N,Net-(J1-Pin_3)*%
X76225000Y-130250000D03*
%TO.P,J1,4,Pin_4_4*%
%TO.N,Net-(J1-Pin_4)*%
X76225000Y-131250000D03*
%TO.P,J1,5,Pin_5_5*%
%TO.N,Net-(J1-Pin_5)*%
X76225000Y-132250000D03*
%TO.P,J1,6,Pin_6_6*%
%TO.N,Net-(J1-Pin_6)*%
X76225000Y-133250000D03*
%TO.P,J1,7,Pin_7_7*%
%TO.N,Net-(J1-Pin_7)*%
X76225000Y-134250000D03*
%TO.P,J1,8,Pin_8_8*%
%TO.N,Net-(J1-Pin_8)*%
X76225000Y-135250000D03*
%TO.P,J1,9,Pin_9_9*%
%TO.N,Net-(J1-Pin_9)*%
X76225000Y-136250000D03*
%TO.P,J1,10,Pin_10_10*%
%TO.N,Net-(J1-Pin_10)*%
X76225000Y-137250000D03*
%TO.P,J1,11,Pin_11_11*%
%TO.N,Net-(J1-Pin_11)*%
X76225000Y-138250000D03*
%TO.P,J1,12,Pin_12_12*%
%TO.N,Net-(J1-Pin_12)*%
X76225000Y-139250000D03*
%TO.P,J1,13,Pin_13_13*%
%TO.N,Net-(J1-Pin_13)*%
X76225000Y-140250000D03*
%TO.P,J1,14,Pin_14_14*%
%TO.N,Net-(J1-Pin_14)*%
X76225000Y-141250000D03*
%TO.P,J1,15,Pin_15_15*%
%TO.N,Net-(J1-Pin_15)*%
X76225000Y-142250000D03*
%TO.P,J1,16,Pin_16_16*%
%TO.N,Net-(J1-Pin_16)*%
X76225000Y-143250000D03*
%TO.P,J1,17,Pin_17_17*%
%TO.N,Net-(J1-Pin_17)*%
X76225000Y-144250000D03*
%TO.P,J1,18,Pin_18_18*%
%TO.N,Net-(J1-Pin_18)*%
X76225000Y-145250000D03*
%TO.P,J1,19,Pin_19_19*%
%TO.N,unconnected-(J1-Pin_19-Pad19)*%
X76225000Y-146250000D03*
%TO.P,J1,20,Pin_20_20*%
%TO.N,unconnected-(J1-Pin_20-Pad20)*%
X76225000Y-147250000D03*
%TD*%
D11*
%TO.P,C8,1*%
%TO.N,+5V*%
X62475000Y-56925000D03*
%TO.P,C8,2*%
%TO.N,GND*%
X62475000Y-54425000D03*
%TD*%
%TO.P,R9,1*%
%TO.N,VPP*%
X205445000Y-36300000D03*
%TO.P,R9,2*%
%TO.N,Net-(N6-PadA)*%
X213065000Y-36300000D03*
%TD*%
%TO.P,R18,1*%
%TO.N,Net-(D5-A)*%
X55130000Y-42200000D03*
%TO.P,R18,2*%
%TO.N,+5V*%
X62750000Y-42200000D03*
%TD*%
D12*
%TO.P,J2,1,Pin_1_1*%
%TO.N,Net-(D1-RK)*%
X143804652Y-69325000D03*
D13*
%TO.P,J2,2,Pin_2_2*%
%TO.N,Net-(D1-GK)*%
X144804652Y-69325000D03*
%TO.P,J2,3,Pin_3_3*%
%TO.N,Net-(D1-BK)*%
X145804652Y-69325000D03*
%TO.P,J2,4,Pin_4_4*%
%TO.N,Net-(D2-RK)*%
X146804652Y-69325000D03*
%TO.P,J2,5,Pin_5_5*%
%TO.N,Net-(D2-GK)*%
X147804652Y-69325000D03*
%TO.P,J2,6,Pin_6_6*%
%TO.N,Net-(D2-BK)*%
X148804652Y-69325000D03*
%TO.P,J2,7,Pin_7_7*%
%TO.N,Net-(D3-RK)*%
X149804652Y-69325000D03*
%TO.P,J2,8,Pin_8_8*%
%TO.N,Net-(D3-GK)*%
X150804652Y-69325000D03*
%TO.P,J2,9,Pin_9_9*%
%TO.N,Net-(D3-BK)*%
X151804652Y-69325000D03*
%TO.P,J2,10,Pin_10_10*%
%TO.N,Net-(D4-RK)*%
X152804652Y-69325000D03*
%TO.P,J2,11,Pin_11_11*%
%TO.N,Net-(D4-GK)*%
X153804652Y-69325000D03*
%TO.P,J2,12,Pin_12_12*%
%TO.N,Net-(D4-BK)*%
X154804652Y-69325000D03*
%TO.P,J2,13,Pin_13_13*%
%TO.N,Net-(D6-RK)*%
X155804652Y-69325000D03*
%TO.P,J2,14,Pin_14_14*%
%TO.N,Net-(D6-GK)*%
X156804652Y-69325000D03*
%TO.P,J2,15,Pin_15_15*%
%TO.N,Net-(D6-BK)*%
X157804652Y-69325000D03*
%TO.P,J2,16,Pin_16_16*%
%TO.N,Net-(D7-RK)*%
X158804652Y-69325000D03*
%TO.P,J2,17,Pin_17_17*%
%TO.N,Net-(D7-GK)*%
X159804652Y-69325000D03*
%TO.P,J2,18,Pin_18_18*%
%TO.N,Net-(D7-BK)*%
X160804652Y-69325000D03*
%TO.P,J2,19,Pin_19_19*%
%TO.N,unconnected-(J2-Pin_19-Pad19)*%
X161804652Y-69325000D03*
%TO.P,J2,20,Pin_20_20*%
%TO.N,unconnected-(J2-Pin_20-Pad20)*%
X162804652Y-69325000D03*
%TD*%
D12*
%TO.P,JP1,1,Pin_1_1*%
%TO.N,+5V*%
X50125000Y-57296590D03*
D13*
%TO.P,JP1,2,Pin_2_2*%
%TO.N,VPP*%
X50125000Y-56296590D03*
%TO.P,JP1,3,Pin_3_3*%
%TO.N,unconnected-(JP1-Pin_3-Pad3)*%
X50125000Y-55296590D03*
%TO.P,JP1,4,Pin_4_4*%
%TO.N,unconnected-(JP1-Pin_4-Pad4)*%
X50125000Y-54296590D03*
%TO.P,JP1,5,Pin_5_5*%
%TO.N,unconnected-(JP1-Pin_5-Pad5)*%
X50125000Y-53296590D03*
%TO.P,JP1,6,Pin_6_6*%
%TO.N,/DIN*%
X50125000Y-52296590D03*
%TO.P,JP1,7,Pin_7_7*%
%TO.N,/CLK*%
X50125000Y-51296590D03*
%TO.P,JP1,8,Pin_8_8*%
%TO.N,/OE*%
X50125000Y-50296590D03*
%TO.P,JP1,9,Pin_9_9*%
%TO.N,/SRB*%
X50125000Y-49296590D03*
%TO.P,JP1,10,Pin_10_10*%
%TO.N,GND*%
X50125000Y-48296590D03*
%TD*%
D16*
%TO.N,/40*%
X229125000Y-44275000D03*
%TO.N,/31*%
X68250000Y-43200000D03*
%TO.N,/32*%
X67350000Y-44025000D03*
%TO.N,/33*%
X236194800Y-42800000D03*
%TO.N,/34*%
X234725000Y-43700000D03*
%TO.N,/35*%
X233710000Y-42864538D03*
%TO.N,/36*%
X232824788Y-42316657D03*
%TO.N,/37*%
X231753581Y-42457818D03*
%TO.N,/38*%
X230825000Y-42850000D03*
%TO.N,/39*%
X229925000Y-43625000D03*
%TO.N,/DP3*%
X235250000Y-69450000D03*
%TO.N,/30*%
X69075000Y-42225000D03*
%TO.N,/21*%
X78275000Y-60675000D03*
X127675000Y-69977000D03*
X110350000Y-70975000D03*
X95975000Y-69000000D03*
%TO.N,/23*%
X76337500Y-44275000D03*
%TO.N,/24*%
X76337500Y-42737500D03*
%TO.N,/25*%
X76225000Y-41050000D03*
%TO.N,/26*%
X76225000Y-39450000D03*
%TO.N,/27*%
X76175000Y-37750000D03*
%TO.N,/28*%
X72525000Y-39550000D03*
%TO.N,/29*%
X70250000Y-41450000D03*
%TO.N,/DP2*%
X144050000Y-71125000D03*
X234475000Y-67650000D03*
X192925000Y-72725000D03*
X140635000Y-65375000D03*
%TO.N,/OE*%
X241050000Y-52775000D03*
X240725000Y-48650000D03*
X45175000Y-50275000D03*
X48253410Y-50296590D03*
%TO.N,GND*%
X238825000Y-70175000D03*
%TO.N,+5V*%
X109000000Y-73425000D03*
X165475000Y-71125000D03*
X188425000Y-73425000D03*
X62725000Y-45525000D03*
X165475000Y-73425000D03*
X165475000Y-69000000D03*
X188400000Y-70925000D03*
X126250000Y-68425000D03*
X165475000Y-66375000D03*
X59875000Y-60175000D03*
X59875000Y-58500000D03*
X109025000Y-69775000D03*
X143175000Y-57675000D03*
%TO.N,/DP5*%
X212450000Y-72225000D03*
X210400000Y-72225000D03*
%TO.N,Net-(N2-PadA)*%
X126431000Y-60795050D03*
%TO.N,/51*%
X222800000Y-63845000D03*
X205450000Y-66854676D03*
%TO.N,/52*%
X203600000Y-66854676D03*
X224250000Y-63050000D03*
%TO.N,/53*%
X225550000Y-62525000D03*
X204100000Y-65275000D03*
%TO.N,Net-(N6-PadA)*%
X200225000Y-50200000D03*
%TO.N,/43*%
X200150000Y-64050000D03*
X222275000Y-48350000D03*
%TO.N,/44*%
X201275000Y-65025000D03*
X220800000Y-48350000D03*
%TO.N,/45*%
X220825000Y-49950000D03*
X202250000Y-65925000D03*
%TO.N,/46*%
X202613525Y-68124362D03*
X220800000Y-51196590D03*
%TO.N,/47*%
X220775000Y-52775000D03*
X203250000Y-68994000D03*
%TO.N,/48*%
X221350000Y-54000000D03*
X204250000Y-69580000D03*
%TO.N,/49*%
X201250000Y-70319000D03*
X221625000Y-57225000D03*
%TO.N,/50*%
X203275000Y-71215000D03*
X222690000Y-55811398D03*
%TO.N,/DP1*%
X137525000Y-70450000D03*
X233725000Y-70475000D03*
%TO.N,/DP4*%
X236075000Y-68950000D03*
%TO.N,/CLK*%
X240375000Y-49225000D03*
X239150000Y-67150000D03*
X46225000Y-51300000D03*
X240375000Y-51950000D03*
X48253410Y-51296590D03*
%TO.N,/SRB*%
X65650000Y-35375000D03*
X65650000Y-37600000D03*
%TO.N,Net-(U2-Data_Out)*%
X46225000Y-46500000D03*
X52300000Y-49975000D03*
%TO.N,Net-(N5-PadA)*%
X174975000Y-58825000D03*
%TO.N,/10*%
X78175000Y-62825000D03*
X100500000Y-63650000D03*
%TO.N,/7*%
X73950000Y-62800000D03*
X105650000Y-57200000D03*
%TO.N,/8*%
X104375000Y-58350000D03*
X75450000Y-62750000D03*
%TO.N,/9*%
X76850000Y-62800000D03*
X103225000Y-62100000D03*
%TO.N,Net-(N1-PadA)*%
X106375000Y-54275000D03*
X106375000Y-37193490D03*
X106375000Y-42900000D03*
%TO.N,/11*%
X79950000Y-62725000D03*
X100940000Y-68173000D03*
%TO.N,/12*%
X81600000Y-62750000D03*
X100940000Y-67150000D03*
%TO.N,/13*%
X100940000Y-66000000D03*
X83125000Y-62750000D03*
%TO.N,/14*%
X83500000Y-61125000D03*
X100940000Y-64991997D03*
%TO.N,/20*%
X124725000Y-66844000D03*
X76125000Y-52050000D03*
%TD*%
%TO.N,/40*%
D17*
X194350000Y-50450000D02*
X180200000Y-50450000D01*
X180200000Y-50450000D02*
X177725000Y-52925000D01*
X220362759Y-46475000D02*
X216312759Y-50525000D01*
X176080070Y-57294930D02*
X169263020Y-57294930D01*
X177725000Y-52925000D02*
X177725000Y-55650000D01*
X200650000Y-49050000D02*
X195750000Y-49050000D01*
X200675000Y-49025000D02*
X200650000Y-49050000D01*
X226925000Y-46475000D02*
X220362759Y-46475000D01*
X229125000Y-44275000D02*
X226925000Y-46475000D01*
X201725000Y-50075000D02*
X200675000Y-49025000D01*
X195750000Y-49050000D02*
X194350000Y-50450000D01*
X177725000Y-55650000D02*
X176080070Y-57294930D01*
X201725000Y-50525000D02*
X201725000Y-50075000D01*
X216312759Y-50525000D02*
X201725000Y-50525000D01*
%TO.N,/31*%
X68194000Y-43144000D02*
X68194000Y-40502443D01*
X109537490Y-36312490D02*
X112180492Y-38955492D01*
X112180492Y-38955492D02*
X112736874Y-38955492D01*
X77796000Y-34196000D02*
X85771183Y-42171183D01*
X68250000Y-43200000D02*
X68194000Y-43144000D01*
X102175000Y-38695923D02*
X102175000Y-37225000D01*
X74500443Y-34196000D02*
X77796000Y-34196000D01*
X150025000Y-44409033D02*
X150025000Y-61000000D01*
X150229950Y-60795050D02*
X159517040Y-60795050D01*
X85771183Y-42171183D02*
X88986875Y-38955491D01*
X144571459Y-38955492D02*
X150025000Y-44409033D01*
X102175000Y-37225000D02*
X103087510Y-36312490D01*
X101915432Y-38955491D02*
X102175000Y-38695923D01*
X112736874Y-38955492D02*
X112736876Y-38955490D01*
X68194000Y-40502443D02*
X74500443Y-34196000D01*
X112736876Y-38955490D02*
X144571459Y-38955492D01*
X88986875Y-38955491D02*
X101915432Y-38955491D01*
X150025000Y-61000000D02*
X150229950Y-60795050D01*
X103087510Y-36312490D02*
X109537490Y-36312490D01*
%TO.N,/32*%
X150779000Y-60041050D02*
X157475000Y-60041050D01*
X157475000Y-60041050D02*
X157766980Y-59749070D01*
X109849808Y-35558490D02*
X112492808Y-38201490D01*
X150779000Y-44096716D02*
X150779000Y-60041050D01*
X157766980Y-59749070D02*
X157766980Y-57294930D01*
X67350000Y-44025000D02*
X67350000Y-40280126D01*
X102775193Y-35558490D02*
X109849808Y-35558490D01*
X101421000Y-38201491D02*
X101421000Y-36912682D01*
X101421000Y-36912682D02*
X102775193Y-35558490D01*
X112492808Y-38201490D02*
X144883777Y-38201492D01*
X144883777Y-38201492D02*
X150779000Y-44096716D01*
X85771183Y-41104865D02*
X88674558Y-38201491D01*
X67350000Y-40280126D02*
X74188126Y-33442000D01*
X78108318Y-33442000D02*
X85771183Y-41104865D01*
X88674558Y-38201491D02*
X101421000Y-38201491D01*
X74188126Y-33442000D02*
X78108318Y-33442000D01*
%TO.N,/33*%
X236194800Y-42800000D02*
X236194800Y-42308111D01*
X224559169Y-41197000D02*
X218669904Y-41197000D01*
X196838235Y-41197000D02*
X193800235Y-38159000D01*
X155941100Y-44725567D02*
X155941100Y-50970710D01*
X178989762Y-38159000D02*
X176685272Y-40463490D01*
X236194800Y-42308111D02*
X232756688Y-38870000D01*
X215627905Y-38155001D02*
X202922091Y-38155001D01*
X232756688Y-38870000D02*
X226886169Y-38870000D01*
X218669904Y-41197000D02*
X215627905Y-38155001D01*
X202922091Y-38155001D02*
X199880092Y-41197000D01*
X199880092Y-41197000D02*
X196838235Y-41197000D01*
X155941100Y-50970710D02*
X157766980Y-52796590D01*
X176685272Y-40463490D02*
X160203177Y-40463490D01*
X226886169Y-38870000D02*
X224559169Y-41197000D01*
X193800235Y-38159000D02*
X178989762Y-38159000D01*
X160203177Y-40463490D02*
X155941100Y-44725567D01*
%TO.N,/34*%
X176825125Y-41217490D02*
X160515495Y-41217490D01*
X234725000Y-41904629D02*
X232444371Y-39624000D01*
X215315582Y-38909000D02*
X203234413Y-38909000D01*
X218357586Y-41951000D02*
X215981586Y-39575000D01*
X232444371Y-39624000D02*
X227198487Y-39624000D01*
X215981586Y-39575000D02*
X215981583Y-39575000D01*
X176911358Y-41303722D02*
X176825125Y-41217490D01*
X198494076Y-42601000D02*
X197175918Y-42601000D01*
X215981583Y-39575000D02*
X215315582Y-38909000D01*
X157691160Y-48222430D02*
X157766980Y-48298250D01*
X234725000Y-43700000D02*
X234725000Y-41904629D01*
X202776416Y-39367000D02*
X202776410Y-39367000D01*
X193487918Y-38913000D02*
X179302080Y-38913000D01*
X224871487Y-41951000D02*
X218357586Y-41951000D01*
X199144076Y-41951000D02*
X198494076Y-42601000D01*
X202776410Y-39367000D02*
X200192410Y-41951000D01*
X197175918Y-42601000D02*
X193487918Y-38913000D01*
X179302080Y-38913000D02*
X176911358Y-41303722D01*
X227198487Y-39624000D02*
X224871487Y-41951000D01*
X160515495Y-41217490D02*
X157691160Y-44041825D01*
X200192410Y-41951000D02*
X199144076Y-41951000D01*
X203234413Y-38909000D02*
X202776416Y-39367000D01*
X157691160Y-44041825D02*
X157691160Y-48222430D01*
%TO.N,/35*%
X176911358Y-42370040D02*
X176512808Y-41971490D01*
X233710000Y-42864538D02*
X233710000Y-41955946D01*
X225183805Y-42705000D02*
X218045269Y-42705000D01*
X198806394Y-43355000D02*
X196863601Y-43355000D01*
X233710000Y-41955946D02*
X232132054Y-40378000D01*
X203088732Y-40121000D02*
X203088728Y-40121000D01*
X227510805Y-40378000D02*
X225183805Y-42705000D01*
X162343680Y-41971490D02*
X159517040Y-44798130D01*
X218045269Y-42705000D02*
X215003266Y-39663000D01*
X176512808Y-41971490D02*
X162343680Y-41971490D01*
X232132054Y-40378000D02*
X227510805Y-40378000D01*
X199456394Y-42705000D02*
X198806394Y-43355000D01*
X193175601Y-39667000D02*
X179614398Y-39667000D01*
X203088728Y-40121000D02*
X200504728Y-42705000D01*
X203546731Y-39663000D02*
X203088732Y-40121000D01*
X179614398Y-39667000D02*
X176911358Y-42370040D01*
X200504728Y-42705000D02*
X199456394Y-42705000D01*
X215003266Y-39663000D02*
X203546731Y-39663000D01*
X196863601Y-43355000D02*
X193175601Y-39667000D01*
%TO.N,/36*%
X199768712Y-43459000D02*
X199118712Y-44109000D01*
X176447250Y-42972250D02*
X164340120Y-42972250D01*
X217732952Y-43459000D02*
X214690950Y-40417000D01*
X232824788Y-42316657D02*
X232824788Y-42283102D01*
X176911358Y-43436358D02*
X176447250Y-42972250D01*
X232824788Y-42283102D02*
X231673686Y-41132000D01*
X214690950Y-40417000D02*
X203859049Y-40417000D01*
X203859049Y-40417000D02*
X203401049Y-40875000D01*
X199118712Y-44109000D02*
X196551284Y-44109000D01*
X164340120Y-42972250D02*
X163515000Y-43797370D01*
X196551284Y-44109000D02*
X192863284Y-40421000D01*
X192863284Y-40421000D02*
X179926716Y-40421000D01*
X200817046Y-43459000D02*
X199768712Y-43459000D01*
X203401049Y-40875000D02*
X203401046Y-40875000D01*
X225496123Y-43459000D02*
X217732952Y-43459000D01*
X179926716Y-40421000D02*
X176911358Y-43436358D01*
X203401046Y-40875000D02*
X200817046Y-43459000D01*
X227823123Y-41132000D02*
X225496123Y-43459000D01*
X231673686Y-41132000D02*
X227823123Y-41132000D01*
%TO.N,/37*%
X230246000Y-41969000D02*
X230163000Y-41886000D01*
X225988046Y-44033395D02*
X225988046Y-44213000D01*
X196238967Y-44863000D02*
X192550967Y-41175000D01*
X225988046Y-44213000D02*
X217420635Y-44213000D01*
X180239034Y-41175000D02*
X175794517Y-45619517D01*
X204171366Y-41171000D02*
X201129364Y-44213000D01*
X201129364Y-44213000D02*
X200081030Y-44213000D01*
X231264763Y-41969000D02*
X230246000Y-41969000D01*
X200081030Y-44213000D02*
X199431030Y-44863000D01*
X175794517Y-45619517D02*
X174973130Y-44798130D01*
X231753581Y-42457818D02*
X231264763Y-41969000D01*
X228135441Y-41886000D02*
X225988046Y-44033395D01*
X174973130Y-44798130D02*
X167512960Y-44798130D01*
X214378634Y-41171000D02*
X204171366Y-41171000D01*
X199431030Y-44863000D02*
X196238967Y-44863000D01*
X192550967Y-41175000D02*
X180239034Y-41175000D01*
X217420635Y-44213000D02*
X214378634Y-41171000D01*
X230163000Y-41886000D02*
X228135441Y-41886000D01*
%TO.N,/38*%
X229906241Y-42744000D02*
X229802240Y-42640000D01*
X201441681Y-44967000D02*
X200393348Y-44967000D01*
X176217000Y-55025364D02*
X175455434Y-55786930D01*
X230610461Y-43064539D02*
X230289923Y-42744000D01*
X192259649Y-41950000D02*
X180530351Y-41950000D01*
X171700000Y-55786930D02*
X171700000Y-50735230D01*
X230825000Y-42850000D02*
X230610461Y-43064539D01*
X171700000Y-50735230D02*
X169263020Y-48298250D01*
X200393348Y-44967000D02*
X199743347Y-45617000D01*
X175455434Y-55786930D02*
X171700000Y-55786930D01*
X228447759Y-42640000D02*
X227490000Y-43597760D01*
X226300363Y-44967000D02*
X217108317Y-44967000D01*
X229802240Y-42640000D02*
X228447759Y-42640000D01*
X199743347Y-45617000D02*
X195926649Y-45617000D01*
X227490000Y-43597760D02*
X227490000Y-43777364D01*
X227490000Y-43777364D02*
X226300363Y-44967000D01*
X180530351Y-41950000D02*
X176217000Y-46263351D01*
X230289923Y-42744000D02*
X229906241Y-42744000D01*
X217108317Y-44967000D02*
X214066317Y-41925000D01*
X195926649Y-45617000D02*
X192259649Y-41950000D01*
X214066317Y-41925000D02*
X204483682Y-41925000D01*
X204483682Y-41925000D02*
X201441681Y-44967000D01*
X176217000Y-46263351D02*
X176217000Y-55025364D01*
%TO.N,/39*%
X213878275Y-46775000D02*
X204585915Y-46775000D01*
X228760077Y-43394000D02*
X228244000Y-43910077D01*
X228244000Y-43910077D02*
X228244000Y-44089682D01*
X229489923Y-43394000D02*
X228760077Y-43394000D01*
X175767752Y-56540930D02*
X171091205Y-56540930D01*
X204585915Y-46775000D02*
X204181915Y-46371000D01*
X204181915Y-46371000D02*
X191402275Y-46371000D01*
X176971000Y-55337682D02*
X175767752Y-56540930D01*
X226612682Y-45721000D02*
X214932275Y-45721000D01*
X176971000Y-46575668D02*
X176971000Y-55337682D01*
X214932275Y-45721000D02*
X213878275Y-46775000D01*
X171091205Y-56540930D02*
X169263020Y-54712745D01*
X191149265Y-46624010D02*
X181554925Y-46624010D01*
X177074298Y-46472370D02*
X176971000Y-46575668D01*
X229925000Y-43625000D02*
X229822961Y-43727039D01*
X169263020Y-54712745D02*
X169263020Y-52796590D01*
X191402275Y-46371000D02*
X191149265Y-46624010D01*
X181403285Y-46472370D02*
X177074298Y-46472370D01*
X229822961Y-43727039D02*
X229489923Y-43394000D01*
X181554925Y-46624010D02*
X181403285Y-46472370D01*
X228244000Y-44089682D02*
X226612682Y-45721000D01*
%TO.N,/DP3*%
D18*
X164000000Y-62280810D02*
X163515000Y-61795810D01*
X194197600Y-69900000D02*
X194150000Y-69852400D01*
X172500000Y-70100000D02*
X172500000Y-73022600D01*
X233243700Y-70275639D02*
X233243700Y-70674361D01*
X232852400Y-73022600D02*
X194175000Y-73022600D01*
X194175000Y-73022600D02*
X194197600Y-73000000D01*
X194197600Y-73000000D02*
X194197600Y-69900000D01*
X233250000Y-69450000D02*
X233250000Y-70269339D01*
X235250000Y-69450000D02*
X235275000Y-69425000D01*
X172400000Y-70000000D02*
X172500000Y-70100000D01*
X233250000Y-70269339D02*
X233243700Y-70275639D01*
X194150000Y-69852400D02*
X186400000Y-69852400D01*
X172375000Y-70025000D02*
X172400000Y-70000000D01*
X233250000Y-71550000D02*
X233422600Y-71722600D01*
X164000000Y-70025000D02*
X172375000Y-70025000D01*
X186400000Y-73022600D02*
X172500000Y-73022600D01*
X186400000Y-69852400D02*
X186400000Y-73022600D01*
X235250000Y-69450000D02*
X233250000Y-69450000D01*
X233422600Y-71722600D02*
X233422600Y-72452400D01*
X233250000Y-70680661D02*
X233250000Y-71550000D01*
X164000000Y-70025000D02*
X164000000Y-62280810D01*
X233422600Y-72452400D02*
X232852400Y-73022600D01*
X233243700Y-70674361D02*
X233250000Y-70680661D01*
%TO.N,/30*%
D17*
X101075417Y-39709491D02*
X106345463Y-44979537D01*
X149089900Y-54588050D02*
X146383020Y-57294930D01*
X69075000Y-42225000D02*
X69075000Y-40687760D01*
X76857636Y-34950000D02*
X85364006Y-43456370D01*
X106345463Y-44979537D02*
X111615509Y-39709491D01*
X85552312Y-43456370D02*
X89299192Y-39709491D01*
X74812760Y-34950000D02*
X76857636Y-34950000D01*
X111615509Y-39709491D02*
X144259141Y-39709491D01*
X149089900Y-44540251D02*
X149089900Y-54588050D01*
X69075000Y-40687760D02*
X74812760Y-34950000D01*
X89299192Y-39709491D02*
X101075417Y-39709491D01*
X85364006Y-43456370D02*
X85552312Y-43456370D01*
X144259141Y-39709491D02*
X149089900Y-44540251D01*
%TO.N,/21*%
X127548000Y-69850000D02*
X126790265Y-69850000D01*
X111348000Y-69977000D02*
X110350000Y-70975000D01*
X79056000Y-61456000D02*
X78275000Y-60675000D01*
X79056000Y-67760605D02*
X79056000Y-61456000D01*
X126790265Y-69850000D02*
X126663265Y-69977000D01*
X127675000Y-69977000D02*
X127548000Y-69850000D01*
X80295395Y-69000000D02*
X79056000Y-67760605D01*
X95975000Y-69000000D02*
X80295395Y-69000000D01*
X126663265Y-69977000D02*
X111348000Y-69977000D01*
%TO.N,/23*%
X124360077Y-65963000D02*
X130263000Y-65963000D01*
X101379322Y-55469050D02*
X101435268Y-55524997D01*
X102059903Y-55525002D02*
X102059905Y-55525000D01*
X88002733Y-55469050D02*
X89883285Y-55469050D01*
X108096000Y-67229000D02*
X115446728Y-67229000D01*
X87983683Y-55450000D02*
X88002733Y-55469050D01*
X103350000Y-55525000D02*
X105500000Y-53375000D01*
X95365835Y-59969930D02*
X99866715Y-55469050D01*
X118319180Y-67228681D02*
X123094396Y-67228681D01*
X107281000Y-53506000D02*
X107281000Y-66787317D01*
X76337500Y-44275000D02*
X76475000Y-44275000D01*
X102059905Y-55525000D02*
X103350000Y-55525000D01*
X123094396Y-67228681D02*
X124360077Y-65963000D01*
X89883285Y-55469050D02*
X94384165Y-59969930D01*
X115446728Y-67229000D02*
X115450729Y-67233000D01*
X130263000Y-57420570D02*
X134886980Y-52796590D01*
X99866715Y-55469050D02*
X101379322Y-55469050D01*
X101435268Y-55524997D02*
X101435275Y-55525000D01*
X94384165Y-59969930D02*
X95365835Y-59969930D01*
X107150000Y-53375000D02*
X107281000Y-53506000D01*
X130263000Y-65963000D02*
X130263000Y-57420570D01*
X107281000Y-66787317D02*
X107722683Y-67229000D01*
X87650000Y-55450000D02*
X87983683Y-55450000D01*
X107722683Y-67229000D02*
X108679000Y-67229000D01*
X115450729Y-67233000D02*
X118314862Y-67233000D01*
X105500000Y-53375000D02*
X107150000Y-53375000D01*
X118314862Y-67233000D02*
X118319180Y-67228681D01*
X76475000Y-44275000D02*
X87650000Y-55450000D01*
X101435275Y-55525000D02*
X102059903Y-55525002D01*
%TO.N,/24*%
X101747592Y-54771000D02*
X103037682Y-54771000D01*
X88315050Y-54715050D02*
X90195603Y-54715050D01*
X105187683Y-52621000D02*
X107462318Y-52621000D01*
X129437682Y-64800000D02*
X129437682Y-57179570D01*
X101067009Y-54715050D02*
X101067011Y-54715048D01*
X115763046Y-66479000D02*
X118002544Y-66479000D01*
X94305553Y-58825000D02*
X95444447Y-58825000D01*
X121883632Y-66474681D02*
X122254314Y-66104000D01*
X122767000Y-65662317D02*
X122767000Y-65591317D01*
X99554398Y-54715050D02*
X101067009Y-54715050D01*
X118006862Y-66474681D02*
X121883632Y-66474681D01*
X101691643Y-54715050D02*
X101747592Y-54771000D01*
X123558317Y-64800000D02*
X129437682Y-64800000D01*
X132996126Y-50189104D02*
X134886980Y-48298250D01*
X132996126Y-53621124D02*
X132996126Y-50189104D01*
X122325317Y-66104000D02*
X122767000Y-65662317D01*
X90195603Y-54715050D02*
X94305553Y-58825000D01*
X76337500Y-42737500D02*
X88315050Y-54715050D01*
X101067011Y-54715048D02*
X101691643Y-54715050D01*
X107462318Y-52621000D02*
X108035000Y-53193683D01*
X103037682Y-54771000D02*
X105187683Y-52621000D01*
X118002544Y-66479000D02*
X118006862Y-66474681D01*
X122767000Y-65591317D02*
X123558317Y-64800000D01*
X129437682Y-57179570D02*
X132996126Y-53621124D01*
X115759046Y-66475000D02*
X115763046Y-66479000D01*
X122254314Y-66104000D02*
X122325317Y-66104000D01*
X95444447Y-58825000D02*
X99554398Y-54715050D01*
X108035000Y-66475000D02*
X115759046Y-66475000D01*
X108035000Y-53193683D02*
X108035000Y-66475000D01*
%TO.N,/25*%
X135804915Y-44798130D02*
X136637040Y-44798130D01*
X122013000Y-65350000D02*
X122013000Y-65278999D01*
X108950000Y-65278998D02*
X109391683Y-65720681D01*
X88370675Y-50124130D02*
X89883285Y-50124130D01*
X132242126Y-48360919D02*
X135804915Y-44798130D01*
X116475000Y-65725000D02*
X117690226Y-65725000D01*
X132242126Y-53308807D02*
X132242126Y-48360919D01*
X123246000Y-64046000D02*
X128683682Y-64046000D01*
X85275000Y-50100000D02*
X88346545Y-50100000D01*
X108958159Y-58691841D02*
X108950000Y-58700000D01*
X121941998Y-65350000D02*
X122013000Y-65350000D01*
X93603415Y-46404000D02*
X96146585Y-46404000D01*
X88346545Y-50100000D02*
X88370675Y-50124130D01*
X128683682Y-64046000D02*
X128683682Y-56867252D01*
X96146585Y-46404000D02*
X99833793Y-50091208D01*
X76225000Y-41050000D02*
X85275000Y-50100000D01*
X108950000Y-58700000D02*
X108950000Y-65278998D01*
X108958159Y-53050526D02*
X108958159Y-58691841D01*
X89883285Y-50124130D02*
X93603415Y-46404000D01*
X109391683Y-65720681D02*
X116828272Y-65720681D01*
X99842585Y-50100000D02*
X99866715Y-50124130D01*
X122013000Y-65278999D02*
X123246000Y-64046000D01*
X121571316Y-65720681D02*
X121941998Y-65350000D01*
X99866715Y-50124130D02*
X106031763Y-50124130D01*
X106031763Y-50124130D02*
X108958159Y-53050526D01*
X128683682Y-56867252D02*
X132242126Y-53308807D01*
X117690226Y-65725000D02*
X117694545Y-65720681D01*
X117694545Y-65720681D02*
X121571316Y-65720681D01*
%TO.N,/26*%
X83452630Y-46472370D02*
X89969095Y-46472370D01*
X83150000Y-46375000D02*
X83150000Y-46775000D01*
X131488126Y-52996490D02*
X131488126Y-47364859D01*
X83150000Y-46775000D02*
X83452630Y-46472370D01*
X89969095Y-46472370D02*
X90120735Y-46624010D01*
X91633345Y-46624010D02*
X91784985Y-46472370D01*
X109704000Y-60450000D02*
X109704000Y-64966681D01*
X91784985Y-46472370D02*
X91877630Y-46472370D01*
X97142645Y-45650000D02*
X98116655Y-46624010D01*
X90120735Y-46624010D02*
X91633345Y-46624010D01*
X98116655Y-46624010D02*
X99629265Y-46624010D01*
X121259000Y-64966681D02*
X122933684Y-63292000D01*
X127929682Y-63292000D02*
X127929682Y-56554934D01*
X109750000Y-52776050D02*
X109750000Y-60404000D01*
X127929682Y-56554934D02*
X131488126Y-52996490D01*
X122933684Y-63292000D02*
X127929682Y-63292000D01*
X109704000Y-64966681D02*
X121259000Y-64966681D01*
X135880735Y-42972250D02*
X139809880Y-42972250D01*
X103446320Y-46472370D02*
X109750000Y-52776050D01*
X99780905Y-46472370D02*
X103446320Y-46472370D01*
X76225000Y-39450000D02*
X83150000Y-46375000D01*
X92700000Y-45650000D02*
X97142645Y-45650000D01*
X91877630Y-46472370D02*
X92700000Y-45650000D01*
X99629265Y-46624010D02*
X99780905Y-46472370D01*
X131488126Y-47364859D02*
X135880735Y-42972250D01*
X109750000Y-60404000D02*
X109704000Y-60450000D01*
X139809880Y-42972250D02*
X140635000Y-43797370D01*
%TO.N,/27*%
X106332636Y-48200000D02*
X112561146Y-41971490D01*
X141806320Y-41971490D02*
X144632960Y-44798130D01*
X86631630Y-45718370D02*
X90378509Y-41971491D01*
X106240268Y-48200000D02*
X106332636Y-48200000D01*
X90378509Y-41971491D02*
X100011759Y-41971491D01*
X84100000Y-45718370D02*
X86631630Y-45718370D01*
X112561146Y-41971490D02*
X127600000Y-41971490D01*
X76175000Y-37750000D02*
X84100000Y-45675000D01*
X127247595Y-41971490D02*
X141806320Y-41971490D01*
X100011759Y-41971491D02*
X106240268Y-48200000D01*
X84100000Y-45675000D02*
X84100000Y-45718370D01*
%TO.N,/28*%
X100450781Y-41344196D02*
X106253292Y-47146708D01*
X147581900Y-45164885D02*
X147581900Y-47099370D01*
X100450781Y-41217491D02*
X100450781Y-41344196D01*
X143634505Y-41217490D02*
X147581900Y-45164885D01*
X122751415Y-41217490D02*
X143634505Y-41217490D01*
X106253292Y-47146708D02*
X106595804Y-46804196D01*
X84739371Y-44964370D02*
X86210630Y-44964370D01*
X72525000Y-39550000D02*
X75206000Y-36869000D01*
X106662122Y-46804196D02*
X112248828Y-41217490D01*
X112248828Y-41217490D02*
X122875000Y-41217490D01*
X89957509Y-41217491D02*
X100450781Y-41217491D01*
X106595804Y-46804196D02*
X106662122Y-46804196D01*
X147581900Y-47099370D02*
X146383020Y-48298250D01*
X86210630Y-44964370D02*
X89957509Y-41217491D01*
X75206000Y-36869000D02*
X76644000Y-36869000D01*
X76644000Y-36869000D02*
X84739371Y-44964370D01*
%TO.N,/29*%
X76956318Y-36115000D02*
X85051688Y-44210370D01*
X89611509Y-40463491D02*
X100763099Y-40463491D01*
X111936510Y-40463490D02*
X143946823Y-40463490D01*
X100763099Y-40463491D02*
X106349804Y-46050196D01*
X106349804Y-46050196D02*
X111936510Y-40463490D01*
X85051688Y-44210370D02*
X85864630Y-44210370D01*
X143946823Y-40463490D02*
X148335900Y-44852568D01*
X70250000Y-41450000D02*
X70250000Y-40579077D01*
X148335900Y-44852568D02*
X148335900Y-50843710D01*
X148335900Y-50843710D02*
X146383020Y-52796590D01*
X85864630Y-44210370D02*
X89611509Y-40463491D01*
X70250000Y-40579077D02*
X74714077Y-36115000D01*
X74714077Y-36115000D02*
X76956318Y-36115000D01*
%TO.N,/DP2*%
D18*
X192925000Y-72725000D02*
X192925000Y-73725000D01*
X237300000Y-67650000D02*
X234475000Y-67650000D01*
X237275000Y-67675000D02*
X237300000Y-67650000D01*
X140635000Y-71110000D02*
X140650000Y-71125000D01*
X140635000Y-65375000D02*
X140635000Y-71110000D01*
X192925000Y-73725000D02*
X237275000Y-73725000D01*
X237275000Y-73725000D02*
X237275000Y-67675000D01*
X140650000Y-71125000D02*
X144050000Y-71125000D01*
%TO.N,/OE*%
X240725000Y-48650000D02*
X241050000Y-48975000D01*
X241050000Y-48975000D02*
X241050000Y-52775000D01*
X48253410Y-50296590D02*
X45196590Y-50296590D01*
X45175000Y-50275000D02*
X45200000Y-50300000D01*
X45196590Y-50296590D02*
X45175000Y-50275000D01*
%TO.N,+5V*%
D19*
X165475000Y-66375000D02*
X165475000Y-69000000D01*
X109700000Y-69100000D02*
X109025000Y-69775000D01*
X126300000Y-68375000D02*
X126300000Y-67025000D01*
X165475000Y-71125000D02*
X165475000Y-73425000D01*
X126300000Y-69100000D02*
X109700000Y-69100000D01*
X247375000Y-35725000D02*
X247375000Y-49725000D01*
X240300000Y-35725000D02*
X247375000Y-35725000D01*
X62725000Y-52225000D02*
X62700000Y-52250000D01*
X57525000Y-52250000D02*
X57525000Y-58400000D01*
X59875000Y-60125000D02*
X59900000Y-60150000D01*
X240300000Y-35725000D02*
X239250000Y-36775000D01*
X188400000Y-73400000D02*
X188425000Y-73425000D01*
X57525000Y-58400000D02*
X59775000Y-58400000D01*
X133668950Y-55346050D02*
X140846050Y-55346050D01*
X239250000Y-36775000D02*
X230745000Y-36775000D01*
X59775000Y-58400000D02*
X59875000Y-58500000D01*
X245925000Y-51175000D02*
X245450000Y-51175000D01*
X59875000Y-58500000D02*
X59875000Y-60125000D01*
X188400000Y-70925000D02*
X188400000Y-73400000D01*
X247375000Y-49725000D02*
X245925000Y-51175000D01*
X126250000Y-68425000D02*
X126300000Y-68475000D01*
X130441265Y-67025000D02*
X131140000Y-66326265D01*
X62700000Y-52250000D02*
X57525000Y-52250000D01*
X131140000Y-57875000D02*
X133668950Y-55346050D01*
X140846050Y-55346050D02*
X143175000Y-57675000D01*
X126300000Y-67025000D02*
X130441265Y-67025000D01*
X62725000Y-45525000D02*
X62725000Y-52225000D01*
X109000000Y-69800000D02*
X109025000Y-69775000D01*
X131140000Y-66326265D02*
X131140000Y-57875000D01*
X126250000Y-68425000D02*
X126300000Y-68375000D01*
X126300000Y-68475000D02*
X126300000Y-69100000D01*
X109000000Y-73425000D02*
X109000000Y-69800000D01*
%TO.N,/DP5*%
D18*
X210400000Y-72225000D02*
X212450000Y-72225000D01*
%TO.N,Net-(N2-PadA)*%
X126431000Y-60795050D02*
X121752960Y-60795050D01*
%TO.N,/51*%
D17*
X222800000Y-67709000D02*
X222800000Y-63845000D01*
X214376511Y-67574000D02*
X214511511Y-67709000D01*
X207072597Y-67573999D02*
X206353274Y-66854676D01*
X211148148Y-67573995D02*
X211772776Y-67573997D01*
X206353274Y-66854676D02*
X205450000Y-66854676D01*
X205450000Y-66854676D02*
X205577000Y-66981676D01*
X210523515Y-67573992D02*
X211148146Y-67573993D01*
X210523498Y-67573999D02*
X210523515Y-67573992D01*
X214511511Y-67709000D02*
X222800000Y-67709000D01*
X208473498Y-67573997D02*
X210523498Y-67573999D01*
X211772778Y-67573999D02*
X214376511Y-67574000D01*
X211148146Y-67573993D02*
X211148148Y-67573995D01*
X208473498Y-67573997D02*
X207072597Y-67573999D01*
X211772776Y-67573997D02*
X211772778Y-67573999D01*
%TO.N,/52*%
X221590627Y-62867690D02*
X221590627Y-65140627D01*
X210211180Y-66819999D02*
X208161182Y-66819997D01*
X221600000Y-66955000D02*
X214823829Y-66955000D01*
X210835833Y-66819982D02*
X210211197Y-66819982D01*
X211460464Y-66819993D02*
X210835844Y-66819993D01*
X210835844Y-66819993D02*
X210835833Y-66819982D01*
X214688829Y-66820000D02*
X212085096Y-66819999D01*
X214823829Y-66955000D02*
X214688829Y-66820000D01*
X210211197Y-66819982D02*
X210211180Y-66819999D01*
X203820324Y-66854676D02*
X203600000Y-66854676D01*
X207384915Y-66819999D02*
X206538592Y-65973676D01*
X208161182Y-66819997D02*
X207384915Y-66819999D01*
X212085096Y-66819999D02*
X211460467Y-66819996D01*
X221600000Y-65150000D02*
X221600000Y-66955000D01*
X221590627Y-65140627D02*
X221600000Y-65150000D01*
X211460467Y-66819996D02*
X211460464Y-66819993D01*
X224250000Y-63050000D02*
X224067690Y-62867690D01*
X224067690Y-62867690D02*
X221590627Y-62867690D01*
X204701324Y-65973676D02*
X203820324Y-66854676D01*
X206538592Y-65973676D02*
X204701324Y-65973676D01*
%TO.N,/53*%
X209898862Y-66065999D02*
X209898880Y-66065982D01*
X220836627Y-62555373D02*
X221278310Y-62113690D01*
X211772782Y-66065993D02*
X211772787Y-66065998D01*
X211772787Y-66065998D02*
X215001147Y-66066000D01*
X221278310Y-62113690D02*
X225138690Y-62113690D01*
X207848867Y-66065996D02*
X209898862Y-66065999D01*
X207697227Y-66065997D02*
X206631230Y-65000000D01*
X220836627Y-64471999D02*
X220836627Y-62555373D01*
X219107626Y-66201000D02*
X220836627Y-64471999D01*
X215001147Y-66066000D02*
X215136146Y-66201000D01*
X225138690Y-62113690D02*
X225550000Y-62525000D01*
X215136146Y-66201000D02*
X219107626Y-66201000D01*
X211148151Y-66065982D02*
X211148161Y-66065993D01*
X207848867Y-66065996D02*
X207697227Y-66065997D01*
X204375000Y-65000000D02*
X204100000Y-65275000D01*
X211148161Y-66065993D02*
X211772782Y-66065993D01*
X206631230Y-65000000D02*
X204375000Y-65000000D01*
X209898880Y-66065982D02*
X211148151Y-66065982D01*
%TO.N,Net-(N6-PadA)*%
D18*
X202300000Y-55025000D02*
X204375000Y-55025000D01*
X205825000Y-56475000D02*
X208952910Y-56475000D01*
X208952910Y-56475000D02*
X213272960Y-60795050D01*
X200225000Y-50200000D02*
X200225000Y-52950000D01*
X204375000Y-55025000D02*
X205825000Y-56475000D01*
X200225000Y-52950000D02*
X202300000Y-55025000D01*
%TO.N,/43*%
D17*
X208626185Y-63796000D02*
X207560199Y-62730014D01*
X220435077Y-47469000D02*
X216955000Y-50949077D01*
X216955000Y-60867692D02*
X218574627Y-62487319D01*
X221394000Y-47469000D02*
X220435077Y-47469000D01*
X218574627Y-62487319D02*
X218574627Y-63535045D01*
X218313672Y-63796000D02*
X208626185Y-63796000D01*
X201469986Y-62730014D02*
X200150000Y-64050000D01*
X216955000Y-50949077D02*
X216955000Y-60867692D01*
X218574627Y-63535045D02*
X218313672Y-63796000D01*
X222275000Y-48350000D02*
X221394000Y-47469000D01*
X207560199Y-62730014D02*
X201469986Y-62730014D01*
%TO.N,/44*%
X208313867Y-64550000D02*
X207247883Y-63484016D01*
X217709000Y-51441000D02*
X217709000Y-60555374D01*
X219328627Y-63847363D02*
X218625990Y-64550000D01*
X219328627Y-62175001D02*
X219328627Y-63847363D01*
X202815984Y-63484016D02*
X201275000Y-65025000D01*
X220800000Y-48350000D02*
X217709000Y-51441000D01*
X201275000Y-65025000D02*
X201175000Y-65125000D01*
X217709000Y-60555374D02*
X219328627Y-62175001D01*
X207247883Y-63484016D02*
X202815984Y-63484016D01*
X218625990Y-64550000D02*
X208313867Y-64550000D01*
%TO.N,/45*%
X208009545Y-65311997D02*
X209586547Y-65311998D01*
X202250000Y-65574250D02*
X203586234Y-64238016D01*
X220082627Y-64159681D02*
X220082627Y-62086472D01*
X212085104Y-65311998D02*
X215313464Y-65312000D01*
X212085099Y-65311993D02*
X212085104Y-65311998D01*
X206935564Y-64238016D02*
X208009545Y-65311997D01*
X218463000Y-52287667D02*
X220800667Y-49950000D01*
X211460468Y-65311982D02*
X211460479Y-65311993D01*
X203586234Y-64238016D02*
X206935564Y-64238016D01*
X218463000Y-60069583D02*
X218463000Y-52287667D01*
X215313464Y-65312000D02*
X215448464Y-65447000D01*
X218795308Y-65447000D02*
X220082627Y-64159681D01*
X220281258Y-61887841D02*
X218463000Y-60069583D01*
X211460479Y-65311993D02*
X212085099Y-65311993D01*
X215448464Y-65447000D02*
X218795308Y-65447000D01*
X202250000Y-65925000D02*
X202250000Y-65574250D01*
X220800667Y-49950000D02*
X220825000Y-49950000D01*
X209586563Y-65311982D02*
X211460468Y-65311982D01*
X209586547Y-65311998D02*
X209586563Y-65311982D01*
X220082627Y-62086472D02*
X220281258Y-61887841D01*
%TO.N,/46*%
X206353275Y-67921000D02*
X203256682Y-67921000D01*
X203256682Y-67921000D02*
X203252683Y-67925000D01*
X202613525Y-68087804D02*
X202613525Y-68124362D01*
X224662000Y-68463000D02*
X214199193Y-68463000D01*
X202776329Y-67925000D02*
X202613525Y-68087804D01*
X214199193Y-68463000D02*
X214064192Y-68328000D01*
X210835828Y-68327993D02*
X210835825Y-68327996D01*
X214064192Y-68328000D02*
X211460458Y-68327999D01*
X220546917Y-61087184D02*
X227584000Y-61087184D01*
X219217000Y-52779590D02*
X219217000Y-59757267D01*
X219217000Y-59757267D02*
X220546917Y-61087184D01*
X206760274Y-68327998D02*
X206353275Y-67921000D01*
X203252683Y-67925000D02*
X202776329Y-67925000D01*
X210835825Y-68327996D02*
X210835819Y-68327996D01*
X220800000Y-51196590D02*
X219217000Y-52779590D01*
X227584000Y-61087184D02*
X227584000Y-65541000D01*
X210835816Y-68327999D02*
X206760274Y-68327998D01*
X211460455Y-68327996D02*
X210835828Y-68327993D01*
X227584000Y-65541000D02*
X224662000Y-68463000D01*
X211460458Y-68327999D02*
X211460455Y-68327996D01*
X210835819Y-68327996D02*
X210835816Y-68327999D01*
%TO.N,/47*%
X211421353Y-69081999D02*
X211148137Y-69081996D01*
X220775000Y-52775000D02*
X219971000Y-53579000D01*
X213751875Y-69082000D02*
X211421353Y-69081999D01*
X224611954Y-60242000D02*
X224616954Y-60237000D01*
X211148134Y-69081999D02*
X206447957Y-69081999D01*
X211148137Y-69081996D02*
X211148134Y-69081999D01*
X220768051Y-60242000D02*
X224611954Y-60242000D01*
X224616954Y-60237000D02*
X228338000Y-60237000D01*
X206040958Y-68675000D02*
X203569000Y-68675000D01*
X206447957Y-69081999D02*
X206040958Y-68675000D01*
X225196000Y-69217000D02*
X213886875Y-69217000D01*
X219971000Y-59444949D02*
X220768051Y-60242000D01*
X228338000Y-60237000D02*
X228338000Y-66075000D01*
X213886875Y-69217000D02*
X213751875Y-69082000D01*
X203569000Y-68675000D02*
X203250000Y-68994000D01*
X228338000Y-66075000D02*
X225196000Y-69217000D01*
X219971000Y-53579000D02*
X219971000Y-59444949D01*
%TO.N,/48*%
X224304636Y-59483000D02*
X224299635Y-59488000D01*
X211460443Y-69836000D02*
X213439558Y-69836000D01*
X228750364Y-59483000D02*
X224304636Y-59483000D01*
X192875000Y-49030230D02*
X192143020Y-48298250D01*
X224299635Y-59488000D02*
X223050365Y-59488000D01*
X229092000Y-67000364D02*
X229092000Y-59824636D01*
X222167000Y-58592000D02*
X221725000Y-58150000D01*
X220725000Y-54625000D02*
X221350000Y-54000000D01*
X226121364Y-69971000D02*
X229092000Y-67000364D01*
X220725000Y-57125000D02*
X220725000Y-54625000D01*
X206135640Y-69836000D02*
X205874640Y-69575000D01*
X229092000Y-59824636D02*
X228750364Y-59483000D01*
X222167000Y-58604634D02*
X222167000Y-58592000D01*
X220744000Y-57589923D02*
X220744000Y-57144000D01*
X221725000Y-58150000D02*
X221304077Y-58150000D01*
X192905230Y-49030230D02*
X192875000Y-49030230D01*
X205874640Y-69575000D02*
X204255000Y-69575000D01*
X211389558Y-69836000D02*
X206135640Y-69836000D01*
X213439558Y-69836000D02*
X213574559Y-69971000D01*
X221304077Y-58150000D02*
X220744000Y-57589923D01*
X220744000Y-57144000D02*
X220725000Y-57125000D01*
X204255000Y-69575000D02*
X204250000Y-69580000D01*
X213574559Y-69971000D02*
X226121364Y-69971000D01*
X223050365Y-59488000D02*
X222167000Y-58604634D01*
%TO.N,/49*%
X223992318Y-58729000D02*
X223987317Y-58734000D01*
X231484100Y-69546789D02*
X231490400Y-69540490D01*
X222921000Y-58292317D02*
X222921000Y-57225000D01*
X213262241Y-70725000D02*
X213127240Y-70590000D01*
X231490400Y-69540490D02*
X231490400Y-61156719D01*
X213262241Y-70725000D02*
X231484100Y-70725000D01*
X203895922Y-70590000D02*
X203624922Y-70319000D01*
X231484100Y-70725000D02*
X231484100Y-69546789D01*
X223362682Y-58734000D02*
X222921000Y-58292317D01*
X222921000Y-57225000D02*
X221625000Y-57225000D01*
X203624922Y-70319000D02*
X201250000Y-70319000D01*
X231490400Y-61156719D02*
X229062682Y-58729000D01*
X229062682Y-58729000D02*
X223992318Y-58729000D01*
X213127240Y-70590000D02*
X203895922Y-70590000D01*
X223987317Y-58734000D02*
X223362682Y-58734000D01*
%TO.N,/50*%
X212814923Y-71344000D02*
X210035077Y-71344000D01*
X232238100Y-69859107D02*
X232238100Y-71700000D01*
X229374999Y-57975000D02*
X232244400Y-60844401D01*
X209854077Y-71525000D02*
X203585000Y-71525000D01*
X193269930Y-57294930D02*
X192143020Y-57294930D01*
X210035077Y-71344000D02*
X209854077Y-71525000D01*
X203585000Y-71525000D02*
X203275000Y-71215000D01*
X232238100Y-71700000D02*
X213170923Y-71700000D01*
X223680000Y-57975000D02*
X229374999Y-57975000D01*
X232244400Y-69852807D02*
X232238100Y-69859107D01*
X223675000Y-56796398D02*
X223675000Y-57980000D01*
X223675000Y-57980000D02*
X223680000Y-57975000D01*
X222690000Y-55811398D02*
X223675000Y-56796398D01*
X232244400Y-60844401D02*
X232244400Y-69852807D01*
X213170923Y-71700000D02*
X212814923Y-71344000D01*
%TO.N,/DP1*%
D18*
X137525000Y-71750000D02*
X137450000Y-71825000D01*
X193872600Y-73247600D02*
X193872600Y-70352400D01*
X145525000Y-73325000D02*
X144025000Y-71825000D01*
X172197600Y-73302400D02*
X172197600Y-70327400D01*
X193875000Y-70350000D02*
X193875000Y-70154800D01*
X164075000Y-73300000D02*
X164100000Y-73325000D01*
X193872600Y-70352400D02*
X193875000Y-70350000D01*
X186700000Y-73325000D02*
X172175000Y-73325000D01*
X233725000Y-70475000D02*
X233725000Y-73325000D01*
X137525000Y-70450000D02*
X137525000Y-71750000D01*
X193875000Y-70154800D02*
X186702400Y-70154800D01*
X137450000Y-71825000D02*
X144025000Y-71825000D01*
X233725000Y-73325000D02*
X193950000Y-73325000D01*
X193950000Y-73325000D02*
X193872600Y-73247600D01*
X164100000Y-73325000D02*
X145525000Y-73325000D01*
X186702400Y-73322600D02*
X186700000Y-73325000D01*
X186702400Y-70154800D02*
X186702400Y-73322600D01*
X172175000Y-73325000D02*
X172197600Y-73302400D01*
X164075000Y-70327400D02*
X164075000Y-73300000D01*
X172197600Y-70327400D02*
X164075000Y-70327400D01*
%TO.N,/DP4*%
X232941300Y-70799619D02*
X232947600Y-70805919D01*
X194525000Y-69550000D02*
X186395000Y-69550000D01*
X232947600Y-72499742D02*
X232727142Y-72720200D01*
X232947600Y-68950000D02*
X232947600Y-70144081D01*
X232947600Y-70805919D02*
X232947600Y-72499742D01*
X232727142Y-72720200D02*
X194525000Y-72720200D01*
X232941300Y-70150381D02*
X232941300Y-70799619D01*
X232947600Y-70144081D02*
X232941300Y-70150381D01*
X186395000Y-69550000D02*
X186395000Y-61795810D01*
X194525000Y-72720200D02*
X194525000Y-69550000D01*
X236075000Y-68950000D02*
X232947600Y-68950000D01*
%TO.N,/CLK*%
X240375000Y-51950000D02*
X240375000Y-65925000D01*
X46450000Y-51300000D02*
X46475000Y-51325000D01*
X46225000Y-51300000D02*
X46450000Y-51300000D01*
X240375000Y-49225000D02*
X240375000Y-51950000D01*
X240375000Y-65925000D02*
X239150000Y-67150000D01*
X46228410Y-51296590D02*
X46225000Y-51300000D01*
X48253410Y-51296590D02*
X46228410Y-51296590D01*
%TO.N,/SRB*%
X65650000Y-35375000D02*
X65650000Y-35275000D01*
X65650000Y-37600000D02*
X65650000Y-35375000D01*
%TO.N,Net-(U2-Data_Out)*%
X52275000Y-46500000D02*
X46225000Y-46500000D01*
X52275000Y-49950000D02*
X52275000Y-46500000D01*
X52300000Y-49975000D02*
X52275000Y-49950000D01*
%TO.N,Net-(N5-PadA)*%
X181181747Y-59500000D02*
X181661777Y-59019970D01*
X181661777Y-59019970D02*
X181755030Y-59019970D01*
X181755030Y-59019970D02*
X183132303Y-59019970D01*
X188617880Y-59019970D02*
X190392960Y-60795050D01*
X175650000Y-59500000D02*
X181181747Y-59500000D01*
X174975000Y-58825000D02*
X175650000Y-59500000D01*
X183132303Y-59019970D02*
X188617880Y-59019970D01*
%TO.N,/10*%
D17*
X78175000Y-62825000D02*
X78175000Y-67945922D01*
X78175000Y-62825000D02*
X78213000Y-62863000D01*
X80110077Y-69881000D02*
X101602682Y-69881000D01*
X101602682Y-69881000D02*
X101821000Y-69662682D01*
X100843926Y-63650000D02*
X100500000Y-63650000D01*
X78175000Y-67945922D02*
X80110077Y-69881000D01*
X101821000Y-69662682D02*
X101821000Y-64627074D01*
X101821000Y-64627074D02*
X100843926Y-63650000D01*
%TO.N,/7*%
X104078817Y-70603817D02*
X105650000Y-69032633D01*
X102539636Y-72143000D02*
X104078817Y-70603817D01*
X79173125Y-72143000D02*
X102539636Y-72143000D01*
X105650000Y-69032633D02*
X105650000Y-57200000D01*
X73950000Y-66919875D02*
X79173125Y-72143000D01*
X73950000Y-62800000D02*
X73950000Y-66919875D01*
X99723130Y-44798130D02*
X98872960Y-44798130D01*
%TO.N,/8*%
X102227318Y-71389000D02*
X104896000Y-68720317D01*
X104896000Y-58871000D02*
X104375000Y-58350000D01*
X75450000Y-62750000D02*
X75969000Y-62231000D01*
X75969000Y-67872558D02*
X79485442Y-71389000D01*
X104896000Y-68720317D02*
X104896000Y-58871000D01*
X75969000Y-62231000D02*
X75969000Y-67872558D01*
X79485442Y-71389000D02*
X102227318Y-71389000D01*
%TO.N,/9*%
X76850000Y-62800000D02*
X76850000Y-67687240D01*
X102575000Y-63600000D02*
X103225000Y-62950000D01*
X101915000Y-70635000D02*
X102575000Y-69975000D01*
X103225000Y-62950000D02*
X103225000Y-62100000D01*
X79797760Y-70635000D02*
X101915000Y-70635000D01*
X103225000Y-62100000D02*
X103225000Y-62075000D01*
X76850000Y-67687240D02*
X79797760Y-70635000D01*
X102575000Y-69975000D02*
X102575000Y-63600000D01*
%TO.N,Net-(N1-PadA)*%
D18*
X106375000Y-42900000D02*
X106375000Y-37193490D01*
X106375000Y-54275000D02*
X106375000Y-54700000D01*
X106037500Y-55037500D02*
X100279950Y-60795050D01*
X100279950Y-60795050D02*
X98872960Y-60795050D01*
X106375000Y-54700000D02*
X106037500Y-55037500D01*
%TO.N,/11*%
D17*
X99464147Y-68119000D02*
X99376147Y-68031000D01*
X99175000Y-67895923D02*
X99175000Y-67716317D01*
X98578072Y-67862001D02*
X95779318Y-67862000D01*
X85200000Y-67975000D02*
X79950000Y-62725000D01*
X99618923Y-68173000D02*
X99564923Y-68119000D01*
X86029682Y-68246000D02*
X85758683Y-67975000D01*
X95779318Y-67862000D02*
X95395317Y-68246000D01*
X99310077Y-68031000D02*
X99175000Y-67895923D01*
X100940000Y-68173000D02*
X99618923Y-68173000D01*
X85758683Y-67975000D02*
X85200000Y-67975000D01*
X99376147Y-68031000D02*
X99310077Y-68031000D01*
X98805074Y-67635000D02*
X98578072Y-67862001D01*
X99564923Y-68119000D02*
X99464147Y-68119000D01*
X99175000Y-67716317D02*
X99093683Y-67635000D01*
X99093683Y-67635000D02*
X98805074Y-67635000D01*
X95395317Y-68246000D02*
X86029682Y-68246000D01*
%TO.N,/12*%
X95467000Y-67108000D02*
X95083000Y-67492000D01*
X99675001Y-67150000D02*
X99406000Y-66881000D01*
X86342000Y-67492000D02*
X81600000Y-62750000D01*
X99406000Y-66881000D02*
X98492758Y-66881000D01*
X98492758Y-66881000D02*
X98265757Y-67108000D01*
X100940000Y-67150000D02*
X99675001Y-67150000D01*
X98265757Y-67108000D02*
X95467000Y-67108000D01*
X95083000Y-67492000D02*
X86342000Y-67492000D01*
%TO.N,/13*%
X100671000Y-66269000D02*
X100575077Y-66269000D01*
X99291318Y-65700000D02*
X98607442Y-65700000D01*
X99987318Y-66396000D02*
X99291318Y-65700000D01*
X86500000Y-66125000D02*
X83125000Y-62750000D01*
X100940000Y-66000000D02*
X100671000Y-66269000D01*
X100448077Y-66396000D02*
X99987318Y-66396000D01*
X100575077Y-66269000D02*
X100448077Y-66396000D01*
X98607442Y-65700000D02*
X97953441Y-66354000D01*
X86962682Y-66354000D02*
X86733683Y-66125000D01*
X97953441Y-66354000D02*
X86962682Y-66354000D01*
X86733683Y-66125000D02*
X86500000Y-66125000D01*
%TO.N,/14*%
X100769003Y-64821000D02*
X99479000Y-64821000D01*
X98466124Y-64775000D02*
X97641124Y-65600000D01*
X87275000Y-65600000D02*
X83500000Y-61825000D01*
X99479000Y-64821000D02*
X99433000Y-64775000D01*
X97641124Y-65600000D02*
X87275000Y-65600000D01*
X83500000Y-61825000D02*
X83500000Y-61125000D01*
X99433000Y-64775000D02*
X98466124Y-64775000D01*
X100940000Y-64991997D02*
X100769003Y-64821000D01*
%TO.N,/20*%
X76150000Y-52075000D02*
X76150000Y-60371000D01*
X122670895Y-57294930D02*
X123503020Y-57294930D01*
X102851954Y-72897000D02*
X107753818Y-67995136D01*
X76150000Y-60371000D02*
X73187682Y-60371000D01*
X107753818Y-67995136D02*
X107762683Y-68004000D01*
X72775000Y-66825000D02*
X78847000Y-72897000D01*
X123833317Y-68004000D02*
X124725000Y-67112317D01*
X78847000Y-72897000D02*
X102851954Y-72897000D01*
X76125000Y-52050000D02*
X76150000Y-52075000D01*
X73187682Y-60371000D02*
X72775000Y-60783682D01*
X124725000Y-67112317D02*
X124725000Y-66844000D01*
X107762683Y-68004000D02*
X123833317Y-68004000D01*
X72775000Y-60783682D02*
X72775000Y-66825000D01*
%TD*%
M02*
