%TF.GenerationSoftware,KiCad,Pcbnew,10.0.5*%
%TF.CreationDate,2026-08-16T12:42:43+03:00*%
%TF.ProjectId,Nixie,4e697869-652e-46b6-9963-61645f706362,rev?*%
%TF.SameCoordinates,Original*%
%TF.FileFunction,Soldermask,Top*%
%TF.FilePolarity,Negative*%
%FSLAX46Y46*%
G04 Gerber Fmt 4.6, Leading zero omitted, Abs format (unit mm)*
G04 Created by KiCad (PCBNEW 10.0.5) date 2026-08-16 12:42:43*
%MOMM*%
%LPD*%
G01*
G04 APERTURE LIST*
G04 Aperture macros list*
%AMRoundRect*
0 Rectangle with rounded corners*
0 $1 Rounding radius*
0 $2 $3 $4 $5 $6 $7 $8 $9 X,Y pos of 4 corners*
0 Add a 4 corners polygon primitive as box body*
4,1,4,$2,$3,$4,$5,$6,$7,$8,$9,$2,$3,0*
0 Add four circle primitives for the rounded corners*
1,1,$1+$1,$2,$3*
1,1,$1+$1,$4,$5*
1,1,$1+$1,$6,$7*
1,1,$1+$1,$8,$9*
0 Add four rect primitives between the rounded corners*
20,1,$1+$1,$2,$3,$4,$5,0*
20,1,$1+$1,$4,$5,$6,$7,0*
20,1,$1+$1,$6,$7,$8,$9,0*
20,1,$1+$1,$8,$9,$2,$3,0*%
G04 Aperture macros list end*
%ADD10C,2.397760*%
%ADD11C,1.600000*%
%ADD12R,0.850000X0.850000*%
%ADD13C,0.850000*%
%ADD14R,1.600000X1.000000*%
%ADD15RoundRect,0.150000X-0.587500X-0.150000X0.587500X-0.150000X0.587500X0.150000X-0.587500X0.150000X0*%
%ADD16R,1.800000X1.800000*%
%ADD17C,1.800000*%
%ADD18R,1.900000X0.600000*%
%ADD19R,0.600000X1.900000*%
%ADD20RoundRect,0.162500X-0.617500X-0.162500X0.617500X-0.162500X0.617500X0.162500X-0.617500X0.162500X0*%
G04 APERTURE END LIST*
D10*
%TO.C,N4*%
X169263020Y-57294930D03*
X159517040Y-60795050D03*
X157766980Y-57294930D03*
X157766980Y-52796590D03*
X157766980Y-48298250D03*
X159517040Y-44798130D03*
X163515000Y-43797370D03*
X167512960Y-44798130D03*
X169263020Y-48298250D03*
X169263020Y-52796590D03*
X167512960Y-60795050D03*
X163515000Y-61795810D03*
%TD*%
%TO.C,N3*%
X146383020Y-57294930D03*
X136637040Y-60795050D03*
X134886980Y-57294930D03*
X134886980Y-52796590D03*
X134886980Y-48298250D03*
X136637040Y-44798130D03*
X140635000Y-43797370D03*
X144632960Y-44798130D03*
X146383020Y-48298250D03*
X146383020Y-52796590D03*
X144632960Y-60795050D03*
X140635000Y-61795810D03*
%TD*%
D11*
%TO.C,R27*%
X242775000Y-53915000D03*
X242775000Y-61535000D03*
%TD*%
%TO.C,R12*%
X99290000Y-154700000D03*
X106910000Y-154700000D03*
%TD*%
%TO.C,R2*%
X57290000Y-158200000D03*
X64910000Y-158200000D03*
%TD*%
D12*
%TO.C,J3*%
X35965000Y-157425000D03*
D13*
X35965000Y-158425000D03*
X35965000Y-159425000D03*
%TD*%
D11*
%TO.C,R21*%
X168390000Y-156000000D03*
X176010000Y-156000000D03*
%TD*%
D14*
%TO.C,D4*%
X166015000Y-54396590D03*
X161015000Y-54396590D03*
X161015000Y-51196590D03*
X166015000Y-51196590D03*
%TD*%
D11*
%TO.C,R10*%
X63000000Y-179000000D03*
X70620000Y-179000000D03*
%TD*%
D15*
%TO.C,Q1*%
X238412500Y-33675000D03*
X238412500Y-35575000D03*
X240287500Y-34625000D03*
%TD*%
D14*
%TO.C,D6*%
X188895000Y-54396590D03*
X183895000Y-54396590D03*
X183895000Y-51196590D03*
X188895000Y-51196590D03*
%TD*%
D16*
%TO.C,D5*%
X50055000Y-42200000D03*
D17*
X52595000Y-42200000D03*
%TD*%
D11*
%TO.C,R14*%
X122390000Y-151400000D03*
X130010000Y-151400000D03*
%TD*%
%TO.C,R7*%
X159685000Y-36300000D03*
X167305000Y-36300000D03*
%TD*%
%TO.C,R25*%
X41590000Y-139400000D03*
X49210000Y-139400000D03*
%TD*%
%TO.C,R23*%
X154590000Y-179100000D03*
X162210000Y-179100000D03*
%TD*%
%TO.C,R11*%
X99100000Y-151100000D03*
X106720000Y-151100000D03*
%TD*%
%TO.C,R5*%
X113245000Y-36300000D03*
X120865000Y-36300000D03*
%TD*%
%TO.C,R6*%
X136805000Y-36300000D03*
X144425000Y-36300000D03*
%TD*%
D10*
%TO.C,N6*%
X215023020Y-57294930D03*
X205277040Y-60795050D03*
X203526980Y-57294930D03*
X203526980Y-52796590D03*
X203526980Y-48298250D03*
X205277040Y-44798130D03*
X209275000Y-43797370D03*
X213272960Y-44798130D03*
X215023020Y-48298250D03*
X215023020Y-52796590D03*
X213272960Y-60795050D03*
X209275000Y-61795810D03*
%TD*%
D18*
%TO.C,U3*%
X225575000Y-48796590D03*
X225575000Y-49596590D03*
X225575000Y-50396590D03*
X225575000Y-51196590D03*
X225575000Y-51996590D03*
X225575000Y-52796590D03*
X225575000Y-53596590D03*
X225575000Y-54396590D03*
X225575000Y-55196590D03*
X225575000Y-55996590D03*
X225575000Y-56796590D03*
D19*
X228075000Y-59296590D03*
X228875000Y-59296590D03*
X229675000Y-59296590D03*
X230475000Y-59296590D03*
X231275000Y-59296590D03*
X232075000Y-59296590D03*
X232875000Y-59296590D03*
X233675000Y-59296590D03*
X234475000Y-59296590D03*
X235275000Y-59296590D03*
X236075000Y-59296590D03*
D18*
X238575000Y-56796590D03*
X238575000Y-55996590D03*
X238575000Y-55196590D03*
X238575000Y-54396590D03*
X238575000Y-53596590D03*
X238575000Y-52796590D03*
X238575000Y-51996590D03*
X238575000Y-51196590D03*
X238575000Y-50396590D03*
X238575000Y-49596590D03*
X238575000Y-48796590D03*
D19*
X236075000Y-46296590D03*
X235275000Y-46296590D03*
X234475000Y-46296590D03*
X233675000Y-46296590D03*
X232875000Y-46296590D03*
X232075000Y-46296590D03*
X231275000Y-46296590D03*
X230475000Y-46296590D03*
X229675000Y-46296590D03*
X228875000Y-46296590D03*
X228075000Y-46296590D03*
%TD*%
D11*
%TO.C,R17*%
X145390000Y-151400000D03*
X153010000Y-151400000D03*
%TD*%
%TO.C,R8*%
X182565000Y-36300000D03*
X190185000Y-36300000D03*
%TD*%
%TO.C,R19*%
X131990000Y-178500000D03*
X139610000Y-178500000D03*
%TD*%
D10*
%TO.C,N1*%
X100623020Y-57294930D03*
X90877040Y-60795050D03*
X89126980Y-57294930D03*
X89126980Y-52796590D03*
X89126980Y-48298250D03*
X90877040Y-44798130D03*
X94875000Y-43797370D03*
X98872960Y-44798130D03*
X100623020Y-48298250D03*
X100623020Y-52796590D03*
X98872960Y-60795050D03*
X94875000Y-61795810D03*
%TD*%
D11*
%TO.C,C6*%
X59875000Y-56925000D03*
X59875000Y-54425000D03*
%TD*%
%TO.C,C9*%
X241512500Y-49146590D03*
X241512500Y-51646590D03*
%TD*%
%TO.C,R26*%
X233920000Y-40250000D03*
X226300000Y-40250000D03*
%TD*%
%TO.C,R1*%
X57290000Y-154900000D03*
X64910000Y-154900000D03*
%TD*%
D14*
%TO.C,D3*%
X143135000Y-54396590D03*
X138135000Y-54396590D03*
X138135000Y-51196590D03*
X143135000Y-51196590D03*
%TD*%
D11*
%TO.C,C7*%
X244037500Y-49146590D03*
X244037500Y-51646590D03*
%TD*%
D18*
%TO.C,U2*%
X78575000Y-56796590D03*
X78575000Y-55996590D03*
X78575000Y-55196590D03*
X78575000Y-54396590D03*
X78575000Y-53596590D03*
X78575000Y-52796590D03*
X78575000Y-51996590D03*
X78575000Y-51196590D03*
X78575000Y-50396590D03*
X78575000Y-49596590D03*
X78575000Y-48796590D03*
D19*
X76075000Y-46296590D03*
X75275000Y-46296590D03*
X74475000Y-46296590D03*
X73675000Y-46296590D03*
X72875000Y-46296590D03*
X72075000Y-46296590D03*
X71275000Y-46296590D03*
X70475000Y-46296590D03*
X69675000Y-46296590D03*
X68875000Y-46296590D03*
X68075000Y-46296590D03*
D18*
X65575000Y-48796590D03*
X65575000Y-49596590D03*
X65575000Y-50396590D03*
X65575000Y-51196590D03*
X65575000Y-51996590D03*
X65575000Y-52796590D03*
X65575000Y-53596590D03*
X65575000Y-54396590D03*
X65575000Y-55196590D03*
X65575000Y-55996590D03*
X65575000Y-56796590D03*
D19*
X68075000Y-59296590D03*
X68875000Y-59296590D03*
X69675000Y-59296590D03*
X70475000Y-59296590D03*
X71275000Y-59296590D03*
X72075000Y-59296590D03*
X72875000Y-59296590D03*
X73675000Y-59296590D03*
X74475000Y-59296590D03*
X75275000Y-59296590D03*
X76075000Y-59296590D03*
%TD*%
D10*
%TO.C,N2*%
X123503020Y-57294930D03*
X113757040Y-60795050D03*
X112006980Y-57294930D03*
X112006980Y-52796590D03*
X112006980Y-48298250D03*
X113757040Y-44798130D03*
X117755000Y-43797370D03*
X121752960Y-44798130D03*
X123503020Y-48298250D03*
X123503020Y-52796590D03*
X121752960Y-60795050D03*
X117755000Y-61795810D03*
%TD*%
D11*
%TO.C,R24*%
X191400000Y-156000000D03*
X199020000Y-156000000D03*
%TD*%
%TO.C,R4*%
X91045000Y-36300000D03*
X98665000Y-36300000D03*
%TD*%
%TO.C,R13*%
X85900000Y-178900000D03*
X93520000Y-178900000D03*
%TD*%
%TO.C,R16*%
X110090000Y-178300000D03*
X117710000Y-178300000D03*
%TD*%
D10*
%TO.C,N5*%
X192143020Y-57294930D03*
X182397040Y-60795050D03*
X180646980Y-57294930D03*
X180646980Y-52796590D03*
X180646980Y-48298250D03*
X182397040Y-44798130D03*
X186395000Y-43797370D03*
X190392960Y-44798130D03*
X192143020Y-48298250D03*
X192143020Y-52796590D03*
X190392960Y-60795050D03*
X186395000Y-61795810D03*
%TD*%
D14*
%TO.C,D7*%
X211775000Y-54396590D03*
X206775000Y-54396590D03*
X206775000Y-51196590D03*
X211775000Y-51196590D03*
%TD*%
D11*
%TO.C,R15*%
X122390000Y-155300000D03*
X130010000Y-155300000D03*
%TD*%
D14*
%TO.C,D2*%
X120255000Y-54396590D03*
X115255000Y-54396590D03*
X115255000Y-51196590D03*
X120255000Y-51196590D03*
%TD*%
D11*
%TO.C,R22*%
X168490000Y-151400000D03*
X176110000Y-151400000D03*
%TD*%
D20*
%TO.C,U1*%
X231812500Y-33737500D03*
X231812500Y-34687500D03*
X231812500Y-35637500D03*
X234512500Y-35637500D03*
X234512500Y-33737500D03*
%TD*%
D11*
%TO.C,R3*%
X57180000Y-161600000D03*
X64800000Y-161600000D03*
%TD*%
D14*
%TO.C,D1*%
X97375000Y-54396590D03*
X92375000Y-54396590D03*
X92375000Y-51196590D03*
X97375000Y-51196590D03*
%TD*%
D11*
%TO.C,R20*%
X191690000Y-150600000D03*
X199310000Y-150600000D03*
%TD*%
D12*
%TO.C,J1*%
X35800000Y-165700000D03*
D13*
X35800000Y-166700000D03*
X35800000Y-167700000D03*
X35800000Y-168700000D03*
X35800000Y-169700000D03*
X35800000Y-170700000D03*
X35800000Y-171700000D03*
X35800000Y-172700000D03*
X35800000Y-173700000D03*
X35800000Y-174700000D03*
X35800000Y-175700000D03*
X35800000Y-176700000D03*
X35800000Y-177700000D03*
X35800000Y-178700000D03*
X35800000Y-179700000D03*
X35800000Y-180700000D03*
X35800000Y-181700000D03*
X35800000Y-182700000D03*
X35800000Y-183700000D03*
X35800000Y-184700000D03*
%TD*%
D11*
%TO.C,C8*%
X62475000Y-56925000D03*
X62475000Y-54425000D03*
%TD*%
%TO.C,R9*%
X205445000Y-36300000D03*
X213065000Y-36300000D03*
%TD*%
%TO.C,R18*%
X55130000Y-42200000D03*
X62750000Y-42200000D03*
%TD*%
D12*
%TO.C,J2*%
X143804652Y-69325000D03*
D13*
X144804652Y-69325000D03*
X145804652Y-69325000D03*
X146804652Y-69325000D03*
X147804652Y-69325000D03*
X148804652Y-69325000D03*
X149804652Y-69325000D03*
X150804652Y-69325000D03*
X151804652Y-69325000D03*
X152804652Y-69325000D03*
X153804652Y-69325000D03*
X154804652Y-69325000D03*
X155804652Y-69325000D03*
X156804652Y-69325000D03*
X157804652Y-69325000D03*
X158804652Y-69325000D03*
X159804652Y-69325000D03*
X160804652Y-69325000D03*
X161804652Y-69325000D03*
X162804652Y-69325000D03*
%TD*%
D12*
%TO.C,JP1*%
X50125000Y-57296590D03*
D13*
X50125000Y-56296590D03*
X50125000Y-55296590D03*
X50125000Y-54296590D03*
X50125000Y-53296590D03*
X50125000Y-52296590D03*
X50125000Y-51296590D03*
X50125000Y-50296590D03*
X50125000Y-49296590D03*
X50125000Y-48296590D03*
%TD*%
M02*
