%TF.GenerationSoftware,KiCad,Pcbnew,10.0.5*%
%TF.CreationDate,2026-08-19T21:39:51+03:00*%
%TF.ProjectId,Nixie,4e697869-652e-46b6-9963-61645f706362,rev?*%
%TF.SameCoordinates,Original*%
%TF.FileFunction,Copper,L1,Top*%
%TF.FilePolarity,Positive*%
%FSLAX46Y46*%
G04 Gerber Fmt 4.6, Leading zero omitted, Abs format (unit mm)*
G04 Created by KiCad (PCBNEW 10.0.5) date 2026-08-19 21:39:51*
%MOMM*%
%LPD*%
G01*
G04 APERTURE LIST*
G04 Aperture macros list*
%AMRoundRect*
0 Rectangle with rounded corners*
0 $1 Rounding radius*
0 $2 $3 $4 $5 $6 $7 $8 $9 X,Y pos of 4 corners*
0 Add a 4 corners polygon primitive as box body*
4,1,4,$2,$3,$4,$5,$6,$7,$8,$9,$2,$3,0*
0 Add four circle primitives for the rounded corners*
1,1,$1+$1,$2,$3*
1,1,$1+$1,$4,$5*
1,1,$1+$1,$6,$7*
1,1,$1+$1,$8,$9*
0 Add four rect primitives between the rounded corners*
20,1,$1+$1,$2,$3,$4,$5,0*
20,1,$1+$1,$4,$5,$6,$7,0*
20,1,$1+$1,$6,$7,$8,$9,0*
20,1,$1+$1,$8,$9,$2,$3,0*%
G04 Aperture macros list end*
%TA.AperFunction,ComponentPad*%
%ADD10C,2.397760*%
%TD*%
%TA.AperFunction,ComponentPad*%
%ADD11C,1.600000*%
%TD*%
%TA.AperFunction,SMDPad,CuDef*%
%ADD12R,1.600000X1.000000*%
%TD*%
%TA.AperFunction,SMDPad,CuDef*%
%ADD13RoundRect,0.150000X-0.587500X-0.150000X0.587500X-0.150000X0.587500X0.150000X-0.587500X0.150000X0*%
%TD*%
%TA.AperFunction,ComponentPad*%
%ADD14R,1.800000X1.800000*%
%TD*%
%TA.AperFunction,ComponentPad*%
%ADD15C,1.800000*%
%TD*%
%TA.AperFunction,SMDPad,CuDef*%
%ADD16R,1.900000X0.600000*%
%TD*%
%TA.AperFunction,SMDPad,CuDef*%
%ADD17R,0.600000X1.900000*%
%TD*%
%TA.AperFunction,ComponentPad*%
%ADD18R,1.700000X1.700000*%
%TD*%
%TA.AperFunction,ComponentPad*%
%ADD19C,1.700000*%
%TD*%
%TA.AperFunction,SMDPad,CuDef*%
%ADD20RoundRect,0.162500X-0.617500X-0.162500X0.617500X-0.162500X0.617500X0.162500X-0.617500X0.162500X0*%
%TD*%
%TA.AperFunction,ViaPad*%
%ADD21C,0.508000*%
%TD*%
%TA.AperFunction,Conductor*%
%ADD22C,0.254000*%
%TD*%
%TA.AperFunction,Conductor*%
%ADD23C,0.152400*%
%TD*%
%TA.AperFunction,Conductor*%
%ADD24C,0.500000*%
%TD*%
G04 APERTURE END LIST*
D10*
%TO.P,N4,0,0_0*%
%TO.N,/40*%
X169213020Y-56669930D03*
%TO.P,N4,1,1_1*%
%TO.N,/31*%
X159467040Y-60170050D03*
%TO.P,N4,2,2_2*%
%TO.N,/32*%
X157716980Y-56669930D03*
%TO.P,N4,3,3_3*%
%TO.N,/33*%
X157716980Y-52171590D03*
%TO.P,N4,4,4_4*%
%TO.N,/34*%
X157716980Y-47673250D03*
%TO.P,N4,5,5_5*%
%TO.N,/35*%
X159467040Y-44173130D03*
%TO.P,N4,6,6_6*%
%TO.N,/36*%
X163465000Y-43172370D03*
%TO.P,N4,7,7_7*%
%TO.N,/37*%
X167462960Y-44173130D03*
%TO.P,N4,8,8_8*%
%TO.N,/38*%
X169213020Y-47673250D03*
%TO.P,N4,9,9_9*%
%TO.N,/39*%
X169213020Y-52171590D03*
%TO.P,N4,A,A_A*%
%TO.N,Net-(N4-PadA)*%
X167462960Y-60170050D03*
%TO.P,N4,LHDP,LHDP_LHDP*%
%TO.N,/DP3*%
X163465000Y-61170810D03*
%TD*%
%TO.P,N3,0,0_0*%
%TO.N,/30*%
X146333020Y-56669930D03*
%TO.P,N3,1,1_1*%
%TO.N,/21*%
X136587040Y-60170050D03*
%TO.P,N3,2,2_2*%
%TO.N,/22*%
X134836980Y-56669930D03*
%TO.P,N3,3,3_3*%
%TO.N,/23*%
X134836980Y-52171590D03*
%TO.P,N3,4,4_4*%
%TO.N,/24*%
X134836980Y-47673250D03*
%TO.P,N3,5,5_5*%
%TO.N,/25*%
X136587040Y-44173130D03*
%TO.P,N3,6,6_6*%
%TO.N,/26*%
X140585000Y-43172370D03*
%TO.P,N3,7,7_7*%
%TO.N,/27*%
X144582960Y-44173130D03*
%TO.P,N3,8,8_8*%
%TO.N,/28*%
X146333020Y-47673250D03*
%TO.P,N3,9,9_9*%
%TO.N,/29*%
X146333020Y-52171590D03*
%TO.P,N3,A,A_A*%
%TO.N,Net-(N3-PadA)*%
X144582960Y-60170050D03*
%TO.P,N3,LHDP,LHDP_LHDP*%
%TO.N,/DP2*%
X140585000Y-61170810D03*
%TD*%
D11*
%TO.P,R27,1*%
%TO.N,/OE*%
X244100000Y-39490000D03*
%TO.P,R27,2*%
%TO.N,GND*%
X244100000Y-47110000D03*
%TD*%
%TO.P,R12,1*%
%TO.N,Net-(J1-Pin_6)*%
X137650000Y-111315000D03*
%TO.P,R12,2*%
%TO.N,/B*%
X145270000Y-111315000D03*
%TD*%
%TO.P,R2,1*%
%TO.N,Net-(J1-Pin_2)*%
X137650000Y-119995000D03*
%TO.P,R2,2*%
%TO.N,/G*%
X145270000Y-119995000D03*
%TD*%
%TO.P,R21,1*%
%TO.N,Net-(J1-Pin_14)*%
X163940000Y-107795000D03*
%TO.P,R21,2*%
%TO.N,/G*%
X171560000Y-107795000D03*
%TD*%
D12*
%TO.P,D4,1,A_1*%
%TO.N,+5V*%
X165965000Y-53771590D03*
%TO.P,D4,2,RK_2*%
%TO.N,Net-(D4-RK)*%
X160965000Y-53771590D03*
%TO.P,D4,3,GK_3*%
%TO.N,Net-(D4-GK)*%
X160965000Y-50571590D03*
%TO.P,D4,4,BK_4*%
%TO.N,Net-(D4-BK)*%
X165965000Y-50571590D03*
%TD*%
D11*
%TO.P,R10,1*%
%TO.N,Net-(J1-Pin_4)*%
X137650000Y-104205000D03*
%TO.P,R10,2*%
%TO.N,/R*%
X145270000Y-104205000D03*
%TD*%
D13*
%TO.P,Q1,1,G_1*%
%TO.N,Net-(Q1-G)*%
X247400000Y-65562500D03*
%TO.P,Q1,2,S_2*%
%TO.N,GND*%
X247400000Y-67462500D03*
%TO.P,Q1,3,D_3*%
%TO.N,/DP5*%
X249275000Y-66512500D03*
%TD*%
D12*
%TO.P,D6,1,A_1*%
%TO.N,+5V*%
X188845000Y-53771590D03*
%TO.P,D6,2,RK_2*%
%TO.N,Net-(D6-RK)*%
X183845000Y-53771590D03*
%TO.P,D6,3,GK_3*%
%TO.N,Net-(D6-GK)*%
X183845000Y-50571590D03*
%TO.P,D6,4,BK_4*%
%TO.N,Net-(D6-BK)*%
X188845000Y-50571590D03*
%TD*%
D14*
%TO.P,D5,1,K_1*%
%TO.N,GND*%
X51280000Y-37700000D03*
D15*
%TO.P,D5,2,A_2*%
%TO.N,Net-(D5-A)*%
X53820000Y-37700000D03*
%TD*%
D11*
%TO.P,R14,1*%
%TO.N,Net-(J1-Pin_8)*%
X151150000Y-107795000D03*
%TO.P,R14,2*%
%TO.N,/G*%
X158770000Y-107795000D03*
%TD*%
%TO.P,R7,1*%
%TO.N,VPP*%
X159635000Y-35675000D03*
%TO.P,R7,2*%
%TO.N,Net-(N4-PadA)*%
X167255000Y-35675000D03*
%TD*%
%TO.P,R25,1*%
%TO.N,Net-(J1-Pin_18)*%
X163940000Y-123515000D03*
%TO.P,R25,2*%
%TO.N,/B*%
X171560000Y-123515000D03*
%TD*%
%TO.P,R23,1*%
%TO.N,Net-(J1-Pin_16)*%
X163940000Y-116405000D03*
%TO.P,R23,2*%
%TO.N,/R*%
X171560000Y-116405000D03*
%TD*%
%TO.P,R11,1*%
%TO.N,Net-(J1-Pin_5)*%
X137650000Y-107795000D03*
%TO.P,R11,2*%
%TO.N,/G*%
X145270000Y-107795000D03*
%TD*%
%TO.P,R5,1*%
%TO.N,VPP*%
X113195000Y-35675000D03*
%TO.P,R5,2*%
%TO.N,Net-(N2-PadA)*%
X120815000Y-35675000D03*
%TD*%
%TO.P,R6,1*%
%TO.N,VPP*%
X136755000Y-35675000D03*
%TO.P,R6,2*%
%TO.N,Net-(N3-PadA)*%
X144375000Y-35675000D03*
%TD*%
D10*
%TO.P,N6,0,0_0*%
%TO.N,/60*%
X214973020Y-56669930D03*
%TO.P,N6,1,1_1*%
%TO.N,/51*%
X205227040Y-60170050D03*
%TO.P,N6,2,2_2*%
%TO.N,/52*%
X203476980Y-56669930D03*
%TO.P,N6,3,3_3*%
%TO.N,/53*%
X203476980Y-52171590D03*
%TO.P,N6,4,4_4*%
%TO.N,/54*%
X203476980Y-47673250D03*
%TO.P,N6,5,5_5*%
%TO.N,/55*%
X205227040Y-44173130D03*
%TO.P,N6,6,6_6*%
%TO.N,/56*%
X209225000Y-43172370D03*
%TO.P,N6,7,7_7*%
%TO.N,/57*%
X213222960Y-44173130D03*
%TO.P,N6,8,8_8*%
%TO.N,/58*%
X214973020Y-47673250D03*
%TO.P,N6,9,9_9*%
%TO.N,/59*%
X214973020Y-52171590D03*
%TO.P,N6,A,A_A*%
%TO.N,Net-(N6-PadA)*%
X213222960Y-60170050D03*
%TO.P,N6,LHDP,LHDP_LHDP*%
%TO.N,/DP5*%
X209225000Y-61170810D03*
%TD*%
D16*
%TO.P,U3,1,HV_11_1*%
%TO.N,/43*%
X225525000Y-48171590D03*
%TO.P,U3,2,HV_12_2*%
%TO.N,/44*%
X225525000Y-48971590D03*
%TO.P,U3,3,HV_13_3*%
%TO.N,/45*%
X225525000Y-49771590D03*
%TO.P,U3,4,HV_14_4*%
%TO.N,/46*%
X225525000Y-50571590D03*
%TO.P,U3,5,HV_15_5*%
%TO.N,/47*%
X225525000Y-51371590D03*
%TO.P,U3,6,HV_16_6*%
%TO.N,/48*%
X225525000Y-52171590D03*
%TO.P,U3,7,HV_17_7*%
%TO.N,/49*%
X225525000Y-52971590D03*
%TO.P,U3,8,HV_18_8*%
%TO.N,/50*%
X225525000Y-53771590D03*
%TO.P,U3,9,HV_19_9*%
%TO.N,/51*%
X225525000Y-54571590D03*
%TO.P,U3,10,HV_20_10*%
%TO.N,/52*%
X225525000Y-55371590D03*
%TO.P,U3,11,HV_21_11*%
%TO.N,/53*%
X225525000Y-56171590D03*
D17*
%TO.P,U3,12,HV_22_12*%
%TO.N,/54*%
X228025000Y-58671590D03*
%TO.P,U3,13,HV_23_13*%
%TO.N,/55*%
X228825000Y-58671590D03*
%TO.P,U3,14,HV_24_14*%
%TO.N,/56*%
X229625000Y-58671590D03*
%TO.P,U3,15,HV_25_15*%
%TO.N,/57*%
X230425000Y-58671590D03*
%TO.P,U3,16,HV_26_16*%
%TO.N,/58*%
X231225000Y-58671590D03*
%TO.P,U3,17,HV_27_17*%
%TO.N,/59*%
X232025000Y-58671590D03*
%TO.P,U3,18,HV_28_18*%
%TO.N,/60*%
X232825000Y-58671590D03*
%TO.P,U3,19,HV_29_19*%
%TO.N,/DP1*%
X233625000Y-58671590D03*
%TO.P,U3,20,HV_30_20*%
%TO.N,/DP2*%
X234425000Y-58671590D03*
%TO.P,U3,21,HV_31_21*%
%TO.N,/DP3*%
X235225000Y-58671590D03*
%TO.P,U3,22,HV_32_22*%
%TO.N,/DP4*%
X236025000Y-58671590D03*
D16*
%TO.P,U3,23,Data_Out_23*%
%TO.N,Net-(U1-D)*%
X238525000Y-56171590D03*
%TO.P,U3,24,NC_24*%
%TO.N,unconnected-(U3-NC-Pad24)*%
X238525000Y-55371590D03*
%TO.P,U3,25,NC_25*%
%TO.N,unconnected-(U3-NC-Pad25)*%
X238525000Y-54571590D03*
%TO.P,U3,26,NC_26*%
%TO.N,unconnected-(U3-NC-Pad26)*%
X238525000Y-53771590D03*
%TO.P,U3,27,NC_27*%
%TO.N,unconnected-(U3-NC-Pad27)*%
X238525000Y-52971590D03*
%TO.P,U3,28,Output_Enable_28*%
%TO.N,/OE*%
X238525000Y-52171590D03*
%TO.P,U3,29,Clock_29*%
%TO.N,/CLK*%
X238525000Y-51371590D03*
%TO.P,U3,30,GND_30*%
%TO.N,GND*%
X238525000Y-50571590D03*
%TO.P,U3,31,VDD_31*%
%TO.N,+5V*%
X238525000Y-49771590D03*
%TO.P,U3,32,Strobe_32*%
%TO.N,/SRB*%
X238525000Y-48971590D03*
%TO.P,U3,33,Data_In_33*%
%TO.N,Net-(U2-Data_Out)*%
X238525000Y-48171590D03*
D17*
%TO.P,U3,34*%
%TO.N,unconnected-(U3-Pad34)*%
X236025000Y-45671590D03*
%TO.P,U3,35,HV_1_35*%
%TO.N,/33*%
X235225000Y-45671590D03*
%TO.P,U3,36,HV_2_36*%
%TO.N,/34*%
X234425000Y-45671590D03*
%TO.P,U3,37,HV_3_37*%
%TO.N,/35*%
X233625000Y-45671590D03*
%TO.P,U3,38,HV_4_38*%
%TO.N,/36*%
X232825000Y-45671590D03*
%TO.P,U3,39,HV_5_39*%
%TO.N,/37*%
X232025000Y-45671590D03*
%TO.P,U3,40,HV_6_40*%
%TO.N,/38*%
X231225000Y-45671590D03*
%TO.P,U3,41,HV_7_41*%
%TO.N,/39*%
X230425000Y-45671590D03*
%TO.P,U3,42,HV_8_42*%
%TO.N,/40*%
X229625000Y-45671590D03*
%TO.P,U3,43,HV_9_43*%
%TO.N,/41*%
X228825000Y-45671590D03*
%TO.P,U3,44,HV_10_44*%
%TO.N,/42*%
X228025000Y-45671590D03*
%TD*%
D11*
%TO.P,R17,1*%
%TO.N,Net-(J1-Pin_11)*%
X151150000Y-119925000D03*
%TO.P,R17,2*%
%TO.N,/G*%
X158770000Y-119925000D03*
%TD*%
%TO.P,R8,1*%
%TO.N,VPP*%
X182515000Y-35675000D03*
%TO.P,R8,2*%
%TO.N,Net-(N5-PadA)*%
X190135000Y-35675000D03*
%TD*%
%TO.P,R19,1*%
%TO.N,Net-(J1-Pin_12)*%
X151150000Y-123515000D03*
%TO.P,R19,2*%
%TO.N,/B*%
X158770000Y-123515000D03*
%TD*%
D10*
%TO.P,N1,0,0_0*%
%TO.N,/10*%
X100573020Y-56669930D03*
%TO.P,N1,1,1_1*%
%TO.N,/1*%
X90827040Y-60170050D03*
%TO.P,N1,2,2_2*%
%TO.N,/2*%
X89076980Y-56669930D03*
%TO.P,N1,3,3_3*%
%TO.N,/3*%
X89076980Y-52171590D03*
%TO.P,N1,4,4_4*%
%TO.N,/4*%
X89076980Y-47673250D03*
%TO.P,N1,5,5_5*%
%TO.N,/5*%
X90827040Y-44173130D03*
%TO.P,N1,6,6_6*%
%TO.N,/6*%
X94825000Y-43172370D03*
%TO.P,N1,7,7_7*%
%TO.N,/7*%
X98822960Y-44173130D03*
%TO.P,N1,8,8_8*%
%TO.N,/8*%
X100573020Y-47673250D03*
%TO.P,N1,9,9_9*%
%TO.N,/9*%
X100573020Y-52171590D03*
%TO.P,N1,A,A_A*%
%TO.N,Net-(N1-PadA)*%
X98822960Y-60170050D03*
%TO.P,N1,LHDP,LHDP_LHDP*%
%TO.N,unconnected-(N1-PadLHDP)*%
X94825000Y-61170810D03*
%TD*%
D18*
%TO.P,J3,1,Pin_1_1*%
%TO.N,/R*%
X164650000Y-96775000D03*
D19*
%TO.P,J3,2,Pin_2_2*%
%TO.N,/G*%
X162110000Y-96775000D03*
%TO.P,J3,3,Pin_3_3*%
%TO.N,/B*%
X159570000Y-96775000D03*
%TD*%
D11*
%TO.P,C6,1*%
%TO.N,+5V*%
X58775000Y-57075000D03*
%TO.P,C6,2*%
%TO.N,GND*%
X58775000Y-52075000D03*
%TD*%
%TO.P,C9,1*%
%TO.N,+5V*%
X242875000Y-50550000D03*
%TO.P,C9,2*%
%TO.N,GND*%
X242875000Y-55550000D03*
%TD*%
%TO.P,R26,1*%
%TO.N,+5V*%
X230695000Y-36150000D03*
%TO.P,R26,2*%
%TO.N,/SRB*%
X223075000Y-36150000D03*
%TD*%
%TO.P,R1,1*%
%TO.N,Net-(J1-Pin_1)*%
X137650000Y-116405000D03*
%TO.P,R1,2*%
%TO.N,/R*%
X145270000Y-116405000D03*
%TD*%
D12*
%TO.P,D3,1,A_1*%
%TO.N,+5V*%
X143085000Y-53771590D03*
%TO.P,D3,2,RK_2*%
%TO.N,Net-(D3-RK)*%
X138085000Y-53771590D03*
%TO.P,D3,3,GK_3*%
%TO.N,Net-(D3-GK)*%
X138085000Y-50571590D03*
%TO.P,D3,4,BK_4*%
%TO.N,Net-(D3-BK)*%
X143085000Y-50571590D03*
%TD*%
D11*
%TO.P,C7,1*%
%TO.N,+5V*%
X246125000Y-50550000D03*
%TO.P,C7,2*%
%TO.N,GND*%
X246125000Y-55550000D03*
%TD*%
D16*
%TO.P,U2,1,HV_11_1*%
%TO.N,/11*%
X78525000Y-56171590D03*
%TO.P,U2,2,HV_12_2*%
%TO.N,/12*%
X78525000Y-55371590D03*
%TO.P,U2,3,HV_13_3*%
%TO.N,/13*%
X78525000Y-54571590D03*
%TO.P,U2,4,HV_14_4*%
%TO.N,/14*%
X78525000Y-53771590D03*
%TO.P,U2,5,HV_15_5*%
%TO.N,/15*%
X78525000Y-52971590D03*
%TO.P,U2,6,HV_16_6*%
%TO.N,/16*%
X78525000Y-52171590D03*
%TO.P,U2,7,HV_17_7*%
%TO.N,/17*%
X78525000Y-51371590D03*
%TO.P,U2,8,HV_18_8*%
%TO.N,/18*%
X78525000Y-50571590D03*
%TO.P,U2,9,HV_19_9*%
%TO.N,/19*%
X78525000Y-49771590D03*
%TO.P,U2,10,HV_20_10*%
%TO.N,/20*%
X78525000Y-48971590D03*
%TO.P,U2,11,HV_21_11*%
%TO.N,/21*%
X78525000Y-48171590D03*
D17*
%TO.P,U2,12,HV_22_12*%
%TO.N,/22*%
X76025000Y-45671590D03*
%TO.P,U2,13,HV_23_13*%
%TO.N,/23*%
X75225000Y-45671590D03*
%TO.P,U2,14,HV_24_14*%
%TO.N,/24*%
X74425000Y-45671590D03*
%TO.P,U2,15,HV_25_15*%
%TO.N,/25*%
X73625000Y-45671590D03*
%TO.P,U2,16,HV_26_16*%
%TO.N,/26*%
X72825000Y-45671590D03*
%TO.P,U2,17,HV_27_17*%
%TO.N,/27*%
X72025000Y-45671590D03*
%TO.P,U2,18,HV_28_18*%
%TO.N,/28*%
X71225000Y-45671590D03*
%TO.P,U2,19,HV_29_19*%
%TO.N,/29*%
X70425000Y-45671590D03*
%TO.P,U2,20,HV_30_20*%
%TO.N,/30*%
X69625000Y-45671590D03*
%TO.P,U2,21,HV_31_21*%
%TO.N,/31*%
X68825000Y-45671590D03*
%TO.P,U2,22,HV_32_22*%
%TO.N,/32*%
X68025000Y-45671590D03*
D16*
%TO.P,U2,23,Data_Out_23*%
%TO.N,Net-(U2-Data_Out)*%
X65525000Y-48171590D03*
%TO.P,U2,24,NC_24*%
%TO.N,unconnected-(U2-NC-Pad24)*%
X65525000Y-48971590D03*
%TO.P,U2,25,NC_25*%
%TO.N,unconnected-(U2-NC-Pad25)*%
X65525000Y-49771590D03*
%TO.P,U2,26,NC_26*%
%TO.N,unconnected-(U2-NC-Pad26)*%
X65525000Y-50571590D03*
%TO.P,U2,27,NC_27*%
%TO.N,unconnected-(U2-NC-Pad27)*%
X65525000Y-51371590D03*
%TO.P,U2,28,Output_Enable_28*%
%TO.N,/OE*%
X65525000Y-52171590D03*
%TO.P,U2,29,Clock_29*%
%TO.N,/CLK*%
X65525000Y-52971590D03*
%TO.P,U2,30,GND_30*%
%TO.N,GND*%
X65525000Y-53771590D03*
%TO.P,U2,31,VDD_31*%
%TO.N,+5V*%
X65525000Y-54571590D03*
%TO.P,U2,32,Strobe_32*%
%TO.N,/SRB*%
X65525000Y-55371590D03*
%TO.P,U2,33,Data_In_33*%
%TO.N,/DIN*%
X65525000Y-56171590D03*
D17*
%TO.P,U2,34*%
%TO.N,unconnected-(U2-Pad34)*%
X68025000Y-58671590D03*
%TO.P,U2,35,HV_1_35*%
%TO.N,/1*%
X68825000Y-58671590D03*
%TO.P,U2,36,HV_2_36*%
%TO.N,/2*%
X69625000Y-58671590D03*
%TO.P,U2,37,HV_3_37*%
%TO.N,/3*%
X70425000Y-58671590D03*
%TO.P,U2,38,HV_4_38*%
%TO.N,/4*%
X71225000Y-58671590D03*
%TO.P,U2,39,HV_5_39*%
%TO.N,/5*%
X72025000Y-58671590D03*
%TO.P,U2,40,HV_6_40*%
%TO.N,/6*%
X72825000Y-58671590D03*
%TO.P,U2,41,HV_7_41*%
%TO.N,/7*%
X73625000Y-58671590D03*
%TO.P,U2,42,HV_8_42*%
%TO.N,/8*%
X74425000Y-58671590D03*
%TO.P,U2,43,HV_9_43*%
%TO.N,/9*%
X75225000Y-58671590D03*
%TO.P,U2,44,HV_10_44*%
%TO.N,/10*%
X76025000Y-58671590D03*
%TD*%
D10*
%TO.P,N2,0,0_0*%
%TO.N,/20*%
X123453020Y-56669930D03*
%TO.P,N2,1,1_1*%
%TO.N,/11*%
X113707040Y-60170050D03*
%TO.P,N2,2,2_2*%
%TO.N,/12*%
X111956980Y-56669930D03*
%TO.P,N2,3,3_3*%
%TO.N,/13*%
X111956980Y-52171590D03*
%TO.P,N2,4,4_4*%
%TO.N,/14*%
X111956980Y-47673250D03*
%TO.P,N2,5,5_5*%
%TO.N,/15*%
X113707040Y-44173130D03*
%TO.P,N2,6,6_6*%
%TO.N,/16*%
X117705000Y-43172370D03*
%TO.P,N2,7,7_7*%
%TO.N,/17*%
X121702960Y-44173130D03*
%TO.P,N2,8,8_8*%
%TO.N,/18*%
X123453020Y-47673250D03*
%TO.P,N2,9,9_9*%
%TO.N,/19*%
X123453020Y-52171590D03*
%TO.P,N2,A,A_A*%
%TO.N,Net-(N2-PadA)*%
X121702960Y-60170050D03*
%TO.P,N2,LHDP,LHDP_LHDP*%
%TO.N,/DP1*%
X117705000Y-61170810D03*
%TD*%
D11*
%TO.P,R24,1*%
%TO.N,Net-(J1-Pin_17)*%
X163940000Y-119995000D03*
%TO.P,R24,2*%
%TO.N,/G*%
X171560000Y-119995000D03*
%TD*%
%TO.P,R4,1*%
%TO.N,VPP*%
X90995000Y-35675000D03*
%TO.P,R4,2*%
%TO.N,Net-(N1-PadA)*%
X98615000Y-35675000D03*
%TD*%
%TO.P,R13,1*%
%TO.N,Net-(J1-Pin_7)*%
X151150000Y-104205000D03*
%TO.P,R13,2*%
%TO.N,/R*%
X158770000Y-104205000D03*
%TD*%
%TO.P,R16,1*%
%TO.N,Net-(J1-Pin_10)*%
X151150000Y-116405000D03*
%TO.P,R16,2*%
%TO.N,/R*%
X158770000Y-116405000D03*
%TD*%
D10*
%TO.P,N5,0,0_0*%
%TO.N,/50*%
X192093020Y-56669930D03*
%TO.P,N5,1,1_1*%
%TO.N,/41*%
X182347040Y-60170050D03*
%TO.P,N5,2,2_2*%
%TO.N,/42*%
X180596980Y-56669930D03*
%TO.P,N5,3,3_3*%
%TO.N,/43*%
X180596980Y-52171590D03*
%TO.P,N5,4,4_4*%
%TO.N,/44*%
X180596980Y-47673250D03*
%TO.P,N5,5,5_5*%
%TO.N,/45*%
X182347040Y-44173130D03*
%TO.P,N5,6,6_6*%
%TO.N,/46*%
X186345000Y-43172370D03*
%TO.P,N5,7,7_7*%
%TO.N,/47*%
X190342960Y-44173130D03*
%TO.P,N5,8,8_8*%
%TO.N,/48*%
X192093020Y-47673250D03*
%TO.P,N5,9,9_9*%
%TO.N,/49*%
X192093020Y-52171590D03*
%TO.P,N5,A,A_A*%
%TO.N,Net-(N5-PadA)*%
X190342960Y-60170050D03*
%TO.P,N5,LHDP,LHDP_LHDP*%
%TO.N,/DP4*%
X186345000Y-61170810D03*
%TD*%
D12*
%TO.P,D7,1,A_1*%
%TO.N,+5V*%
X211725000Y-53771590D03*
%TO.P,D7,2,RK_2*%
%TO.N,Net-(D7-RK)*%
X206725000Y-53771590D03*
%TO.P,D7,3,GK_3*%
%TO.N,Net-(D7-GK)*%
X206725000Y-50571590D03*
%TO.P,D7,4,BK_4*%
%TO.N,Net-(D7-BK)*%
X211725000Y-50571590D03*
%TD*%
D11*
%TO.P,R15,1*%
%TO.N,Net-(J1-Pin_9)*%
X151150000Y-111315000D03*
%TO.P,R15,2*%
%TO.N,/B*%
X158770000Y-111315000D03*
%TD*%
D12*
%TO.P,D2,1,A_1*%
%TO.N,+5V*%
X120205000Y-53771590D03*
%TO.P,D2,2,RK_2*%
%TO.N,Net-(D2-RK)*%
X115205000Y-53771590D03*
%TO.P,D2,3,GK_3*%
%TO.N,Net-(D2-GK)*%
X115205000Y-50571590D03*
%TO.P,D2,4,BK_4*%
%TO.N,Net-(D2-BK)*%
X120205000Y-50571590D03*
%TD*%
D11*
%TO.P,R22,1*%
%TO.N,Net-(J1-Pin_15)*%
X163940000Y-111315000D03*
%TO.P,R22,2*%
%TO.N,/B*%
X171560000Y-111315000D03*
%TD*%
D20*
%TO.P,U1,1,D_1*%
%TO.N,Net-(U1-D)*%
X240800000Y-65625000D03*
%TO.P,U1,2,C_2*%
%TO.N,/CLK*%
X240800000Y-66575000D03*
%TO.P,U1,3,GND_3*%
%TO.N,GND*%
X240800000Y-67525000D03*
%TO.P,U1,4,Q_4*%
%TO.N,Net-(Q1-G)*%
X243500000Y-67525000D03*
%TO.P,U1,5,VCC_5*%
%TO.N,+5V*%
X243500000Y-65625000D03*
%TD*%
D11*
%TO.P,R3,1*%
%TO.N,Net-(J1-Pin_3)*%
X137650000Y-123515000D03*
%TO.P,R3,2*%
%TO.N,/B*%
X145270000Y-123515000D03*
%TD*%
D12*
%TO.P,D1,1,A_1*%
%TO.N,+5V*%
X97325000Y-53771590D03*
%TO.P,D1,2,RK_2*%
%TO.N,Net-(D1-RK)*%
X92325000Y-53771590D03*
%TO.P,D1,3,GK_3*%
%TO.N,Net-(D1-GK)*%
X92325000Y-50571590D03*
%TO.P,D1,4,BK_4*%
%TO.N,Net-(D1-BK)*%
X97325000Y-50571590D03*
%TD*%
D11*
%TO.P,R20,1*%
%TO.N,Net-(J1-Pin_13)*%
X163940000Y-104205000D03*
%TO.P,R20,2*%
%TO.N,/R*%
X171560000Y-104205000D03*
%TD*%
D18*
%TO.P,J1,1,Pin_1_1*%
%TO.N,Net-(J1-Pin_1)*%
X132760000Y-131050000D03*
D19*
%TO.P,J1,2,Pin_2_2*%
%TO.N,Net-(J1-Pin_2)*%
X135300000Y-131050000D03*
%TO.P,J1,3,Pin_3_3*%
%TO.N,Net-(J1-Pin_3)*%
X137840000Y-131050000D03*
%TO.P,J1,4,Pin_4_4*%
%TO.N,Net-(J1-Pin_4)*%
X140380000Y-131050000D03*
%TO.P,J1,5,Pin_5_5*%
%TO.N,Net-(J1-Pin_5)*%
X142920000Y-131050000D03*
%TO.P,J1,6,Pin_6_6*%
%TO.N,Net-(J1-Pin_6)*%
X145460000Y-131050000D03*
%TO.P,J1,7,Pin_7_7*%
%TO.N,Net-(J1-Pin_7)*%
X148000000Y-131050000D03*
%TO.P,J1,8,Pin_8_8*%
%TO.N,Net-(J1-Pin_8)*%
X150540000Y-131050000D03*
%TO.P,J1,9,Pin_9_9*%
%TO.N,Net-(J1-Pin_9)*%
X153080000Y-131050000D03*
%TO.P,J1,10,Pin_10_10*%
%TO.N,Net-(J1-Pin_10)*%
X155620000Y-131050000D03*
%TO.P,J1,11,Pin_11_11*%
%TO.N,Net-(J1-Pin_11)*%
X158160000Y-131050000D03*
%TO.P,J1,12,Pin_12_12*%
%TO.N,Net-(J1-Pin_12)*%
X160700000Y-131050000D03*
%TO.P,J1,13,Pin_13_13*%
%TO.N,Net-(J1-Pin_13)*%
X163240000Y-131050000D03*
%TO.P,J1,14,Pin_14_14*%
%TO.N,Net-(J1-Pin_14)*%
X165780000Y-131050000D03*
%TO.P,J1,15,Pin_15_15*%
%TO.N,Net-(J1-Pin_15)*%
X168320000Y-131050000D03*
%TO.P,J1,16,Pin_16_16*%
%TO.N,Net-(J1-Pin_16)*%
X170860000Y-131050000D03*
%TO.P,J1,17,Pin_17_17*%
%TO.N,Net-(J1-Pin_17)*%
X173400000Y-131050000D03*
%TO.P,J1,18,Pin_18_18*%
%TO.N,Net-(J1-Pin_18)*%
X175940000Y-131050000D03*
%TD*%
D11*
%TO.P,C8,1*%
%TO.N,+5V*%
X62200000Y-57075000D03*
%TO.P,C8,2*%
%TO.N,GND*%
X62200000Y-52075000D03*
%TD*%
%TO.P,R9,1*%
%TO.N,VPP*%
X205395000Y-35675000D03*
%TO.P,R9,2*%
%TO.N,Net-(N6-PadA)*%
X213015000Y-35675000D03*
%TD*%
%TO.P,R18,1*%
%TO.N,Net-(D5-A)*%
X56390000Y-40625000D03*
%TO.P,R18,2*%
%TO.N,+5V*%
X64010000Y-40625000D03*
%TD*%
D18*
%TO.P,J2,1,Pin_1_1*%
%TO.N,Net-(D1-RK)*%
X130565000Y-69725000D03*
D19*
%TO.P,J2,2,Pin_2_2*%
%TO.N,Net-(D1-GK)*%
X133105000Y-69725000D03*
%TO.P,J2,3,Pin_3_3*%
%TO.N,Net-(D1-BK)*%
X135645000Y-69725000D03*
%TO.P,J2,4,Pin_4_4*%
%TO.N,Net-(D2-RK)*%
X138185000Y-69725000D03*
%TO.P,J2,5,Pin_5_5*%
%TO.N,Net-(D2-GK)*%
X140725000Y-69725000D03*
%TO.P,J2,6,Pin_6_6*%
%TO.N,Net-(D2-BK)*%
X143265000Y-69725000D03*
%TO.P,J2,7,Pin_7_7*%
%TO.N,Net-(D3-RK)*%
X145805000Y-69725000D03*
%TO.P,J2,8,Pin_8_8*%
%TO.N,Net-(D3-GK)*%
X148345000Y-69725000D03*
%TO.P,J2,9,Pin_9_9*%
%TO.N,Net-(D3-BK)*%
X150885000Y-69725000D03*
%TO.P,J2,10,Pin_10_10*%
%TO.N,Net-(D4-RK)*%
X153425000Y-69725000D03*
%TO.P,J2,11,Pin_11_11*%
%TO.N,Net-(D4-GK)*%
X155965000Y-69725000D03*
%TO.P,J2,12,Pin_12_12*%
%TO.N,Net-(D4-BK)*%
X158505000Y-69725000D03*
%TO.P,J2,13,Pin_13_13*%
%TO.N,Net-(D6-RK)*%
X161045000Y-69725000D03*
%TO.P,J2,14,Pin_14_14*%
%TO.N,Net-(D6-GK)*%
X163585000Y-69725000D03*
%TO.P,J2,15,Pin_15_15*%
%TO.N,Net-(D6-BK)*%
X166125000Y-69725000D03*
%TO.P,J2,16,Pin_16_16*%
%TO.N,Net-(D7-RK)*%
X168665000Y-69725000D03*
%TO.P,J2,17,Pin_17_17*%
%TO.N,Net-(D7-GK)*%
X171205000Y-69725000D03*
%TO.P,J2,18,Pin_18_18*%
%TO.N,Net-(D7-BK)*%
X173745000Y-69725000D03*
%TD*%
D18*
%TO.P,JP1,1,Pin_1_1*%
%TO.N,+5V*%
X50000000Y-57165000D03*
D19*
%TO.P,JP1,2,Pin_2_2*%
%TO.N,VPP*%
X50000000Y-54625000D03*
%TO.P,JP1,3,Pin_3_3*%
%TO.N,/DIN*%
X50000000Y-52085000D03*
%TO.P,JP1,4,Pin_4_4*%
%TO.N,/CLK*%
X50000000Y-49545000D03*
%TO.P,JP1,5,Pin_5_5*%
%TO.N,/OE*%
X50000000Y-47005000D03*
%TO.P,JP1,6,Pin_6_6*%
%TO.N,/SRB*%
X50000000Y-44465000D03*
%TO.P,JP1,7,Pin_7_7*%
%TO.N,GND*%
X50000000Y-41925000D03*
%TD*%
D21*
%TO.N,/40*%
X229075000Y-43650000D03*
%TO.N,/31*%
X68200000Y-42575000D03*
%TO.N,/32*%
X67300000Y-43400000D03*
%TO.N,/33*%
X236144800Y-42175000D03*
%TO.N,/34*%
X234675000Y-43075000D03*
%TO.N,/35*%
X233660000Y-42239538D03*
%TO.N,/36*%
X232774788Y-41691657D03*
%TO.N,/37*%
X231703581Y-41832818D03*
%TO.N,/38*%
X230775000Y-42225000D03*
%TO.N,/39*%
X229875000Y-43000000D03*
%TO.N,/DP3*%
X235200000Y-68825000D03*
%TO.N,/30*%
X69025000Y-41600000D03*
%TO.N,/21*%
X78225000Y-60050000D03*
X125791651Y-69479000D03*
X110300000Y-70350000D03*
X95925000Y-68375000D03*
%TO.N,/23*%
X76287500Y-43650000D03*
%TO.N,/24*%
X76287500Y-42112500D03*
%TO.N,/25*%
X76175000Y-40425000D03*
%TO.N,/26*%
X76175000Y-38825000D03*
%TO.N,/27*%
X76125000Y-37125000D03*
%TO.N,/28*%
X72475000Y-38925000D03*
%TO.N,/29*%
X70200000Y-40825000D03*
%TO.N,/DP2*%
X141950000Y-70900000D03*
X234425000Y-67025000D03*
X192875000Y-72100000D03*
X140585000Y-64750000D03*
%TO.N,/OE*%
X241000000Y-52150000D03*
X240675000Y-48025000D03*
X45125000Y-49650000D03*
X48106000Y-47150000D03*
%TO.N,GND*%
X238775000Y-69550000D03*
%TO.N,+5V*%
X108950000Y-72800000D03*
X164875000Y-72800000D03*
X164875000Y-71600000D03*
X188375000Y-72800000D03*
X164875000Y-67975000D03*
X62675000Y-44900000D03*
X188350000Y-70300000D03*
X126200000Y-67800000D03*
X165425000Y-65750000D03*
X59825000Y-59550000D03*
X59325000Y-58125000D03*
X108975000Y-69150000D03*
X143125000Y-57050000D03*
%TO.N,/DP5*%
X212400000Y-71600000D03*
X210350000Y-71600000D03*
%TO.N,Net-(N2-PadA)*%
X126381000Y-60170050D03*
%TO.N,/51*%
X222750000Y-63220000D03*
X205400000Y-66229676D03*
%TO.N,/52*%
X203550000Y-66229676D03*
X224200000Y-62425000D03*
%TO.N,/53*%
X225500000Y-61900000D03*
X204050000Y-64650000D03*
%TO.N,Net-(N6-PadA)*%
X200175000Y-49575000D03*
%TO.N,/43*%
X200100000Y-63425000D03*
X222225000Y-47725000D03*
%TO.N,/44*%
X201225000Y-64400000D03*
X220750000Y-47725000D03*
%TO.N,/45*%
X220775000Y-49325000D03*
X202200000Y-65300000D03*
%TO.N,/46*%
X202563525Y-67499362D03*
X220750000Y-50571590D03*
%TO.N,/47*%
X220725000Y-52150000D03*
X203200000Y-68369000D03*
%TO.N,/48*%
X221300000Y-53375000D03*
X204200000Y-68955000D03*
%TO.N,/49*%
X201200000Y-69694000D03*
X221575000Y-56600000D03*
%TO.N,/50*%
X203225000Y-70590000D03*
X222640000Y-55186398D03*
%TO.N,/DP1*%
X233675000Y-69850000D03*
X138625000Y-66900000D03*
%TO.N,/DP4*%
X236025000Y-68325000D03*
%TO.N,/CLK*%
X240325000Y-48600000D03*
X239100000Y-66525000D03*
X46175000Y-50675000D03*
X240325000Y-51325000D03*
X48106000Y-49650000D03*
%TO.N,/SRB*%
X65600000Y-34750000D03*
X65600000Y-36975000D03*
%TO.N,Net-(U2-Data_Out)*%
X46175000Y-45875000D03*
X52225000Y-47950000D03*
%TO.N,Net-(N5-PadA)*%
X174925000Y-58200000D03*
%TO.N,/10*%
X78125000Y-62200000D03*
X100450000Y-63025000D03*
%TO.N,/7*%
X73900000Y-62175000D03*
X105600000Y-56575000D03*
%TO.N,/8*%
X104325000Y-57725000D03*
X75400000Y-62125000D03*
%TO.N,/9*%
X76800000Y-62175000D03*
X103175000Y-61475000D03*
%TO.N,Net-(N1-PadA)*%
X106325000Y-53650000D03*
X106325000Y-36568490D03*
X106325000Y-42275000D03*
%TO.N,/11*%
X79900000Y-62100000D03*
X100890000Y-67548000D03*
%TO.N,/12*%
X81550000Y-62125000D03*
X100890000Y-66525000D03*
%TO.N,/13*%
X100890000Y-65375000D03*
X83075000Y-62125000D03*
%TO.N,/14*%
X83450000Y-60500000D03*
X100890000Y-64366997D03*
%TO.N,/20*%
X124675000Y-66219000D03*
X76075000Y-51425000D03*
%TD*%
%TO.N,/40*%
D22*
X229625000Y-44200000D02*
X229075000Y-43650000D01*
X229625000Y-45671590D02*
X229625000Y-44200000D01*
%TO.N,/31*%
X68825000Y-43200000D02*
X68200000Y-42575000D01*
X68825000Y-45671590D02*
X68825000Y-43200000D01*
%TO.N,/32*%
X68025000Y-44125000D02*
X67300000Y-43400000D01*
X68025000Y-45671590D02*
X68025000Y-44125000D01*
X67300000Y-43400000D02*
X67150000Y-43250000D01*
%TO.N,/33*%
X235225000Y-43770923D02*
X235556000Y-43439923D01*
X235556000Y-43439923D02*
X235556000Y-42506000D01*
X235556000Y-42506000D02*
X235887000Y-42175000D01*
X235225000Y-45671590D02*
X235225000Y-43770923D01*
X235887000Y-42175000D02*
X236175000Y-42175000D01*
%TO.N,/34*%
X234460000Y-43290000D02*
X234675000Y-43075000D01*
X234379000Y-45625590D02*
X234379000Y-44037318D01*
X234379000Y-44037318D02*
X234460000Y-43956317D01*
X234425000Y-45671590D02*
X234379000Y-45625590D01*
X234460000Y-43956317D02*
X234460000Y-43290000D01*
%TO.N,/35*%
X233706000Y-43644000D02*
X233625000Y-43725000D01*
X233706000Y-42285538D02*
X233706000Y-43644000D01*
X233660000Y-42239538D02*
X233706000Y-42285538D01*
X233625000Y-43725000D02*
X233625000Y-45671590D01*
%TO.N,/36*%
X232774788Y-41691657D02*
X232774788Y-41800212D01*
X232825000Y-42900000D02*
X232825000Y-45671590D01*
X232779000Y-41841920D02*
X232779000Y-42854000D01*
X232779000Y-42854000D02*
X232825000Y-42900000D01*
X232756040Y-41818960D02*
X232779000Y-41841920D01*
X232774788Y-41800212D02*
X232756040Y-41818960D01*
%TO.N,/37*%
X232025000Y-45671590D02*
X232025000Y-42154237D01*
X232025000Y-42154237D02*
X231703581Y-41832818D01*
%TO.N,/38*%
X231225000Y-45671590D02*
X231225000Y-42675000D01*
X231225000Y-42675000D02*
X230775000Y-42225000D01*
%TO.N,/39*%
X230425000Y-45671590D02*
X230425000Y-43550000D01*
X230425000Y-43550000D02*
X229875000Y-43000000D01*
%TO.N,Net-(N4-PadA)*%
D23*
X167255000Y-35675000D02*
X172625000Y-41045000D01*
X172625000Y-41045000D02*
X172625000Y-56703482D01*
X169158432Y-60170050D02*
X167462960Y-60170050D01*
X172625000Y-56703482D02*
X169158432Y-60170050D01*
%TO.N,/DP3*%
X235225000Y-58671590D02*
X235225000Y-68800000D01*
X235225000Y-68800000D02*
X235200000Y-68825000D01*
%TO.N,/30*%
D22*
X69625000Y-42200000D02*
X69025000Y-41600000D01*
X69625000Y-45671590D02*
X69625000Y-42200000D01*
%TO.N,/21*%
X97921800Y-70496800D02*
X101271800Y-70496800D01*
X101341600Y-70427000D02*
X108938266Y-70427000D01*
X127100000Y-68170651D02*
X127100000Y-65473228D01*
X78525000Y-48171590D02*
X77054682Y-48171590D01*
X95925000Y-68500000D02*
X97921800Y-70496800D01*
X75194000Y-50032273D02*
X75194000Y-56136590D01*
X77054682Y-48171590D02*
X75194000Y-50032273D01*
X132403178Y-60170050D02*
X136587040Y-60170050D01*
X108938266Y-70427000D02*
X109015265Y-70350000D01*
X125791651Y-69479000D02*
X127100000Y-68170651D01*
X78225000Y-59167590D02*
X78225000Y-60050000D01*
X109015265Y-70350000D02*
X110300000Y-70350000D01*
X75194000Y-56136590D02*
X78225000Y-59167590D01*
X95925000Y-68375000D02*
X95925000Y-68500000D01*
X127100000Y-65473228D02*
X132403178Y-60170050D01*
X101271800Y-70496800D02*
X101341600Y-70427000D01*
%TO.N,/22*%
X126032900Y-50658028D02*
X125500000Y-51190928D01*
X125500000Y-51190928D02*
X125500000Y-64175000D01*
X126032900Y-43788250D02*
X126032900Y-50658028D01*
X88570593Y-37449490D02*
X119694141Y-37449490D01*
X80348492Y-45671590D02*
X88570593Y-37449490D01*
X127156910Y-64350000D02*
X125550000Y-64350000D01*
X76025000Y-45671590D02*
X80348492Y-45671590D01*
X119694141Y-37449490D02*
X126032900Y-43788250D01*
X134836980Y-56669930D02*
X127156910Y-64350000D01*
%TO.N,/23*%
X75225000Y-45671590D02*
X75225000Y-44767590D01*
X75225000Y-44767590D02*
X76342590Y-43650000D01*
X76342590Y-43650000D02*
X76425000Y-43650000D01*
%TO.N,/24*%
X74425000Y-43975000D02*
X76287500Y-42112500D01*
X74425000Y-45671590D02*
X74425000Y-43975000D01*
X76287500Y-42112500D02*
X76325000Y-42075000D01*
%TO.N,/25*%
X73625000Y-42975000D02*
X76175000Y-40425000D01*
X73625000Y-45671590D02*
X73625000Y-42975000D01*
%TO.N,/26*%
X72825000Y-45671590D02*
X72825000Y-42175000D01*
X72825000Y-42175000D02*
X76175000Y-38825000D01*
%TO.N,/27*%
X72025000Y-45671590D02*
X72025000Y-41225000D01*
X72025000Y-41225000D02*
X76125000Y-37125000D01*
%TO.N,/28*%
X71225000Y-45671590D02*
X71225000Y-40175000D01*
X71225000Y-40175000D02*
X72475000Y-38925000D01*
%TO.N,/29*%
X70425000Y-41050000D02*
X70200000Y-40825000D01*
X70425000Y-45671590D02*
X70425000Y-41050000D01*
%TO.N,Net-(N3-PadA)*%
D23*
X144582960Y-60170050D02*
X147879950Y-60170050D01*
X148575000Y-59475000D02*
X148575000Y-39875000D01*
X148575000Y-39875000D02*
X144375000Y-35675000D01*
X147879950Y-60170050D02*
X148575000Y-59475000D01*
%TO.N,/DP2*%
X188175639Y-72318700D02*
X188574361Y-72318700D01*
X164375000Y-72175000D02*
X165801200Y-72175000D01*
X140585000Y-64750000D02*
X140585000Y-64760000D01*
X188574361Y-72318700D02*
X188579461Y-72323800D01*
X192651200Y-72323800D02*
X192875000Y-72100000D01*
X141950000Y-70900000D02*
X142050000Y-71000000D01*
X144500000Y-71000000D02*
X145823800Y-72323800D01*
X145823800Y-72323800D02*
X164226200Y-72323800D01*
X188579461Y-72323800D02*
X192651200Y-72323800D01*
X165801200Y-72175000D02*
X165950000Y-72323800D01*
X234425000Y-58671590D02*
X234425000Y-67025000D01*
X165950000Y-72323800D02*
X188170539Y-72323800D01*
X140585000Y-61170810D02*
X140585000Y-64750000D01*
X188170539Y-72323800D02*
X188175639Y-72318700D01*
X142050000Y-71000000D02*
X144500000Y-71000000D01*
X164226200Y-72323800D02*
X164375000Y-72175000D01*
X140585000Y-64760000D02*
X140625000Y-64800000D01*
%TO.N,/OE*%
X155525000Y-30375000D02*
X157050000Y-31900000D01*
X64127400Y-52052400D02*
X64127400Y-51577400D01*
X64275000Y-33525000D02*
X64650000Y-33150000D01*
X64745390Y-52171590D02*
X64623542Y-52049742D01*
X244100000Y-39490000D02*
X237845316Y-39490000D01*
X65525000Y-52171590D02*
X64745390Y-52171590D01*
X241000000Y-52150000D02*
X240978410Y-52171590D01*
X240003600Y-47850942D02*
X240177658Y-48025000D01*
X45125000Y-49650000D02*
X45125000Y-36075210D01*
X63725000Y-48900000D02*
X61450000Y-48900000D01*
X216953163Y-33170200D02*
X216953163Y-33125000D01*
X48106000Y-47150000D02*
X48251000Y-47005000D01*
X240003600Y-41648284D02*
X240003600Y-47850942D01*
X61450000Y-48900000D02*
X61200000Y-48650000D01*
X231480316Y-33125000D02*
X240003600Y-41648284D01*
X45125000Y-36075210D02*
X47675210Y-33525000D01*
X240978410Y-52171590D02*
X238525000Y-52171590D01*
X64127400Y-51577400D02*
X63725000Y-51175000D01*
X205275516Y-33170200D02*
X216953163Y-33170200D01*
X204005316Y-31900000D02*
X205275516Y-33170200D01*
X157050000Y-31900000D02*
X204005316Y-31900000D01*
X66300000Y-33522600D02*
X89947084Y-33522600D01*
X64222600Y-52147600D02*
X64127400Y-52052400D01*
X48251000Y-47005000D02*
X50000000Y-47005000D01*
X89947084Y-33522600D02*
X91569684Y-31900000D01*
X64650000Y-33150000D02*
X65927400Y-33150000D01*
X63725000Y-51175000D02*
X63725000Y-48900000D01*
X65927400Y-33150000D02*
X66300000Y-33522600D01*
X91569684Y-31900000D02*
X146600000Y-31900000D01*
X65501010Y-52147600D02*
X64222600Y-52147600D01*
X47675210Y-33525000D02*
X64275000Y-33525000D01*
X61200000Y-48650000D02*
X51645000Y-48650000D01*
X65525000Y-52171590D02*
X65501010Y-52147600D01*
X148125000Y-30375000D02*
X155525000Y-30375000D01*
X216953163Y-33125000D02*
X231480316Y-33125000D01*
X240177658Y-48025000D02*
X240675000Y-48025000D01*
X51645000Y-48650000D02*
X50000000Y-47005000D01*
X146600000Y-31900000D02*
X148125000Y-30375000D01*
%TO.N,GND*%
X241700000Y-50475000D02*
X241603410Y-50571590D01*
X240800000Y-67525000D02*
X238775000Y-69550000D01*
X242425000Y-69150000D02*
X240800000Y-67525000D01*
X62200000Y-52075000D02*
X58775000Y-52075000D01*
X63896590Y-53771590D02*
X65525000Y-53771590D01*
X247400000Y-67462500D02*
X245712500Y-69150000D01*
X62200000Y-52075000D02*
X63896590Y-53771590D01*
X65201200Y-53447790D02*
X65525000Y-53771590D01*
X242875000Y-54225000D02*
X242875000Y-55550000D01*
X241700000Y-53050000D02*
X241700000Y-50475000D01*
X241603410Y-50571590D02*
X238525000Y-50571590D01*
X245712500Y-69150000D02*
X242425000Y-69150000D01*
X241700000Y-53050000D02*
X242875000Y-54225000D01*
%TO.N,Net-(J1-Pin_6)*%
X147250258Y-126829800D02*
X147479800Y-126600258D01*
X145460000Y-126869800D02*
X145500000Y-126829800D01*
X137650000Y-111315000D02*
X136050000Y-109715000D01*
X147479800Y-102944800D02*
X146855000Y-102320000D01*
X145500000Y-126829800D02*
X147250258Y-126829800D01*
X136050000Y-109715000D02*
X136050000Y-102275000D01*
X147479800Y-126600258D02*
X147479800Y-102944800D01*
X145460000Y-131050000D02*
X145460000Y-126869800D01*
X136050000Y-102275000D02*
X146810000Y-102275000D01*
%TO.N,/B*%
X160650000Y-113195000D02*
X160650000Y-121635000D01*
X159570000Y-96775000D02*
X159570000Y-101520000D01*
X159570000Y-101520000D02*
X161000000Y-102950000D01*
X158770000Y-111315000D02*
X160650000Y-113195000D01*
X161000000Y-102950000D02*
X161000000Y-109085000D01*
X161000000Y-109085000D02*
X158770000Y-111315000D01*
X160650000Y-121635000D02*
X158770000Y-123515000D01*
%TO.N,Net-(J1-Pin_2)*%
X135300000Y-126822658D02*
X136102400Y-126020258D01*
X135300000Y-131050000D02*
X135300000Y-126822658D01*
X136102400Y-121542600D02*
X137650000Y-119995000D01*
X136102400Y-126020258D02*
X136102400Y-121542600D01*
%TO.N,/G*%
X162475000Y-99775000D02*
X162110000Y-99410000D01*
X162110000Y-99410000D02*
X162110000Y-96775000D01*
X169879700Y-106114700D02*
X163540000Y-99775000D01*
X169879700Y-118314700D02*
X171560000Y-119995000D01*
X169879700Y-106114700D02*
X171560000Y-107795000D01*
X169879700Y-106114700D02*
X169879700Y-118314700D01*
X163540000Y-99775000D02*
X162475000Y-99775000D01*
%TO.N,Net-(J1-Pin_14)*%
X165780000Y-131050000D02*
X165100000Y-131050000D01*
X161302400Y-127252400D02*
X161302400Y-110312600D01*
X161302400Y-110312600D02*
X163940000Y-107675000D01*
X165100000Y-131050000D02*
X161302400Y-127252400D01*
%TO.N,+5V*%
D24*
X97224080Y-63625000D02*
X97224080Y-68299080D01*
X126200000Y-67800000D02*
X120250000Y-67800000D01*
X164875000Y-67975000D02*
X164875000Y-71600000D01*
X64010000Y-40625000D02*
X64010000Y-43565000D01*
X108575000Y-69550000D02*
X108975000Y-69150000D01*
X242875000Y-50550000D02*
X246125000Y-50550000D01*
X165965000Y-53771590D02*
X165425000Y-54311590D01*
X53875000Y-68600000D02*
X50075000Y-64800000D01*
X108950000Y-72800000D02*
X164625000Y-72800000D01*
X165425000Y-54311590D02*
X165425000Y-65750000D01*
X188350000Y-54266590D02*
X188350000Y-70300000D01*
X108946394Y-72796394D02*
X108950000Y-72800000D01*
X188845000Y-53771590D02*
X188350000Y-54266590D01*
X143085000Y-57010000D02*
X143125000Y-57050000D01*
X143085000Y-53771590D02*
X143085000Y-57010000D01*
X101051762Y-72800000D02*
X108942788Y-72799999D01*
X94322764Y-72281000D02*
X100532762Y-72281000D01*
X97224080Y-53872510D02*
X97224080Y-63625000D01*
X53875000Y-68600000D02*
X92125920Y-68600000D01*
X64225000Y-55050000D02*
X62200000Y-57075000D01*
X211725000Y-53771590D02*
X211525000Y-53971590D01*
X98475000Y-69550000D02*
X108575000Y-69550000D01*
X164625000Y-72800000D02*
X164875000Y-72800000D01*
X108942788Y-72799999D02*
X108946394Y-72796394D01*
X188375000Y-72800000D02*
X211550000Y-72800000D01*
X64553410Y-54721590D02*
X64225000Y-54721590D01*
X100532762Y-72281000D02*
X101051762Y-72800000D01*
X251250000Y-71650000D02*
X251250000Y-64325000D01*
X65525000Y-54571590D02*
X64703410Y-54571590D01*
X92125920Y-68600000D02*
X92125921Y-71378227D01*
X252750000Y-62825000D02*
X246300000Y-62825000D01*
X58775000Y-57075000D02*
X62200000Y-57075000D01*
X252750000Y-62825000D02*
X252750000Y-50975000D01*
X93028694Y-72281000D02*
X93377236Y-72281000D01*
X252325000Y-50550000D02*
X246125000Y-50550000D01*
X64225000Y-54721590D02*
X64225000Y-55050000D01*
X120250000Y-67800000D02*
X120104080Y-67654080D01*
X50075000Y-57240000D02*
X50075000Y-59550000D01*
X120104080Y-67654080D02*
X120104080Y-53872510D01*
X64010000Y-43565000D02*
X62675000Y-44900000D01*
X64703410Y-54571590D02*
X64553410Y-54721590D01*
X164875000Y-72800000D02*
X166300000Y-72800000D01*
X93377236Y-72281000D02*
X93402236Y-72306000D01*
X59825000Y-59550000D02*
X50075000Y-59550000D01*
X252750000Y-50975000D02*
X252325000Y-50550000D01*
X97224080Y-68299080D02*
X98475000Y-69550000D01*
X92125921Y-71378227D02*
X93028694Y-72281000D01*
X211550000Y-72800000D02*
X250100000Y-72800000D01*
X94297765Y-72305999D02*
X94322764Y-72281000D01*
X242096590Y-49771590D02*
X242875000Y-50550000D01*
X59325000Y-57075000D02*
X59325000Y-58125000D01*
X251250000Y-71650000D02*
X250100000Y-72800000D01*
X97325000Y-53771590D02*
X97224080Y-53872510D01*
X211525000Y-53971590D02*
X211525000Y-72775000D01*
X120104080Y-53872510D02*
X120205000Y-53771590D01*
X166300000Y-72800000D02*
X188375000Y-72800000D01*
X251250000Y-64325000D02*
X252750000Y-62825000D01*
X50075000Y-59550000D02*
X50075000Y-64800000D01*
X93402236Y-72306000D02*
X94297765Y-72305999D01*
X246300000Y-62825000D02*
X243500000Y-65625000D01*
X50000000Y-57165000D02*
X50075000Y-57240000D01*
X238525000Y-49771590D02*
X242096590Y-49771590D01*
X143085000Y-53771590D02*
X142975000Y-53881590D01*
X211525000Y-72775000D02*
X211550000Y-72800000D01*
%TO.N,Net-(D4-RK)*%
D23*
X159390200Y-67597600D02*
X159390200Y-66272284D01*
X155587500Y-67562500D02*
X155622600Y-67597600D01*
X159390200Y-66272284D02*
X159812484Y-65850000D01*
X155587500Y-67562500D02*
X153425000Y-69725000D01*
X161242120Y-65850000D02*
X159812484Y-65850000D01*
X155622600Y-67597600D02*
X159390200Y-67597600D01*
X161242120Y-54048710D02*
X161242120Y-65850000D01*
X160965000Y-53771590D02*
X161242120Y-54048710D01*
%TO.N,Net-(D4-GK)*%
X161544520Y-66165400D02*
X161544520Y-55650000D01*
X161544520Y-55650000D02*
X161991200Y-55203320D01*
X161991200Y-55203320D02*
X161991200Y-51597790D01*
X157790000Y-67900000D02*
X159692600Y-67900000D01*
X161991200Y-51597790D02*
X160965000Y-50571590D01*
X159924742Y-66165400D02*
X161544520Y-66165400D01*
X155965000Y-69725000D02*
X157790000Y-67900000D01*
X159692600Y-67900000D02*
X159692600Y-66397542D01*
X159692600Y-66397542D02*
X159924742Y-66165400D01*
%TO.N,Net-(D4-BK)*%
X162293600Y-55328578D02*
X162293600Y-52800000D01*
X161846920Y-55775258D02*
X162293600Y-55328578D01*
X159995000Y-66522800D02*
X160050000Y-66467800D01*
X161846920Y-66467800D02*
X161846920Y-55775258D01*
X164522010Y-50571590D02*
X165965000Y-50571590D01*
X159995000Y-68235000D02*
X159995000Y-66522800D01*
X162293600Y-52800000D02*
X164522010Y-50571590D01*
X160050000Y-66467800D02*
X161846920Y-66467800D01*
X158505000Y-69725000D02*
X159995000Y-68235000D01*
%TO.N,Net-(J1-Pin_4)*%
X140380000Y-131050000D02*
X140380000Y-130770000D01*
X146875000Y-103195316D02*
X146559484Y-102879800D01*
X146559484Y-102879800D02*
X138975200Y-102879800D01*
X138975200Y-102879800D02*
X137650000Y-104205000D01*
X144925000Y-126225000D02*
X146875000Y-126225000D01*
X146875000Y-126225000D02*
X146875000Y-103195316D01*
X140380000Y-130770000D02*
X144925000Y-126225000D01*
%TO.N,Net-(Q1-G)*%
X243500000Y-67525000D02*
X245437500Y-67525000D01*
X245437500Y-67525000D02*
X247400000Y-65562500D01*
%TO.N,/DP5*%
X209225000Y-71600000D02*
X209225000Y-61170810D01*
X249275000Y-70975000D02*
X249275000Y-66512500D01*
X210350000Y-71550000D02*
X210300000Y-71600000D01*
X210350000Y-71600000D02*
X210350000Y-71550000D01*
X210300000Y-71600000D02*
X209225000Y-71600000D01*
X212400000Y-71600000D02*
X248650000Y-71600000D01*
X248650000Y-71600000D02*
X249275000Y-70975000D01*
%TO.N,Net-(D6-RK)*%
X184315120Y-57455080D02*
X184315120Y-66725000D01*
X164045000Y-66725000D02*
X184315120Y-66725000D01*
X183845000Y-56984960D02*
X184315120Y-57455080D01*
X183845000Y-53771590D02*
X183845000Y-56984960D01*
X161045000Y-69725000D02*
X164045000Y-66725000D01*
%TO.N,Net-(D6-GK)*%
X163585000Y-69725000D02*
X163585000Y-68522919D01*
X184617520Y-66950000D02*
X184167520Y-67400000D01*
X184617520Y-57329822D02*
X184617520Y-66950000D01*
X163585000Y-68522919D02*
X164707919Y-67400000D01*
X183845000Y-50571590D02*
X186122600Y-52849190D01*
X186122600Y-52849190D02*
X186122600Y-55824742D01*
X186122600Y-55824742D02*
X184617520Y-57329822D01*
X164707919Y-67400000D02*
X184167520Y-67400000D01*
%TO.N,Net-(D6-BK)*%
X184919920Y-67294920D02*
X184919920Y-57455080D01*
X186425000Y-55950000D02*
X186425000Y-52991590D01*
X184919920Y-57455080D02*
X186425000Y-55950000D01*
X185000000Y-67375000D02*
X184919920Y-67294920D01*
X186425000Y-52991590D02*
X188845000Y-50571590D01*
X166125000Y-69725000D02*
X167850000Y-68000000D01*
X167850000Y-68000000D02*
X184375000Y-68000000D01*
X184375000Y-68000000D02*
X185000000Y-67375000D01*
%TO.N,Net-(D5-A)*%
X56225000Y-37700000D02*
X53820000Y-37700000D01*
X56390000Y-37865000D02*
X56225000Y-37700000D01*
X56390000Y-40625000D02*
X56390000Y-37865000D01*
%TO.N,Net-(J1-Pin_8)*%
X148075000Y-126860374D02*
X148075000Y-128585000D01*
X148084600Y-126850774D02*
X148075000Y-126860374D01*
X148075000Y-128585000D02*
X150540000Y-131050000D01*
X151150000Y-107675000D02*
X148084600Y-110740400D01*
X148084600Y-110740400D02*
X148084600Y-126850774D01*
%TO.N,VPP*%
D22*
X159635000Y-35675000D02*
X161585000Y-33725000D01*
X147267048Y-33510400D02*
X148792048Y-31985400D01*
X65235077Y-35631000D02*
X65964923Y-35631000D01*
X64415500Y-34841914D02*
X64827426Y-35253839D01*
X180565000Y-33725000D02*
X182515000Y-35675000D01*
X154857952Y-31985400D02*
X156382952Y-33510400D01*
X64827426Y-35253839D02*
X64857916Y-35253839D01*
X161585000Y-33725000D02*
X180565000Y-33725000D01*
X203245000Y-33525000D02*
X205395000Y-35675000D01*
X64415500Y-34833000D02*
X64415500Y-34841914D01*
X134630000Y-33550000D02*
X136755000Y-35675000D01*
X114275000Y-33550000D02*
X134630000Y-33550000D01*
X48217000Y-34833000D02*
X64415500Y-34833000D01*
X182515000Y-35010000D02*
X184000000Y-33525000D01*
X92973200Y-33696800D02*
X111216800Y-33696800D01*
X138800000Y-33630000D02*
X138800000Y-33510400D01*
X50000000Y-54625000D02*
X47225000Y-51850000D01*
X157470400Y-33510400D02*
X159635000Y-35675000D01*
X148792048Y-31985400D02*
X154857952Y-31985400D01*
X66462923Y-35133000D02*
X90453000Y-35133000D01*
X138800000Y-33510400D02*
X147267048Y-33510400D01*
X65964923Y-35631000D02*
X66462923Y-35133000D01*
X182515000Y-35675000D02*
X182515000Y-35010000D01*
X47225000Y-51850000D02*
X47225000Y-35825000D01*
X47225000Y-35825000D02*
X48217000Y-34833000D01*
X156382952Y-33510400D02*
X157470400Y-33510400D01*
X184000000Y-33525000D02*
X203245000Y-33525000D01*
X90995000Y-35675000D02*
X92973200Y-33696800D01*
X113195000Y-34630000D02*
X114275000Y-33550000D01*
X136755000Y-35675000D02*
X138800000Y-33630000D01*
X113195000Y-35675000D02*
X113195000Y-34630000D01*
X90453000Y-35133000D02*
X90995000Y-35675000D01*
X111216800Y-33696800D02*
X113195000Y-35675000D01*
X64857916Y-35253839D02*
X65235077Y-35631000D01*
%TO.N,Net-(J1-Pin_18)*%
D23*
X166839087Y-127008771D02*
X171898771Y-127008771D01*
X164934858Y-125104542D02*
X166839087Y-127008771D01*
X171898771Y-127008771D02*
X175940000Y-131050000D01*
X163940000Y-125069542D02*
X163975000Y-125104542D01*
X163975000Y-125104542D02*
X164934858Y-125104542D01*
X163940000Y-123515000D02*
X163940000Y-125069542D01*
%TO.N,Net-(J1-Pin_16)*%
X164762500Y-125787500D02*
X162162500Y-125787500D01*
X161907200Y-125532200D02*
X161907200Y-118437800D01*
X170860000Y-131050000D02*
X170025000Y-131050000D01*
X161907200Y-118437800D02*
X163940000Y-116405000D01*
X162162500Y-125787500D02*
X161907200Y-125532200D01*
X170025000Y-131050000D02*
X164762500Y-125787500D01*
%TO.N,Net-(J1-Pin_5)*%
X146684742Y-102577400D02*
X147177400Y-103070058D01*
X137650000Y-107795000D02*
X136518630Y-107795000D01*
X147177400Y-103070058D02*
X147177400Y-126475000D01*
X142920000Y-128830000D02*
X142920000Y-131050000D01*
X136352400Y-102577400D02*
X146684742Y-102577400D01*
X136518630Y-107795000D02*
X136352400Y-107628770D01*
X147177400Y-126475000D02*
X147125000Y-126527400D01*
X145222600Y-126527400D02*
X142920000Y-128830000D01*
X136352400Y-107628770D02*
X136352400Y-102577400D01*
X147125000Y-126527400D02*
X145222600Y-126527400D01*
%TO.N,Net-(N2-PadA)*%
X126679950Y-60170050D02*
X126925000Y-59925000D01*
X120815000Y-37390000D02*
X120815000Y-35675000D01*
X126381000Y-60170050D02*
X126679950Y-60170050D01*
X126925000Y-43500000D02*
X120815000Y-37390000D01*
X126925000Y-59925000D02*
X126925000Y-43500000D01*
%TO.N,/60*%
D22*
X214973020Y-56669930D02*
X215300000Y-56996910D01*
X215300000Y-56996910D02*
X215300000Y-68625000D01*
X232825000Y-67400000D02*
X232825000Y-58671590D01*
X231600000Y-68625000D02*
X232825000Y-67400000D01*
X215300000Y-68625000D02*
X231600000Y-68625000D01*
%TO.N,/51*%
X224054682Y-54571590D02*
X225525000Y-54571590D01*
X205423049Y-63361049D02*
X205227040Y-63165040D01*
X205227040Y-63165040D02*
X205227040Y-60170050D01*
X205400000Y-65228000D02*
X205423049Y-65204951D01*
X205423049Y-65204951D02*
X205423049Y-63361049D01*
X222750000Y-61575000D02*
X223521000Y-60804000D01*
X205400000Y-66229676D02*
X205400000Y-65228000D01*
X223521000Y-55105272D02*
X224054682Y-54571590D01*
X222750000Y-63220000D02*
X222750000Y-61575000D01*
X223521000Y-60804000D02*
X223521000Y-55105272D01*
%TO.N,/52*%
X203081000Y-64935077D02*
X203075000Y-64929077D01*
X203075000Y-64929077D02*
X203075000Y-64800000D01*
X203075000Y-65670923D02*
X203081000Y-65664923D01*
X224275000Y-55417590D02*
X224321000Y-55371590D01*
X224321000Y-55371590D02*
X225525000Y-55371590D01*
X202278100Y-57868810D02*
X203476980Y-56669930D01*
X224200000Y-62277226D02*
X224275000Y-62202226D01*
X224275000Y-62202226D02*
X224275000Y-55417590D01*
X224200000Y-62425000D02*
X224200000Y-62277226D01*
X203075000Y-65754676D02*
X203075000Y-65670923D01*
X203081000Y-65664923D02*
X203081000Y-64935077D01*
X203075000Y-64800000D02*
X202278100Y-64003100D01*
X203550000Y-66229676D02*
X203075000Y-65754676D01*
X202278100Y-64003100D02*
X202278100Y-57868810D01*
%TO.N,/53*%
X203400000Y-64000000D02*
X203400000Y-62298320D01*
X203401160Y-59413745D02*
X204964905Y-57850000D01*
X203401160Y-62297160D02*
X203401160Y-59413745D01*
X206075000Y-56100000D02*
X203476980Y-53501980D01*
X204964905Y-57850000D02*
X206075000Y-57850000D01*
X225500000Y-61900000D02*
X225525000Y-61875000D01*
X203476980Y-53501980D02*
X203476980Y-52171590D01*
X204025000Y-64650000D02*
X204025000Y-64625000D01*
X225525000Y-61875000D02*
X225525000Y-56171590D01*
X206075000Y-57850000D02*
X206075000Y-56100000D01*
X204025000Y-64625000D02*
X203400000Y-64000000D01*
X203400000Y-62298320D02*
X203401160Y-62297160D01*
%TO.N,/54*%
X219824000Y-64101000D02*
X219824000Y-59837318D01*
X228025000Y-58671590D02*
X228025000Y-62926000D01*
X203401160Y-43416825D02*
X202278100Y-44539885D01*
X202278100Y-44539885D02*
X202278100Y-46474370D01*
X228025000Y-62926000D02*
X226850000Y-64101000D01*
X214357140Y-40592490D02*
X206225495Y-40592490D01*
X219824000Y-46059349D02*
X214357140Y-40592490D01*
X206225495Y-40592490D02*
X204470735Y-42347250D01*
X219824000Y-59837318D02*
X220568900Y-59092417D01*
X202278100Y-46474370D02*
X203476980Y-47673250D01*
X226850000Y-64101000D02*
X219824000Y-64101000D01*
X220568900Y-54345264D02*
X219824000Y-53600364D01*
X219824000Y-53600364D02*
X219824000Y-46059349D01*
X204470735Y-42347250D02*
X203401160Y-43416825D01*
X220568900Y-59092417D02*
X220568900Y-54345264D01*
%TO.N,/55*%
X219070000Y-46371667D02*
X214044823Y-41346490D01*
X228825000Y-58671590D02*
X228825000Y-63784000D01*
X219814900Y-58780100D02*
X219814900Y-54657582D01*
X219070000Y-64855000D02*
X219070000Y-59525000D01*
X228725364Y-64855000D02*
X219070000Y-64855000D01*
X219814900Y-54657582D02*
X219070000Y-53912682D01*
X228825000Y-63784000D02*
X228871000Y-63830000D01*
X228871000Y-63830000D02*
X228871000Y-64709364D01*
X219070000Y-53912682D02*
X219070000Y-46371667D01*
X228871000Y-64709364D02*
X228725364Y-64855000D01*
X208053680Y-41346490D02*
X205227040Y-44173130D01*
X214044823Y-41346490D02*
X208053680Y-41346490D01*
X219070000Y-59525000D02*
X219814900Y-58780100D01*
%TO.N,/56*%
X229037682Y-65609000D02*
X218316000Y-65609000D01*
X219060900Y-54969900D02*
X218316000Y-54225000D01*
X219060900Y-58363184D02*
X219060900Y-54969900D01*
X229625000Y-64538000D02*
X229671000Y-64584000D01*
X210050120Y-42347250D02*
X209225000Y-43172370D01*
X213979265Y-42347250D02*
X210050120Y-42347250D01*
X218316000Y-46683985D02*
X213979265Y-42347250D01*
X229671000Y-64975682D02*
X229037682Y-65609000D01*
X229671000Y-64584000D02*
X229671000Y-64975682D01*
X218316000Y-59108087D02*
X219060900Y-58363184D01*
X229625000Y-58671590D02*
X229625000Y-64538000D01*
X218316000Y-54225000D02*
X218316000Y-46683985D01*
X218316000Y-65609000D02*
X218316000Y-59108087D01*
%TO.N,/57*%
X216798900Y-46916945D02*
X215729325Y-45847370D01*
X229350000Y-66363000D02*
X217562000Y-66363000D01*
X214055085Y-44173130D02*
X213222960Y-44173130D01*
X218306900Y-58050868D02*
X218306900Y-55288989D01*
X217562000Y-58795770D02*
X218306900Y-58050868D01*
X217562000Y-54544089D02*
X217562000Y-47680045D01*
X218306900Y-55288989D02*
X217562000Y-54544089D01*
X230425000Y-65288000D02*
X229350000Y-66363000D01*
X217562000Y-47680045D02*
X216798900Y-46916945D01*
X230425000Y-58671590D02*
X230425000Y-65288000D01*
X217562000Y-66363000D02*
X217562000Y-58795770D01*
X215729325Y-45847370D02*
X214055085Y-44173130D01*
%TO.N,/58*%
X216808000Y-67117000D02*
X216808000Y-58483453D01*
X231225000Y-65992000D02*
X230100000Y-67117000D01*
X230100000Y-67117000D02*
X216808000Y-67117000D01*
X217552900Y-55601307D02*
X216800000Y-54848407D01*
X216800000Y-54848407D02*
X216800000Y-49500230D01*
X216800000Y-49500230D02*
X214973020Y-47673250D01*
X216808000Y-58483453D02*
X217552900Y-57738552D01*
X231225000Y-58671590D02*
X231225000Y-65992000D01*
X217552900Y-57738552D02*
X217552900Y-55601307D01*
%TO.N,/59*%
X216054000Y-67871000D02*
X216054000Y-58171135D01*
X216054000Y-58171135D02*
X216798900Y-57426235D01*
X216798900Y-55913625D02*
X216000000Y-55114725D01*
X216798900Y-57426235D02*
X216798900Y-55913625D01*
X232071000Y-66846000D02*
X232071000Y-67087682D01*
X216000000Y-55114725D02*
X216000000Y-53198570D01*
X232071000Y-67087682D02*
X231287682Y-67871000D01*
X216000000Y-53198570D02*
X214973020Y-52171590D01*
X232025000Y-66800000D02*
X232071000Y-66846000D01*
X231287682Y-67871000D02*
X216054000Y-67871000D01*
X232025000Y-58671590D02*
X232025000Y-66800000D01*
%TO.N,Net-(N6-PadA)*%
D23*
X205309584Y-38381291D02*
X199975000Y-43715875D01*
X213075000Y-38381290D02*
X205309584Y-38381291D01*
X213015000Y-35675000D02*
X213015000Y-38321290D01*
X213015000Y-38321290D02*
X213075000Y-38381290D01*
X199975000Y-49350000D02*
X200175000Y-49550000D01*
X199975000Y-43715875D02*
X199975000Y-49350000D01*
X200175000Y-49550000D02*
X200175000Y-49575000D01*
%TO.N,/43*%
D22*
X200100000Y-63425000D02*
X198025000Y-63425000D01*
X225525000Y-48171590D02*
X222671590Y-48171590D01*
X197929000Y-59865267D02*
X198442901Y-59351364D01*
X198442901Y-59351364D02*
X198442900Y-53925365D01*
X198025000Y-63425000D02*
X197929000Y-63329000D01*
X197704000Y-46436774D02*
X197704000Y-45730048D01*
X197720000Y-46452773D02*
X197704000Y-46436774D01*
X178771100Y-44100567D02*
X178771100Y-50345710D01*
X197704000Y-45730048D02*
X191812441Y-39838490D01*
X197720000Y-53202465D02*
X197720000Y-46452773D01*
X183033177Y-39838490D02*
X178771100Y-44100567D01*
X191812441Y-39838490D02*
X183033177Y-39838490D01*
X222671590Y-48171590D02*
X222225000Y-47725000D01*
X198442900Y-53925365D02*
X197720000Y-53202465D01*
X178771100Y-50345710D02*
X180596980Y-52171590D01*
X197929000Y-63329000D02*
X197929000Y-59865267D01*
%TO.N,/44*%
X220750000Y-48025000D02*
X220750000Y-47725000D01*
X184782510Y-40592490D02*
X183027750Y-42347250D01*
X197132863Y-53796000D02*
X196966000Y-53629137D01*
X197688900Y-59039049D02*
X197688900Y-54237683D01*
X180521160Y-44929435D02*
X180521160Y-47597430D01*
X225525000Y-48971590D02*
X221696590Y-48971590D01*
X197047908Y-64400000D02*
X196966000Y-64318092D01*
X197247217Y-53796000D02*
X197132863Y-53796000D01*
X197175000Y-64109092D02*
X197175000Y-59552951D01*
X197175000Y-59552951D02*
X197688900Y-59039049D01*
X183027750Y-42347250D02*
X181590735Y-42347250D01*
X181590735Y-42347250D02*
X180521160Y-43416825D01*
X180521160Y-47597430D02*
X180596980Y-47673250D01*
X180521160Y-43416825D02*
X180521160Y-44929435D01*
X196966000Y-53629137D02*
X196966000Y-46765091D01*
X196966000Y-64318092D02*
X197175000Y-64109092D01*
X196966000Y-46765091D02*
X196950000Y-46749092D01*
X196950000Y-46749092D02*
X196950000Y-46042366D01*
X191500124Y-40592490D02*
X184782510Y-40592490D01*
X221696590Y-48971590D02*
X220750000Y-48025000D01*
X201225000Y-64400000D02*
X197047908Y-64400000D01*
X196950000Y-46042366D02*
X191500124Y-40592490D01*
X197688900Y-54237683D02*
X197247217Y-53796000D01*
%TO.N,/45*%
X225525000Y-49771590D02*
X221121590Y-49771590D01*
X196212000Y-59449635D02*
X196934900Y-58726733D01*
X196212000Y-64630410D02*
X196212000Y-59449635D01*
X196212000Y-47077409D02*
X194767295Y-45632704D01*
X185173680Y-41346490D02*
X182347040Y-44173130D01*
X220775000Y-49425000D02*
X220775000Y-49325000D01*
X191187807Y-41346490D02*
X185173680Y-41346490D01*
X194767295Y-44925978D02*
X191187807Y-41346490D01*
X194767295Y-45632704D02*
X194767295Y-44925978D01*
X196934900Y-54550000D02*
X196820547Y-54550000D01*
X221121590Y-49771590D02*
X220775000Y-49425000D01*
X196934900Y-58726733D02*
X196934900Y-54550000D01*
X202200000Y-65300000D02*
X196881590Y-65300000D01*
X196820547Y-54550000D02*
X196212000Y-53941455D01*
X196212000Y-53941455D02*
X196212000Y-47077409D01*
X196881590Y-65300000D02*
X196212000Y-64630410D01*
%TO.N,/46*%
X202473722Y-67589165D02*
X202189556Y-67305000D01*
X198074272Y-67559000D02*
X195458000Y-64942728D01*
X187170120Y-42347250D02*
X186345000Y-43172370D01*
X200210441Y-67305000D02*
X199956442Y-67559000D01*
X220750000Y-50571590D02*
X220599590Y-50571590D01*
X193925000Y-45150000D02*
X193032121Y-44257121D01*
X193032121Y-44257121D02*
X193009136Y-44257121D01*
X195458000Y-47389727D02*
X193925000Y-45856727D01*
X225525000Y-50571590D02*
X220750000Y-50571590D01*
X195458000Y-54253772D02*
X195458000Y-47389727D01*
X220599590Y-50571590D02*
X220578000Y-50550000D01*
X196180900Y-58414417D02*
X196180900Y-54976671D01*
X196180900Y-54976671D02*
X195458000Y-54253772D01*
X202563525Y-67499362D02*
X202473722Y-67589165D01*
X202189556Y-67305000D02*
X200210441Y-67305000D01*
X195458000Y-59137318D02*
X196180900Y-58414417D01*
X199956442Y-67559000D02*
X198074272Y-67559000D01*
X193009136Y-44257121D02*
X191099265Y-42347250D01*
X191099265Y-42347250D02*
X187170120Y-42347250D01*
X195458000Y-64942728D02*
X195458000Y-59137318D01*
X193925000Y-45856727D02*
X193925000Y-45150000D01*
%TO.N,/47*%
X203200000Y-68369000D02*
X203200000Y-68298600D01*
X200522759Y-68059000D02*
X200268759Y-68313000D01*
X191175085Y-44173130D02*
X190342960Y-44173130D01*
X225525000Y-51371590D02*
X221503410Y-51371590D01*
X201877240Y-68059000D02*
X200522759Y-68059000D01*
X195426900Y-58102100D02*
X195426900Y-55288989D01*
X194704000Y-47702045D02*
X191175085Y-44173130D01*
X202314241Y-68496000D02*
X201877240Y-68059000D01*
X225525000Y-51371590D02*
X225489410Y-51336000D01*
X221503410Y-51371590D02*
X220725000Y-52150000D01*
X195426900Y-55288989D02*
X194704000Y-54566089D01*
X197761954Y-68313000D02*
X194704000Y-65255046D01*
X203002600Y-68496000D02*
X202314241Y-68496000D01*
X194704000Y-65255046D02*
X194704000Y-58825000D01*
X200268759Y-68313000D02*
X197761954Y-68313000D01*
X194704000Y-54566089D02*
X194704000Y-47702045D01*
X194704000Y-58825000D02*
X195426900Y-58102100D01*
X203200000Y-68298600D02*
X203002600Y-68496000D01*
%TO.N,/48*%
X193950000Y-65567364D02*
X193950000Y-58461453D01*
X204200000Y-68955000D02*
X203905000Y-69250000D01*
X225525000Y-52171590D02*
X225479000Y-52217590D01*
X197449636Y-69067000D02*
X193950000Y-65567364D01*
X222503410Y-52171590D02*
X221300000Y-53375000D01*
X200835077Y-68813000D02*
X200581077Y-69067000D01*
X203905000Y-69250000D02*
X202001923Y-69250000D01*
X202001923Y-69250000D02*
X201564923Y-68813000D01*
X225479000Y-52217590D02*
X225212682Y-52217590D01*
X200581077Y-69067000D02*
X197449636Y-69067000D01*
X194672900Y-55601307D02*
X193950000Y-54878407D01*
X201564923Y-68813000D02*
X200835077Y-68813000D01*
X193950000Y-54878407D02*
X193950000Y-49530230D01*
X225212682Y-52217590D02*
X225166682Y-52263590D01*
X225525000Y-52171590D02*
X222503410Y-52171590D01*
X194672900Y-57738552D02*
X194672900Y-55601307D01*
X193950000Y-49530230D02*
X192093020Y-47673250D01*
X193950000Y-58461453D02*
X194672900Y-57738552D01*
%TO.N,/49*%
X201073000Y-69821000D02*
X197137318Y-69821000D01*
X225479000Y-53017590D02*
X225525000Y-52971590D01*
X221575000Y-54918637D02*
X223476047Y-53017590D01*
X221575000Y-56600000D02*
X221575000Y-54918637D01*
X192800000Y-52878570D02*
X192093020Y-52171590D01*
X197137318Y-69821000D02*
X192922840Y-65606522D01*
X192922840Y-58422295D02*
X193918900Y-57426235D01*
X193918900Y-57426235D02*
X193918900Y-55913625D01*
X201200000Y-69694000D02*
X201073000Y-69821000D01*
X192800000Y-54844050D02*
X192800000Y-52878570D01*
X192849325Y-54844050D02*
X192800000Y-54844050D01*
X223476047Y-53017590D02*
X225479000Y-53017590D01*
X192922840Y-65606522D02*
X192922840Y-58422295D01*
X193918900Y-55913625D02*
X192849325Y-54844050D01*
%TO.N,/50*%
X223788364Y-53771590D02*
X225525000Y-53771590D01*
X222640000Y-55186398D02*
X222767000Y-55059398D01*
X192200000Y-65950000D02*
X192168840Y-65981160D01*
X203225000Y-70590000D02*
X203210000Y-70575000D01*
X196825000Y-70575000D02*
X192200000Y-65950000D01*
X192168840Y-56745750D02*
X192093020Y-56669930D01*
X203210000Y-70575000D02*
X196825000Y-70575000D01*
X192168840Y-65981160D02*
X192168840Y-56745750D01*
X222767000Y-54792955D02*
X223788364Y-53771590D01*
X222767000Y-55059398D02*
X222767000Y-54792955D01*
%TO.N,/DP1*%
D23*
X233675000Y-69850000D02*
X233701200Y-69823800D01*
X118309400Y-70509400D02*
X127970200Y-70509400D01*
X117705000Y-61170810D02*
X117705000Y-69905000D01*
X129099310Y-66900000D02*
X138625000Y-66900000D01*
X233701200Y-69823800D02*
X233701200Y-58671590D01*
X127970200Y-70509400D02*
X127970200Y-68029110D01*
X117705000Y-69905000D02*
X118309400Y-70509400D01*
X127970200Y-68029110D02*
X129099310Y-66900000D01*
%TO.N,/DP4*%
X236025000Y-58671590D02*
X236025000Y-68325000D01*
%TO.N,Net-(U1-D)*%
X240800000Y-65625000D02*
X238525000Y-63350000D01*
X238525000Y-63350000D02*
X238525000Y-56171590D01*
%TO.N,/CLK*%
X45725000Y-35902868D02*
X47800468Y-33827400D01*
X205150258Y-33472600D02*
X231400258Y-33472600D01*
X91694942Y-32202400D02*
X146725258Y-32202400D01*
X148250258Y-30677400D02*
X155399742Y-30677400D01*
X203880058Y-32202400D02*
X205150258Y-33472600D01*
X63422600Y-51300258D02*
X63422600Y-49545000D01*
X239701200Y-47976200D02*
X240325000Y-48600000D01*
X66174742Y-33825000D02*
X90072342Y-33825000D01*
X63422600Y-49545000D02*
X50000000Y-49545000D01*
X64400258Y-33827400D02*
X64775258Y-33452400D01*
X231400258Y-33472600D02*
X239701200Y-41773542D01*
X50000000Y-49545000D02*
X48211000Y-49545000D01*
X240278410Y-51371590D02*
X238525000Y-51371590D01*
X64775258Y-33452400D02*
X65802142Y-33452400D01*
X146725258Y-32202400D02*
X148250258Y-30677400D01*
X156924742Y-32202400D02*
X203880058Y-32202400D01*
X239150000Y-66575000D02*
X240800000Y-66575000D01*
X155399742Y-30677400D02*
X156924742Y-32202400D01*
X63825000Y-52550000D02*
X63825000Y-51702658D01*
X63825000Y-51702658D02*
X63422600Y-51300258D01*
X65525000Y-52647790D02*
X63922790Y-52647790D01*
X46175000Y-50675000D02*
X45693700Y-50193700D01*
X239701200Y-41773542D02*
X239701200Y-47976200D01*
X48211000Y-49545000D02*
X48106000Y-49650000D01*
X45693700Y-44081300D02*
X45725000Y-44050000D01*
X239100000Y-66525000D02*
X239150000Y-66575000D01*
X45725000Y-44050000D02*
X45725000Y-35902868D01*
X90072342Y-33825000D02*
X91694942Y-32202400D01*
X47800468Y-33827400D02*
X64400258Y-33827400D01*
X45693700Y-50193700D02*
X45693700Y-44081300D01*
X63922790Y-52647790D02*
X63825000Y-52550000D01*
X50226906Y-49671590D02*
X50075000Y-49671590D01*
X65525000Y-52971590D02*
X65525000Y-52647790D01*
X65802142Y-33452400D02*
X66174742Y-33825000D01*
X240325000Y-51325000D02*
X240278410Y-51371590D01*
%TO.N,/SRB*%
X91945458Y-32807200D02*
X146975774Y-32807200D01*
X215872034Y-34124692D02*
X215872034Y-34677916D01*
X52860000Y-47325000D02*
X50000000Y-44465000D01*
X65600000Y-47325000D02*
X67750000Y-47325000D01*
X204899742Y-34077400D02*
X215824742Y-34077400D01*
X65920200Y-34429800D02*
X90322858Y-34429800D01*
X65600000Y-47325000D02*
X52860000Y-47325000D01*
X156674226Y-32807200D02*
X203629542Y-32807200D01*
X67750000Y-54248990D02*
X66627400Y-55371590D01*
X90322858Y-34429800D02*
X91945458Y-32807200D01*
X216248116Y-34301834D02*
X223075000Y-34301834D01*
X67750000Y-47325000D02*
X67750000Y-54248990D01*
X146975774Y-32807200D02*
X148500774Y-31282200D01*
X215824742Y-34077400D02*
X215872034Y-34124692D01*
X50000000Y-44465000D02*
X50075000Y-44465000D01*
X223075000Y-34301834D02*
X223075000Y-36150000D01*
X203629542Y-32807200D02*
X204899742Y-34077400D01*
X65600000Y-47325000D02*
X65600000Y-36975000D01*
X236975000Y-48950000D02*
X236996590Y-48971590D01*
X65600000Y-34750000D02*
X65920200Y-34429800D01*
X50075000Y-44465000D02*
X50125000Y-44515000D01*
X231374176Y-34301834D02*
X236975000Y-39902658D01*
X236996590Y-48971590D02*
X238525000Y-48971590D01*
X215872034Y-34677916D02*
X216248116Y-34301834D01*
X223075000Y-34301834D02*
X231374176Y-34301834D01*
X148500774Y-31282200D02*
X155149226Y-31282200D01*
X236975000Y-39902658D02*
X236975000Y-48950000D01*
X155149226Y-31282200D02*
X156674226Y-32807200D01*
X66627400Y-55371590D02*
X65525000Y-55371590D01*
%TO.N,Net-(U2-Data_Out)*%
X216174434Y-33999434D02*
X231499434Y-33999434D01*
X65521590Y-48175000D02*
X65525000Y-48171590D01*
X65676884Y-33754800D02*
X66049484Y-34127400D01*
X205025000Y-33775000D02*
X215950000Y-33775000D01*
X146850516Y-32504800D02*
X148375516Y-30979800D01*
X52850000Y-47950000D02*
X53075000Y-48175000D01*
X64900516Y-33754800D02*
X65676884Y-33754800D01*
X203754800Y-32504800D02*
X205025000Y-33775000D01*
X148375516Y-30979800D02*
X155274484Y-30979800D01*
X66049484Y-34127400D02*
X90197600Y-34127400D01*
X231499434Y-33999434D02*
X238525000Y-41025000D01*
X156799484Y-32504800D02*
X203754800Y-32504800D01*
X46175000Y-45875000D02*
X46175000Y-35880526D01*
X47925726Y-34129800D02*
X64525516Y-34129800D01*
X91820200Y-32504800D02*
X146850516Y-32504800D01*
X90197600Y-34127400D02*
X91820200Y-32504800D01*
X238525000Y-41025000D02*
X238525000Y-48171590D01*
X46175000Y-35880526D02*
X47925726Y-34129800D01*
X64525516Y-34129800D02*
X64900516Y-33754800D01*
X53075000Y-48175000D02*
X65521590Y-48175000D01*
X215950000Y-33775000D02*
X216174434Y-33999434D01*
X155274484Y-30979800D02*
X156799484Y-32504800D01*
X52225000Y-47950000D02*
X52850000Y-47950000D01*
%TO.N,/41*%
D22*
X200287682Y-55771000D02*
X199950900Y-55771000D01*
X200770100Y-47824100D02*
X200796000Y-47850000D01*
X219561142Y-43663857D02*
X214981774Y-39084490D01*
X201471000Y-49315773D02*
X201471000Y-49925000D01*
X200770100Y-55288582D02*
X200287682Y-55771000D01*
X199950900Y-55771000D02*
X199950900Y-52793582D01*
X180651568Y-60170050D02*
X182347040Y-60170050D01*
X199950900Y-52793582D02*
X199228000Y-52070682D01*
X177263100Y-56781582D02*
X180651568Y-60170050D01*
X201471000Y-49925000D02*
X200770100Y-50625900D01*
X214981774Y-39084490D02*
X205600859Y-39084491D01*
X199228000Y-45828137D02*
X199212000Y-45812138D01*
X199228000Y-52070682D02*
X199228000Y-45828137D01*
X228825000Y-45671590D02*
X228825000Y-44767590D01*
X205600859Y-39084491D02*
X200770100Y-43915251D01*
X200796000Y-48640772D02*
X201471000Y-49315773D01*
X192437075Y-38330490D02*
X182408541Y-38330491D01*
X227721267Y-43663857D02*
X219561142Y-43663857D01*
X200796000Y-47850000D02*
X200796000Y-48640772D01*
X200770100Y-43915251D02*
X200770100Y-47824100D01*
X228825000Y-44767590D02*
X227721267Y-43663857D01*
X199211998Y-45105412D02*
X192437075Y-38330490D01*
X199212000Y-45812138D02*
X199211998Y-45105412D01*
X200770100Y-50625900D02*
X200770100Y-55288582D01*
X182408541Y-38330491D02*
X177263100Y-43475933D01*
X177263100Y-43475933D02*
X177263100Y-56781582D01*
%TO.N,/42*%
X198458000Y-46124455D02*
X198474000Y-46140455D01*
X178017100Y-43788250D02*
X182720859Y-39084490D01*
X214669457Y-39838490D02*
X220502558Y-45671590D01*
X199196900Y-56525000D02*
X200600000Y-56525000D01*
X220502558Y-45671590D02*
X228025000Y-45671590D01*
X205913177Y-39838490D02*
X214669457Y-39838490D01*
X178017100Y-54090050D02*
X178017100Y-43788250D01*
X202225000Y-49003455D02*
X201550000Y-48328455D01*
X199196900Y-53105900D02*
X199196900Y-56525000D01*
X201550000Y-48328455D02*
X201550000Y-46812587D01*
X192124758Y-39084490D02*
X198457999Y-45417730D01*
X201524100Y-46786688D02*
X201524100Y-44227568D01*
X200600000Y-56525000D02*
X201550000Y-55575000D01*
X198474000Y-52383000D02*
X199196900Y-53105900D01*
X198457999Y-45417730D02*
X198458000Y-46124455D01*
X201550000Y-50925000D02*
X202225000Y-50250000D01*
X182720859Y-39084490D02*
X192124758Y-39084490D01*
X201550000Y-46812587D02*
X201524100Y-46786688D01*
X180596980Y-56669930D02*
X178017100Y-54090050D01*
X201524100Y-44227568D02*
X205913177Y-39838490D01*
X201550000Y-55575000D02*
X201550000Y-50925000D01*
X198474000Y-46140455D02*
X198474000Y-52383000D01*
X202225000Y-50250000D02*
X202225000Y-49003455D01*
%TO.N,Net-(J1-Pin_11)*%
D23*
X152575000Y-117402342D02*
X152575000Y-115140000D01*
X152575000Y-115140000D02*
X151800000Y-114365000D01*
X149950000Y-114365000D02*
X149950000Y-118725000D01*
X158160000Y-131050000D02*
X155922400Y-128812400D01*
X151800000Y-114365000D02*
X149950000Y-114365000D01*
X155922400Y-128812400D02*
X155922400Y-120749742D01*
X155922400Y-120749742D02*
X152575000Y-117402342D01*
X149950000Y-118725000D02*
X151150000Y-119925000D01*
%TO.N,Net-(N5-PadA)*%
X190135000Y-35675000D02*
X188182709Y-37627291D01*
X174925000Y-44819557D02*
X174925000Y-58200000D01*
X182117266Y-37627291D02*
X174925000Y-44819557D01*
X188182709Y-37627291D02*
X182117266Y-37627291D01*
%TO.N,Net-(J1-Pin_12)*%
X156224800Y-120562142D02*
X156224800Y-126574800D01*
X151925258Y-114062600D02*
X152877400Y-115014742D01*
X149800000Y-123515000D02*
X149650000Y-123365000D01*
X152877400Y-115014742D02*
X152877400Y-117214742D01*
X149647600Y-114239742D02*
X149824742Y-114062600D01*
X149650000Y-118852658D02*
X149647600Y-118850258D01*
X149647600Y-118850258D02*
X149647600Y-114239742D01*
X152877400Y-117214742D02*
X156224800Y-120562142D01*
X149650000Y-123365000D02*
X149650000Y-118852658D01*
X151150000Y-123515000D02*
X149800000Y-123515000D01*
X149824742Y-114062600D02*
X151925258Y-114062600D01*
X156224800Y-126574800D02*
X160700000Y-131050000D01*
%TO.N,/10*%
D22*
X76025000Y-60100000D02*
X78125000Y-62200000D01*
X100933150Y-62541850D02*
X100933150Y-57030060D01*
X76025000Y-58671590D02*
X76025000Y-60100000D01*
X100450000Y-63025000D02*
X100933150Y-62541850D01*
X100933150Y-57030060D02*
X100573020Y-56669930D01*
%TO.N,/1*%
X70425000Y-67300000D02*
X88850000Y-67300000D01*
X88850000Y-67300000D02*
X90827040Y-65322960D01*
X68825000Y-65700000D02*
X70425000Y-67300000D01*
X90827040Y-65322960D02*
X90827040Y-60170050D01*
X68825000Y-58671590D02*
X68825000Y-65700000D01*
%TO.N,/2*%
X87878100Y-60580060D02*
X87878100Y-57868810D01*
X69625000Y-65004000D02*
X69579000Y-65050000D01*
X69625000Y-58671590D02*
X69625000Y-65004000D01*
X71075000Y-66546000D02*
X88537682Y-66546000D01*
X88537682Y-66546000D02*
X90073040Y-65010642D01*
X69579000Y-65050000D02*
X71075000Y-66546000D01*
X90073040Y-65010642D02*
X90073040Y-62775000D01*
X87878100Y-57868810D02*
X89076980Y-56669930D01*
X90073040Y-62775000D02*
X87878100Y-60580060D01*
%TO.N,/3*%
X89319040Y-63250000D02*
X87124100Y-61055060D01*
X89319040Y-64698324D02*
X89319040Y-63250000D01*
X70425000Y-58671590D02*
X70425000Y-64829682D01*
X87124100Y-54124470D02*
X89076980Y-52171590D01*
X70425000Y-64829682D02*
X71387318Y-65792000D01*
X71387318Y-65792000D02*
X88225364Y-65792000D01*
X87124100Y-61055060D02*
X87124100Y-54124470D01*
X88225364Y-65792000D02*
X89319040Y-64698324D01*
%TO.N,/4*%
X88565040Y-63562318D02*
X86370100Y-61367377D01*
X71200000Y-60538000D02*
X71200000Y-64538364D01*
X71225000Y-58671590D02*
X71225000Y-60513000D01*
X71699636Y-65038000D02*
X87913046Y-65038000D01*
X86370100Y-61367377D02*
X86370100Y-50380130D01*
X86370100Y-50380130D02*
X89076980Y-47673250D01*
X88565040Y-64386006D02*
X88565040Y-63562318D01*
X87913046Y-65038000D02*
X88565040Y-64386006D01*
X71200000Y-64538364D02*
X71699636Y-65038000D01*
X71225000Y-60513000D02*
X71200000Y-60538000D01*
%TO.N,/5*%
X87600728Y-64284000D02*
X87811040Y-64073688D01*
X87811040Y-64073688D02*
X85616100Y-61878748D01*
X89994915Y-44173130D02*
X90827040Y-44173130D01*
X85616100Y-48551945D02*
X89994915Y-44173130D01*
X72011954Y-64284000D02*
X87600728Y-64284000D01*
X72025000Y-58671590D02*
X72025000Y-64270954D01*
X72025000Y-64270954D02*
X72011954Y-64284000D01*
X85616100Y-61878748D02*
X85616100Y-48551945D01*
%TO.N,/6*%
X72825000Y-58671590D02*
X72825000Y-63505000D01*
X72825000Y-63505000D02*
X72850000Y-63530000D01*
X84862100Y-62191065D02*
X84862100Y-47555885D01*
X84862100Y-47555885D02*
X90444495Y-41973490D01*
X90444495Y-41973490D02*
X93626120Y-41973490D01*
X86201034Y-63530000D02*
X84862100Y-62191065D01*
X93626120Y-41973490D02*
X94825000Y-43172370D01*
X72850000Y-63530000D02*
X86201034Y-63530000D01*
%TO.N,/7*%
X103379000Y-52844933D02*
X103379000Y-49412912D01*
X73625000Y-58671590D02*
X73625000Y-61900000D01*
X105600000Y-56575000D02*
X104683000Y-55658000D01*
X73625000Y-61900000D02*
X73900000Y-62175000D01*
X103155204Y-47673249D02*
X99655085Y-44173130D01*
X102397271Y-48431183D02*
X103155204Y-47673249D01*
X104683000Y-55658000D02*
X104683000Y-54148934D01*
X104683000Y-54148934D02*
X103379000Y-52844933D01*
X99655085Y-44173130D02*
X98822960Y-44173130D01*
X103379000Y-49412912D02*
X102397271Y-48431183D01*
%TO.N,/8*%
X74400000Y-61125000D02*
X75400000Y-62125000D01*
X74425000Y-58671590D02*
X74425000Y-58875000D01*
X102625000Y-49725230D02*
X100573020Y-47673250D01*
X102625000Y-53157252D02*
X102625000Y-49725230D01*
X104325000Y-57725000D02*
X103929000Y-57329000D01*
X74400000Y-58900000D02*
X74400000Y-61125000D01*
X74425000Y-58875000D02*
X74400000Y-58900000D01*
X103929000Y-57329000D02*
X103929000Y-54461252D01*
X103929000Y-54461252D02*
X102625000Y-53157252D01*
%TO.N,/9*%
X76695923Y-62175000D02*
X76800000Y-62175000D01*
X75225000Y-60704077D02*
X76695923Y-62175000D01*
X103175000Y-54773570D02*
X100573020Y-52171590D01*
X103175000Y-61475000D02*
X103175000Y-54773570D01*
X75225000Y-58671590D02*
X75225000Y-60704077D01*
%TO.N,Net-(N1-PadA)*%
D23*
X106325000Y-53625000D02*
X106350000Y-53650000D01*
X106325000Y-34400000D02*
X106325000Y-36568490D01*
X106325000Y-34400000D02*
X98615000Y-34400000D01*
X106325000Y-42275000D02*
X106325000Y-53625000D01*
X98615000Y-34400000D02*
X98615000Y-35675000D01*
%TO.N,Net-(J1-Pin_1)*%
X135800000Y-118255000D02*
X135800000Y-125895000D01*
X137650000Y-116405000D02*
X135800000Y-118255000D01*
X132760000Y-128935000D02*
X135800000Y-125895000D01*
X132760000Y-131050000D02*
X132760000Y-128935000D01*
%TO.N,Net-(D3-RK)*%
X138085000Y-53771590D02*
X138425000Y-54111590D01*
X144706800Y-68626800D02*
X144706800Y-67136800D01*
X138200000Y-61067433D02*
X138362120Y-60905313D01*
X144706800Y-67136800D02*
X140186800Y-67136800D01*
X138362120Y-56112880D02*
X138085000Y-55835760D01*
X138200000Y-65150000D02*
X138200000Y-61067433D01*
X138362120Y-60905313D02*
X138362120Y-56112880D01*
X140186800Y-67136800D02*
X138200000Y-65150000D01*
X138085000Y-55835760D02*
X138085000Y-53771590D01*
X145805000Y-69725000D02*
X144706800Y-68626800D01*
%TO.N,Net-(D3-GK)*%
X148345000Y-69725000D02*
X146944400Y-68324400D01*
X138502400Y-65024742D02*
X138502400Y-61192691D01*
X138664520Y-54633270D02*
X138800000Y-54497790D01*
X138550000Y-53045390D02*
X138550000Y-51036590D01*
X139288829Y-65811171D02*
X138502400Y-65024742D01*
X146944400Y-66834400D02*
X140312058Y-66834400D01*
X138800000Y-54497790D02*
X139111200Y-54497790D01*
X138502400Y-61192691D02*
X138664520Y-61030571D01*
X138550000Y-51036590D02*
X138085000Y-50571590D01*
X140312058Y-66834400D02*
X139288829Y-65811171D01*
X146944400Y-68324400D02*
X146944400Y-66834400D01*
X139111200Y-53045390D02*
X138550000Y-53045390D01*
X139111200Y-54497790D02*
X139111200Y-53045390D01*
X138664520Y-61030571D02*
X138664520Y-54633270D01*
%TO.N,Net-(D3-BK)*%
X138966920Y-59184271D02*
X138975000Y-59176191D01*
X138975000Y-59176191D02*
X138975000Y-54800190D01*
X139413600Y-52920132D02*
X139236458Y-52742990D01*
X138804800Y-64899484D02*
X138804800Y-61317949D01*
X138975000Y-54800190D02*
X139236458Y-54800190D01*
X141806590Y-51850000D02*
X143085000Y-50571590D01*
X140437316Y-66532000D02*
X138804800Y-64899484D01*
X139236458Y-54800190D02*
X139413600Y-54623048D01*
X149182000Y-68022000D02*
X149182000Y-66532000D01*
X139413600Y-54623048D02*
X139413600Y-52920132D01*
X138852400Y-51850000D02*
X141806590Y-51850000D01*
X138852400Y-52742990D02*
X138852400Y-51850000D01*
X150885000Y-69725000D02*
X149182000Y-68022000D01*
X149182000Y-66532000D02*
X140437316Y-66532000D01*
X138966920Y-61155829D02*
X138966920Y-59184271D01*
X138804800Y-61317949D02*
X138966920Y-61155829D01*
X139236458Y-52742990D02*
X138852400Y-52742990D01*
%TO.N,/11*%
D22*
X79650000Y-57296590D02*
X79650000Y-61850000D01*
X78525000Y-56171590D02*
X79650000Y-57296590D01*
X101017000Y-67675000D02*
X108694951Y-67675000D01*
X108694951Y-67675000D02*
X113707040Y-62662911D01*
X100890000Y-67548000D02*
X101017000Y-67675000D01*
X113707040Y-62662911D02*
X113707040Y-60170050D01*
X79650000Y-61850000D02*
X79900000Y-62100000D01*
%TO.N,/12*%
X80425000Y-61000000D02*
X81550000Y-62125000D01*
X100890000Y-66525000D02*
X108778634Y-66525000D01*
X79429000Y-55371590D02*
X80425000Y-56367590D01*
X111881160Y-63422474D02*
X111881160Y-56745750D01*
X80425000Y-56367590D02*
X80425000Y-61000000D01*
X108778634Y-66525000D02*
X111881160Y-63422474D01*
X111881160Y-56745750D02*
X111956980Y-56669930D01*
X78525000Y-55371590D02*
X79429000Y-55371590D01*
%TO.N,/13*%
X100890000Y-65375000D02*
X108862317Y-65375000D01*
X79729000Y-54571590D02*
X81700000Y-56542590D01*
X81700000Y-60725000D02*
X83075000Y-62100000D01*
X110131100Y-64106217D02*
X110131100Y-53997470D01*
X78525000Y-54571590D02*
X79729000Y-54571590D01*
X83075000Y-62100000D02*
X83075000Y-62125000D01*
X108862317Y-65375000D02*
X110131100Y-64106217D01*
X110131100Y-53997470D02*
X111956980Y-52171590D01*
X81700000Y-56542590D02*
X81700000Y-60725000D01*
%TO.N,/14*%
X101060997Y-64196000D02*
X108975000Y-64196000D01*
X108975000Y-64196000D02*
X109071000Y-64100000D01*
X109071000Y-64100000D02*
X109071000Y-50559230D01*
X100890000Y-64366997D02*
X101060997Y-64196000D01*
X78525000Y-53771590D02*
X79995317Y-53771590D01*
X83450000Y-57226273D02*
X83450000Y-60500000D01*
X79995317Y-53771590D02*
X83450000Y-57226273D01*
X109071000Y-50559230D02*
X111956980Y-47673250D01*
%TO.N,/15*%
X112887500Y-44162500D02*
X112876870Y-44173130D01*
X84108100Y-52975000D02*
X84108100Y-47243567D01*
X109944490Y-41219490D02*
X112887500Y-44162500D01*
X84108100Y-47243567D02*
X90132178Y-41219490D01*
X84104690Y-52971590D02*
X84108100Y-52975000D01*
X78525000Y-52971590D02*
X84104690Y-52971590D01*
X112876870Y-44173130D02*
X113707040Y-44173130D01*
X90132178Y-41219490D02*
X109944490Y-41219490D01*
%TO.N,/16*%
X114998120Y-40465490D02*
X117705000Y-43172370D01*
X89819861Y-40465490D02*
X114998120Y-40465490D01*
X83354101Y-46931249D02*
X89819861Y-40465490D01*
X83354100Y-52217590D02*
X83354101Y-46931249D01*
X83308100Y-52171590D02*
X83354100Y-52217590D01*
X78525000Y-52171590D02*
X83308100Y-52171590D01*
%TO.N,/17*%
X117241320Y-39711490D02*
X121702960Y-44173130D01*
X82554100Y-51371590D02*
X82600100Y-51417590D01*
X89507544Y-39711490D02*
X117241320Y-39711490D01*
X82600102Y-46618931D02*
X89507544Y-39711490D01*
X82600100Y-51417590D02*
X82600102Y-46618931D01*
X78525000Y-51371590D02*
X82554100Y-51371590D01*
%TO.N,/18*%
X81846103Y-46306613D02*
X89195227Y-38957490D01*
X78525000Y-50571590D02*
X78571000Y-50617590D01*
X123528840Y-43416825D02*
X123528840Y-47597430D01*
X119069505Y-38957490D02*
X123528840Y-43416825D01*
X89195227Y-38957490D02*
X119069505Y-38957490D01*
X81846100Y-50617590D02*
X81846103Y-46306613D01*
X78571000Y-50617590D02*
X81846100Y-50617590D01*
X123528840Y-47597430D02*
X123453020Y-47673250D01*
%TO.N,/19*%
X88882910Y-38203490D02*
X119381823Y-38203490D01*
X125278900Y-50345710D02*
X123453020Y-52171590D01*
X78525000Y-49771590D02*
X81088691Y-49771590D01*
X81092101Y-49775000D02*
X81092104Y-45994295D01*
X125278900Y-44100567D02*
X125278900Y-50345710D01*
X81092104Y-45994295D02*
X88882910Y-38203490D01*
X119381823Y-38203490D02*
X125278900Y-44100567D01*
X81088691Y-49771590D02*
X81092101Y-49775000D01*
%TO.N,/20*%
X124675000Y-65807000D02*
X124656000Y-65788000D01*
X78525000Y-48971590D02*
X77321000Y-48971590D01*
X124656000Y-65788000D02*
X124656000Y-57872910D01*
X124675000Y-66219000D02*
X124675000Y-65807000D01*
X124656000Y-57872910D02*
X123453020Y-56669930D01*
X76075000Y-50217590D02*
X76075000Y-51425000D01*
X77321000Y-48971590D02*
X76075000Y-50217590D01*
%TO.N,/DIN*%
D23*
X56640000Y-58725000D02*
X65550000Y-58725000D01*
X50125000Y-52210000D02*
X56640000Y-58725000D01*
X50125000Y-52135000D02*
X50125000Y-52210000D01*
X65525000Y-58700000D02*
X65525000Y-56171590D01*
X65550000Y-58725000D02*
X65525000Y-58700000D01*
%TO.N,Net-(J1-Pin_17)*%
X166713829Y-127311171D02*
X169661171Y-127311171D01*
X164809600Y-125406942D02*
X166713829Y-127311171D01*
X163940000Y-119995000D02*
X162209600Y-121725400D01*
X169661171Y-127311171D02*
X173400000Y-131050000D01*
X162209600Y-121725400D02*
X162209600Y-125406942D01*
X162209600Y-125406942D02*
X164809600Y-125406942D01*
%TO.N,Net-(J1-Pin_7)*%
X147575000Y-130625000D02*
X147575000Y-126932716D01*
X147782200Y-107452800D02*
X151150000Y-104085000D01*
X148000000Y-131050000D02*
X147575000Y-130625000D01*
X147782200Y-126725516D02*
X147782200Y-107452800D01*
X147575000Y-126932716D02*
X147782200Y-126725516D01*
%TO.N,Net-(J1-Pin_10)*%
X155620000Y-131050000D02*
X155620000Y-120875000D01*
X155620000Y-120875000D02*
X151150000Y-116405000D01*
%TO.N,Net-(D7-RK)*%
X203568881Y-71420200D02*
X202881119Y-71420200D01*
X207002120Y-60905313D02*
X207000000Y-60907433D01*
X202881119Y-71420200D02*
X202739119Y-71278200D01*
X207000000Y-61900516D02*
X207747600Y-62648116D01*
X207000000Y-60907433D02*
X207000000Y-61900516D01*
X175550000Y-71278200D02*
X175546800Y-71275000D01*
X170215000Y-71275000D02*
X168665000Y-69725000D01*
X175546800Y-71275000D02*
X170215000Y-71275000D01*
X207747600Y-62648116D02*
X207747600Y-71392800D01*
X192425123Y-71013900D02*
X192160823Y-71278200D01*
X207000000Y-54046590D02*
X207000000Y-59432667D01*
X207747600Y-71392800D02*
X207629800Y-71275000D01*
X193589177Y-71278200D02*
X193324877Y-71013900D01*
X203714081Y-71275000D02*
X203568881Y-71420200D01*
X207629800Y-71275000D02*
X203714081Y-71275000D01*
X192160823Y-71278200D02*
X175550000Y-71278200D01*
X207002120Y-59434787D02*
X207002120Y-60905313D01*
X193324877Y-71013900D02*
X192425123Y-71013900D01*
X202739119Y-71278200D02*
X193589177Y-71278200D01*
X207000000Y-59432667D02*
X207002120Y-59434787D01*
X206725000Y-53771590D02*
X207000000Y-54046590D01*
%TO.N,Net-(D7-GK)*%
X207302400Y-61032691D02*
X207304520Y-61030571D01*
X208050000Y-71518058D02*
X207872858Y-71695200D01*
X208899248Y-53204162D02*
X208899248Y-55498094D01*
X202755861Y-71722600D02*
X202613861Y-71580600D01*
X193199619Y-71316300D02*
X192550381Y-71316300D01*
X203839339Y-71577400D02*
X203694139Y-71722600D01*
X192286081Y-71580600D02*
X168998623Y-71580600D01*
X208172600Y-59780184D02*
X207304520Y-60648264D01*
X207622342Y-71695200D02*
X207504542Y-71577400D01*
X203694139Y-71722600D02*
X202755861Y-71722600D01*
X207872858Y-71695200D02*
X207622342Y-71695200D01*
X202613861Y-71580600D02*
X193463919Y-71580600D01*
X167588800Y-70170777D02*
X167588800Y-69279223D01*
X206725000Y-50571590D02*
X209128410Y-52975000D01*
X168219223Y-68648800D02*
X170128800Y-68648800D01*
X207302400Y-61775258D02*
X207302400Y-61032691D01*
X208050000Y-71400000D02*
X208050000Y-71518058D01*
X167588800Y-69279223D02*
X168219223Y-68648800D01*
X207504542Y-71577400D02*
X203839339Y-71577400D01*
X193463919Y-71580600D02*
X193199619Y-71316300D01*
X170128800Y-68648800D02*
X171205000Y-69725000D01*
X209128410Y-52975000D02*
X208899248Y-53204162D01*
X192550381Y-71316300D02*
X192286081Y-71580600D01*
X208050000Y-62522858D02*
X207302400Y-61775258D01*
X168998623Y-71580600D02*
X167588800Y-70170777D01*
X207304520Y-60648264D02*
X207304520Y-61030571D01*
X208172600Y-56224742D02*
X208172600Y-59780184D01*
X208172600Y-71400000D02*
X208050000Y-71400000D01*
X208172600Y-62561436D02*
X208172600Y-71400000D01*
X208899248Y-55498094D02*
X208172600Y-56224742D01*
%TO.N,Net-(D7-BK)*%
X209201648Y-53475000D02*
X209201648Y-55623352D01*
X203819397Y-72025000D02*
X202630603Y-72025000D01*
X208475000Y-56350000D02*
X208475000Y-59905442D01*
X193338661Y-71883000D02*
X193074361Y-71618700D01*
X207379284Y-71879800D02*
X203964597Y-71879800D01*
X208475000Y-62436178D02*
X208475000Y-72000000D01*
X167286400Y-70296035D02*
X167286400Y-69153965D01*
X203964597Y-71879800D02*
X203819397Y-72025000D01*
X202488603Y-71883000D02*
X193338661Y-71883000D01*
X209201648Y-55623352D02*
X208475000Y-56350000D01*
X168873365Y-71883000D02*
X167286400Y-70296035D01*
X193074361Y-71618700D02*
X192675639Y-71618700D01*
X207497084Y-71997600D02*
X207379284Y-71879800D01*
X211725000Y-50951648D02*
X209201648Y-53475000D01*
X207799920Y-60580522D02*
X207799920Y-61761098D01*
X172366400Y-68346400D02*
X173745000Y-69725000D01*
X192675639Y-71618700D02*
X192411339Y-71883000D01*
X208475000Y-72000000D02*
X208235358Y-71760358D01*
X211725000Y-50571590D02*
X211725000Y-50951648D01*
X207799920Y-61761098D02*
X208475000Y-62436178D01*
X167286400Y-69153965D02*
X168093965Y-68346400D01*
X168093965Y-68346400D02*
X172366400Y-68346400D01*
X192411339Y-71883000D02*
X168873365Y-71883000D01*
X208475000Y-59905442D02*
X207799920Y-60580522D01*
X207998116Y-71997600D02*
X207497084Y-71997600D01*
X202630603Y-72025000D02*
X202488603Y-71883000D01*
X208235358Y-71760358D02*
X207998116Y-71997600D01*
%TO.N,Net-(J1-Pin_9)*%
X151150000Y-111195000D02*
X148387000Y-113958000D01*
X148387000Y-113958000D02*
X148387000Y-126357000D01*
X148387000Y-126357000D02*
X153080000Y-131050000D01*
%TO.N,Net-(D2-RK)*%
X138185000Y-69725000D02*
X136504000Y-68044000D01*
X115482120Y-54048710D02*
X115205000Y-53771590D01*
X136504000Y-68044000D02*
X129238284Y-68044000D01*
X128884000Y-71324742D02*
X128792142Y-71416600D01*
X128792142Y-71416600D02*
X115482120Y-71416600D01*
X128884000Y-68398284D02*
X128884000Y-71324742D01*
X129238284Y-68044000D02*
X128884000Y-68398284D01*
X115482120Y-71416600D02*
X115482120Y-54048710D01*
%TO.N,Net-(D2-GK)*%
X115784520Y-54497790D02*
X116231200Y-54497790D01*
X116231200Y-53045390D02*
X115250000Y-53045390D01*
X115250000Y-50616590D02*
X115205000Y-50571590D01*
X115250000Y-53045390D02*
X115250000Y-50616590D01*
X115784520Y-71114200D02*
X115784520Y-54497790D01*
X140725000Y-69725000D02*
X138741600Y-67741600D01*
X128575000Y-68279626D02*
X128575000Y-71114200D01*
X128575000Y-71114200D02*
X115784520Y-71114200D01*
X138741600Y-67741600D02*
X129113026Y-67741600D01*
X129113026Y-67741600D02*
X128575000Y-68279626D01*
X116231200Y-54497790D02*
X116231200Y-53045390D01*
%TO.N,Net-(D2-BK)*%
X116086920Y-70811800D02*
X116086920Y-54800190D01*
X128272600Y-68154368D02*
X128272600Y-70811800D01*
X140979200Y-67439200D02*
X128987768Y-67439200D01*
X116356458Y-54800190D02*
X116533600Y-54623048D01*
X128987768Y-67439200D02*
X128272600Y-68154368D01*
X128272600Y-70811800D02*
X116086920Y-70811800D01*
X116086920Y-54800190D02*
X116356458Y-54800190D01*
X118978410Y-50571590D02*
X120205000Y-50571590D01*
X116533600Y-53016400D02*
X118978410Y-50571590D01*
X143265000Y-69725000D02*
X140979200Y-67439200D01*
X116533600Y-54623048D02*
X116533600Y-53016400D01*
%TO.N,Net-(J1-Pin_15)*%
X163577658Y-129100000D02*
X166370000Y-129100000D01*
X166370000Y-129100000D02*
X168320000Y-131050000D01*
X161604800Y-127127142D02*
X163577658Y-129100000D01*
X161604800Y-113530200D02*
X161604800Y-127127142D01*
X163940000Y-111195000D02*
X161604800Y-113530200D01*
%TO.N,Net-(J1-Pin_3)*%
X135602400Y-128812400D02*
X135602400Y-126947916D01*
X135602400Y-126947916D02*
X136404800Y-126145516D01*
X136404800Y-126145516D02*
X136404800Y-124760200D01*
X137840000Y-131050000D02*
X135602400Y-128812400D01*
X136404800Y-124760200D02*
X137650000Y-123515000D01*
%TO.N,Net-(D1-RK)*%
X93574484Y-71804800D02*
X93599484Y-71829800D01*
X92602120Y-54048710D02*
X92602120Y-71180978D01*
X92325000Y-53771590D02*
X92602120Y-54048710D01*
X93599484Y-71829800D02*
X94100516Y-71829800D01*
X100730010Y-71804800D02*
X101249010Y-72323800D01*
X101249010Y-72323800D02*
X108745539Y-72323800D01*
X108745539Y-72323800D02*
X108750639Y-72318700D01*
X129456200Y-72323800D02*
X130565000Y-71215000D01*
X93225942Y-71804800D02*
X93574484Y-71804800D01*
X108750639Y-72318700D02*
X109149361Y-72318700D01*
X130565000Y-71215000D02*
X130565000Y-69725000D01*
X109149361Y-72318700D02*
X109154461Y-72323800D01*
X109154461Y-72323800D02*
X129456200Y-72323800D01*
X92602120Y-71180978D02*
X93225942Y-71804800D01*
X94100516Y-71829800D02*
X94125516Y-71804800D01*
X94125516Y-71804800D02*
X100730010Y-71804800D01*
%TO.N,Net-(D1-GK)*%
X93724742Y-71527400D02*
X93975258Y-71527400D01*
X93351200Y-71502400D02*
X93699742Y-71502400D01*
X109100000Y-71875000D02*
X109246400Y-72021400D01*
X93351200Y-52775000D02*
X93351200Y-54497790D01*
X93351200Y-54497790D02*
X92904520Y-54497790D01*
X93975258Y-71527400D02*
X94000258Y-71502400D01*
X92904520Y-71055720D02*
X93351200Y-71502400D01*
X108620281Y-72021400D02*
X108766681Y-71875000D01*
X129488800Y-68648800D02*
X132028800Y-68648800D01*
X93351200Y-51597790D02*
X93351200Y-52923800D01*
X93699742Y-71502400D02*
X93724742Y-71527400D01*
X129330942Y-72021400D02*
X129488800Y-71863542D01*
X100855268Y-71502400D02*
X101374268Y-72021400D01*
X92904520Y-54497790D02*
X92904520Y-71055720D01*
X132028800Y-68648800D02*
X133105000Y-69725000D01*
X92325000Y-50571590D02*
X93351200Y-51597790D01*
X108766681Y-71875000D02*
X109100000Y-71875000D01*
X129488800Y-71863542D02*
X129488800Y-68648800D01*
X109246400Y-72021400D02*
X129330942Y-72021400D01*
X101374268Y-72021400D02*
X108620281Y-72021400D01*
X94000258Y-71502400D02*
X100855268Y-71502400D01*
%TO.N,Net-(D1-BK)*%
X128917400Y-71719000D02*
X129186400Y-71450000D01*
X109404977Y-71719000D02*
X109292989Y-71607011D01*
X109400000Y-71714022D02*
X109400000Y-71719000D01*
X101499525Y-71719000D02*
X100980525Y-71200000D01*
X93825000Y-71200000D02*
X93476458Y-71200000D01*
X93875000Y-71200000D02*
X93850000Y-71225000D01*
X94096400Y-52325000D02*
X94100000Y-52321400D01*
X108789023Y-71425000D02*
X108495023Y-71719000D01*
X109110977Y-71425000D02*
X108789023Y-71425000D01*
X129186400Y-71450000D02*
X129186400Y-68523542D01*
X93206920Y-70930462D02*
X93206920Y-54800190D01*
X95575190Y-52321400D02*
X97325000Y-50571590D01*
X93476458Y-54800190D02*
X93653600Y-54623048D01*
X109292989Y-71607011D02*
X109400000Y-71714022D01*
X108495023Y-71719000D02*
X101499525Y-71719000D01*
X134266400Y-68346400D02*
X135645000Y-69725000D01*
X93206920Y-54800190D02*
X93476458Y-54800190D01*
X109400000Y-71719000D02*
X128917400Y-71719000D01*
X129363542Y-68346400D02*
X134266400Y-68346400D01*
X109292989Y-71607011D02*
X109110977Y-71425000D01*
X93476458Y-71200000D02*
X93206920Y-70930462D01*
X100980525Y-71200000D02*
X93875000Y-71200000D01*
X93850000Y-71225000D02*
X93825000Y-71200000D01*
X94100000Y-52321400D02*
X95575190Y-52321400D01*
X129186400Y-68523542D02*
X129363542Y-68346400D01*
X93653600Y-52325000D02*
X94096400Y-52325000D01*
X93653600Y-54623048D02*
X93653600Y-52325000D01*
%TO.N,Net-(J1-Pin_13)*%
X161000000Y-109512658D02*
X161302400Y-109210258D01*
X161000000Y-128810000D02*
X161000000Y-109512658D01*
X163240000Y-131050000D02*
X161000000Y-128810000D01*
X161302400Y-109210258D02*
X161302400Y-106722600D01*
X161302400Y-106722600D02*
X163940000Y-104085000D01*
%TD*%
M02*
