%TF.GenerationSoftware,KiCad,Pcbnew,10.0.5*%
%TF.CreationDate,2026-08-17T23:43:38+03:00*%
%TF.ProjectId,Nixie,4e697869-652e-46b6-9963-61645f706362,rev?*%
%TF.SameCoordinates,Original*%
%TF.FileFunction,Legend,Top*%
%TF.FilePolarity,Positive*%
%FSLAX46Y46*%
G04 Gerber Fmt 4.6, Leading zero omitted, Abs format (unit mm)*
G04 Created by KiCad (PCBNEW 10.0.5) date 2026-08-17 23:43:38*
%MOMM*%
%LPD*%
G01*
G04 APERTURE LIST*
%ADD10C,0.101600*%
%ADD11C,0.150000*%
%ADD12C,0.254000*%
%ADD13C,0.125000*%
%ADD14C,0.120000*%
%ADD15C,0.200000*%
%ADD16C,0.400000*%
G04 APERTURE END LIST*
D10*
X175684722Y-54081709D02*
X174414722Y-54081709D01*
X174414722Y-54081709D02*
X175684722Y-53355994D01*
X175684722Y-53355994D02*
X174414722Y-53355994D01*
X174838055Y-52206947D02*
X175684722Y-52206947D01*
X174354246Y-52509328D02*
X175261388Y-52811709D01*
X175261388Y-52811709D02*
X175261388Y-52025518D01*
X162003095Y-47028832D02*
X162728809Y-47028832D01*
X162365952Y-48298832D02*
X162365952Y-47028832D01*
X163333571Y-48298832D02*
X163212619Y-48238356D01*
X163212619Y-48238356D02*
X163152142Y-48177879D01*
X163152142Y-48177879D02*
X163091666Y-48056927D01*
X163091666Y-48056927D02*
X163091666Y-47694070D01*
X163091666Y-47694070D02*
X163152142Y-47573117D01*
X163152142Y-47573117D02*
X163212619Y-47512641D01*
X163212619Y-47512641D02*
X163333571Y-47452165D01*
X163333571Y-47452165D02*
X163515000Y-47452165D01*
X163515000Y-47452165D02*
X163635952Y-47512641D01*
X163635952Y-47512641D02*
X163696428Y-47573117D01*
X163696428Y-47573117D02*
X163756904Y-47694070D01*
X163756904Y-47694070D02*
X163756904Y-48056927D01*
X163756904Y-48056927D02*
X163696428Y-48177879D01*
X163696428Y-48177879D02*
X163635952Y-48238356D01*
X163635952Y-48238356D02*
X163515000Y-48298832D01*
X163515000Y-48298832D02*
X163333571Y-48298832D01*
X164301190Y-47452165D02*
X164301190Y-48722165D01*
X164301190Y-47512641D02*
X164422143Y-47452165D01*
X164422143Y-47452165D02*
X164664048Y-47452165D01*
X164664048Y-47452165D02*
X164785000Y-47512641D01*
X164785000Y-47512641D02*
X164845476Y-47573117D01*
X164845476Y-47573117D02*
X164905952Y-47694070D01*
X164905952Y-47694070D02*
X164905952Y-48056927D01*
X164905952Y-48056927D02*
X164845476Y-48177879D01*
X164845476Y-48177879D02*
X164785000Y-48238356D01*
X164785000Y-48238356D02*
X164664048Y-48298832D01*
X164664048Y-48298832D02*
X164422143Y-48298832D01*
X164422143Y-48298832D02*
X164301190Y-48238356D01*
X162668333Y-57793594D02*
X162849761Y-57854070D01*
X162849761Y-57854070D02*
X162910238Y-57914546D01*
X162910238Y-57914546D02*
X162970714Y-58035498D01*
X162970714Y-58035498D02*
X162970714Y-58216927D01*
X162970714Y-58216927D02*
X162910238Y-58337879D01*
X162910238Y-58337879D02*
X162849761Y-58398356D01*
X162849761Y-58398356D02*
X162728809Y-58458832D01*
X162728809Y-58458832D02*
X162244999Y-58458832D01*
X162244999Y-58458832D02*
X162244999Y-57188832D01*
X162244999Y-57188832D02*
X162668333Y-57188832D01*
X162668333Y-57188832D02*
X162789285Y-57249308D01*
X162789285Y-57249308D02*
X162849761Y-57309784D01*
X162849761Y-57309784D02*
X162910238Y-57430736D01*
X162910238Y-57430736D02*
X162910238Y-57551689D01*
X162910238Y-57551689D02*
X162849761Y-57672641D01*
X162849761Y-57672641D02*
X162789285Y-57733117D01*
X162789285Y-57733117D02*
X162668333Y-57793594D01*
X162668333Y-57793594D02*
X162244999Y-57793594D01*
X163696428Y-58458832D02*
X163575476Y-58398356D01*
X163575476Y-58398356D02*
X163514999Y-58337879D01*
X163514999Y-58337879D02*
X163454523Y-58216927D01*
X163454523Y-58216927D02*
X163454523Y-57854070D01*
X163454523Y-57854070D02*
X163514999Y-57733117D01*
X163514999Y-57733117D02*
X163575476Y-57672641D01*
X163575476Y-57672641D02*
X163696428Y-57612165D01*
X163696428Y-57612165D02*
X163877857Y-57612165D01*
X163877857Y-57612165D02*
X163998809Y-57672641D01*
X163998809Y-57672641D02*
X164059285Y-57733117D01*
X164059285Y-57733117D02*
X164119761Y-57854070D01*
X164119761Y-57854070D02*
X164119761Y-58216927D01*
X164119761Y-58216927D02*
X164059285Y-58337879D01*
X164059285Y-58337879D02*
X163998809Y-58398356D01*
X163998809Y-58398356D02*
X163877857Y-58458832D01*
X163877857Y-58458832D02*
X163696428Y-58458832D01*
X164482619Y-57612165D02*
X164966428Y-57612165D01*
X164664047Y-57188832D02*
X164664047Y-58277403D01*
X164664047Y-58277403D02*
X164724524Y-58398356D01*
X164724524Y-58398356D02*
X164845476Y-58458832D01*
X164845476Y-58458832D02*
X164966428Y-58458832D01*
X152804722Y-54081709D02*
X151534722Y-54081709D01*
X151534722Y-54081709D02*
X152804722Y-53355994D01*
X152804722Y-53355994D02*
X151534722Y-53355994D01*
X151534722Y-52872185D02*
X151534722Y-52085994D01*
X151534722Y-52085994D02*
X152018531Y-52509328D01*
X152018531Y-52509328D02*
X152018531Y-52327899D01*
X152018531Y-52327899D02*
X152079007Y-52206947D01*
X152079007Y-52206947D02*
X152139484Y-52146471D01*
X152139484Y-52146471D02*
X152260436Y-52085994D01*
X152260436Y-52085994D02*
X152562817Y-52085994D01*
X152562817Y-52085994D02*
X152683769Y-52146471D01*
X152683769Y-52146471D02*
X152744246Y-52206947D01*
X152744246Y-52206947D02*
X152804722Y-52327899D01*
X152804722Y-52327899D02*
X152804722Y-52690756D01*
X152804722Y-52690756D02*
X152744246Y-52811709D01*
X152744246Y-52811709D02*
X152683769Y-52872185D01*
X139123095Y-47028832D02*
X139848809Y-47028832D01*
X139485952Y-48298832D02*
X139485952Y-47028832D01*
X140453571Y-48298832D02*
X140332619Y-48238356D01*
X140332619Y-48238356D02*
X140272142Y-48177879D01*
X140272142Y-48177879D02*
X140211666Y-48056927D01*
X140211666Y-48056927D02*
X140211666Y-47694070D01*
X140211666Y-47694070D02*
X140272142Y-47573117D01*
X140272142Y-47573117D02*
X140332619Y-47512641D01*
X140332619Y-47512641D02*
X140453571Y-47452165D01*
X140453571Y-47452165D02*
X140635000Y-47452165D01*
X140635000Y-47452165D02*
X140755952Y-47512641D01*
X140755952Y-47512641D02*
X140816428Y-47573117D01*
X140816428Y-47573117D02*
X140876904Y-47694070D01*
X140876904Y-47694070D02*
X140876904Y-48056927D01*
X140876904Y-48056927D02*
X140816428Y-48177879D01*
X140816428Y-48177879D02*
X140755952Y-48238356D01*
X140755952Y-48238356D02*
X140635000Y-48298832D01*
X140635000Y-48298832D02*
X140453571Y-48298832D01*
X141421190Y-47452165D02*
X141421190Y-48722165D01*
X141421190Y-47512641D02*
X141542143Y-47452165D01*
X141542143Y-47452165D02*
X141784048Y-47452165D01*
X141784048Y-47452165D02*
X141905000Y-47512641D01*
X141905000Y-47512641D02*
X141965476Y-47573117D01*
X141965476Y-47573117D02*
X142025952Y-47694070D01*
X142025952Y-47694070D02*
X142025952Y-48056927D01*
X142025952Y-48056927D02*
X141965476Y-48177879D01*
X141965476Y-48177879D02*
X141905000Y-48238356D01*
X141905000Y-48238356D02*
X141784048Y-48298832D01*
X141784048Y-48298832D02*
X141542143Y-48298832D01*
X141542143Y-48298832D02*
X141421190Y-48238356D01*
X139788333Y-57793594D02*
X139969761Y-57854070D01*
X139969761Y-57854070D02*
X140030238Y-57914546D01*
X140030238Y-57914546D02*
X140090714Y-58035498D01*
X140090714Y-58035498D02*
X140090714Y-58216927D01*
X140090714Y-58216927D02*
X140030238Y-58337879D01*
X140030238Y-58337879D02*
X139969761Y-58398356D01*
X139969761Y-58398356D02*
X139848809Y-58458832D01*
X139848809Y-58458832D02*
X139364999Y-58458832D01*
X139364999Y-58458832D02*
X139364999Y-57188832D01*
X139364999Y-57188832D02*
X139788333Y-57188832D01*
X139788333Y-57188832D02*
X139909285Y-57249308D01*
X139909285Y-57249308D02*
X139969761Y-57309784D01*
X139969761Y-57309784D02*
X140030238Y-57430736D01*
X140030238Y-57430736D02*
X140030238Y-57551689D01*
X140030238Y-57551689D02*
X139969761Y-57672641D01*
X139969761Y-57672641D02*
X139909285Y-57733117D01*
X139909285Y-57733117D02*
X139788333Y-57793594D01*
X139788333Y-57793594D02*
X139364999Y-57793594D01*
X140816428Y-58458832D02*
X140695476Y-58398356D01*
X140695476Y-58398356D02*
X140634999Y-58337879D01*
X140634999Y-58337879D02*
X140574523Y-58216927D01*
X140574523Y-58216927D02*
X140574523Y-57854070D01*
X140574523Y-57854070D02*
X140634999Y-57733117D01*
X140634999Y-57733117D02*
X140695476Y-57672641D01*
X140695476Y-57672641D02*
X140816428Y-57612165D01*
X140816428Y-57612165D02*
X140997857Y-57612165D01*
X140997857Y-57612165D02*
X141118809Y-57672641D01*
X141118809Y-57672641D02*
X141179285Y-57733117D01*
X141179285Y-57733117D02*
X141239761Y-57854070D01*
X141239761Y-57854070D02*
X141239761Y-58216927D01*
X141239761Y-58216927D02*
X141179285Y-58337879D01*
X141179285Y-58337879D02*
X141118809Y-58398356D01*
X141118809Y-58398356D02*
X140997857Y-58458832D01*
X140997857Y-58458832D02*
X140816428Y-58458832D01*
X141602619Y-57612165D02*
X142086428Y-57612165D01*
X141784047Y-57188832D02*
X141784047Y-58277403D01*
X141784047Y-58277403D02*
X141844524Y-58398356D01*
X141844524Y-58398356D02*
X141965476Y-58458832D01*
X141965476Y-58458832D02*
X142086428Y-58458832D01*
D11*
X246974819Y-44567857D02*
X246498628Y-44901190D01*
X246974819Y-45139285D02*
X245974819Y-45139285D01*
X245974819Y-45139285D02*
X245974819Y-44758333D01*
X245974819Y-44758333D02*
X246022438Y-44663095D01*
X246022438Y-44663095D02*
X246070057Y-44615476D01*
X246070057Y-44615476D02*
X246165295Y-44567857D01*
X246165295Y-44567857D02*
X246308152Y-44567857D01*
X246308152Y-44567857D02*
X246403390Y-44615476D01*
X246403390Y-44615476D02*
X246451009Y-44663095D01*
X246451009Y-44663095D02*
X246498628Y-44758333D01*
X246498628Y-44758333D02*
X246498628Y-45139285D01*
X246070057Y-44186904D02*
X246022438Y-44139285D01*
X246022438Y-44139285D02*
X245974819Y-44044047D01*
X245974819Y-44044047D02*
X245974819Y-43805952D01*
X245974819Y-43805952D02*
X246022438Y-43710714D01*
X246022438Y-43710714D02*
X246070057Y-43663095D01*
X246070057Y-43663095D02*
X246165295Y-43615476D01*
X246165295Y-43615476D02*
X246260533Y-43615476D01*
X246260533Y-43615476D02*
X246403390Y-43663095D01*
X246403390Y-43663095D02*
X246974819Y-44234523D01*
X246974819Y-44234523D02*
X246974819Y-43615476D01*
X245974819Y-43282142D02*
X245974819Y-42615476D01*
X245974819Y-42615476D02*
X246974819Y-43044047D01*
X133283342Y-90931019D02*
X132950009Y-90454828D01*
X132711914Y-90931019D02*
X132711914Y-89931019D01*
X132711914Y-89931019D02*
X133092866Y-89931019D01*
X133092866Y-89931019D02*
X133188104Y-89978638D01*
X133188104Y-89978638D02*
X133235723Y-90026257D01*
X133235723Y-90026257D02*
X133283342Y-90121495D01*
X133283342Y-90121495D02*
X133283342Y-90264352D01*
X133283342Y-90264352D02*
X133235723Y-90359590D01*
X133235723Y-90359590D02*
X133188104Y-90407209D01*
X133188104Y-90407209D02*
X133092866Y-90454828D01*
X133092866Y-90454828D02*
X132711914Y-90454828D01*
X134235723Y-90931019D02*
X133664295Y-90931019D01*
X133950009Y-90931019D02*
X133950009Y-89931019D01*
X133950009Y-89931019D02*
X133854771Y-90073876D01*
X133854771Y-90073876D02*
X133759533Y-90169114D01*
X133759533Y-90169114D02*
X133664295Y-90216733D01*
X134616676Y-90026257D02*
X134664295Y-89978638D01*
X134664295Y-89978638D02*
X134759533Y-89931019D01*
X134759533Y-89931019D02*
X134997628Y-89931019D01*
X134997628Y-89931019D02*
X135092866Y-89978638D01*
X135092866Y-89978638D02*
X135140485Y-90026257D01*
X135140485Y-90026257D02*
X135188104Y-90121495D01*
X135188104Y-90121495D02*
X135188104Y-90216733D01*
X135188104Y-90216733D02*
X135140485Y-90359590D01*
X135140485Y-90359590D02*
X134569057Y-90931019D01*
X134569057Y-90931019D02*
X135188104Y-90931019D01*
X133649533Y-99611019D02*
X133316200Y-99134828D01*
X133078105Y-99611019D02*
X133078105Y-98611019D01*
X133078105Y-98611019D02*
X133459057Y-98611019D01*
X133459057Y-98611019D02*
X133554295Y-98658638D01*
X133554295Y-98658638D02*
X133601914Y-98706257D01*
X133601914Y-98706257D02*
X133649533Y-98801495D01*
X133649533Y-98801495D02*
X133649533Y-98944352D01*
X133649533Y-98944352D02*
X133601914Y-99039590D01*
X133601914Y-99039590D02*
X133554295Y-99087209D01*
X133554295Y-99087209D02*
X133459057Y-99134828D01*
X133459057Y-99134828D02*
X133078105Y-99134828D01*
X134030486Y-98706257D02*
X134078105Y-98658638D01*
X134078105Y-98658638D02*
X134173343Y-98611019D01*
X134173343Y-98611019D02*
X134411438Y-98611019D01*
X134411438Y-98611019D02*
X134506676Y-98658638D01*
X134506676Y-98658638D02*
X134554295Y-98706257D01*
X134554295Y-98706257D02*
X134601914Y-98801495D01*
X134601914Y-98801495D02*
X134601914Y-98896733D01*
X134601914Y-98896733D02*
X134554295Y-99039590D01*
X134554295Y-99039590D02*
X133982867Y-99611019D01*
X133982867Y-99611019D02*
X134601914Y-99611019D01*
X159573342Y-87411019D02*
X159240009Y-86934828D01*
X159001914Y-87411019D02*
X159001914Y-86411019D01*
X159001914Y-86411019D02*
X159382866Y-86411019D01*
X159382866Y-86411019D02*
X159478104Y-86458638D01*
X159478104Y-86458638D02*
X159525723Y-86506257D01*
X159525723Y-86506257D02*
X159573342Y-86601495D01*
X159573342Y-86601495D02*
X159573342Y-86744352D01*
X159573342Y-86744352D02*
X159525723Y-86839590D01*
X159525723Y-86839590D02*
X159478104Y-86887209D01*
X159478104Y-86887209D02*
X159382866Y-86934828D01*
X159382866Y-86934828D02*
X159001914Y-86934828D01*
X159954295Y-86506257D02*
X160001914Y-86458638D01*
X160001914Y-86458638D02*
X160097152Y-86411019D01*
X160097152Y-86411019D02*
X160335247Y-86411019D01*
X160335247Y-86411019D02*
X160430485Y-86458638D01*
X160430485Y-86458638D02*
X160478104Y-86506257D01*
X160478104Y-86506257D02*
X160525723Y-86601495D01*
X160525723Y-86601495D02*
X160525723Y-86696733D01*
X160525723Y-86696733D02*
X160478104Y-86839590D01*
X160478104Y-86839590D02*
X159906676Y-87411019D01*
X159906676Y-87411019D02*
X160525723Y-87411019D01*
X161478104Y-87411019D02*
X160906676Y-87411019D01*
X161192390Y-87411019D02*
X161192390Y-86411019D01*
X161192390Y-86411019D02*
X161097152Y-86553876D01*
X161097152Y-86553876D02*
X161001914Y-86649114D01*
X161001914Y-86649114D02*
X160906676Y-86696733D01*
X162811905Y-53229819D02*
X162811905Y-52229819D01*
X162811905Y-52229819D02*
X163050000Y-52229819D01*
X163050000Y-52229819D02*
X163192857Y-52277438D01*
X163192857Y-52277438D02*
X163288095Y-52372676D01*
X163288095Y-52372676D02*
X163335714Y-52467914D01*
X163335714Y-52467914D02*
X163383333Y-52658390D01*
X163383333Y-52658390D02*
X163383333Y-52801247D01*
X163383333Y-52801247D02*
X163335714Y-52991723D01*
X163335714Y-52991723D02*
X163288095Y-53086961D01*
X163288095Y-53086961D02*
X163192857Y-53182200D01*
X163192857Y-53182200D02*
X163050000Y-53229819D01*
X163050000Y-53229819D02*
X162811905Y-53229819D01*
X164240476Y-52563152D02*
X164240476Y-53229819D01*
X164002381Y-52182200D02*
X163764286Y-52896485D01*
X163764286Y-52896485D02*
X164383333Y-52896485D01*
X133283342Y-83821019D02*
X132950009Y-83344828D01*
X132711914Y-83821019D02*
X132711914Y-82821019D01*
X132711914Y-82821019D02*
X133092866Y-82821019D01*
X133092866Y-82821019D02*
X133188104Y-82868638D01*
X133188104Y-82868638D02*
X133235723Y-82916257D01*
X133235723Y-82916257D02*
X133283342Y-83011495D01*
X133283342Y-83011495D02*
X133283342Y-83154352D01*
X133283342Y-83154352D02*
X133235723Y-83249590D01*
X133235723Y-83249590D02*
X133188104Y-83297209D01*
X133188104Y-83297209D02*
X133092866Y-83344828D01*
X133092866Y-83344828D02*
X132711914Y-83344828D01*
X134235723Y-83821019D02*
X133664295Y-83821019D01*
X133950009Y-83821019D02*
X133950009Y-82821019D01*
X133950009Y-82821019D02*
X133854771Y-82963876D01*
X133854771Y-82963876D02*
X133759533Y-83059114D01*
X133759533Y-83059114D02*
X133664295Y-83106733D01*
X134854771Y-82821019D02*
X134950009Y-82821019D01*
X134950009Y-82821019D02*
X135045247Y-82868638D01*
X135045247Y-82868638D02*
X135092866Y-82916257D01*
X135092866Y-82916257D02*
X135140485Y-83011495D01*
X135140485Y-83011495D02*
X135188104Y-83201971D01*
X135188104Y-83201971D02*
X135188104Y-83440066D01*
X135188104Y-83440066D02*
X135140485Y-83630542D01*
X135140485Y-83630542D02*
X135092866Y-83725780D01*
X135092866Y-83725780D02*
X135045247Y-83773400D01*
X135045247Y-83773400D02*
X134950009Y-83821019D01*
X134950009Y-83821019D02*
X134854771Y-83821019D01*
X134854771Y-83821019D02*
X134759533Y-83773400D01*
X134759533Y-83773400D02*
X134711914Y-83725780D01*
X134711914Y-83725780D02*
X134664295Y-83630542D01*
X134664295Y-83630542D02*
X134616676Y-83440066D01*
X134616676Y-83440066D02*
X134616676Y-83201971D01*
X134616676Y-83201971D02*
X134664295Y-83011495D01*
X134664295Y-83011495D02*
X134711914Y-82916257D01*
X134711914Y-82916257D02*
X134759533Y-82868638D01*
X134759533Y-82868638D02*
X134854771Y-82821019D01*
X248292261Y-65287557D02*
X248197023Y-65239938D01*
X248197023Y-65239938D02*
X248101785Y-65144700D01*
X248101785Y-65144700D02*
X247958928Y-65001842D01*
X247958928Y-65001842D02*
X247863690Y-64954223D01*
X247863690Y-64954223D02*
X247768452Y-64954223D01*
X247816071Y-65192319D02*
X247720833Y-65144700D01*
X247720833Y-65144700D02*
X247625595Y-65049461D01*
X247625595Y-65049461D02*
X247577976Y-64858985D01*
X247577976Y-64858985D02*
X247577976Y-64525652D01*
X247577976Y-64525652D02*
X247625595Y-64335176D01*
X247625595Y-64335176D02*
X247720833Y-64239938D01*
X247720833Y-64239938D02*
X247816071Y-64192319D01*
X247816071Y-64192319D02*
X248006547Y-64192319D01*
X248006547Y-64192319D02*
X248101785Y-64239938D01*
X248101785Y-64239938D02*
X248197023Y-64335176D01*
X248197023Y-64335176D02*
X248244642Y-64525652D01*
X248244642Y-64525652D02*
X248244642Y-64858985D01*
X248244642Y-64858985D02*
X248197023Y-65049461D01*
X248197023Y-65049461D02*
X248101785Y-65144700D01*
X248101785Y-65144700D02*
X248006547Y-65192319D01*
X248006547Y-65192319D02*
X247816071Y-65192319D01*
X249197023Y-65192319D02*
X248625595Y-65192319D01*
X248911309Y-65192319D02*
X248911309Y-64192319D01*
X248911309Y-64192319D02*
X248816071Y-64335176D01*
X248816071Y-64335176D02*
X248720833Y-64430414D01*
X248720833Y-64430414D02*
X248625595Y-64478033D01*
X185656905Y-56751409D02*
X185656905Y-55751409D01*
X185656905Y-55751409D02*
X185895000Y-55751409D01*
X185895000Y-55751409D02*
X186037857Y-55799028D01*
X186037857Y-55799028D02*
X186133095Y-55894266D01*
X186133095Y-55894266D02*
X186180714Y-55989504D01*
X186180714Y-55989504D02*
X186228333Y-56179980D01*
X186228333Y-56179980D02*
X186228333Y-56322837D01*
X186228333Y-56322837D02*
X186180714Y-56513313D01*
X186180714Y-56513313D02*
X186133095Y-56608551D01*
X186133095Y-56608551D02*
X186037857Y-56703790D01*
X186037857Y-56703790D02*
X185895000Y-56751409D01*
X185895000Y-56751409D02*
X185656905Y-56751409D01*
X187085476Y-55751409D02*
X186895000Y-55751409D01*
X186895000Y-55751409D02*
X186799762Y-55799028D01*
X186799762Y-55799028D02*
X186752143Y-55846647D01*
X186752143Y-55846647D02*
X186656905Y-55989504D01*
X186656905Y-55989504D02*
X186609286Y-56179980D01*
X186609286Y-56179980D02*
X186609286Y-56560932D01*
X186609286Y-56560932D02*
X186656905Y-56656170D01*
X186656905Y-56656170D02*
X186704524Y-56703790D01*
X186704524Y-56703790D02*
X186799762Y-56751409D01*
X186799762Y-56751409D02*
X186990238Y-56751409D01*
X186990238Y-56751409D02*
X187085476Y-56703790D01*
X187085476Y-56703790D02*
X187133095Y-56656170D01*
X187133095Y-56656170D02*
X187180714Y-56560932D01*
X187180714Y-56560932D02*
X187180714Y-56322837D01*
X187180714Y-56322837D02*
X187133095Y-56227599D01*
X187133095Y-56227599D02*
X187085476Y-56179980D01*
X187085476Y-56179980D02*
X186990238Y-56132361D01*
X186990238Y-56132361D02*
X186799762Y-56132361D01*
X186799762Y-56132361D02*
X186704524Y-56179980D01*
X186704524Y-56179980D02*
X186656905Y-56227599D01*
X186656905Y-56227599D02*
X186609286Y-56322837D01*
X50636905Y-39804819D02*
X50636905Y-38804819D01*
X50636905Y-38804819D02*
X50875000Y-38804819D01*
X50875000Y-38804819D02*
X51017857Y-38852438D01*
X51017857Y-38852438D02*
X51113095Y-38947676D01*
X51113095Y-38947676D02*
X51160714Y-39042914D01*
X51160714Y-39042914D02*
X51208333Y-39233390D01*
X51208333Y-39233390D02*
X51208333Y-39376247D01*
X51208333Y-39376247D02*
X51160714Y-39566723D01*
X51160714Y-39566723D02*
X51113095Y-39661961D01*
X51113095Y-39661961D02*
X51017857Y-39757200D01*
X51017857Y-39757200D02*
X50875000Y-39804819D01*
X50875000Y-39804819D02*
X50636905Y-39804819D01*
X52113095Y-38804819D02*
X51636905Y-38804819D01*
X51636905Y-38804819D02*
X51589286Y-39281009D01*
X51589286Y-39281009D02*
X51636905Y-39233390D01*
X51636905Y-39233390D02*
X51732143Y-39185771D01*
X51732143Y-39185771D02*
X51970238Y-39185771D01*
X51970238Y-39185771D02*
X52065476Y-39233390D01*
X52065476Y-39233390D02*
X52113095Y-39281009D01*
X52113095Y-39281009D02*
X52160714Y-39376247D01*
X52160714Y-39376247D02*
X52160714Y-39614342D01*
X52160714Y-39614342D02*
X52113095Y-39709580D01*
X52113095Y-39709580D02*
X52065476Y-39757200D01*
X52065476Y-39757200D02*
X51970238Y-39804819D01*
X51970238Y-39804819D02*
X51732143Y-39804819D01*
X51732143Y-39804819D02*
X51636905Y-39757200D01*
X51636905Y-39757200D02*
X51589286Y-39709580D01*
X146783342Y-87411019D02*
X146450009Y-86934828D01*
X146211914Y-87411019D02*
X146211914Y-86411019D01*
X146211914Y-86411019D02*
X146592866Y-86411019D01*
X146592866Y-86411019D02*
X146688104Y-86458638D01*
X146688104Y-86458638D02*
X146735723Y-86506257D01*
X146735723Y-86506257D02*
X146783342Y-86601495D01*
X146783342Y-86601495D02*
X146783342Y-86744352D01*
X146783342Y-86744352D02*
X146735723Y-86839590D01*
X146735723Y-86839590D02*
X146688104Y-86887209D01*
X146688104Y-86887209D02*
X146592866Y-86934828D01*
X146592866Y-86934828D02*
X146211914Y-86934828D01*
X147735723Y-87411019D02*
X147164295Y-87411019D01*
X147450009Y-87411019D02*
X147450009Y-86411019D01*
X147450009Y-86411019D02*
X147354771Y-86553876D01*
X147354771Y-86553876D02*
X147259533Y-86649114D01*
X147259533Y-86649114D02*
X147164295Y-86696733D01*
X148592866Y-86744352D02*
X148592866Y-87411019D01*
X148354771Y-86363400D02*
X148116676Y-87077685D01*
X148116676Y-87077685D02*
X148735723Y-87077685D01*
X163328333Y-34384819D02*
X162995000Y-33908628D01*
X162756905Y-34384819D02*
X162756905Y-33384819D01*
X162756905Y-33384819D02*
X163137857Y-33384819D01*
X163137857Y-33384819D02*
X163233095Y-33432438D01*
X163233095Y-33432438D02*
X163280714Y-33480057D01*
X163280714Y-33480057D02*
X163328333Y-33575295D01*
X163328333Y-33575295D02*
X163328333Y-33718152D01*
X163328333Y-33718152D02*
X163280714Y-33813390D01*
X163280714Y-33813390D02*
X163233095Y-33861009D01*
X163233095Y-33861009D02*
X163137857Y-33908628D01*
X163137857Y-33908628D02*
X162756905Y-33908628D01*
X163661667Y-33384819D02*
X164328333Y-33384819D01*
X164328333Y-33384819D02*
X163899762Y-34384819D01*
X159573342Y-103131019D02*
X159240009Y-102654828D01*
X159001914Y-103131019D02*
X159001914Y-102131019D01*
X159001914Y-102131019D02*
X159382866Y-102131019D01*
X159382866Y-102131019D02*
X159478104Y-102178638D01*
X159478104Y-102178638D02*
X159525723Y-102226257D01*
X159525723Y-102226257D02*
X159573342Y-102321495D01*
X159573342Y-102321495D02*
X159573342Y-102464352D01*
X159573342Y-102464352D02*
X159525723Y-102559590D01*
X159525723Y-102559590D02*
X159478104Y-102607209D01*
X159478104Y-102607209D02*
X159382866Y-102654828D01*
X159382866Y-102654828D02*
X159001914Y-102654828D01*
X159954295Y-102226257D02*
X160001914Y-102178638D01*
X160001914Y-102178638D02*
X160097152Y-102131019D01*
X160097152Y-102131019D02*
X160335247Y-102131019D01*
X160335247Y-102131019D02*
X160430485Y-102178638D01*
X160430485Y-102178638D02*
X160478104Y-102226257D01*
X160478104Y-102226257D02*
X160525723Y-102321495D01*
X160525723Y-102321495D02*
X160525723Y-102416733D01*
X160525723Y-102416733D02*
X160478104Y-102559590D01*
X160478104Y-102559590D02*
X159906676Y-103131019D01*
X159906676Y-103131019D02*
X160525723Y-103131019D01*
X161430485Y-102131019D02*
X160954295Y-102131019D01*
X160954295Y-102131019D02*
X160906676Y-102607209D01*
X160906676Y-102607209D02*
X160954295Y-102559590D01*
X160954295Y-102559590D02*
X161049533Y-102511971D01*
X161049533Y-102511971D02*
X161287628Y-102511971D01*
X161287628Y-102511971D02*
X161382866Y-102559590D01*
X161382866Y-102559590D02*
X161430485Y-102607209D01*
X161430485Y-102607209D02*
X161478104Y-102702447D01*
X161478104Y-102702447D02*
X161478104Y-102940542D01*
X161478104Y-102940542D02*
X161430485Y-103035780D01*
X161430485Y-103035780D02*
X161382866Y-103083400D01*
X161382866Y-103083400D02*
X161287628Y-103131019D01*
X161287628Y-103131019D02*
X161049533Y-103131019D01*
X161049533Y-103131019D02*
X160954295Y-103083400D01*
X160954295Y-103083400D02*
X160906676Y-103035780D01*
X159573342Y-96021019D02*
X159240009Y-95544828D01*
X159001914Y-96021019D02*
X159001914Y-95021019D01*
X159001914Y-95021019D02*
X159382866Y-95021019D01*
X159382866Y-95021019D02*
X159478104Y-95068638D01*
X159478104Y-95068638D02*
X159525723Y-95116257D01*
X159525723Y-95116257D02*
X159573342Y-95211495D01*
X159573342Y-95211495D02*
X159573342Y-95354352D01*
X159573342Y-95354352D02*
X159525723Y-95449590D01*
X159525723Y-95449590D02*
X159478104Y-95497209D01*
X159478104Y-95497209D02*
X159382866Y-95544828D01*
X159382866Y-95544828D02*
X159001914Y-95544828D01*
X159954295Y-95116257D02*
X160001914Y-95068638D01*
X160001914Y-95068638D02*
X160097152Y-95021019D01*
X160097152Y-95021019D02*
X160335247Y-95021019D01*
X160335247Y-95021019D02*
X160430485Y-95068638D01*
X160430485Y-95068638D02*
X160478104Y-95116257D01*
X160478104Y-95116257D02*
X160525723Y-95211495D01*
X160525723Y-95211495D02*
X160525723Y-95306733D01*
X160525723Y-95306733D02*
X160478104Y-95449590D01*
X160478104Y-95449590D02*
X159906676Y-96021019D01*
X159906676Y-96021019D02*
X160525723Y-96021019D01*
X160859057Y-95021019D02*
X161478104Y-95021019D01*
X161478104Y-95021019D02*
X161144771Y-95401971D01*
X161144771Y-95401971D02*
X161287628Y-95401971D01*
X161287628Y-95401971D02*
X161382866Y-95449590D01*
X161382866Y-95449590D02*
X161430485Y-95497209D01*
X161430485Y-95497209D02*
X161478104Y-95592447D01*
X161478104Y-95592447D02*
X161478104Y-95830542D01*
X161478104Y-95830542D02*
X161430485Y-95925780D01*
X161430485Y-95925780D02*
X161382866Y-95973400D01*
X161382866Y-95973400D02*
X161287628Y-96021019D01*
X161287628Y-96021019D02*
X161001914Y-96021019D01*
X161001914Y-96021019D02*
X160906676Y-95973400D01*
X160906676Y-95973400D02*
X160859057Y-95925780D01*
X133283342Y-87411019D02*
X132950009Y-86934828D01*
X132711914Y-87411019D02*
X132711914Y-86411019D01*
X132711914Y-86411019D02*
X133092866Y-86411019D01*
X133092866Y-86411019D02*
X133188104Y-86458638D01*
X133188104Y-86458638D02*
X133235723Y-86506257D01*
X133235723Y-86506257D02*
X133283342Y-86601495D01*
X133283342Y-86601495D02*
X133283342Y-86744352D01*
X133283342Y-86744352D02*
X133235723Y-86839590D01*
X133235723Y-86839590D02*
X133188104Y-86887209D01*
X133188104Y-86887209D02*
X133092866Y-86934828D01*
X133092866Y-86934828D02*
X132711914Y-86934828D01*
X134235723Y-87411019D02*
X133664295Y-87411019D01*
X133950009Y-87411019D02*
X133950009Y-86411019D01*
X133950009Y-86411019D02*
X133854771Y-86553876D01*
X133854771Y-86553876D02*
X133759533Y-86649114D01*
X133759533Y-86649114D02*
X133664295Y-86696733D01*
X135188104Y-87411019D02*
X134616676Y-87411019D01*
X134902390Y-87411019D02*
X134902390Y-86411019D01*
X134902390Y-86411019D02*
X134807152Y-86553876D01*
X134807152Y-86553876D02*
X134711914Y-86649114D01*
X134711914Y-86649114D02*
X134616676Y-86696733D01*
X116888333Y-34384819D02*
X116555000Y-33908628D01*
X116316905Y-34384819D02*
X116316905Y-33384819D01*
X116316905Y-33384819D02*
X116697857Y-33384819D01*
X116697857Y-33384819D02*
X116793095Y-33432438D01*
X116793095Y-33432438D02*
X116840714Y-33480057D01*
X116840714Y-33480057D02*
X116888333Y-33575295D01*
X116888333Y-33575295D02*
X116888333Y-33718152D01*
X116888333Y-33718152D02*
X116840714Y-33813390D01*
X116840714Y-33813390D02*
X116793095Y-33861009D01*
X116793095Y-33861009D02*
X116697857Y-33908628D01*
X116697857Y-33908628D02*
X116316905Y-33908628D01*
X117793095Y-33384819D02*
X117316905Y-33384819D01*
X117316905Y-33384819D02*
X117269286Y-33861009D01*
X117269286Y-33861009D02*
X117316905Y-33813390D01*
X117316905Y-33813390D02*
X117412143Y-33765771D01*
X117412143Y-33765771D02*
X117650238Y-33765771D01*
X117650238Y-33765771D02*
X117745476Y-33813390D01*
X117745476Y-33813390D02*
X117793095Y-33861009D01*
X117793095Y-33861009D02*
X117840714Y-33956247D01*
X117840714Y-33956247D02*
X117840714Y-34194342D01*
X117840714Y-34194342D02*
X117793095Y-34289580D01*
X117793095Y-34289580D02*
X117745476Y-34337200D01*
X117745476Y-34337200D02*
X117650238Y-34384819D01*
X117650238Y-34384819D02*
X117412143Y-34384819D01*
X117412143Y-34384819D02*
X117316905Y-34337200D01*
X117316905Y-34337200D02*
X117269286Y-34289580D01*
X140448333Y-34384819D02*
X140115000Y-33908628D01*
X139876905Y-34384819D02*
X139876905Y-33384819D01*
X139876905Y-33384819D02*
X140257857Y-33384819D01*
X140257857Y-33384819D02*
X140353095Y-33432438D01*
X140353095Y-33432438D02*
X140400714Y-33480057D01*
X140400714Y-33480057D02*
X140448333Y-33575295D01*
X140448333Y-33575295D02*
X140448333Y-33718152D01*
X140448333Y-33718152D02*
X140400714Y-33813390D01*
X140400714Y-33813390D02*
X140353095Y-33861009D01*
X140353095Y-33861009D02*
X140257857Y-33908628D01*
X140257857Y-33908628D02*
X139876905Y-33908628D01*
X141305476Y-33384819D02*
X141115000Y-33384819D01*
X141115000Y-33384819D02*
X141019762Y-33432438D01*
X141019762Y-33432438D02*
X140972143Y-33480057D01*
X140972143Y-33480057D02*
X140876905Y-33622914D01*
X140876905Y-33622914D02*
X140829286Y-33813390D01*
X140829286Y-33813390D02*
X140829286Y-34194342D01*
X140829286Y-34194342D02*
X140876905Y-34289580D01*
X140876905Y-34289580D02*
X140924524Y-34337200D01*
X140924524Y-34337200D02*
X141019762Y-34384819D01*
X141019762Y-34384819D02*
X141210238Y-34384819D01*
X141210238Y-34384819D02*
X141305476Y-34337200D01*
X141305476Y-34337200D02*
X141353095Y-34289580D01*
X141353095Y-34289580D02*
X141400714Y-34194342D01*
X141400714Y-34194342D02*
X141400714Y-33956247D01*
X141400714Y-33956247D02*
X141353095Y-33861009D01*
X141353095Y-33861009D02*
X141305476Y-33813390D01*
X141305476Y-33813390D02*
X141210238Y-33765771D01*
X141210238Y-33765771D02*
X141019762Y-33765771D01*
X141019762Y-33765771D02*
X140924524Y-33813390D01*
X140924524Y-33813390D02*
X140876905Y-33861009D01*
X140876905Y-33861009D02*
X140829286Y-33956247D01*
D10*
X221444722Y-54081709D02*
X220174722Y-54081709D01*
X220174722Y-54081709D02*
X221444722Y-53355994D01*
X221444722Y-53355994D02*
X220174722Y-53355994D01*
X220174722Y-52206947D02*
X220174722Y-52448852D01*
X220174722Y-52448852D02*
X220235198Y-52569804D01*
X220235198Y-52569804D02*
X220295674Y-52630280D01*
X220295674Y-52630280D02*
X220477103Y-52751233D01*
X220477103Y-52751233D02*
X220719007Y-52811709D01*
X220719007Y-52811709D02*
X221202817Y-52811709D01*
X221202817Y-52811709D02*
X221323769Y-52751233D01*
X221323769Y-52751233D02*
X221384246Y-52690756D01*
X221384246Y-52690756D02*
X221444722Y-52569804D01*
X221444722Y-52569804D02*
X221444722Y-52327899D01*
X221444722Y-52327899D02*
X221384246Y-52206947D01*
X221384246Y-52206947D02*
X221323769Y-52146471D01*
X221323769Y-52146471D02*
X221202817Y-52085994D01*
X221202817Y-52085994D02*
X220900436Y-52085994D01*
X220900436Y-52085994D02*
X220779484Y-52146471D01*
X220779484Y-52146471D02*
X220719007Y-52206947D01*
X220719007Y-52206947D02*
X220658531Y-52327899D01*
X220658531Y-52327899D02*
X220658531Y-52569804D01*
X220658531Y-52569804D02*
X220719007Y-52690756D01*
X220719007Y-52690756D02*
X220779484Y-52751233D01*
X220779484Y-52751233D02*
X220900436Y-52811709D01*
X207763095Y-47028832D02*
X208488809Y-47028832D01*
X208125952Y-48298832D02*
X208125952Y-47028832D01*
X209093571Y-48298832D02*
X208972619Y-48238356D01*
X208972619Y-48238356D02*
X208912142Y-48177879D01*
X208912142Y-48177879D02*
X208851666Y-48056927D01*
X208851666Y-48056927D02*
X208851666Y-47694070D01*
X208851666Y-47694070D02*
X208912142Y-47573117D01*
X208912142Y-47573117D02*
X208972619Y-47512641D01*
X208972619Y-47512641D02*
X209093571Y-47452165D01*
X209093571Y-47452165D02*
X209275000Y-47452165D01*
X209275000Y-47452165D02*
X209395952Y-47512641D01*
X209395952Y-47512641D02*
X209456428Y-47573117D01*
X209456428Y-47573117D02*
X209516904Y-47694070D01*
X209516904Y-47694070D02*
X209516904Y-48056927D01*
X209516904Y-48056927D02*
X209456428Y-48177879D01*
X209456428Y-48177879D02*
X209395952Y-48238356D01*
X209395952Y-48238356D02*
X209275000Y-48298832D01*
X209275000Y-48298832D02*
X209093571Y-48298832D01*
X210061190Y-47452165D02*
X210061190Y-48722165D01*
X210061190Y-47512641D02*
X210182143Y-47452165D01*
X210182143Y-47452165D02*
X210424048Y-47452165D01*
X210424048Y-47452165D02*
X210545000Y-47512641D01*
X210545000Y-47512641D02*
X210605476Y-47573117D01*
X210605476Y-47573117D02*
X210665952Y-47694070D01*
X210665952Y-47694070D02*
X210665952Y-48056927D01*
X210665952Y-48056927D02*
X210605476Y-48177879D01*
X210605476Y-48177879D02*
X210545000Y-48238356D01*
X210545000Y-48238356D02*
X210424048Y-48298832D01*
X210424048Y-48298832D02*
X210182143Y-48298832D01*
X210182143Y-48298832D02*
X210061190Y-48238356D01*
X208428333Y-57793594D02*
X208609761Y-57854070D01*
X208609761Y-57854070D02*
X208670238Y-57914546D01*
X208670238Y-57914546D02*
X208730714Y-58035498D01*
X208730714Y-58035498D02*
X208730714Y-58216927D01*
X208730714Y-58216927D02*
X208670238Y-58337879D01*
X208670238Y-58337879D02*
X208609761Y-58398356D01*
X208609761Y-58398356D02*
X208488809Y-58458832D01*
X208488809Y-58458832D02*
X208004999Y-58458832D01*
X208004999Y-58458832D02*
X208004999Y-57188832D01*
X208004999Y-57188832D02*
X208428333Y-57188832D01*
X208428333Y-57188832D02*
X208549285Y-57249308D01*
X208549285Y-57249308D02*
X208609761Y-57309784D01*
X208609761Y-57309784D02*
X208670238Y-57430736D01*
X208670238Y-57430736D02*
X208670238Y-57551689D01*
X208670238Y-57551689D02*
X208609761Y-57672641D01*
X208609761Y-57672641D02*
X208549285Y-57733117D01*
X208549285Y-57733117D02*
X208428333Y-57793594D01*
X208428333Y-57793594D02*
X208004999Y-57793594D01*
X209456428Y-58458832D02*
X209335476Y-58398356D01*
X209335476Y-58398356D02*
X209274999Y-58337879D01*
X209274999Y-58337879D02*
X209214523Y-58216927D01*
X209214523Y-58216927D02*
X209214523Y-57854070D01*
X209214523Y-57854070D02*
X209274999Y-57733117D01*
X209274999Y-57733117D02*
X209335476Y-57672641D01*
X209335476Y-57672641D02*
X209456428Y-57612165D01*
X209456428Y-57612165D02*
X209637857Y-57612165D01*
X209637857Y-57612165D02*
X209758809Y-57672641D01*
X209758809Y-57672641D02*
X209819285Y-57733117D01*
X209819285Y-57733117D02*
X209879761Y-57854070D01*
X209879761Y-57854070D02*
X209879761Y-58216927D01*
X209879761Y-58216927D02*
X209819285Y-58337879D01*
X209819285Y-58337879D02*
X209758809Y-58398356D01*
X209758809Y-58398356D02*
X209637857Y-58458832D01*
X209637857Y-58458832D02*
X209456428Y-58458832D01*
X210242619Y-57612165D02*
X210726428Y-57612165D01*
X210424047Y-57188832D02*
X210424047Y-58277403D01*
X210424047Y-58277403D02*
X210484524Y-58398356D01*
X210484524Y-58398356D02*
X210605476Y-58458832D01*
X210605476Y-58458832D02*
X210726428Y-58458832D01*
D12*
X231107380Y-52100908D02*
X231107380Y-53129003D01*
X231107380Y-53129003D02*
X231167857Y-53249955D01*
X231167857Y-53249955D02*
X231228333Y-53310432D01*
X231228333Y-53310432D02*
X231349285Y-53370908D01*
X231349285Y-53370908D02*
X231591190Y-53370908D01*
X231591190Y-53370908D02*
X231712142Y-53310432D01*
X231712142Y-53310432D02*
X231772619Y-53249955D01*
X231772619Y-53249955D02*
X231833095Y-53129003D01*
X231833095Y-53129003D02*
X231833095Y-52100908D01*
X232316904Y-52100908D02*
X233103095Y-52100908D01*
X233103095Y-52100908D02*
X232679761Y-52584717D01*
X232679761Y-52584717D02*
X232861190Y-52584717D01*
X232861190Y-52584717D02*
X232982142Y-52645193D01*
X232982142Y-52645193D02*
X233042618Y-52705670D01*
X233042618Y-52705670D02*
X233103095Y-52826622D01*
X233103095Y-52826622D02*
X233103095Y-53129003D01*
X233103095Y-53129003D02*
X233042618Y-53249955D01*
X233042618Y-53249955D02*
X232982142Y-53310432D01*
X232982142Y-53310432D02*
X232861190Y-53370908D01*
X232861190Y-53370908D02*
X232498333Y-53370908D01*
X232498333Y-53370908D02*
X232377380Y-53310432D01*
X232377380Y-53310432D02*
X232316904Y-53249955D01*
D11*
X146783342Y-99541019D02*
X146450009Y-99064828D01*
X146211914Y-99541019D02*
X146211914Y-98541019D01*
X146211914Y-98541019D02*
X146592866Y-98541019D01*
X146592866Y-98541019D02*
X146688104Y-98588638D01*
X146688104Y-98588638D02*
X146735723Y-98636257D01*
X146735723Y-98636257D02*
X146783342Y-98731495D01*
X146783342Y-98731495D02*
X146783342Y-98874352D01*
X146783342Y-98874352D02*
X146735723Y-98969590D01*
X146735723Y-98969590D02*
X146688104Y-99017209D01*
X146688104Y-99017209D02*
X146592866Y-99064828D01*
X146592866Y-99064828D02*
X146211914Y-99064828D01*
X147735723Y-99541019D02*
X147164295Y-99541019D01*
X147450009Y-99541019D02*
X147450009Y-98541019D01*
X147450009Y-98541019D02*
X147354771Y-98683876D01*
X147354771Y-98683876D02*
X147259533Y-98779114D01*
X147259533Y-98779114D02*
X147164295Y-98826733D01*
X148069057Y-98541019D02*
X148735723Y-98541019D01*
X148735723Y-98541019D02*
X148307152Y-99541019D01*
X186208333Y-34384819D02*
X185875000Y-33908628D01*
X185636905Y-34384819D02*
X185636905Y-33384819D01*
X185636905Y-33384819D02*
X186017857Y-33384819D01*
X186017857Y-33384819D02*
X186113095Y-33432438D01*
X186113095Y-33432438D02*
X186160714Y-33480057D01*
X186160714Y-33480057D02*
X186208333Y-33575295D01*
X186208333Y-33575295D02*
X186208333Y-33718152D01*
X186208333Y-33718152D02*
X186160714Y-33813390D01*
X186160714Y-33813390D02*
X186113095Y-33861009D01*
X186113095Y-33861009D02*
X186017857Y-33908628D01*
X186017857Y-33908628D02*
X185636905Y-33908628D01*
X186779762Y-33813390D02*
X186684524Y-33765771D01*
X186684524Y-33765771D02*
X186636905Y-33718152D01*
X186636905Y-33718152D02*
X186589286Y-33622914D01*
X186589286Y-33622914D02*
X186589286Y-33575295D01*
X186589286Y-33575295D02*
X186636905Y-33480057D01*
X186636905Y-33480057D02*
X186684524Y-33432438D01*
X186684524Y-33432438D02*
X186779762Y-33384819D01*
X186779762Y-33384819D02*
X186970238Y-33384819D01*
X186970238Y-33384819D02*
X187065476Y-33432438D01*
X187065476Y-33432438D02*
X187113095Y-33480057D01*
X187113095Y-33480057D02*
X187160714Y-33575295D01*
X187160714Y-33575295D02*
X187160714Y-33622914D01*
X187160714Y-33622914D02*
X187113095Y-33718152D01*
X187113095Y-33718152D02*
X187065476Y-33765771D01*
X187065476Y-33765771D02*
X186970238Y-33813390D01*
X186970238Y-33813390D02*
X186779762Y-33813390D01*
X186779762Y-33813390D02*
X186684524Y-33861009D01*
X186684524Y-33861009D02*
X186636905Y-33908628D01*
X186636905Y-33908628D02*
X186589286Y-34003866D01*
X186589286Y-34003866D02*
X186589286Y-34194342D01*
X186589286Y-34194342D02*
X186636905Y-34289580D01*
X186636905Y-34289580D02*
X186684524Y-34337200D01*
X186684524Y-34337200D02*
X186779762Y-34384819D01*
X186779762Y-34384819D02*
X186970238Y-34384819D01*
X186970238Y-34384819D02*
X187065476Y-34337200D01*
X187065476Y-34337200D02*
X187113095Y-34289580D01*
X187113095Y-34289580D02*
X187160714Y-34194342D01*
X187160714Y-34194342D02*
X187160714Y-34003866D01*
X187160714Y-34003866D02*
X187113095Y-33908628D01*
X187113095Y-33908628D02*
X187065476Y-33861009D01*
X187065476Y-33861009D02*
X186970238Y-33813390D01*
X146883342Y-103201019D02*
X146550009Y-102724828D01*
X146311914Y-103201019D02*
X146311914Y-102201019D01*
X146311914Y-102201019D02*
X146692866Y-102201019D01*
X146692866Y-102201019D02*
X146788104Y-102248638D01*
X146788104Y-102248638D02*
X146835723Y-102296257D01*
X146835723Y-102296257D02*
X146883342Y-102391495D01*
X146883342Y-102391495D02*
X146883342Y-102534352D01*
X146883342Y-102534352D02*
X146835723Y-102629590D01*
X146835723Y-102629590D02*
X146788104Y-102677209D01*
X146788104Y-102677209D02*
X146692866Y-102724828D01*
X146692866Y-102724828D02*
X146311914Y-102724828D01*
X147835723Y-103201019D02*
X147264295Y-103201019D01*
X147550009Y-103201019D02*
X147550009Y-102201019D01*
X147550009Y-102201019D02*
X147454771Y-102343876D01*
X147454771Y-102343876D02*
X147359533Y-102439114D01*
X147359533Y-102439114D02*
X147264295Y-102486733D01*
X148311914Y-103201019D02*
X148502390Y-103201019D01*
X148502390Y-103201019D02*
X148597628Y-103153400D01*
X148597628Y-103153400D02*
X148645247Y-103105780D01*
X148645247Y-103105780D02*
X148740485Y-102962923D01*
X148740485Y-102962923D02*
X148788104Y-102772447D01*
X148788104Y-102772447D02*
X148788104Y-102391495D01*
X148788104Y-102391495D02*
X148740485Y-102296257D01*
X148740485Y-102296257D02*
X148692866Y-102248638D01*
X148692866Y-102248638D02*
X148597628Y-102201019D01*
X148597628Y-102201019D02*
X148407152Y-102201019D01*
X148407152Y-102201019D02*
X148311914Y-102248638D01*
X148311914Y-102248638D02*
X148264295Y-102296257D01*
X148264295Y-102296257D02*
X148216676Y-102391495D01*
X148216676Y-102391495D02*
X148216676Y-102629590D01*
X148216676Y-102629590D02*
X148264295Y-102724828D01*
X148264295Y-102724828D02*
X148311914Y-102772447D01*
X148311914Y-102772447D02*
X148407152Y-102820066D01*
X148407152Y-102820066D02*
X148597628Y-102820066D01*
X148597628Y-102820066D02*
X148692866Y-102772447D01*
X148692866Y-102772447D02*
X148740485Y-102724828D01*
X148740485Y-102724828D02*
X148788104Y-102629590D01*
D10*
X93363095Y-47028832D02*
X94088809Y-47028832D01*
X93725952Y-48298832D02*
X93725952Y-47028832D01*
X94693571Y-48298832D02*
X94572619Y-48238356D01*
X94572619Y-48238356D02*
X94512142Y-48177879D01*
X94512142Y-48177879D02*
X94451666Y-48056927D01*
X94451666Y-48056927D02*
X94451666Y-47694070D01*
X94451666Y-47694070D02*
X94512142Y-47573117D01*
X94512142Y-47573117D02*
X94572619Y-47512641D01*
X94572619Y-47512641D02*
X94693571Y-47452165D01*
X94693571Y-47452165D02*
X94875000Y-47452165D01*
X94875000Y-47452165D02*
X94995952Y-47512641D01*
X94995952Y-47512641D02*
X95056428Y-47573117D01*
X95056428Y-47573117D02*
X95116904Y-47694070D01*
X95116904Y-47694070D02*
X95116904Y-48056927D01*
X95116904Y-48056927D02*
X95056428Y-48177879D01*
X95056428Y-48177879D02*
X94995952Y-48238356D01*
X94995952Y-48238356D02*
X94875000Y-48298832D01*
X94875000Y-48298832D02*
X94693571Y-48298832D01*
X95661190Y-47452165D02*
X95661190Y-48722165D01*
X95661190Y-47512641D02*
X95782143Y-47452165D01*
X95782143Y-47452165D02*
X96024048Y-47452165D01*
X96024048Y-47452165D02*
X96145000Y-47512641D01*
X96145000Y-47512641D02*
X96205476Y-47573117D01*
X96205476Y-47573117D02*
X96265952Y-47694070D01*
X96265952Y-47694070D02*
X96265952Y-48056927D01*
X96265952Y-48056927D02*
X96205476Y-48177879D01*
X96205476Y-48177879D02*
X96145000Y-48238356D01*
X96145000Y-48238356D02*
X96024048Y-48298832D01*
X96024048Y-48298832D02*
X95782143Y-48298832D01*
X95782143Y-48298832D02*
X95661190Y-48238356D01*
X94028333Y-57793594D02*
X94209761Y-57854070D01*
X94209761Y-57854070D02*
X94270238Y-57914546D01*
X94270238Y-57914546D02*
X94330714Y-58035498D01*
X94330714Y-58035498D02*
X94330714Y-58216927D01*
X94330714Y-58216927D02*
X94270238Y-58337879D01*
X94270238Y-58337879D02*
X94209761Y-58398356D01*
X94209761Y-58398356D02*
X94088809Y-58458832D01*
X94088809Y-58458832D02*
X93604999Y-58458832D01*
X93604999Y-58458832D02*
X93604999Y-57188832D01*
X93604999Y-57188832D02*
X94028333Y-57188832D01*
X94028333Y-57188832D02*
X94149285Y-57249308D01*
X94149285Y-57249308D02*
X94209761Y-57309784D01*
X94209761Y-57309784D02*
X94270238Y-57430736D01*
X94270238Y-57430736D02*
X94270238Y-57551689D01*
X94270238Y-57551689D02*
X94209761Y-57672641D01*
X94209761Y-57672641D02*
X94149285Y-57733117D01*
X94149285Y-57733117D02*
X94028333Y-57793594D01*
X94028333Y-57793594D02*
X93604999Y-57793594D01*
X95056428Y-58458832D02*
X94935476Y-58398356D01*
X94935476Y-58398356D02*
X94874999Y-58337879D01*
X94874999Y-58337879D02*
X94814523Y-58216927D01*
X94814523Y-58216927D02*
X94814523Y-57854070D01*
X94814523Y-57854070D02*
X94874999Y-57733117D01*
X94874999Y-57733117D02*
X94935476Y-57672641D01*
X94935476Y-57672641D02*
X95056428Y-57612165D01*
X95056428Y-57612165D02*
X95237857Y-57612165D01*
X95237857Y-57612165D02*
X95358809Y-57672641D01*
X95358809Y-57672641D02*
X95419285Y-57733117D01*
X95419285Y-57733117D02*
X95479761Y-57854070D01*
X95479761Y-57854070D02*
X95479761Y-58216927D01*
X95479761Y-58216927D02*
X95419285Y-58337879D01*
X95419285Y-58337879D02*
X95358809Y-58398356D01*
X95358809Y-58398356D02*
X95237857Y-58458832D01*
X95237857Y-58458832D02*
X95056428Y-58458832D01*
X95842619Y-57612165D02*
X96326428Y-57612165D01*
X96024047Y-57188832D02*
X96024047Y-58277403D01*
X96024047Y-58277403D02*
X96084524Y-58398356D01*
X96084524Y-58398356D02*
X96205476Y-58458832D01*
X96205476Y-58458832D02*
X96326428Y-58458832D01*
D11*
X148835419Y-81769533D02*
X149549704Y-81769533D01*
X149549704Y-81769533D02*
X149692561Y-81817152D01*
X149692561Y-81817152D02*
X149787800Y-81912390D01*
X149787800Y-81912390D02*
X149835419Y-82055247D01*
X149835419Y-82055247D02*
X149835419Y-82150485D01*
X148835419Y-81388580D02*
X148835419Y-80769533D01*
X148835419Y-80769533D02*
X149216371Y-81102866D01*
X149216371Y-81102866D02*
X149216371Y-80960009D01*
X149216371Y-80960009D02*
X149263990Y-80864771D01*
X149263990Y-80864771D02*
X149311609Y-80817152D01*
X149311609Y-80817152D02*
X149406847Y-80769533D01*
X149406847Y-80769533D02*
X149644942Y-80769533D01*
X149644942Y-80769533D02*
X149740180Y-80817152D01*
X149740180Y-80817152D02*
X149787800Y-80864771D01*
X149787800Y-80864771D02*
X149835419Y-80960009D01*
X149835419Y-80960009D02*
X149835419Y-81245723D01*
X149835419Y-81245723D02*
X149787800Y-81340961D01*
X149787800Y-81340961D02*
X149740180Y-81388580D01*
D13*
X62341667Y-56012404D02*
X62303571Y-56050500D01*
X62303571Y-56050500D02*
X62189286Y-56088595D01*
X62189286Y-56088595D02*
X62113095Y-56088595D01*
X62113095Y-56088595D02*
X61998809Y-56050500D01*
X61998809Y-56050500D02*
X61922619Y-55974309D01*
X61922619Y-55974309D02*
X61884524Y-55898119D01*
X61884524Y-55898119D02*
X61846428Y-55745738D01*
X61846428Y-55745738D02*
X61846428Y-55631452D01*
X61846428Y-55631452D02*
X61884524Y-55479071D01*
X61884524Y-55479071D02*
X61922619Y-55402880D01*
X61922619Y-55402880D02*
X61998809Y-55326690D01*
X61998809Y-55326690D02*
X62113095Y-55288595D01*
X62113095Y-55288595D02*
X62189286Y-55288595D01*
X62189286Y-55288595D02*
X62303571Y-55326690D01*
X62303571Y-55326690D02*
X62341667Y-55364785D01*
X63027381Y-55288595D02*
X62875000Y-55288595D01*
X62875000Y-55288595D02*
X62798809Y-55326690D01*
X62798809Y-55326690D02*
X62760714Y-55364785D01*
X62760714Y-55364785D02*
X62684524Y-55479071D01*
X62684524Y-55479071D02*
X62646428Y-55631452D01*
X62646428Y-55631452D02*
X62646428Y-55936214D01*
X62646428Y-55936214D02*
X62684524Y-56012404D01*
X62684524Y-56012404D02*
X62722619Y-56050500D01*
X62722619Y-56050500D02*
X62798809Y-56088595D01*
X62798809Y-56088595D02*
X62951190Y-56088595D01*
X62951190Y-56088595D02*
X63027381Y-56050500D01*
X63027381Y-56050500D02*
X63065476Y-56012404D01*
X63065476Y-56012404D02*
X63103571Y-55936214D01*
X63103571Y-55936214D02*
X63103571Y-55745738D01*
X63103571Y-55745738D02*
X63065476Y-55669547D01*
X63065476Y-55669547D02*
X63027381Y-55631452D01*
X63027381Y-55631452D02*
X62951190Y-55593357D01*
X62951190Y-55593357D02*
X62798809Y-55593357D01*
X62798809Y-55593357D02*
X62722619Y-55631452D01*
X62722619Y-55631452D02*
X62684524Y-55669547D01*
X62684524Y-55669547D02*
X62646428Y-55745738D01*
D11*
X242766667Y-52736104D02*
X242728571Y-52774200D01*
X242728571Y-52774200D02*
X242614286Y-52812295D01*
X242614286Y-52812295D02*
X242538095Y-52812295D01*
X242538095Y-52812295D02*
X242423809Y-52774200D01*
X242423809Y-52774200D02*
X242347619Y-52698009D01*
X242347619Y-52698009D02*
X242309524Y-52621819D01*
X242309524Y-52621819D02*
X242271428Y-52469438D01*
X242271428Y-52469438D02*
X242271428Y-52355152D01*
X242271428Y-52355152D02*
X242309524Y-52202771D01*
X242309524Y-52202771D02*
X242347619Y-52126580D01*
X242347619Y-52126580D02*
X242423809Y-52050390D01*
X242423809Y-52050390D02*
X242538095Y-52012295D01*
X242538095Y-52012295D02*
X242614286Y-52012295D01*
X242614286Y-52012295D02*
X242728571Y-52050390D01*
X242728571Y-52050390D02*
X242766667Y-52088485D01*
X243147619Y-52812295D02*
X243300000Y-52812295D01*
X243300000Y-52812295D02*
X243376190Y-52774200D01*
X243376190Y-52774200D02*
X243414286Y-52736104D01*
X243414286Y-52736104D02*
X243490476Y-52621819D01*
X243490476Y-52621819D02*
X243528571Y-52469438D01*
X243528571Y-52469438D02*
X243528571Y-52164676D01*
X243528571Y-52164676D02*
X243490476Y-52088485D01*
X243490476Y-52088485D02*
X243452381Y-52050390D01*
X243452381Y-52050390D02*
X243376190Y-52012295D01*
X243376190Y-52012295D02*
X243223809Y-52012295D01*
X243223809Y-52012295D02*
X243147619Y-52050390D01*
X243147619Y-52050390D02*
X243109524Y-52088485D01*
X243109524Y-52088485D02*
X243071428Y-52164676D01*
X243071428Y-52164676D02*
X243071428Y-52355152D01*
X243071428Y-52355152D02*
X243109524Y-52431342D01*
X243109524Y-52431342D02*
X243147619Y-52469438D01*
X243147619Y-52469438D02*
X243223809Y-52507533D01*
X243223809Y-52507533D02*
X243376190Y-52507533D01*
X243376190Y-52507533D02*
X243452381Y-52469438D01*
X243452381Y-52469438D02*
X243490476Y-52431342D01*
X243490476Y-52431342D02*
X243528571Y-52355152D01*
X226292142Y-39599819D02*
X225958809Y-39123628D01*
X225720714Y-39599819D02*
X225720714Y-38599819D01*
X225720714Y-38599819D02*
X226101666Y-38599819D01*
X226101666Y-38599819D02*
X226196904Y-38647438D01*
X226196904Y-38647438D02*
X226244523Y-38695057D01*
X226244523Y-38695057D02*
X226292142Y-38790295D01*
X226292142Y-38790295D02*
X226292142Y-38933152D01*
X226292142Y-38933152D02*
X226244523Y-39028390D01*
X226244523Y-39028390D02*
X226196904Y-39076009D01*
X226196904Y-39076009D02*
X226101666Y-39123628D01*
X226101666Y-39123628D02*
X225720714Y-39123628D01*
X226673095Y-38695057D02*
X226720714Y-38647438D01*
X226720714Y-38647438D02*
X226815952Y-38599819D01*
X226815952Y-38599819D02*
X227054047Y-38599819D01*
X227054047Y-38599819D02*
X227149285Y-38647438D01*
X227149285Y-38647438D02*
X227196904Y-38695057D01*
X227196904Y-38695057D02*
X227244523Y-38790295D01*
X227244523Y-38790295D02*
X227244523Y-38885533D01*
X227244523Y-38885533D02*
X227196904Y-39028390D01*
X227196904Y-39028390D02*
X226625476Y-39599819D01*
X226625476Y-39599819D02*
X227244523Y-39599819D01*
X228101666Y-38599819D02*
X227911190Y-38599819D01*
X227911190Y-38599819D02*
X227815952Y-38647438D01*
X227815952Y-38647438D02*
X227768333Y-38695057D01*
X227768333Y-38695057D02*
X227673095Y-38837914D01*
X227673095Y-38837914D02*
X227625476Y-39028390D01*
X227625476Y-39028390D02*
X227625476Y-39409342D01*
X227625476Y-39409342D02*
X227673095Y-39504580D01*
X227673095Y-39504580D02*
X227720714Y-39552200D01*
X227720714Y-39552200D02*
X227815952Y-39599819D01*
X227815952Y-39599819D02*
X228006428Y-39599819D01*
X228006428Y-39599819D02*
X228101666Y-39552200D01*
X228101666Y-39552200D02*
X228149285Y-39504580D01*
X228149285Y-39504580D02*
X228196904Y-39409342D01*
X228196904Y-39409342D02*
X228196904Y-39171247D01*
X228196904Y-39171247D02*
X228149285Y-39076009D01*
X228149285Y-39076009D02*
X228101666Y-39028390D01*
X228101666Y-39028390D02*
X228006428Y-38980771D01*
X228006428Y-38980771D02*
X227815952Y-38980771D01*
X227815952Y-38980771D02*
X227720714Y-39028390D01*
X227720714Y-39028390D02*
X227673095Y-39076009D01*
X227673095Y-39076009D02*
X227625476Y-39171247D01*
X133649533Y-96021019D02*
X133316200Y-95544828D01*
X133078105Y-96021019D02*
X133078105Y-95021019D01*
X133078105Y-95021019D02*
X133459057Y-95021019D01*
X133459057Y-95021019D02*
X133554295Y-95068638D01*
X133554295Y-95068638D02*
X133601914Y-95116257D01*
X133601914Y-95116257D02*
X133649533Y-95211495D01*
X133649533Y-95211495D02*
X133649533Y-95354352D01*
X133649533Y-95354352D02*
X133601914Y-95449590D01*
X133601914Y-95449590D02*
X133554295Y-95497209D01*
X133554295Y-95497209D02*
X133459057Y-95544828D01*
X133459057Y-95544828D02*
X133078105Y-95544828D01*
X134601914Y-96021019D02*
X134030486Y-96021019D01*
X134316200Y-96021019D02*
X134316200Y-95021019D01*
X134316200Y-95021019D02*
X134220962Y-95163876D01*
X134220962Y-95163876D02*
X134125724Y-95259114D01*
X134125724Y-95259114D02*
X134030486Y-95306733D01*
X139896905Y-56751409D02*
X139896905Y-55751409D01*
X139896905Y-55751409D02*
X140135000Y-55751409D01*
X140135000Y-55751409D02*
X140277857Y-55799028D01*
X140277857Y-55799028D02*
X140373095Y-55894266D01*
X140373095Y-55894266D02*
X140420714Y-55989504D01*
X140420714Y-55989504D02*
X140468333Y-56179980D01*
X140468333Y-56179980D02*
X140468333Y-56322837D01*
X140468333Y-56322837D02*
X140420714Y-56513313D01*
X140420714Y-56513313D02*
X140373095Y-56608551D01*
X140373095Y-56608551D02*
X140277857Y-56703790D01*
X140277857Y-56703790D02*
X140135000Y-56751409D01*
X140135000Y-56751409D02*
X139896905Y-56751409D01*
X140801667Y-55751409D02*
X141420714Y-55751409D01*
X141420714Y-55751409D02*
X141087381Y-56132361D01*
X141087381Y-56132361D02*
X141230238Y-56132361D01*
X141230238Y-56132361D02*
X141325476Y-56179980D01*
X141325476Y-56179980D02*
X141373095Y-56227599D01*
X141373095Y-56227599D02*
X141420714Y-56322837D01*
X141420714Y-56322837D02*
X141420714Y-56560932D01*
X141420714Y-56560932D02*
X141373095Y-56656170D01*
X141373095Y-56656170D02*
X141325476Y-56703790D01*
X141325476Y-56703790D02*
X141230238Y-56751409D01*
X141230238Y-56751409D02*
X140944524Y-56751409D01*
X140944524Y-56751409D02*
X140849286Y-56703790D01*
X140849286Y-56703790D02*
X140801667Y-56656170D01*
X245316667Y-52766104D02*
X245278571Y-52804200D01*
X245278571Y-52804200D02*
X245164286Y-52842295D01*
X245164286Y-52842295D02*
X245088095Y-52842295D01*
X245088095Y-52842295D02*
X244973809Y-52804200D01*
X244973809Y-52804200D02*
X244897619Y-52728009D01*
X244897619Y-52728009D02*
X244859524Y-52651819D01*
X244859524Y-52651819D02*
X244821428Y-52499438D01*
X244821428Y-52499438D02*
X244821428Y-52385152D01*
X244821428Y-52385152D02*
X244859524Y-52232771D01*
X244859524Y-52232771D02*
X244897619Y-52156580D01*
X244897619Y-52156580D02*
X244973809Y-52080390D01*
X244973809Y-52080390D02*
X245088095Y-52042295D01*
X245088095Y-52042295D02*
X245164286Y-52042295D01*
X245164286Y-52042295D02*
X245278571Y-52080390D01*
X245278571Y-52080390D02*
X245316667Y-52118485D01*
X245583333Y-52042295D02*
X246116667Y-52042295D01*
X246116667Y-52042295D02*
X245773809Y-52842295D01*
D12*
X71107380Y-52100908D02*
X71107380Y-53129003D01*
X71107380Y-53129003D02*
X71167857Y-53249955D01*
X71167857Y-53249955D02*
X71228333Y-53310432D01*
X71228333Y-53310432D02*
X71349285Y-53370908D01*
X71349285Y-53370908D02*
X71591190Y-53370908D01*
X71591190Y-53370908D02*
X71712142Y-53310432D01*
X71712142Y-53310432D02*
X71772619Y-53249955D01*
X71772619Y-53249955D02*
X71833095Y-53129003D01*
X71833095Y-53129003D02*
X71833095Y-52100908D01*
X72377380Y-52221860D02*
X72437856Y-52161384D01*
X72437856Y-52161384D02*
X72558809Y-52100908D01*
X72558809Y-52100908D02*
X72861190Y-52100908D01*
X72861190Y-52100908D02*
X72982142Y-52161384D01*
X72982142Y-52161384D02*
X73042618Y-52221860D01*
X73042618Y-52221860D02*
X73103095Y-52342812D01*
X73103095Y-52342812D02*
X73103095Y-52463765D01*
X73103095Y-52463765D02*
X73042618Y-52645193D01*
X73042618Y-52645193D02*
X72316904Y-53370908D01*
X72316904Y-53370908D02*
X73103095Y-53370908D01*
D10*
X129924722Y-54081709D02*
X128654722Y-54081709D01*
X128654722Y-54081709D02*
X129924722Y-53355994D01*
X129924722Y-53355994D02*
X128654722Y-53355994D01*
X128775674Y-52811709D02*
X128715198Y-52751233D01*
X128715198Y-52751233D02*
X128654722Y-52630280D01*
X128654722Y-52630280D02*
X128654722Y-52327899D01*
X128654722Y-52327899D02*
X128715198Y-52206947D01*
X128715198Y-52206947D02*
X128775674Y-52146471D01*
X128775674Y-52146471D02*
X128896626Y-52085994D01*
X128896626Y-52085994D02*
X129017579Y-52085994D01*
X129017579Y-52085994D02*
X129199007Y-52146471D01*
X129199007Y-52146471D02*
X129924722Y-52872185D01*
X129924722Y-52872185D02*
X129924722Y-52085994D01*
X116243095Y-47028832D02*
X116968809Y-47028832D01*
X116605952Y-48298832D02*
X116605952Y-47028832D01*
X117573571Y-48298832D02*
X117452619Y-48238356D01*
X117452619Y-48238356D02*
X117392142Y-48177879D01*
X117392142Y-48177879D02*
X117331666Y-48056927D01*
X117331666Y-48056927D02*
X117331666Y-47694070D01*
X117331666Y-47694070D02*
X117392142Y-47573117D01*
X117392142Y-47573117D02*
X117452619Y-47512641D01*
X117452619Y-47512641D02*
X117573571Y-47452165D01*
X117573571Y-47452165D02*
X117755000Y-47452165D01*
X117755000Y-47452165D02*
X117875952Y-47512641D01*
X117875952Y-47512641D02*
X117936428Y-47573117D01*
X117936428Y-47573117D02*
X117996904Y-47694070D01*
X117996904Y-47694070D02*
X117996904Y-48056927D01*
X117996904Y-48056927D02*
X117936428Y-48177879D01*
X117936428Y-48177879D02*
X117875952Y-48238356D01*
X117875952Y-48238356D02*
X117755000Y-48298832D01*
X117755000Y-48298832D02*
X117573571Y-48298832D01*
X118541190Y-47452165D02*
X118541190Y-48722165D01*
X118541190Y-47512641D02*
X118662143Y-47452165D01*
X118662143Y-47452165D02*
X118904048Y-47452165D01*
X118904048Y-47452165D02*
X119025000Y-47512641D01*
X119025000Y-47512641D02*
X119085476Y-47573117D01*
X119085476Y-47573117D02*
X119145952Y-47694070D01*
X119145952Y-47694070D02*
X119145952Y-48056927D01*
X119145952Y-48056927D02*
X119085476Y-48177879D01*
X119085476Y-48177879D02*
X119025000Y-48238356D01*
X119025000Y-48238356D02*
X118904048Y-48298832D01*
X118904048Y-48298832D02*
X118662143Y-48298832D01*
X118662143Y-48298832D02*
X118541190Y-48238356D01*
X116908333Y-57793594D02*
X117089761Y-57854070D01*
X117089761Y-57854070D02*
X117150238Y-57914546D01*
X117150238Y-57914546D02*
X117210714Y-58035498D01*
X117210714Y-58035498D02*
X117210714Y-58216927D01*
X117210714Y-58216927D02*
X117150238Y-58337879D01*
X117150238Y-58337879D02*
X117089761Y-58398356D01*
X117089761Y-58398356D02*
X116968809Y-58458832D01*
X116968809Y-58458832D02*
X116484999Y-58458832D01*
X116484999Y-58458832D02*
X116484999Y-57188832D01*
X116484999Y-57188832D02*
X116908333Y-57188832D01*
X116908333Y-57188832D02*
X117029285Y-57249308D01*
X117029285Y-57249308D02*
X117089761Y-57309784D01*
X117089761Y-57309784D02*
X117150238Y-57430736D01*
X117150238Y-57430736D02*
X117150238Y-57551689D01*
X117150238Y-57551689D02*
X117089761Y-57672641D01*
X117089761Y-57672641D02*
X117029285Y-57733117D01*
X117029285Y-57733117D02*
X116908333Y-57793594D01*
X116908333Y-57793594D02*
X116484999Y-57793594D01*
X117936428Y-58458832D02*
X117815476Y-58398356D01*
X117815476Y-58398356D02*
X117754999Y-58337879D01*
X117754999Y-58337879D02*
X117694523Y-58216927D01*
X117694523Y-58216927D02*
X117694523Y-57854070D01*
X117694523Y-57854070D02*
X117754999Y-57733117D01*
X117754999Y-57733117D02*
X117815476Y-57672641D01*
X117815476Y-57672641D02*
X117936428Y-57612165D01*
X117936428Y-57612165D02*
X118117857Y-57612165D01*
X118117857Y-57612165D02*
X118238809Y-57672641D01*
X118238809Y-57672641D02*
X118299285Y-57733117D01*
X118299285Y-57733117D02*
X118359761Y-57854070D01*
X118359761Y-57854070D02*
X118359761Y-58216927D01*
X118359761Y-58216927D02*
X118299285Y-58337879D01*
X118299285Y-58337879D02*
X118238809Y-58398356D01*
X118238809Y-58398356D02*
X118117857Y-58458832D01*
X118117857Y-58458832D02*
X117936428Y-58458832D01*
X118722619Y-57612165D02*
X119206428Y-57612165D01*
X118904047Y-57188832D02*
X118904047Y-58277403D01*
X118904047Y-58277403D02*
X118964524Y-58398356D01*
X118964524Y-58398356D02*
X119085476Y-58458832D01*
X119085476Y-58458832D02*
X119206428Y-58458832D01*
D11*
X159573342Y-99611019D02*
X159240009Y-99134828D01*
X159001914Y-99611019D02*
X159001914Y-98611019D01*
X159001914Y-98611019D02*
X159382866Y-98611019D01*
X159382866Y-98611019D02*
X159478104Y-98658638D01*
X159478104Y-98658638D02*
X159525723Y-98706257D01*
X159525723Y-98706257D02*
X159573342Y-98801495D01*
X159573342Y-98801495D02*
X159573342Y-98944352D01*
X159573342Y-98944352D02*
X159525723Y-99039590D01*
X159525723Y-99039590D02*
X159478104Y-99087209D01*
X159478104Y-99087209D02*
X159382866Y-99134828D01*
X159382866Y-99134828D02*
X159001914Y-99134828D01*
X159954295Y-98706257D02*
X160001914Y-98658638D01*
X160001914Y-98658638D02*
X160097152Y-98611019D01*
X160097152Y-98611019D02*
X160335247Y-98611019D01*
X160335247Y-98611019D02*
X160430485Y-98658638D01*
X160430485Y-98658638D02*
X160478104Y-98706257D01*
X160478104Y-98706257D02*
X160525723Y-98801495D01*
X160525723Y-98801495D02*
X160525723Y-98896733D01*
X160525723Y-98896733D02*
X160478104Y-99039590D01*
X160478104Y-99039590D02*
X159906676Y-99611019D01*
X159906676Y-99611019D02*
X160525723Y-99611019D01*
X161382866Y-98944352D02*
X161382866Y-99611019D01*
X161144771Y-98563400D02*
X160906676Y-99277685D01*
X160906676Y-99277685D02*
X161525723Y-99277685D01*
X94688333Y-34384819D02*
X94355000Y-33908628D01*
X94116905Y-34384819D02*
X94116905Y-33384819D01*
X94116905Y-33384819D02*
X94497857Y-33384819D01*
X94497857Y-33384819D02*
X94593095Y-33432438D01*
X94593095Y-33432438D02*
X94640714Y-33480057D01*
X94640714Y-33480057D02*
X94688333Y-33575295D01*
X94688333Y-33575295D02*
X94688333Y-33718152D01*
X94688333Y-33718152D02*
X94640714Y-33813390D01*
X94640714Y-33813390D02*
X94593095Y-33861009D01*
X94593095Y-33861009D02*
X94497857Y-33908628D01*
X94497857Y-33908628D02*
X94116905Y-33908628D01*
X95545476Y-33718152D02*
X95545476Y-34384819D01*
X95307381Y-33337200D02*
X95069286Y-34051485D01*
X95069286Y-34051485D02*
X95688333Y-34051485D01*
X146783342Y-83821019D02*
X146450009Y-83344828D01*
X146211914Y-83821019D02*
X146211914Y-82821019D01*
X146211914Y-82821019D02*
X146592866Y-82821019D01*
X146592866Y-82821019D02*
X146688104Y-82868638D01*
X146688104Y-82868638D02*
X146735723Y-82916257D01*
X146735723Y-82916257D02*
X146783342Y-83011495D01*
X146783342Y-83011495D02*
X146783342Y-83154352D01*
X146783342Y-83154352D02*
X146735723Y-83249590D01*
X146735723Y-83249590D02*
X146688104Y-83297209D01*
X146688104Y-83297209D02*
X146592866Y-83344828D01*
X146592866Y-83344828D02*
X146211914Y-83344828D01*
X147735723Y-83821019D02*
X147164295Y-83821019D01*
X147450009Y-83821019D02*
X147450009Y-82821019D01*
X147450009Y-82821019D02*
X147354771Y-82963876D01*
X147354771Y-82963876D02*
X147259533Y-83059114D01*
X147259533Y-83059114D02*
X147164295Y-83106733D01*
X148069057Y-82821019D02*
X148688104Y-82821019D01*
X148688104Y-82821019D02*
X148354771Y-83201971D01*
X148354771Y-83201971D02*
X148497628Y-83201971D01*
X148497628Y-83201971D02*
X148592866Y-83249590D01*
X148592866Y-83249590D02*
X148640485Y-83297209D01*
X148640485Y-83297209D02*
X148688104Y-83392447D01*
X148688104Y-83392447D02*
X148688104Y-83630542D01*
X148688104Y-83630542D02*
X148640485Y-83725780D01*
X148640485Y-83725780D02*
X148592866Y-83773400D01*
X148592866Y-83773400D02*
X148497628Y-83821019D01*
X148497628Y-83821019D02*
X148211914Y-83821019D01*
X148211914Y-83821019D02*
X148116676Y-83773400D01*
X148116676Y-83773400D02*
X148069057Y-83725780D01*
X146783342Y-96021019D02*
X146450009Y-95544828D01*
X146211914Y-96021019D02*
X146211914Y-95021019D01*
X146211914Y-95021019D02*
X146592866Y-95021019D01*
X146592866Y-95021019D02*
X146688104Y-95068638D01*
X146688104Y-95068638D02*
X146735723Y-95116257D01*
X146735723Y-95116257D02*
X146783342Y-95211495D01*
X146783342Y-95211495D02*
X146783342Y-95354352D01*
X146783342Y-95354352D02*
X146735723Y-95449590D01*
X146735723Y-95449590D02*
X146688104Y-95497209D01*
X146688104Y-95497209D02*
X146592866Y-95544828D01*
X146592866Y-95544828D02*
X146211914Y-95544828D01*
X147735723Y-96021019D02*
X147164295Y-96021019D01*
X147450009Y-96021019D02*
X147450009Y-95021019D01*
X147450009Y-95021019D02*
X147354771Y-95163876D01*
X147354771Y-95163876D02*
X147259533Y-95259114D01*
X147259533Y-95259114D02*
X147164295Y-95306733D01*
X148592866Y-95021019D02*
X148402390Y-95021019D01*
X148402390Y-95021019D02*
X148307152Y-95068638D01*
X148307152Y-95068638D02*
X148259533Y-95116257D01*
X148259533Y-95116257D02*
X148164295Y-95259114D01*
X148164295Y-95259114D02*
X148116676Y-95449590D01*
X148116676Y-95449590D02*
X148116676Y-95830542D01*
X148116676Y-95830542D02*
X148164295Y-95925780D01*
X148164295Y-95925780D02*
X148211914Y-95973400D01*
X148211914Y-95973400D02*
X148307152Y-96021019D01*
X148307152Y-96021019D02*
X148497628Y-96021019D01*
X148497628Y-96021019D02*
X148592866Y-95973400D01*
X148592866Y-95973400D02*
X148640485Y-95925780D01*
X148640485Y-95925780D02*
X148688104Y-95830542D01*
X148688104Y-95830542D02*
X148688104Y-95592447D01*
X148688104Y-95592447D02*
X148640485Y-95497209D01*
X148640485Y-95497209D02*
X148592866Y-95449590D01*
X148592866Y-95449590D02*
X148497628Y-95401971D01*
X148497628Y-95401971D02*
X148307152Y-95401971D01*
X148307152Y-95401971D02*
X148211914Y-95449590D01*
X148211914Y-95449590D02*
X148164295Y-95497209D01*
X148164295Y-95497209D02*
X148116676Y-95592447D01*
D10*
X198564722Y-54081709D02*
X197294722Y-54081709D01*
X197294722Y-54081709D02*
X198564722Y-53355994D01*
X198564722Y-53355994D02*
X197294722Y-53355994D01*
X197294722Y-52146471D02*
X197294722Y-52751233D01*
X197294722Y-52751233D02*
X197899484Y-52811709D01*
X197899484Y-52811709D02*
X197839007Y-52751233D01*
X197839007Y-52751233D02*
X197778531Y-52630280D01*
X197778531Y-52630280D02*
X197778531Y-52327899D01*
X197778531Y-52327899D02*
X197839007Y-52206947D01*
X197839007Y-52206947D02*
X197899484Y-52146471D01*
X197899484Y-52146471D02*
X198020436Y-52085994D01*
X198020436Y-52085994D02*
X198322817Y-52085994D01*
X198322817Y-52085994D02*
X198443769Y-52146471D01*
X198443769Y-52146471D02*
X198504246Y-52206947D01*
X198504246Y-52206947D02*
X198564722Y-52327899D01*
X198564722Y-52327899D02*
X198564722Y-52630280D01*
X198564722Y-52630280D02*
X198504246Y-52751233D01*
X198504246Y-52751233D02*
X198443769Y-52811709D01*
X184883095Y-47028832D02*
X185608809Y-47028832D01*
X185245952Y-48298832D02*
X185245952Y-47028832D01*
X186213571Y-48298832D02*
X186092619Y-48238356D01*
X186092619Y-48238356D02*
X186032142Y-48177879D01*
X186032142Y-48177879D02*
X185971666Y-48056927D01*
X185971666Y-48056927D02*
X185971666Y-47694070D01*
X185971666Y-47694070D02*
X186032142Y-47573117D01*
X186032142Y-47573117D02*
X186092619Y-47512641D01*
X186092619Y-47512641D02*
X186213571Y-47452165D01*
X186213571Y-47452165D02*
X186395000Y-47452165D01*
X186395000Y-47452165D02*
X186515952Y-47512641D01*
X186515952Y-47512641D02*
X186576428Y-47573117D01*
X186576428Y-47573117D02*
X186636904Y-47694070D01*
X186636904Y-47694070D02*
X186636904Y-48056927D01*
X186636904Y-48056927D02*
X186576428Y-48177879D01*
X186576428Y-48177879D02*
X186515952Y-48238356D01*
X186515952Y-48238356D02*
X186395000Y-48298832D01*
X186395000Y-48298832D02*
X186213571Y-48298832D01*
X187181190Y-47452165D02*
X187181190Y-48722165D01*
X187181190Y-47512641D02*
X187302143Y-47452165D01*
X187302143Y-47452165D02*
X187544048Y-47452165D01*
X187544048Y-47452165D02*
X187665000Y-47512641D01*
X187665000Y-47512641D02*
X187725476Y-47573117D01*
X187725476Y-47573117D02*
X187785952Y-47694070D01*
X187785952Y-47694070D02*
X187785952Y-48056927D01*
X187785952Y-48056927D02*
X187725476Y-48177879D01*
X187725476Y-48177879D02*
X187665000Y-48238356D01*
X187665000Y-48238356D02*
X187544048Y-48298832D01*
X187544048Y-48298832D02*
X187302143Y-48298832D01*
X187302143Y-48298832D02*
X187181190Y-48238356D01*
X185548333Y-57793594D02*
X185729761Y-57854070D01*
X185729761Y-57854070D02*
X185790238Y-57914546D01*
X185790238Y-57914546D02*
X185850714Y-58035498D01*
X185850714Y-58035498D02*
X185850714Y-58216927D01*
X185850714Y-58216927D02*
X185790238Y-58337879D01*
X185790238Y-58337879D02*
X185729761Y-58398356D01*
X185729761Y-58398356D02*
X185608809Y-58458832D01*
X185608809Y-58458832D02*
X185124999Y-58458832D01*
X185124999Y-58458832D02*
X185124999Y-57188832D01*
X185124999Y-57188832D02*
X185548333Y-57188832D01*
X185548333Y-57188832D02*
X185669285Y-57249308D01*
X185669285Y-57249308D02*
X185729761Y-57309784D01*
X185729761Y-57309784D02*
X185790238Y-57430736D01*
X185790238Y-57430736D02*
X185790238Y-57551689D01*
X185790238Y-57551689D02*
X185729761Y-57672641D01*
X185729761Y-57672641D02*
X185669285Y-57733117D01*
X185669285Y-57733117D02*
X185548333Y-57793594D01*
X185548333Y-57793594D02*
X185124999Y-57793594D01*
X186576428Y-58458832D02*
X186455476Y-58398356D01*
X186455476Y-58398356D02*
X186394999Y-58337879D01*
X186394999Y-58337879D02*
X186334523Y-58216927D01*
X186334523Y-58216927D02*
X186334523Y-57854070D01*
X186334523Y-57854070D02*
X186394999Y-57733117D01*
X186394999Y-57733117D02*
X186455476Y-57672641D01*
X186455476Y-57672641D02*
X186576428Y-57612165D01*
X186576428Y-57612165D02*
X186757857Y-57612165D01*
X186757857Y-57612165D02*
X186878809Y-57672641D01*
X186878809Y-57672641D02*
X186939285Y-57733117D01*
X186939285Y-57733117D02*
X186999761Y-57854070D01*
X186999761Y-57854070D02*
X186999761Y-58216927D01*
X186999761Y-58216927D02*
X186939285Y-58337879D01*
X186939285Y-58337879D02*
X186878809Y-58398356D01*
X186878809Y-58398356D02*
X186757857Y-58458832D01*
X186757857Y-58458832D02*
X186576428Y-58458832D01*
X187362619Y-57612165D02*
X187846428Y-57612165D01*
X187544047Y-57188832D02*
X187544047Y-58277403D01*
X187544047Y-58277403D02*
X187604524Y-58398356D01*
X187604524Y-58398356D02*
X187725476Y-58458832D01*
X187725476Y-58458832D02*
X187846428Y-58458832D01*
D11*
X208536905Y-56751409D02*
X208536905Y-55751409D01*
X208536905Y-55751409D02*
X208775000Y-55751409D01*
X208775000Y-55751409D02*
X208917857Y-55799028D01*
X208917857Y-55799028D02*
X209013095Y-55894266D01*
X209013095Y-55894266D02*
X209060714Y-55989504D01*
X209060714Y-55989504D02*
X209108333Y-56179980D01*
X209108333Y-56179980D02*
X209108333Y-56322837D01*
X209108333Y-56322837D02*
X209060714Y-56513313D01*
X209060714Y-56513313D02*
X209013095Y-56608551D01*
X209013095Y-56608551D02*
X208917857Y-56703790D01*
X208917857Y-56703790D02*
X208775000Y-56751409D01*
X208775000Y-56751409D02*
X208536905Y-56751409D01*
X209441667Y-55751409D02*
X210108333Y-55751409D01*
X210108333Y-55751409D02*
X209679762Y-56751409D01*
X146783342Y-90931019D02*
X146450009Y-90454828D01*
X146211914Y-90931019D02*
X146211914Y-89931019D01*
X146211914Y-89931019D02*
X146592866Y-89931019D01*
X146592866Y-89931019D02*
X146688104Y-89978638D01*
X146688104Y-89978638D02*
X146735723Y-90026257D01*
X146735723Y-90026257D02*
X146783342Y-90121495D01*
X146783342Y-90121495D02*
X146783342Y-90264352D01*
X146783342Y-90264352D02*
X146735723Y-90359590D01*
X146735723Y-90359590D02*
X146688104Y-90407209D01*
X146688104Y-90407209D02*
X146592866Y-90454828D01*
X146592866Y-90454828D02*
X146211914Y-90454828D01*
X147735723Y-90931019D02*
X147164295Y-90931019D01*
X147450009Y-90931019D02*
X147450009Y-89931019D01*
X147450009Y-89931019D02*
X147354771Y-90073876D01*
X147354771Y-90073876D02*
X147259533Y-90169114D01*
X147259533Y-90169114D02*
X147164295Y-90216733D01*
X148640485Y-89931019D02*
X148164295Y-89931019D01*
X148164295Y-89931019D02*
X148116676Y-90407209D01*
X148116676Y-90407209D02*
X148164295Y-90359590D01*
X148164295Y-90359590D02*
X148259533Y-90311971D01*
X148259533Y-90311971D02*
X148497628Y-90311971D01*
X148497628Y-90311971D02*
X148592866Y-90359590D01*
X148592866Y-90359590D02*
X148640485Y-90407209D01*
X148640485Y-90407209D02*
X148688104Y-90502447D01*
X148688104Y-90502447D02*
X148688104Y-90740542D01*
X148688104Y-90740542D02*
X148640485Y-90835780D01*
X148640485Y-90835780D02*
X148592866Y-90883400D01*
X148592866Y-90883400D02*
X148497628Y-90931019D01*
X148497628Y-90931019D02*
X148259533Y-90931019D01*
X148259533Y-90931019D02*
X148164295Y-90883400D01*
X148164295Y-90883400D02*
X148116676Y-90835780D01*
X117016905Y-56751409D02*
X117016905Y-55751409D01*
X117016905Y-55751409D02*
X117255000Y-55751409D01*
X117255000Y-55751409D02*
X117397857Y-55799028D01*
X117397857Y-55799028D02*
X117493095Y-55894266D01*
X117493095Y-55894266D02*
X117540714Y-55989504D01*
X117540714Y-55989504D02*
X117588333Y-56179980D01*
X117588333Y-56179980D02*
X117588333Y-56322837D01*
X117588333Y-56322837D02*
X117540714Y-56513313D01*
X117540714Y-56513313D02*
X117493095Y-56608551D01*
X117493095Y-56608551D02*
X117397857Y-56703790D01*
X117397857Y-56703790D02*
X117255000Y-56751409D01*
X117255000Y-56751409D02*
X117016905Y-56751409D01*
X117969286Y-55846647D02*
X118016905Y-55799028D01*
X118016905Y-55799028D02*
X118112143Y-55751409D01*
X118112143Y-55751409D02*
X118350238Y-55751409D01*
X118350238Y-55751409D02*
X118445476Y-55799028D01*
X118445476Y-55799028D02*
X118493095Y-55846647D01*
X118493095Y-55846647D02*
X118540714Y-55941885D01*
X118540714Y-55941885D02*
X118540714Y-56037123D01*
X118540714Y-56037123D02*
X118493095Y-56179980D01*
X118493095Y-56179980D02*
X117921667Y-56751409D01*
X117921667Y-56751409D02*
X118540714Y-56751409D01*
X159573342Y-90931019D02*
X159240009Y-90454828D01*
X159001914Y-90931019D02*
X159001914Y-89931019D01*
X159001914Y-89931019D02*
X159382866Y-89931019D01*
X159382866Y-89931019D02*
X159478104Y-89978638D01*
X159478104Y-89978638D02*
X159525723Y-90026257D01*
X159525723Y-90026257D02*
X159573342Y-90121495D01*
X159573342Y-90121495D02*
X159573342Y-90264352D01*
X159573342Y-90264352D02*
X159525723Y-90359590D01*
X159525723Y-90359590D02*
X159478104Y-90407209D01*
X159478104Y-90407209D02*
X159382866Y-90454828D01*
X159382866Y-90454828D02*
X159001914Y-90454828D01*
X159954295Y-90026257D02*
X160001914Y-89978638D01*
X160001914Y-89978638D02*
X160097152Y-89931019D01*
X160097152Y-89931019D02*
X160335247Y-89931019D01*
X160335247Y-89931019D02*
X160430485Y-89978638D01*
X160430485Y-89978638D02*
X160478104Y-90026257D01*
X160478104Y-90026257D02*
X160525723Y-90121495D01*
X160525723Y-90121495D02*
X160525723Y-90216733D01*
X160525723Y-90216733D02*
X160478104Y-90359590D01*
X160478104Y-90359590D02*
X159906676Y-90931019D01*
X159906676Y-90931019D02*
X160525723Y-90931019D01*
X160906676Y-90026257D02*
X160954295Y-89978638D01*
X160954295Y-89978638D02*
X161049533Y-89931019D01*
X161049533Y-89931019D02*
X161287628Y-89931019D01*
X161287628Y-89931019D02*
X161382866Y-89978638D01*
X161382866Y-89978638D02*
X161430485Y-90026257D01*
X161430485Y-90026257D02*
X161478104Y-90121495D01*
X161478104Y-90121495D02*
X161478104Y-90216733D01*
X161478104Y-90216733D02*
X161430485Y-90359590D01*
X161430485Y-90359590D02*
X160859057Y-90931019D01*
X160859057Y-90931019D02*
X161478104Y-90931019D01*
X241438095Y-63754819D02*
X241438095Y-64564342D01*
X241438095Y-64564342D02*
X241485714Y-64659580D01*
X241485714Y-64659580D02*
X241533333Y-64707200D01*
X241533333Y-64707200D02*
X241628571Y-64754819D01*
X241628571Y-64754819D02*
X241819047Y-64754819D01*
X241819047Y-64754819D02*
X241914285Y-64707200D01*
X241914285Y-64707200D02*
X241961904Y-64659580D01*
X241961904Y-64659580D02*
X242009523Y-64564342D01*
X242009523Y-64564342D02*
X242009523Y-63754819D01*
X243009523Y-64754819D02*
X242438095Y-64754819D01*
X242723809Y-64754819D02*
X242723809Y-63754819D01*
X242723809Y-63754819D02*
X242628571Y-63897676D01*
X242628571Y-63897676D02*
X242533333Y-63992914D01*
X242533333Y-63992914D02*
X242438095Y-64040533D01*
X133759533Y-103131019D02*
X133426200Y-102654828D01*
X133188105Y-103131019D02*
X133188105Y-102131019D01*
X133188105Y-102131019D02*
X133569057Y-102131019D01*
X133569057Y-102131019D02*
X133664295Y-102178638D01*
X133664295Y-102178638D02*
X133711914Y-102226257D01*
X133711914Y-102226257D02*
X133759533Y-102321495D01*
X133759533Y-102321495D02*
X133759533Y-102464352D01*
X133759533Y-102464352D02*
X133711914Y-102559590D01*
X133711914Y-102559590D02*
X133664295Y-102607209D01*
X133664295Y-102607209D02*
X133569057Y-102654828D01*
X133569057Y-102654828D02*
X133188105Y-102654828D01*
X134092867Y-102131019D02*
X134711914Y-102131019D01*
X134711914Y-102131019D02*
X134378581Y-102511971D01*
X134378581Y-102511971D02*
X134521438Y-102511971D01*
X134521438Y-102511971D02*
X134616676Y-102559590D01*
X134616676Y-102559590D02*
X134664295Y-102607209D01*
X134664295Y-102607209D02*
X134711914Y-102702447D01*
X134711914Y-102702447D02*
X134711914Y-102940542D01*
X134711914Y-102940542D02*
X134664295Y-103035780D01*
X134664295Y-103035780D02*
X134616676Y-103083400D01*
X134616676Y-103083400D02*
X134521438Y-103131019D01*
X134521438Y-103131019D02*
X134235724Y-103131019D01*
X134235724Y-103131019D02*
X134140486Y-103083400D01*
X134140486Y-103083400D02*
X134092867Y-103035780D01*
X94136905Y-56751409D02*
X94136905Y-55751409D01*
X94136905Y-55751409D02*
X94375000Y-55751409D01*
X94375000Y-55751409D02*
X94517857Y-55799028D01*
X94517857Y-55799028D02*
X94613095Y-55894266D01*
X94613095Y-55894266D02*
X94660714Y-55989504D01*
X94660714Y-55989504D02*
X94708333Y-56179980D01*
X94708333Y-56179980D02*
X94708333Y-56322837D01*
X94708333Y-56322837D02*
X94660714Y-56513313D01*
X94660714Y-56513313D02*
X94613095Y-56608551D01*
X94613095Y-56608551D02*
X94517857Y-56703790D01*
X94517857Y-56703790D02*
X94375000Y-56751409D01*
X94375000Y-56751409D02*
X94136905Y-56751409D01*
X95660714Y-56751409D02*
X95089286Y-56751409D01*
X95375000Y-56751409D02*
X95375000Y-55751409D01*
X95375000Y-55751409D02*
X95279762Y-55894266D01*
X95279762Y-55894266D02*
X95184524Y-55989504D01*
X95184524Y-55989504D02*
X95089286Y-56037123D01*
X158718342Y-84681019D02*
X158385009Y-84204828D01*
X158146914Y-84681019D02*
X158146914Y-83681019D01*
X158146914Y-83681019D02*
X158527866Y-83681019D01*
X158527866Y-83681019D02*
X158623104Y-83728638D01*
X158623104Y-83728638D02*
X158670723Y-83776257D01*
X158670723Y-83776257D02*
X158718342Y-83871495D01*
X158718342Y-83871495D02*
X158718342Y-84014352D01*
X158718342Y-84014352D02*
X158670723Y-84109590D01*
X158670723Y-84109590D02*
X158623104Y-84157209D01*
X158623104Y-84157209D02*
X158527866Y-84204828D01*
X158527866Y-84204828D02*
X158146914Y-84204828D01*
X159099295Y-83776257D02*
X159146914Y-83728638D01*
X159146914Y-83728638D02*
X159242152Y-83681019D01*
X159242152Y-83681019D02*
X159480247Y-83681019D01*
X159480247Y-83681019D02*
X159575485Y-83728638D01*
X159575485Y-83728638D02*
X159623104Y-83776257D01*
X159623104Y-83776257D02*
X159670723Y-83871495D01*
X159670723Y-83871495D02*
X159670723Y-83966733D01*
X159670723Y-83966733D02*
X159623104Y-84109590D01*
X159623104Y-84109590D02*
X159051676Y-84681019D01*
X159051676Y-84681019D02*
X159670723Y-84681019D01*
X160289771Y-83681019D02*
X160385009Y-83681019D01*
X160385009Y-83681019D02*
X160480247Y-83728638D01*
X160480247Y-83728638D02*
X160527866Y-83776257D01*
X160527866Y-83776257D02*
X160575485Y-83871495D01*
X160575485Y-83871495D02*
X160623104Y-84061971D01*
X160623104Y-84061971D02*
X160623104Y-84300066D01*
X160623104Y-84300066D02*
X160575485Y-84490542D01*
X160575485Y-84490542D02*
X160527866Y-84585780D01*
X160527866Y-84585780D02*
X160480247Y-84633400D01*
X160480247Y-84633400D02*
X160385009Y-84681019D01*
X160385009Y-84681019D02*
X160289771Y-84681019D01*
X160289771Y-84681019D02*
X160194533Y-84633400D01*
X160194533Y-84633400D02*
X160146914Y-84585780D01*
X160146914Y-84585780D02*
X160099295Y-84490542D01*
X160099295Y-84490542D02*
X160051676Y-84300066D01*
X160051676Y-84300066D02*
X160051676Y-84061971D01*
X160051676Y-84061971D02*
X160099295Y-83871495D01*
X160099295Y-83871495D02*
X160146914Y-83776257D01*
X160146914Y-83776257D02*
X160194533Y-83728638D01*
X160194533Y-83728638D02*
X160289771Y-83681019D01*
X136281019Y-111399533D02*
X136995304Y-111399533D01*
X136995304Y-111399533D02*
X137138161Y-111447152D01*
X137138161Y-111447152D02*
X137233400Y-111542390D01*
X137233400Y-111542390D02*
X137281019Y-111685247D01*
X137281019Y-111685247D02*
X137281019Y-111780485D01*
X137281019Y-110399533D02*
X137281019Y-110970961D01*
X137281019Y-110685247D02*
X136281019Y-110685247D01*
X136281019Y-110685247D02*
X136423876Y-110780485D01*
X136423876Y-110780485D02*
X136519114Y-110875723D01*
X136519114Y-110875723D02*
X136566733Y-110970961D01*
D13*
X59691667Y-56012404D02*
X59653571Y-56050500D01*
X59653571Y-56050500D02*
X59539286Y-56088595D01*
X59539286Y-56088595D02*
X59463095Y-56088595D01*
X59463095Y-56088595D02*
X59348809Y-56050500D01*
X59348809Y-56050500D02*
X59272619Y-55974309D01*
X59272619Y-55974309D02*
X59234524Y-55898119D01*
X59234524Y-55898119D02*
X59196428Y-55745738D01*
X59196428Y-55745738D02*
X59196428Y-55631452D01*
X59196428Y-55631452D02*
X59234524Y-55479071D01*
X59234524Y-55479071D02*
X59272619Y-55402880D01*
X59272619Y-55402880D02*
X59348809Y-55326690D01*
X59348809Y-55326690D02*
X59463095Y-55288595D01*
X59463095Y-55288595D02*
X59539286Y-55288595D01*
X59539286Y-55288595D02*
X59653571Y-55326690D01*
X59653571Y-55326690D02*
X59691667Y-55364785D01*
X60148809Y-55631452D02*
X60072619Y-55593357D01*
X60072619Y-55593357D02*
X60034524Y-55555261D01*
X60034524Y-55555261D02*
X59996428Y-55479071D01*
X59996428Y-55479071D02*
X59996428Y-55440976D01*
X59996428Y-55440976D02*
X60034524Y-55364785D01*
X60034524Y-55364785D02*
X60072619Y-55326690D01*
X60072619Y-55326690D02*
X60148809Y-55288595D01*
X60148809Y-55288595D02*
X60301190Y-55288595D01*
X60301190Y-55288595D02*
X60377381Y-55326690D01*
X60377381Y-55326690D02*
X60415476Y-55364785D01*
X60415476Y-55364785D02*
X60453571Y-55440976D01*
X60453571Y-55440976D02*
X60453571Y-55479071D01*
X60453571Y-55479071D02*
X60415476Y-55555261D01*
X60415476Y-55555261D02*
X60377381Y-55593357D01*
X60377381Y-55593357D02*
X60301190Y-55631452D01*
X60301190Y-55631452D02*
X60148809Y-55631452D01*
X60148809Y-55631452D02*
X60072619Y-55669547D01*
X60072619Y-55669547D02*
X60034524Y-55707642D01*
X60034524Y-55707642D02*
X59996428Y-55783833D01*
X59996428Y-55783833D02*
X59996428Y-55936214D01*
X59996428Y-55936214D02*
X60034524Y-56012404D01*
X60034524Y-56012404D02*
X60072619Y-56050500D01*
X60072619Y-56050500D02*
X60148809Y-56088595D01*
X60148809Y-56088595D02*
X60301190Y-56088595D01*
X60301190Y-56088595D02*
X60377381Y-56050500D01*
X60377381Y-56050500D02*
X60415476Y-56012404D01*
X60415476Y-56012404D02*
X60453571Y-55936214D01*
X60453571Y-55936214D02*
X60453571Y-55783833D01*
X60453571Y-55783833D02*
X60415476Y-55707642D01*
X60415476Y-55707642D02*
X60377381Y-55669547D01*
X60377381Y-55669547D02*
X60301190Y-55631452D01*
D11*
X209088333Y-34384819D02*
X208755000Y-33908628D01*
X208516905Y-34384819D02*
X208516905Y-33384819D01*
X208516905Y-33384819D02*
X208897857Y-33384819D01*
X208897857Y-33384819D02*
X208993095Y-33432438D01*
X208993095Y-33432438D02*
X209040714Y-33480057D01*
X209040714Y-33480057D02*
X209088333Y-33575295D01*
X209088333Y-33575295D02*
X209088333Y-33718152D01*
X209088333Y-33718152D02*
X209040714Y-33813390D01*
X209040714Y-33813390D02*
X208993095Y-33861009D01*
X208993095Y-33861009D02*
X208897857Y-33908628D01*
X208897857Y-33908628D02*
X208516905Y-33908628D01*
X209564524Y-34384819D02*
X209755000Y-34384819D01*
X209755000Y-34384819D02*
X209850238Y-34337200D01*
X209850238Y-34337200D02*
X209897857Y-34289580D01*
X209897857Y-34289580D02*
X209993095Y-34146723D01*
X209993095Y-34146723D02*
X210040714Y-33956247D01*
X210040714Y-33956247D02*
X210040714Y-33575295D01*
X210040714Y-33575295D02*
X209993095Y-33480057D01*
X209993095Y-33480057D02*
X209945476Y-33432438D01*
X209945476Y-33432438D02*
X209850238Y-33384819D01*
X209850238Y-33384819D02*
X209659762Y-33384819D01*
X209659762Y-33384819D02*
X209564524Y-33432438D01*
X209564524Y-33432438D02*
X209516905Y-33480057D01*
X209516905Y-33480057D02*
X209469286Y-33575295D01*
X209469286Y-33575295D02*
X209469286Y-33813390D01*
X209469286Y-33813390D02*
X209516905Y-33908628D01*
X209516905Y-33908628D02*
X209564524Y-33956247D01*
X209564524Y-33956247D02*
X209659762Y-34003866D01*
X209659762Y-34003866D02*
X209850238Y-34003866D01*
X209850238Y-34003866D02*
X209945476Y-33956247D01*
X209945476Y-33956247D02*
X209993095Y-33908628D01*
X209993095Y-33908628D02*
X210040714Y-33813390D01*
X58297142Y-40284819D02*
X57963809Y-39808628D01*
X57725714Y-40284819D02*
X57725714Y-39284819D01*
X57725714Y-39284819D02*
X58106666Y-39284819D01*
X58106666Y-39284819D02*
X58201904Y-39332438D01*
X58201904Y-39332438D02*
X58249523Y-39380057D01*
X58249523Y-39380057D02*
X58297142Y-39475295D01*
X58297142Y-39475295D02*
X58297142Y-39618152D01*
X58297142Y-39618152D02*
X58249523Y-39713390D01*
X58249523Y-39713390D02*
X58201904Y-39761009D01*
X58201904Y-39761009D02*
X58106666Y-39808628D01*
X58106666Y-39808628D02*
X57725714Y-39808628D01*
X59249523Y-40284819D02*
X58678095Y-40284819D01*
X58963809Y-40284819D02*
X58963809Y-39284819D01*
X58963809Y-39284819D02*
X58868571Y-39427676D01*
X58868571Y-39427676D02*
X58773333Y-39522914D01*
X58773333Y-39522914D02*
X58678095Y-39570533D01*
X59820952Y-39713390D02*
X59725714Y-39665771D01*
X59725714Y-39665771D02*
X59678095Y-39618152D01*
X59678095Y-39618152D02*
X59630476Y-39522914D01*
X59630476Y-39522914D02*
X59630476Y-39475295D01*
X59630476Y-39475295D02*
X59678095Y-39380057D01*
X59678095Y-39380057D02*
X59725714Y-39332438D01*
X59725714Y-39332438D02*
X59820952Y-39284819D01*
X59820952Y-39284819D02*
X60011428Y-39284819D01*
X60011428Y-39284819D02*
X60106666Y-39332438D01*
X60106666Y-39332438D02*
X60154285Y-39380057D01*
X60154285Y-39380057D02*
X60201904Y-39475295D01*
X60201904Y-39475295D02*
X60201904Y-39522914D01*
X60201904Y-39522914D02*
X60154285Y-39618152D01*
X60154285Y-39618152D02*
X60106666Y-39665771D01*
X60106666Y-39665771D02*
X60011428Y-39713390D01*
X60011428Y-39713390D02*
X59820952Y-39713390D01*
X59820952Y-39713390D02*
X59725714Y-39761009D01*
X59725714Y-39761009D02*
X59678095Y-39808628D01*
X59678095Y-39808628D02*
X59630476Y-39903866D01*
X59630476Y-39903866D02*
X59630476Y-40094342D01*
X59630476Y-40094342D02*
X59678095Y-40189580D01*
X59678095Y-40189580D02*
X59725714Y-40237200D01*
X59725714Y-40237200D02*
X59820952Y-40284819D01*
X59820952Y-40284819D02*
X60011428Y-40284819D01*
X60011428Y-40284819D02*
X60106666Y-40237200D01*
X60106666Y-40237200D02*
X60154285Y-40189580D01*
X60154285Y-40189580D02*
X60201904Y-40094342D01*
X60201904Y-40094342D02*
X60201904Y-39903866D01*
X60201904Y-39903866D02*
X60154285Y-39808628D01*
X60154285Y-39808628D02*
X60106666Y-39761009D01*
X60106666Y-39761009D02*
X60011428Y-39713390D01*
X141649471Y-69658333D02*
X142363756Y-69658333D01*
X142363756Y-69658333D02*
X142506613Y-69705952D01*
X142506613Y-69705952D02*
X142601852Y-69801190D01*
X142601852Y-69801190D02*
X142649471Y-69944047D01*
X142649471Y-69944047D02*
X142649471Y-70039285D01*
X141744709Y-69229761D02*
X141697090Y-69182142D01*
X141697090Y-69182142D02*
X141649471Y-69086904D01*
X141649471Y-69086904D02*
X141649471Y-68848809D01*
X141649471Y-68848809D02*
X141697090Y-68753571D01*
X141697090Y-68753571D02*
X141744709Y-68705952D01*
X141744709Y-68705952D02*
X141839947Y-68658333D01*
X141839947Y-68658333D02*
X141935185Y-68658333D01*
X141935185Y-68658333D02*
X142078042Y-68705952D01*
X142078042Y-68705952D02*
X142649471Y-69277380D01*
X142649471Y-69277380D02*
X142649471Y-68658333D01*
X49291666Y-58361409D02*
X49291666Y-59075694D01*
X49291666Y-59075694D02*
X49244047Y-59218551D01*
X49244047Y-59218551D02*
X49148809Y-59313790D01*
X49148809Y-59313790D02*
X49005952Y-59361409D01*
X49005952Y-59361409D02*
X48910714Y-59361409D01*
X49767857Y-59361409D02*
X49767857Y-58361409D01*
X49767857Y-58361409D02*
X50148809Y-58361409D01*
X50148809Y-58361409D02*
X50244047Y-58409028D01*
X50244047Y-58409028D02*
X50291666Y-58456647D01*
X50291666Y-58456647D02*
X50339285Y-58551885D01*
X50339285Y-58551885D02*
X50339285Y-58694742D01*
X50339285Y-58694742D02*
X50291666Y-58789980D01*
X50291666Y-58789980D02*
X50244047Y-58837599D01*
X50244047Y-58837599D02*
X50148809Y-58885218D01*
X50148809Y-58885218D02*
X49767857Y-58885218D01*
X51291666Y-59361409D02*
X50720238Y-59361409D01*
X51005952Y-59361409D02*
X51005952Y-58361409D01*
X51005952Y-58361409D02*
X50910714Y-58504266D01*
X50910714Y-58504266D02*
X50815476Y-58599504D01*
X50815476Y-58599504D02*
X50720238Y-58647123D01*
%TO.C,N4*%
D12*
X153593760Y-62717830D02*
X153593760Y-42875350D01*
X173436240Y-42875350D02*
X173436240Y-62717830D01*
X153593760Y-42875350D02*
G75*
G02*
X173437433Y-42876771I9921240J-8326120D01*
G01*
X173436240Y-62717830D02*
G75*
G02*
X153592567Y-62716409I-9921240J8326119D01*
G01*
%TO.C,N3*%
X130713760Y-62717830D02*
X130713760Y-42875350D01*
X150556240Y-42875350D02*
X150556240Y-62717830D01*
X130713760Y-42875350D02*
G75*
G02*
X150557433Y-42876771I9921240J-8326120D01*
G01*
X150556240Y-62717830D02*
G75*
G02*
X130712567Y-62716409I-9921240J8326119D01*
G01*
%TO.C,R27*%
D14*
X242780000Y-40655000D02*
X242780000Y-47195000D01*
X242780000Y-47195000D02*
X243110000Y-47195000D01*
X243110000Y-40655000D02*
X242780000Y-40655000D01*
X245190000Y-40655000D02*
X245520000Y-40655000D01*
X245520000Y-40655000D02*
X245520000Y-47195000D01*
X245520000Y-47195000D02*
X245190000Y-47195000D01*
%TO.C,R12*%
X130656200Y-91476200D02*
X137196200Y-91476200D01*
X130656200Y-91806200D02*
X130656200Y-91476200D01*
X130656200Y-93886200D02*
X130656200Y-94216200D01*
X130656200Y-94216200D02*
X137196200Y-94216200D01*
X137196200Y-91476200D02*
X137196200Y-91806200D01*
X137196200Y-94216200D02*
X137196200Y-93886200D01*
%TO.C,R2*%
X130656200Y-100156200D02*
X137196200Y-100156200D01*
X130656200Y-100486200D02*
X130656200Y-100156200D01*
X130656200Y-102566200D02*
X130656200Y-102896200D01*
X130656200Y-102896200D02*
X137196200Y-102896200D01*
X137196200Y-100156200D02*
X137196200Y-100486200D01*
X137196200Y-102896200D02*
X137196200Y-102566200D01*
%TO.C,R21*%
X156946200Y-87956200D02*
X163486200Y-87956200D01*
X156946200Y-88286200D02*
X156946200Y-87956200D01*
X156946200Y-90366200D02*
X156946200Y-90696200D01*
X156946200Y-90696200D02*
X163486200Y-90696200D01*
X163486200Y-87956200D02*
X163486200Y-88286200D01*
X163486200Y-90696200D02*
X163486200Y-90366200D01*
%TO.C,D4*%
X160015000Y-50046590D02*
X160015000Y-55546590D01*
X160015000Y-50046590D02*
X167015000Y-50046590D01*
X160015000Y-55546590D02*
X166565000Y-55546590D01*
X160815000Y-53696590D02*
X160815000Y-51896590D01*
X166215000Y-53696590D02*
X166215000Y-51896590D01*
X166565000Y-55546590D02*
X167015000Y-55096590D01*
X167015000Y-55096590D02*
X167015000Y-50046590D01*
%TO.C,R10*%
X130656200Y-84366200D02*
X137196200Y-84366200D01*
X130656200Y-84696200D02*
X130656200Y-84366200D01*
X130656200Y-86776200D02*
X130656200Y-87106200D01*
X130656200Y-87106200D02*
X137196200Y-87106200D01*
X137196200Y-84366200D02*
X137196200Y-84696200D01*
X137196200Y-87106200D02*
X137196200Y-86776200D01*
%TO.C,Q1*%
X247627500Y-65577500D02*
X249147500Y-65577500D01*
X247627500Y-65627500D02*
X247627500Y-65577500D01*
X247627500Y-67527500D02*
X247627500Y-66747500D01*
X247627500Y-68697500D02*
X247627500Y-68647500D01*
X249147500Y-65577500D02*
X249147500Y-66577500D01*
X249147500Y-67697500D02*
X249147500Y-68697500D01*
X249147500Y-68697500D02*
X247627500Y-68697500D01*
X247087500Y-66757500D02*
X247327500Y-67087500D01*
X246847500Y-67087500D01*
X247087500Y-66757500D01*
G36*
X247327500Y-67087500D02*
G01*
X246847500Y-67087500D01*
X247087500Y-66757500D01*
X247327500Y-67087500D01*
G37*
%TO.C,D6*%
X182895000Y-50046590D02*
X182895000Y-55546590D01*
X182895000Y-50046590D02*
X189895000Y-50046590D01*
X182895000Y-55546590D02*
X189445000Y-55546590D01*
X183695000Y-53696590D02*
X183695000Y-51896590D01*
X189095000Y-53696590D02*
X189095000Y-51896590D01*
X189445000Y-55546590D02*
X189895000Y-55096590D01*
X189895000Y-55096590D02*
X189895000Y-50046590D01*
%TO.C,D5*%
X49765000Y-40964000D02*
X49765000Y-41120000D01*
X49765000Y-43280000D02*
X49765000Y-43436000D01*
X49765000Y-40964484D02*
G75*
G02*
X52996437Y-41120000I1560000J-1235516D01*
G01*
X50284039Y-41120000D02*
G75*
G02*
X52365961Y-41120000I1040961J-1080000D01*
G01*
X52365961Y-43280000D02*
G75*
G02*
X50284039Y-43280000I-1040961J1080000D01*
G01*
X52996437Y-43280000D02*
G75*
G02*
X49765000Y-43435516I-1671437J1080000D01*
G01*
%TO.C,R14*%
X144156200Y-87956200D02*
X150696200Y-87956200D01*
X144156200Y-88286200D02*
X144156200Y-87956200D01*
X144156200Y-90366200D02*
X144156200Y-90696200D01*
X144156200Y-90696200D02*
X150696200Y-90696200D01*
X150696200Y-87956200D02*
X150696200Y-88286200D01*
X150696200Y-90696200D02*
X150696200Y-90366200D01*
%TO.C,R7*%
X160225000Y-34930000D02*
X166765000Y-34930000D01*
X160225000Y-35260000D02*
X160225000Y-34930000D01*
X160225000Y-37340000D02*
X160225000Y-37670000D01*
X160225000Y-37670000D02*
X166765000Y-37670000D01*
X166765000Y-34930000D02*
X166765000Y-35260000D01*
X166765000Y-37670000D02*
X166765000Y-37340000D01*
%TO.C,R25*%
X156946200Y-103676200D02*
X163486200Y-103676200D01*
X156946200Y-104006200D02*
X156946200Y-103676200D01*
X156946200Y-106086200D02*
X156946200Y-106416200D01*
X156946200Y-106416200D02*
X163486200Y-106416200D01*
X163486200Y-103676200D02*
X163486200Y-104006200D01*
X163486200Y-106416200D02*
X163486200Y-106086200D01*
%TO.C,R23*%
X156946200Y-96566200D02*
X163486200Y-96566200D01*
X156946200Y-96896200D02*
X156946200Y-96566200D01*
X156946200Y-98976200D02*
X156946200Y-99306200D01*
X156946200Y-99306200D02*
X163486200Y-99306200D01*
X163486200Y-96566200D02*
X163486200Y-96896200D01*
X163486200Y-99306200D02*
X163486200Y-98976200D01*
%TO.C,R11*%
X130656200Y-87956200D02*
X137196200Y-87956200D01*
X130656200Y-88286200D02*
X130656200Y-87956200D01*
X130656200Y-90366200D02*
X130656200Y-90696200D01*
X130656200Y-90696200D02*
X137196200Y-90696200D01*
X137196200Y-87956200D02*
X137196200Y-88286200D01*
X137196200Y-90696200D02*
X137196200Y-90366200D01*
%TO.C,R5*%
X113785000Y-34930000D02*
X120325000Y-34930000D01*
X113785000Y-35260000D02*
X113785000Y-34930000D01*
X113785000Y-37340000D02*
X113785000Y-37670000D01*
X113785000Y-37670000D02*
X120325000Y-37670000D01*
X120325000Y-34930000D02*
X120325000Y-35260000D01*
X120325000Y-37670000D02*
X120325000Y-37340000D01*
%TO.C,R6*%
X137345000Y-34930000D02*
X143885000Y-34930000D01*
X137345000Y-35260000D02*
X137345000Y-34930000D01*
X137345000Y-37340000D02*
X137345000Y-37670000D01*
X137345000Y-37670000D02*
X143885000Y-37670000D01*
X143885000Y-34930000D02*
X143885000Y-35260000D01*
X143885000Y-37670000D02*
X143885000Y-37340000D01*
%TO.C,N6*%
D12*
X199353760Y-62717830D02*
X199353760Y-42875350D01*
X219196240Y-42875350D02*
X219196240Y-62717830D01*
X199353760Y-42875350D02*
G75*
G02*
X219197433Y-42876771I9921240J-8326120D01*
G01*
X219196240Y-62717830D02*
G75*
G02*
X199352567Y-62716409I-9921240J8326119D01*
G01*
%TO.C,U3*%
D15*
X226875000Y-47596590D02*
X237275000Y-47596590D01*
X226875000Y-57996590D02*
X226875000Y-47596590D01*
X237275000Y-47596590D02*
X237275000Y-57996590D01*
X237275000Y-57996590D02*
X226875000Y-57996590D01*
D16*
X225225000Y-47596590D02*
G75*
G02*
X224825000Y-47596590I-200000J0D01*
G01*
X224825000Y-47596590D02*
G75*
G02*
X225225000Y-47596590I200000J0D01*
G01*
%TO.C,R17*%
D14*
X144156200Y-100086200D02*
X150696200Y-100086200D01*
X144156200Y-100416200D02*
X144156200Y-100086200D01*
X144156200Y-102496200D02*
X144156200Y-102826200D01*
X144156200Y-102826200D02*
X150696200Y-102826200D01*
X150696200Y-100086200D02*
X150696200Y-100416200D01*
X150696200Y-102826200D02*
X150696200Y-102496200D01*
%TO.C,R8*%
X183105000Y-34930000D02*
X189645000Y-34930000D01*
X183105000Y-35260000D02*
X183105000Y-34930000D01*
X183105000Y-37340000D02*
X183105000Y-37670000D01*
X183105000Y-37670000D02*
X189645000Y-37670000D01*
X189645000Y-34930000D02*
X189645000Y-35260000D01*
X189645000Y-37670000D02*
X189645000Y-37340000D01*
%TO.C,R19*%
X144156200Y-103676200D02*
X150696200Y-103676200D01*
X144156200Y-104006200D02*
X144156200Y-103676200D01*
X144156200Y-106086200D02*
X144156200Y-106416200D01*
X144156200Y-106416200D02*
X150696200Y-106416200D01*
X150696200Y-103676200D02*
X150696200Y-104006200D01*
X150696200Y-106416200D02*
X150696200Y-106086200D01*
%TO.C,N1*%
D12*
X84953760Y-62717830D02*
X84953760Y-42875350D01*
X104796240Y-42875350D02*
X104796240Y-62717830D01*
X84953760Y-42875350D02*
G75*
G02*
X104797433Y-42876771I9921240J-8326120D01*
G01*
X104796240Y-62717830D02*
G75*
G02*
X84952567Y-62716409I-9921240J8326119D01*
G01*
%TO.C,J3*%
D14*
X145160600Y-80691200D02*
X145160600Y-81026170D01*
X145160600Y-81846230D02*
X145160600Y-82181200D01*
X147035600Y-80691200D02*
X145160600Y-80691200D01*
X147035600Y-80691200D02*
X147035600Y-80750635D01*
X147035600Y-82121765D02*
X147035600Y-82181200D01*
X147035600Y-82181200D02*
X145160600Y-82181200D01*
X147770600Y-80691200D02*
X148505600Y-80691200D01*
X148505600Y-80691200D02*
X148505600Y-81436200D01*
%TO.C,C6*%
X58755000Y-54055000D02*
X58903000Y-54055000D01*
X58755000Y-57295000D02*
X58755000Y-54055000D01*
X58903000Y-57295000D02*
X58755000Y-57295000D01*
X60847000Y-54055000D02*
X60995000Y-54055000D01*
X60995000Y-54055000D02*
X60995000Y-57295000D01*
X60995000Y-57295000D02*
X60847000Y-57295000D01*
%TO.C,C9*%
X241805000Y-50805000D02*
X241953000Y-50805000D01*
X241805000Y-54045000D02*
X241805000Y-50805000D01*
X241953000Y-54045000D02*
X241805000Y-54045000D01*
X243897000Y-50805000D02*
X244045000Y-50805000D01*
X244045000Y-50805000D02*
X244045000Y-54045000D01*
X244045000Y-54045000D02*
X243897000Y-54045000D01*
%TO.C,R26*%
X223665000Y-35405000D02*
X223665000Y-35735000D01*
X223665000Y-38145000D02*
X223665000Y-37815000D01*
X230205000Y-35405000D02*
X223665000Y-35405000D01*
X230205000Y-35735000D02*
X230205000Y-35405000D01*
X230205000Y-37815000D02*
X230205000Y-38145000D01*
X230205000Y-38145000D02*
X223665000Y-38145000D01*
%TO.C,R1*%
X130656200Y-96566200D02*
X137196200Y-96566200D01*
X130656200Y-96896200D02*
X130656200Y-96566200D01*
X130656200Y-98976200D02*
X130656200Y-99306200D01*
X130656200Y-99306200D02*
X137196200Y-99306200D01*
X137196200Y-96566200D02*
X137196200Y-96896200D01*
X137196200Y-99306200D02*
X137196200Y-98976200D01*
%TO.C,D3*%
X137135000Y-50046590D02*
X137135000Y-55546590D01*
X137135000Y-50046590D02*
X144135000Y-50046590D01*
X137135000Y-55546590D02*
X143685000Y-55546590D01*
X137935000Y-53696590D02*
X137935000Y-51896590D01*
X143335000Y-53696590D02*
X143335000Y-51896590D01*
X143685000Y-55546590D02*
X144135000Y-55096590D01*
X144135000Y-55096590D02*
X144135000Y-50046590D01*
%TO.C,C7*%
X244330000Y-50805000D02*
X244478000Y-50805000D01*
X244330000Y-54045000D02*
X244330000Y-50805000D01*
X244478000Y-54045000D02*
X244330000Y-54045000D01*
X246422000Y-50805000D02*
X246570000Y-50805000D01*
X246570000Y-50805000D02*
X246570000Y-54045000D01*
X246570000Y-54045000D02*
X246422000Y-54045000D01*
%TO.C,U2*%
D15*
X66875000Y-47596590D02*
X77275000Y-47596590D01*
X66875000Y-57996590D02*
X66875000Y-47596590D01*
X77275000Y-47596590D02*
X77275000Y-57996590D01*
X77275000Y-57996590D02*
X66875000Y-57996590D01*
D16*
X79325000Y-57996590D02*
G75*
G02*
X78925000Y-57996590I-200000J0D01*
G01*
X78925000Y-57996590D02*
G75*
G02*
X79325000Y-57996590I200000J0D01*
G01*
%TO.C,N2*%
D12*
X107833760Y-62717830D02*
X107833760Y-42875350D01*
X127676240Y-42875350D02*
X127676240Y-62717830D01*
X107833760Y-42875350D02*
G75*
G02*
X127677433Y-42876771I9921240J-8326120D01*
G01*
X127676240Y-62717830D02*
G75*
G02*
X107832567Y-62716409I-9921240J8326119D01*
G01*
%TO.C,R24*%
D14*
X156946200Y-100156200D02*
X163486200Y-100156200D01*
X156946200Y-100486200D02*
X156946200Y-100156200D01*
X156946200Y-102566200D02*
X156946200Y-102896200D01*
X156946200Y-102896200D02*
X163486200Y-102896200D01*
X163486200Y-100156200D02*
X163486200Y-100486200D01*
X163486200Y-102896200D02*
X163486200Y-102566200D01*
%TO.C,R4*%
X91585000Y-34930000D02*
X98125000Y-34930000D01*
X91585000Y-35260000D02*
X91585000Y-34930000D01*
X91585000Y-37340000D02*
X91585000Y-37670000D01*
X91585000Y-37670000D02*
X98125000Y-37670000D01*
X98125000Y-34930000D02*
X98125000Y-35260000D01*
X98125000Y-37670000D02*
X98125000Y-37340000D01*
%TO.C,R13*%
X144156200Y-84366200D02*
X150696200Y-84366200D01*
X144156200Y-84696200D02*
X144156200Y-84366200D01*
X144156200Y-86776200D02*
X144156200Y-87106200D01*
X144156200Y-87106200D02*
X150696200Y-87106200D01*
X150696200Y-84366200D02*
X150696200Y-84696200D01*
X150696200Y-87106200D02*
X150696200Y-86776200D01*
%TO.C,R16*%
X144156200Y-96566200D02*
X150696200Y-96566200D01*
X144156200Y-96896200D02*
X144156200Y-96566200D01*
X144156200Y-98976200D02*
X144156200Y-99306200D01*
X144156200Y-99306200D02*
X150696200Y-99306200D01*
X150696200Y-96566200D02*
X150696200Y-96896200D01*
X150696200Y-99306200D02*
X150696200Y-98976200D01*
%TO.C,N5*%
D12*
X176473760Y-62717830D02*
X176473760Y-42875350D01*
X196316240Y-42875350D02*
X196316240Y-62717830D01*
X176473760Y-42875350D02*
G75*
G02*
X196317433Y-42876771I9921240J-8326120D01*
G01*
X196316240Y-62717830D02*
G75*
G02*
X176472567Y-62716409I-9921240J8326119D01*
G01*
%TO.C,D7*%
D14*
X205775000Y-50046590D02*
X205775000Y-55546590D01*
X205775000Y-50046590D02*
X212775000Y-50046590D01*
X205775000Y-55546590D02*
X212325000Y-55546590D01*
X206575000Y-53696590D02*
X206575000Y-51896590D01*
X211975000Y-53696590D02*
X211975000Y-51896590D01*
X212325000Y-55546590D02*
X212775000Y-55096590D01*
X212775000Y-55096590D02*
X212775000Y-50046590D01*
%TO.C,R15*%
X144156200Y-91476200D02*
X150696200Y-91476200D01*
X144156200Y-91806200D02*
X144156200Y-91476200D01*
X144156200Y-93886200D02*
X144156200Y-94216200D01*
X144156200Y-94216200D02*
X150696200Y-94216200D01*
X150696200Y-91476200D02*
X150696200Y-91806200D01*
X150696200Y-94216200D02*
X150696200Y-93886200D01*
%TO.C,D2*%
X114255000Y-50046590D02*
X114255000Y-55546590D01*
X114255000Y-50046590D02*
X121255000Y-50046590D01*
X114255000Y-55546590D02*
X120805000Y-55546590D01*
X115055000Y-53696590D02*
X115055000Y-51896590D01*
X120455000Y-53696590D02*
X120455000Y-51896590D01*
X120805000Y-55546590D02*
X121255000Y-55096590D01*
X121255000Y-55096590D02*
X121255000Y-50046590D01*
%TO.C,R22*%
X156946200Y-91476200D02*
X163486200Y-91476200D01*
X156946200Y-91806200D02*
X156946200Y-91476200D01*
X156946200Y-93886200D02*
X156946200Y-94216200D01*
X156946200Y-94216200D02*
X163486200Y-94216200D01*
X163486200Y-91476200D02*
X163486200Y-91806200D01*
X163486200Y-94216200D02*
X163486200Y-93886200D01*
%TO.C,U1*%
X241300000Y-68810000D02*
X243100000Y-68810000D01*
X242300000Y-65590000D02*
X241500000Y-65590000D01*
X242300000Y-65590000D02*
X243100000Y-65590000D01*
X241000000Y-65640000D02*
X240760000Y-65310000D01*
X241240000Y-65310000D01*
X241000000Y-65640000D01*
G36*
X241000000Y-65640000D02*
G01*
X240760000Y-65310000D01*
X241240000Y-65310000D01*
X241000000Y-65640000D01*
G37*
%TO.C,R3*%
X130656200Y-103676200D02*
X137196200Y-103676200D01*
X130656200Y-104006200D02*
X130656200Y-103676200D01*
X130656200Y-106086200D02*
X130656200Y-106416200D01*
X130656200Y-106416200D02*
X137196200Y-106416200D01*
X137196200Y-103676200D02*
X137196200Y-104006200D01*
X137196200Y-106416200D02*
X137196200Y-106086200D01*
%TO.C,D1*%
X91375000Y-50046590D02*
X91375000Y-55546590D01*
X91375000Y-50046590D02*
X98375000Y-50046590D01*
X91375000Y-55546590D02*
X97925000Y-55546590D01*
X92175000Y-53696590D02*
X92175000Y-51896590D01*
X97575000Y-53696590D02*
X97575000Y-51896590D01*
X97925000Y-55546590D02*
X98375000Y-55096590D01*
X98375000Y-55096590D02*
X98375000Y-50046590D01*
%TO.C,R20*%
X156946200Y-84366200D02*
X163486200Y-84366200D01*
X156946200Y-84696200D02*
X156946200Y-84366200D01*
X156946200Y-86776200D02*
X156946200Y-87106200D01*
X156946200Y-87106200D02*
X163486200Y-87106200D01*
X163486200Y-84366200D02*
X163486200Y-84696200D01*
X163486200Y-87106200D02*
X163486200Y-86776200D01*
%TO.C,J1*%
X137701200Y-111811200D02*
X137701200Y-111066200D01*
X138436200Y-111811200D02*
X137701200Y-111811200D01*
X139171200Y-110321200D02*
X158046200Y-110321200D01*
X139171200Y-110380635D02*
X139171200Y-110321200D01*
X139171200Y-111811200D02*
X139171200Y-111751765D01*
X139171200Y-111811200D02*
X158046200Y-111811200D01*
X158046200Y-110656170D02*
X158046200Y-110321200D01*
X158046200Y-111811200D02*
X158046200Y-111476230D01*
%TO.C,C8*%
X61355000Y-54055000D02*
X61503000Y-54055000D01*
X61355000Y-57295000D02*
X61355000Y-54055000D01*
X61503000Y-57295000D02*
X61355000Y-57295000D01*
X63447000Y-54055000D02*
X63595000Y-54055000D01*
X63595000Y-54055000D02*
X63595000Y-57295000D01*
X63595000Y-57295000D02*
X63447000Y-57295000D01*
%TO.C,R9*%
X205985000Y-34930000D02*
X212525000Y-34930000D01*
X205985000Y-35260000D02*
X205985000Y-34930000D01*
X205985000Y-37340000D02*
X205985000Y-37670000D01*
X205985000Y-37670000D02*
X212525000Y-37670000D01*
X212525000Y-34930000D02*
X212525000Y-35260000D01*
X212525000Y-37670000D02*
X212525000Y-37340000D01*
%TO.C,R18*%
X55670000Y-40830000D02*
X62210000Y-40830000D01*
X55670000Y-41160000D02*
X55670000Y-40830000D01*
X55670000Y-43240000D02*
X55670000Y-43570000D01*
X55670000Y-43570000D02*
X62210000Y-43570000D01*
X62210000Y-40830000D02*
X62210000Y-41160000D01*
X62210000Y-43570000D02*
X62210000Y-43240000D01*
%TO.C,J2*%
X143069652Y-70070000D02*
X143069652Y-69325000D01*
X143804652Y-70070000D02*
X143069652Y-70070000D01*
X144539652Y-68580000D02*
X163414652Y-68580000D01*
X144539652Y-68639435D02*
X144539652Y-68580000D01*
X144539652Y-70070000D02*
X144539652Y-70010565D01*
X144539652Y-70070000D02*
X163414652Y-70070000D01*
X163414652Y-68914970D02*
X163414652Y-68580000D01*
X163414652Y-70070000D02*
X163414652Y-69735030D01*
%TO.C,JP1*%
X49380000Y-56561590D02*
X49380000Y-47686590D01*
X49439435Y-56561590D02*
X49380000Y-56561590D01*
X49714970Y-47686590D02*
X49380000Y-47686590D01*
X50870000Y-47686590D02*
X50535030Y-47686590D01*
X50870000Y-56561590D02*
X50810565Y-56561590D01*
X50870000Y-56561590D02*
X50870000Y-47686590D01*
X50870000Y-57296590D02*
X50870000Y-58031590D01*
X50870000Y-58031590D02*
X50125000Y-58031590D01*
%TD*%
M02*
