%TF.GenerationSoftware,KiCad,Pcbnew,10.0.5*%
%TF.CreationDate,2026-08-19T21:42:22+03:00*%
%TF.ProjectId,Nixie,4e697869-652e-46b6-9963-61645f706362,rev?*%
%TF.SameCoordinates,Original*%
%TF.FileFunction,Legend,Top*%
%TF.FilePolarity,Positive*%
%FSLAX46Y46*%
G04 Gerber Fmt 4.6, Leading zero omitted, Abs format (unit mm)*
G04 Created by KiCad (PCBNEW 10.0.5) date 2026-08-19 21:42:22*
%MOMM*%
%LPD*%
G01*
G04 APERTURE LIST*
%ADD10C,0.101600*%
%ADD11C,0.150000*%
%ADD12C,0.254000*%
%ADD13C,0.120000*%
%ADD14C,0.200000*%
%ADD15C,0.400000*%
G04 APERTURE END LIST*
D10*
X175634722Y-53456709D02*
X174364722Y-53456709D01*
X174364722Y-53456709D02*
X175634722Y-52730994D01*
X175634722Y-52730994D02*
X174364722Y-52730994D01*
X174788055Y-51581947D02*
X175634722Y-51581947D01*
X174304246Y-51884328D02*
X175211388Y-52186709D01*
X175211388Y-52186709D02*
X175211388Y-51400518D01*
X161953095Y-46403832D02*
X162678809Y-46403832D01*
X162315952Y-47673832D02*
X162315952Y-46403832D01*
X163283571Y-47673832D02*
X163162619Y-47613356D01*
X163162619Y-47613356D02*
X163102142Y-47552879D01*
X163102142Y-47552879D02*
X163041666Y-47431927D01*
X163041666Y-47431927D02*
X163041666Y-47069070D01*
X163041666Y-47069070D02*
X163102142Y-46948117D01*
X163102142Y-46948117D02*
X163162619Y-46887641D01*
X163162619Y-46887641D02*
X163283571Y-46827165D01*
X163283571Y-46827165D02*
X163465000Y-46827165D01*
X163465000Y-46827165D02*
X163585952Y-46887641D01*
X163585952Y-46887641D02*
X163646428Y-46948117D01*
X163646428Y-46948117D02*
X163706904Y-47069070D01*
X163706904Y-47069070D02*
X163706904Y-47431927D01*
X163706904Y-47431927D02*
X163646428Y-47552879D01*
X163646428Y-47552879D02*
X163585952Y-47613356D01*
X163585952Y-47613356D02*
X163465000Y-47673832D01*
X163465000Y-47673832D02*
X163283571Y-47673832D01*
X164251190Y-46827165D02*
X164251190Y-48097165D01*
X164251190Y-46887641D02*
X164372143Y-46827165D01*
X164372143Y-46827165D02*
X164614048Y-46827165D01*
X164614048Y-46827165D02*
X164735000Y-46887641D01*
X164735000Y-46887641D02*
X164795476Y-46948117D01*
X164795476Y-46948117D02*
X164855952Y-47069070D01*
X164855952Y-47069070D02*
X164855952Y-47431927D01*
X164855952Y-47431927D02*
X164795476Y-47552879D01*
X164795476Y-47552879D02*
X164735000Y-47613356D01*
X164735000Y-47613356D02*
X164614048Y-47673832D01*
X164614048Y-47673832D02*
X164372143Y-47673832D01*
X164372143Y-47673832D02*
X164251190Y-47613356D01*
X162618333Y-57168594D02*
X162799761Y-57229070D01*
X162799761Y-57229070D02*
X162860238Y-57289546D01*
X162860238Y-57289546D02*
X162920714Y-57410498D01*
X162920714Y-57410498D02*
X162920714Y-57591927D01*
X162920714Y-57591927D02*
X162860238Y-57712879D01*
X162860238Y-57712879D02*
X162799761Y-57773356D01*
X162799761Y-57773356D02*
X162678809Y-57833832D01*
X162678809Y-57833832D02*
X162194999Y-57833832D01*
X162194999Y-57833832D02*
X162194999Y-56563832D01*
X162194999Y-56563832D02*
X162618333Y-56563832D01*
X162618333Y-56563832D02*
X162739285Y-56624308D01*
X162739285Y-56624308D02*
X162799761Y-56684784D01*
X162799761Y-56684784D02*
X162860238Y-56805736D01*
X162860238Y-56805736D02*
X162860238Y-56926689D01*
X162860238Y-56926689D02*
X162799761Y-57047641D01*
X162799761Y-57047641D02*
X162739285Y-57108117D01*
X162739285Y-57108117D02*
X162618333Y-57168594D01*
X162618333Y-57168594D02*
X162194999Y-57168594D01*
X163646428Y-57833832D02*
X163525476Y-57773356D01*
X163525476Y-57773356D02*
X163464999Y-57712879D01*
X163464999Y-57712879D02*
X163404523Y-57591927D01*
X163404523Y-57591927D02*
X163404523Y-57229070D01*
X163404523Y-57229070D02*
X163464999Y-57108117D01*
X163464999Y-57108117D02*
X163525476Y-57047641D01*
X163525476Y-57047641D02*
X163646428Y-56987165D01*
X163646428Y-56987165D02*
X163827857Y-56987165D01*
X163827857Y-56987165D02*
X163948809Y-57047641D01*
X163948809Y-57047641D02*
X164009285Y-57108117D01*
X164009285Y-57108117D02*
X164069761Y-57229070D01*
X164069761Y-57229070D02*
X164069761Y-57591927D01*
X164069761Y-57591927D02*
X164009285Y-57712879D01*
X164009285Y-57712879D02*
X163948809Y-57773356D01*
X163948809Y-57773356D02*
X163827857Y-57833832D01*
X163827857Y-57833832D02*
X163646428Y-57833832D01*
X164432619Y-56987165D02*
X164916428Y-56987165D01*
X164614047Y-56563832D02*
X164614047Y-57652403D01*
X164614047Y-57652403D02*
X164674524Y-57773356D01*
X164674524Y-57773356D02*
X164795476Y-57833832D01*
X164795476Y-57833832D02*
X164916428Y-57833832D01*
X152754722Y-53456709D02*
X151484722Y-53456709D01*
X151484722Y-53456709D02*
X152754722Y-52730994D01*
X152754722Y-52730994D02*
X151484722Y-52730994D01*
X151484722Y-52247185D02*
X151484722Y-51460994D01*
X151484722Y-51460994D02*
X151968531Y-51884328D01*
X151968531Y-51884328D02*
X151968531Y-51702899D01*
X151968531Y-51702899D02*
X152029007Y-51581947D01*
X152029007Y-51581947D02*
X152089484Y-51521471D01*
X152089484Y-51521471D02*
X152210436Y-51460994D01*
X152210436Y-51460994D02*
X152512817Y-51460994D01*
X152512817Y-51460994D02*
X152633769Y-51521471D01*
X152633769Y-51521471D02*
X152694246Y-51581947D01*
X152694246Y-51581947D02*
X152754722Y-51702899D01*
X152754722Y-51702899D02*
X152754722Y-52065756D01*
X152754722Y-52065756D02*
X152694246Y-52186709D01*
X152694246Y-52186709D02*
X152633769Y-52247185D01*
X139073095Y-46403832D02*
X139798809Y-46403832D01*
X139435952Y-47673832D02*
X139435952Y-46403832D01*
X140403571Y-47673832D02*
X140282619Y-47613356D01*
X140282619Y-47613356D02*
X140222142Y-47552879D01*
X140222142Y-47552879D02*
X140161666Y-47431927D01*
X140161666Y-47431927D02*
X140161666Y-47069070D01*
X140161666Y-47069070D02*
X140222142Y-46948117D01*
X140222142Y-46948117D02*
X140282619Y-46887641D01*
X140282619Y-46887641D02*
X140403571Y-46827165D01*
X140403571Y-46827165D02*
X140585000Y-46827165D01*
X140585000Y-46827165D02*
X140705952Y-46887641D01*
X140705952Y-46887641D02*
X140766428Y-46948117D01*
X140766428Y-46948117D02*
X140826904Y-47069070D01*
X140826904Y-47069070D02*
X140826904Y-47431927D01*
X140826904Y-47431927D02*
X140766428Y-47552879D01*
X140766428Y-47552879D02*
X140705952Y-47613356D01*
X140705952Y-47613356D02*
X140585000Y-47673832D01*
X140585000Y-47673832D02*
X140403571Y-47673832D01*
X141371190Y-46827165D02*
X141371190Y-48097165D01*
X141371190Y-46887641D02*
X141492143Y-46827165D01*
X141492143Y-46827165D02*
X141734048Y-46827165D01*
X141734048Y-46827165D02*
X141855000Y-46887641D01*
X141855000Y-46887641D02*
X141915476Y-46948117D01*
X141915476Y-46948117D02*
X141975952Y-47069070D01*
X141975952Y-47069070D02*
X141975952Y-47431927D01*
X141975952Y-47431927D02*
X141915476Y-47552879D01*
X141915476Y-47552879D02*
X141855000Y-47613356D01*
X141855000Y-47613356D02*
X141734048Y-47673832D01*
X141734048Y-47673832D02*
X141492143Y-47673832D01*
X141492143Y-47673832D02*
X141371190Y-47613356D01*
X139738333Y-57168594D02*
X139919761Y-57229070D01*
X139919761Y-57229070D02*
X139980238Y-57289546D01*
X139980238Y-57289546D02*
X140040714Y-57410498D01*
X140040714Y-57410498D02*
X140040714Y-57591927D01*
X140040714Y-57591927D02*
X139980238Y-57712879D01*
X139980238Y-57712879D02*
X139919761Y-57773356D01*
X139919761Y-57773356D02*
X139798809Y-57833832D01*
X139798809Y-57833832D02*
X139314999Y-57833832D01*
X139314999Y-57833832D02*
X139314999Y-56563832D01*
X139314999Y-56563832D02*
X139738333Y-56563832D01*
X139738333Y-56563832D02*
X139859285Y-56624308D01*
X139859285Y-56624308D02*
X139919761Y-56684784D01*
X139919761Y-56684784D02*
X139980238Y-56805736D01*
X139980238Y-56805736D02*
X139980238Y-56926689D01*
X139980238Y-56926689D02*
X139919761Y-57047641D01*
X139919761Y-57047641D02*
X139859285Y-57108117D01*
X139859285Y-57108117D02*
X139738333Y-57168594D01*
X139738333Y-57168594D02*
X139314999Y-57168594D01*
X140766428Y-57833832D02*
X140645476Y-57773356D01*
X140645476Y-57773356D02*
X140584999Y-57712879D01*
X140584999Y-57712879D02*
X140524523Y-57591927D01*
X140524523Y-57591927D02*
X140524523Y-57229070D01*
X140524523Y-57229070D02*
X140584999Y-57108117D01*
X140584999Y-57108117D02*
X140645476Y-57047641D01*
X140645476Y-57047641D02*
X140766428Y-56987165D01*
X140766428Y-56987165D02*
X140947857Y-56987165D01*
X140947857Y-56987165D02*
X141068809Y-57047641D01*
X141068809Y-57047641D02*
X141129285Y-57108117D01*
X141129285Y-57108117D02*
X141189761Y-57229070D01*
X141189761Y-57229070D02*
X141189761Y-57591927D01*
X141189761Y-57591927D02*
X141129285Y-57712879D01*
X141129285Y-57712879D02*
X141068809Y-57773356D01*
X141068809Y-57773356D02*
X140947857Y-57833832D01*
X140947857Y-57833832D02*
X140766428Y-57833832D01*
X141552619Y-56987165D02*
X142036428Y-56987165D01*
X141734047Y-56563832D02*
X141734047Y-57652403D01*
X141734047Y-57652403D02*
X141794524Y-57773356D01*
X141794524Y-57773356D02*
X141915476Y-57833832D01*
X141915476Y-57833832D02*
X142036428Y-57833832D01*
D11*
X246924819Y-43942857D02*
X246448628Y-44276190D01*
X246924819Y-44514285D02*
X245924819Y-44514285D01*
X245924819Y-44514285D02*
X245924819Y-44133333D01*
X245924819Y-44133333D02*
X245972438Y-44038095D01*
X245972438Y-44038095D02*
X246020057Y-43990476D01*
X246020057Y-43990476D02*
X246115295Y-43942857D01*
X246115295Y-43942857D02*
X246258152Y-43942857D01*
X246258152Y-43942857D02*
X246353390Y-43990476D01*
X246353390Y-43990476D02*
X246401009Y-44038095D01*
X246401009Y-44038095D02*
X246448628Y-44133333D01*
X246448628Y-44133333D02*
X246448628Y-44514285D01*
X246020057Y-43561904D02*
X245972438Y-43514285D01*
X245972438Y-43514285D02*
X245924819Y-43419047D01*
X245924819Y-43419047D02*
X245924819Y-43180952D01*
X245924819Y-43180952D02*
X245972438Y-43085714D01*
X245972438Y-43085714D02*
X246020057Y-43038095D01*
X246020057Y-43038095D02*
X246115295Y-42990476D01*
X246115295Y-42990476D02*
X246210533Y-42990476D01*
X246210533Y-42990476D02*
X246353390Y-43038095D01*
X246353390Y-43038095D02*
X246924819Y-43609523D01*
X246924819Y-43609523D02*
X246924819Y-42990476D01*
X245924819Y-42657142D02*
X245924819Y-41990476D01*
X245924819Y-41990476D02*
X246924819Y-42419047D01*
X138597142Y-112522319D02*
X138263809Y-112046128D01*
X138025714Y-112522319D02*
X138025714Y-111522319D01*
X138025714Y-111522319D02*
X138406666Y-111522319D01*
X138406666Y-111522319D02*
X138501904Y-111569938D01*
X138501904Y-111569938D02*
X138549523Y-111617557D01*
X138549523Y-111617557D02*
X138597142Y-111712795D01*
X138597142Y-111712795D02*
X138597142Y-111855652D01*
X138597142Y-111855652D02*
X138549523Y-111950890D01*
X138549523Y-111950890D02*
X138501904Y-111998509D01*
X138501904Y-111998509D02*
X138406666Y-112046128D01*
X138406666Y-112046128D02*
X138025714Y-112046128D01*
X139549523Y-112522319D02*
X138978095Y-112522319D01*
X139263809Y-112522319D02*
X139263809Y-111522319D01*
X139263809Y-111522319D02*
X139168571Y-111665176D01*
X139168571Y-111665176D02*
X139073333Y-111760414D01*
X139073333Y-111760414D02*
X138978095Y-111808033D01*
X139930476Y-111617557D02*
X139978095Y-111569938D01*
X139978095Y-111569938D02*
X140073333Y-111522319D01*
X140073333Y-111522319D02*
X140311428Y-111522319D01*
X140311428Y-111522319D02*
X140406666Y-111569938D01*
X140406666Y-111569938D02*
X140454285Y-111617557D01*
X140454285Y-111617557D02*
X140501904Y-111712795D01*
X140501904Y-111712795D02*
X140501904Y-111808033D01*
X140501904Y-111808033D02*
X140454285Y-111950890D01*
X140454285Y-111950890D02*
X139882857Y-112522319D01*
X139882857Y-112522319D02*
X140501904Y-112522319D01*
X139073333Y-121202319D02*
X138740000Y-120726128D01*
X138501905Y-121202319D02*
X138501905Y-120202319D01*
X138501905Y-120202319D02*
X138882857Y-120202319D01*
X138882857Y-120202319D02*
X138978095Y-120249938D01*
X138978095Y-120249938D02*
X139025714Y-120297557D01*
X139025714Y-120297557D02*
X139073333Y-120392795D01*
X139073333Y-120392795D02*
X139073333Y-120535652D01*
X139073333Y-120535652D02*
X139025714Y-120630890D01*
X139025714Y-120630890D02*
X138978095Y-120678509D01*
X138978095Y-120678509D02*
X138882857Y-120726128D01*
X138882857Y-120726128D02*
X138501905Y-120726128D01*
X139454286Y-120297557D02*
X139501905Y-120249938D01*
X139501905Y-120249938D02*
X139597143Y-120202319D01*
X139597143Y-120202319D02*
X139835238Y-120202319D01*
X139835238Y-120202319D02*
X139930476Y-120249938D01*
X139930476Y-120249938D02*
X139978095Y-120297557D01*
X139978095Y-120297557D02*
X140025714Y-120392795D01*
X140025714Y-120392795D02*
X140025714Y-120488033D01*
X140025714Y-120488033D02*
X139978095Y-120630890D01*
X139978095Y-120630890D02*
X139406667Y-121202319D01*
X139406667Y-121202319D02*
X140025714Y-121202319D01*
X164887142Y-109002319D02*
X164553809Y-108526128D01*
X164315714Y-109002319D02*
X164315714Y-108002319D01*
X164315714Y-108002319D02*
X164696666Y-108002319D01*
X164696666Y-108002319D02*
X164791904Y-108049938D01*
X164791904Y-108049938D02*
X164839523Y-108097557D01*
X164839523Y-108097557D02*
X164887142Y-108192795D01*
X164887142Y-108192795D02*
X164887142Y-108335652D01*
X164887142Y-108335652D02*
X164839523Y-108430890D01*
X164839523Y-108430890D02*
X164791904Y-108478509D01*
X164791904Y-108478509D02*
X164696666Y-108526128D01*
X164696666Y-108526128D02*
X164315714Y-108526128D01*
X165268095Y-108097557D02*
X165315714Y-108049938D01*
X165315714Y-108049938D02*
X165410952Y-108002319D01*
X165410952Y-108002319D02*
X165649047Y-108002319D01*
X165649047Y-108002319D02*
X165744285Y-108049938D01*
X165744285Y-108049938D02*
X165791904Y-108097557D01*
X165791904Y-108097557D02*
X165839523Y-108192795D01*
X165839523Y-108192795D02*
X165839523Y-108288033D01*
X165839523Y-108288033D02*
X165791904Y-108430890D01*
X165791904Y-108430890D02*
X165220476Y-109002319D01*
X165220476Y-109002319D02*
X165839523Y-109002319D01*
X166791904Y-109002319D02*
X166220476Y-109002319D01*
X166506190Y-109002319D02*
X166506190Y-108002319D01*
X166506190Y-108002319D02*
X166410952Y-108145176D01*
X166410952Y-108145176D02*
X166315714Y-108240414D01*
X166315714Y-108240414D02*
X166220476Y-108288033D01*
X162761905Y-52604819D02*
X162761905Y-51604819D01*
X162761905Y-51604819D02*
X163000000Y-51604819D01*
X163000000Y-51604819D02*
X163142857Y-51652438D01*
X163142857Y-51652438D02*
X163238095Y-51747676D01*
X163238095Y-51747676D02*
X163285714Y-51842914D01*
X163285714Y-51842914D02*
X163333333Y-52033390D01*
X163333333Y-52033390D02*
X163333333Y-52176247D01*
X163333333Y-52176247D02*
X163285714Y-52366723D01*
X163285714Y-52366723D02*
X163238095Y-52461961D01*
X163238095Y-52461961D02*
X163142857Y-52557200D01*
X163142857Y-52557200D02*
X163000000Y-52604819D01*
X163000000Y-52604819D02*
X162761905Y-52604819D01*
X164190476Y-51938152D02*
X164190476Y-52604819D01*
X163952381Y-51557200D02*
X163714286Y-52271485D01*
X163714286Y-52271485D02*
X164333333Y-52271485D01*
X138597142Y-105412319D02*
X138263809Y-104936128D01*
X138025714Y-105412319D02*
X138025714Y-104412319D01*
X138025714Y-104412319D02*
X138406666Y-104412319D01*
X138406666Y-104412319D02*
X138501904Y-104459938D01*
X138501904Y-104459938D02*
X138549523Y-104507557D01*
X138549523Y-104507557D02*
X138597142Y-104602795D01*
X138597142Y-104602795D02*
X138597142Y-104745652D01*
X138597142Y-104745652D02*
X138549523Y-104840890D01*
X138549523Y-104840890D02*
X138501904Y-104888509D01*
X138501904Y-104888509D02*
X138406666Y-104936128D01*
X138406666Y-104936128D02*
X138025714Y-104936128D01*
X139549523Y-105412319D02*
X138978095Y-105412319D01*
X139263809Y-105412319D02*
X139263809Y-104412319D01*
X139263809Y-104412319D02*
X139168571Y-104555176D01*
X139168571Y-104555176D02*
X139073333Y-104650414D01*
X139073333Y-104650414D02*
X138978095Y-104698033D01*
X140168571Y-104412319D02*
X140263809Y-104412319D01*
X140263809Y-104412319D02*
X140359047Y-104459938D01*
X140359047Y-104459938D02*
X140406666Y-104507557D01*
X140406666Y-104507557D02*
X140454285Y-104602795D01*
X140454285Y-104602795D02*
X140501904Y-104793271D01*
X140501904Y-104793271D02*
X140501904Y-105031366D01*
X140501904Y-105031366D02*
X140454285Y-105221842D01*
X140454285Y-105221842D02*
X140406666Y-105317080D01*
X140406666Y-105317080D02*
X140359047Y-105364700D01*
X140359047Y-105364700D02*
X140263809Y-105412319D01*
X140263809Y-105412319D02*
X140168571Y-105412319D01*
X140168571Y-105412319D02*
X140073333Y-105364700D01*
X140073333Y-105364700D02*
X140025714Y-105317080D01*
X140025714Y-105317080D02*
X139978095Y-105221842D01*
X139978095Y-105221842D02*
X139930476Y-105031366D01*
X139930476Y-105031366D02*
X139930476Y-104793271D01*
X139930476Y-104793271D02*
X139978095Y-104602795D01*
X139978095Y-104602795D02*
X140025714Y-104507557D01*
X140025714Y-104507557D02*
X140073333Y-104459938D01*
X140073333Y-104459938D02*
X140168571Y-104412319D01*
X248242261Y-64662557D02*
X248147023Y-64614938D01*
X248147023Y-64614938D02*
X248051785Y-64519700D01*
X248051785Y-64519700D02*
X247908928Y-64376842D01*
X247908928Y-64376842D02*
X247813690Y-64329223D01*
X247813690Y-64329223D02*
X247718452Y-64329223D01*
X247766071Y-64567319D02*
X247670833Y-64519700D01*
X247670833Y-64519700D02*
X247575595Y-64424461D01*
X247575595Y-64424461D02*
X247527976Y-64233985D01*
X247527976Y-64233985D02*
X247527976Y-63900652D01*
X247527976Y-63900652D02*
X247575595Y-63710176D01*
X247575595Y-63710176D02*
X247670833Y-63614938D01*
X247670833Y-63614938D02*
X247766071Y-63567319D01*
X247766071Y-63567319D02*
X247956547Y-63567319D01*
X247956547Y-63567319D02*
X248051785Y-63614938D01*
X248051785Y-63614938D02*
X248147023Y-63710176D01*
X248147023Y-63710176D02*
X248194642Y-63900652D01*
X248194642Y-63900652D02*
X248194642Y-64233985D01*
X248194642Y-64233985D02*
X248147023Y-64424461D01*
X248147023Y-64424461D02*
X248051785Y-64519700D01*
X248051785Y-64519700D02*
X247956547Y-64567319D01*
X247956547Y-64567319D02*
X247766071Y-64567319D01*
X249147023Y-64567319D02*
X248575595Y-64567319D01*
X248861309Y-64567319D02*
X248861309Y-63567319D01*
X248861309Y-63567319D02*
X248766071Y-63710176D01*
X248766071Y-63710176D02*
X248670833Y-63805414D01*
X248670833Y-63805414D02*
X248575595Y-63853033D01*
X185606905Y-56126409D02*
X185606905Y-55126409D01*
X185606905Y-55126409D02*
X185845000Y-55126409D01*
X185845000Y-55126409D02*
X185987857Y-55174028D01*
X185987857Y-55174028D02*
X186083095Y-55269266D01*
X186083095Y-55269266D02*
X186130714Y-55364504D01*
X186130714Y-55364504D02*
X186178333Y-55554980D01*
X186178333Y-55554980D02*
X186178333Y-55697837D01*
X186178333Y-55697837D02*
X186130714Y-55888313D01*
X186130714Y-55888313D02*
X186083095Y-55983551D01*
X186083095Y-55983551D02*
X185987857Y-56078790D01*
X185987857Y-56078790D02*
X185845000Y-56126409D01*
X185845000Y-56126409D02*
X185606905Y-56126409D01*
X187035476Y-55126409D02*
X186845000Y-55126409D01*
X186845000Y-55126409D02*
X186749762Y-55174028D01*
X186749762Y-55174028D02*
X186702143Y-55221647D01*
X186702143Y-55221647D02*
X186606905Y-55364504D01*
X186606905Y-55364504D02*
X186559286Y-55554980D01*
X186559286Y-55554980D02*
X186559286Y-55935932D01*
X186559286Y-55935932D02*
X186606905Y-56031170D01*
X186606905Y-56031170D02*
X186654524Y-56078790D01*
X186654524Y-56078790D02*
X186749762Y-56126409D01*
X186749762Y-56126409D02*
X186940238Y-56126409D01*
X186940238Y-56126409D02*
X187035476Y-56078790D01*
X187035476Y-56078790D02*
X187083095Y-56031170D01*
X187083095Y-56031170D02*
X187130714Y-55935932D01*
X187130714Y-55935932D02*
X187130714Y-55697837D01*
X187130714Y-55697837D02*
X187083095Y-55602599D01*
X187083095Y-55602599D02*
X187035476Y-55554980D01*
X187035476Y-55554980D02*
X186940238Y-55507361D01*
X186940238Y-55507361D02*
X186749762Y-55507361D01*
X186749762Y-55507361D02*
X186654524Y-55554980D01*
X186654524Y-55554980D02*
X186606905Y-55602599D01*
X186606905Y-55602599D02*
X186559286Y-55697837D01*
X51861905Y-35304819D02*
X51861905Y-34304819D01*
X51861905Y-34304819D02*
X52100000Y-34304819D01*
X52100000Y-34304819D02*
X52242857Y-34352438D01*
X52242857Y-34352438D02*
X52338095Y-34447676D01*
X52338095Y-34447676D02*
X52385714Y-34542914D01*
X52385714Y-34542914D02*
X52433333Y-34733390D01*
X52433333Y-34733390D02*
X52433333Y-34876247D01*
X52433333Y-34876247D02*
X52385714Y-35066723D01*
X52385714Y-35066723D02*
X52338095Y-35161961D01*
X52338095Y-35161961D02*
X52242857Y-35257200D01*
X52242857Y-35257200D02*
X52100000Y-35304819D01*
X52100000Y-35304819D02*
X51861905Y-35304819D01*
X53338095Y-34304819D02*
X52861905Y-34304819D01*
X52861905Y-34304819D02*
X52814286Y-34781009D01*
X52814286Y-34781009D02*
X52861905Y-34733390D01*
X52861905Y-34733390D02*
X52957143Y-34685771D01*
X52957143Y-34685771D02*
X53195238Y-34685771D01*
X53195238Y-34685771D02*
X53290476Y-34733390D01*
X53290476Y-34733390D02*
X53338095Y-34781009D01*
X53338095Y-34781009D02*
X53385714Y-34876247D01*
X53385714Y-34876247D02*
X53385714Y-35114342D01*
X53385714Y-35114342D02*
X53338095Y-35209580D01*
X53338095Y-35209580D02*
X53290476Y-35257200D01*
X53290476Y-35257200D02*
X53195238Y-35304819D01*
X53195238Y-35304819D02*
X52957143Y-35304819D01*
X52957143Y-35304819D02*
X52861905Y-35257200D01*
X52861905Y-35257200D02*
X52814286Y-35209580D01*
X152097142Y-109002319D02*
X151763809Y-108526128D01*
X151525714Y-109002319D02*
X151525714Y-108002319D01*
X151525714Y-108002319D02*
X151906666Y-108002319D01*
X151906666Y-108002319D02*
X152001904Y-108049938D01*
X152001904Y-108049938D02*
X152049523Y-108097557D01*
X152049523Y-108097557D02*
X152097142Y-108192795D01*
X152097142Y-108192795D02*
X152097142Y-108335652D01*
X152097142Y-108335652D02*
X152049523Y-108430890D01*
X152049523Y-108430890D02*
X152001904Y-108478509D01*
X152001904Y-108478509D02*
X151906666Y-108526128D01*
X151906666Y-108526128D02*
X151525714Y-108526128D01*
X153049523Y-109002319D02*
X152478095Y-109002319D01*
X152763809Y-109002319D02*
X152763809Y-108002319D01*
X152763809Y-108002319D02*
X152668571Y-108145176D01*
X152668571Y-108145176D02*
X152573333Y-108240414D01*
X152573333Y-108240414D02*
X152478095Y-108288033D01*
X153906666Y-108335652D02*
X153906666Y-109002319D01*
X153668571Y-107954700D02*
X153430476Y-108668985D01*
X153430476Y-108668985D02*
X154049523Y-108668985D01*
X163278333Y-33759819D02*
X162945000Y-33283628D01*
X162706905Y-33759819D02*
X162706905Y-32759819D01*
X162706905Y-32759819D02*
X163087857Y-32759819D01*
X163087857Y-32759819D02*
X163183095Y-32807438D01*
X163183095Y-32807438D02*
X163230714Y-32855057D01*
X163230714Y-32855057D02*
X163278333Y-32950295D01*
X163278333Y-32950295D02*
X163278333Y-33093152D01*
X163278333Y-33093152D02*
X163230714Y-33188390D01*
X163230714Y-33188390D02*
X163183095Y-33236009D01*
X163183095Y-33236009D02*
X163087857Y-33283628D01*
X163087857Y-33283628D02*
X162706905Y-33283628D01*
X163611667Y-32759819D02*
X164278333Y-32759819D01*
X164278333Y-32759819D02*
X163849762Y-33759819D01*
X164887142Y-124722319D02*
X164553809Y-124246128D01*
X164315714Y-124722319D02*
X164315714Y-123722319D01*
X164315714Y-123722319D02*
X164696666Y-123722319D01*
X164696666Y-123722319D02*
X164791904Y-123769938D01*
X164791904Y-123769938D02*
X164839523Y-123817557D01*
X164839523Y-123817557D02*
X164887142Y-123912795D01*
X164887142Y-123912795D02*
X164887142Y-124055652D01*
X164887142Y-124055652D02*
X164839523Y-124150890D01*
X164839523Y-124150890D02*
X164791904Y-124198509D01*
X164791904Y-124198509D02*
X164696666Y-124246128D01*
X164696666Y-124246128D02*
X164315714Y-124246128D01*
X165268095Y-123817557D02*
X165315714Y-123769938D01*
X165315714Y-123769938D02*
X165410952Y-123722319D01*
X165410952Y-123722319D02*
X165649047Y-123722319D01*
X165649047Y-123722319D02*
X165744285Y-123769938D01*
X165744285Y-123769938D02*
X165791904Y-123817557D01*
X165791904Y-123817557D02*
X165839523Y-123912795D01*
X165839523Y-123912795D02*
X165839523Y-124008033D01*
X165839523Y-124008033D02*
X165791904Y-124150890D01*
X165791904Y-124150890D02*
X165220476Y-124722319D01*
X165220476Y-124722319D02*
X165839523Y-124722319D01*
X166744285Y-123722319D02*
X166268095Y-123722319D01*
X166268095Y-123722319D02*
X166220476Y-124198509D01*
X166220476Y-124198509D02*
X166268095Y-124150890D01*
X166268095Y-124150890D02*
X166363333Y-124103271D01*
X166363333Y-124103271D02*
X166601428Y-124103271D01*
X166601428Y-124103271D02*
X166696666Y-124150890D01*
X166696666Y-124150890D02*
X166744285Y-124198509D01*
X166744285Y-124198509D02*
X166791904Y-124293747D01*
X166791904Y-124293747D02*
X166791904Y-124531842D01*
X166791904Y-124531842D02*
X166744285Y-124627080D01*
X166744285Y-124627080D02*
X166696666Y-124674700D01*
X166696666Y-124674700D02*
X166601428Y-124722319D01*
X166601428Y-124722319D02*
X166363333Y-124722319D01*
X166363333Y-124722319D02*
X166268095Y-124674700D01*
X166268095Y-124674700D02*
X166220476Y-124627080D01*
X164887142Y-117612319D02*
X164553809Y-117136128D01*
X164315714Y-117612319D02*
X164315714Y-116612319D01*
X164315714Y-116612319D02*
X164696666Y-116612319D01*
X164696666Y-116612319D02*
X164791904Y-116659938D01*
X164791904Y-116659938D02*
X164839523Y-116707557D01*
X164839523Y-116707557D02*
X164887142Y-116802795D01*
X164887142Y-116802795D02*
X164887142Y-116945652D01*
X164887142Y-116945652D02*
X164839523Y-117040890D01*
X164839523Y-117040890D02*
X164791904Y-117088509D01*
X164791904Y-117088509D02*
X164696666Y-117136128D01*
X164696666Y-117136128D02*
X164315714Y-117136128D01*
X165268095Y-116707557D02*
X165315714Y-116659938D01*
X165315714Y-116659938D02*
X165410952Y-116612319D01*
X165410952Y-116612319D02*
X165649047Y-116612319D01*
X165649047Y-116612319D02*
X165744285Y-116659938D01*
X165744285Y-116659938D02*
X165791904Y-116707557D01*
X165791904Y-116707557D02*
X165839523Y-116802795D01*
X165839523Y-116802795D02*
X165839523Y-116898033D01*
X165839523Y-116898033D02*
X165791904Y-117040890D01*
X165791904Y-117040890D02*
X165220476Y-117612319D01*
X165220476Y-117612319D02*
X165839523Y-117612319D01*
X166172857Y-116612319D02*
X166791904Y-116612319D01*
X166791904Y-116612319D02*
X166458571Y-116993271D01*
X166458571Y-116993271D02*
X166601428Y-116993271D01*
X166601428Y-116993271D02*
X166696666Y-117040890D01*
X166696666Y-117040890D02*
X166744285Y-117088509D01*
X166744285Y-117088509D02*
X166791904Y-117183747D01*
X166791904Y-117183747D02*
X166791904Y-117421842D01*
X166791904Y-117421842D02*
X166744285Y-117517080D01*
X166744285Y-117517080D02*
X166696666Y-117564700D01*
X166696666Y-117564700D02*
X166601428Y-117612319D01*
X166601428Y-117612319D02*
X166315714Y-117612319D01*
X166315714Y-117612319D02*
X166220476Y-117564700D01*
X166220476Y-117564700D02*
X166172857Y-117517080D01*
X138597142Y-109002319D02*
X138263809Y-108526128D01*
X138025714Y-109002319D02*
X138025714Y-108002319D01*
X138025714Y-108002319D02*
X138406666Y-108002319D01*
X138406666Y-108002319D02*
X138501904Y-108049938D01*
X138501904Y-108049938D02*
X138549523Y-108097557D01*
X138549523Y-108097557D02*
X138597142Y-108192795D01*
X138597142Y-108192795D02*
X138597142Y-108335652D01*
X138597142Y-108335652D02*
X138549523Y-108430890D01*
X138549523Y-108430890D02*
X138501904Y-108478509D01*
X138501904Y-108478509D02*
X138406666Y-108526128D01*
X138406666Y-108526128D02*
X138025714Y-108526128D01*
X139549523Y-109002319D02*
X138978095Y-109002319D01*
X139263809Y-109002319D02*
X139263809Y-108002319D01*
X139263809Y-108002319D02*
X139168571Y-108145176D01*
X139168571Y-108145176D02*
X139073333Y-108240414D01*
X139073333Y-108240414D02*
X138978095Y-108288033D01*
X140501904Y-109002319D02*
X139930476Y-109002319D01*
X140216190Y-109002319D02*
X140216190Y-108002319D01*
X140216190Y-108002319D02*
X140120952Y-108145176D01*
X140120952Y-108145176D02*
X140025714Y-108240414D01*
X140025714Y-108240414D02*
X139930476Y-108288033D01*
X254366666Y-27129819D02*
X254033333Y-26653628D01*
X253795238Y-27129819D02*
X253795238Y-26129819D01*
X253795238Y-26129819D02*
X254176190Y-26129819D01*
X254176190Y-26129819D02*
X254271428Y-26177438D01*
X254271428Y-26177438D02*
X254319047Y-26225057D01*
X254319047Y-26225057D02*
X254366666Y-26320295D01*
X254366666Y-26320295D02*
X254366666Y-26463152D01*
X254366666Y-26463152D02*
X254319047Y-26558390D01*
X254319047Y-26558390D02*
X254271428Y-26606009D01*
X254271428Y-26606009D02*
X254176190Y-26653628D01*
X254176190Y-26653628D02*
X253795238Y-26653628D01*
X254795238Y-26606009D02*
X255128571Y-26606009D01*
X255271428Y-27129819D02*
X254795238Y-27129819D01*
X254795238Y-27129819D02*
X254795238Y-26129819D01*
X254795238Y-26129819D02*
X255271428Y-26129819D01*
X256033333Y-26606009D02*
X255700000Y-26606009D01*
X255700000Y-27129819D02*
X255700000Y-26129819D01*
X255700000Y-26129819D02*
X256176190Y-26129819D01*
X256700000Y-26129819D02*
X256700000Y-26367914D01*
X256461905Y-26272676D02*
X256700000Y-26367914D01*
X256700000Y-26367914D02*
X256938095Y-26272676D01*
X256557143Y-26558390D02*
X256700000Y-26367914D01*
X256700000Y-26367914D02*
X256842857Y-26558390D01*
X257461905Y-26129819D02*
X257461905Y-26367914D01*
X257223810Y-26272676D02*
X257461905Y-26367914D01*
X257461905Y-26367914D02*
X257700000Y-26272676D01*
X257319048Y-26558390D02*
X257461905Y-26367914D01*
X257461905Y-26367914D02*
X257604762Y-26558390D01*
X116838333Y-33759819D02*
X116505000Y-33283628D01*
X116266905Y-33759819D02*
X116266905Y-32759819D01*
X116266905Y-32759819D02*
X116647857Y-32759819D01*
X116647857Y-32759819D02*
X116743095Y-32807438D01*
X116743095Y-32807438D02*
X116790714Y-32855057D01*
X116790714Y-32855057D02*
X116838333Y-32950295D01*
X116838333Y-32950295D02*
X116838333Y-33093152D01*
X116838333Y-33093152D02*
X116790714Y-33188390D01*
X116790714Y-33188390D02*
X116743095Y-33236009D01*
X116743095Y-33236009D02*
X116647857Y-33283628D01*
X116647857Y-33283628D02*
X116266905Y-33283628D01*
X117743095Y-32759819D02*
X117266905Y-32759819D01*
X117266905Y-32759819D02*
X117219286Y-33236009D01*
X117219286Y-33236009D02*
X117266905Y-33188390D01*
X117266905Y-33188390D02*
X117362143Y-33140771D01*
X117362143Y-33140771D02*
X117600238Y-33140771D01*
X117600238Y-33140771D02*
X117695476Y-33188390D01*
X117695476Y-33188390D02*
X117743095Y-33236009D01*
X117743095Y-33236009D02*
X117790714Y-33331247D01*
X117790714Y-33331247D02*
X117790714Y-33569342D01*
X117790714Y-33569342D02*
X117743095Y-33664580D01*
X117743095Y-33664580D02*
X117695476Y-33712200D01*
X117695476Y-33712200D02*
X117600238Y-33759819D01*
X117600238Y-33759819D02*
X117362143Y-33759819D01*
X117362143Y-33759819D02*
X117266905Y-33712200D01*
X117266905Y-33712200D02*
X117219286Y-33664580D01*
X140398333Y-33759819D02*
X140065000Y-33283628D01*
X139826905Y-33759819D02*
X139826905Y-32759819D01*
X139826905Y-32759819D02*
X140207857Y-32759819D01*
X140207857Y-32759819D02*
X140303095Y-32807438D01*
X140303095Y-32807438D02*
X140350714Y-32855057D01*
X140350714Y-32855057D02*
X140398333Y-32950295D01*
X140398333Y-32950295D02*
X140398333Y-33093152D01*
X140398333Y-33093152D02*
X140350714Y-33188390D01*
X140350714Y-33188390D02*
X140303095Y-33236009D01*
X140303095Y-33236009D02*
X140207857Y-33283628D01*
X140207857Y-33283628D02*
X139826905Y-33283628D01*
X141255476Y-32759819D02*
X141065000Y-32759819D01*
X141065000Y-32759819D02*
X140969762Y-32807438D01*
X140969762Y-32807438D02*
X140922143Y-32855057D01*
X140922143Y-32855057D02*
X140826905Y-32997914D01*
X140826905Y-32997914D02*
X140779286Y-33188390D01*
X140779286Y-33188390D02*
X140779286Y-33569342D01*
X140779286Y-33569342D02*
X140826905Y-33664580D01*
X140826905Y-33664580D02*
X140874524Y-33712200D01*
X140874524Y-33712200D02*
X140969762Y-33759819D01*
X140969762Y-33759819D02*
X141160238Y-33759819D01*
X141160238Y-33759819D02*
X141255476Y-33712200D01*
X141255476Y-33712200D02*
X141303095Y-33664580D01*
X141303095Y-33664580D02*
X141350714Y-33569342D01*
X141350714Y-33569342D02*
X141350714Y-33331247D01*
X141350714Y-33331247D02*
X141303095Y-33236009D01*
X141303095Y-33236009D02*
X141255476Y-33188390D01*
X141255476Y-33188390D02*
X141160238Y-33140771D01*
X141160238Y-33140771D02*
X140969762Y-33140771D01*
X140969762Y-33140771D02*
X140874524Y-33188390D01*
X140874524Y-33188390D02*
X140826905Y-33236009D01*
X140826905Y-33236009D02*
X140779286Y-33331247D01*
D10*
X221394722Y-53456709D02*
X220124722Y-53456709D01*
X220124722Y-53456709D02*
X221394722Y-52730994D01*
X221394722Y-52730994D02*
X220124722Y-52730994D01*
X220124722Y-51581947D02*
X220124722Y-51823852D01*
X220124722Y-51823852D02*
X220185198Y-51944804D01*
X220185198Y-51944804D02*
X220245674Y-52005280D01*
X220245674Y-52005280D02*
X220427103Y-52126233D01*
X220427103Y-52126233D02*
X220669007Y-52186709D01*
X220669007Y-52186709D02*
X221152817Y-52186709D01*
X221152817Y-52186709D02*
X221273769Y-52126233D01*
X221273769Y-52126233D02*
X221334246Y-52065756D01*
X221334246Y-52065756D02*
X221394722Y-51944804D01*
X221394722Y-51944804D02*
X221394722Y-51702899D01*
X221394722Y-51702899D02*
X221334246Y-51581947D01*
X221334246Y-51581947D02*
X221273769Y-51521471D01*
X221273769Y-51521471D02*
X221152817Y-51460994D01*
X221152817Y-51460994D02*
X220850436Y-51460994D01*
X220850436Y-51460994D02*
X220729484Y-51521471D01*
X220729484Y-51521471D02*
X220669007Y-51581947D01*
X220669007Y-51581947D02*
X220608531Y-51702899D01*
X220608531Y-51702899D02*
X220608531Y-51944804D01*
X220608531Y-51944804D02*
X220669007Y-52065756D01*
X220669007Y-52065756D02*
X220729484Y-52126233D01*
X220729484Y-52126233D02*
X220850436Y-52186709D01*
X207713095Y-46403832D02*
X208438809Y-46403832D01*
X208075952Y-47673832D02*
X208075952Y-46403832D01*
X209043571Y-47673832D02*
X208922619Y-47613356D01*
X208922619Y-47613356D02*
X208862142Y-47552879D01*
X208862142Y-47552879D02*
X208801666Y-47431927D01*
X208801666Y-47431927D02*
X208801666Y-47069070D01*
X208801666Y-47069070D02*
X208862142Y-46948117D01*
X208862142Y-46948117D02*
X208922619Y-46887641D01*
X208922619Y-46887641D02*
X209043571Y-46827165D01*
X209043571Y-46827165D02*
X209225000Y-46827165D01*
X209225000Y-46827165D02*
X209345952Y-46887641D01*
X209345952Y-46887641D02*
X209406428Y-46948117D01*
X209406428Y-46948117D02*
X209466904Y-47069070D01*
X209466904Y-47069070D02*
X209466904Y-47431927D01*
X209466904Y-47431927D02*
X209406428Y-47552879D01*
X209406428Y-47552879D02*
X209345952Y-47613356D01*
X209345952Y-47613356D02*
X209225000Y-47673832D01*
X209225000Y-47673832D02*
X209043571Y-47673832D01*
X210011190Y-46827165D02*
X210011190Y-48097165D01*
X210011190Y-46887641D02*
X210132143Y-46827165D01*
X210132143Y-46827165D02*
X210374048Y-46827165D01*
X210374048Y-46827165D02*
X210495000Y-46887641D01*
X210495000Y-46887641D02*
X210555476Y-46948117D01*
X210555476Y-46948117D02*
X210615952Y-47069070D01*
X210615952Y-47069070D02*
X210615952Y-47431927D01*
X210615952Y-47431927D02*
X210555476Y-47552879D01*
X210555476Y-47552879D02*
X210495000Y-47613356D01*
X210495000Y-47613356D02*
X210374048Y-47673832D01*
X210374048Y-47673832D02*
X210132143Y-47673832D01*
X210132143Y-47673832D02*
X210011190Y-47613356D01*
X208378333Y-57168594D02*
X208559761Y-57229070D01*
X208559761Y-57229070D02*
X208620238Y-57289546D01*
X208620238Y-57289546D02*
X208680714Y-57410498D01*
X208680714Y-57410498D02*
X208680714Y-57591927D01*
X208680714Y-57591927D02*
X208620238Y-57712879D01*
X208620238Y-57712879D02*
X208559761Y-57773356D01*
X208559761Y-57773356D02*
X208438809Y-57833832D01*
X208438809Y-57833832D02*
X207954999Y-57833832D01*
X207954999Y-57833832D02*
X207954999Y-56563832D01*
X207954999Y-56563832D02*
X208378333Y-56563832D01*
X208378333Y-56563832D02*
X208499285Y-56624308D01*
X208499285Y-56624308D02*
X208559761Y-56684784D01*
X208559761Y-56684784D02*
X208620238Y-56805736D01*
X208620238Y-56805736D02*
X208620238Y-56926689D01*
X208620238Y-56926689D02*
X208559761Y-57047641D01*
X208559761Y-57047641D02*
X208499285Y-57108117D01*
X208499285Y-57108117D02*
X208378333Y-57168594D01*
X208378333Y-57168594D02*
X207954999Y-57168594D01*
X209406428Y-57833832D02*
X209285476Y-57773356D01*
X209285476Y-57773356D02*
X209224999Y-57712879D01*
X209224999Y-57712879D02*
X209164523Y-57591927D01*
X209164523Y-57591927D02*
X209164523Y-57229070D01*
X209164523Y-57229070D02*
X209224999Y-57108117D01*
X209224999Y-57108117D02*
X209285476Y-57047641D01*
X209285476Y-57047641D02*
X209406428Y-56987165D01*
X209406428Y-56987165D02*
X209587857Y-56987165D01*
X209587857Y-56987165D02*
X209708809Y-57047641D01*
X209708809Y-57047641D02*
X209769285Y-57108117D01*
X209769285Y-57108117D02*
X209829761Y-57229070D01*
X209829761Y-57229070D02*
X209829761Y-57591927D01*
X209829761Y-57591927D02*
X209769285Y-57712879D01*
X209769285Y-57712879D02*
X209708809Y-57773356D01*
X209708809Y-57773356D02*
X209587857Y-57833832D01*
X209587857Y-57833832D02*
X209406428Y-57833832D01*
X210192619Y-56987165D02*
X210676428Y-56987165D01*
X210374047Y-56563832D02*
X210374047Y-57652403D01*
X210374047Y-57652403D02*
X210434524Y-57773356D01*
X210434524Y-57773356D02*
X210555476Y-57833832D01*
X210555476Y-57833832D02*
X210676428Y-57833832D01*
D12*
X231057380Y-51475908D02*
X231057380Y-52504003D01*
X231057380Y-52504003D02*
X231117857Y-52624955D01*
X231117857Y-52624955D02*
X231178333Y-52685432D01*
X231178333Y-52685432D02*
X231299285Y-52745908D01*
X231299285Y-52745908D02*
X231541190Y-52745908D01*
X231541190Y-52745908D02*
X231662142Y-52685432D01*
X231662142Y-52685432D02*
X231722619Y-52624955D01*
X231722619Y-52624955D02*
X231783095Y-52504003D01*
X231783095Y-52504003D02*
X231783095Y-51475908D01*
X232266904Y-51475908D02*
X233053095Y-51475908D01*
X233053095Y-51475908D02*
X232629761Y-51959717D01*
X232629761Y-51959717D02*
X232811190Y-51959717D01*
X232811190Y-51959717D02*
X232932142Y-52020193D01*
X232932142Y-52020193D02*
X232992618Y-52080670D01*
X232992618Y-52080670D02*
X233053095Y-52201622D01*
X233053095Y-52201622D02*
X233053095Y-52504003D01*
X233053095Y-52504003D02*
X232992618Y-52624955D01*
X232992618Y-52624955D02*
X232932142Y-52685432D01*
X232932142Y-52685432D02*
X232811190Y-52745908D01*
X232811190Y-52745908D02*
X232448333Y-52745908D01*
X232448333Y-52745908D02*
X232327380Y-52685432D01*
X232327380Y-52685432D02*
X232266904Y-52624955D01*
D11*
X152097142Y-121132319D02*
X151763809Y-120656128D01*
X151525714Y-121132319D02*
X151525714Y-120132319D01*
X151525714Y-120132319D02*
X151906666Y-120132319D01*
X151906666Y-120132319D02*
X152001904Y-120179938D01*
X152001904Y-120179938D02*
X152049523Y-120227557D01*
X152049523Y-120227557D02*
X152097142Y-120322795D01*
X152097142Y-120322795D02*
X152097142Y-120465652D01*
X152097142Y-120465652D02*
X152049523Y-120560890D01*
X152049523Y-120560890D02*
X152001904Y-120608509D01*
X152001904Y-120608509D02*
X151906666Y-120656128D01*
X151906666Y-120656128D02*
X151525714Y-120656128D01*
X153049523Y-121132319D02*
X152478095Y-121132319D01*
X152763809Y-121132319D02*
X152763809Y-120132319D01*
X152763809Y-120132319D02*
X152668571Y-120275176D01*
X152668571Y-120275176D02*
X152573333Y-120370414D01*
X152573333Y-120370414D02*
X152478095Y-120418033D01*
X153382857Y-120132319D02*
X154049523Y-120132319D01*
X154049523Y-120132319D02*
X153620952Y-121132319D01*
X186158333Y-33759819D02*
X185825000Y-33283628D01*
X185586905Y-33759819D02*
X185586905Y-32759819D01*
X185586905Y-32759819D02*
X185967857Y-32759819D01*
X185967857Y-32759819D02*
X186063095Y-32807438D01*
X186063095Y-32807438D02*
X186110714Y-32855057D01*
X186110714Y-32855057D02*
X186158333Y-32950295D01*
X186158333Y-32950295D02*
X186158333Y-33093152D01*
X186158333Y-33093152D02*
X186110714Y-33188390D01*
X186110714Y-33188390D02*
X186063095Y-33236009D01*
X186063095Y-33236009D02*
X185967857Y-33283628D01*
X185967857Y-33283628D02*
X185586905Y-33283628D01*
X186729762Y-33188390D02*
X186634524Y-33140771D01*
X186634524Y-33140771D02*
X186586905Y-33093152D01*
X186586905Y-33093152D02*
X186539286Y-32997914D01*
X186539286Y-32997914D02*
X186539286Y-32950295D01*
X186539286Y-32950295D02*
X186586905Y-32855057D01*
X186586905Y-32855057D02*
X186634524Y-32807438D01*
X186634524Y-32807438D02*
X186729762Y-32759819D01*
X186729762Y-32759819D02*
X186920238Y-32759819D01*
X186920238Y-32759819D02*
X187015476Y-32807438D01*
X187015476Y-32807438D02*
X187063095Y-32855057D01*
X187063095Y-32855057D02*
X187110714Y-32950295D01*
X187110714Y-32950295D02*
X187110714Y-32997914D01*
X187110714Y-32997914D02*
X187063095Y-33093152D01*
X187063095Y-33093152D02*
X187015476Y-33140771D01*
X187015476Y-33140771D02*
X186920238Y-33188390D01*
X186920238Y-33188390D02*
X186729762Y-33188390D01*
X186729762Y-33188390D02*
X186634524Y-33236009D01*
X186634524Y-33236009D02*
X186586905Y-33283628D01*
X186586905Y-33283628D02*
X186539286Y-33378866D01*
X186539286Y-33378866D02*
X186539286Y-33569342D01*
X186539286Y-33569342D02*
X186586905Y-33664580D01*
X186586905Y-33664580D02*
X186634524Y-33712200D01*
X186634524Y-33712200D02*
X186729762Y-33759819D01*
X186729762Y-33759819D02*
X186920238Y-33759819D01*
X186920238Y-33759819D02*
X187015476Y-33712200D01*
X187015476Y-33712200D02*
X187063095Y-33664580D01*
X187063095Y-33664580D02*
X187110714Y-33569342D01*
X187110714Y-33569342D02*
X187110714Y-33378866D01*
X187110714Y-33378866D02*
X187063095Y-33283628D01*
X187063095Y-33283628D02*
X187015476Y-33236009D01*
X187015476Y-33236009D02*
X186920238Y-33188390D01*
X152097142Y-124722319D02*
X151763809Y-124246128D01*
X151525714Y-124722319D02*
X151525714Y-123722319D01*
X151525714Y-123722319D02*
X151906666Y-123722319D01*
X151906666Y-123722319D02*
X152001904Y-123769938D01*
X152001904Y-123769938D02*
X152049523Y-123817557D01*
X152049523Y-123817557D02*
X152097142Y-123912795D01*
X152097142Y-123912795D02*
X152097142Y-124055652D01*
X152097142Y-124055652D02*
X152049523Y-124150890D01*
X152049523Y-124150890D02*
X152001904Y-124198509D01*
X152001904Y-124198509D02*
X151906666Y-124246128D01*
X151906666Y-124246128D02*
X151525714Y-124246128D01*
X153049523Y-124722319D02*
X152478095Y-124722319D01*
X152763809Y-124722319D02*
X152763809Y-123722319D01*
X152763809Y-123722319D02*
X152668571Y-123865176D01*
X152668571Y-123865176D02*
X152573333Y-123960414D01*
X152573333Y-123960414D02*
X152478095Y-124008033D01*
X153525714Y-124722319D02*
X153716190Y-124722319D01*
X153716190Y-124722319D02*
X153811428Y-124674700D01*
X153811428Y-124674700D02*
X153859047Y-124627080D01*
X153859047Y-124627080D02*
X153954285Y-124484223D01*
X153954285Y-124484223D02*
X154001904Y-124293747D01*
X154001904Y-124293747D02*
X154001904Y-123912795D01*
X154001904Y-123912795D02*
X153954285Y-123817557D01*
X153954285Y-123817557D02*
X153906666Y-123769938D01*
X153906666Y-123769938D02*
X153811428Y-123722319D01*
X153811428Y-123722319D02*
X153620952Y-123722319D01*
X153620952Y-123722319D02*
X153525714Y-123769938D01*
X153525714Y-123769938D02*
X153478095Y-123817557D01*
X153478095Y-123817557D02*
X153430476Y-123912795D01*
X153430476Y-123912795D02*
X153430476Y-124150890D01*
X153430476Y-124150890D02*
X153478095Y-124246128D01*
X153478095Y-124246128D02*
X153525714Y-124293747D01*
X153525714Y-124293747D02*
X153620952Y-124341366D01*
X153620952Y-124341366D02*
X153811428Y-124341366D01*
X153811428Y-124341366D02*
X153906666Y-124293747D01*
X153906666Y-124293747D02*
X153954285Y-124246128D01*
X153954285Y-124246128D02*
X154001904Y-124150890D01*
D10*
X93313095Y-46403832D02*
X94038809Y-46403832D01*
X93675952Y-47673832D02*
X93675952Y-46403832D01*
X94643571Y-47673832D02*
X94522619Y-47613356D01*
X94522619Y-47613356D02*
X94462142Y-47552879D01*
X94462142Y-47552879D02*
X94401666Y-47431927D01*
X94401666Y-47431927D02*
X94401666Y-47069070D01*
X94401666Y-47069070D02*
X94462142Y-46948117D01*
X94462142Y-46948117D02*
X94522619Y-46887641D01*
X94522619Y-46887641D02*
X94643571Y-46827165D01*
X94643571Y-46827165D02*
X94825000Y-46827165D01*
X94825000Y-46827165D02*
X94945952Y-46887641D01*
X94945952Y-46887641D02*
X95006428Y-46948117D01*
X95006428Y-46948117D02*
X95066904Y-47069070D01*
X95066904Y-47069070D02*
X95066904Y-47431927D01*
X95066904Y-47431927D02*
X95006428Y-47552879D01*
X95006428Y-47552879D02*
X94945952Y-47613356D01*
X94945952Y-47613356D02*
X94825000Y-47673832D01*
X94825000Y-47673832D02*
X94643571Y-47673832D01*
X95611190Y-46827165D02*
X95611190Y-48097165D01*
X95611190Y-46887641D02*
X95732143Y-46827165D01*
X95732143Y-46827165D02*
X95974048Y-46827165D01*
X95974048Y-46827165D02*
X96095000Y-46887641D01*
X96095000Y-46887641D02*
X96155476Y-46948117D01*
X96155476Y-46948117D02*
X96215952Y-47069070D01*
X96215952Y-47069070D02*
X96215952Y-47431927D01*
X96215952Y-47431927D02*
X96155476Y-47552879D01*
X96155476Y-47552879D02*
X96095000Y-47613356D01*
X96095000Y-47613356D02*
X95974048Y-47673832D01*
X95974048Y-47673832D02*
X95732143Y-47673832D01*
X95732143Y-47673832D02*
X95611190Y-47613356D01*
X93978333Y-57168594D02*
X94159761Y-57229070D01*
X94159761Y-57229070D02*
X94220238Y-57289546D01*
X94220238Y-57289546D02*
X94280714Y-57410498D01*
X94280714Y-57410498D02*
X94280714Y-57591927D01*
X94280714Y-57591927D02*
X94220238Y-57712879D01*
X94220238Y-57712879D02*
X94159761Y-57773356D01*
X94159761Y-57773356D02*
X94038809Y-57833832D01*
X94038809Y-57833832D02*
X93554999Y-57833832D01*
X93554999Y-57833832D02*
X93554999Y-56563832D01*
X93554999Y-56563832D02*
X93978333Y-56563832D01*
X93978333Y-56563832D02*
X94099285Y-56624308D01*
X94099285Y-56624308D02*
X94159761Y-56684784D01*
X94159761Y-56684784D02*
X94220238Y-56805736D01*
X94220238Y-56805736D02*
X94220238Y-56926689D01*
X94220238Y-56926689D02*
X94159761Y-57047641D01*
X94159761Y-57047641D02*
X94099285Y-57108117D01*
X94099285Y-57108117D02*
X93978333Y-57168594D01*
X93978333Y-57168594D02*
X93554999Y-57168594D01*
X95006428Y-57833832D02*
X94885476Y-57773356D01*
X94885476Y-57773356D02*
X94824999Y-57712879D01*
X94824999Y-57712879D02*
X94764523Y-57591927D01*
X94764523Y-57591927D02*
X94764523Y-57229070D01*
X94764523Y-57229070D02*
X94824999Y-57108117D01*
X94824999Y-57108117D02*
X94885476Y-57047641D01*
X94885476Y-57047641D02*
X95006428Y-56987165D01*
X95006428Y-56987165D02*
X95187857Y-56987165D01*
X95187857Y-56987165D02*
X95308809Y-57047641D01*
X95308809Y-57047641D02*
X95369285Y-57108117D01*
X95369285Y-57108117D02*
X95429761Y-57229070D01*
X95429761Y-57229070D02*
X95429761Y-57591927D01*
X95429761Y-57591927D02*
X95369285Y-57712879D01*
X95369285Y-57712879D02*
X95308809Y-57773356D01*
X95308809Y-57773356D02*
X95187857Y-57833832D01*
X95187857Y-57833832D02*
X95006428Y-57833832D01*
X95792619Y-56987165D02*
X96276428Y-56987165D01*
X95974047Y-56563832D02*
X95974047Y-57652403D01*
X95974047Y-57652403D02*
X96034524Y-57773356D01*
X96034524Y-57773356D02*
X96155476Y-57833832D01*
X96155476Y-57833832D02*
X96276428Y-57833832D01*
D11*
X164264819Y-97860833D02*
X164979104Y-97860833D01*
X164979104Y-97860833D02*
X165121961Y-97908452D01*
X165121961Y-97908452D02*
X165217200Y-98003690D01*
X165217200Y-98003690D02*
X165264819Y-98146547D01*
X165264819Y-98146547D02*
X165264819Y-98241785D01*
X164264819Y-97479880D02*
X164264819Y-96860833D01*
X164264819Y-96860833D02*
X164645771Y-97194166D01*
X164645771Y-97194166D02*
X164645771Y-97051309D01*
X164645771Y-97051309D02*
X164693390Y-96956071D01*
X164693390Y-96956071D02*
X164741009Y-96908452D01*
X164741009Y-96908452D02*
X164836247Y-96860833D01*
X164836247Y-96860833D02*
X165074342Y-96860833D01*
X165074342Y-96860833D02*
X165169580Y-96908452D01*
X165169580Y-96908452D02*
X165217200Y-96956071D01*
X165217200Y-96956071D02*
X165264819Y-97051309D01*
X165264819Y-97051309D02*
X165264819Y-97337023D01*
X165264819Y-97337023D02*
X165217200Y-97432261D01*
X165217200Y-97432261D02*
X165169580Y-97479880D01*
X59134580Y-54741666D02*
X59182200Y-54789285D01*
X59182200Y-54789285D02*
X59229819Y-54932142D01*
X59229819Y-54932142D02*
X59229819Y-55027380D01*
X59229819Y-55027380D02*
X59182200Y-55170237D01*
X59182200Y-55170237D02*
X59086961Y-55265475D01*
X59086961Y-55265475D02*
X58991723Y-55313094D01*
X58991723Y-55313094D02*
X58801247Y-55360713D01*
X58801247Y-55360713D02*
X58658390Y-55360713D01*
X58658390Y-55360713D02*
X58467914Y-55313094D01*
X58467914Y-55313094D02*
X58372676Y-55265475D01*
X58372676Y-55265475D02*
X58277438Y-55170237D01*
X58277438Y-55170237D02*
X58229819Y-55027380D01*
X58229819Y-55027380D02*
X58229819Y-54932142D01*
X58229819Y-54932142D02*
X58277438Y-54789285D01*
X58277438Y-54789285D02*
X58325057Y-54741666D01*
X58229819Y-53884523D02*
X58229819Y-54074999D01*
X58229819Y-54074999D02*
X58277438Y-54170237D01*
X58277438Y-54170237D02*
X58325057Y-54217856D01*
X58325057Y-54217856D02*
X58467914Y-54313094D01*
X58467914Y-54313094D02*
X58658390Y-54360713D01*
X58658390Y-54360713D02*
X59039342Y-54360713D01*
X59039342Y-54360713D02*
X59134580Y-54313094D01*
X59134580Y-54313094D02*
X59182200Y-54265475D01*
X59182200Y-54265475D02*
X59229819Y-54170237D01*
X59229819Y-54170237D02*
X59229819Y-53979761D01*
X59229819Y-53979761D02*
X59182200Y-53884523D01*
X59182200Y-53884523D02*
X59134580Y-53836904D01*
X59134580Y-53836904D02*
X59039342Y-53789285D01*
X59039342Y-53789285D02*
X58801247Y-53789285D01*
X58801247Y-53789285D02*
X58706009Y-53836904D01*
X58706009Y-53836904D02*
X58658390Y-53884523D01*
X58658390Y-53884523D02*
X58610771Y-53979761D01*
X58610771Y-53979761D02*
X58610771Y-54170237D01*
X58610771Y-54170237D02*
X58658390Y-54265475D01*
X58658390Y-54265475D02*
X58706009Y-54313094D01*
X58706009Y-54313094D02*
X58801247Y-54360713D01*
X243234580Y-53216666D02*
X243282200Y-53264285D01*
X243282200Y-53264285D02*
X243329819Y-53407142D01*
X243329819Y-53407142D02*
X243329819Y-53502380D01*
X243329819Y-53502380D02*
X243282200Y-53645237D01*
X243282200Y-53645237D02*
X243186961Y-53740475D01*
X243186961Y-53740475D02*
X243091723Y-53788094D01*
X243091723Y-53788094D02*
X242901247Y-53835713D01*
X242901247Y-53835713D02*
X242758390Y-53835713D01*
X242758390Y-53835713D02*
X242567914Y-53788094D01*
X242567914Y-53788094D02*
X242472676Y-53740475D01*
X242472676Y-53740475D02*
X242377438Y-53645237D01*
X242377438Y-53645237D02*
X242329819Y-53502380D01*
X242329819Y-53502380D02*
X242329819Y-53407142D01*
X242329819Y-53407142D02*
X242377438Y-53264285D01*
X242377438Y-53264285D02*
X242425057Y-53216666D01*
X243329819Y-52740475D02*
X243329819Y-52549999D01*
X243329819Y-52549999D02*
X243282200Y-52454761D01*
X243282200Y-52454761D02*
X243234580Y-52407142D01*
X243234580Y-52407142D02*
X243091723Y-52311904D01*
X243091723Y-52311904D02*
X242901247Y-52264285D01*
X242901247Y-52264285D02*
X242520295Y-52264285D01*
X242520295Y-52264285D02*
X242425057Y-52311904D01*
X242425057Y-52311904D02*
X242377438Y-52359523D01*
X242377438Y-52359523D02*
X242329819Y-52454761D01*
X242329819Y-52454761D02*
X242329819Y-52645237D01*
X242329819Y-52645237D02*
X242377438Y-52740475D01*
X242377438Y-52740475D02*
X242425057Y-52788094D01*
X242425057Y-52788094D02*
X242520295Y-52835713D01*
X242520295Y-52835713D02*
X242758390Y-52835713D01*
X242758390Y-52835713D02*
X242853628Y-52788094D01*
X242853628Y-52788094D02*
X242901247Y-52740475D01*
X242901247Y-52740475D02*
X242948866Y-52645237D01*
X242948866Y-52645237D02*
X242948866Y-52454761D01*
X242948866Y-52454761D02*
X242901247Y-52359523D01*
X242901247Y-52359523D02*
X242853628Y-52311904D01*
X242853628Y-52311904D02*
X242758390Y-52264285D01*
X226242142Y-38974819D02*
X225908809Y-38498628D01*
X225670714Y-38974819D02*
X225670714Y-37974819D01*
X225670714Y-37974819D02*
X226051666Y-37974819D01*
X226051666Y-37974819D02*
X226146904Y-38022438D01*
X226146904Y-38022438D02*
X226194523Y-38070057D01*
X226194523Y-38070057D02*
X226242142Y-38165295D01*
X226242142Y-38165295D02*
X226242142Y-38308152D01*
X226242142Y-38308152D02*
X226194523Y-38403390D01*
X226194523Y-38403390D02*
X226146904Y-38451009D01*
X226146904Y-38451009D02*
X226051666Y-38498628D01*
X226051666Y-38498628D02*
X225670714Y-38498628D01*
X226623095Y-38070057D02*
X226670714Y-38022438D01*
X226670714Y-38022438D02*
X226765952Y-37974819D01*
X226765952Y-37974819D02*
X227004047Y-37974819D01*
X227004047Y-37974819D02*
X227099285Y-38022438D01*
X227099285Y-38022438D02*
X227146904Y-38070057D01*
X227146904Y-38070057D02*
X227194523Y-38165295D01*
X227194523Y-38165295D02*
X227194523Y-38260533D01*
X227194523Y-38260533D02*
X227146904Y-38403390D01*
X227146904Y-38403390D02*
X226575476Y-38974819D01*
X226575476Y-38974819D02*
X227194523Y-38974819D01*
X228051666Y-37974819D02*
X227861190Y-37974819D01*
X227861190Y-37974819D02*
X227765952Y-38022438D01*
X227765952Y-38022438D02*
X227718333Y-38070057D01*
X227718333Y-38070057D02*
X227623095Y-38212914D01*
X227623095Y-38212914D02*
X227575476Y-38403390D01*
X227575476Y-38403390D02*
X227575476Y-38784342D01*
X227575476Y-38784342D02*
X227623095Y-38879580D01*
X227623095Y-38879580D02*
X227670714Y-38927200D01*
X227670714Y-38927200D02*
X227765952Y-38974819D01*
X227765952Y-38974819D02*
X227956428Y-38974819D01*
X227956428Y-38974819D02*
X228051666Y-38927200D01*
X228051666Y-38927200D02*
X228099285Y-38879580D01*
X228099285Y-38879580D02*
X228146904Y-38784342D01*
X228146904Y-38784342D02*
X228146904Y-38546247D01*
X228146904Y-38546247D02*
X228099285Y-38451009D01*
X228099285Y-38451009D02*
X228051666Y-38403390D01*
X228051666Y-38403390D02*
X227956428Y-38355771D01*
X227956428Y-38355771D02*
X227765952Y-38355771D01*
X227765952Y-38355771D02*
X227670714Y-38403390D01*
X227670714Y-38403390D02*
X227623095Y-38451009D01*
X227623095Y-38451009D02*
X227575476Y-38546247D01*
X139073333Y-117612319D02*
X138740000Y-117136128D01*
X138501905Y-117612319D02*
X138501905Y-116612319D01*
X138501905Y-116612319D02*
X138882857Y-116612319D01*
X138882857Y-116612319D02*
X138978095Y-116659938D01*
X138978095Y-116659938D02*
X139025714Y-116707557D01*
X139025714Y-116707557D02*
X139073333Y-116802795D01*
X139073333Y-116802795D02*
X139073333Y-116945652D01*
X139073333Y-116945652D02*
X139025714Y-117040890D01*
X139025714Y-117040890D02*
X138978095Y-117088509D01*
X138978095Y-117088509D02*
X138882857Y-117136128D01*
X138882857Y-117136128D02*
X138501905Y-117136128D01*
X140025714Y-117612319D02*
X139454286Y-117612319D01*
X139740000Y-117612319D02*
X139740000Y-116612319D01*
X139740000Y-116612319D02*
X139644762Y-116755176D01*
X139644762Y-116755176D02*
X139549524Y-116850414D01*
X139549524Y-116850414D02*
X139454286Y-116898033D01*
X139846905Y-56126409D02*
X139846905Y-55126409D01*
X139846905Y-55126409D02*
X140085000Y-55126409D01*
X140085000Y-55126409D02*
X140227857Y-55174028D01*
X140227857Y-55174028D02*
X140323095Y-55269266D01*
X140323095Y-55269266D02*
X140370714Y-55364504D01*
X140370714Y-55364504D02*
X140418333Y-55554980D01*
X140418333Y-55554980D02*
X140418333Y-55697837D01*
X140418333Y-55697837D02*
X140370714Y-55888313D01*
X140370714Y-55888313D02*
X140323095Y-55983551D01*
X140323095Y-55983551D02*
X140227857Y-56078790D01*
X140227857Y-56078790D02*
X140085000Y-56126409D01*
X140085000Y-56126409D02*
X139846905Y-56126409D01*
X140751667Y-55126409D02*
X141370714Y-55126409D01*
X141370714Y-55126409D02*
X141037381Y-55507361D01*
X141037381Y-55507361D02*
X141180238Y-55507361D01*
X141180238Y-55507361D02*
X141275476Y-55554980D01*
X141275476Y-55554980D02*
X141323095Y-55602599D01*
X141323095Y-55602599D02*
X141370714Y-55697837D01*
X141370714Y-55697837D02*
X141370714Y-55935932D01*
X141370714Y-55935932D02*
X141323095Y-56031170D01*
X141323095Y-56031170D02*
X141275476Y-56078790D01*
X141275476Y-56078790D02*
X141180238Y-56126409D01*
X141180238Y-56126409D02*
X140894524Y-56126409D01*
X140894524Y-56126409D02*
X140799286Y-56078790D01*
X140799286Y-56078790D02*
X140751667Y-56031170D01*
X246484580Y-53216666D02*
X246532200Y-53264285D01*
X246532200Y-53264285D02*
X246579819Y-53407142D01*
X246579819Y-53407142D02*
X246579819Y-53502380D01*
X246579819Y-53502380D02*
X246532200Y-53645237D01*
X246532200Y-53645237D02*
X246436961Y-53740475D01*
X246436961Y-53740475D02*
X246341723Y-53788094D01*
X246341723Y-53788094D02*
X246151247Y-53835713D01*
X246151247Y-53835713D02*
X246008390Y-53835713D01*
X246008390Y-53835713D02*
X245817914Y-53788094D01*
X245817914Y-53788094D02*
X245722676Y-53740475D01*
X245722676Y-53740475D02*
X245627438Y-53645237D01*
X245627438Y-53645237D02*
X245579819Y-53502380D01*
X245579819Y-53502380D02*
X245579819Y-53407142D01*
X245579819Y-53407142D02*
X245627438Y-53264285D01*
X245627438Y-53264285D02*
X245675057Y-53216666D01*
X245579819Y-52883332D02*
X245579819Y-52216666D01*
X245579819Y-52216666D02*
X246579819Y-52645237D01*
D12*
X71057380Y-51475908D02*
X71057380Y-52504003D01*
X71057380Y-52504003D02*
X71117857Y-52624955D01*
X71117857Y-52624955D02*
X71178333Y-52685432D01*
X71178333Y-52685432D02*
X71299285Y-52745908D01*
X71299285Y-52745908D02*
X71541190Y-52745908D01*
X71541190Y-52745908D02*
X71662142Y-52685432D01*
X71662142Y-52685432D02*
X71722619Y-52624955D01*
X71722619Y-52624955D02*
X71783095Y-52504003D01*
X71783095Y-52504003D02*
X71783095Y-51475908D01*
X72327380Y-51596860D02*
X72387856Y-51536384D01*
X72387856Y-51536384D02*
X72508809Y-51475908D01*
X72508809Y-51475908D02*
X72811190Y-51475908D01*
X72811190Y-51475908D02*
X72932142Y-51536384D01*
X72932142Y-51536384D02*
X72992618Y-51596860D01*
X72992618Y-51596860D02*
X73053095Y-51717812D01*
X73053095Y-51717812D02*
X73053095Y-51838765D01*
X73053095Y-51838765D02*
X72992618Y-52020193D01*
X72992618Y-52020193D02*
X72266904Y-52745908D01*
X72266904Y-52745908D02*
X73053095Y-52745908D01*
D10*
X129874722Y-53456709D02*
X128604722Y-53456709D01*
X128604722Y-53456709D02*
X129874722Y-52730994D01*
X129874722Y-52730994D02*
X128604722Y-52730994D01*
X128725674Y-52186709D02*
X128665198Y-52126233D01*
X128665198Y-52126233D02*
X128604722Y-52005280D01*
X128604722Y-52005280D02*
X128604722Y-51702899D01*
X128604722Y-51702899D02*
X128665198Y-51581947D01*
X128665198Y-51581947D02*
X128725674Y-51521471D01*
X128725674Y-51521471D02*
X128846626Y-51460994D01*
X128846626Y-51460994D02*
X128967579Y-51460994D01*
X128967579Y-51460994D02*
X129149007Y-51521471D01*
X129149007Y-51521471D02*
X129874722Y-52247185D01*
X129874722Y-52247185D02*
X129874722Y-51460994D01*
X116193095Y-46403832D02*
X116918809Y-46403832D01*
X116555952Y-47673832D02*
X116555952Y-46403832D01*
X117523571Y-47673832D02*
X117402619Y-47613356D01*
X117402619Y-47613356D02*
X117342142Y-47552879D01*
X117342142Y-47552879D02*
X117281666Y-47431927D01*
X117281666Y-47431927D02*
X117281666Y-47069070D01*
X117281666Y-47069070D02*
X117342142Y-46948117D01*
X117342142Y-46948117D02*
X117402619Y-46887641D01*
X117402619Y-46887641D02*
X117523571Y-46827165D01*
X117523571Y-46827165D02*
X117705000Y-46827165D01*
X117705000Y-46827165D02*
X117825952Y-46887641D01*
X117825952Y-46887641D02*
X117886428Y-46948117D01*
X117886428Y-46948117D02*
X117946904Y-47069070D01*
X117946904Y-47069070D02*
X117946904Y-47431927D01*
X117946904Y-47431927D02*
X117886428Y-47552879D01*
X117886428Y-47552879D02*
X117825952Y-47613356D01*
X117825952Y-47613356D02*
X117705000Y-47673832D01*
X117705000Y-47673832D02*
X117523571Y-47673832D01*
X118491190Y-46827165D02*
X118491190Y-48097165D01*
X118491190Y-46887641D02*
X118612143Y-46827165D01*
X118612143Y-46827165D02*
X118854048Y-46827165D01*
X118854048Y-46827165D02*
X118975000Y-46887641D01*
X118975000Y-46887641D02*
X119035476Y-46948117D01*
X119035476Y-46948117D02*
X119095952Y-47069070D01*
X119095952Y-47069070D02*
X119095952Y-47431927D01*
X119095952Y-47431927D02*
X119035476Y-47552879D01*
X119035476Y-47552879D02*
X118975000Y-47613356D01*
X118975000Y-47613356D02*
X118854048Y-47673832D01*
X118854048Y-47673832D02*
X118612143Y-47673832D01*
X118612143Y-47673832D02*
X118491190Y-47613356D01*
X116858333Y-57168594D02*
X117039761Y-57229070D01*
X117039761Y-57229070D02*
X117100238Y-57289546D01*
X117100238Y-57289546D02*
X117160714Y-57410498D01*
X117160714Y-57410498D02*
X117160714Y-57591927D01*
X117160714Y-57591927D02*
X117100238Y-57712879D01*
X117100238Y-57712879D02*
X117039761Y-57773356D01*
X117039761Y-57773356D02*
X116918809Y-57833832D01*
X116918809Y-57833832D02*
X116434999Y-57833832D01*
X116434999Y-57833832D02*
X116434999Y-56563832D01*
X116434999Y-56563832D02*
X116858333Y-56563832D01*
X116858333Y-56563832D02*
X116979285Y-56624308D01*
X116979285Y-56624308D02*
X117039761Y-56684784D01*
X117039761Y-56684784D02*
X117100238Y-56805736D01*
X117100238Y-56805736D02*
X117100238Y-56926689D01*
X117100238Y-56926689D02*
X117039761Y-57047641D01*
X117039761Y-57047641D02*
X116979285Y-57108117D01*
X116979285Y-57108117D02*
X116858333Y-57168594D01*
X116858333Y-57168594D02*
X116434999Y-57168594D01*
X117886428Y-57833832D02*
X117765476Y-57773356D01*
X117765476Y-57773356D02*
X117704999Y-57712879D01*
X117704999Y-57712879D02*
X117644523Y-57591927D01*
X117644523Y-57591927D02*
X117644523Y-57229070D01*
X117644523Y-57229070D02*
X117704999Y-57108117D01*
X117704999Y-57108117D02*
X117765476Y-57047641D01*
X117765476Y-57047641D02*
X117886428Y-56987165D01*
X117886428Y-56987165D02*
X118067857Y-56987165D01*
X118067857Y-56987165D02*
X118188809Y-57047641D01*
X118188809Y-57047641D02*
X118249285Y-57108117D01*
X118249285Y-57108117D02*
X118309761Y-57229070D01*
X118309761Y-57229070D02*
X118309761Y-57591927D01*
X118309761Y-57591927D02*
X118249285Y-57712879D01*
X118249285Y-57712879D02*
X118188809Y-57773356D01*
X118188809Y-57773356D02*
X118067857Y-57833832D01*
X118067857Y-57833832D02*
X117886428Y-57833832D01*
X118672619Y-56987165D02*
X119156428Y-56987165D01*
X118854047Y-56563832D02*
X118854047Y-57652403D01*
X118854047Y-57652403D02*
X118914524Y-57773356D01*
X118914524Y-57773356D02*
X119035476Y-57833832D01*
X119035476Y-57833832D02*
X119156428Y-57833832D01*
D11*
X164887142Y-121202319D02*
X164553809Y-120726128D01*
X164315714Y-121202319D02*
X164315714Y-120202319D01*
X164315714Y-120202319D02*
X164696666Y-120202319D01*
X164696666Y-120202319D02*
X164791904Y-120249938D01*
X164791904Y-120249938D02*
X164839523Y-120297557D01*
X164839523Y-120297557D02*
X164887142Y-120392795D01*
X164887142Y-120392795D02*
X164887142Y-120535652D01*
X164887142Y-120535652D02*
X164839523Y-120630890D01*
X164839523Y-120630890D02*
X164791904Y-120678509D01*
X164791904Y-120678509D02*
X164696666Y-120726128D01*
X164696666Y-120726128D02*
X164315714Y-120726128D01*
X165268095Y-120297557D02*
X165315714Y-120249938D01*
X165315714Y-120249938D02*
X165410952Y-120202319D01*
X165410952Y-120202319D02*
X165649047Y-120202319D01*
X165649047Y-120202319D02*
X165744285Y-120249938D01*
X165744285Y-120249938D02*
X165791904Y-120297557D01*
X165791904Y-120297557D02*
X165839523Y-120392795D01*
X165839523Y-120392795D02*
X165839523Y-120488033D01*
X165839523Y-120488033D02*
X165791904Y-120630890D01*
X165791904Y-120630890D02*
X165220476Y-121202319D01*
X165220476Y-121202319D02*
X165839523Y-121202319D01*
X166696666Y-120535652D02*
X166696666Y-121202319D01*
X166458571Y-120154700D02*
X166220476Y-120868985D01*
X166220476Y-120868985D02*
X166839523Y-120868985D01*
X94638333Y-33759819D02*
X94305000Y-33283628D01*
X94066905Y-33759819D02*
X94066905Y-32759819D01*
X94066905Y-32759819D02*
X94447857Y-32759819D01*
X94447857Y-32759819D02*
X94543095Y-32807438D01*
X94543095Y-32807438D02*
X94590714Y-32855057D01*
X94590714Y-32855057D02*
X94638333Y-32950295D01*
X94638333Y-32950295D02*
X94638333Y-33093152D01*
X94638333Y-33093152D02*
X94590714Y-33188390D01*
X94590714Y-33188390D02*
X94543095Y-33236009D01*
X94543095Y-33236009D02*
X94447857Y-33283628D01*
X94447857Y-33283628D02*
X94066905Y-33283628D01*
X95495476Y-33093152D02*
X95495476Y-33759819D01*
X95257381Y-32712200D02*
X95019286Y-33426485D01*
X95019286Y-33426485D02*
X95638333Y-33426485D01*
X152097142Y-105412319D02*
X151763809Y-104936128D01*
X151525714Y-105412319D02*
X151525714Y-104412319D01*
X151525714Y-104412319D02*
X151906666Y-104412319D01*
X151906666Y-104412319D02*
X152001904Y-104459938D01*
X152001904Y-104459938D02*
X152049523Y-104507557D01*
X152049523Y-104507557D02*
X152097142Y-104602795D01*
X152097142Y-104602795D02*
X152097142Y-104745652D01*
X152097142Y-104745652D02*
X152049523Y-104840890D01*
X152049523Y-104840890D02*
X152001904Y-104888509D01*
X152001904Y-104888509D02*
X151906666Y-104936128D01*
X151906666Y-104936128D02*
X151525714Y-104936128D01*
X153049523Y-105412319D02*
X152478095Y-105412319D01*
X152763809Y-105412319D02*
X152763809Y-104412319D01*
X152763809Y-104412319D02*
X152668571Y-104555176D01*
X152668571Y-104555176D02*
X152573333Y-104650414D01*
X152573333Y-104650414D02*
X152478095Y-104698033D01*
X153382857Y-104412319D02*
X154001904Y-104412319D01*
X154001904Y-104412319D02*
X153668571Y-104793271D01*
X153668571Y-104793271D02*
X153811428Y-104793271D01*
X153811428Y-104793271D02*
X153906666Y-104840890D01*
X153906666Y-104840890D02*
X153954285Y-104888509D01*
X153954285Y-104888509D02*
X154001904Y-104983747D01*
X154001904Y-104983747D02*
X154001904Y-105221842D01*
X154001904Y-105221842D02*
X153954285Y-105317080D01*
X153954285Y-105317080D02*
X153906666Y-105364700D01*
X153906666Y-105364700D02*
X153811428Y-105412319D01*
X153811428Y-105412319D02*
X153525714Y-105412319D01*
X153525714Y-105412319D02*
X153430476Y-105364700D01*
X153430476Y-105364700D02*
X153382857Y-105317080D01*
X46716666Y-27054819D02*
X46383333Y-26578628D01*
X46145238Y-27054819D02*
X46145238Y-26054819D01*
X46145238Y-26054819D02*
X46526190Y-26054819D01*
X46526190Y-26054819D02*
X46621428Y-26102438D01*
X46621428Y-26102438D02*
X46669047Y-26150057D01*
X46669047Y-26150057D02*
X46716666Y-26245295D01*
X46716666Y-26245295D02*
X46716666Y-26388152D01*
X46716666Y-26388152D02*
X46669047Y-26483390D01*
X46669047Y-26483390D02*
X46621428Y-26531009D01*
X46621428Y-26531009D02*
X46526190Y-26578628D01*
X46526190Y-26578628D02*
X46145238Y-26578628D01*
X47145238Y-26531009D02*
X47478571Y-26531009D01*
X47621428Y-27054819D02*
X47145238Y-27054819D01*
X47145238Y-27054819D02*
X47145238Y-26054819D01*
X47145238Y-26054819D02*
X47621428Y-26054819D01*
X48383333Y-26531009D02*
X48050000Y-26531009D01*
X48050000Y-27054819D02*
X48050000Y-26054819D01*
X48050000Y-26054819D02*
X48526190Y-26054819D01*
X49050000Y-26054819D02*
X49050000Y-26292914D01*
X48811905Y-26197676D02*
X49050000Y-26292914D01*
X49050000Y-26292914D02*
X49288095Y-26197676D01*
X48907143Y-26483390D02*
X49050000Y-26292914D01*
X49050000Y-26292914D02*
X49192857Y-26483390D01*
X49811905Y-26054819D02*
X49811905Y-26292914D01*
X49573810Y-26197676D02*
X49811905Y-26292914D01*
X49811905Y-26292914D02*
X50050000Y-26197676D01*
X49669048Y-26483390D02*
X49811905Y-26292914D01*
X49811905Y-26292914D02*
X49954762Y-26483390D01*
X152097142Y-117612319D02*
X151763809Y-117136128D01*
X151525714Y-117612319D02*
X151525714Y-116612319D01*
X151525714Y-116612319D02*
X151906666Y-116612319D01*
X151906666Y-116612319D02*
X152001904Y-116659938D01*
X152001904Y-116659938D02*
X152049523Y-116707557D01*
X152049523Y-116707557D02*
X152097142Y-116802795D01*
X152097142Y-116802795D02*
X152097142Y-116945652D01*
X152097142Y-116945652D02*
X152049523Y-117040890D01*
X152049523Y-117040890D02*
X152001904Y-117088509D01*
X152001904Y-117088509D02*
X151906666Y-117136128D01*
X151906666Y-117136128D02*
X151525714Y-117136128D01*
X153049523Y-117612319D02*
X152478095Y-117612319D01*
X152763809Y-117612319D02*
X152763809Y-116612319D01*
X152763809Y-116612319D02*
X152668571Y-116755176D01*
X152668571Y-116755176D02*
X152573333Y-116850414D01*
X152573333Y-116850414D02*
X152478095Y-116898033D01*
X153906666Y-116612319D02*
X153716190Y-116612319D01*
X153716190Y-116612319D02*
X153620952Y-116659938D01*
X153620952Y-116659938D02*
X153573333Y-116707557D01*
X153573333Y-116707557D02*
X153478095Y-116850414D01*
X153478095Y-116850414D02*
X153430476Y-117040890D01*
X153430476Y-117040890D02*
X153430476Y-117421842D01*
X153430476Y-117421842D02*
X153478095Y-117517080D01*
X153478095Y-117517080D02*
X153525714Y-117564700D01*
X153525714Y-117564700D02*
X153620952Y-117612319D01*
X153620952Y-117612319D02*
X153811428Y-117612319D01*
X153811428Y-117612319D02*
X153906666Y-117564700D01*
X153906666Y-117564700D02*
X153954285Y-117517080D01*
X153954285Y-117517080D02*
X154001904Y-117421842D01*
X154001904Y-117421842D02*
X154001904Y-117183747D01*
X154001904Y-117183747D02*
X153954285Y-117088509D01*
X153954285Y-117088509D02*
X153906666Y-117040890D01*
X153906666Y-117040890D02*
X153811428Y-116993271D01*
X153811428Y-116993271D02*
X153620952Y-116993271D01*
X153620952Y-116993271D02*
X153525714Y-117040890D01*
X153525714Y-117040890D02*
X153478095Y-117088509D01*
X153478095Y-117088509D02*
X153430476Y-117183747D01*
D10*
X198514722Y-53456709D02*
X197244722Y-53456709D01*
X197244722Y-53456709D02*
X198514722Y-52730994D01*
X198514722Y-52730994D02*
X197244722Y-52730994D01*
X197244722Y-51521471D02*
X197244722Y-52126233D01*
X197244722Y-52126233D02*
X197849484Y-52186709D01*
X197849484Y-52186709D02*
X197789007Y-52126233D01*
X197789007Y-52126233D02*
X197728531Y-52005280D01*
X197728531Y-52005280D02*
X197728531Y-51702899D01*
X197728531Y-51702899D02*
X197789007Y-51581947D01*
X197789007Y-51581947D02*
X197849484Y-51521471D01*
X197849484Y-51521471D02*
X197970436Y-51460994D01*
X197970436Y-51460994D02*
X198272817Y-51460994D01*
X198272817Y-51460994D02*
X198393769Y-51521471D01*
X198393769Y-51521471D02*
X198454246Y-51581947D01*
X198454246Y-51581947D02*
X198514722Y-51702899D01*
X198514722Y-51702899D02*
X198514722Y-52005280D01*
X198514722Y-52005280D02*
X198454246Y-52126233D01*
X198454246Y-52126233D02*
X198393769Y-52186709D01*
X184833095Y-46403832D02*
X185558809Y-46403832D01*
X185195952Y-47673832D02*
X185195952Y-46403832D01*
X186163571Y-47673832D02*
X186042619Y-47613356D01*
X186042619Y-47613356D02*
X185982142Y-47552879D01*
X185982142Y-47552879D02*
X185921666Y-47431927D01*
X185921666Y-47431927D02*
X185921666Y-47069070D01*
X185921666Y-47069070D02*
X185982142Y-46948117D01*
X185982142Y-46948117D02*
X186042619Y-46887641D01*
X186042619Y-46887641D02*
X186163571Y-46827165D01*
X186163571Y-46827165D02*
X186345000Y-46827165D01*
X186345000Y-46827165D02*
X186465952Y-46887641D01*
X186465952Y-46887641D02*
X186526428Y-46948117D01*
X186526428Y-46948117D02*
X186586904Y-47069070D01*
X186586904Y-47069070D02*
X186586904Y-47431927D01*
X186586904Y-47431927D02*
X186526428Y-47552879D01*
X186526428Y-47552879D02*
X186465952Y-47613356D01*
X186465952Y-47613356D02*
X186345000Y-47673832D01*
X186345000Y-47673832D02*
X186163571Y-47673832D01*
X187131190Y-46827165D02*
X187131190Y-48097165D01*
X187131190Y-46887641D02*
X187252143Y-46827165D01*
X187252143Y-46827165D02*
X187494048Y-46827165D01*
X187494048Y-46827165D02*
X187615000Y-46887641D01*
X187615000Y-46887641D02*
X187675476Y-46948117D01*
X187675476Y-46948117D02*
X187735952Y-47069070D01*
X187735952Y-47069070D02*
X187735952Y-47431927D01*
X187735952Y-47431927D02*
X187675476Y-47552879D01*
X187675476Y-47552879D02*
X187615000Y-47613356D01*
X187615000Y-47613356D02*
X187494048Y-47673832D01*
X187494048Y-47673832D02*
X187252143Y-47673832D01*
X187252143Y-47673832D02*
X187131190Y-47613356D01*
X185498333Y-57168594D02*
X185679761Y-57229070D01*
X185679761Y-57229070D02*
X185740238Y-57289546D01*
X185740238Y-57289546D02*
X185800714Y-57410498D01*
X185800714Y-57410498D02*
X185800714Y-57591927D01*
X185800714Y-57591927D02*
X185740238Y-57712879D01*
X185740238Y-57712879D02*
X185679761Y-57773356D01*
X185679761Y-57773356D02*
X185558809Y-57833832D01*
X185558809Y-57833832D02*
X185074999Y-57833832D01*
X185074999Y-57833832D02*
X185074999Y-56563832D01*
X185074999Y-56563832D02*
X185498333Y-56563832D01*
X185498333Y-56563832D02*
X185619285Y-56624308D01*
X185619285Y-56624308D02*
X185679761Y-56684784D01*
X185679761Y-56684784D02*
X185740238Y-56805736D01*
X185740238Y-56805736D02*
X185740238Y-56926689D01*
X185740238Y-56926689D02*
X185679761Y-57047641D01*
X185679761Y-57047641D02*
X185619285Y-57108117D01*
X185619285Y-57108117D02*
X185498333Y-57168594D01*
X185498333Y-57168594D02*
X185074999Y-57168594D01*
X186526428Y-57833832D02*
X186405476Y-57773356D01*
X186405476Y-57773356D02*
X186344999Y-57712879D01*
X186344999Y-57712879D02*
X186284523Y-57591927D01*
X186284523Y-57591927D02*
X186284523Y-57229070D01*
X186284523Y-57229070D02*
X186344999Y-57108117D01*
X186344999Y-57108117D02*
X186405476Y-57047641D01*
X186405476Y-57047641D02*
X186526428Y-56987165D01*
X186526428Y-56987165D02*
X186707857Y-56987165D01*
X186707857Y-56987165D02*
X186828809Y-57047641D01*
X186828809Y-57047641D02*
X186889285Y-57108117D01*
X186889285Y-57108117D02*
X186949761Y-57229070D01*
X186949761Y-57229070D02*
X186949761Y-57591927D01*
X186949761Y-57591927D02*
X186889285Y-57712879D01*
X186889285Y-57712879D02*
X186828809Y-57773356D01*
X186828809Y-57773356D02*
X186707857Y-57833832D01*
X186707857Y-57833832D02*
X186526428Y-57833832D01*
X187312619Y-56987165D02*
X187796428Y-56987165D01*
X187494047Y-56563832D02*
X187494047Y-57652403D01*
X187494047Y-57652403D02*
X187554524Y-57773356D01*
X187554524Y-57773356D02*
X187675476Y-57833832D01*
X187675476Y-57833832D02*
X187796428Y-57833832D01*
D11*
X208486905Y-56126409D02*
X208486905Y-55126409D01*
X208486905Y-55126409D02*
X208725000Y-55126409D01*
X208725000Y-55126409D02*
X208867857Y-55174028D01*
X208867857Y-55174028D02*
X208963095Y-55269266D01*
X208963095Y-55269266D02*
X209010714Y-55364504D01*
X209010714Y-55364504D02*
X209058333Y-55554980D01*
X209058333Y-55554980D02*
X209058333Y-55697837D01*
X209058333Y-55697837D02*
X209010714Y-55888313D01*
X209010714Y-55888313D02*
X208963095Y-55983551D01*
X208963095Y-55983551D02*
X208867857Y-56078790D01*
X208867857Y-56078790D02*
X208725000Y-56126409D01*
X208725000Y-56126409D02*
X208486905Y-56126409D01*
X209391667Y-55126409D02*
X210058333Y-55126409D01*
X210058333Y-55126409D02*
X209629762Y-56126409D01*
X152097142Y-112522319D02*
X151763809Y-112046128D01*
X151525714Y-112522319D02*
X151525714Y-111522319D01*
X151525714Y-111522319D02*
X151906666Y-111522319D01*
X151906666Y-111522319D02*
X152001904Y-111569938D01*
X152001904Y-111569938D02*
X152049523Y-111617557D01*
X152049523Y-111617557D02*
X152097142Y-111712795D01*
X152097142Y-111712795D02*
X152097142Y-111855652D01*
X152097142Y-111855652D02*
X152049523Y-111950890D01*
X152049523Y-111950890D02*
X152001904Y-111998509D01*
X152001904Y-111998509D02*
X151906666Y-112046128D01*
X151906666Y-112046128D02*
X151525714Y-112046128D01*
X153049523Y-112522319D02*
X152478095Y-112522319D01*
X152763809Y-112522319D02*
X152763809Y-111522319D01*
X152763809Y-111522319D02*
X152668571Y-111665176D01*
X152668571Y-111665176D02*
X152573333Y-111760414D01*
X152573333Y-111760414D02*
X152478095Y-111808033D01*
X153954285Y-111522319D02*
X153478095Y-111522319D01*
X153478095Y-111522319D02*
X153430476Y-111998509D01*
X153430476Y-111998509D02*
X153478095Y-111950890D01*
X153478095Y-111950890D02*
X153573333Y-111903271D01*
X153573333Y-111903271D02*
X153811428Y-111903271D01*
X153811428Y-111903271D02*
X153906666Y-111950890D01*
X153906666Y-111950890D02*
X153954285Y-111998509D01*
X153954285Y-111998509D02*
X154001904Y-112093747D01*
X154001904Y-112093747D02*
X154001904Y-112331842D01*
X154001904Y-112331842D02*
X153954285Y-112427080D01*
X153954285Y-112427080D02*
X153906666Y-112474700D01*
X153906666Y-112474700D02*
X153811428Y-112522319D01*
X153811428Y-112522319D02*
X153573333Y-112522319D01*
X153573333Y-112522319D02*
X153478095Y-112474700D01*
X153478095Y-112474700D02*
X153430476Y-112427080D01*
X116966905Y-56126409D02*
X116966905Y-55126409D01*
X116966905Y-55126409D02*
X117205000Y-55126409D01*
X117205000Y-55126409D02*
X117347857Y-55174028D01*
X117347857Y-55174028D02*
X117443095Y-55269266D01*
X117443095Y-55269266D02*
X117490714Y-55364504D01*
X117490714Y-55364504D02*
X117538333Y-55554980D01*
X117538333Y-55554980D02*
X117538333Y-55697837D01*
X117538333Y-55697837D02*
X117490714Y-55888313D01*
X117490714Y-55888313D02*
X117443095Y-55983551D01*
X117443095Y-55983551D02*
X117347857Y-56078790D01*
X117347857Y-56078790D02*
X117205000Y-56126409D01*
X117205000Y-56126409D02*
X116966905Y-56126409D01*
X117919286Y-55221647D02*
X117966905Y-55174028D01*
X117966905Y-55174028D02*
X118062143Y-55126409D01*
X118062143Y-55126409D02*
X118300238Y-55126409D01*
X118300238Y-55126409D02*
X118395476Y-55174028D01*
X118395476Y-55174028D02*
X118443095Y-55221647D01*
X118443095Y-55221647D02*
X118490714Y-55316885D01*
X118490714Y-55316885D02*
X118490714Y-55412123D01*
X118490714Y-55412123D02*
X118443095Y-55554980D01*
X118443095Y-55554980D02*
X117871667Y-56126409D01*
X117871667Y-56126409D02*
X118490714Y-56126409D01*
X164887142Y-112522319D02*
X164553809Y-112046128D01*
X164315714Y-112522319D02*
X164315714Y-111522319D01*
X164315714Y-111522319D02*
X164696666Y-111522319D01*
X164696666Y-111522319D02*
X164791904Y-111569938D01*
X164791904Y-111569938D02*
X164839523Y-111617557D01*
X164839523Y-111617557D02*
X164887142Y-111712795D01*
X164887142Y-111712795D02*
X164887142Y-111855652D01*
X164887142Y-111855652D02*
X164839523Y-111950890D01*
X164839523Y-111950890D02*
X164791904Y-111998509D01*
X164791904Y-111998509D02*
X164696666Y-112046128D01*
X164696666Y-112046128D02*
X164315714Y-112046128D01*
X165268095Y-111617557D02*
X165315714Y-111569938D01*
X165315714Y-111569938D02*
X165410952Y-111522319D01*
X165410952Y-111522319D02*
X165649047Y-111522319D01*
X165649047Y-111522319D02*
X165744285Y-111569938D01*
X165744285Y-111569938D02*
X165791904Y-111617557D01*
X165791904Y-111617557D02*
X165839523Y-111712795D01*
X165839523Y-111712795D02*
X165839523Y-111808033D01*
X165839523Y-111808033D02*
X165791904Y-111950890D01*
X165791904Y-111950890D02*
X165220476Y-112522319D01*
X165220476Y-112522319D02*
X165839523Y-112522319D01*
X166220476Y-111617557D02*
X166268095Y-111569938D01*
X166268095Y-111569938D02*
X166363333Y-111522319D01*
X166363333Y-111522319D02*
X166601428Y-111522319D01*
X166601428Y-111522319D02*
X166696666Y-111569938D01*
X166696666Y-111569938D02*
X166744285Y-111617557D01*
X166744285Y-111617557D02*
X166791904Y-111712795D01*
X166791904Y-111712795D02*
X166791904Y-111808033D01*
X166791904Y-111808033D02*
X166744285Y-111950890D01*
X166744285Y-111950890D02*
X166172857Y-112522319D01*
X166172857Y-112522319D02*
X166791904Y-112522319D01*
X241388095Y-63129819D02*
X241388095Y-63939342D01*
X241388095Y-63939342D02*
X241435714Y-64034580D01*
X241435714Y-64034580D02*
X241483333Y-64082200D01*
X241483333Y-64082200D02*
X241578571Y-64129819D01*
X241578571Y-64129819D02*
X241769047Y-64129819D01*
X241769047Y-64129819D02*
X241864285Y-64082200D01*
X241864285Y-64082200D02*
X241911904Y-64034580D01*
X241911904Y-64034580D02*
X241959523Y-63939342D01*
X241959523Y-63939342D02*
X241959523Y-63129819D01*
X242959523Y-64129819D02*
X242388095Y-64129819D01*
X242673809Y-64129819D02*
X242673809Y-63129819D01*
X242673809Y-63129819D02*
X242578571Y-63272676D01*
X242578571Y-63272676D02*
X242483333Y-63367914D01*
X242483333Y-63367914D02*
X242388095Y-63415533D01*
X139073333Y-124722319D02*
X138740000Y-124246128D01*
X138501905Y-124722319D02*
X138501905Y-123722319D01*
X138501905Y-123722319D02*
X138882857Y-123722319D01*
X138882857Y-123722319D02*
X138978095Y-123769938D01*
X138978095Y-123769938D02*
X139025714Y-123817557D01*
X139025714Y-123817557D02*
X139073333Y-123912795D01*
X139073333Y-123912795D02*
X139073333Y-124055652D01*
X139073333Y-124055652D02*
X139025714Y-124150890D01*
X139025714Y-124150890D02*
X138978095Y-124198509D01*
X138978095Y-124198509D02*
X138882857Y-124246128D01*
X138882857Y-124246128D02*
X138501905Y-124246128D01*
X139406667Y-123722319D02*
X140025714Y-123722319D01*
X140025714Y-123722319D02*
X139692381Y-124103271D01*
X139692381Y-124103271D02*
X139835238Y-124103271D01*
X139835238Y-124103271D02*
X139930476Y-124150890D01*
X139930476Y-124150890D02*
X139978095Y-124198509D01*
X139978095Y-124198509D02*
X140025714Y-124293747D01*
X140025714Y-124293747D02*
X140025714Y-124531842D01*
X140025714Y-124531842D02*
X139978095Y-124627080D01*
X139978095Y-124627080D02*
X139930476Y-124674700D01*
X139930476Y-124674700D02*
X139835238Y-124722319D01*
X139835238Y-124722319D02*
X139549524Y-124722319D01*
X139549524Y-124722319D02*
X139454286Y-124674700D01*
X139454286Y-124674700D02*
X139406667Y-124627080D01*
X94086905Y-56126409D02*
X94086905Y-55126409D01*
X94086905Y-55126409D02*
X94325000Y-55126409D01*
X94325000Y-55126409D02*
X94467857Y-55174028D01*
X94467857Y-55174028D02*
X94563095Y-55269266D01*
X94563095Y-55269266D02*
X94610714Y-55364504D01*
X94610714Y-55364504D02*
X94658333Y-55554980D01*
X94658333Y-55554980D02*
X94658333Y-55697837D01*
X94658333Y-55697837D02*
X94610714Y-55888313D01*
X94610714Y-55888313D02*
X94563095Y-55983551D01*
X94563095Y-55983551D02*
X94467857Y-56078790D01*
X94467857Y-56078790D02*
X94325000Y-56126409D01*
X94325000Y-56126409D02*
X94086905Y-56126409D01*
X95610714Y-56126409D02*
X95039286Y-56126409D01*
X95325000Y-56126409D02*
X95325000Y-55126409D01*
X95325000Y-55126409D02*
X95229762Y-55269266D01*
X95229762Y-55269266D02*
X95134524Y-55364504D01*
X95134524Y-55364504D02*
X95039286Y-55412123D01*
X164887142Y-105412319D02*
X164553809Y-104936128D01*
X164315714Y-105412319D02*
X164315714Y-104412319D01*
X164315714Y-104412319D02*
X164696666Y-104412319D01*
X164696666Y-104412319D02*
X164791904Y-104459938D01*
X164791904Y-104459938D02*
X164839523Y-104507557D01*
X164839523Y-104507557D02*
X164887142Y-104602795D01*
X164887142Y-104602795D02*
X164887142Y-104745652D01*
X164887142Y-104745652D02*
X164839523Y-104840890D01*
X164839523Y-104840890D02*
X164791904Y-104888509D01*
X164791904Y-104888509D02*
X164696666Y-104936128D01*
X164696666Y-104936128D02*
X164315714Y-104936128D01*
X165268095Y-104507557D02*
X165315714Y-104459938D01*
X165315714Y-104459938D02*
X165410952Y-104412319D01*
X165410952Y-104412319D02*
X165649047Y-104412319D01*
X165649047Y-104412319D02*
X165744285Y-104459938D01*
X165744285Y-104459938D02*
X165791904Y-104507557D01*
X165791904Y-104507557D02*
X165839523Y-104602795D01*
X165839523Y-104602795D02*
X165839523Y-104698033D01*
X165839523Y-104698033D02*
X165791904Y-104840890D01*
X165791904Y-104840890D02*
X165220476Y-105412319D01*
X165220476Y-105412319D02*
X165839523Y-105412319D01*
X166458571Y-104412319D02*
X166553809Y-104412319D01*
X166553809Y-104412319D02*
X166649047Y-104459938D01*
X166649047Y-104459938D02*
X166696666Y-104507557D01*
X166696666Y-104507557D02*
X166744285Y-104602795D01*
X166744285Y-104602795D02*
X166791904Y-104793271D01*
X166791904Y-104793271D02*
X166791904Y-105031366D01*
X166791904Y-105031366D02*
X166744285Y-105221842D01*
X166744285Y-105221842D02*
X166696666Y-105317080D01*
X166696666Y-105317080D02*
X166649047Y-105364700D01*
X166649047Y-105364700D02*
X166553809Y-105412319D01*
X166553809Y-105412319D02*
X166458571Y-105412319D01*
X166458571Y-105412319D02*
X166363333Y-105364700D01*
X166363333Y-105364700D02*
X166315714Y-105317080D01*
X166315714Y-105317080D02*
X166268095Y-105221842D01*
X166268095Y-105221842D02*
X166220476Y-105031366D01*
X166220476Y-105031366D02*
X166220476Y-104793271D01*
X166220476Y-104793271D02*
X166268095Y-104602795D01*
X166268095Y-104602795D02*
X166315714Y-104507557D01*
X166315714Y-104507557D02*
X166363333Y-104459938D01*
X166363333Y-104459938D02*
X166458571Y-104412319D01*
X127614819Y-132135833D02*
X128329104Y-132135833D01*
X128329104Y-132135833D02*
X128471961Y-132183452D01*
X128471961Y-132183452D02*
X128567200Y-132278690D01*
X128567200Y-132278690D02*
X128614819Y-132421547D01*
X128614819Y-132421547D02*
X128614819Y-132516785D01*
X128614819Y-131135833D02*
X128614819Y-131707261D01*
X128614819Y-131421547D02*
X127614819Y-131421547D01*
X127614819Y-131421547D02*
X127757676Y-131516785D01*
X127757676Y-131516785D02*
X127852914Y-131612023D01*
X127852914Y-131612023D02*
X127900533Y-131707261D01*
X62559580Y-54741666D02*
X62607200Y-54789285D01*
X62607200Y-54789285D02*
X62654819Y-54932142D01*
X62654819Y-54932142D02*
X62654819Y-55027380D01*
X62654819Y-55027380D02*
X62607200Y-55170237D01*
X62607200Y-55170237D02*
X62511961Y-55265475D01*
X62511961Y-55265475D02*
X62416723Y-55313094D01*
X62416723Y-55313094D02*
X62226247Y-55360713D01*
X62226247Y-55360713D02*
X62083390Y-55360713D01*
X62083390Y-55360713D02*
X61892914Y-55313094D01*
X61892914Y-55313094D02*
X61797676Y-55265475D01*
X61797676Y-55265475D02*
X61702438Y-55170237D01*
X61702438Y-55170237D02*
X61654819Y-55027380D01*
X61654819Y-55027380D02*
X61654819Y-54932142D01*
X61654819Y-54932142D02*
X61702438Y-54789285D01*
X61702438Y-54789285D02*
X61750057Y-54741666D01*
X62083390Y-54170237D02*
X62035771Y-54265475D01*
X62035771Y-54265475D02*
X61988152Y-54313094D01*
X61988152Y-54313094D02*
X61892914Y-54360713D01*
X61892914Y-54360713D02*
X61845295Y-54360713D01*
X61845295Y-54360713D02*
X61750057Y-54313094D01*
X61750057Y-54313094D02*
X61702438Y-54265475D01*
X61702438Y-54265475D02*
X61654819Y-54170237D01*
X61654819Y-54170237D02*
X61654819Y-53979761D01*
X61654819Y-53979761D02*
X61702438Y-53884523D01*
X61702438Y-53884523D02*
X61750057Y-53836904D01*
X61750057Y-53836904D02*
X61845295Y-53789285D01*
X61845295Y-53789285D02*
X61892914Y-53789285D01*
X61892914Y-53789285D02*
X61988152Y-53836904D01*
X61988152Y-53836904D02*
X62035771Y-53884523D01*
X62035771Y-53884523D02*
X62083390Y-53979761D01*
X62083390Y-53979761D02*
X62083390Y-54170237D01*
X62083390Y-54170237D02*
X62131009Y-54265475D01*
X62131009Y-54265475D02*
X62178628Y-54313094D01*
X62178628Y-54313094D02*
X62273866Y-54360713D01*
X62273866Y-54360713D02*
X62464342Y-54360713D01*
X62464342Y-54360713D02*
X62559580Y-54313094D01*
X62559580Y-54313094D02*
X62607200Y-54265475D01*
X62607200Y-54265475D02*
X62654819Y-54170237D01*
X62654819Y-54170237D02*
X62654819Y-53979761D01*
X62654819Y-53979761D02*
X62607200Y-53884523D01*
X62607200Y-53884523D02*
X62559580Y-53836904D01*
X62559580Y-53836904D02*
X62464342Y-53789285D01*
X62464342Y-53789285D02*
X62273866Y-53789285D01*
X62273866Y-53789285D02*
X62178628Y-53836904D01*
X62178628Y-53836904D02*
X62131009Y-53884523D01*
X62131009Y-53884523D02*
X62083390Y-53979761D01*
X209038333Y-33759819D02*
X208705000Y-33283628D01*
X208466905Y-33759819D02*
X208466905Y-32759819D01*
X208466905Y-32759819D02*
X208847857Y-32759819D01*
X208847857Y-32759819D02*
X208943095Y-32807438D01*
X208943095Y-32807438D02*
X208990714Y-32855057D01*
X208990714Y-32855057D02*
X209038333Y-32950295D01*
X209038333Y-32950295D02*
X209038333Y-33093152D01*
X209038333Y-33093152D02*
X208990714Y-33188390D01*
X208990714Y-33188390D02*
X208943095Y-33236009D01*
X208943095Y-33236009D02*
X208847857Y-33283628D01*
X208847857Y-33283628D02*
X208466905Y-33283628D01*
X209514524Y-33759819D02*
X209705000Y-33759819D01*
X209705000Y-33759819D02*
X209800238Y-33712200D01*
X209800238Y-33712200D02*
X209847857Y-33664580D01*
X209847857Y-33664580D02*
X209943095Y-33521723D01*
X209943095Y-33521723D02*
X209990714Y-33331247D01*
X209990714Y-33331247D02*
X209990714Y-32950295D01*
X209990714Y-32950295D02*
X209943095Y-32855057D01*
X209943095Y-32855057D02*
X209895476Y-32807438D01*
X209895476Y-32807438D02*
X209800238Y-32759819D01*
X209800238Y-32759819D02*
X209609762Y-32759819D01*
X209609762Y-32759819D02*
X209514524Y-32807438D01*
X209514524Y-32807438D02*
X209466905Y-32855057D01*
X209466905Y-32855057D02*
X209419286Y-32950295D01*
X209419286Y-32950295D02*
X209419286Y-33188390D01*
X209419286Y-33188390D02*
X209466905Y-33283628D01*
X209466905Y-33283628D02*
X209514524Y-33331247D01*
X209514524Y-33331247D02*
X209609762Y-33378866D01*
X209609762Y-33378866D02*
X209800238Y-33378866D01*
X209800238Y-33378866D02*
X209895476Y-33331247D01*
X209895476Y-33331247D02*
X209943095Y-33283628D01*
X209943095Y-33283628D02*
X209990714Y-33188390D01*
X59557142Y-38709819D02*
X59223809Y-38233628D01*
X58985714Y-38709819D02*
X58985714Y-37709819D01*
X58985714Y-37709819D02*
X59366666Y-37709819D01*
X59366666Y-37709819D02*
X59461904Y-37757438D01*
X59461904Y-37757438D02*
X59509523Y-37805057D01*
X59509523Y-37805057D02*
X59557142Y-37900295D01*
X59557142Y-37900295D02*
X59557142Y-38043152D01*
X59557142Y-38043152D02*
X59509523Y-38138390D01*
X59509523Y-38138390D02*
X59461904Y-38186009D01*
X59461904Y-38186009D02*
X59366666Y-38233628D01*
X59366666Y-38233628D02*
X58985714Y-38233628D01*
X60509523Y-38709819D02*
X59938095Y-38709819D01*
X60223809Y-38709819D02*
X60223809Y-37709819D01*
X60223809Y-37709819D02*
X60128571Y-37852676D01*
X60128571Y-37852676D02*
X60033333Y-37947914D01*
X60033333Y-37947914D02*
X59938095Y-37995533D01*
X61080952Y-38138390D02*
X60985714Y-38090771D01*
X60985714Y-38090771D02*
X60938095Y-38043152D01*
X60938095Y-38043152D02*
X60890476Y-37947914D01*
X60890476Y-37947914D02*
X60890476Y-37900295D01*
X60890476Y-37900295D02*
X60938095Y-37805057D01*
X60938095Y-37805057D02*
X60985714Y-37757438D01*
X60985714Y-37757438D02*
X61080952Y-37709819D01*
X61080952Y-37709819D02*
X61271428Y-37709819D01*
X61271428Y-37709819D02*
X61366666Y-37757438D01*
X61366666Y-37757438D02*
X61414285Y-37805057D01*
X61414285Y-37805057D02*
X61461904Y-37900295D01*
X61461904Y-37900295D02*
X61461904Y-37947914D01*
X61461904Y-37947914D02*
X61414285Y-38043152D01*
X61414285Y-38043152D02*
X61366666Y-38090771D01*
X61366666Y-38090771D02*
X61271428Y-38138390D01*
X61271428Y-38138390D02*
X61080952Y-38138390D01*
X61080952Y-38138390D02*
X60985714Y-38186009D01*
X60985714Y-38186009D02*
X60938095Y-38233628D01*
X60938095Y-38233628D02*
X60890476Y-38328866D01*
X60890476Y-38328866D02*
X60890476Y-38519342D01*
X60890476Y-38519342D02*
X60938095Y-38614580D01*
X60938095Y-38614580D02*
X60985714Y-38662200D01*
X60985714Y-38662200D02*
X61080952Y-38709819D01*
X61080952Y-38709819D02*
X61271428Y-38709819D01*
X61271428Y-38709819D02*
X61366666Y-38662200D01*
X61366666Y-38662200D02*
X61414285Y-38614580D01*
X61414285Y-38614580D02*
X61461904Y-38519342D01*
X61461904Y-38519342D02*
X61461904Y-38328866D01*
X61461904Y-38328866D02*
X61414285Y-38233628D01*
X61414285Y-38233628D02*
X61366666Y-38186009D01*
X61366666Y-38186009D02*
X61271428Y-38138390D01*
X127639819Y-70058333D02*
X128354104Y-70058333D01*
X128354104Y-70058333D02*
X128496961Y-70105952D01*
X128496961Y-70105952D02*
X128592200Y-70201190D01*
X128592200Y-70201190D02*
X128639819Y-70344047D01*
X128639819Y-70344047D02*
X128639819Y-70439285D01*
X127735057Y-69629761D02*
X127687438Y-69582142D01*
X127687438Y-69582142D02*
X127639819Y-69486904D01*
X127639819Y-69486904D02*
X127639819Y-69248809D01*
X127639819Y-69248809D02*
X127687438Y-69153571D01*
X127687438Y-69153571D02*
X127735057Y-69105952D01*
X127735057Y-69105952D02*
X127830295Y-69058333D01*
X127830295Y-69058333D02*
X127925533Y-69058333D01*
X127925533Y-69058333D02*
X128068390Y-69105952D01*
X128068390Y-69105952D02*
X128639819Y-69677380D01*
X128639819Y-69677380D02*
X128639819Y-69058333D01*
X49166666Y-58999819D02*
X49166666Y-59714104D01*
X49166666Y-59714104D02*
X49119047Y-59856961D01*
X49119047Y-59856961D02*
X49023809Y-59952200D01*
X49023809Y-59952200D02*
X48880952Y-59999819D01*
X48880952Y-59999819D02*
X48785714Y-59999819D01*
X49642857Y-59999819D02*
X49642857Y-58999819D01*
X49642857Y-58999819D02*
X50023809Y-58999819D01*
X50023809Y-58999819D02*
X50119047Y-59047438D01*
X50119047Y-59047438D02*
X50166666Y-59095057D01*
X50166666Y-59095057D02*
X50214285Y-59190295D01*
X50214285Y-59190295D02*
X50214285Y-59333152D01*
X50214285Y-59333152D02*
X50166666Y-59428390D01*
X50166666Y-59428390D02*
X50119047Y-59476009D01*
X50119047Y-59476009D02*
X50023809Y-59523628D01*
X50023809Y-59523628D02*
X49642857Y-59523628D01*
X51166666Y-59999819D02*
X50595238Y-59999819D01*
X50880952Y-59999819D02*
X50880952Y-58999819D01*
X50880952Y-58999819D02*
X50785714Y-59142676D01*
X50785714Y-59142676D02*
X50690476Y-59237914D01*
X50690476Y-59237914D02*
X50595238Y-59285533D01*
%TO.C,N4*%
D12*
X153543760Y-62092830D02*
X153543760Y-42250350D01*
X173386240Y-42250350D02*
X173386240Y-62092830D01*
X153543760Y-42250350D02*
G75*
G02*
X173387433Y-42251771I9921240J-8326120D01*
G01*
X173386240Y-62092830D02*
G75*
G02*
X153542567Y-62091409I-9921240J8326119D01*
G01*
%TO.C,N3*%
X130663760Y-62092830D02*
X130663760Y-42250350D01*
X150506240Y-42250350D02*
X150506240Y-62092830D01*
X130663760Y-42250350D02*
G75*
G02*
X150507433Y-42251771I9921240J-8326120D01*
G01*
X150506240Y-62092830D02*
G75*
G02*
X130662567Y-62091409I-9921240J8326119D01*
G01*
%TO.C,R27*%
D13*
X242730000Y-40030000D02*
X242730000Y-46570000D01*
X242730000Y-46570000D02*
X243060000Y-46570000D01*
X243060000Y-40030000D02*
X242730000Y-40030000D01*
X245140000Y-40030000D02*
X245470000Y-40030000D01*
X245470000Y-40030000D02*
X245470000Y-46570000D01*
X245470000Y-46570000D02*
X245140000Y-46570000D01*
%TO.C,R12*%
X135970000Y-110697500D02*
X142510000Y-110697500D01*
X135970000Y-111027500D02*
X135970000Y-110697500D01*
X135970000Y-113107500D02*
X135970000Y-113437500D01*
X135970000Y-113437500D02*
X142510000Y-113437500D01*
X142510000Y-110697500D02*
X142510000Y-111027500D01*
X142510000Y-113437500D02*
X142510000Y-113107500D01*
%TO.C,R2*%
X135970000Y-119377500D02*
X142510000Y-119377500D01*
X135970000Y-119707500D02*
X135970000Y-119377500D01*
X135970000Y-121787500D02*
X135970000Y-122117500D01*
X135970000Y-122117500D02*
X142510000Y-122117500D01*
X142510000Y-119377500D02*
X142510000Y-119707500D01*
X142510000Y-122117500D02*
X142510000Y-121787500D01*
%TO.C,R21*%
X162260000Y-107177500D02*
X168800000Y-107177500D01*
X162260000Y-107507500D02*
X162260000Y-107177500D01*
X162260000Y-109587500D02*
X162260000Y-109917500D01*
X162260000Y-109917500D02*
X168800000Y-109917500D01*
X168800000Y-107177500D02*
X168800000Y-107507500D01*
X168800000Y-109917500D02*
X168800000Y-109587500D01*
%TO.C,D4*%
X159965000Y-49421590D02*
X159965000Y-54921590D01*
X159965000Y-49421590D02*
X166965000Y-49421590D01*
X159965000Y-54921590D02*
X166515000Y-54921590D01*
X160765000Y-53071590D02*
X160765000Y-51271590D01*
X166165000Y-53071590D02*
X166165000Y-51271590D01*
X166515000Y-54921590D02*
X166965000Y-54471590D01*
X166965000Y-54471590D02*
X166965000Y-49421590D01*
%TO.C,R10*%
X135970000Y-103587500D02*
X142510000Y-103587500D01*
X135970000Y-103917500D02*
X135970000Y-103587500D01*
X135970000Y-105997500D02*
X135970000Y-106327500D01*
X135970000Y-106327500D02*
X142510000Y-106327500D01*
X142510000Y-103587500D02*
X142510000Y-103917500D01*
X142510000Y-106327500D02*
X142510000Y-105997500D01*
%TO.C,Q1*%
X247577500Y-64952500D02*
X249097500Y-64952500D01*
X247577500Y-65002500D02*
X247577500Y-64952500D01*
X247577500Y-66902500D02*
X247577500Y-66122500D01*
X247577500Y-68072500D02*
X247577500Y-68022500D01*
X249097500Y-64952500D02*
X249097500Y-65952500D01*
X249097500Y-67072500D02*
X249097500Y-68072500D01*
X249097500Y-68072500D02*
X247577500Y-68072500D01*
X247037500Y-66132500D02*
X247277500Y-66462500D01*
X246797500Y-66462500D01*
X247037500Y-66132500D01*
G36*
X247277500Y-66462500D02*
G01*
X246797500Y-66462500D01*
X247037500Y-66132500D01*
X247277500Y-66462500D01*
G37*
%TO.C,D6*%
X182845000Y-49421590D02*
X182845000Y-54921590D01*
X182845000Y-49421590D02*
X189845000Y-49421590D01*
X182845000Y-54921590D02*
X189395000Y-54921590D01*
X183645000Y-53071590D02*
X183645000Y-51271590D01*
X189045000Y-53071590D02*
X189045000Y-51271590D01*
X189395000Y-54921590D02*
X189845000Y-54471590D01*
X189845000Y-54471590D02*
X189845000Y-49421590D01*
%TO.C,D5*%
X50990000Y-36464000D02*
X50990000Y-36620000D01*
X50990000Y-38780000D02*
X50990000Y-38936000D01*
X50990000Y-36464484D02*
G75*
G02*
X54221437Y-36620000I1560000J-1235516D01*
G01*
X51509039Y-36620000D02*
G75*
G02*
X53590961Y-36620000I1040961J-1080000D01*
G01*
X53590961Y-38780000D02*
G75*
G02*
X51509039Y-38780000I-1040961J1080000D01*
G01*
X54221437Y-38780000D02*
G75*
G02*
X50990000Y-38935516I-1671437J1080000D01*
G01*
%TO.C,R14*%
X149470000Y-107177500D02*
X156010000Y-107177500D01*
X149470000Y-107507500D02*
X149470000Y-107177500D01*
X149470000Y-109587500D02*
X149470000Y-109917500D01*
X149470000Y-109917500D02*
X156010000Y-109917500D01*
X156010000Y-107177500D02*
X156010000Y-107507500D01*
X156010000Y-109917500D02*
X156010000Y-109587500D01*
%TO.C,R7*%
X160175000Y-34305000D02*
X166715000Y-34305000D01*
X160175000Y-34635000D02*
X160175000Y-34305000D01*
X160175000Y-36715000D02*
X160175000Y-37045000D01*
X160175000Y-37045000D02*
X166715000Y-37045000D01*
X166715000Y-34305000D02*
X166715000Y-34635000D01*
X166715000Y-37045000D02*
X166715000Y-36715000D01*
%TO.C,R25*%
X162260000Y-122897500D02*
X168800000Y-122897500D01*
X162260000Y-123227500D02*
X162260000Y-122897500D01*
X162260000Y-125307500D02*
X162260000Y-125637500D01*
X162260000Y-125637500D02*
X168800000Y-125637500D01*
X168800000Y-122897500D02*
X168800000Y-123227500D01*
X168800000Y-125637500D02*
X168800000Y-125307500D01*
%TO.C,R23*%
X162260000Y-115787500D02*
X168800000Y-115787500D01*
X162260000Y-116117500D02*
X162260000Y-115787500D01*
X162260000Y-118197500D02*
X162260000Y-118527500D01*
X162260000Y-118527500D02*
X168800000Y-118527500D01*
X168800000Y-115787500D02*
X168800000Y-116117500D01*
X168800000Y-118527500D02*
X168800000Y-118197500D01*
%TO.C,R11*%
X135970000Y-107177500D02*
X142510000Y-107177500D01*
X135970000Y-107507500D02*
X135970000Y-107177500D01*
X135970000Y-109587500D02*
X135970000Y-109917500D01*
X135970000Y-109917500D02*
X142510000Y-109917500D01*
X142510000Y-107177500D02*
X142510000Y-107507500D01*
X142510000Y-109917500D02*
X142510000Y-109587500D01*
%TO.C,R5*%
X113735000Y-34305000D02*
X120275000Y-34305000D01*
X113735000Y-34635000D02*
X113735000Y-34305000D01*
X113735000Y-36715000D02*
X113735000Y-37045000D01*
X113735000Y-37045000D02*
X120275000Y-37045000D01*
X120275000Y-34305000D02*
X120275000Y-34635000D01*
X120275000Y-37045000D02*
X120275000Y-36715000D01*
%TO.C,R6*%
X137295000Y-34305000D02*
X143835000Y-34305000D01*
X137295000Y-34635000D02*
X137295000Y-34305000D01*
X137295000Y-36715000D02*
X137295000Y-37045000D01*
X137295000Y-37045000D02*
X143835000Y-37045000D01*
X143835000Y-34305000D02*
X143835000Y-34635000D01*
X143835000Y-37045000D02*
X143835000Y-36715000D01*
%TO.C,N6*%
D12*
X199303760Y-62092830D02*
X199303760Y-42250350D01*
X219146240Y-42250350D02*
X219146240Y-62092830D01*
X199303760Y-42250350D02*
G75*
G02*
X219147433Y-42251771I9921240J-8326120D01*
G01*
X219146240Y-62092830D02*
G75*
G02*
X199302567Y-62091409I-9921240J8326119D01*
G01*
%TO.C,U3*%
D14*
X226825000Y-46971590D02*
X237225000Y-46971590D01*
X226825000Y-57371590D02*
X226825000Y-46971590D01*
X237225000Y-46971590D02*
X237225000Y-57371590D01*
X237225000Y-57371590D02*
X226825000Y-57371590D01*
D15*
X225175000Y-46971590D02*
G75*
G02*
X224775000Y-46971590I-200000J0D01*
G01*
X224775000Y-46971590D02*
G75*
G02*
X225175000Y-46971590I200000J0D01*
G01*
%TO.C,R17*%
D13*
X149470000Y-119307500D02*
X156010000Y-119307500D01*
X149470000Y-119637500D02*
X149470000Y-119307500D01*
X149470000Y-121717500D02*
X149470000Y-122047500D01*
X149470000Y-122047500D02*
X156010000Y-122047500D01*
X156010000Y-119307500D02*
X156010000Y-119637500D01*
X156010000Y-122047500D02*
X156010000Y-121717500D01*
%TO.C,R8*%
X183055000Y-34305000D02*
X189595000Y-34305000D01*
X183055000Y-34635000D02*
X183055000Y-34305000D01*
X183055000Y-36715000D02*
X183055000Y-37045000D01*
X183055000Y-37045000D02*
X189595000Y-37045000D01*
X189595000Y-34305000D02*
X189595000Y-34635000D01*
X189595000Y-37045000D02*
X189595000Y-36715000D01*
%TO.C,R19*%
X149470000Y-122897500D02*
X156010000Y-122897500D01*
X149470000Y-123227500D02*
X149470000Y-122897500D01*
X149470000Y-125307500D02*
X149470000Y-125637500D01*
X149470000Y-125637500D02*
X156010000Y-125637500D01*
X156010000Y-122897500D02*
X156010000Y-123227500D01*
X156010000Y-125637500D02*
X156010000Y-125307500D01*
%TO.C,N1*%
D12*
X84903760Y-62092830D02*
X84903760Y-42250350D01*
X104746240Y-42250350D02*
X104746240Y-62092830D01*
X84903760Y-42250350D02*
G75*
G02*
X104747433Y-42251771I9921240J-8326120D01*
G01*
X104746240Y-62092830D02*
G75*
G02*
X84902567Y-62091409I-9921240J8326119D01*
G01*
%TO.C,J3*%
D13*
X155970000Y-96147500D02*
X155970000Y-98907500D01*
X161160000Y-96147500D02*
X155970000Y-96147500D01*
X161160000Y-96147500D02*
X161160000Y-98907500D01*
X161160000Y-98907500D02*
X155970000Y-98907500D01*
X162430000Y-96147500D02*
X163810000Y-96147500D01*
X163810000Y-96147500D02*
X163810000Y-97527500D01*
%TO.C,C6*%
X57405000Y-52105000D02*
X57735000Y-52105000D01*
X57405000Y-57045000D02*
X57405000Y-52105000D01*
X57735000Y-57045000D02*
X57405000Y-57045000D01*
X59815000Y-52105000D02*
X60145000Y-52105000D01*
X60145000Y-52105000D02*
X60145000Y-57045000D01*
X60145000Y-57045000D02*
X59815000Y-57045000D01*
%TO.C,C9*%
X241505000Y-50580000D02*
X241835000Y-50580000D01*
X241505000Y-55520000D02*
X241505000Y-50580000D01*
X241835000Y-55520000D02*
X241505000Y-55520000D01*
X243915000Y-50580000D02*
X244245000Y-50580000D01*
X244245000Y-50580000D02*
X244245000Y-55520000D01*
X244245000Y-55520000D02*
X243915000Y-55520000D01*
%TO.C,R26*%
X223615000Y-34780000D02*
X223615000Y-35110000D01*
X223615000Y-37520000D02*
X223615000Y-37190000D01*
X230155000Y-34780000D02*
X223615000Y-34780000D01*
X230155000Y-35110000D02*
X230155000Y-34780000D01*
X230155000Y-37190000D02*
X230155000Y-37520000D01*
X230155000Y-37520000D02*
X223615000Y-37520000D01*
%TO.C,R1*%
X135970000Y-115787500D02*
X142510000Y-115787500D01*
X135970000Y-116117500D02*
X135970000Y-115787500D01*
X135970000Y-118197500D02*
X135970000Y-118527500D01*
X135970000Y-118527500D02*
X142510000Y-118527500D01*
X142510000Y-115787500D02*
X142510000Y-116117500D01*
X142510000Y-118527500D02*
X142510000Y-118197500D01*
%TO.C,D3*%
X137085000Y-49421590D02*
X137085000Y-54921590D01*
X137085000Y-49421590D02*
X144085000Y-49421590D01*
X137085000Y-54921590D02*
X143635000Y-54921590D01*
X137885000Y-53071590D02*
X137885000Y-51271590D01*
X143285000Y-53071590D02*
X143285000Y-51271590D01*
X143635000Y-54921590D02*
X144085000Y-54471590D01*
X144085000Y-54471590D02*
X144085000Y-49421590D01*
%TO.C,C7*%
X244755000Y-50580000D02*
X245085000Y-50580000D01*
X244755000Y-55520000D02*
X244755000Y-50580000D01*
X245085000Y-55520000D02*
X244755000Y-55520000D01*
X247165000Y-50580000D02*
X247495000Y-50580000D01*
X247495000Y-50580000D02*
X247495000Y-55520000D01*
X247495000Y-55520000D02*
X247165000Y-55520000D01*
%TO.C,U2*%
D14*
X66825000Y-46971590D02*
X77225000Y-46971590D01*
X66825000Y-57371590D02*
X66825000Y-46971590D01*
X77225000Y-46971590D02*
X77225000Y-57371590D01*
X77225000Y-57371590D02*
X66825000Y-57371590D01*
D15*
X79275000Y-57371590D02*
G75*
G02*
X78875000Y-57371590I-200000J0D01*
G01*
X78875000Y-57371590D02*
G75*
G02*
X79275000Y-57371590I200000J0D01*
G01*
%TO.C,N2*%
D12*
X107783760Y-62092830D02*
X107783760Y-42250350D01*
X127626240Y-42250350D02*
X127626240Y-62092830D01*
X107783760Y-42250350D02*
G75*
G02*
X127627433Y-42251771I9921240J-8326120D01*
G01*
X127626240Y-62092830D02*
G75*
G02*
X107782567Y-62091409I-9921240J8326119D01*
G01*
%TO.C,R24*%
D13*
X162260000Y-119377500D02*
X168800000Y-119377500D01*
X162260000Y-119707500D02*
X162260000Y-119377500D01*
X162260000Y-121787500D02*
X162260000Y-122117500D01*
X162260000Y-122117500D02*
X168800000Y-122117500D01*
X168800000Y-119377500D02*
X168800000Y-119707500D01*
X168800000Y-122117500D02*
X168800000Y-121787500D01*
%TO.C,R4*%
X91535000Y-34305000D02*
X98075000Y-34305000D01*
X91535000Y-34635000D02*
X91535000Y-34305000D01*
X91535000Y-36715000D02*
X91535000Y-37045000D01*
X91535000Y-37045000D02*
X98075000Y-37045000D01*
X98075000Y-34305000D02*
X98075000Y-34635000D01*
X98075000Y-37045000D02*
X98075000Y-36715000D01*
%TO.C,R13*%
X149470000Y-103587500D02*
X156010000Y-103587500D01*
X149470000Y-103917500D02*
X149470000Y-103587500D01*
X149470000Y-105997500D02*
X149470000Y-106327500D01*
X149470000Y-106327500D02*
X156010000Y-106327500D01*
X156010000Y-103587500D02*
X156010000Y-103917500D01*
X156010000Y-106327500D02*
X156010000Y-105997500D01*
%TO.C,R16*%
X149470000Y-115787500D02*
X156010000Y-115787500D01*
X149470000Y-116117500D02*
X149470000Y-115787500D01*
X149470000Y-118197500D02*
X149470000Y-118527500D01*
X149470000Y-118527500D02*
X156010000Y-118527500D01*
X156010000Y-115787500D02*
X156010000Y-116117500D01*
X156010000Y-118527500D02*
X156010000Y-118197500D01*
%TO.C,N5*%
D12*
X176423760Y-62092830D02*
X176423760Y-42250350D01*
X196266240Y-42250350D02*
X196266240Y-62092830D01*
X176423760Y-42250350D02*
G75*
G02*
X196267433Y-42251771I9921240J-8326120D01*
G01*
X196266240Y-62092830D02*
G75*
G02*
X176422567Y-62091409I-9921240J8326119D01*
G01*
%TO.C,D7*%
D13*
X205725000Y-49421590D02*
X205725000Y-54921590D01*
X205725000Y-49421590D02*
X212725000Y-49421590D01*
X205725000Y-54921590D02*
X212275000Y-54921590D01*
X206525000Y-53071590D02*
X206525000Y-51271590D01*
X211925000Y-53071590D02*
X211925000Y-51271590D01*
X212275000Y-54921590D02*
X212725000Y-54471590D01*
X212725000Y-54471590D02*
X212725000Y-49421590D01*
%TO.C,R15*%
X149470000Y-110697500D02*
X156010000Y-110697500D01*
X149470000Y-111027500D02*
X149470000Y-110697500D01*
X149470000Y-113107500D02*
X149470000Y-113437500D01*
X149470000Y-113437500D02*
X156010000Y-113437500D01*
X156010000Y-110697500D02*
X156010000Y-111027500D01*
X156010000Y-113437500D02*
X156010000Y-113107500D01*
%TO.C,D2*%
X114205000Y-49421590D02*
X114205000Y-54921590D01*
X114205000Y-49421590D02*
X121205000Y-49421590D01*
X114205000Y-54921590D02*
X120755000Y-54921590D01*
X115005000Y-53071590D02*
X115005000Y-51271590D01*
X120405000Y-53071590D02*
X120405000Y-51271590D01*
X120755000Y-54921590D02*
X121205000Y-54471590D01*
X121205000Y-54471590D02*
X121205000Y-49421590D01*
%TO.C,R22*%
X162260000Y-110697500D02*
X168800000Y-110697500D01*
X162260000Y-111027500D02*
X162260000Y-110697500D01*
X162260000Y-113107500D02*
X162260000Y-113437500D01*
X162260000Y-113437500D02*
X168800000Y-113437500D01*
X168800000Y-110697500D02*
X168800000Y-111027500D01*
X168800000Y-113437500D02*
X168800000Y-113107500D01*
%TO.C,U1*%
X241250000Y-68185000D02*
X243050000Y-68185000D01*
X242250000Y-64965000D02*
X241450000Y-64965000D01*
X242250000Y-64965000D02*
X243050000Y-64965000D01*
X240950000Y-65015000D02*
X240710000Y-64685000D01*
X241190000Y-64685000D01*
X240950000Y-65015000D01*
G36*
X240950000Y-65015000D02*
G01*
X240710000Y-64685000D01*
X241190000Y-64685000D01*
X240950000Y-65015000D01*
G37*
%TO.C,R3*%
X135970000Y-122897500D02*
X142510000Y-122897500D01*
X135970000Y-123227500D02*
X135970000Y-122897500D01*
X135970000Y-125307500D02*
X135970000Y-125637500D01*
X135970000Y-125637500D02*
X142510000Y-125637500D01*
X142510000Y-122897500D02*
X142510000Y-123227500D01*
X142510000Y-125637500D02*
X142510000Y-125307500D01*
%TO.C,D1*%
X91325000Y-49421590D02*
X91325000Y-54921590D01*
X91325000Y-49421590D02*
X98325000Y-49421590D01*
X91325000Y-54921590D02*
X97875000Y-54921590D01*
X92125000Y-53071590D02*
X92125000Y-51271590D01*
X97525000Y-53071590D02*
X97525000Y-51271590D01*
X97875000Y-54921590D02*
X98325000Y-54471590D01*
X98325000Y-54471590D02*
X98325000Y-49421590D01*
%TO.C,R20*%
X162260000Y-103587500D02*
X168800000Y-103587500D01*
X162260000Y-103917500D02*
X162260000Y-103587500D01*
X162260000Y-105997500D02*
X162260000Y-106327500D01*
X162260000Y-106327500D02*
X168800000Y-106327500D01*
X168800000Y-103587500D02*
X168800000Y-103917500D01*
X168800000Y-106327500D02*
X168800000Y-105997500D01*
%TO.C,J1*%
X129160000Y-133182500D02*
X129160000Y-131802500D01*
X130540000Y-133182500D02*
X129160000Y-133182500D01*
X131810000Y-130422500D02*
X175100000Y-130422500D01*
X131810000Y-133182500D02*
X131810000Y-130422500D01*
X131810000Y-133182500D02*
X175100000Y-133182500D01*
X175100000Y-133182500D02*
X175100000Y-130422500D01*
%TO.C,C8*%
X60830000Y-52105000D02*
X61160000Y-52105000D01*
X60830000Y-57045000D02*
X60830000Y-52105000D01*
X61160000Y-57045000D02*
X60830000Y-57045000D01*
X63240000Y-52105000D02*
X63570000Y-52105000D01*
X63570000Y-52105000D02*
X63570000Y-57045000D01*
X63570000Y-57045000D02*
X63240000Y-57045000D01*
%TO.C,R9*%
X205935000Y-34305000D02*
X212475000Y-34305000D01*
X205935000Y-34635000D02*
X205935000Y-34305000D01*
X205935000Y-36715000D02*
X205935000Y-37045000D01*
X205935000Y-37045000D02*
X212475000Y-37045000D01*
X212475000Y-34305000D02*
X212475000Y-34635000D01*
X212475000Y-37045000D02*
X212475000Y-36715000D01*
%TO.C,R18*%
X56930000Y-39255000D02*
X63470000Y-39255000D01*
X56930000Y-39585000D02*
X56930000Y-39255000D01*
X56930000Y-41665000D02*
X56930000Y-41995000D01*
X56930000Y-41995000D02*
X63470000Y-41995000D01*
X63470000Y-39255000D02*
X63470000Y-39585000D01*
X63470000Y-41995000D02*
X63470000Y-41665000D01*
%TO.C,J2*%
X129185000Y-71105000D02*
X129185000Y-69725000D01*
X130565000Y-71105000D02*
X129185000Y-71105000D01*
X131835000Y-68345000D02*
X175125000Y-68345000D01*
X131835000Y-71105000D02*
X131835000Y-68345000D01*
X131835000Y-71105000D02*
X175125000Y-71105000D01*
X175125000Y-71105000D02*
X175125000Y-68345000D01*
%TO.C,JP1*%
X48620000Y-55895000D02*
X48620000Y-40545000D01*
X51380000Y-40545000D02*
X48620000Y-40545000D01*
X51380000Y-55895000D02*
X48620000Y-55895000D01*
X51380000Y-55895000D02*
X51380000Y-40545000D01*
X51380000Y-57165000D02*
X51380000Y-58545000D01*
X51380000Y-58545000D02*
X50000000Y-58545000D01*
%TD*%
M02*
