%TF.GenerationSoftware,KiCad,Pcbnew,10.0.5*%
%TF.CreationDate,2026-08-21T15:51:31+03:00*%
%TF.ProjectId,Nixie,4e697869-652e-46b6-9963-61645f706362,rev?*%
%TF.SameCoordinates,Original*%
%TF.FileFunction,Soldermask,Top*%
%TF.FilePolarity,Negative*%
%FSLAX46Y46*%
G04 Gerber Fmt 4.6, Leading zero omitted, Abs format (unit mm)*
G04 Created by KiCad (PCBNEW 10.0.5) date 2026-08-21 15:51:31*
%MOMM*%
%LPD*%
G01*
G04 APERTURE LIST*
G04 Aperture macros list*
%AMRoundRect*
0 Rectangle with rounded corners*
0 $1 Rounding radius*
0 $2 $3 $4 $5 $6 $7 $8 $9 X,Y pos of 4 corners*
0 Add a 4 corners polygon primitive as box body*
4,1,4,$2,$3,$4,$5,$6,$7,$8,$9,$2,$3,0*
0 Add four circle primitives for the rounded corners*
1,1,$1+$1,$2,$3*
1,1,$1+$1,$4,$5*
1,1,$1+$1,$6,$7*
1,1,$1+$1,$8,$9*
0 Add four rect primitives between the rounded corners*
20,1,$1+$1,$2,$3,$4,$5,0*
20,1,$1+$1,$4,$5,$6,$7,0*
20,1,$1+$1,$6,$7,$8,$9,0*
20,1,$1+$1,$8,$9,$2,$3,0*%
G04 Aperture macros list end*
%ADD10C,2.397760*%
%ADD11C,2.700000*%
%ADD12C,1.600000*%
%ADD13R,1.600000X1.000000*%
%ADD14RoundRect,0.150000X-0.587500X-0.150000X0.587500X-0.150000X0.587500X0.150000X-0.587500X0.150000X0*%
%ADD15R,1.800000X1.800000*%
%ADD16C,1.800000*%
%ADD17R,1.900000X0.600000*%
%ADD18R,0.600000X1.900000*%
%ADD19R,1.700000X1.700000*%
%ADD20C,1.700000*%
%ADD21RoundRect,0.162500X-0.617500X-0.162500X0.617500X-0.162500X0.617500X0.162500X-0.617500X0.162500X0*%
G04 APERTURE END LIST*
D10*
%TO.C,N4*%
X169213020Y-56669930D03*
X159467040Y-60170050D03*
X157716980Y-56669930D03*
X157716980Y-52171590D03*
X157716980Y-47673250D03*
X159467040Y-44173130D03*
X163465000Y-43172370D03*
X167462960Y-44173130D03*
X169213020Y-47673250D03*
X169213020Y-52171590D03*
X167462960Y-60170050D03*
X163465000Y-61170810D03*
%TD*%
D11*
%TO.C,REF\u002A\u002A*%
X152125000Y-97977500D03*
%TD*%
D10*
%TO.C,N3*%
X146333020Y-56669930D03*
X136587040Y-60170050D03*
X134836980Y-56669930D03*
X134836980Y-52171590D03*
X134836980Y-47673250D03*
X136587040Y-44173130D03*
X140585000Y-43172370D03*
X144582960Y-44173130D03*
X146333020Y-47673250D03*
X146333020Y-52171590D03*
X144582960Y-60170050D03*
X140585000Y-61170810D03*
%TD*%
D12*
%TO.C,R27*%
X244100000Y-39490000D03*
X244100000Y-47110000D03*
%TD*%
%TO.C,R12*%
X135430000Y-112067500D03*
X143050000Y-112067500D03*
%TD*%
%TO.C,R2*%
X135430000Y-120747500D03*
X143050000Y-120747500D03*
%TD*%
%TO.C,R21*%
X161720000Y-108547500D03*
X169340000Y-108547500D03*
%TD*%
D13*
%TO.C,D4*%
X165965000Y-53771590D03*
X160965000Y-53771590D03*
X160965000Y-50571590D03*
X165965000Y-50571590D03*
%TD*%
D12*
%TO.C,R10*%
X135430000Y-104957500D03*
X143050000Y-104957500D03*
%TD*%
D14*
%TO.C,Q1*%
X247400000Y-65562500D03*
X247400000Y-67462500D03*
X249275000Y-66512500D03*
%TD*%
D13*
%TO.C,D6*%
X188845000Y-53771590D03*
X183845000Y-53771590D03*
X183845000Y-50571590D03*
X188845000Y-50571590D03*
%TD*%
D11*
%TO.C,REF\u002A\u002A*%
X47975000Y-71350000D03*
%TD*%
D15*
%TO.C,D5*%
X51280000Y-37700000D03*
D16*
X53820000Y-37700000D03*
%TD*%
D12*
%TO.C,R14*%
X148930000Y-108547500D03*
X156550000Y-108547500D03*
%TD*%
%TO.C,R7*%
X159635000Y-35675000D03*
X167255000Y-35675000D03*
%TD*%
D11*
%TO.C,REF\u002A\u002A*%
X255700000Y-71350000D03*
%TD*%
D12*
%TO.C,R25*%
X161720000Y-124267500D03*
X169340000Y-124267500D03*
%TD*%
%TO.C,R23*%
X161720000Y-117157500D03*
X169340000Y-117157500D03*
%TD*%
%TO.C,R11*%
X135430000Y-108547500D03*
X143050000Y-108547500D03*
%TD*%
D11*
%TO.C,REF\u002A\u002A*%
X255700000Y-30325000D03*
%TD*%
D12*
%TO.C,R5*%
X113195000Y-35675000D03*
X120815000Y-35675000D03*
%TD*%
%TO.C,R6*%
X136755000Y-35675000D03*
X144375000Y-35675000D03*
%TD*%
D10*
%TO.C,N6*%
X214973020Y-56669930D03*
X205227040Y-60170050D03*
X203476980Y-56669930D03*
X203476980Y-52171590D03*
X203476980Y-47673250D03*
X205227040Y-44173130D03*
X209225000Y-43172370D03*
X213222960Y-44173130D03*
X214973020Y-47673250D03*
X214973020Y-52171590D03*
X213222960Y-60170050D03*
X209225000Y-61170810D03*
%TD*%
D17*
%TO.C,U3*%
X225525000Y-48171590D03*
X225525000Y-48971590D03*
X225525000Y-49771590D03*
X225525000Y-50571590D03*
X225525000Y-51371590D03*
X225525000Y-52171590D03*
X225525000Y-52971590D03*
X225525000Y-53771590D03*
X225525000Y-54571590D03*
X225525000Y-55371590D03*
X225525000Y-56171590D03*
D18*
X228025000Y-58671590D03*
X228825000Y-58671590D03*
X229625000Y-58671590D03*
X230425000Y-58671590D03*
X231225000Y-58671590D03*
X232025000Y-58671590D03*
X232825000Y-58671590D03*
X233625000Y-58671590D03*
X234425000Y-58671590D03*
X235225000Y-58671590D03*
X236025000Y-58671590D03*
D17*
X238525000Y-56171590D03*
X238525000Y-55371590D03*
X238525000Y-54571590D03*
X238525000Y-53771590D03*
X238525000Y-52971590D03*
X238525000Y-52171590D03*
X238525000Y-51371590D03*
X238525000Y-50571590D03*
X238525000Y-49771590D03*
X238525000Y-48971590D03*
X238525000Y-48171590D03*
D18*
X236025000Y-45671590D03*
X235225000Y-45671590D03*
X234425000Y-45671590D03*
X233625000Y-45671590D03*
X232825000Y-45671590D03*
X232025000Y-45671590D03*
X231225000Y-45671590D03*
X230425000Y-45671590D03*
X229625000Y-45671590D03*
X228825000Y-45671590D03*
X228025000Y-45671590D03*
%TD*%
D12*
%TO.C,R17*%
X148930000Y-120677500D03*
X156550000Y-120677500D03*
%TD*%
%TO.C,R8*%
X182515000Y-35675000D03*
X190135000Y-35675000D03*
%TD*%
%TO.C,R19*%
X148930000Y-124267500D03*
X156550000Y-124267500D03*
%TD*%
D10*
%TO.C,N1*%
X100573020Y-56669930D03*
X90827040Y-60170050D03*
X89076980Y-56669930D03*
X89076980Y-52171590D03*
X89076980Y-47673250D03*
X90827040Y-44173130D03*
X94825000Y-43172370D03*
X98822960Y-44173130D03*
X100573020Y-47673250D03*
X100573020Y-52171590D03*
X98822960Y-60170050D03*
X94825000Y-61170810D03*
%TD*%
D19*
%TO.C,J3*%
X162430000Y-97527500D03*
D20*
X159890000Y-97527500D03*
X157350000Y-97527500D03*
%TD*%
D12*
%TO.C,C6*%
X58775000Y-57075000D03*
X58775000Y-52075000D03*
%TD*%
%TO.C,C9*%
X242875000Y-50550000D03*
X242875000Y-55550000D03*
%TD*%
%TO.C,R26*%
X230695000Y-36150000D03*
X223075000Y-36150000D03*
%TD*%
%TO.C,R1*%
X135430000Y-117157500D03*
X143050000Y-117157500D03*
%TD*%
D13*
%TO.C,D3*%
X143085000Y-53771590D03*
X138085000Y-53771590D03*
X138085000Y-50571590D03*
X143085000Y-50571590D03*
%TD*%
D12*
%TO.C,C7*%
X246125000Y-50550000D03*
X246125000Y-55550000D03*
%TD*%
D17*
%TO.C,U2*%
X78525000Y-56171590D03*
X78525000Y-55371590D03*
X78525000Y-54571590D03*
X78525000Y-53771590D03*
X78525000Y-52971590D03*
X78525000Y-52171590D03*
X78525000Y-51371590D03*
X78525000Y-50571590D03*
X78525000Y-49771590D03*
X78525000Y-48971590D03*
X78525000Y-48171590D03*
D18*
X76025000Y-45671590D03*
X75225000Y-45671590D03*
X74425000Y-45671590D03*
X73625000Y-45671590D03*
X72825000Y-45671590D03*
X72025000Y-45671590D03*
X71225000Y-45671590D03*
X70425000Y-45671590D03*
X69625000Y-45671590D03*
X68825000Y-45671590D03*
X68025000Y-45671590D03*
D17*
X65525000Y-48171590D03*
X65525000Y-48971590D03*
X65525000Y-49771590D03*
X65525000Y-50571590D03*
X65525000Y-51371590D03*
X65525000Y-52171590D03*
X65525000Y-52971590D03*
X65525000Y-53771590D03*
X65525000Y-54571590D03*
X65525000Y-55371590D03*
X65525000Y-56171590D03*
D18*
X68025000Y-58671590D03*
X68825000Y-58671590D03*
X69625000Y-58671590D03*
X70425000Y-58671590D03*
X71225000Y-58671590D03*
X72025000Y-58671590D03*
X72825000Y-58671590D03*
X73625000Y-58671590D03*
X74425000Y-58671590D03*
X75225000Y-58671590D03*
X76025000Y-58671590D03*
%TD*%
D10*
%TO.C,N2*%
X123453020Y-56669930D03*
X113707040Y-60170050D03*
X111956980Y-56669930D03*
X111956980Y-52171590D03*
X111956980Y-47673250D03*
X113707040Y-44173130D03*
X117705000Y-43172370D03*
X121702960Y-44173130D03*
X123453020Y-47673250D03*
X123453020Y-52171590D03*
X121702960Y-60170050D03*
X117705000Y-61170810D03*
%TD*%
D12*
%TO.C,R24*%
X161720000Y-120747500D03*
X169340000Y-120747500D03*
%TD*%
%TO.C,R4*%
X90995000Y-35675000D03*
X98615000Y-35675000D03*
%TD*%
%TO.C,R13*%
X148930000Y-104957500D03*
X156550000Y-104957500D03*
%TD*%
D11*
%TO.C,REF\u002A\u002A*%
X48050000Y-30250000D03*
%TD*%
D12*
%TO.C,R16*%
X148930000Y-117157500D03*
X156550000Y-117157500D03*
%TD*%
D10*
%TO.C,N5*%
X192093020Y-56669930D03*
X182347040Y-60170050D03*
X180596980Y-56669930D03*
X180596980Y-52171590D03*
X180596980Y-47673250D03*
X182347040Y-44173130D03*
X186345000Y-43172370D03*
X190342960Y-44173130D03*
X192093020Y-47673250D03*
X192093020Y-52171590D03*
X190342960Y-60170050D03*
X186345000Y-61170810D03*
%TD*%
D13*
%TO.C,D7*%
X211725000Y-53771590D03*
X206725000Y-53771590D03*
X206725000Y-50571590D03*
X211725000Y-50571590D03*
%TD*%
D12*
%TO.C,R15*%
X148930000Y-112067500D03*
X156550000Y-112067500D03*
%TD*%
D13*
%TO.C,D2*%
X120205000Y-53771590D03*
X115205000Y-53771590D03*
X115205000Y-50571590D03*
X120205000Y-50571590D03*
%TD*%
D12*
%TO.C,R22*%
X161720000Y-112067500D03*
X169340000Y-112067500D03*
%TD*%
D11*
%TO.C,REF\u002A\u002A*%
X152150000Y-35875000D03*
%TD*%
D21*
%TO.C,U1*%
X240800000Y-65625000D03*
X240800000Y-66575000D03*
X240800000Y-67525000D03*
X243500000Y-67525000D03*
X243500000Y-65625000D03*
%TD*%
D12*
%TO.C,R3*%
X135430000Y-124267500D03*
X143050000Y-124267500D03*
%TD*%
D13*
%TO.C,D1*%
X97325000Y-53771590D03*
X92325000Y-53771590D03*
X92325000Y-50571590D03*
X97325000Y-50571590D03*
%TD*%
D12*
%TO.C,R20*%
X161720000Y-104957500D03*
X169340000Y-104957500D03*
%TD*%
D19*
%TO.C,J1*%
X130540000Y-131802500D03*
D20*
X133080000Y-131802500D03*
X135620000Y-131802500D03*
X138160000Y-131802500D03*
X140700000Y-131802500D03*
X143240000Y-131802500D03*
X145780000Y-131802500D03*
X148320000Y-131802500D03*
X150860000Y-131802500D03*
X153400000Y-131802500D03*
X155940000Y-131802500D03*
X158480000Y-131802500D03*
X161020000Y-131802500D03*
X163560000Y-131802500D03*
X166100000Y-131802500D03*
X168640000Y-131802500D03*
X171180000Y-131802500D03*
X173720000Y-131802500D03*
%TD*%
D12*
%TO.C,C8*%
X62200000Y-57075000D03*
X62200000Y-52075000D03*
%TD*%
%TO.C,R9*%
X205395000Y-35675000D03*
X213015000Y-35675000D03*
%TD*%
%TO.C,R18*%
X56390000Y-40625000D03*
X64010000Y-40625000D03*
%TD*%
D19*
%TO.C,J2*%
X130565000Y-69725000D03*
D20*
X133105000Y-69725000D03*
X135645000Y-69725000D03*
X138185000Y-69725000D03*
X140725000Y-69725000D03*
X143265000Y-69725000D03*
X145805000Y-69725000D03*
X148345000Y-69725000D03*
X150885000Y-69725000D03*
X153425000Y-69725000D03*
X155965000Y-69725000D03*
X158505000Y-69725000D03*
X161045000Y-69725000D03*
X163585000Y-69725000D03*
X166125000Y-69725000D03*
X168665000Y-69725000D03*
X171205000Y-69725000D03*
X173745000Y-69725000D03*
%TD*%
D19*
%TO.C,JP1*%
X50000000Y-57165000D03*
D20*
X50000000Y-54625000D03*
X50000000Y-52085000D03*
X50000000Y-49545000D03*
X50000000Y-47005000D03*
X50000000Y-44465000D03*
X50000000Y-41925000D03*
%TD*%
M02*
