%TF.GenerationSoftware,KiCad,Pcbnew,10.0.5*%
%TF.CreationDate,2026-08-19T21:39:51+03:00*%
%TF.ProjectId,Nixie,4e697869-652e-46b6-9963-61645f706362,rev?*%
%TF.SameCoordinates,Original*%
%TF.FileFunction,Legend,Top*%
%TF.FilePolarity,Positive*%
%FSLAX46Y46*%
G04 Gerber Fmt 4.6, Leading zero omitted, Abs format (unit mm)*
G04 Created by KiCad (PCBNEW 10.0.5) date 2026-08-19 21:39:51*
%MOMM*%
%LPD*%
G01*
G04 APERTURE LIST*
%ADD10C,0.101600*%
%ADD11C,0.150000*%
%ADD12C,0.254000*%
%ADD13C,0.120000*%
%ADD14C,0.200000*%
%ADD15C,0.400000*%
G04 APERTURE END LIST*
D10*
X175634722Y-53456709D02*
X174364722Y-53456709D01*
X174364722Y-53456709D02*
X175634722Y-52730994D01*
X175634722Y-52730994D02*
X174364722Y-52730994D01*
X174788055Y-51581947D02*
X175634722Y-51581947D01*
X174304246Y-51884328D02*
X175211388Y-52186709D01*
X175211388Y-52186709D02*
X175211388Y-51400518D01*
X161953095Y-46403832D02*
X162678809Y-46403832D01*
X162315952Y-47673832D02*
X162315952Y-46403832D01*
X163283571Y-47673832D02*
X163162619Y-47613356D01*
X163162619Y-47613356D02*
X163102142Y-47552879D01*
X163102142Y-47552879D02*
X163041666Y-47431927D01*
X163041666Y-47431927D02*
X163041666Y-47069070D01*
X163041666Y-47069070D02*
X163102142Y-46948117D01*
X163102142Y-46948117D02*
X163162619Y-46887641D01*
X163162619Y-46887641D02*
X163283571Y-46827165D01*
X163283571Y-46827165D02*
X163465000Y-46827165D01*
X163465000Y-46827165D02*
X163585952Y-46887641D01*
X163585952Y-46887641D02*
X163646428Y-46948117D01*
X163646428Y-46948117D02*
X163706904Y-47069070D01*
X163706904Y-47069070D02*
X163706904Y-47431927D01*
X163706904Y-47431927D02*
X163646428Y-47552879D01*
X163646428Y-47552879D02*
X163585952Y-47613356D01*
X163585952Y-47613356D02*
X163465000Y-47673832D01*
X163465000Y-47673832D02*
X163283571Y-47673832D01*
X164251190Y-46827165D02*
X164251190Y-48097165D01*
X164251190Y-46887641D02*
X164372143Y-46827165D01*
X164372143Y-46827165D02*
X164614048Y-46827165D01*
X164614048Y-46827165D02*
X164735000Y-46887641D01*
X164735000Y-46887641D02*
X164795476Y-46948117D01*
X164795476Y-46948117D02*
X164855952Y-47069070D01*
X164855952Y-47069070D02*
X164855952Y-47431927D01*
X164855952Y-47431927D02*
X164795476Y-47552879D01*
X164795476Y-47552879D02*
X164735000Y-47613356D01*
X164735000Y-47613356D02*
X164614048Y-47673832D01*
X164614048Y-47673832D02*
X164372143Y-47673832D01*
X164372143Y-47673832D02*
X164251190Y-47613356D01*
X162618333Y-57168594D02*
X162799761Y-57229070D01*
X162799761Y-57229070D02*
X162860238Y-57289546D01*
X162860238Y-57289546D02*
X162920714Y-57410498D01*
X162920714Y-57410498D02*
X162920714Y-57591927D01*
X162920714Y-57591927D02*
X162860238Y-57712879D01*
X162860238Y-57712879D02*
X162799761Y-57773356D01*
X162799761Y-57773356D02*
X162678809Y-57833832D01*
X162678809Y-57833832D02*
X162194999Y-57833832D01*
X162194999Y-57833832D02*
X162194999Y-56563832D01*
X162194999Y-56563832D02*
X162618333Y-56563832D01*
X162618333Y-56563832D02*
X162739285Y-56624308D01*
X162739285Y-56624308D02*
X162799761Y-56684784D01*
X162799761Y-56684784D02*
X162860238Y-56805736D01*
X162860238Y-56805736D02*
X162860238Y-56926689D01*
X162860238Y-56926689D02*
X162799761Y-57047641D01*
X162799761Y-57047641D02*
X162739285Y-57108117D01*
X162739285Y-57108117D02*
X162618333Y-57168594D01*
X162618333Y-57168594D02*
X162194999Y-57168594D01*
X163646428Y-57833832D02*
X163525476Y-57773356D01*
X163525476Y-57773356D02*
X163464999Y-57712879D01*
X163464999Y-57712879D02*
X163404523Y-57591927D01*
X163404523Y-57591927D02*
X163404523Y-57229070D01*
X163404523Y-57229070D02*
X163464999Y-57108117D01*
X163464999Y-57108117D02*
X163525476Y-57047641D01*
X163525476Y-57047641D02*
X163646428Y-56987165D01*
X163646428Y-56987165D02*
X163827857Y-56987165D01*
X163827857Y-56987165D02*
X163948809Y-57047641D01*
X163948809Y-57047641D02*
X164009285Y-57108117D01*
X164009285Y-57108117D02*
X164069761Y-57229070D01*
X164069761Y-57229070D02*
X164069761Y-57591927D01*
X164069761Y-57591927D02*
X164009285Y-57712879D01*
X164009285Y-57712879D02*
X163948809Y-57773356D01*
X163948809Y-57773356D02*
X163827857Y-57833832D01*
X163827857Y-57833832D02*
X163646428Y-57833832D01*
X164432619Y-56987165D02*
X164916428Y-56987165D01*
X164614047Y-56563832D02*
X164614047Y-57652403D01*
X164614047Y-57652403D02*
X164674524Y-57773356D01*
X164674524Y-57773356D02*
X164795476Y-57833832D01*
X164795476Y-57833832D02*
X164916428Y-57833832D01*
X152754722Y-53456709D02*
X151484722Y-53456709D01*
X151484722Y-53456709D02*
X152754722Y-52730994D01*
X152754722Y-52730994D02*
X151484722Y-52730994D01*
X151484722Y-52247185D02*
X151484722Y-51460994D01*
X151484722Y-51460994D02*
X151968531Y-51884328D01*
X151968531Y-51884328D02*
X151968531Y-51702899D01*
X151968531Y-51702899D02*
X152029007Y-51581947D01*
X152029007Y-51581947D02*
X152089484Y-51521471D01*
X152089484Y-51521471D02*
X152210436Y-51460994D01*
X152210436Y-51460994D02*
X152512817Y-51460994D01*
X152512817Y-51460994D02*
X152633769Y-51521471D01*
X152633769Y-51521471D02*
X152694246Y-51581947D01*
X152694246Y-51581947D02*
X152754722Y-51702899D01*
X152754722Y-51702899D02*
X152754722Y-52065756D01*
X152754722Y-52065756D02*
X152694246Y-52186709D01*
X152694246Y-52186709D02*
X152633769Y-52247185D01*
X139073095Y-46403832D02*
X139798809Y-46403832D01*
X139435952Y-47673832D02*
X139435952Y-46403832D01*
X140403571Y-47673832D02*
X140282619Y-47613356D01*
X140282619Y-47613356D02*
X140222142Y-47552879D01*
X140222142Y-47552879D02*
X140161666Y-47431927D01*
X140161666Y-47431927D02*
X140161666Y-47069070D01*
X140161666Y-47069070D02*
X140222142Y-46948117D01*
X140222142Y-46948117D02*
X140282619Y-46887641D01*
X140282619Y-46887641D02*
X140403571Y-46827165D01*
X140403571Y-46827165D02*
X140585000Y-46827165D01*
X140585000Y-46827165D02*
X140705952Y-46887641D01*
X140705952Y-46887641D02*
X140766428Y-46948117D01*
X140766428Y-46948117D02*
X140826904Y-47069070D01*
X140826904Y-47069070D02*
X140826904Y-47431927D01*
X140826904Y-47431927D02*
X140766428Y-47552879D01*
X140766428Y-47552879D02*
X140705952Y-47613356D01*
X140705952Y-47613356D02*
X140585000Y-47673832D01*
X140585000Y-47673832D02*
X140403571Y-47673832D01*
X141371190Y-46827165D02*
X141371190Y-48097165D01*
X141371190Y-46887641D02*
X141492143Y-46827165D01*
X141492143Y-46827165D02*
X141734048Y-46827165D01*
X141734048Y-46827165D02*
X141855000Y-46887641D01*
X141855000Y-46887641D02*
X141915476Y-46948117D01*
X141915476Y-46948117D02*
X141975952Y-47069070D01*
X141975952Y-47069070D02*
X141975952Y-47431927D01*
X141975952Y-47431927D02*
X141915476Y-47552879D01*
X141915476Y-47552879D02*
X141855000Y-47613356D01*
X141855000Y-47613356D02*
X141734048Y-47673832D01*
X141734048Y-47673832D02*
X141492143Y-47673832D01*
X141492143Y-47673832D02*
X141371190Y-47613356D01*
X139738333Y-57168594D02*
X139919761Y-57229070D01*
X139919761Y-57229070D02*
X139980238Y-57289546D01*
X139980238Y-57289546D02*
X140040714Y-57410498D01*
X140040714Y-57410498D02*
X140040714Y-57591927D01*
X140040714Y-57591927D02*
X139980238Y-57712879D01*
X139980238Y-57712879D02*
X139919761Y-57773356D01*
X139919761Y-57773356D02*
X139798809Y-57833832D01*
X139798809Y-57833832D02*
X139314999Y-57833832D01*
X139314999Y-57833832D02*
X139314999Y-56563832D01*
X139314999Y-56563832D02*
X139738333Y-56563832D01*
X139738333Y-56563832D02*
X139859285Y-56624308D01*
X139859285Y-56624308D02*
X139919761Y-56684784D01*
X139919761Y-56684784D02*
X139980238Y-56805736D01*
X139980238Y-56805736D02*
X139980238Y-56926689D01*
X139980238Y-56926689D02*
X139919761Y-57047641D01*
X139919761Y-57047641D02*
X139859285Y-57108117D01*
X139859285Y-57108117D02*
X139738333Y-57168594D01*
X139738333Y-57168594D02*
X139314999Y-57168594D01*
X140766428Y-57833832D02*
X140645476Y-57773356D01*
X140645476Y-57773356D02*
X140584999Y-57712879D01*
X140584999Y-57712879D02*
X140524523Y-57591927D01*
X140524523Y-57591927D02*
X140524523Y-57229070D01*
X140524523Y-57229070D02*
X140584999Y-57108117D01*
X140584999Y-57108117D02*
X140645476Y-57047641D01*
X140645476Y-57047641D02*
X140766428Y-56987165D01*
X140766428Y-56987165D02*
X140947857Y-56987165D01*
X140947857Y-56987165D02*
X141068809Y-57047641D01*
X141068809Y-57047641D02*
X141129285Y-57108117D01*
X141129285Y-57108117D02*
X141189761Y-57229070D01*
X141189761Y-57229070D02*
X141189761Y-57591927D01*
X141189761Y-57591927D02*
X141129285Y-57712879D01*
X141129285Y-57712879D02*
X141068809Y-57773356D01*
X141068809Y-57773356D02*
X140947857Y-57833832D01*
X140947857Y-57833832D02*
X140766428Y-57833832D01*
X141552619Y-56987165D02*
X142036428Y-56987165D01*
X141734047Y-56563832D02*
X141734047Y-57652403D01*
X141734047Y-57652403D02*
X141794524Y-57773356D01*
X141794524Y-57773356D02*
X141915476Y-57833832D01*
X141915476Y-57833832D02*
X142036428Y-57833832D01*
D11*
X246924819Y-43942857D02*
X246448628Y-44276190D01*
X246924819Y-44514285D02*
X245924819Y-44514285D01*
X245924819Y-44514285D02*
X245924819Y-44133333D01*
X245924819Y-44133333D02*
X245972438Y-44038095D01*
X245972438Y-44038095D02*
X246020057Y-43990476D01*
X246020057Y-43990476D02*
X246115295Y-43942857D01*
X246115295Y-43942857D02*
X246258152Y-43942857D01*
X246258152Y-43942857D02*
X246353390Y-43990476D01*
X246353390Y-43990476D02*
X246401009Y-44038095D01*
X246401009Y-44038095D02*
X246448628Y-44133333D01*
X246448628Y-44133333D02*
X246448628Y-44514285D01*
X246020057Y-43561904D02*
X245972438Y-43514285D01*
X245972438Y-43514285D02*
X245924819Y-43419047D01*
X245924819Y-43419047D02*
X245924819Y-43180952D01*
X245924819Y-43180952D02*
X245972438Y-43085714D01*
X245972438Y-43085714D02*
X246020057Y-43038095D01*
X246020057Y-43038095D02*
X246115295Y-42990476D01*
X246115295Y-42990476D02*
X246210533Y-42990476D01*
X246210533Y-42990476D02*
X246353390Y-43038095D01*
X246353390Y-43038095D02*
X246924819Y-43609523D01*
X246924819Y-43609523D02*
X246924819Y-42990476D01*
X245924819Y-42657142D02*
X245924819Y-41990476D01*
X245924819Y-41990476D02*
X246924819Y-42419047D01*
X140817142Y-111769819D02*
X140483809Y-111293628D01*
X140245714Y-111769819D02*
X140245714Y-110769819D01*
X140245714Y-110769819D02*
X140626666Y-110769819D01*
X140626666Y-110769819D02*
X140721904Y-110817438D01*
X140721904Y-110817438D02*
X140769523Y-110865057D01*
X140769523Y-110865057D02*
X140817142Y-110960295D01*
X140817142Y-110960295D02*
X140817142Y-111103152D01*
X140817142Y-111103152D02*
X140769523Y-111198390D01*
X140769523Y-111198390D02*
X140721904Y-111246009D01*
X140721904Y-111246009D02*
X140626666Y-111293628D01*
X140626666Y-111293628D02*
X140245714Y-111293628D01*
X141769523Y-111769819D02*
X141198095Y-111769819D01*
X141483809Y-111769819D02*
X141483809Y-110769819D01*
X141483809Y-110769819D02*
X141388571Y-110912676D01*
X141388571Y-110912676D02*
X141293333Y-111007914D01*
X141293333Y-111007914D02*
X141198095Y-111055533D01*
X142150476Y-110865057D02*
X142198095Y-110817438D01*
X142198095Y-110817438D02*
X142293333Y-110769819D01*
X142293333Y-110769819D02*
X142531428Y-110769819D01*
X142531428Y-110769819D02*
X142626666Y-110817438D01*
X142626666Y-110817438D02*
X142674285Y-110865057D01*
X142674285Y-110865057D02*
X142721904Y-110960295D01*
X142721904Y-110960295D02*
X142721904Y-111055533D01*
X142721904Y-111055533D02*
X142674285Y-111198390D01*
X142674285Y-111198390D02*
X142102857Y-111769819D01*
X142102857Y-111769819D02*
X142721904Y-111769819D01*
X141293333Y-120449819D02*
X140960000Y-119973628D01*
X140721905Y-120449819D02*
X140721905Y-119449819D01*
X140721905Y-119449819D02*
X141102857Y-119449819D01*
X141102857Y-119449819D02*
X141198095Y-119497438D01*
X141198095Y-119497438D02*
X141245714Y-119545057D01*
X141245714Y-119545057D02*
X141293333Y-119640295D01*
X141293333Y-119640295D02*
X141293333Y-119783152D01*
X141293333Y-119783152D02*
X141245714Y-119878390D01*
X141245714Y-119878390D02*
X141198095Y-119926009D01*
X141198095Y-119926009D02*
X141102857Y-119973628D01*
X141102857Y-119973628D02*
X140721905Y-119973628D01*
X141674286Y-119545057D02*
X141721905Y-119497438D01*
X141721905Y-119497438D02*
X141817143Y-119449819D01*
X141817143Y-119449819D02*
X142055238Y-119449819D01*
X142055238Y-119449819D02*
X142150476Y-119497438D01*
X142150476Y-119497438D02*
X142198095Y-119545057D01*
X142198095Y-119545057D02*
X142245714Y-119640295D01*
X142245714Y-119640295D02*
X142245714Y-119735533D01*
X142245714Y-119735533D02*
X142198095Y-119878390D01*
X142198095Y-119878390D02*
X141626667Y-120449819D01*
X141626667Y-120449819D02*
X142245714Y-120449819D01*
X167107142Y-108249819D02*
X166773809Y-107773628D01*
X166535714Y-108249819D02*
X166535714Y-107249819D01*
X166535714Y-107249819D02*
X166916666Y-107249819D01*
X166916666Y-107249819D02*
X167011904Y-107297438D01*
X167011904Y-107297438D02*
X167059523Y-107345057D01*
X167059523Y-107345057D02*
X167107142Y-107440295D01*
X167107142Y-107440295D02*
X167107142Y-107583152D01*
X167107142Y-107583152D02*
X167059523Y-107678390D01*
X167059523Y-107678390D02*
X167011904Y-107726009D01*
X167011904Y-107726009D02*
X166916666Y-107773628D01*
X166916666Y-107773628D02*
X166535714Y-107773628D01*
X167488095Y-107345057D02*
X167535714Y-107297438D01*
X167535714Y-107297438D02*
X167630952Y-107249819D01*
X167630952Y-107249819D02*
X167869047Y-107249819D01*
X167869047Y-107249819D02*
X167964285Y-107297438D01*
X167964285Y-107297438D02*
X168011904Y-107345057D01*
X168011904Y-107345057D02*
X168059523Y-107440295D01*
X168059523Y-107440295D02*
X168059523Y-107535533D01*
X168059523Y-107535533D02*
X168011904Y-107678390D01*
X168011904Y-107678390D02*
X167440476Y-108249819D01*
X167440476Y-108249819D02*
X168059523Y-108249819D01*
X169011904Y-108249819D02*
X168440476Y-108249819D01*
X168726190Y-108249819D02*
X168726190Y-107249819D01*
X168726190Y-107249819D02*
X168630952Y-107392676D01*
X168630952Y-107392676D02*
X168535714Y-107487914D01*
X168535714Y-107487914D02*
X168440476Y-107535533D01*
X162761905Y-52604819D02*
X162761905Y-51604819D01*
X162761905Y-51604819D02*
X163000000Y-51604819D01*
X163000000Y-51604819D02*
X163142857Y-51652438D01*
X163142857Y-51652438D02*
X163238095Y-51747676D01*
X163238095Y-51747676D02*
X163285714Y-51842914D01*
X163285714Y-51842914D02*
X163333333Y-52033390D01*
X163333333Y-52033390D02*
X163333333Y-52176247D01*
X163333333Y-52176247D02*
X163285714Y-52366723D01*
X163285714Y-52366723D02*
X163238095Y-52461961D01*
X163238095Y-52461961D02*
X163142857Y-52557200D01*
X163142857Y-52557200D02*
X163000000Y-52604819D01*
X163000000Y-52604819D02*
X162761905Y-52604819D01*
X164190476Y-51938152D02*
X164190476Y-52604819D01*
X163952381Y-51557200D02*
X163714286Y-52271485D01*
X163714286Y-52271485D02*
X164333333Y-52271485D01*
X140817142Y-104659819D02*
X140483809Y-104183628D01*
X140245714Y-104659819D02*
X140245714Y-103659819D01*
X140245714Y-103659819D02*
X140626666Y-103659819D01*
X140626666Y-103659819D02*
X140721904Y-103707438D01*
X140721904Y-103707438D02*
X140769523Y-103755057D01*
X140769523Y-103755057D02*
X140817142Y-103850295D01*
X140817142Y-103850295D02*
X140817142Y-103993152D01*
X140817142Y-103993152D02*
X140769523Y-104088390D01*
X140769523Y-104088390D02*
X140721904Y-104136009D01*
X140721904Y-104136009D02*
X140626666Y-104183628D01*
X140626666Y-104183628D02*
X140245714Y-104183628D01*
X141769523Y-104659819D02*
X141198095Y-104659819D01*
X141483809Y-104659819D02*
X141483809Y-103659819D01*
X141483809Y-103659819D02*
X141388571Y-103802676D01*
X141388571Y-103802676D02*
X141293333Y-103897914D01*
X141293333Y-103897914D02*
X141198095Y-103945533D01*
X142388571Y-103659819D02*
X142483809Y-103659819D01*
X142483809Y-103659819D02*
X142579047Y-103707438D01*
X142579047Y-103707438D02*
X142626666Y-103755057D01*
X142626666Y-103755057D02*
X142674285Y-103850295D01*
X142674285Y-103850295D02*
X142721904Y-104040771D01*
X142721904Y-104040771D02*
X142721904Y-104278866D01*
X142721904Y-104278866D02*
X142674285Y-104469342D01*
X142674285Y-104469342D02*
X142626666Y-104564580D01*
X142626666Y-104564580D02*
X142579047Y-104612200D01*
X142579047Y-104612200D02*
X142483809Y-104659819D01*
X142483809Y-104659819D02*
X142388571Y-104659819D01*
X142388571Y-104659819D02*
X142293333Y-104612200D01*
X142293333Y-104612200D02*
X142245714Y-104564580D01*
X142245714Y-104564580D02*
X142198095Y-104469342D01*
X142198095Y-104469342D02*
X142150476Y-104278866D01*
X142150476Y-104278866D02*
X142150476Y-104040771D01*
X142150476Y-104040771D02*
X142198095Y-103850295D01*
X142198095Y-103850295D02*
X142245714Y-103755057D01*
X142245714Y-103755057D02*
X142293333Y-103707438D01*
X142293333Y-103707438D02*
X142388571Y-103659819D01*
X248242261Y-64662557D02*
X248147023Y-64614938D01*
X248147023Y-64614938D02*
X248051785Y-64519700D01*
X248051785Y-64519700D02*
X247908928Y-64376842D01*
X247908928Y-64376842D02*
X247813690Y-64329223D01*
X247813690Y-64329223D02*
X247718452Y-64329223D01*
X247766071Y-64567319D02*
X247670833Y-64519700D01*
X247670833Y-64519700D02*
X247575595Y-64424461D01*
X247575595Y-64424461D02*
X247527976Y-64233985D01*
X247527976Y-64233985D02*
X247527976Y-63900652D01*
X247527976Y-63900652D02*
X247575595Y-63710176D01*
X247575595Y-63710176D02*
X247670833Y-63614938D01*
X247670833Y-63614938D02*
X247766071Y-63567319D01*
X247766071Y-63567319D02*
X247956547Y-63567319D01*
X247956547Y-63567319D02*
X248051785Y-63614938D01*
X248051785Y-63614938D02*
X248147023Y-63710176D01*
X248147023Y-63710176D02*
X248194642Y-63900652D01*
X248194642Y-63900652D02*
X248194642Y-64233985D01*
X248194642Y-64233985D02*
X248147023Y-64424461D01*
X248147023Y-64424461D02*
X248051785Y-64519700D01*
X248051785Y-64519700D02*
X247956547Y-64567319D01*
X247956547Y-64567319D02*
X247766071Y-64567319D01*
X249147023Y-64567319D02*
X248575595Y-64567319D01*
X248861309Y-64567319D02*
X248861309Y-63567319D01*
X248861309Y-63567319D02*
X248766071Y-63710176D01*
X248766071Y-63710176D02*
X248670833Y-63805414D01*
X248670833Y-63805414D02*
X248575595Y-63853033D01*
X185606905Y-56126409D02*
X185606905Y-55126409D01*
X185606905Y-55126409D02*
X185845000Y-55126409D01*
X185845000Y-55126409D02*
X185987857Y-55174028D01*
X185987857Y-55174028D02*
X186083095Y-55269266D01*
X186083095Y-55269266D02*
X186130714Y-55364504D01*
X186130714Y-55364504D02*
X186178333Y-55554980D01*
X186178333Y-55554980D02*
X186178333Y-55697837D01*
X186178333Y-55697837D02*
X186130714Y-55888313D01*
X186130714Y-55888313D02*
X186083095Y-55983551D01*
X186083095Y-55983551D02*
X185987857Y-56078790D01*
X185987857Y-56078790D02*
X185845000Y-56126409D01*
X185845000Y-56126409D02*
X185606905Y-56126409D01*
X187035476Y-55126409D02*
X186845000Y-55126409D01*
X186845000Y-55126409D02*
X186749762Y-55174028D01*
X186749762Y-55174028D02*
X186702143Y-55221647D01*
X186702143Y-55221647D02*
X186606905Y-55364504D01*
X186606905Y-55364504D02*
X186559286Y-55554980D01*
X186559286Y-55554980D02*
X186559286Y-55935932D01*
X186559286Y-55935932D02*
X186606905Y-56031170D01*
X186606905Y-56031170D02*
X186654524Y-56078790D01*
X186654524Y-56078790D02*
X186749762Y-56126409D01*
X186749762Y-56126409D02*
X186940238Y-56126409D01*
X186940238Y-56126409D02*
X187035476Y-56078790D01*
X187035476Y-56078790D02*
X187083095Y-56031170D01*
X187083095Y-56031170D02*
X187130714Y-55935932D01*
X187130714Y-55935932D02*
X187130714Y-55697837D01*
X187130714Y-55697837D02*
X187083095Y-55602599D01*
X187083095Y-55602599D02*
X187035476Y-55554980D01*
X187035476Y-55554980D02*
X186940238Y-55507361D01*
X186940238Y-55507361D02*
X186749762Y-55507361D01*
X186749762Y-55507361D02*
X186654524Y-55554980D01*
X186654524Y-55554980D02*
X186606905Y-55602599D01*
X186606905Y-55602599D02*
X186559286Y-55697837D01*
X51861905Y-35304819D02*
X51861905Y-34304819D01*
X51861905Y-34304819D02*
X52100000Y-34304819D01*
X52100000Y-34304819D02*
X52242857Y-34352438D01*
X52242857Y-34352438D02*
X52338095Y-34447676D01*
X52338095Y-34447676D02*
X52385714Y-34542914D01*
X52385714Y-34542914D02*
X52433333Y-34733390D01*
X52433333Y-34733390D02*
X52433333Y-34876247D01*
X52433333Y-34876247D02*
X52385714Y-35066723D01*
X52385714Y-35066723D02*
X52338095Y-35161961D01*
X52338095Y-35161961D02*
X52242857Y-35257200D01*
X52242857Y-35257200D02*
X52100000Y-35304819D01*
X52100000Y-35304819D02*
X51861905Y-35304819D01*
X53338095Y-34304819D02*
X52861905Y-34304819D01*
X52861905Y-34304819D02*
X52814286Y-34781009D01*
X52814286Y-34781009D02*
X52861905Y-34733390D01*
X52861905Y-34733390D02*
X52957143Y-34685771D01*
X52957143Y-34685771D02*
X53195238Y-34685771D01*
X53195238Y-34685771D02*
X53290476Y-34733390D01*
X53290476Y-34733390D02*
X53338095Y-34781009D01*
X53338095Y-34781009D02*
X53385714Y-34876247D01*
X53385714Y-34876247D02*
X53385714Y-35114342D01*
X53385714Y-35114342D02*
X53338095Y-35209580D01*
X53338095Y-35209580D02*
X53290476Y-35257200D01*
X53290476Y-35257200D02*
X53195238Y-35304819D01*
X53195238Y-35304819D02*
X52957143Y-35304819D01*
X52957143Y-35304819D02*
X52861905Y-35257200D01*
X52861905Y-35257200D02*
X52814286Y-35209580D01*
X154317142Y-108249819D02*
X153983809Y-107773628D01*
X153745714Y-108249819D02*
X153745714Y-107249819D01*
X153745714Y-107249819D02*
X154126666Y-107249819D01*
X154126666Y-107249819D02*
X154221904Y-107297438D01*
X154221904Y-107297438D02*
X154269523Y-107345057D01*
X154269523Y-107345057D02*
X154317142Y-107440295D01*
X154317142Y-107440295D02*
X154317142Y-107583152D01*
X154317142Y-107583152D02*
X154269523Y-107678390D01*
X154269523Y-107678390D02*
X154221904Y-107726009D01*
X154221904Y-107726009D02*
X154126666Y-107773628D01*
X154126666Y-107773628D02*
X153745714Y-107773628D01*
X155269523Y-108249819D02*
X154698095Y-108249819D01*
X154983809Y-108249819D02*
X154983809Y-107249819D01*
X154983809Y-107249819D02*
X154888571Y-107392676D01*
X154888571Y-107392676D02*
X154793333Y-107487914D01*
X154793333Y-107487914D02*
X154698095Y-107535533D01*
X156126666Y-107583152D02*
X156126666Y-108249819D01*
X155888571Y-107202200D02*
X155650476Y-107916485D01*
X155650476Y-107916485D02*
X156269523Y-107916485D01*
X163278333Y-33759819D02*
X162945000Y-33283628D01*
X162706905Y-33759819D02*
X162706905Y-32759819D01*
X162706905Y-32759819D02*
X163087857Y-32759819D01*
X163087857Y-32759819D02*
X163183095Y-32807438D01*
X163183095Y-32807438D02*
X163230714Y-32855057D01*
X163230714Y-32855057D02*
X163278333Y-32950295D01*
X163278333Y-32950295D02*
X163278333Y-33093152D01*
X163278333Y-33093152D02*
X163230714Y-33188390D01*
X163230714Y-33188390D02*
X163183095Y-33236009D01*
X163183095Y-33236009D02*
X163087857Y-33283628D01*
X163087857Y-33283628D02*
X162706905Y-33283628D01*
X163611667Y-32759819D02*
X164278333Y-32759819D01*
X164278333Y-32759819D02*
X163849762Y-33759819D01*
X167107142Y-123969819D02*
X166773809Y-123493628D01*
X166535714Y-123969819D02*
X166535714Y-122969819D01*
X166535714Y-122969819D02*
X166916666Y-122969819D01*
X166916666Y-122969819D02*
X167011904Y-123017438D01*
X167011904Y-123017438D02*
X167059523Y-123065057D01*
X167059523Y-123065057D02*
X167107142Y-123160295D01*
X167107142Y-123160295D02*
X167107142Y-123303152D01*
X167107142Y-123303152D02*
X167059523Y-123398390D01*
X167059523Y-123398390D02*
X167011904Y-123446009D01*
X167011904Y-123446009D02*
X166916666Y-123493628D01*
X166916666Y-123493628D02*
X166535714Y-123493628D01*
X167488095Y-123065057D02*
X167535714Y-123017438D01*
X167535714Y-123017438D02*
X167630952Y-122969819D01*
X167630952Y-122969819D02*
X167869047Y-122969819D01*
X167869047Y-122969819D02*
X167964285Y-123017438D01*
X167964285Y-123017438D02*
X168011904Y-123065057D01*
X168011904Y-123065057D02*
X168059523Y-123160295D01*
X168059523Y-123160295D02*
X168059523Y-123255533D01*
X168059523Y-123255533D02*
X168011904Y-123398390D01*
X168011904Y-123398390D02*
X167440476Y-123969819D01*
X167440476Y-123969819D02*
X168059523Y-123969819D01*
X168964285Y-122969819D02*
X168488095Y-122969819D01*
X168488095Y-122969819D02*
X168440476Y-123446009D01*
X168440476Y-123446009D02*
X168488095Y-123398390D01*
X168488095Y-123398390D02*
X168583333Y-123350771D01*
X168583333Y-123350771D02*
X168821428Y-123350771D01*
X168821428Y-123350771D02*
X168916666Y-123398390D01*
X168916666Y-123398390D02*
X168964285Y-123446009D01*
X168964285Y-123446009D02*
X169011904Y-123541247D01*
X169011904Y-123541247D02*
X169011904Y-123779342D01*
X169011904Y-123779342D02*
X168964285Y-123874580D01*
X168964285Y-123874580D02*
X168916666Y-123922200D01*
X168916666Y-123922200D02*
X168821428Y-123969819D01*
X168821428Y-123969819D02*
X168583333Y-123969819D01*
X168583333Y-123969819D02*
X168488095Y-123922200D01*
X168488095Y-123922200D02*
X168440476Y-123874580D01*
X167107142Y-116859819D02*
X166773809Y-116383628D01*
X166535714Y-116859819D02*
X166535714Y-115859819D01*
X166535714Y-115859819D02*
X166916666Y-115859819D01*
X166916666Y-115859819D02*
X167011904Y-115907438D01*
X167011904Y-115907438D02*
X167059523Y-115955057D01*
X167059523Y-115955057D02*
X167107142Y-116050295D01*
X167107142Y-116050295D02*
X167107142Y-116193152D01*
X167107142Y-116193152D02*
X167059523Y-116288390D01*
X167059523Y-116288390D02*
X167011904Y-116336009D01*
X167011904Y-116336009D02*
X166916666Y-116383628D01*
X166916666Y-116383628D02*
X166535714Y-116383628D01*
X167488095Y-115955057D02*
X167535714Y-115907438D01*
X167535714Y-115907438D02*
X167630952Y-115859819D01*
X167630952Y-115859819D02*
X167869047Y-115859819D01*
X167869047Y-115859819D02*
X167964285Y-115907438D01*
X167964285Y-115907438D02*
X168011904Y-115955057D01*
X168011904Y-115955057D02*
X168059523Y-116050295D01*
X168059523Y-116050295D02*
X168059523Y-116145533D01*
X168059523Y-116145533D02*
X168011904Y-116288390D01*
X168011904Y-116288390D02*
X167440476Y-116859819D01*
X167440476Y-116859819D02*
X168059523Y-116859819D01*
X168392857Y-115859819D02*
X169011904Y-115859819D01*
X169011904Y-115859819D02*
X168678571Y-116240771D01*
X168678571Y-116240771D02*
X168821428Y-116240771D01*
X168821428Y-116240771D02*
X168916666Y-116288390D01*
X168916666Y-116288390D02*
X168964285Y-116336009D01*
X168964285Y-116336009D02*
X169011904Y-116431247D01*
X169011904Y-116431247D02*
X169011904Y-116669342D01*
X169011904Y-116669342D02*
X168964285Y-116764580D01*
X168964285Y-116764580D02*
X168916666Y-116812200D01*
X168916666Y-116812200D02*
X168821428Y-116859819D01*
X168821428Y-116859819D02*
X168535714Y-116859819D01*
X168535714Y-116859819D02*
X168440476Y-116812200D01*
X168440476Y-116812200D02*
X168392857Y-116764580D01*
X140817142Y-108249819D02*
X140483809Y-107773628D01*
X140245714Y-108249819D02*
X140245714Y-107249819D01*
X140245714Y-107249819D02*
X140626666Y-107249819D01*
X140626666Y-107249819D02*
X140721904Y-107297438D01*
X140721904Y-107297438D02*
X140769523Y-107345057D01*
X140769523Y-107345057D02*
X140817142Y-107440295D01*
X140817142Y-107440295D02*
X140817142Y-107583152D01*
X140817142Y-107583152D02*
X140769523Y-107678390D01*
X140769523Y-107678390D02*
X140721904Y-107726009D01*
X140721904Y-107726009D02*
X140626666Y-107773628D01*
X140626666Y-107773628D02*
X140245714Y-107773628D01*
X141769523Y-108249819D02*
X141198095Y-108249819D01*
X141483809Y-108249819D02*
X141483809Y-107249819D01*
X141483809Y-107249819D02*
X141388571Y-107392676D01*
X141388571Y-107392676D02*
X141293333Y-107487914D01*
X141293333Y-107487914D02*
X141198095Y-107535533D01*
X142721904Y-108249819D02*
X142150476Y-108249819D01*
X142436190Y-108249819D02*
X142436190Y-107249819D01*
X142436190Y-107249819D02*
X142340952Y-107392676D01*
X142340952Y-107392676D02*
X142245714Y-107487914D01*
X142245714Y-107487914D02*
X142150476Y-107535533D01*
X254366666Y-27129819D02*
X254033333Y-26653628D01*
X253795238Y-27129819D02*
X253795238Y-26129819D01*
X253795238Y-26129819D02*
X254176190Y-26129819D01*
X254176190Y-26129819D02*
X254271428Y-26177438D01*
X254271428Y-26177438D02*
X254319047Y-26225057D01*
X254319047Y-26225057D02*
X254366666Y-26320295D01*
X254366666Y-26320295D02*
X254366666Y-26463152D01*
X254366666Y-26463152D02*
X254319047Y-26558390D01*
X254319047Y-26558390D02*
X254271428Y-26606009D01*
X254271428Y-26606009D02*
X254176190Y-26653628D01*
X254176190Y-26653628D02*
X253795238Y-26653628D01*
X254795238Y-26606009D02*
X255128571Y-26606009D01*
X255271428Y-27129819D02*
X254795238Y-27129819D01*
X254795238Y-27129819D02*
X254795238Y-26129819D01*
X254795238Y-26129819D02*
X255271428Y-26129819D01*
X256033333Y-26606009D02*
X255700000Y-26606009D01*
X255700000Y-27129819D02*
X255700000Y-26129819D01*
X255700000Y-26129819D02*
X256176190Y-26129819D01*
X256700000Y-26129819D02*
X256700000Y-26367914D01*
X256461905Y-26272676D02*
X256700000Y-26367914D01*
X256700000Y-26367914D02*
X256938095Y-26272676D01*
X256557143Y-26558390D02*
X256700000Y-26367914D01*
X256700000Y-26367914D02*
X256842857Y-26558390D01*
X257461905Y-26129819D02*
X257461905Y-26367914D01*
X257223810Y-26272676D02*
X257461905Y-26367914D01*
X257461905Y-26367914D02*
X257700000Y-26272676D01*
X257319048Y-26558390D02*
X257461905Y-26367914D01*
X257461905Y-26367914D02*
X257604762Y-26558390D01*
X116838333Y-33759819D02*
X116505000Y-33283628D01*
X116266905Y-33759819D02*
X116266905Y-32759819D01*
X116266905Y-32759819D02*
X116647857Y-32759819D01*
X116647857Y-32759819D02*
X116743095Y-32807438D01*
X116743095Y-32807438D02*
X116790714Y-32855057D01*
X116790714Y-32855057D02*
X116838333Y-32950295D01*
X116838333Y-32950295D02*
X116838333Y-33093152D01*
X116838333Y-33093152D02*
X116790714Y-33188390D01*
X116790714Y-33188390D02*
X116743095Y-33236009D01*
X116743095Y-33236009D02*
X116647857Y-33283628D01*
X116647857Y-33283628D02*
X116266905Y-33283628D01*
X117743095Y-32759819D02*
X117266905Y-32759819D01*
X117266905Y-32759819D02*
X117219286Y-33236009D01*
X117219286Y-33236009D02*
X117266905Y-33188390D01*
X117266905Y-33188390D02*
X117362143Y-33140771D01*
X117362143Y-33140771D02*
X117600238Y-33140771D01*
X117600238Y-33140771D02*
X117695476Y-33188390D01*
X117695476Y-33188390D02*
X117743095Y-33236009D01*
X117743095Y-33236009D02*
X117790714Y-33331247D01*
X117790714Y-33331247D02*
X117790714Y-33569342D01*
X117790714Y-33569342D02*
X117743095Y-33664580D01*
X117743095Y-33664580D02*
X117695476Y-33712200D01*
X117695476Y-33712200D02*
X117600238Y-33759819D01*
X117600238Y-33759819D02*
X117362143Y-33759819D01*
X117362143Y-33759819D02*
X117266905Y-33712200D01*
X117266905Y-33712200D02*
X117219286Y-33664580D01*
X140398333Y-33759819D02*
X140065000Y-33283628D01*
X139826905Y-33759819D02*
X139826905Y-32759819D01*
X139826905Y-32759819D02*
X140207857Y-32759819D01*
X140207857Y-32759819D02*
X140303095Y-32807438D01*
X140303095Y-32807438D02*
X140350714Y-32855057D01*
X140350714Y-32855057D02*
X140398333Y-32950295D01*
X140398333Y-32950295D02*
X140398333Y-33093152D01*
X140398333Y-33093152D02*
X140350714Y-33188390D01*
X140350714Y-33188390D02*
X140303095Y-33236009D01*
X140303095Y-33236009D02*
X140207857Y-33283628D01*
X140207857Y-33283628D02*
X139826905Y-33283628D01*
X141255476Y-32759819D02*
X141065000Y-32759819D01*
X141065000Y-32759819D02*
X140969762Y-32807438D01*
X140969762Y-32807438D02*
X140922143Y-32855057D01*
X140922143Y-32855057D02*
X140826905Y-32997914D01*
X140826905Y-32997914D02*
X140779286Y-33188390D01*
X140779286Y-33188390D02*
X140779286Y-33569342D01*
X140779286Y-33569342D02*
X140826905Y-33664580D01*
X140826905Y-33664580D02*
X140874524Y-33712200D01*
X140874524Y-33712200D02*
X140969762Y-33759819D01*
X140969762Y-33759819D02*
X141160238Y-33759819D01*
X141160238Y-33759819D02*
X141255476Y-33712200D01*
X141255476Y-33712200D02*
X141303095Y-33664580D01*
X141303095Y-33664580D02*
X141350714Y-33569342D01*
X141350714Y-33569342D02*
X141350714Y-33331247D01*
X141350714Y-33331247D02*
X141303095Y-33236009D01*
X141303095Y-33236009D02*
X141255476Y-33188390D01*
X141255476Y-33188390D02*
X141160238Y-33140771D01*
X141160238Y-33140771D02*
X140969762Y-33140771D01*
X140969762Y-33140771D02*
X140874524Y-33188390D01*
X140874524Y-33188390D02*
X140826905Y-33236009D01*
X140826905Y-33236009D02*
X140779286Y-33331247D01*
D10*
X221394722Y-53456709D02*
X220124722Y-53456709D01*
X220124722Y-53456709D02*
X221394722Y-52730994D01*
X221394722Y-52730994D02*
X220124722Y-52730994D01*
X220124722Y-51581947D02*
X220124722Y-51823852D01*
X220124722Y-51823852D02*
X220185198Y-51944804D01*
X220185198Y-51944804D02*
X220245674Y-52005280D01*
X220245674Y-52005280D02*
X220427103Y-52126233D01*
X220427103Y-52126233D02*
X220669007Y-52186709D01*
X220669007Y-52186709D02*
X221152817Y-52186709D01*
X221152817Y-52186709D02*
X221273769Y-52126233D01*
X221273769Y-52126233D02*
X221334246Y-52065756D01*
X221334246Y-52065756D02*
X221394722Y-51944804D01*
X221394722Y-51944804D02*
X221394722Y-51702899D01*
X221394722Y-51702899D02*
X221334246Y-51581947D01*
X221334246Y-51581947D02*
X221273769Y-51521471D01*
X221273769Y-51521471D02*
X221152817Y-51460994D01*
X221152817Y-51460994D02*
X220850436Y-51460994D01*
X220850436Y-51460994D02*
X220729484Y-51521471D01*
X220729484Y-51521471D02*
X220669007Y-51581947D01*
X220669007Y-51581947D02*
X220608531Y-51702899D01*
X220608531Y-51702899D02*
X220608531Y-51944804D01*
X220608531Y-51944804D02*
X220669007Y-52065756D01*
X220669007Y-52065756D02*
X220729484Y-52126233D01*
X220729484Y-52126233D02*
X220850436Y-52186709D01*
X207713095Y-46403832D02*
X208438809Y-46403832D01*
X208075952Y-47673832D02*
X208075952Y-46403832D01*
X209043571Y-47673832D02*
X208922619Y-47613356D01*
X208922619Y-47613356D02*
X208862142Y-47552879D01*
X208862142Y-47552879D02*
X208801666Y-47431927D01*
X208801666Y-47431927D02*
X208801666Y-47069070D01*
X208801666Y-47069070D02*
X208862142Y-46948117D01*
X208862142Y-46948117D02*
X208922619Y-46887641D01*
X208922619Y-46887641D02*
X209043571Y-46827165D01*
X209043571Y-46827165D02*
X209225000Y-46827165D01*
X209225000Y-46827165D02*
X209345952Y-46887641D01*
X209345952Y-46887641D02*
X209406428Y-46948117D01*
X209406428Y-46948117D02*
X209466904Y-47069070D01*
X209466904Y-47069070D02*
X209466904Y-47431927D01*
X209466904Y-47431927D02*
X209406428Y-47552879D01*
X209406428Y-47552879D02*
X209345952Y-47613356D01*
X209345952Y-47613356D02*
X209225000Y-47673832D01*
X209225000Y-47673832D02*
X209043571Y-47673832D01*
X210011190Y-46827165D02*
X210011190Y-48097165D01*
X210011190Y-46887641D02*
X210132143Y-46827165D01*
X210132143Y-46827165D02*
X210374048Y-46827165D01*
X210374048Y-46827165D02*
X210495000Y-46887641D01*
X210495000Y-46887641D02*
X210555476Y-46948117D01*
X210555476Y-46948117D02*
X210615952Y-47069070D01*
X210615952Y-47069070D02*
X210615952Y-47431927D01*
X210615952Y-47431927D02*
X210555476Y-47552879D01*
X210555476Y-47552879D02*
X210495000Y-47613356D01*
X210495000Y-47613356D02*
X210374048Y-47673832D01*
X210374048Y-47673832D02*
X210132143Y-47673832D01*
X210132143Y-47673832D02*
X210011190Y-47613356D01*
X208378333Y-57168594D02*
X208559761Y-57229070D01*
X208559761Y-57229070D02*
X208620238Y-57289546D01*
X208620238Y-57289546D02*
X208680714Y-57410498D01*
X208680714Y-57410498D02*
X208680714Y-57591927D01*
X208680714Y-57591927D02*
X208620238Y-57712879D01*
X208620238Y-57712879D02*
X208559761Y-57773356D01*
X208559761Y-57773356D02*
X208438809Y-57833832D01*
X208438809Y-57833832D02*
X207954999Y-57833832D01*
X207954999Y-57833832D02*
X207954999Y-56563832D01*
X207954999Y-56563832D02*
X208378333Y-56563832D01*
X208378333Y-56563832D02*
X208499285Y-56624308D01*
X208499285Y-56624308D02*
X208559761Y-56684784D01*
X208559761Y-56684784D02*
X208620238Y-56805736D01*
X208620238Y-56805736D02*
X208620238Y-56926689D01*
X208620238Y-56926689D02*
X208559761Y-57047641D01*
X208559761Y-57047641D02*
X208499285Y-57108117D01*
X208499285Y-57108117D02*
X208378333Y-57168594D01*
X208378333Y-57168594D02*
X207954999Y-57168594D01*
X209406428Y-57833832D02*
X209285476Y-57773356D01*
X209285476Y-57773356D02*
X209224999Y-57712879D01*
X209224999Y-57712879D02*
X209164523Y-57591927D01*
X209164523Y-57591927D02*
X209164523Y-57229070D01*
X209164523Y-57229070D02*
X209224999Y-57108117D01*
X209224999Y-57108117D02*
X209285476Y-57047641D01*
X209285476Y-57047641D02*
X209406428Y-56987165D01*
X209406428Y-56987165D02*
X209587857Y-56987165D01*
X209587857Y-56987165D02*
X209708809Y-57047641D01*
X209708809Y-57047641D02*
X209769285Y-57108117D01*
X209769285Y-57108117D02*
X209829761Y-57229070D01*
X209829761Y-57229070D02*
X209829761Y-57591927D01*
X209829761Y-57591927D02*
X209769285Y-57712879D01*
X209769285Y-57712879D02*
X209708809Y-57773356D01*
X209708809Y-57773356D02*
X209587857Y-57833832D01*
X209587857Y-57833832D02*
X209406428Y-57833832D01*
X210192619Y-56987165D02*
X210676428Y-56987165D01*
X210374047Y-56563832D02*
X210374047Y-57652403D01*
X210374047Y-57652403D02*
X210434524Y-57773356D01*
X210434524Y-57773356D02*
X210555476Y-57833832D01*
X210555476Y-57833832D02*
X210676428Y-57833832D01*
D12*
X231057380Y-51475908D02*
X231057380Y-52504003D01*
X231057380Y-52504003D02*
X231117857Y-52624955D01*
X231117857Y-52624955D02*
X231178333Y-52685432D01*
X231178333Y-52685432D02*
X231299285Y-52745908D01*
X231299285Y-52745908D02*
X231541190Y-52745908D01*
X231541190Y-52745908D02*
X231662142Y-52685432D01*
X231662142Y-52685432D02*
X231722619Y-52624955D01*
X231722619Y-52624955D02*
X231783095Y-52504003D01*
X231783095Y-52504003D02*
X231783095Y-51475908D01*
X232266904Y-51475908D02*
X233053095Y-51475908D01*
X233053095Y-51475908D02*
X232629761Y-51959717D01*
X232629761Y-51959717D02*
X232811190Y-51959717D01*
X232811190Y-51959717D02*
X232932142Y-52020193D01*
X232932142Y-52020193D02*
X232992618Y-52080670D01*
X232992618Y-52080670D02*
X233053095Y-52201622D01*
X233053095Y-52201622D02*
X233053095Y-52504003D01*
X233053095Y-52504003D02*
X232992618Y-52624955D01*
X232992618Y-52624955D02*
X232932142Y-52685432D01*
X232932142Y-52685432D02*
X232811190Y-52745908D01*
X232811190Y-52745908D02*
X232448333Y-52745908D01*
X232448333Y-52745908D02*
X232327380Y-52685432D01*
X232327380Y-52685432D02*
X232266904Y-52624955D01*
D11*
X154317142Y-120379819D02*
X153983809Y-119903628D01*
X153745714Y-120379819D02*
X153745714Y-119379819D01*
X153745714Y-119379819D02*
X154126666Y-119379819D01*
X154126666Y-119379819D02*
X154221904Y-119427438D01*
X154221904Y-119427438D02*
X154269523Y-119475057D01*
X154269523Y-119475057D02*
X154317142Y-119570295D01*
X154317142Y-119570295D02*
X154317142Y-119713152D01*
X154317142Y-119713152D02*
X154269523Y-119808390D01*
X154269523Y-119808390D02*
X154221904Y-119856009D01*
X154221904Y-119856009D02*
X154126666Y-119903628D01*
X154126666Y-119903628D02*
X153745714Y-119903628D01*
X155269523Y-120379819D02*
X154698095Y-120379819D01*
X154983809Y-120379819D02*
X154983809Y-119379819D01*
X154983809Y-119379819D02*
X154888571Y-119522676D01*
X154888571Y-119522676D02*
X154793333Y-119617914D01*
X154793333Y-119617914D02*
X154698095Y-119665533D01*
X155602857Y-119379819D02*
X156269523Y-119379819D01*
X156269523Y-119379819D02*
X155840952Y-120379819D01*
X186158333Y-33759819D02*
X185825000Y-33283628D01*
X185586905Y-33759819D02*
X185586905Y-32759819D01*
X185586905Y-32759819D02*
X185967857Y-32759819D01*
X185967857Y-32759819D02*
X186063095Y-32807438D01*
X186063095Y-32807438D02*
X186110714Y-32855057D01*
X186110714Y-32855057D02*
X186158333Y-32950295D01*
X186158333Y-32950295D02*
X186158333Y-33093152D01*
X186158333Y-33093152D02*
X186110714Y-33188390D01*
X186110714Y-33188390D02*
X186063095Y-33236009D01*
X186063095Y-33236009D02*
X185967857Y-33283628D01*
X185967857Y-33283628D02*
X185586905Y-33283628D01*
X186729762Y-33188390D02*
X186634524Y-33140771D01*
X186634524Y-33140771D02*
X186586905Y-33093152D01*
X186586905Y-33093152D02*
X186539286Y-32997914D01*
X186539286Y-32997914D02*
X186539286Y-32950295D01*
X186539286Y-32950295D02*
X186586905Y-32855057D01*
X186586905Y-32855057D02*
X186634524Y-32807438D01*
X186634524Y-32807438D02*
X186729762Y-32759819D01*
X186729762Y-32759819D02*
X186920238Y-32759819D01*
X186920238Y-32759819D02*
X187015476Y-32807438D01*
X187015476Y-32807438D02*
X187063095Y-32855057D01*
X187063095Y-32855057D02*
X187110714Y-32950295D01*
X187110714Y-32950295D02*
X187110714Y-32997914D01*
X187110714Y-32997914D02*
X187063095Y-33093152D01*
X187063095Y-33093152D02*
X187015476Y-33140771D01*
X187015476Y-33140771D02*
X186920238Y-33188390D01*
X186920238Y-33188390D02*
X186729762Y-33188390D01*
X186729762Y-33188390D02*
X186634524Y-33236009D01*
X186634524Y-33236009D02*
X186586905Y-33283628D01*
X186586905Y-33283628D02*
X186539286Y-33378866D01*
X186539286Y-33378866D02*
X186539286Y-33569342D01*
X186539286Y-33569342D02*
X186586905Y-33664580D01*
X186586905Y-33664580D02*
X186634524Y-33712200D01*
X186634524Y-33712200D02*
X186729762Y-33759819D01*
X186729762Y-33759819D02*
X186920238Y-33759819D01*
X186920238Y-33759819D02*
X187015476Y-33712200D01*
X187015476Y-33712200D02*
X187063095Y-33664580D01*
X187063095Y-33664580D02*
X187110714Y-33569342D01*
X187110714Y-33569342D02*
X187110714Y-33378866D01*
X187110714Y-33378866D02*
X187063095Y-33283628D01*
X187063095Y-33283628D02*
X187015476Y-33236009D01*
X187015476Y-33236009D02*
X186920238Y-33188390D01*
X154317142Y-123969819D02*
X153983809Y-123493628D01*
X153745714Y-123969819D02*
X153745714Y-122969819D01*
X153745714Y-122969819D02*
X154126666Y-122969819D01*
X154126666Y-122969819D02*
X154221904Y-123017438D01*
X154221904Y-123017438D02*
X154269523Y-123065057D01*
X154269523Y-123065057D02*
X154317142Y-123160295D01*
X154317142Y-123160295D02*
X154317142Y-123303152D01*
X154317142Y-123303152D02*
X154269523Y-123398390D01*
X154269523Y-123398390D02*
X154221904Y-123446009D01*
X154221904Y-123446009D02*
X154126666Y-123493628D01*
X154126666Y-123493628D02*
X153745714Y-123493628D01*
X155269523Y-123969819D02*
X154698095Y-123969819D01*
X154983809Y-123969819D02*
X154983809Y-122969819D01*
X154983809Y-122969819D02*
X154888571Y-123112676D01*
X154888571Y-123112676D02*
X154793333Y-123207914D01*
X154793333Y-123207914D02*
X154698095Y-123255533D01*
X155745714Y-123969819D02*
X155936190Y-123969819D01*
X155936190Y-123969819D02*
X156031428Y-123922200D01*
X156031428Y-123922200D02*
X156079047Y-123874580D01*
X156079047Y-123874580D02*
X156174285Y-123731723D01*
X156174285Y-123731723D02*
X156221904Y-123541247D01*
X156221904Y-123541247D02*
X156221904Y-123160295D01*
X156221904Y-123160295D02*
X156174285Y-123065057D01*
X156174285Y-123065057D02*
X156126666Y-123017438D01*
X156126666Y-123017438D02*
X156031428Y-122969819D01*
X156031428Y-122969819D02*
X155840952Y-122969819D01*
X155840952Y-122969819D02*
X155745714Y-123017438D01*
X155745714Y-123017438D02*
X155698095Y-123065057D01*
X155698095Y-123065057D02*
X155650476Y-123160295D01*
X155650476Y-123160295D02*
X155650476Y-123398390D01*
X155650476Y-123398390D02*
X155698095Y-123493628D01*
X155698095Y-123493628D02*
X155745714Y-123541247D01*
X155745714Y-123541247D02*
X155840952Y-123588866D01*
X155840952Y-123588866D02*
X156031428Y-123588866D01*
X156031428Y-123588866D02*
X156126666Y-123541247D01*
X156126666Y-123541247D02*
X156174285Y-123493628D01*
X156174285Y-123493628D02*
X156221904Y-123398390D01*
D10*
X93313095Y-46403832D02*
X94038809Y-46403832D01*
X93675952Y-47673832D02*
X93675952Y-46403832D01*
X94643571Y-47673832D02*
X94522619Y-47613356D01*
X94522619Y-47613356D02*
X94462142Y-47552879D01*
X94462142Y-47552879D02*
X94401666Y-47431927D01*
X94401666Y-47431927D02*
X94401666Y-47069070D01*
X94401666Y-47069070D02*
X94462142Y-46948117D01*
X94462142Y-46948117D02*
X94522619Y-46887641D01*
X94522619Y-46887641D02*
X94643571Y-46827165D01*
X94643571Y-46827165D02*
X94825000Y-46827165D01*
X94825000Y-46827165D02*
X94945952Y-46887641D01*
X94945952Y-46887641D02*
X95006428Y-46948117D01*
X95006428Y-46948117D02*
X95066904Y-47069070D01*
X95066904Y-47069070D02*
X95066904Y-47431927D01*
X95066904Y-47431927D02*
X95006428Y-47552879D01*
X95006428Y-47552879D02*
X94945952Y-47613356D01*
X94945952Y-47613356D02*
X94825000Y-47673832D01*
X94825000Y-47673832D02*
X94643571Y-47673832D01*
X95611190Y-46827165D02*
X95611190Y-48097165D01*
X95611190Y-46887641D02*
X95732143Y-46827165D01*
X95732143Y-46827165D02*
X95974048Y-46827165D01*
X95974048Y-46827165D02*
X96095000Y-46887641D01*
X96095000Y-46887641D02*
X96155476Y-46948117D01*
X96155476Y-46948117D02*
X96215952Y-47069070D01*
X96215952Y-47069070D02*
X96215952Y-47431927D01*
X96215952Y-47431927D02*
X96155476Y-47552879D01*
X96155476Y-47552879D02*
X96095000Y-47613356D01*
X96095000Y-47613356D02*
X95974048Y-47673832D01*
X95974048Y-47673832D02*
X95732143Y-47673832D01*
X95732143Y-47673832D02*
X95611190Y-47613356D01*
X93978333Y-57168594D02*
X94159761Y-57229070D01*
X94159761Y-57229070D02*
X94220238Y-57289546D01*
X94220238Y-57289546D02*
X94280714Y-57410498D01*
X94280714Y-57410498D02*
X94280714Y-57591927D01*
X94280714Y-57591927D02*
X94220238Y-57712879D01*
X94220238Y-57712879D02*
X94159761Y-57773356D01*
X94159761Y-57773356D02*
X94038809Y-57833832D01*
X94038809Y-57833832D02*
X93554999Y-57833832D01*
X93554999Y-57833832D02*
X93554999Y-56563832D01*
X93554999Y-56563832D02*
X93978333Y-56563832D01*
X93978333Y-56563832D02*
X94099285Y-56624308D01*
X94099285Y-56624308D02*
X94159761Y-56684784D01*
X94159761Y-56684784D02*
X94220238Y-56805736D01*
X94220238Y-56805736D02*
X94220238Y-56926689D01*
X94220238Y-56926689D02*
X94159761Y-57047641D01*
X94159761Y-57047641D02*
X94099285Y-57108117D01*
X94099285Y-57108117D02*
X93978333Y-57168594D01*
X93978333Y-57168594D02*
X93554999Y-57168594D01*
X95006428Y-57833832D02*
X94885476Y-57773356D01*
X94885476Y-57773356D02*
X94824999Y-57712879D01*
X94824999Y-57712879D02*
X94764523Y-57591927D01*
X94764523Y-57591927D02*
X94764523Y-57229070D01*
X94764523Y-57229070D02*
X94824999Y-57108117D01*
X94824999Y-57108117D02*
X94885476Y-57047641D01*
X94885476Y-57047641D02*
X95006428Y-56987165D01*
X95006428Y-56987165D02*
X95187857Y-56987165D01*
X95187857Y-56987165D02*
X95308809Y-57047641D01*
X95308809Y-57047641D02*
X95369285Y-57108117D01*
X95369285Y-57108117D02*
X95429761Y-57229070D01*
X95429761Y-57229070D02*
X95429761Y-57591927D01*
X95429761Y-57591927D02*
X95369285Y-57712879D01*
X95369285Y-57712879D02*
X95308809Y-57773356D01*
X95308809Y-57773356D02*
X95187857Y-57833832D01*
X95187857Y-57833832D02*
X95006428Y-57833832D01*
X95792619Y-56987165D02*
X96276428Y-56987165D01*
X95974047Y-56563832D02*
X95974047Y-57652403D01*
X95974047Y-57652403D02*
X96034524Y-57773356D01*
X96034524Y-57773356D02*
X96155476Y-57833832D01*
X96155476Y-57833832D02*
X96276428Y-57833832D01*
D11*
X166484819Y-97108333D02*
X167199104Y-97108333D01*
X167199104Y-97108333D02*
X167341961Y-97155952D01*
X167341961Y-97155952D02*
X167437200Y-97251190D01*
X167437200Y-97251190D02*
X167484819Y-97394047D01*
X167484819Y-97394047D02*
X167484819Y-97489285D01*
X166484819Y-96727380D02*
X166484819Y-96108333D01*
X166484819Y-96108333D02*
X166865771Y-96441666D01*
X166865771Y-96441666D02*
X166865771Y-96298809D01*
X166865771Y-96298809D02*
X166913390Y-96203571D01*
X166913390Y-96203571D02*
X166961009Y-96155952D01*
X166961009Y-96155952D02*
X167056247Y-96108333D01*
X167056247Y-96108333D02*
X167294342Y-96108333D01*
X167294342Y-96108333D02*
X167389580Y-96155952D01*
X167389580Y-96155952D02*
X167437200Y-96203571D01*
X167437200Y-96203571D02*
X167484819Y-96298809D01*
X167484819Y-96298809D02*
X167484819Y-96584523D01*
X167484819Y-96584523D02*
X167437200Y-96679761D01*
X167437200Y-96679761D02*
X167389580Y-96727380D01*
X59134580Y-54741666D02*
X59182200Y-54789285D01*
X59182200Y-54789285D02*
X59229819Y-54932142D01*
X59229819Y-54932142D02*
X59229819Y-55027380D01*
X59229819Y-55027380D02*
X59182200Y-55170237D01*
X59182200Y-55170237D02*
X59086961Y-55265475D01*
X59086961Y-55265475D02*
X58991723Y-55313094D01*
X58991723Y-55313094D02*
X58801247Y-55360713D01*
X58801247Y-55360713D02*
X58658390Y-55360713D01*
X58658390Y-55360713D02*
X58467914Y-55313094D01*
X58467914Y-55313094D02*
X58372676Y-55265475D01*
X58372676Y-55265475D02*
X58277438Y-55170237D01*
X58277438Y-55170237D02*
X58229819Y-55027380D01*
X58229819Y-55027380D02*
X58229819Y-54932142D01*
X58229819Y-54932142D02*
X58277438Y-54789285D01*
X58277438Y-54789285D02*
X58325057Y-54741666D01*
X58229819Y-53884523D02*
X58229819Y-54074999D01*
X58229819Y-54074999D02*
X58277438Y-54170237D01*
X58277438Y-54170237D02*
X58325057Y-54217856D01*
X58325057Y-54217856D02*
X58467914Y-54313094D01*
X58467914Y-54313094D02*
X58658390Y-54360713D01*
X58658390Y-54360713D02*
X59039342Y-54360713D01*
X59039342Y-54360713D02*
X59134580Y-54313094D01*
X59134580Y-54313094D02*
X59182200Y-54265475D01*
X59182200Y-54265475D02*
X59229819Y-54170237D01*
X59229819Y-54170237D02*
X59229819Y-53979761D01*
X59229819Y-53979761D02*
X59182200Y-53884523D01*
X59182200Y-53884523D02*
X59134580Y-53836904D01*
X59134580Y-53836904D02*
X59039342Y-53789285D01*
X59039342Y-53789285D02*
X58801247Y-53789285D01*
X58801247Y-53789285D02*
X58706009Y-53836904D01*
X58706009Y-53836904D02*
X58658390Y-53884523D01*
X58658390Y-53884523D02*
X58610771Y-53979761D01*
X58610771Y-53979761D02*
X58610771Y-54170237D01*
X58610771Y-54170237D02*
X58658390Y-54265475D01*
X58658390Y-54265475D02*
X58706009Y-54313094D01*
X58706009Y-54313094D02*
X58801247Y-54360713D01*
X243234580Y-53216666D02*
X243282200Y-53264285D01*
X243282200Y-53264285D02*
X243329819Y-53407142D01*
X243329819Y-53407142D02*
X243329819Y-53502380D01*
X243329819Y-53502380D02*
X243282200Y-53645237D01*
X243282200Y-53645237D02*
X243186961Y-53740475D01*
X243186961Y-53740475D02*
X243091723Y-53788094D01*
X243091723Y-53788094D02*
X242901247Y-53835713D01*
X242901247Y-53835713D02*
X242758390Y-53835713D01*
X242758390Y-53835713D02*
X242567914Y-53788094D01*
X242567914Y-53788094D02*
X242472676Y-53740475D01*
X242472676Y-53740475D02*
X242377438Y-53645237D01*
X242377438Y-53645237D02*
X242329819Y-53502380D01*
X242329819Y-53502380D02*
X242329819Y-53407142D01*
X242329819Y-53407142D02*
X242377438Y-53264285D01*
X242377438Y-53264285D02*
X242425057Y-53216666D01*
X243329819Y-52740475D02*
X243329819Y-52549999D01*
X243329819Y-52549999D02*
X243282200Y-52454761D01*
X243282200Y-52454761D02*
X243234580Y-52407142D01*
X243234580Y-52407142D02*
X243091723Y-52311904D01*
X243091723Y-52311904D02*
X242901247Y-52264285D01*
X242901247Y-52264285D02*
X242520295Y-52264285D01*
X242520295Y-52264285D02*
X242425057Y-52311904D01*
X242425057Y-52311904D02*
X242377438Y-52359523D01*
X242377438Y-52359523D02*
X242329819Y-52454761D01*
X242329819Y-52454761D02*
X242329819Y-52645237D01*
X242329819Y-52645237D02*
X242377438Y-52740475D01*
X242377438Y-52740475D02*
X242425057Y-52788094D01*
X242425057Y-52788094D02*
X242520295Y-52835713D01*
X242520295Y-52835713D02*
X242758390Y-52835713D01*
X242758390Y-52835713D02*
X242853628Y-52788094D01*
X242853628Y-52788094D02*
X242901247Y-52740475D01*
X242901247Y-52740475D02*
X242948866Y-52645237D01*
X242948866Y-52645237D02*
X242948866Y-52454761D01*
X242948866Y-52454761D02*
X242901247Y-52359523D01*
X242901247Y-52359523D02*
X242853628Y-52311904D01*
X242853628Y-52311904D02*
X242758390Y-52264285D01*
X226242142Y-38974819D02*
X225908809Y-38498628D01*
X225670714Y-38974819D02*
X225670714Y-37974819D01*
X225670714Y-37974819D02*
X226051666Y-37974819D01*
X226051666Y-37974819D02*
X226146904Y-38022438D01*
X226146904Y-38022438D02*
X226194523Y-38070057D01*
X226194523Y-38070057D02*
X226242142Y-38165295D01*
X226242142Y-38165295D02*
X226242142Y-38308152D01*
X226242142Y-38308152D02*
X226194523Y-38403390D01*
X226194523Y-38403390D02*
X226146904Y-38451009D01*
X226146904Y-38451009D02*
X226051666Y-38498628D01*
X226051666Y-38498628D02*
X225670714Y-38498628D01*
X226623095Y-38070057D02*
X226670714Y-38022438D01*
X226670714Y-38022438D02*
X226765952Y-37974819D01*
X226765952Y-37974819D02*
X227004047Y-37974819D01*
X227004047Y-37974819D02*
X227099285Y-38022438D01*
X227099285Y-38022438D02*
X227146904Y-38070057D01*
X227146904Y-38070057D02*
X227194523Y-38165295D01*
X227194523Y-38165295D02*
X227194523Y-38260533D01*
X227194523Y-38260533D02*
X227146904Y-38403390D01*
X227146904Y-38403390D02*
X226575476Y-38974819D01*
X226575476Y-38974819D02*
X227194523Y-38974819D01*
X228051666Y-37974819D02*
X227861190Y-37974819D01*
X227861190Y-37974819D02*
X227765952Y-38022438D01*
X227765952Y-38022438D02*
X227718333Y-38070057D01*
X227718333Y-38070057D02*
X227623095Y-38212914D01*
X227623095Y-38212914D02*
X227575476Y-38403390D01*
X227575476Y-38403390D02*
X227575476Y-38784342D01*
X227575476Y-38784342D02*
X227623095Y-38879580D01*
X227623095Y-38879580D02*
X227670714Y-38927200D01*
X227670714Y-38927200D02*
X227765952Y-38974819D01*
X227765952Y-38974819D02*
X227956428Y-38974819D01*
X227956428Y-38974819D02*
X228051666Y-38927200D01*
X228051666Y-38927200D02*
X228099285Y-38879580D01*
X228099285Y-38879580D02*
X228146904Y-38784342D01*
X228146904Y-38784342D02*
X228146904Y-38546247D01*
X228146904Y-38546247D02*
X228099285Y-38451009D01*
X228099285Y-38451009D02*
X228051666Y-38403390D01*
X228051666Y-38403390D02*
X227956428Y-38355771D01*
X227956428Y-38355771D02*
X227765952Y-38355771D01*
X227765952Y-38355771D02*
X227670714Y-38403390D01*
X227670714Y-38403390D02*
X227623095Y-38451009D01*
X227623095Y-38451009D02*
X227575476Y-38546247D01*
X141293333Y-116859819D02*
X140960000Y-116383628D01*
X140721905Y-116859819D02*
X140721905Y-115859819D01*
X140721905Y-115859819D02*
X141102857Y-115859819D01*
X141102857Y-115859819D02*
X141198095Y-115907438D01*
X141198095Y-115907438D02*
X141245714Y-115955057D01*
X141245714Y-115955057D02*
X141293333Y-116050295D01*
X141293333Y-116050295D02*
X141293333Y-116193152D01*
X141293333Y-116193152D02*
X141245714Y-116288390D01*
X141245714Y-116288390D02*
X141198095Y-116336009D01*
X141198095Y-116336009D02*
X141102857Y-116383628D01*
X141102857Y-116383628D02*
X140721905Y-116383628D01*
X142245714Y-116859819D02*
X141674286Y-116859819D01*
X141960000Y-116859819D02*
X141960000Y-115859819D01*
X141960000Y-115859819D02*
X141864762Y-116002676D01*
X141864762Y-116002676D02*
X141769524Y-116097914D01*
X141769524Y-116097914D02*
X141674286Y-116145533D01*
X139846905Y-56126409D02*
X139846905Y-55126409D01*
X139846905Y-55126409D02*
X140085000Y-55126409D01*
X140085000Y-55126409D02*
X140227857Y-55174028D01*
X140227857Y-55174028D02*
X140323095Y-55269266D01*
X140323095Y-55269266D02*
X140370714Y-55364504D01*
X140370714Y-55364504D02*
X140418333Y-55554980D01*
X140418333Y-55554980D02*
X140418333Y-55697837D01*
X140418333Y-55697837D02*
X140370714Y-55888313D01*
X140370714Y-55888313D02*
X140323095Y-55983551D01*
X140323095Y-55983551D02*
X140227857Y-56078790D01*
X140227857Y-56078790D02*
X140085000Y-56126409D01*
X140085000Y-56126409D02*
X139846905Y-56126409D01*
X140751667Y-55126409D02*
X141370714Y-55126409D01*
X141370714Y-55126409D02*
X141037381Y-55507361D01*
X141037381Y-55507361D02*
X141180238Y-55507361D01*
X141180238Y-55507361D02*
X141275476Y-55554980D01*
X141275476Y-55554980D02*
X141323095Y-55602599D01*
X141323095Y-55602599D02*
X141370714Y-55697837D01*
X141370714Y-55697837D02*
X141370714Y-55935932D01*
X141370714Y-55935932D02*
X141323095Y-56031170D01*
X141323095Y-56031170D02*
X141275476Y-56078790D01*
X141275476Y-56078790D02*
X141180238Y-56126409D01*
X141180238Y-56126409D02*
X140894524Y-56126409D01*
X140894524Y-56126409D02*
X140799286Y-56078790D01*
X140799286Y-56078790D02*
X140751667Y-56031170D01*
X246484580Y-53216666D02*
X246532200Y-53264285D01*
X246532200Y-53264285D02*
X246579819Y-53407142D01*
X246579819Y-53407142D02*
X246579819Y-53502380D01*
X246579819Y-53502380D02*
X246532200Y-53645237D01*
X246532200Y-53645237D02*
X246436961Y-53740475D01*
X246436961Y-53740475D02*
X246341723Y-53788094D01*
X246341723Y-53788094D02*
X246151247Y-53835713D01*
X246151247Y-53835713D02*
X246008390Y-53835713D01*
X246008390Y-53835713D02*
X245817914Y-53788094D01*
X245817914Y-53788094D02*
X245722676Y-53740475D01*
X245722676Y-53740475D02*
X245627438Y-53645237D01*
X245627438Y-53645237D02*
X245579819Y-53502380D01*
X245579819Y-53502380D02*
X245579819Y-53407142D01*
X245579819Y-53407142D02*
X245627438Y-53264285D01*
X245627438Y-53264285D02*
X245675057Y-53216666D01*
X245579819Y-52883332D02*
X245579819Y-52216666D01*
X245579819Y-52216666D02*
X246579819Y-52645237D01*
D12*
X71057380Y-51475908D02*
X71057380Y-52504003D01*
X71057380Y-52504003D02*
X71117857Y-52624955D01*
X71117857Y-52624955D02*
X71178333Y-52685432D01*
X71178333Y-52685432D02*
X71299285Y-52745908D01*
X71299285Y-52745908D02*
X71541190Y-52745908D01*
X71541190Y-52745908D02*
X71662142Y-52685432D01*
X71662142Y-52685432D02*
X71722619Y-52624955D01*
X71722619Y-52624955D02*
X71783095Y-52504003D01*
X71783095Y-52504003D02*
X71783095Y-51475908D01*
X72327380Y-51596860D02*
X72387856Y-51536384D01*
X72387856Y-51536384D02*
X72508809Y-51475908D01*
X72508809Y-51475908D02*
X72811190Y-51475908D01*
X72811190Y-51475908D02*
X72932142Y-51536384D01*
X72932142Y-51536384D02*
X72992618Y-51596860D01*
X72992618Y-51596860D02*
X73053095Y-51717812D01*
X73053095Y-51717812D02*
X73053095Y-51838765D01*
X73053095Y-51838765D02*
X72992618Y-52020193D01*
X72992618Y-52020193D02*
X72266904Y-52745908D01*
X72266904Y-52745908D02*
X73053095Y-52745908D01*
D10*
X129874722Y-53456709D02*
X128604722Y-53456709D01*
X128604722Y-53456709D02*
X129874722Y-52730994D01*
X129874722Y-52730994D02*
X128604722Y-52730994D01*
X128725674Y-52186709D02*
X128665198Y-52126233D01*
X128665198Y-52126233D02*
X128604722Y-52005280D01*
X128604722Y-52005280D02*
X128604722Y-51702899D01*
X128604722Y-51702899D02*
X128665198Y-51581947D01*
X128665198Y-51581947D02*
X128725674Y-51521471D01*
X128725674Y-51521471D02*
X128846626Y-51460994D01*
X128846626Y-51460994D02*
X128967579Y-51460994D01*
X128967579Y-51460994D02*
X129149007Y-51521471D01*
X129149007Y-51521471D02*
X129874722Y-52247185D01*
X129874722Y-52247185D02*
X129874722Y-51460994D01*
X116193095Y-46403832D02*
X116918809Y-46403832D01*
X116555952Y-47673832D02*
X116555952Y-46403832D01*
X117523571Y-47673832D02*
X117402619Y-47613356D01*
X117402619Y-47613356D02*
X117342142Y-47552879D01*
X117342142Y-47552879D02*
X117281666Y-47431927D01*
X117281666Y-47431927D02*
X117281666Y-47069070D01*
X117281666Y-47069070D02*
X117342142Y-46948117D01*
X117342142Y-46948117D02*
X117402619Y-46887641D01*
X117402619Y-46887641D02*
X117523571Y-46827165D01*
X117523571Y-46827165D02*
X117705000Y-46827165D01*
X117705000Y-46827165D02*
X117825952Y-46887641D01*
X117825952Y-46887641D02*
X117886428Y-46948117D01*
X117886428Y-46948117D02*
X117946904Y-47069070D01*
X117946904Y-47069070D02*
X117946904Y-47431927D01*
X117946904Y-47431927D02*
X117886428Y-47552879D01*
X117886428Y-47552879D02*
X117825952Y-47613356D01*
X117825952Y-47613356D02*
X117705000Y-47673832D01*
X117705000Y-47673832D02*
X117523571Y-47673832D01*
X118491190Y-46827165D02*
X118491190Y-48097165D01*
X118491190Y-46887641D02*
X118612143Y-46827165D01*
X118612143Y-46827165D02*
X118854048Y-46827165D01*
X118854048Y-46827165D02*
X118975000Y-46887641D01*
X118975000Y-46887641D02*
X119035476Y-46948117D01*
X119035476Y-46948117D02*
X119095952Y-47069070D01*
X119095952Y-47069070D02*
X119095952Y-47431927D01*
X119095952Y-47431927D02*
X119035476Y-47552879D01*
X119035476Y-47552879D02*
X118975000Y-47613356D01*
X118975000Y-47613356D02*
X118854048Y-47673832D01*
X118854048Y-47673832D02*
X118612143Y-47673832D01*
X118612143Y-47673832D02*
X118491190Y-47613356D01*
X116858333Y-57168594D02*
X117039761Y-57229070D01*
X117039761Y-57229070D02*
X117100238Y-57289546D01*
X117100238Y-57289546D02*
X117160714Y-57410498D01*
X117160714Y-57410498D02*
X117160714Y-57591927D01*
X117160714Y-57591927D02*
X117100238Y-57712879D01*
X117100238Y-57712879D02*
X117039761Y-57773356D01*
X117039761Y-57773356D02*
X116918809Y-57833832D01*
X116918809Y-57833832D02*
X116434999Y-57833832D01*
X116434999Y-57833832D02*
X116434999Y-56563832D01*
X116434999Y-56563832D02*
X116858333Y-56563832D01*
X116858333Y-56563832D02*
X116979285Y-56624308D01*
X116979285Y-56624308D02*
X117039761Y-56684784D01*
X117039761Y-56684784D02*
X117100238Y-56805736D01*
X117100238Y-56805736D02*
X117100238Y-56926689D01*
X117100238Y-56926689D02*
X117039761Y-57047641D01*
X117039761Y-57047641D02*
X116979285Y-57108117D01*
X116979285Y-57108117D02*
X116858333Y-57168594D01*
X116858333Y-57168594D02*
X116434999Y-57168594D01*
X117886428Y-57833832D02*
X117765476Y-57773356D01*
X117765476Y-57773356D02*
X117704999Y-57712879D01*
X117704999Y-57712879D02*
X117644523Y-57591927D01*
X117644523Y-57591927D02*
X117644523Y-57229070D01*
X117644523Y-57229070D02*
X117704999Y-57108117D01*
X117704999Y-57108117D02*
X117765476Y-57047641D01*
X117765476Y-57047641D02*
X117886428Y-56987165D01*
X117886428Y-56987165D02*
X118067857Y-56987165D01*
X118067857Y-56987165D02*
X118188809Y-57047641D01*
X118188809Y-57047641D02*
X118249285Y-57108117D01*
X118249285Y-57108117D02*
X118309761Y-57229070D01*
X118309761Y-57229070D02*
X118309761Y-57591927D01*
X118309761Y-57591927D02*
X118249285Y-57712879D01*
X118249285Y-57712879D02*
X118188809Y-57773356D01*
X118188809Y-57773356D02*
X118067857Y-57833832D01*
X118067857Y-57833832D02*
X117886428Y-57833832D01*
X118672619Y-56987165D02*
X119156428Y-56987165D01*
X118854047Y-56563832D02*
X118854047Y-57652403D01*
X118854047Y-57652403D02*
X118914524Y-57773356D01*
X118914524Y-57773356D02*
X119035476Y-57833832D01*
X119035476Y-57833832D02*
X119156428Y-57833832D01*
D11*
X167107142Y-120449819D02*
X166773809Y-119973628D01*
X166535714Y-120449819D02*
X166535714Y-119449819D01*
X166535714Y-119449819D02*
X166916666Y-119449819D01*
X166916666Y-119449819D02*
X167011904Y-119497438D01*
X167011904Y-119497438D02*
X167059523Y-119545057D01*
X167059523Y-119545057D02*
X167107142Y-119640295D01*
X167107142Y-119640295D02*
X167107142Y-119783152D01*
X167107142Y-119783152D02*
X167059523Y-119878390D01*
X167059523Y-119878390D02*
X167011904Y-119926009D01*
X167011904Y-119926009D02*
X166916666Y-119973628D01*
X166916666Y-119973628D02*
X166535714Y-119973628D01*
X167488095Y-119545057D02*
X167535714Y-119497438D01*
X167535714Y-119497438D02*
X167630952Y-119449819D01*
X167630952Y-119449819D02*
X167869047Y-119449819D01*
X167869047Y-119449819D02*
X167964285Y-119497438D01*
X167964285Y-119497438D02*
X168011904Y-119545057D01*
X168011904Y-119545057D02*
X168059523Y-119640295D01*
X168059523Y-119640295D02*
X168059523Y-119735533D01*
X168059523Y-119735533D02*
X168011904Y-119878390D01*
X168011904Y-119878390D02*
X167440476Y-120449819D01*
X167440476Y-120449819D02*
X168059523Y-120449819D01*
X168916666Y-119783152D02*
X168916666Y-120449819D01*
X168678571Y-119402200D02*
X168440476Y-120116485D01*
X168440476Y-120116485D02*
X169059523Y-120116485D01*
X94638333Y-33759819D02*
X94305000Y-33283628D01*
X94066905Y-33759819D02*
X94066905Y-32759819D01*
X94066905Y-32759819D02*
X94447857Y-32759819D01*
X94447857Y-32759819D02*
X94543095Y-32807438D01*
X94543095Y-32807438D02*
X94590714Y-32855057D01*
X94590714Y-32855057D02*
X94638333Y-32950295D01*
X94638333Y-32950295D02*
X94638333Y-33093152D01*
X94638333Y-33093152D02*
X94590714Y-33188390D01*
X94590714Y-33188390D02*
X94543095Y-33236009D01*
X94543095Y-33236009D02*
X94447857Y-33283628D01*
X94447857Y-33283628D02*
X94066905Y-33283628D01*
X95495476Y-33093152D02*
X95495476Y-33759819D01*
X95257381Y-32712200D02*
X95019286Y-33426485D01*
X95019286Y-33426485D02*
X95638333Y-33426485D01*
X154317142Y-104659819D02*
X153983809Y-104183628D01*
X153745714Y-104659819D02*
X153745714Y-103659819D01*
X153745714Y-103659819D02*
X154126666Y-103659819D01*
X154126666Y-103659819D02*
X154221904Y-103707438D01*
X154221904Y-103707438D02*
X154269523Y-103755057D01*
X154269523Y-103755057D02*
X154317142Y-103850295D01*
X154317142Y-103850295D02*
X154317142Y-103993152D01*
X154317142Y-103993152D02*
X154269523Y-104088390D01*
X154269523Y-104088390D02*
X154221904Y-104136009D01*
X154221904Y-104136009D02*
X154126666Y-104183628D01*
X154126666Y-104183628D02*
X153745714Y-104183628D01*
X155269523Y-104659819D02*
X154698095Y-104659819D01*
X154983809Y-104659819D02*
X154983809Y-103659819D01*
X154983809Y-103659819D02*
X154888571Y-103802676D01*
X154888571Y-103802676D02*
X154793333Y-103897914D01*
X154793333Y-103897914D02*
X154698095Y-103945533D01*
X155602857Y-103659819D02*
X156221904Y-103659819D01*
X156221904Y-103659819D02*
X155888571Y-104040771D01*
X155888571Y-104040771D02*
X156031428Y-104040771D01*
X156031428Y-104040771D02*
X156126666Y-104088390D01*
X156126666Y-104088390D02*
X156174285Y-104136009D01*
X156174285Y-104136009D02*
X156221904Y-104231247D01*
X156221904Y-104231247D02*
X156221904Y-104469342D01*
X156221904Y-104469342D02*
X156174285Y-104564580D01*
X156174285Y-104564580D02*
X156126666Y-104612200D01*
X156126666Y-104612200D02*
X156031428Y-104659819D01*
X156031428Y-104659819D02*
X155745714Y-104659819D01*
X155745714Y-104659819D02*
X155650476Y-104612200D01*
X155650476Y-104612200D02*
X155602857Y-104564580D01*
X46716666Y-27054819D02*
X46383333Y-26578628D01*
X46145238Y-27054819D02*
X46145238Y-26054819D01*
X46145238Y-26054819D02*
X46526190Y-26054819D01*
X46526190Y-26054819D02*
X46621428Y-26102438D01*
X46621428Y-26102438D02*
X46669047Y-26150057D01*
X46669047Y-26150057D02*
X46716666Y-26245295D01*
X46716666Y-26245295D02*
X46716666Y-26388152D01*
X46716666Y-26388152D02*
X46669047Y-26483390D01*
X46669047Y-26483390D02*
X46621428Y-26531009D01*
X46621428Y-26531009D02*
X46526190Y-26578628D01*
X46526190Y-26578628D02*
X46145238Y-26578628D01*
X47145238Y-26531009D02*
X47478571Y-26531009D01*
X47621428Y-27054819D02*
X47145238Y-27054819D01*
X47145238Y-27054819D02*
X47145238Y-26054819D01*
X47145238Y-26054819D02*
X47621428Y-26054819D01*
X48383333Y-26531009D02*
X48050000Y-26531009D01*
X48050000Y-27054819D02*
X48050000Y-26054819D01*
X48050000Y-26054819D02*
X48526190Y-26054819D01*
X49050000Y-26054819D02*
X49050000Y-26292914D01*
X48811905Y-26197676D02*
X49050000Y-26292914D01*
X49050000Y-26292914D02*
X49288095Y-26197676D01*
X48907143Y-26483390D02*
X49050000Y-26292914D01*
X49050000Y-26292914D02*
X49192857Y-26483390D01*
X49811905Y-26054819D02*
X49811905Y-26292914D01*
X49573810Y-26197676D02*
X49811905Y-26292914D01*
X49811905Y-26292914D02*
X50050000Y-26197676D01*
X49669048Y-26483390D02*
X49811905Y-26292914D01*
X49811905Y-26292914D02*
X49954762Y-26483390D01*
X154317142Y-116859819D02*
X153983809Y-116383628D01*
X153745714Y-116859819D02*
X153745714Y-115859819D01*
X153745714Y-115859819D02*
X154126666Y-115859819D01*
X154126666Y-115859819D02*
X154221904Y-115907438D01*
X154221904Y-115907438D02*
X154269523Y-115955057D01*
X154269523Y-115955057D02*
X154317142Y-116050295D01*
X154317142Y-116050295D02*
X154317142Y-116193152D01*
X154317142Y-116193152D02*
X154269523Y-116288390D01*
X154269523Y-116288390D02*
X154221904Y-116336009D01*
X154221904Y-116336009D02*
X154126666Y-116383628D01*
X154126666Y-116383628D02*
X153745714Y-116383628D01*
X155269523Y-116859819D02*
X154698095Y-116859819D01*
X154983809Y-116859819D02*
X154983809Y-115859819D01*
X154983809Y-115859819D02*
X154888571Y-116002676D01*
X154888571Y-116002676D02*
X154793333Y-116097914D01*
X154793333Y-116097914D02*
X154698095Y-116145533D01*
X156126666Y-115859819D02*
X155936190Y-115859819D01*
X155936190Y-115859819D02*
X155840952Y-115907438D01*
X155840952Y-115907438D02*
X155793333Y-115955057D01*
X155793333Y-115955057D02*
X155698095Y-116097914D01*
X155698095Y-116097914D02*
X155650476Y-116288390D01*
X155650476Y-116288390D02*
X155650476Y-116669342D01*
X155650476Y-116669342D02*
X155698095Y-116764580D01*
X155698095Y-116764580D02*
X155745714Y-116812200D01*
X155745714Y-116812200D02*
X155840952Y-116859819D01*
X155840952Y-116859819D02*
X156031428Y-116859819D01*
X156031428Y-116859819D02*
X156126666Y-116812200D01*
X156126666Y-116812200D02*
X156174285Y-116764580D01*
X156174285Y-116764580D02*
X156221904Y-116669342D01*
X156221904Y-116669342D02*
X156221904Y-116431247D01*
X156221904Y-116431247D02*
X156174285Y-116336009D01*
X156174285Y-116336009D02*
X156126666Y-116288390D01*
X156126666Y-116288390D02*
X156031428Y-116240771D01*
X156031428Y-116240771D02*
X155840952Y-116240771D01*
X155840952Y-116240771D02*
X155745714Y-116288390D01*
X155745714Y-116288390D02*
X155698095Y-116336009D01*
X155698095Y-116336009D02*
X155650476Y-116431247D01*
D10*
X198514722Y-53456709D02*
X197244722Y-53456709D01*
X197244722Y-53456709D02*
X198514722Y-52730994D01*
X198514722Y-52730994D02*
X197244722Y-52730994D01*
X197244722Y-51521471D02*
X197244722Y-52126233D01*
X197244722Y-52126233D02*
X197849484Y-52186709D01*
X197849484Y-52186709D02*
X197789007Y-52126233D01*
X197789007Y-52126233D02*
X197728531Y-52005280D01*
X197728531Y-52005280D02*
X197728531Y-51702899D01*
X197728531Y-51702899D02*
X197789007Y-51581947D01*
X197789007Y-51581947D02*
X197849484Y-51521471D01*
X197849484Y-51521471D02*
X197970436Y-51460994D01*
X197970436Y-51460994D02*
X198272817Y-51460994D01*
X198272817Y-51460994D02*
X198393769Y-51521471D01*
X198393769Y-51521471D02*
X198454246Y-51581947D01*
X198454246Y-51581947D02*
X198514722Y-51702899D01*
X198514722Y-51702899D02*
X198514722Y-52005280D01*
X198514722Y-52005280D02*
X198454246Y-52126233D01*
X198454246Y-52126233D02*
X198393769Y-52186709D01*
X184833095Y-46403832D02*
X185558809Y-46403832D01*
X185195952Y-47673832D02*
X185195952Y-46403832D01*
X186163571Y-47673832D02*
X186042619Y-47613356D01*
X186042619Y-47613356D02*
X185982142Y-47552879D01*
X185982142Y-47552879D02*
X185921666Y-47431927D01*
X185921666Y-47431927D02*
X185921666Y-47069070D01*
X185921666Y-47069070D02*
X185982142Y-46948117D01*
X185982142Y-46948117D02*
X186042619Y-46887641D01*
X186042619Y-46887641D02*
X186163571Y-46827165D01*
X186163571Y-46827165D02*
X186345000Y-46827165D01*
X186345000Y-46827165D02*
X186465952Y-46887641D01*
X186465952Y-46887641D02*
X186526428Y-46948117D01*
X186526428Y-46948117D02*
X186586904Y-47069070D01*
X186586904Y-47069070D02*
X186586904Y-47431927D01*
X186586904Y-47431927D02*
X186526428Y-47552879D01*
X186526428Y-47552879D02*
X186465952Y-47613356D01*
X186465952Y-47613356D02*
X186345000Y-47673832D01*
X186345000Y-47673832D02*
X186163571Y-47673832D01*
X187131190Y-46827165D02*
X187131190Y-48097165D01*
X187131190Y-46887641D02*
X187252143Y-46827165D01*
X187252143Y-46827165D02*
X187494048Y-46827165D01*
X187494048Y-46827165D02*
X187615000Y-46887641D01*
X187615000Y-46887641D02*
X187675476Y-46948117D01*
X187675476Y-46948117D02*
X187735952Y-47069070D01*
X187735952Y-47069070D02*
X187735952Y-47431927D01*
X187735952Y-47431927D02*
X187675476Y-47552879D01*
X187675476Y-47552879D02*
X187615000Y-47613356D01*
X187615000Y-47613356D02*
X187494048Y-47673832D01*
X187494048Y-47673832D02*
X187252143Y-47673832D01*
X187252143Y-47673832D02*
X187131190Y-47613356D01*
X185498333Y-57168594D02*
X185679761Y-57229070D01*
X185679761Y-57229070D02*
X185740238Y-57289546D01*
X185740238Y-57289546D02*
X185800714Y-57410498D01*
X185800714Y-57410498D02*
X185800714Y-57591927D01*
X185800714Y-57591927D02*
X185740238Y-57712879D01*
X185740238Y-57712879D02*
X185679761Y-57773356D01*
X185679761Y-57773356D02*
X185558809Y-57833832D01*
X185558809Y-57833832D02*
X185074999Y-57833832D01*
X185074999Y-57833832D02*
X185074999Y-56563832D01*
X185074999Y-56563832D02*
X185498333Y-56563832D01*
X185498333Y-56563832D02*
X185619285Y-56624308D01*
X185619285Y-56624308D02*
X185679761Y-56684784D01*
X185679761Y-56684784D02*
X185740238Y-56805736D01*
X185740238Y-56805736D02*
X185740238Y-56926689D01*
X185740238Y-56926689D02*
X185679761Y-57047641D01*
X185679761Y-57047641D02*
X185619285Y-57108117D01*
X185619285Y-57108117D02*
X185498333Y-57168594D01*
X185498333Y-57168594D02*
X185074999Y-57168594D01*
X186526428Y-57833832D02*
X186405476Y-57773356D01*
X186405476Y-57773356D02*
X186344999Y-57712879D01*
X186344999Y-57712879D02*
X186284523Y-57591927D01*
X186284523Y-57591927D02*
X186284523Y-57229070D01*
X186284523Y-57229070D02*
X186344999Y-57108117D01*
X186344999Y-57108117D02*
X186405476Y-57047641D01*
X186405476Y-57047641D02*
X186526428Y-56987165D01*
X186526428Y-56987165D02*
X186707857Y-56987165D01*
X186707857Y-56987165D02*
X186828809Y-57047641D01*
X186828809Y-57047641D02*
X186889285Y-57108117D01*
X186889285Y-57108117D02*
X186949761Y-57229070D01*
X186949761Y-57229070D02*
X186949761Y-57591927D01*
X186949761Y-57591927D02*
X186889285Y-57712879D01*
X186889285Y-57712879D02*
X186828809Y-57773356D01*
X186828809Y-57773356D02*
X186707857Y-57833832D01*
X186707857Y-57833832D02*
X186526428Y-57833832D01*
X187312619Y-56987165D02*
X187796428Y-56987165D01*
X187494047Y-56563832D02*
X187494047Y-57652403D01*
X187494047Y-57652403D02*
X187554524Y-57773356D01*
X187554524Y-57773356D02*
X187675476Y-57833832D01*
X187675476Y-57833832D02*
X187796428Y-57833832D01*
D11*
X208486905Y-56126409D02*
X208486905Y-55126409D01*
X208486905Y-55126409D02*
X208725000Y-55126409D01*
X208725000Y-55126409D02*
X208867857Y-55174028D01*
X208867857Y-55174028D02*
X208963095Y-55269266D01*
X208963095Y-55269266D02*
X209010714Y-55364504D01*
X209010714Y-55364504D02*
X209058333Y-55554980D01*
X209058333Y-55554980D02*
X209058333Y-55697837D01*
X209058333Y-55697837D02*
X209010714Y-55888313D01*
X209010714Y-55888313D02*
X208963095Y-55983551D01*
X208963095Y-55983551D02*
X208867857Y-56078790D01*
X208867857Y-56078790D02*
X208725000Y-56126409D01*
X208725000Y-56126409D02*
X208486905Y-56126409D01*
X209391667Y-55126409D02*
X210058333Y-55126409D01*
X210058333Y-55126409D02*
X209629762Y-56126409D01*
X154317142Y-111769819D02*
X153983809Y-111293628D01*
X153745714Y-111769819D02*
X153745714Y-110769819D01*
X153745714Y-110769819D02*
X154126666Y-110769819D01*
X154126666Y-110769819D02*
X154221904Y-110817438D01*
X154221904Y-110817438D02*
X154269523Y-110865057D01*
X154269523Y-110865057D02*
X154317142Y-110960295D01*
X154317142Y-110960295D02*
X154317142Y-111103152D01*
X154317142Y-111103152D02*
X154269523Y-111198390D01*
X154269523Y-111198390D02*
X154221904Y-111246009D01*
X154221904Y-111246009D02*
X154126666Y-111293628D01*
X154126666Y-111293628D02*
X153745714Y-111293628D01*
X155269523Y-111769819D02*
X154698095Y-111769819D01*
X154983809Y-111769819D02*
X154983809Y-110769819D01*
X154983809Y-110769819D02*
X154888571Y-110912676D01*
X154888571Y-110912676D02*
X154793333Y-111007914D01*
X154793333Y-111007914D02*
X154698095Y-111055533D01*
X156174285Y-110769819D02*
X155698095Y-110769819D01*
X155698095Y-110769819D02*
X155650476Y-111246009D01*
X155650476Y-111246009D02*
X155698095Y-111198390D01*
X155698095Y-111198390D02*
X155793333Y-111150771D01*
X155793333Y-111150771D02*
X156031428Y-111150771D01*
X156031428Y-111150771D02*
X156126666Y-111198390D01*
X156126666Y-111198390D02*
X156174285Y-111246009D01*
X156174285Y-111246009D02*
X156221904Y-111341247D01*
X156221904Y-111341247D02*
X156221904Y-111579342D01*
X156221904Y-111579342D02*
X156174285Y-111674580D01*
X156174285Y-111674580D02*
X156126666Y-111722200D01*
X156126666Y-111722200D02*
X156031428Y-111769819D01*
X156031428Y-111769819D02*
X155793333Y-111769819D01*
X155793333Y-111769819D02*
X155698095Y-111722200D01*
X155698095Y-111722200D02*
X155650476Y-111674580D01*
X116966905Y-56126409D02*
X116966905Y-55126409D01*
X116966905Y-55126409D02*
X117205000Y-55126409D01*
X117205000Y-55126409D02*
X117347857Y-55174028D01*
X117347857Y-55174028D02*
X117443095Y-55269266D01*
X117443095Y-55269266D02*
X117490714Y-55364504D01*
X117490714Y-55364504D02*
X117538333Y-55554980D01*
X117538333Y-55554980D02*
X117538333Y-55697837D01*
X117538333Y-55697837D02*
X117490714Y-55888313D01*
X117490714Y-55888313D02*
X117443095Y-55983551D01*
X117443095Y-55983551D02*
X117347857Y-56078790D01*
X117347857Y-56078790D02*
X117205000Y-56126409D01*
X117205000Y-56126409D02*
X116966905Y-56126409D01*
X117919286Y-55221647D02*
X117966905Y-55174028D01*
X117966905Y-55174028D02*
X118062143Y-55126409D01*
X118062143Y-55126409D02*
X118300238Y-55126409D01*
X118300238Y-55126409D02*
X118395476Y-55174028D01*
X118395476Y-55174028D02*
X118443095Y-55221647D01*
X118443095Y-55221647D02*
X118490714Y-55316885D01*
X118490714Y-55316885D02*
X118490714Y-55412123D01*
X118490714Y-55412123D02*
X118443095Y-55554980D01*
X118443095Y-55554980D02*
X117871667Y-56126409D01*
X117871667Y-56126409D02*
X118490714Y-56126409D01*
X167107142Y-111769819D02*
X166773809Y-111293628D01*
X166535714Y-111769819D02*
X166535714Y-110769819D01*
X166535714Y-110769819D02*
X166916666Y-110769819D01*
X166916666Y-110769819D02*
X167011904Y-110817438D01*
X167011904Y-110817438D02*
X167059523Y-110865057D01*
X167059523Y-110865057D02*
X167107142Y-110960295D01*
X167107142Y-110960295D02*
X167107142Y-111103152D01*
X167107142Y-111103152D02*
X167059523Y-111198390D01*
X167059523Y-111198390D02*
X167011904Y-111246009D01*
X167011904Y-111246009D02*
X166916666Y-111293628D01*
X166916666Y-111293628D02*
X166535714Y-111293628D01*
X167488095Y-110865057D02*
X167535714Y-110817438D01*
X167535714Y-110817438D02*
X167630952Y-110769819D01*
X167630952Y-110769819D02*
X167869047Y-110769819D01*
X167869047Y-110769819D02*
X167964285Y-110817438D01*
X167964285Y-110817438D02*
X168011904Y-110865057D01*
X168011904Y-110865057D02*
X168059523Y-110960295D01*
X168059523Y-110960295D02*
X168059523Y-111055533D01*
X168059523Y-111055533D02*
X168011904Y-111198390D01*
X168011904Y-111198390D02*
X167440476Y-111769819D01*
X167440476Y-111769819D02*
X168059523Y-111769819D01*
X168440476Y-110865057D02*
X168488095Y-110817438D01*
X168488095Y-110817438D02*
X168583333Y-110769819D01*
X168583333Y-110769819D02*
X168821428Y-110769819D01*
X168821428Y-110769819D02*
X168916666Y-110817438D01*
X168916666Y-110817438D02*
X168964285Y-110865057D01*
X168964285Y-110865057D02*
X169011904Y-110960295D01*
X169011904Y-110960295D02*
X169011904Y-111055533D01*
X169011904Y-111055533D02*
X168964285Y-111198390D01*
X168964285Y-111198390D02*
X168392857Y-111769819D01*
X168392857Y-111769819D02*
X169011904Y-111769819D01*
X241388095Y-63129819D02*
X241388095Y-63939342D01*
X241388095Y-63939342D02*
X241435714Y-64034580D01*
X241435714Y-64034580D02*
X241483333Y-64082200D01*
X241483333Y-64082200D02*
X241578571Y-64129819D01*
X241578571Y-64129819D02*
X241769047Y-64129819D01*
X241769047Y-64129819D02*
X241864285Y-64082200D01*
X241864285Y-64082200D02*
X241911904Y-64034580D01*
X241911904Y-64034580D02*
X241959523Y-63939342D01*
X241959523Y-63939342D02*
X241959523Y-63129819D01*
X242959523Y-64129819D02*
X242388095Y-64129819D01*
X242673809Y-64129819D02*
X242673809Y-63129819D01*
X242673809Y-63129819D02*
X242578571Y-63272676D01*
X242578571Y-63272676D02*
X242483333Y-63367914D01*
X242483333Y-63367914D02*
X242388095Y-63415533D01*
X141293333Y-123969819D02*
X140960000Y-123493628D01*
X140721905Y-123969819D02*
X140721905Y-122969819D01*
X140721905Y-122969819D02*
X141102857Y-122969819D01*
X141102857Y-122969819D02*
X141198095Y-123017438D01*
X141198095Y-123017438D02*
X141245714Y-123065057D01*
X141245714Y-123065057D02*
X141293333Y-123160295D01*
X141293333Y-123160295D02*
X141293333Y-123303152D01*
X141293333Y-123303152D02*
X141245714Y-123398390D01*
X141245714Y-123398390D02*
X141198095Y-123446009D01*
X141198095Y-123446009D02*
X141102857Y-123493628D01*
X141102857Y-123493628D02*
X140721905Y-123493628D01*
X141626667Y-122969819D02*
X142245714Y-122969819D01*
X142245714Y-122969819D02*
X141912381Y-123350771D01*
X141912381Y-123350771D02*
X142055238Y-123350771D01*
X142055238Y-123350771D02*
X142150476Y-123398390D01*
X142150476Y-123398390D02*
X142198095Y-123446009D01*
X142198095Y-123446009D02*
X142245714Y-123541247D01*
X142245714Y-123541247D02*
X142245714Y-123779342D01*
X142245714Y-123779342D02*
X142198095Y-123874580D01*
X142198095Y-123874580D02*
X142150476Y-123922200D01*
X142150476Y-123922200D02*
X142055238Y-123969819D01*
X142055238Y-123969819D02*
X141769524Y-123969819D01*
X141769524Y-123969819D02*
X141674286Y-123922200D01*
X141674286Y-123922200D02*
X141626667Y-123874580D01*
X94086905Y-56126409D02*
X94086905Y-55126409D01*
X94086905Y-55126409D02*
X94325000Y-55126409D01*
X94325000Y-55126409D02*
X94467857Y-55174028D01*
X94467857Y-55174028D02*
X94563095Y-55269266D01*
X94563095Y-55269266D02*
X94610714Y-55364504D01*
X94610714Y-55364504D02*
X94658333Y-55554980D01*
X94658333Y-55554980D02*
X94658333Y-55697837D01*
X94658333Y-55697837D02*
X94610714Y-55888313D01*
X94610714Y-55888313D02*
X94563095Y-55983551D01*
X94563095Y-55983551D02*
X94467857Y-56078790D01*
X94467857Y-56078790D02*
X94325000Y-56126409D01*
X94325000Y-56126409D02*
X94086905Y-56126409D01*
X95610714Y-56126409D02*
X95039286Y-56126409D01*
X95325000Y-56126409D02*
X95325000Y-55126409D01*
X95325000Y-55126409D02*
X95229762Y-55269266D01*
X95229762Y-55269266D02*
X95134524Y-55364504D01*
X95134524Y-55364504D02*
X95039286Y-55412123D01*
X167107142Y-104659819D02*
X166773809Y-104183628D01*
X166535714Y-104659819D02*
X166535714Y-103659819D01*
X166535714Y-103659819D02*
X166916666Y-103659819D01*
X166916666Y-103659819D02*
X167011904Y-103707438D01*
X167011904Y-103707438D02*
X167059523Y-103755057D01*
X167059523Y-103755057D02*
X167107142Y-103850295D01*
X167107142Y-103850295D02*
X167107142Y-103993152D01*
X167107142Y-103993152D02*
X167059523Y-104088390D01*
X167059523Y-104088390D02*
X167011904Y-104136009D01*
X167011904Y-104136009D02*
X166916666Y-104183628D01*
X166916666Y-104183628D02*
X166535714Y-104183628D01*
X167488095Y-103755057D02*
X167535714Y-103707438D01*
X167535714Y-103707438D02*
X167630952Y-103659819D01*
X167630952Y-103659819D02*
X167869047Y-103659819D01*
X167869047Y-103659819D02*
X167964285Y-103707438D01*
X167964285Y-103707438D02*
X168011904Y-103755057D01*
X168011904Y-103755057D02*
X168059523Y-103850295D01*
X168059523Y-103850295D02*
X168059523Y-103945533D01*
X168059523Y-103945533D02*
X168011904Y-104088390D01*
X168011904Y-104088390D02*
X167440476Y-104659819D01*
X167440476Y-104659819D02*
X168059523Y-104659819D01*
X168678571Y-103659819D02*
X168773809Y-103659819D01*
X168773809Y-103659819D02*
X168869047Y-103707438D01*
X168869047Y-103707438D02*
X168916666Y-103755057D01*
X168916666Y-103755057D02*
X168964285Y-103850295D01*
X168964285Y-103850295D02*
X169011904Y-104040771D01*
X169011904Y-104040771D02*
X169011904Y-104278866D01*
X169011904Y-104278866D02*
X168964285Y-104469342D01*
X168964285Y-104469342D02*
X168916666Y-104564580D01*
X168916666Y-104564580D02*
X168869047Y-104612200D01*
X168869047Y-104612200D02*
X168773809Y-104659819D01*
X168773809Y-104659819D02*
X168678571Y-104659819D01*
X168678571Y-104659819D02*
X168583333Y-104612200D01*
X168583333Y-104612200D02*
X168535714Y-104564580D01*
X168535714Y-104564580D02*
X168488095Y-104469342D01*
X168488095Y-104469342D02*
X168440476Y-104278866D01*
X168440476Y-104278866D02*
X168440476Y-104040771D01*
X168440476Y-104040771D02*
X168488095Y-103850295D01*
X168488095Y-103850295D02*
X168535714Y-103755057D01*
X168535714Y-103755057D02*
X168583333Y-103707438D01*
X168583333Y-103707438D02*
X168678571Y-103659819D01*
X129834819Y-131383333D02*
X130549104Y-131383333D01*
X130549104Y-131383333D02*
X130691961Y-131430952D01*
X130691961Y-131430952D02*
X130787200Y-131526190D01*
X130787200Y-131526190D02*
X130834819Y-131669047D01*
X130834819Y-131669047D02*
X130834819Y-131764285D01*
X130834819Y-130383333D02*
X130834819Y-130954761D01*
X130834819Y-130669047D02*
X129834819Y-130669047D01*
X129834819Y-130669047D02*
X129977676Y-130764285D01*
X129977676Y-130764285D02*
X130072914Y-130859523D01*
X130072914Y-130859523D02*
X130120533Y-130954761D01*
X62559580Y-54741666D02*
X62607200Y-54789285D01*
X62607200Y-54789285D02*
X62654819Y-54932142D01*
X62654819Y-54932142D02*
X62654819Y-55027380D01*
X62654819Y-55027380D02*
X62607200Y-55170237D01*
X62607200Y-55170237D02*
X62511961Y-55265475D01*
X62511961Y-55265475D02*
X62416723Y-55313094D01*
X62416723Y-55313094D02*
X62226247Y-55360713D01*
X62226247Y-55360713D02*
X62083390Y-55360713D01*
X62083390Y-55360713D02*
X61892914Y-55313094D01*
X61892914Y-55313094D02*
X61797676Y-55265475D01*
X61797676Y-55265475D02*
X61702438Y-55170237D01*
X61702438Y-55170237D02*
X61654819Y-55027380D01*
X61654819Y-55027380D02*
X61654819Y-54932142D01*
X61654819Y-54932142D02*
X61702438Y-54789285D01*
X61702438Y-54789285D02*
X61750057Y-54741666D01*
X62083390Y-54170237D02*
X62035771Y-54265475D01*
X62035771Y-54265475D02*
X61988152Y-54313094D01*
X61988152Y-54313094D02*
X61892914Y-54360713D01*
X61892914Y-54360713D02*
X61845295Y-54360713D01*
X61845295Y-54360713D02*
X61750057Y-54313094D01*
X61750057Y-54313094D02*
X61702438Y-54265475D01*
X61702438Y-54265475D02*
X61654819Y-54170237D01*
X61654819Y-54170237D02*
X61654819Y-53979761D01*
X61654819Y-53979761D02*
X61702438Y-53884523D01*
X61702438Y-53884523D02*
X61750057Y-53836904D01*
X61750057Y-53836904D02*
X61845295Y-53789285D01*
X61845295Y-53789285D02*
X61892914Y-53789285D01*
X61892914Y-53789285D02*
X61988152Y-53836904D01*
X61988152Y-53836904D02*
X62035771Y-53884523D01*
X62035771Y-53884523D02*
X62083390Y-53979761D01*
X62083390Y-53979761D02*
X62083390Y-54170237D01*
X62083390Y-54170237D02*
X62131009Y-54265475D01*
X62131009Y-54265475D02*
X62178628Y-54313094D01*
X62178628Y-54313094D02*
X62273866Y-54360713D01*
X62273866Y-54360713D02*
X62464342Y-54360713D01*
X62464342Y-54360713D02*
X62559580Y-54313094D01*
X62559580Y-54313094D02*
X62607200Y-54265475D01*
X62607200Y-54265475D02*
X62654819Y-54170237D01*
X62654819Y-54170237D02*
X62654819Y-53979761D01*
X62654819Y-53979761D02*
X62607200Y-53884523D01*
X62607200Y-53884523D02*
X62559580Y-53836904D01*
X62559580Y-53836904D02*
X62464342Y-53789285D01*
X62464342Y-53789285D02*
X62273866Y-53789285D01*
X62273866Y-53789285D02*
X62178628Y-53836904D01*
X62178628Y-53836904D02*
X62131009Y-53884523D01*
X62131009Y-53884523D02*
X62083390Y-53979761D01*
X209038333Y-33759819D02*
X208705000Y-33283628D01*
X208466905Y-33759819D02*
X208466905Y-32759819D01*
X208466905Y-32759819D02*
X208847857Y-32759819D01*
X208847857Y-32759819D02*
X208943095Y-32807438D01*
X208943095Y-32807438D02*
X208990714Y-32855057D01*
X208990714Y-32855057D02*
X209038333Y-32950295D01*
X209038333Y-32950295D02*
X209038333Y-33093152D01*
X209038333Y-33093152D02*
X208990714Y-33188390D01*
X208990714Y-33188390D02*
X208943095Y-33236009D01*
X208943095Y-33236009D02*
X208847857Y-33283628D01*
X208847857Y-33283628D02*
X208466905Y-33283628D01*
X209514524Y-33759819D02*
X209705000Y-33759819D01*
X209705000Y-33759819D02*
X209800238Y-33712200D01*
X209800238Y-33712200D02*
X209847857Y-33664580D01*
X209847857Y-33664580D02*
X209943095Y-33521723D01*
X209943095Y-33521723D02*
X209990714Y-33331247D01*
X209990714Y-33331247D02*
X209990714Y-32950295D01*
X209990714Y-32950295D02*
X209943095Y-32855057D01*
X209943095Y-32855057D02*
X209895476Y-32807438D01*
X209895476Y-32807438D02*
X209800238Y-32759819D01*
X209800238Y-32759819D02*
X209609762Y-32759819D01*
X209609762Y-32759819D02*
X209514524Y-32807438D01*
X209514524Y-32807438D02*
X209466905Y-32855057D01*
X209466905Y-32855057D02*
X209419286Y-32950295D01*
X209419286Y-32950295D02*
X209419286Y-33188390D01*
X209419286Y-33188390D02*
X209466905Y-33283628D01*
X209466905Y-33283628D02*
X209514524Y-33331247D01*
X209514524Y-33331247D02*
X209609762Y-33378866D01*
X209609762Y-33378866D02*
X209800238Y-33378866D01*
X209800238Y-33378866D02*
X209895476Y-33331247D01*
X209895476Y-33331247D02*
X209943095Y-33283628D01*
X209943095Y-33283628D02*
X209990714Y-33188390D01*
X59557142Y-38709819D02*
X59223809Y-38233628D01*
X58985714Y-38709819D02*
X58985714Y-37709819D01*
X58985714Y-37709819D02*
X59366666Y-37709819D01*
X59366666Y-37709819D02*
X59461904Y-37757438D01*
X59461904Y-37757438D02*
X59509523Y-37805057D01*
X59509523Y-37805057D02*
X59557142Y-37900295D01*
X59557142Y-37900295D02*
X59557142Y-38043152D01*
X59557142Y-38043152D02*
X59509523Y-38138390D01*
X59509523Y-38138390D02*
X59461904Y-38186009D01*
X59461904Y-38186009D02*
X59366666Y-38233628D01*
X59366666Y-38233628D02*
X58985714Y-38233628D01*
X60509523Y-38709819D02*
X59938095Y-38709819D01*
X60223809Y-38709819D02*
X60223809Y-37709819D01*
X60223809Y-37709819D02*
X60128571Y-37852676D01*
X60128571Y-37852676D02*
X60033333Y-37947914D01*
X60033333Y-37947914D02*
X59938095Y-37995533D01*
X61080952Y-38138390D02*
X60985714Y-38090771D01*
X60985714Y-38090771D02*
X60938095Y-38043152D01*
X60938095Y-38043152D02*
X60890476Y-37947914D01*
X60890476Y-37947914D02*
X60890476Y-37900295D01*
X60890476Y-37900295D02*
X60938095Y-37805057D01*
X60938095Y-37805057D02*
X60985714Y-37757438D01*
X60985714Y-37757438D02*
X61080952Y-37709819D01*
X61080952Y-37709819D02*
X61271428Y-37709819D01*
X61271428Y-37709819D02*
X61366666Y-37757438D01*
X61366666Y-37757438D02*
X61414285Y-37805057D01*
X61414285Y-37805057D02*
X61461904Y-37900295D01*
X61461904Y-37900295D02*
X61461904Y-37947914D01*
X61461904Y-37947914D02*
X61414285Y-38043152D01*
X61414285Y-38043152D02*
X61366666Y-38090771D01*
X61366666Y-38090771D02*
X61271428Y-38138390D01*
X61271428Y-38138390D02*
X61080952Y-38138390D01*
X61080952Y-38138390D02*
X60985714Y-38186009D01*
X60985714Y-38186009D02*
X60938095Y-38233628D01*
X60938095Y-38233628D02*
X60890476Y-38328866D01*
X60890476Y-38328866D02*
X60890476Y-38519342D01*
X60890476Y-38519342D02*
X60938095Y-38614580D01*
X60938095Y-38614580D02*
X60985714Y-38662200D01*
X60985714Y-38662200D02*
X61080952Y-38709819D01*
X61080952Y-38709819D02*
X61271428Y-38709819D01*
X61271428Y-38709819D02*
X61366666Y-38662200D01*
X61366666Y-38662200D02*
X61414285Y-38614580D01*
X61414285Y-38614580D02*
X61461904Y-38519342D01*
X61461904Y-38519342D02*
X61461904Y-38328866D01*
X61461904Y-38328866D02*
X61414285Y-38233628D01*
X61414285Y-38233628D02*
X61366666Y-38186009D01*
X61366666Y-38186009D02*
X61271428Y-38138390D01*
X127639819Y-70058333D02*
X128354104Y-70058333D01*
X128354104Y-70058333D02*
X128496961Y-70105952D01*
X128496961Y-70105952D02*
X128592200Y-70201190D01*
X128592200Y-70201190D02*
X128639819Y-70344047D01*
X128639819Y-70344047D02*
X128639819Y-70439285D01*
X127735057Y-69629761D02*
X127687438Y-69582142D01*
X127687438Y-69582142D02*
X127639819Y-69486904D01*
X127639819Y-69486904D02*
X127639819Y-69248809D01*
X127639819Y-69248809D02*
X127687438Y-69153571D01*
X127687438Y-69153571D02*
X127735057Y-69105952D01*
X127735057Y-69105952D02*
X127830295Y-69058333D01*
X127830295Y-69058333D02*
X127925533Y-69058333D01*
X127925533Y-69058333D02*
X128068390Y-69105952D01*
X128068390Y-69105952D02*
X128639819Y-69677380D01*
X128639819Y-69677380D02*
X128639819Y-69058333D01*
X49166666Y-58999819D02*
X49166666Y-59714104D01*
X49166666Y-59714104D02*
X49119047Y-59856961D01*
X49119047Y-59856961D02*
X49023809Y-59952200D01*
X49023809Y-59952200D02*
X48880952Y-59999819D01*
X48880952Y-59999819D02*
X48785714Y-59999819D01*
X49642857Y-59999819D02*
X49642857Y-58999819D01*
X49642857Y-58999819D02*
X50023809Y-58999819D01*
X50023809Y-58999819D02*
X50119047Y-59047438D01*
X50119047Y-59047438D02*
X50166666Y-59095057D01*
X50166666Y-59095057D02*
X50214285Y-59190295D01*
X50214285Y-59190295D02*
X50214285Y-59333152D01*
X50214285Y-59333152D02*
X50166666Y-59428390D01*
X50166666Y-59428390D02*
X50119047Y-59476009D01*
X50119047Y-59476009D02*
X50023809Y-59523628D01*
X50023809Y-59523628D02*
X49642857Y-59523628D01*
X51166666Y-59999819D02*
X50595238Y-59999819D01*
X50880952Y-59999819D02*
X50880952Y-58999819D01*
X50880952Y-58999819D02*
X50785714Y-59142676D01*
X50785714Y-59142676D02*
X50690476Y-59237914D01*
X50690476Y-59237914D02*
X50595238Y-59285533D01*
%TO.C,N4*%
D12*
X153543760Y-62092830D02*
X153543760Y-42250350D01*
X173386240Y-42250350D02*
X173386240Y-62092830D01*
X153543760Y-42250350D02*
G75*
G02*
X173387433Y-42251771I9921240J-8326120D01*
G01*
X173386240Y-62092830D02*
G75*
G02*
X153542567Y-62091409I-9921240J8326119D01*
G01*
%TO.C,N3*%
X130663760Y-62092830D02*
X130663760Y-42250350D01*
X150506240Y-42250350D02*
X150506240Y-62092830D01*
X130663760Y-42250350D02*
G75*
G02*
X150507433Y-42251771I9921240J-8326120D01*
G01*
X150506240Y-62092830D02*
G75*
G02*
X130662567Y-62091409I-9921240J8326119D01*
G01*
%TO.C,R27*%
D13*
X242730000Y-40030000D02*
X242730000Y-46570000D01*
X242730000Y-46570000D02*
X243060000Y-46570000D01*
X243060000Y-40030000D02*
X242730000Y-40030000D01*
X245140000Y-40030000D02*
X245470000Y-40030000D01*
X245470000Y-40030000D02*
X245470000Y-46570000D01*
X245470000Y-46570000D02*
X245140000Y-46570000D01*
%TO.C,R12*%
X138190000Y-109945000D02*
X144730000Y-109945000D01*
X138190000Y-110275000D02*
X138190000Y-109945000D01*
X138190000Y-112355000D02*
X138190000Y-112685000D01*
X138190000Y-112685000D02*
X144730000Y-112685000D01*
X144730000Y-109945000D02*
X144730000Y-110275000D01*
X144730000Y-112685000D02*
X144730000Y-112355000D01*
%TO.C,R2*%
X138190000Y-118625000D02*
X144730000Y-118625000D01*
X138190000Y-118955000D02*
X138190000Y-118625000D01*
X138190000Y-121035000D02*
X138190000Y-121365000D01*
X138190000Y-121365000D02*
X144730000Y-121365000D01*
X144730000Y-118625000D02*
X144730000Y-118955000D01*
X144730000Y-121365000D02*
X144730000Y-121035000D01*
%TO.C,R21*%
X164480000Y-106425000D02*
X171020000Y-106425000D01*
X164480000Y-106755000D02*
X164480000Y-106425000D01*
X164480000Y-108835000D02*
X164480000Y-109165000D01*
X164480000Y-109165000D02*
X171020000Y-109165000D01*
X171020000Y-106425000D02*
X171020000Y-106755000D01*
X171020000Y-109165000D02*
X171020000Y-108835000D01*
%TO.C,D4*%
X159965000Y-49421590D02*
X159965000Y-54921590D01*
X159965000Y-49421590D02*
X166965000Y-49421590D01*
X159965000Y-54921590D02*
X166515000Y-54921590D01*
X160765000Y-53071590D02*
X160765000Y-51271590D01*
X166165000Y-53071590D02*
X166165000Y-51271590D01*
X166515000Y-54921590D02*
X166965000Y-54471590D01*
X166965000Y-54471590D02*
X166965000Y-49421590D01*
%TO.C,R10*%
X138190000Y-102835000D02*
X144730000Y-102835000D01*
X138190000Y-103165000D02*
X138190000Y-102835000D01*
X138190000Y-105245000D02*
X138190000Y-105575000D01*
X138190000Y-105575000D02*
X144730000Y-105575000D01*
X144730000Y-102835000D02*
X144730000Y-103165000D01*
X144730000Y-105575000D02*
X144730000Y-105245000D01*
%TO.C,Q1*%
X247577500Y-64952500D02*
X249097500Y-64952500D01*
X247577500Y-65002500D02*
X247577500Y-64952500D01*
X247577500Y-66902500D02*
X247577500Y-66122500D01*
X247577500Y-68072500D02*
X247577500Y-68022500D01*
X249097500Y-64952500D02*
X249097500Y-65952500D01*
X249097500Y-67072500D02*
X249097500Y-68072500D01*
X249097500Y-68072500D02*
X247577500Y-68072500D01*
X247037500Y-66132500D02*
X247277500Y-66462500D01*
X246797500Y-66462500D01*
X247037500Y-66132500D01*
G36*
X247277500Y-66462500D02*
G01*
X246797500Y-66462500D01*
X247037500Y-66132500D01*
X247277500Y-66462500D01*
G37*
%TO.C,D6*%
X182845000Y-49421590D02*
X182845000Y-54921590D01*
X182845000Y-49421590D02*
X189845000Y-49421590D01*
X182845000Y-54921590D02*
X189395000Y-54921590D01*
X183645000Y-53071590D02*
X183645000Y-51271590D01*
X189045000Y-53071590D02*
X189045000Y-51271590D01*
X189395000Y-54921590D02*
X189845000Y-54471590D01*
X189845000Y-54471590D02*
X189845000Y-49421590D01*
%TO.C,D5*%
X50990000Y-36464000D02*
X50990000Y-36620000D01*
X50990000Y-38780000D02*
X50990000Y-38936000D01*
X50990000Y-36464484D02*
G75*
G02*
X54221437Y-36620000I1560000J-1235516D01*
G01*
X51509039Y-36620000D02*
G75*
G02*
X53590961Y-36620000I1040961J-1080000D01*
G01*
X53590961Y-38780000D02*
G75*
G02*
X51509039Y-38780000I-1040961J1080000D01*
G01*
X54221437Y-38780000D02*
G75*
G02*
X50990000Y-38935516I-1671437J1080000D01*
G01*
%TO.C,R14*%
X151690000Y-106425000D02*
X158230000Y-106425000D01*
X151690000Y-106755000D02*
X151690000Y-106425000D01*
X151690000Y-108835000D02*
X151690000Y-109165000D01*
X151690000Y-109165000D02*
X158230000Y-109165000D01*
X158230000Y-106425000D02*
X158230000Y-106755000D01*
X158230000Y-109165000D02*
X158230000Y-108835000D01*
%TO.C,R7*%
X160175000Y-34305000D02*
X166715000Y-34305000D01*
X160175000Y-34635000D02*
X160175000Y-34305000D01*
X160175000Y-36715000D02*
X160175000Y-37045000D01*
X160175000Y-37045000D02*
X166715000Y-37045000D01*
X166715000Y-34305000D02*
X166715000Y-34635000D01*
X166715000Y-37045000D02*
X166715000Y-36715000D01*
%TO.C,R25*%
X164480000Y-122145000D02*
X171020000Y-122145000D01*
X164480000Y-122475000D02*
X164480000Y-122145000D01*
X164480000Y-124555000D02*
X164480000Y-124885000D01*
X164480000Y-124885000D02*
X171020000Y-124885000D01*
X171020000Y-122145000D02*
X171020000Y-122475000D01*
X171020000Y-124885000D02*
X171020000Y-124555000D01*
%TO.C,R23*%
X164480000Y-115035000D02*
X171020000Y-115035000D01*
X164480000Y-115365000D02*
X164480000Y-115035000D01*
X164480000Y-117445000D02*
X164480000Y-117775000D01*
X164480000Y-117775000D02*
X171020000Y-117775000D01*
X171020000Y-115035000D02*
X171020000Y-115365000D01*
X171020000Y-117775000D02*
X171020000Y-117445000D01*
%TO.C,R11*%
X138190000Y-106425000D02*
X144730000Y-106425000D01*
X138190000Y-106755000D02*
X138190000Y-106425000D01*
X138190000Y-108835000D02*
X138190000Y-109165000D01*
X138190000Y-109165000D02*
X144730000Y-109165000D01*
X144730000Y-106425000D02*
X144730000Y-106755000D01*
X144730000Y-109165000D02*
X144730000Y-108835000D01*
%TO.C,R5*%
X113735000Y-34305000D02*
X120275000Y-34305000D01*
X113735000Y-34635000D02*
X113735000Y-34305000D01*
X113735000Y-36715000D02*
X113735000Y-37045000D01*
X113735000Y-37045000D02*
X120275000Y-37045000D01*
X120275000Y-34305000D02*
X120275000Y-34635000D01*
X120275000Y-37045000D02*
X120275000Y-36715000D01*
%TO.C,R6*%
X137295000Y-34305000D02*
X143835000Y-34305000D01*
X137295000Y-34635000D02*
X137295000Y-34305000D01*
X137295000Y-36715000D02*
X137295000Y-37045000D01*
X137295000Y-37045000D02*
X143835000Y-37045000D01*
X143835000Y-34305000D02*
X143835000Y-34635000D01*
X143835000Y-37045000D02*
X143835000Y-36715000D01*
%TO.C,N6*%
D12*
X199303760Y-62092830D02*
X199303760Y-42250350D01*
X219146240Y-42250350D02*
X219146240Y-62092830D01*
X199303760Y-42250350D02*
G75*
G02*
X219147433Y-42251771I9921240J-8326120D01*
G01*
X219146240Y-62092830D02*
G75*
G02*
X199302567Y-62091409I-9921240J8326119D01*
G01*
%TO.C,U3*%
D14*
X226825000Y-46971590D02*
X237225000Y-46971590D01*
X226825000Y-57371590D02*
X226825000Y-46971590D01*
X237225000Y-46971590D02*
X237225000Y-57371590D01*
X237225000Y-57371590D02*
X226825000Y-57371590D01*
D15*
X225175000Y-46971590D02*
G75*
G02*
X224775000Y-46971590I-200000J0D01*
G01*
X224775000Y-46971590D02*
G75*
G02*
X225175000Y-46971590I200000J0D01*
G01*
%TO.C,R17*%
D13*
X151690000Y-118555000D02*
X158230000Y-118555000D01*
X151690000Y-118885000D02*
X151690000Y-118555000D01*
X151690000Y-120965000D02*
X151690000Y-121295000D01*
X151690000Y-121295000D02*
X158230000Y-121295000D01*
X158230000Y-118555000D02*
X158230000Y-118885000D01*
X158230000Y-121295000D02*
X158230000Y-120965000D01*
%TO.C,R8*%
X183055000Y-34305000D02*
X189595000Y-34305000D01*
X183055000Y-34635000D02*
X183055000Y-34305000D01*
X183055000Y-36715000D02*
X183055000Y-37045000D01*
X183055000Y-37045000D02*
X189595000Y-37045000D01*
X189595000Y-34305000D02*
X189595000Y-34635000D01*
X189595000Y-37045000D02*
X189595000Y-36715000D01*
%TO.C,R19*%
X151690000Y-122145000D02*
X158230000Y-122145000D01*
X151690000Y-122475000D02*
X151690000Y-122145000D01*
X151690000Y-124555000D02*
X151690000Y-124885000D01*
X151690000Y-124885000D02*
X158230000Y-124885000D01*
X158230000Y-122145000D02*
X158230000Y-122475000D01*
X158230000Y-124885000D02*
X158230000Y-124555000D01*
%TO.C,N1*%
D12*
X84903760Y-62092830D02*
X84903760Y-42250350D01*
X104746240Y-42250350D02*
X104746240Y-62092830D01*
X84903760Y-42250350D02*
G75*
G02*
X104747433Y-42251771I9921240J-8326120D01*
G01*
X104746240Y-62092830D02*
G75*
G02*
X84902567Y-62091409I-9921240J8326119D01*
G01*
%TO.C,J3*%
D13*
X158190000Y-95395000D02*
X158190000Y-98155000D01*
X163380000Y-95395000D02*
X158190000Y-95395000D01*
X163380000Y-95395000D02*
X163380000Y-98155000D01*
X163380000Y-98155000D02*
X158190000Y-98155000D01*
X164650000Y-95395000D02*
X166030000Y-95395000D01*
X166030000Y-95395000D02*
X166030000Y-96775000D01*
%TO.C,C6*%
X57405000Y-52105000D02*
X57735000Y-52105000D01*
X57405000Y-57045000D02*
X57405000Y-52105000D01*
X57735000Y-57045000D02*
X57405000Y-57045000D01*
X59815000Y-52105000D02*
X60145000Y-52105000D01*
X60145000Y-52105000D02*
X60145000Y-57045000D01*
X60145000Y-57045000D02*
X59815000Y-57045000D01*
%TO.C,C9*%
X241505000Y-50580000D02*
X241835000Y-50580000D01*
X241505000Y-55520000D02*
X241505000Y-50580000D01*
X241835000Y-55520000D02*
X241505000Y-55520000D01*
X243915000Y-50580000D02*
X244245000Y-50580000D01*
X244245000Y-50580000D02*
X244245000Y-55520000D01*
X244245000Y-55520000D02*
X243915000Y-55520000D01*
%TO.C,R26*%
X223615000Y-34780000D02*
X223615000Y-35110000D01*
X223615000Y-37520000D02*
X223615000Y-37190000D01*
X230155000Y-34780000D02*
X223615000Y-34780000D01*
X230155000Y-35110000D02*
X230155000Y-34780000D01*
X230155000Y-37190000D02*
X230155000Y-37520000D01*
X230155000Y-37520000D02*
X223615000Y-37520000D01*
%TO.C,R1*%
X138190000Y-115035000D02*
X144730000Y-115035000D01*
X138190000Y-115365000D02*
X138190000Y-115035000D01*
X138190000Y-117445000D02*
X138190000Y-117775000D01*
X138190000Y-117775000D02*
X144730000Y-117775000D01*
X144730000Y-115035000D02*
X144730000Y-115365000D01*
X144730000Y-117775000D02*
X144730000Y-117445000D01*
%TO.C,D3*%
X137085000Y-49421590D02*
X137085000Y-54921590D01*
X137085000Y-49421590D02*
X144085000Y-49421590D01*
X137085000Y-54921590D02*
X143635000Y-54921590D01*
X137885000Y-53071590D02*
X137885000Y-51271590D01*
X143285000Y-53071590D02*
X143285000Y-51271590D01*
X143635000Y-54921590D02*
X144085000Y-54471590D01*
X144085000Y-54471590D02*
X144085000Y-49421590D01*
%TO.C,C7*%
X244755000Y-50580000D02*
X245085000Y-50580000D01*
X244755000Y-55520000D02*
X244755000Y-50580000D01*
X245085000Y-55520000D02*
X244755000Y-55520000D01*
X247165000Y-50580000D02*
X247495000Y-50580000D01*
X247495000Y-50580000D02*
X247495000Y-55520000D01*
X247495000Y-55520000D02*
X247165000Y-55520000D01*
%TO.C,U2*%
D14*
X66825000Y-46971590D02*
X77225000Y-46971590D01*
X66825000Y-57371590D02*
X66825000Y-46971590D01*
X77225000Y-46971590D02*
X77225000Y-57371590D01*
X77225000Y-57371590D02*
X66825000Y-57371590D01*
D15*
X79275000Y-57371590D02*
G75*
G02*
X78875000Y-57371590I-200000J0D01*
G01*
X78875000Y-57371590D02*
G75*
G02*
X79275000Y-57371590I200000J0D01*
G01*
%TO.C,N2*%
D12*
X107783760Y-62092830D02*
X107783760Y-42250350D01*
X127626240Y-42250350D02*
X127626240Y-62092830D01*
X107783760Y-42250350D02*
G75*
G02*
X127627433Y-42251771I9921240J-8326120D01*
G01*
X127626240Y-62092830D02*
G75*
G02*
X107782567Y-62091409I-9921240J8326119D01*
G01*
%TO.C,R24*%
D13*
X164480000Y-118625000D02*
X171020000Y-118625000D01*
X164480000Y-118955000D02*
X164480000Y-118625000D01*
X164480000Y-121035000D02*
X164480000Y-121365000D01*
X164480000Y-121365000D02*
X171020000Y-121365000D01*
X171020000Y-118625000D02*
X171020000Y-118955000D01*
X171020000Y-121365000D02*
X171020000Y-121035000D01*
%TO.C,R4*%
X91535000Y-34305000D02*
X98075000Y-34305000D01*
X91535000Y-34635000D02*
X91535000Y-34305000D01*
X91535000Y-36715000D02*
X91535000Y-37045000D01*
X91535000Y-37045000D02*
X98075000Y-37045000D01*
X98075000Y-34305000D02*
X98075000Y-34635000D01*
X98075000Y-37045000D02*
X98075000Y-36715000D01*
%TO.C,R13*%
X151690000Y-102835000D02*
X158230000Y-102835000D01*
X151690000Y-103165000D02*
X151690000Y-102835000D01*
X151690000Y-105245000D02*
X151690000Y-105575000D01*
X151690000Y-105575000D02*
X158230000Y-105575000D01*
X158230000Y-102835000D02*
X158230000Y-103165000D01*
X158230000Y-105575000D02*
X158230000Y-105245000D01*
%TO.C,R16*%
X151690000Y-115035000D02*
X158230000Y-115035000D01*
X151690000Y-115365000D02*
X151690000Y-115035000D01*
X151690000Y-117445000D02*
X151690000Y-117775000D01*
X151690000Y-117775000D02*
X158230000Y-117775000D01*
X158230000Y-115035000D02*
X158230000Y-115365000D01*
X158230000Y-117775000D02*
X158230000Y-117445000D01*
%TO.C,N5*%
D12*
X176423760Y-62092830D02*
X176423760Y-42250350D01*
X196266240Y-42250350D02*
X196266240Y-62092830D01*
X176423760Y-42250350D02*
G75*
G02*
X196267433Y-42251771I9921240J-8326120D01*
G01*
X196266240Y-62092830D02*
G75*
G02*
X176422567Y-62091409I-9921240J8326119D01*
G01*
%TO.C,D7*%
D13*
X205725000Y-49421590D02*
X205725000Y-54921590D01*
X205725000Y-49421590D02*
X212725000Y-49421590D01*
X205725000Y-54921590D02*
X212275000Y-54921590D01*
X206525000Y-53071590D02*
X206525000Y-51271590D01*
X211925000Y-53071590D02*
X211925000Y-51271590D01*
X212275000Y-54921590D02*
X212725000Y-54471590D01*
X212725000Y-54471590D02*
X212725000Y-49421590D01*
%TO.C,R15*%
X151690000Y-109945000D02*
X158230000Y-109945000D01*
X151690000Y-110275000D02*
X151690000Y-109945000D01*
X151690000Y-112355000D02*
X151690000Y-112685000D01*
X151690000Y-112685000D02*
X158230000Y-112685000D01*
X158230000Y-109945000D02*
X158230000Y-110275000D01*
X158230000Y-112685000D02*
X158230000Y-112355000D01*
%TO.C,D2*%
X114205000Y-49421590D02*
X114205000Y-54921590D01*
X114205000Y-49421590D02*
X121205000Y-49421590D01*
X114205000Y-54921590D02*
X120755000Y-54921590D01*
X115005000Y-53071590D02*
X115005000Y-51271590D01*
X120405000Y-53071590D02*
X120405000Y-51271590D01*
X120755000Y-54921590D02*
X121205000Y-54471590D01*
X121205000Y-54471590D02*
X121205000Y-49421590D01*
%TO.C,R22*%
X164480000Y-109945000D02*
X171020000Y-109945000D01*
X164480000Y-110275000D02*
X164480000Y-109945000D01*
X164480000Y-112355000D02*
X164480000Y-112685000D01*
X164480000Y-112685000D02*
X171020000Y-112685000D01*
X171020000Y-109945000D02*
X171020000Y-110275000D01*
X171020000Y-112685000D02*
X171020000Y-112355000D01*
%TO.C,U1*%
X241250000Y-68185000D02*
X243050000Y-68185000D01*
X242250000Y-64965000D02*
X241450000Y-64965000D01*
X242250000Y-64965000D02*
X243050000Y-64965000D01*
X240950000Y-65015000D02*
X240710000Y-64685000D01*
X241190000Y-64685000D01*
X240950000Y-65015000D01*
G36*
X240950000Y-65015000D02*
G01*
X240710000Y-64685000D01*
X241190000Y-64685000D01*
X240950000Y-65015000D01*
G37*
%TO.C,R3*%
X138190000Y-122145000D02*
X144730000Y-122145000D01*
X138190000Y-122475000D02*
X138190000Y-122145000D01*
X138190000Y-124555000D02*
X138190000Y-124885000D01*
X138190000Y-124885000D02*
X144730000Y-124885000D01*
X144730000Y-122145000D02*
X144730000Y-122475000D01*
X144730000Y-124885000D02*
X144730000Y-124555000D01*
%TO.C,D1*%
X91325000Y-49421590D02*
X91325000Y-54921590D01*
X91325000Y-49421590D02*
X98325000Y-49421590D01*
X91325000Y-54921590D02*
X97875000Y-54921590D01*
X92125000Y-53071590D02*
X92125000Y-51271590D01*
X97525000Y-53071590D02*
X97525000Y-51271590D01*
X97875000Y-54921590D02*
X98325000Y-54471590D01*
X98325000Y-54471590D02*
X98325000Y-49421590D01*
%TO.C,R20*%
X164480000Y-102835000D02*
X171020000Y-102835000D01*
X164480000Y-103165000D02*
X164480000Y-102835000D01*
X164480000Y-105245000D02*
X164480000Y-105575000D01*
X164480000Y-105575000D02*
X171020000Y-105575000D01*
X171020000Y-102835000D02*
X171020000Y-103165000D01*
X171020000Y-105575000D02*
X171020000Y-105245000D01*
%TO.C,J1*%
X131380000Y-132430000D02*
X131380000Y-131050000D01*
X132760000Y-132430000D02*
X131380000Y-132430000D01*
X134030000Y-129670000D02*
X177320000Y-129670000D01*
X134030000Y-132430000D02*
X134030000Y-129670000D01*
X134030000Y-132430000D02*
X177320000Y-132430000D01*
X177320000Y-132430000D02*
X177320000Y-129670000D01*
%TO.C,C8*%
X60830000Y-52105000D02*
X61160000Y-52105000D01*
X60830000Y-57045000D02*
X60830000Y-52105000D01*
X61160000Y-57045000D02*
X60830000Y-57045000D01*
X63240000Y-52105000D02*
X63570000Y-52105000D01*
X63570000Y-52105000D02*
X63570000Y-57045000D01*
X63570000Y-57045000D02*
X63240000Y-57045000D01*
%TO.C,R9*%
X205935000Y-34305000D02*
X212475000Y-34305000D01*
X205935000Y-34635000D02*
X205935000Y-34305000D01*
X205935000Y-36715000D02*
X205935000Y-37045000D01*
X205935000Y-37045000D02*
X212475000Y-37045000D01*
X212475000Y-34305000D02*
X212475000Y-34635000D01*
X212475000Y-37045000D02*
X212475000Y-36715000D01*
%TO.C,R18*%
X56930000Y-39255000D02*
X63470000Y-39255000D01*
X56930000Y-39585000D02*
X56930000Y-39255000D01*
X56930000Y-41665000D02*
X56930000Y-41995000D01*
X56930000Y-41995000D02*
X63470000Y-41995000D01*
X63470000Y-39255000D02*
X63470000Y-39585000D01*
X63470000Y-41995000D02*
X63470000Y-41665000D01*
%TO.C,J2*%
X129185000Y-71105000D02*
X129185000Y-69725000D01*
X130565000Y-71105000D02*
X129185000Y-71105000D01*
X131835000Y-68345000D02*
X175125000Y-68345000D01*
X131835000Y-71105000D02*
X131835000Y-68345000D01*
X131835000Y-71105000D02*
X175125000Y-71105000D01*
X175125000Y-71105000D02*
X175125000Y-68345000D01*
%TO.C,JP1*%
X48620000Y-55895000D02*
X48620000Y-40545000D01*
X51380000Y-40545000D02*
X48620000Y-40545000D01*
X51380000Y-55895000D02*
X48620000Y-55895000D01*
X51380000Y-55895000D02*
X51380000Y-40545000D01*
X51380000Y-57165000D02*
X51380000Y-58545000D01*
X51380000Y-58545000D02*
X50000000Y-58545000D01*
%TD*%
M02*
