M48
; DRILL file KiCad 10.0.5 date 2026-08-19T21:39:51
; FORMAT={-:-/ absolute / metric / decimal}
; #@! TF.CreationDate,2026-08-19T21:39:51+03:00
; #@! TF.GenerationSoftware,Kicad,Pcbnew,10.0.5
; #@! TF.FileFunction,MixedPlating,1,2
FMAT,2
METRIC
; #@! TA.AperFunction,Plated,PTH,ViaDrill
T1C0.330
; #@! TA.AperFunction,Plated,PTH,ComponentDrill
T2C0.800
; #@! TA.AperFunction,Plated,PTH,ComponentDrill
T3C0.900
; #@! TA.AperFunction,Plated,PTH,ComponentDrill
T4C1.000
; #@! TA.AperFunction,Plated,PTH,ComponentDrill
T5C1.598
; #@! TA.AperFunction,NonPlated,NPTH,ComponentDrill
T6C2.700
%
G90
G05
T1
X45.125Y-49.65
X46.175Y-45.875
X46.175Y-50.675
X48.106Y-47.15
X48.106Y-49.65
X52.225Y-47.95
X59.325Y-58.125
X59.825Y-59.55
X62.675Y-44.9
X65.6Y-34.75
X65.6Y-36.975
X67.3Y-43.4
X68.2Y-42.575
X69.025Y-41.6
X70.2Y-40.825
X72.475Y-38.925
X73.9Y-62.175
X75.4Y-62.125
X76.075Y-51.425
X76.125Y-37.125
X76.175Y-38.825
X76.175Y-40.425
X76.287Y-42.112
X76.287Y-43.65
X76.8Y-62.175
X78.125Y-62.2
X78.225Y-60.05
X79.9Y-62.1
X81.55Y-62.125
X83.075Y-62.125
X83.45Y-60.5
X95.925Y-68.375
X100.45Y-63.025
X100.89Y-64.367
X100.89Y-65.375
X100.89Y-66.525
X100.89Y-67.548
X103.175Y-61.475
X104.325Y-57.725
X105.6Y-56.575
X106.325Y-36.568
X106.325Y-42.275
X106.325Y-53.65
X108.95Y-72.8
X108.975Y-69.15
X110.3Y-70.35
X124.675Y-66.219
X125.792Y-69.479
X126.2Y-67.8
X126.381Y-60.17
X138.625Y-66.9
X140.585Y-64.75
X141.95Y-70.9
X143.125Y-57.05
X164.875Y-67.975
X164.875Y-71.6
X164.875Y-72.8
X165.425Y-65.75
X174.925Y-58.2
X188.35Y-70.3
X188.375Y-72.8
X192.875Y-72.1
X200.1Y-63.425
X200.175Y-49.575
X201.2Y-69.694
X201.225Y-64.4
X202.2Y-65.3
X202.564Y-67.499
X203.2Y-68.369
X203.225Y-70.59
X203.55Y-66.23
X204.05Y-64.65
X204.2Y-68.955
X205.4Y-66.23
X210.35Y-71.6
X212.4Y-71.6
X220.725Y-52.15
X220.75Y-47.725
X220.75Y-50.572
X220.775Y-49.325
X221.3Y-53.375
X221.575Y-56.6
X222.225Y-47.725
X222.64Y-55.186
X222.75Y-63.22
X224.2Y-62.425
X225.5Y-61.9
X229.075Y-43.65
X229.875Y-43.0
X230.775Y-42.225
X231.704Y-41.833
X232.775Y-41.692
X233.66Y-42.24
X233.675Y-69.85
X234.425Y-67.025
X234.675Y-43.075
X235.2Y-68.825
X236.025Y-68.325
X236.145Y-42.175
X238.775Y-69.55
X239.1Y-66.525
X240.325Y-48.6
X240.325Y-51.325
X240.675Y-48.025
X241.0Y-52.15
T2
X56.39Y-40.625
X58.775Y-52.075
X58.775Y-57.075
X62.2Y-52.075
X62.2Y-57.075
X64.01Y-40.625
X90.995Y-35.675
X98.615Y-35.675
X113.195Y-35.675
X120.815Y-35.675
X136.755Y-35.675
X137.65Y-104.205
X137.65Y-107.795
X137.65Y-111.315
X137.65Y-116.405
X137.65Y-119.995
X137.65Y-123.515
X144.375Y-35.675
X145.27Y-104.205
X145.27Y-107.795
X145.27Y-111.315
X145.27Y-116.405
X145.27Y-119.995
X145.27Y-123.515
X151.15Y-104.205
X151.15Y-107.795
X151.15Y-111.315
X151.15Y-116.405
X151.15Y-119.925
X151.15Y-123.515
X158.77Y-104.205
X158.77Y-107.795
X158.77Y-111.315
X158.77Y-116.405
X158.77Y-119.925
X158.77Y-123.515
X159.635Y-35.675
X163.94Y-104.205
X163.94Y-107.795
X163.94Y-111.315
X163.94Y-116.405
X163.94Y-119.995
X163.94Y-123.515
X167.255Y-35.675
X171.56Y-104.205
X171.56Y-107.795
X171.56Y-111.315
X171.56Y-116.405
X171.56Y-119.995
X171.56Y-123.515
X182.515Y-35.675
X190.135Y-35.675
X205.395Y-35.675
X213.015Y-35.675
X223.075Y-36.15
X230.695Y-36.15
X242.875Y-50.55
X242.875Y-55.55
X244.1Y-39.49
X244.1Y-47.11
X246.125Y-50.55
X246.125Y-55.55
T3
X51.28Y-37.7
X53.82Y-37.7
T4
X50.0Y-41.925
X50.0Y-44.465
X50.0Y-47.005
X50.0Y-49.545
X50.0Y-52.085
X50.0Y-54.625
X50.0Y-57.165
X130.565Y-69.725
X132.76Y-131.05
X133.105Y-69.725
X135.3Y-131.05
X135.645Y-69.725
X137.84Y-131.05
X138.185Y-69.725
X140.38Y-131.05
X140.725Y-69.725
X142.92Y-131.05
X143.265Y-69.725
X145.46Y-131.05
X145.805Y-69.725
X148.0Y-131.05
X148.345Y-69.725
X150.54Y-131.05
X150.885Y-69.725
X153.08Y-131.05
X153.425Y-69.725
X155.62Y-131.05
X155.965Y-69.725
X158.16Y-131.05
X158.505Y-69.725
X159.57Y-96.775
X160.7Y-131.05
X161.045Y-69.725
X162.11Y-96.775
X163.24Y-131.05
X163.585Y-69.725
X164.65Y-96.775
X165.78Y-131.05
X166.125Y-69.725
X168.32Y-131.05
X168.665Y-69.725
X170.86Y-131.05
X171.205Y-69.725
X173.4Y-131.05
X173.745Y-69.725
X175.94Y-131.05
T5
X89.077Y-47.673
X89.077Y-52.172
X89.077Y-56.67
X90.827Y-44.173
X90.827Y-60.17
X94.825Y-43.172
X94.825Y-61.171
X98.823Y-44.173
X98.823Y-60.17
X100.573Y-47.673
X100.573Y-52.172
X100.573Y-56.67
X111.957Y-47.673
X111.957Y-52.172
X111.957Y-56.67
X113.707Y-44.173
X113.707Y-60.17
X117.705Y-43.172
X117.705Y-61.171
X121.703Y-44.173
X121.703Y-60.17
X123.453Y-47.673
X123.453Y-52.172
X123.453Y-56.67
X134.837Y-47.673
X134.837Y-52.172
X134.837Y-56.67
X136.587Y-44.173
X136.587Y-60.17
X140.585Y-43.172
X140.585Y-61.171
X144.583Y-44.173
X144.583Y-60.17
X146.333Y-47.673
X146.333Y-52.172
X146.333Y-56.67
X157.717Y-47.673
X157.717Y-52.172
X157.717Y-56.67
X159.467Y-44.173
X159.467Y-60.17
X163.465Y-43.172
X163.465Y-61.171
X167.463Y-44.173
X167.463Y-60.17
X169.213Y-47.673
X169.213Y-52.172
X169.213Y-56.67
X180.597Y-47.673
X180.597Y-52.172
X180.597Y-56.67
X182.347Y-44.173
X182.347Y-60.17
X186.345Y-43.172
X186.345Y-61.171
X190.343Y-44.173
X190.343Y-60.17
X192.093Y-47.673
X192.093Y-52.172
X192.093Y-56.67
X203.477Y-47.673
X203.477Y-52.172
X203.477Y-56.67
X205.227Y-44.173
X205.227Y-60.17
X209.225Y-43.172
X209.225Y-61.171
X213.223Y-44.173
X213.223Y-60.17
X214.973Y-47.673
X214.973Y-52.172
X214.973Y-56.67
T6
X47.975Y-71.35
X48.05Y-30.25
X152.15Y-35.875
X154.345Y-96.695
X255.7Y-30.325
X255.7Y-71.35
M30
